<?xml version="1.0" encoding="UTF-8"?>
<svg width="20px" height="20px" viewBox="0 0 20 20" version="1.1" xmlns="http://www.w3.org/2000/svg" xmlns:xlink="http://www.w3.org/1999/xlink">
    <title>bell</title>
    <g id="icons" stroke="none" stroke-width="1" fill="none" fill-rule="evenodd">
        <g id="desktop" transform="translate(-150.000000, -752.000000)" fill="#555555" fill-rule="nonzero">
            <g id="icon" transform="translate(70.000000, 212.000000)">
                <g id="bell" transform="translate(80.000000, 540.000000)">
                    <path d="M9.98546213,0 C11.0738151,0 11.9560995,0.897956369 11.9560995,2.00564169 L11.9474262,2.16857402 C12.8154358,2.52052079 13.6536505,3.10521908 14.3982383,3.87807132 C15.2598324,4.77237143 15.7643314,5.95615219 15.9194472,7.47478499 L15.9194472,12.9530263 L17.110036,15.0509445 C17.5095265,15.7167459 17.6377183,16.2749986 17.3257968,16.7576931 C17.0403571,17.1994072 16.5294845,17.3525518 15.8350964,17.3412244 L13.1652799,17.3417555 C12.8549424,18.85959 11.5332274,20 9.94980414,20 C8.36638086,20 7.04466588,18.85959 6.73432835,17.3417555 L3.77764595,17.3412244 L3.72235669,17.3388521 C3.09539086,17.2849519 2.6282251,16.9815541 2.52321251,16.3980734 C2.45200959,16.0024491 2.54550135,15.5756677 2.79146293,15.0675726 L4.01624036,12.8871114 L4.01880221,7.41484929 C4.12578521,6.20521083 4.57841144,5.07753145 5.36675672,4.0436623 C6.03387517,3.16877511 6.98677948,2.52517246 8.02078708,2.15401297 C8.01662368,2.10512435 8.01482476,2.05547904 8.01482476,2.00564169 C8.01482476,0.897956369 8.89710916,0 9.98546213,0 Z M11.8025327,17.3422137 L8.09707557,17.3422137 C8.37210013,18.1126198 9.09781066,18.6629055 9.94980414,18.6629055 C10.8017976,18.6629055 11.5275081,18.1126198 11.8025327,17.3422137 Z M10.0815452,3.12397089 C8.72815253,3.12397089 7.23880206,3.76947015 6.40463611,4.86343046 C5.76697658,5.69968397 5.41116271,6.58616367 5.32991538,7.47478499 L5.32991538,13.0648706 C5.32991538,13.1812593 5.30006071,13.2956317 5.24330449,13.3966743 L3.95167509,15.693396 C3.89083954,15.8198362 3.85259204,15.9240447 3.83205632,16.0041304 L15.8455449,16.0042146 C15.9671736,16.0061838 16.0586311,16.0014725 16.1220735,15.9985769 C16.0894627,15.9259816 16.0429416,15.8378504 15.9806338,15.7337983 L14.6937782,13.4666494 C14.6360709,13.3649821 14.6056889,13.2496401 14.6056889,13.1322274 L14.6093789,7.54554741 C14.4878881,6.38390365 14.1034843,5.48192009 13.4601893,4.81420571 C12.4192675,3.73377068 11.1975803,3.12397089 10.0815452,3.12397089 Z M9.98546213,1.33709446 C9.68091977,1.33709446 9.42478227,1.54802154 9.35038998,1.83416683 C9.59577409,1.80261438 9.84002218,1.78687644 10.0815452,1.78687644 C10.2594993,1.78687644 10.4380858,1.79772996 10.6167735,1.81906594 C10.5378669,1.54127232 10.2850925,1.33709446 9.98546213,1.33709446 Z"></path>
                </g>
            </g>
        </g>
    </g>
</svg>