<?xml version="1.0" encoding="UTF-8"?>
<svg width="20px" height="20px" viewBox="0 0 20 20" version="1.1" xmlns="http://www.w3.org/2000/svg" xmlns:xlink="http://www.w3.org/1999/xlink">
    <title>close</title>
    <g id="icons" stroke="none" stroke-width="1" fill="none" fill-rule="evenodd">
        <g id="desktop" transform="translate(-190.000000, -472.000000)" fill="#555555" fill-rule="nonzero">
            <g id="icon" transform="translate(70.000000, 212.000000)">
                <g id="close" transform="translate(120.000000, 260.000000)">
                    <path d="M3.21878052,2.15447998 L9.99678993,8.92744993 L16.7026814,2.22182541 C17.1598053,1.8145752 17.6339389,2.05757141 17.8218994,2.2625885 C18.0098599,2.46760559 18.1171875,2.95117187 17.7781746,3.29731856 L11.0707899,10.0014499 L17.7781746,16.7026814 C18.0764771,16.9529419 18.0764771,17.4433594 17.8370056,17.7165527 C17.5975342,17.9897461 17.1575623,18.148407 16.7415466,17.8244324 L9.99678993,11.0754499 L3.24360657,17.8271179 C2.948349,18.0919647 2.46049253,18.038208 2.21878052,17.7746429 C1.9770685,17.5110779 1.8853302,17.0549164 2.19441469,16.7330362 L8.92278993,10.0014499 L2.22182541,3.29731856 C1.97729492,3.02648926 1.89189987,2.53264694 2.22182541,2.22182541 C2.55175094,1.91100387 3.04367065,1.95437622 3.21878052,2.15447998 Z"></path>
                </g>
            </g>
        </g>
    </g>
</svg>