<?xml version="1.0" encoding="UTF-8"?>
<svg width="20px" height="20px" viewBox="0 0 20 20" version="1.1" xmlns="http://www.w3.org/2000/svg" xmlns:xlink="http://www.w3.org/1999/xlink">
    <title>file-add</title>
    <g id="icons" stroke="none" stroke-width="1" fill="none" fill-rule="evenodd">
        <g id="desktop" transform="translate(-590.000000, -632.000000)" fill="#555555" fill-rule="nonzero">
            <g id="icon" transform="translate(70.000000, 212.000000)">
                <g id="file-add" transform="translate(520.000000, 420.000000)">
                    <path d="M16.8388383,15.0007046 L13.9738042,15.0007046 L13.9738042,11.9542589 C13.9738042,11.7588698 13.909549,11.5928515 13.7810388,11.4562041 C13.6525285,11.3195567 13.4963964,11.251233 13.3126424,11.251233 C13.1288885,11.251233 12.9727563,11.3195567 12.8442461,11.4562041 C12.7157358,11.5928515 12.6514807,11.7588698 12.6514807,11.9542589 L12.6514807,15.0007046 L9.93337143,15.0007046 C9.74961745,15.0007046 9.59348533,15.0690283 9.46497508,15.2056757 C9.33646484,15.3423231 9.27220971,15.5083413 9.27220971,15.7037305 C9.27220971,15.8991196 9.33646484,16.0651379 9.46497508,16.2017853 C9.59348533,16.3384327 9.74961745,16.4067564 9.93337143,16.4067564 L12.6514807,16.4067564 L12.6514807,19.2969741 C12.6514807,19.4923632 12.7157358,19.6583815 12.8442461,19.7950289 C12.9727563,19.9316763 13.1288885,20 13.3126424,20 C13.4963964,20 13.6525285,19.9316763 13.7810388,19.7950289 C13.909549,19.6583815 13.9738042,19.4923632 13.9738042,19.2969741 L13.9738042,16.4067564 L16.8388383,16.4067564 C17.0225923,16.4067564 17.1787244,16.3384327 17.3072346,16.2017853 C17.4357449,16.0651379 17.5,15.8991196 17.5,15.7037305 C17.5,15.5083413 17.4357449,15.3423231 17.3072346,15.2056757 C17.1787244,15.0690283 17.0225923,15.0007046 16.8388383,15.0007046 Z M17.3552572,5.02744336 L13.3303052,0.480698045 L12.88962,0.00219328565 L3.78015969,0.00219328565 C3.60938445,0.00219328565 3.42082973,-0.00881814038 3.25363927,0.0185045294 C3.0610362,0.0499801883 2.89252504,0.130125142 2.74207186,0.300303457 C2.46101672,0.618206268 2.50267232,1.01746687 2.50267232,1.40824513 L2.50267232,18.5933232 C2.50267232,18.9841015 2.45712911,19.4072464 2.74207186,19.7033107 C3.0270146,19.9993751 3.21788756,19.9993751 3.58539553,19.9993751 L8.61046029,19.9993751 C8.79421428,19.9993751 8.95034639,19.9310514 9.07885664,19.794404 C9.20736689,19.6577566 9.27162201,19.4917383 9.27162201,19.2963492 C9.27162201,19.10096 9.20736689,18.9349418 9.07885664,18.7982944 C8.95034639,18.6616469 8.79421428,18.5933232 8.61046029,18.5933232 L3.84495503,18.5933232 L3.83881281,1.3642931 L11.113584,1.3642931 L11.113584,4.9573716 C11.113584,5.34814986 11.2659145,5.70047623 11.505257,5.95348122 C11.7445995,6.20648621 12.0745417,6.36342345 12.4420496,6.36342345 L16.1770889,6.36342345 L16.1770889,10.5475821 C16.1770889,10.7429713 16.241344,10.9089895 16.3698542,11.0456369 C16.4983645,11.1822844 16.6544966,11.2506081 16.8382506,11.2506081 C17.0220046,11.2506081 17.1781367,11.1822844 17.3066469,11.0456369 C17.4351572,10.9089895 17.4994123,10.7429713 17.4994123,10.5475821 L17.4994123,5.47537652 C17.4995829,5.42590132 17.4997788,5.33285203 17.5,5.19622867 L17.3552572,5.02744336 Z M12.5184409,4.85473281 C12.4769641,4.80184148 12.4516963,4.70854652 12.4426373,4.57484796 L12.4426373,1.52137418 L15.501822,4.95799651 L12.7599299,4.95799651 C12.640414,4.94204538 12.5599177,4.90762414 12.5184409,4.85473281 Z"></path>
                </g>
            </g>
        </g>
    </g>
</svg>