<?xml version="1.0" encoding="UTF-8"?>
<svg width="20px" height="20px" viewBox="0 0 20 20" version="1.1" xmlns="http://www.w3.org/2000/svg" xmlns:xlink="http://www.w3.org/1999/xlink">
    <title>left-circle</title>
    <g id="icons" stroke="none" stroke-width="1" fill="none" fill-rule="evenodd">
        <g id="desktop" transform="translate(-150.000000, -292.000000)" fill="#555555" fill-rule="nonzero">
            <g id="icon" transform="translate(70.000000, 212.000000)">
                <g id="left-circle" transform="translate(80.000000, 80.000000)">
                    <path d="M10,0 C15.5228475,0 20,4.4771525 20,10 C20,15.5228475 15.5228475,20 10,20 C4.4771525,20 0,15.5228475 0,10 C0,4.4771525 4.4771525,0 10,0 Z M10.7879967,5.64577005 L6.91785319,9.61728273 C6.65804237,9.88389868 6.66011276,10.3096256 6.92250445,10.5737019 L10.792648,14.4686937 C11.0580611,14.735811 11.4897623,14.7371924 11.7568796,14.4717792 C12.0239968,14.2063661 12.0253782,13.7746649 11.7599651,13.5075477 L8.36270656,10.088477 L11.7646163,6.59746236 C12.0274189,6.3277763 12.0218388,5.89610897 11.7521527,5.6333064 C11.4824666,5.37050382 11.0507993,5.37608399 10.7879967,5.64577005 Z"></path>
                </g>
            </g>
        </g>
    </g>
</svg>