<?xml version="1.0" encoding="UTF-8"?>
<svg width="20px" height="20px" viewBox="0 0 20 20" version="1.1" xmlns="http://www.w3.org/2000/svg" xmlns:xlink="http://www.w3.org/1999/xlink">
    <title>plus-circle</title>
    <g id="icons" stroke="none" stroke-width="1" fill="none" fill-rule="evenodd">
        <g id="desktop" transform="translate(-230.000000, -432.000000)" fill="#555555" fill-rule="nonzero">
            <g id="icon" transform="translate(70.000000, 212.000000)">
                <g id="plus-circle" transform="translate(160.000000, 220.000000)">
                    <path d="M10,0 C15.5228475,0 20,4.4771525 20,10 C20,15.5228475 15.5228475,20 10,20 C4.4771525,20 0,15.5228475 0,10 C0,4.4771525 4.4771525,0 10,0 Z M10,5.47455848 C9.62344222,5.47455848 9.31818182,5.77981887 9.31818182,6.15637666 L9.31818182,6.15637666 L9.318,9.279 L6.19496649,9.27959198 C5.85264123,9.27959198 5.56923944,9.5318733 5.52054097,9.86065607 L5.51314831,9.96141017 C5.51314831,10.3379679 5.81840871,10.6432283 6.19496649,10.6432283 L6.19496649,10.6432283 L9.318,10.643 L9.31818182,13.7664437 C9.31818182,14.1087689 9.57046314,14.3921707 9.89924591,14.4408692 L10,14.4482619 C10.3765578,14.4482619 10.6818182,14.1430015 10.6818182,13.7664437 L10.6818182,13.7664437 L10.681,10.643 L13.8050335,10.6432283 C14.1473588,10.6432283 14.4307606,10.390947 14.479459,10.0621643 L14.4868517,9.96141017 C14.4868517,9.58485238 14.1815913,9.27959198 13.8050335,9.27959198 L13.8050335,9.27959198 L10.681,9.279 L10.6818182,6.15637666 C10.6818182,5.8140514 10.4295369,5.5306496 10.1007541,5.48195113 Z"></path>
                </g>
            </g>
        </g>
    </g>
</svg>