<?xml version="1.0" encoding="UTF-8"?>
<svg width="20px" height="20px" viewBox="0 0 20 20" version="1.1" xmlns="http://www.w3.org/2000/svg" xmlns:xlink="http://www.w3.org/1999/xlink">
    <title>right-circle</title>
    <g id="icons" stroke="none" stroke-width="1" fill="none" fill-rule="evenodd">
        <g id="desktop" transform="translate(-190.000000, -292.000000)" fill="#555555" fill-rule="nonzero">
            <g id="icon" transform="translate(70.000000, 212.000000)">
                <g id="right-circle" transform="translate(120.000000, 80.000000)">
                    <path d="M10,0 C15.5228475,0 20,4.4771525 20,10 C20,15.5228475 15.5228475,20 10,20 C4.4771525,20 0,15.5228475 0,10 C0,4.4771525 4.4771525,0 10,0 Z M8.74858635,5.64577005 C8.48578378,5.37608399 8.05411645,5.37050382 7.78443039,5.6333064 C7.51474433,5.89610897 7.50916416,6.3277763 7.77196674,6.59746236 L7.77196674,6.59746236 L11.1738765,10.088477 L7.776618,13.5075477 C7.51120484,13.7746649 7.51258627,14.2063661 7.77970352,14.4717792 C8.04682076,14.7371924 8.47852194,14.735811 8.7439351,14.4686937 L8.7439351,14.4686937 L12.6140786,10.5737019 C12.8764703,10.3096256 12.8785407,9.88389868 12.6187299,9.61728273 L12.6187299,9.61728273 Z"></path>
                </g>
            </g>
        </g>
    </g>
</svg>