<?xml version="1.0" encoding="UTF-8"?>
<svg width="20px" height="20px" viewBox="0 0 20 20" version="1.1" xmlns="http://www.w3.org/2000/svg" xmlns:xlink="http://www.w3.org/1999/xlink">
    <title>swap-right</title>
    <g id="icons" stroke="none" stroke-width="1" fill="none" fill-rule="evenodd">
        <g id="desktop" transform="translate(-470.000000, -252.000000)" fill="#555555">
            <g id="icon" transform="translate(70.000000, 212.000000)">
                <g id="路径-15" transform="translate(400.000000, 40.000000)">
                    <path d="M17.6250577,12.0801747 C11.5245859,12.0801747 5.88283114,12.0801747 0.699793471,12.0801747 C0.52406311,12.0801747 2.13162821e-14,12.1722157 2.13162821e-14,12.7900873 C2.13162821e-14,13.407959 0.523635864,13.5 0.699793471,13.5 C9.35391235,13.5 18.294693,13.5 19.298806,13.5 C19.7049103,13.5 20,13.2133484 20,12.7900873 C20,12.559082 19.909729,12.4275208 19.8358612,12.3370514 C19.7403107,12.2304637 19.6827138,12.1681264 19.6630707,12.1500397 L14.3388214,6.67959595 C13.9907379,6.40224202 13.6708088,6.41058145 13.379034,6.70461423 C13.0872592,6.99864701 13.0679956,7.31541643 13.3212433,7.65492249 L17.6250577,12.0801747 Z"></path>
                </g>
            </g>
        </g>
    </g>
</svg>