<?xml version="1.0" encoding="UTF-8"?>
<svg width="20px" height="20px" viewBox="0 0 20 20" version="1.1" xmlns="http://www.w3.org/2000/svg" xmlns:xlink="http://www.w3.org/1999/xlink">
    <title>area-chart</title>
    <g id="icons" stroke="none" stroke-width="1" fill="none" fill-rule="evenodd">
        <g id="desktop" transform="translate(-150.000000, -632.000000)" fill="#555555">
            <g id="icon" transform="translate(70.000000, 212.000000)">
                <g id="pie-chart" transform="translate(80.000000, 420.000000)">
                    <path d="M9.08745861,2.0538648 C9.28450295,2.0538648 9.44439958,2.21357393 9.44439958,2.41098842 C9.44439958,2.42930245 9.43659318,2.44519257 9.43390132,2.46296795 L9.43390132,2.46296795 L9.44439958,2.46296795 L9.44439958,10.2176138 C9.44439958,10.414759 9.60402703,10.5747374 9.80107136,10.5747374 L9.80107136,10.5747374 L17.5802848,10.5747374 C17.7773291,10.5747374 17.9369566,10.7347159 17.9369566,10.931861 C17.9369566,10.9350929 17.9350723,10.9377862 17.9350723,10.9412874 C17.9356106,10.970105 17.9369566,10.9983841 17.9369566,11.0269324 C17.9369566,15.9824939 13.9215053,20 8.96847829,20 C4.01545129,20 0,15.9824939 0,11.0269324 C0,6.07137086 4.01545129,2.0538648 8.96847829,2.0538648 C9.00024227,2.0538648 9.03173706,2.05601939 9.06350104,2.05628872 L9.06350104,2.05628872 C9.07184581,2.05817398 9.07884465,2.0538648 9.08745861,2.0538648 Z M11.1286979,-8.8817842e-16 C16.0063528,0.0509022354 19.949393,3.99596014 20,8.87611096 C20,9.07325613 19.8401034,9.23323458 19.6433282,9.23323458 C19.6247544,9.23323458 19.6088724,9.22542419 19.5911061,9.22273095 L19.5911061,9.22273095 L19.5911061,9.23323458 L11.1286979,9.23323458 C10.9319228,9.23323458 10.7720262,9.07325613 10.7720262,8.87611096 L10.7720262,8.87611096 L10.7720262,0.409103151 L10.7825244,0.409103151 C10.7798326,0.391327767 10.7720262,0.375437651 10.7720262,0.35712362 C10.7720262,0.159978454 10.9319228,-8.8817842e-16 11.1286979,-8.8817842e-16 Z"></path>
                </g>
            </g>
        </g>
    </g>
</svg>