<?xml version="1.0" encoding="UTF-8"?>
<svg width="20px" height="20px" viewBox="0 0 20 20" version="1.1" xmlns="http://www.w3.org/2000/svg" xmlns:xlink="http://www.w3.org/1999/xlink">
    <title>arrow-down</title>
    <g id="icons" stroke="none" stroke-width="1" fill="none" fill-rule="evenodd">
        <g id="desktop" transform="translate(-510.000000, -252.000000)" fill="#555555">
            <g id="icon" transform="translate(70.000000, 212.000000)">
                <g id="路径-2" transform="translate(440.000000, 40.000000)">
                    <path d="M9.36400524,0.765388182 C9.3265251,6.18361654 9.28621008,11.7010447 9.24306018,17.3176727 C6.9263468,15.0340322 4.77529907,12.913737 2.78991699,10.9567871 C2.40493774,10.6445618 1.98814392,10.7356415 1.72257975,10.9920665 C1.47450706,11.231602 1.37013245,11.692215 1.73001445,12.0828586 C4.09763706,14.4084789 6.7045168,16.9739361 9.55065366,19.77923 C9.71166808,19.9273389 9.89601644,20.0013933 10.1036987,20.0013933 C10.311381,20.0013933 10.4910075,19.9273389 10.6425781,19.77923 C13.3685913,17.0291017 15.9295654,14.4439697 18.3255005,12.0238342 C18.5,11.8265381 18.6420725,11.3658011 18.2708348,10.9920665 C17.8995972,10.6183319 17.3861694,10.7634524 17.1782525,10.9920665 C15.2655328,12.9251516 13.1366267,15.0706337 10.7915344,17.4285126 C10.8330485,11.8199717 10.8722548,6.26559692 10.9091532,0.765388182 C10.9091532,0.505249023 10.6967468,2.76401124e-12 10.1419201,2.76401124e-12 C9.58709338,2.76401124e-12 9.36400524,0.468826294 9.36400524,0.765388182 Z"></path>
                </g>
            </g>
        </g>
    </g>
</svg>