<?xml version="1.0" encoding="UTF-8"?>
<svg width="20px" height="20px" viewBox="0 0 20 20" version="1.1" xmlns="http://www.w3.org/2000/svg" xmlns:xlink="http://www.w3.org/1999/xlink">
    <title>arrow-up</title>
    <g id="icons" stroke="none" stroke-width="1" fill="none" fill-rule="evenodd">
        <g id="desktop" transform="translate(-550.000000, -252.000000)" fill="#555555">
            <g id="icon" transform="translate(70.000000, 212.000000)">
                <g id="路径-7" transform="translate(480.000000, 40.000000)">
                    <path d="M9.55129093,0.222044494 L1.73065172,7.91841597 C1.4246368,8.33387825 1.42215857,8.6974756 1.72321702,9.00920802 C2.02427546,9.32094043 2.38846618,9.32313031 2.81578916,9.01577766 L9.24369745,2.68173218 L9.24369745,19.3200989 C9.28496783,19.7733663 9.56265001,20.0004431 10.076744,20.0013292 C10.5908379,20.0021425 10.8685201,19.7750657 10.9097905,19.3200989 L10.7990417,2.68173218 L17.1788898,9.00920802 C17.5942815,9.33026775 17.9584756,9.33026775 18.2714721,9.00920802 C18.5844686,8.68814828 18.6048686,8.34558105 18.3326721,7.98150635 L10.6335754,0.222044494 C10.4792786,0.0740148312 10.2936681,0 10.076744,0 C9.85981987,0 9.68466885,0.0740148312 9.55129093,0.222044494 Z"></path>
                </g>
            </g>
        </g>
    </g>
</svg>