<?xml version="1.0" encoding="UTF-8"?>
<svg width="20px" height="20px" viewBox="0 0 20 20" version="1.1" xmlns="http://www.w3.org/2000/svg" xmlns:xlink="http://www.w3.org/1999/xlink">
    <title>cloud-upload</title>
    <g id="icons" stroke="none" stroke-width="1" fill="none" fill-rule="evenodd">
        <g id="desktop" transform="translate(-70.000000, -752.000000)" fill="#555555">
            <g id="icon" transform="translate(70.000000, 212.000000)">
                <g id="cloud-upload" transform="translate(0.000000, 540.000000)">
                    <path d="M11.5,3 C13.9852814,3 16,5.01375071 16,7.49783811 C16,7.58918732 15.9972755,7.6799005 15.9919032,7.76990088 L16,7.76976423 L15.999,8.997 C18.1421954,8.99711747 19.8910789,10.6802769 19.9951047,12.7956514 L20,12.9951958 C20,15.136362 18.3160315,16.8844053 16.1996403,16.9883812 L16,16.9932741 C15.9996653,16.9932741 15.9993306,16.9932741 15.9989959,16.993274 L16,17 L10.999,17 L10.9996688,13.0768434 L13.463273,13.0764006 L10,9.00384337 L6.5456688,13.0791659 L8.9996688,13.0778434 L8.999,17 L4,17 C1.79031836,16.9927317 -1.8189894e-12,15.2029389 -1.8189894e-12,12.9951958 C-1.8189894e-12,11.0615262 1.37340211,9.44847778 3.19839432,9.07741965 C3.0701163,8.74470702 3,8.38269974 3,8.00432379 C3,6.34826553 4.34314575,5.00576505 6,5.00576505 C6.55131242,5.00576505 7.06789096,5.154407 7.51180935,5.41378283 C8.26266931,3.97924323 9.76692243,3 11.5,3 Z"></path>
                </g>
            </g>
        </g>
    </g>
</svg>