<?xml version="1.0" encoding="UTF-8"?>
<svg width="20px" height="20px" viewBox="0 0 20 20" version="1.1" xmlns="http://www.w3.org/2000/svg" xmlns:xlink="http://www.w3.org/1999/xlink">
    <title>minus-circle</title>
    <g id="icons" stroke="none" stroke-width="1" fill="none" fill-rule="evenodd">
        <g id="desktop" transform="translate(-470.000000, -432.000000)" fill="#555555" fill-rule="nonzero">
            <g id="icon" transform="translate(70.000000, 212.000000)">
                <g id="minus-circle" transform="translate(400.000000, 220.000000)">
                    <path d="M10,0 C15.5228475,0 20,4.4771525 20,10 C20,15.5228475 15.5228475,20 10,20 C4.4771525,20 0,15.5228475 0,10 C0,4.4771525 4.4771525,0 10,0 Z M14.4545455,9.09090909 L6.27272727,9.09090909 C5.82085793,9.09090909 5.45454545,9.45722157 5.45454545,9.90909091 C5.45454545,10.3609602 5.82085793,10.7272727 6.27272727,10.7272727 L6.27272727,10.7272727 L14.4545455,10.7272727 C14.9064148,10.7272727 15.2727273,10.3609602 15.2727273,9.90909091 C15.2727273,9.45722157 14.9064148,9.09090909 14.4545455,9.09090909 L14.4545455,9.09090909 Z"></path>
                </g>
            </g>
        </g>
    </g>
</svg>