<?xml version="1.0" encoding="UTF-8"?>
<svg width="20px" height="20px" viewBox="0 0 20 20" version="1.1" xmlns="http://www.w3.org/2000/svg" xmlns:xlink="http://www.w3.org/1999/xlink">
    <title>minus-circle-o</title>
    <g id="icons" stroke="none" stroke-width="1" fill="none" fill-rule="evenodd">
        <g id="desktop" transform="translate(-430.000000, -432.000000)" fill="#555555" fill-rule="nonzero">
            <g id="icon" transform="translate(70.000000, 212.000000)">
                <g id="minus-circle-o" transform="translate(360.000000, 220.000000)">
                    <path d="M10,0 C15.5228475,0 20,4.4771525 20,10 C20,15.5228475 15.5228475,20 10,20 C4.4771525,20 0,15.5228475 0,10 C0,4.4771525 4.4771525,0 10,0 Z M10,1.39534884 C5.24778239,1.39534884 1.39534884,5.24778239 1.39534884,10 C1.39534884,14.7522176 5.24778239,18.6046512 10,18.6046512 C14.7522176,18.6046512 18.6046512,14.7522176 18.6046512,10 C18.6046512,5.24778239 14.7522176,1.39534884 10,1.39534884 Z M14.5875685,9.31818182 C14.9641263,9.31818182 15.2693867,9.62344222 15.2693867,10 C15.2693867,10.3765578 14.9641263,10.6818182 14.5875685,10.6818182 L6.14266724,10.6818182 C5.76610946,10.6818182 5.46084906,10.3765578 5.46084906,10 C5.46084906,9.62344222 5.76610946,9.31818182 6.14266724,9.31818182 L14.5875685,9.31818182 Z"></path>
                </g>
            </g>
        </g>
    </g>
</svg>