<?xml version="1.0" encoding="UTF-8"?>
<svg width="20px" height="20px" viewBox="0 0 20 20" version="1.1" xmlns="http://www.w3.org/2000/svg" xmlns:xlink="http://www.w3.org/1999/xlink">
    <title>minus-square</title>
    <g id="icons" stroke="none" stroke-width="1" fill="none" fill-rule="evenodd">
        <g id="desktop" transform="translate(-70.000000, -472.000000)" fill="#555555" fill-rule="nonzero">
            <g id="icon" transform="translate(70.000000, 212.000000)">
                <g id="minus-square" transform="translate(0.000000, 260.000000)">
                    <path d="M18.1818182,0 C19.1859723,0 20,0.814027728 20,1.81818182 L20,18.1818182 C20,19.1859723 19.1859723,20 18.1818182,20 L1.81818182,20 C0.814027728,20 0,19.1859723 0,18.1818182 L0,1.81818182 C0,0.814027728 0.814027728,0 1.81818182,0 L18.1818182,0 Z M14.686097,9.299131 L5.90909091,9.299131 C5.53253313,9.299131 5.22727273,9.6043914 5.22727273,9.98094918 C5.22727273,10.357507 5.53253313,10.6627674 5.90909091,10.6627674 L5.90909091,10.6627674 L14.686097,10.6627674 C15.0626548,10.6627674 15.3679152,10.357507 15.3679152,9.98094918 C15.3679152,9.6043914 15.0626548,9.299131 14.686097,9.299131 L14.686097,9.299131 Z"></path>
                </g>
            </g>
        </g>
    </g>
</svg>