<?xml version="1.0" encoding="UTF-8"?>
<svg width="20px" height="20px" viewBox="0 0 20 20" version="1.1" xmlns="http://www.w3.org/2000/svg" xmlns:xlink="http://www.w3.org/1999/xlink">
    <title>minus-square-o</title>
    <g id="icons" stroke="none" stroke-width="1" fill="none" fill-rule="evenodd">
        <g id="desktop" transform="translate(-590.000000, -432.000000)" fill="#555555" fill-rule="nonzero">
            <g id="icon" transform="translate(70.000000, 212.000000)">
                <g id="minus-square-o" transform="translate(520.000000, 220.000000)">
                    <path d="M1.81818182,1.36363636 C1.5671433,1.36363636 1.36363636,1.5671433 1.36363636,1.81818182 L1.36363636,18.1818182 C1.36363636,18.4328567 1.5671433,18.6363636 1.81818182,18.6363636 L18.1818182,18.6363636 C18.4328567,18.6363636 18.6363636,18.4328567 18.6363636,18.1818182 L18.6363636,1.81818182 C18.6363636,1.5671433 18.4328567,1.36363636 18.1818182,1.36363636 L1.81818182,1.36363636 Z M18.1818182,0 C19.1859723,0 20,0.814027728 20,1.81818182 L20,18.1818182 C20,19.1859723 19.1859723,20 18.1818182,20 L1.81818182,20 C0.814027728,20 0,19.1859723 0,18.1818182 L0,1.81818182 C0,0.814027728 0.814027728,0 1.81818182,0 L18.1818182,0 Z M14.686097,9.299131 L5.90909091,9.299131 C5.53253313,9.299131 5.22727273,9.6043914 5.22727273,9.98094918 C5.22727273,10.357507 5.53253313,10.6627674 5.90909091,10.6627674 L5.90909091,10.6627674 L14.686097,10.6627674 C15.0626548,10.6627674 15.3679152,10.357507 15.3679152,9.98094918 C15.3679152,9.6043914 15.0626548,9.299131 14.686097,9.299131 L14.686097,9.299131 Z"></path>
                </g>
            </g>
        </g>
    </g>
</svg>