<?xml version="1.0" encoding="UTF-8"?>
<svg width="20px" height="20px" viewBox="0 0 20 20" version="1.1" xmlns="http://www.w3.org/2000/svg" xmlns:xlink="http://www.w3.org/1999/xlink">
    <title>plus</title>
    <g id="icons" stroke="none" stroke-width="1" fill="none" fill-rule="evenodd">
        <g id="desktop" transform="translate(-150.000000, -432.000000)" fill="#555555" fill-rule="nonzero">
            <g id="icon" transform="translate(70.000000, 212.000000)">
                <g id="plus" transform="translate(80.000000, 220.000000)">
                    <path d="M10,-1.77635684e-15 C10.4232029,-1.69861573e-15 10.7662767,0.343073746 10.7662767,0.766276659 L10.766,9.233 L19.2337233,9.23372334 C19.6569263,9.23372334 20,9.57679709 20,10 C20,10.4232029 19.6569263,10.7662767 19.2337233,10.7662767 L10.766,10.766 L10.7662767,19.2337233 C10.7662767,19.6569263 10.4232029,20 10,20 C9.57679709,20 9.23372334,19.6569263 9.23372334,19.2337233 L9.233,10.766 L0.766276659,10.7662767 C0.343073746,10.7662767 0,10.4232029 0,10 C0,9.57679709 0.343073746,9.23372334 0.766276659,9.23372334 L9.233,9.233 L9.23372334,0.766276659 C9.23372334,0.343073746 9.57679709,-1.85409795e-15 10,-1.77635684e-15 Z"></path>
                </g>
            </g>
        </g>
    </g>
</svg>