<?xml version="1.0" encoding="UTF-8"?>
<svg width="20px" height="20px" viewBox="0 0 20 20" version="1.1" xmlns="http://www.w3.org/2000/svg" xmlns:xlink="http://www.w3.org/1999/xlink">
    <title>time</title>
    <g id="icons" stroke="none" stroke-width="1" fill="none" fill-rule="evenodd">
        <g id="desktop" transform="translate(-70.000000, -512.000000)" fill="#555555" fill-rule="nonzero">
            <g id="icon" transform="translate(70.000000, 212.000000)">
                <g id="time" transform="translate(0.000000, 300.000000)">
                    <path d="M10,0 C15.5228475,0 20,4.4771525 20,10 C20,15.5228475 15.5228475,20 10,20 C4.4771525,20 0,15.5228475 0,10 C0,4.4771525 4.4771525,0 10,0 Z M9.06976744,5.58139535 C8.6844525,5.58139535 8.37209302,5.89375483 8.37209302,6.27906977 L8.37209302,6.27906977 L8.37209302,11.8604651 C8.37209302,12.2457801 8.6844525,12.5581395 9.06976744,12.5581395 L9.06976744,12.5581395 L14.6511628,12.5581395 C15.0364777,12.5581395 15.3488372,12.2457801 15.3488372,11.8604651 C15.3488372,11.4751502 15.0364777,11.1627907 14.6511628,11.1627907 L14.6511628,11.1627907 L9.76744186,11.1627907 L9.76744186,6.27906977 C9.76744186,5.89375483 9.45508238,5.58139535 9.06976744,5.58139535 Z"></path>
                </g>
            </g>
        </g>
    </g>
</svg>