<?xml version="1.0" encoding="UTF-8"?>
<svg width="20px" height="20px" viewBox="0 0 20 20" version="1.1" xmlns="http://www.w3.org/2000/svg" xmlns:xlink="http://www.w3.org/1999/xlink">
    <title>upload</title>
    <g id="icons" stroke="none" stroke-width="1" fill="none" fill-rule="evenodd">
        <g id="desktop" transform="translate(-590.000000, -512.000000)" fill="#555555" fill-rule="nonzero">
            <g id="icon" transform="translate(70.000000, 212.000000)">
                <g id="upload" transform="translate(520.000000, 300.000000)">
                    <path d="M19.3107659,12.0514519 C19.6914194,12.0514519 20,12.3646267 20,12.7509475 L20,17.6690264 C19.9938202,18.3388667 19.8725879,18.8692232 19.6014711,19.2629832 C19.2734293,19.7394192 18.692794,19.9546046 17.8541437,20 L1.95063965,19.9982693 C1.30493215,19.9520847 0.783122117,19.6957368 0.444258688,19.2213785 C0.141889579,18.7981068 -0.00168144063,18.2714304 0,17.6625107 L0,12.7509492 C0,12.3646285 0.3085815,12.0514519 0.689234956,12.0514519 C1.06988841,12.0514519 1.37846979,12.3646249 1.37847075,12.7509457 L1.37848021,17.6644834 C1.37755618,17.9967232 1.44266621,18.235573 1.56028228,18.400218 C1.64140402,18.5137764 1.78414309,18.5838993 1.99909415,18.6010088 L17.8165968,18.6020475 C18.2362406,18.5788121 18.4438468,18.5018725 18.4715409,18.4616506 C18.5561601,18.3387527 18.6177678,18.0692372 18.6215319,17.662509 L18.6215319,12.7509475 C18.6215319,12.3646267 18.9301125,12.0514519 19.3107659,12.0514519 Z M9.99004267,0 C10.2138052,0 10.4126627,0.108218607 10.5385735,0.275898908 L14.8199853,4.58384481 C15.0903403,4.85579935 15.0922778,5.2986911 14.8243128,5.57307121 C14.5563478,5.84745133 14.1199533,5.84941764 13.8495983,5.5774631 L13.8495983,5.5774631 L10.679,2.388 L10.6792767,12.0312282 C10.6792767,12.4175489 10.3706961,12.7307237 9.99004267,12.7307237 C9.60938921,12.7307237 9.30080862,12.4175489 9.30080862,12.0312282 L9.3,2.383 L6.17196801,5.5740698 C5.93031044,5.82051895 5.55266265,5.84603478 5.28285432,5.65001654 L5.19724674,5.57647134 C4.92743145,5.3039653 4.92637202,4.86107049 5.19488043,4.58723811 L5.19488043,4.58723811 L9.49085833,0.206079767 C9.60417971,0.0905114571 9.74742341,0.0235159351 9.89543581,0.00518085699 C9.89909017,0.00602663088 9.90269067,0.00555466379 9.90629978,0.00511100628 C9.9298388,0.00139122319 9.95343509,8.63925827e-05 9.97703552,4.14935211e-06 L9.99004267,0 L9.99004267,0 Z"></path>
                </g>
            </g>
        </g>
    </g>
</svg>