<?xml version="1.0" encoding="UTF-8"?>
<svg width="20px" height="20px" viewBox="0 0 20 20" version="1.1" xmlns="http://www.w3.org/2000/svg" xmlns:xlink="http://www.w3.org/1999/xlink">
    <title>verticle-right</title>
    <g id="icons" stroke="none" stroke-width="1" fill="none" fill-rule="evenodd">
        <g id="desktop" transform="translate(-350.000000, -212.000000)" fill="#555555">
            <g id="icon" transform="translate(70.000000, 212.000000)">
                <g id="路径-17" transform="translate(280.000000, 0.000000)">
                    <path d="M13.6062931,9.25610352 L6.61405795,2.20275228 C6.24724783,1.91137478 5.90986903,1.91137478 5.60192154,2.20275228 C5.29397405,2.49412977 5.29397405,2.81885376 5.60192154,3.17692425 L12.2278569,9.85487499 L5.23639721,16.7309475 C4.92268131,17.0346038 4.9150238,17.356486 5.21342468,17.6965942 C5.51182556,18.0367025 5.85280464,18.0435836 6.23636191,17.7172376 L13.6062931,10.4718628 L13.6062931,17.3076249 C13.6062931,17.7692083 13.8385776,18 14.3031465,18 C14.7677155,18 15,17.7692083 15,17.3076249 L15,2.69237509 C15,2.22607557 14.7677155,1.99528387 14.3031465,2 C13.8385776,2.00471613 13.6062931,2.23550783 13.6062931,2.69237509 L13.6062931,9.25610352 Z"></path>
                </g>
            </g>
        </g>
    </g>
</svg>