<svg xmlns="http://www.w3.org/2000/svg" width="24" height="24" viewBox="0 0 24 24">
  <g fill="none" fill-rule="evenodd" transform="translate(-696 -1152)">
    <path fill="#555" fill-rule="nonzero" d="M23,16.061037 L23,5.23051852 C23,2.89362963 21.1063704,1 18.7694815,1 L5.23051852,1 C2.89362963,1 1,2.89362963 1,5.23051852 L1,18.7694815 C1,21.1063704 2.89362963,23 5.23051852,23 L18.7694815,23 C20.8521481,23 22.5828148,21.4942222 22.9348148,19.5158519 C21.8136296,19.0334815 16.9508148,16.9345185 14.4183704,15.7220741 C12.4888889,18.0557037 10.4714074,19.4571852 7.42725926,19.4571852 C4.38311111,19.4571852 2.35259259,17.5831111 2.6002963,15.2885926 C2.76,13.7828148 3.79318519,11.3220741 8.27792593,11.7457778 C10.6408889,11.9674074 11.722963,12.4106667 13.6524444,13.0462222 C14.1478519,12.1336296 14.565037,11.1265185 14.8779259,10.0542222 L6.33214815,10.0542222 L6.33214815,9.20681481 L10.5594074,9.20681481 L10.5594074,7.68474074 L5.4,7.68474074 L5.4,6.75259259 L10.5594074,6.75259259 L10.5594074,4.55911111 C10.5594074,4.55911111 10.6082963,4.21362963 10.9863704,4.21362963 L13.1016296,4.21362963 L13.1016296,6.75259259 L18.6032593,6.75259259 L18.6032593,7.68474074 L13.1016296,7.68474074 L13.1016296,9.20681481 L17.5863704,9.20681481 C17.1757037,10.8885926 16.5499259,12.426963 15.7677037,13.7762963 C17.0681481,14.2488889 23,16.061037 23,16.061037 Z M7.09155556,18.0068148 C3.87466667,18.0068148 3.36948148,15.9762963 3.53896296,15.1288889 C3.70844444,14.2814815 4.64059259,13.1831111 6.42666667,13.1831111 C8.48325926,13.1831111 10.3214815,13.7078519 12.528,14.7834074 C10.9798519,16.8041481 9.06992593,18.0068148 7.09155556,18.0068148 Z" transform="translate(696 1152)"/>
  </g>
</svg>
