<svg xmlns="http://www.w3.org/2000/svg" width="24" height="24" viewBox="0 0 24 24">
  <path fill="#555" d="M22,15.6918519 L22,5.84592593 C22,3.72148148 20.2785185,2 18.1540741,2 L5.84592593,2 C3.72148148,2 2,3.72148148 2,5.84592593 L2,18.1540741 C2,20.2785185 3.72148148,22 5.84592593,22 L18.1540741,22 C20.0474074,22 21.6207407,20.6311111 21.9407407,18.8325926 C20.9214815,18.3940741 16.5007407,16.4859259 14.1985185,15.3837037 C12.4444444,17.5051852 10.6103704,18.7792593 7.84296296,18.7792593 C5.07555556,18.7792593 3.22962963,17.0755556 3.45481481,14.9896296 C3.6,13.6207407 4.53925926,11.3837037 8.6162963,11.7688889 C10.7644444,11.9703704 11.7481481,12.3733333 13.5022222,12.9511111 C13.9525926,12.1214815 14.3318519,11.2059259 14.6162963,10.2311111 L6.84740741,10.2311111 L6.84740741,9.46074074 L10.6903704,9.46074074 L10.6903704,8.07703704 L6,8.07703704 L6,7.22962963 L10.6903704,7.22962963 L10.6903704,5.23555556 C10.6903704,5.23555556 10.7348148,4.92148148 11.0785185,4.92148148 L13.0014815,4.92148148 L13.0014815,7.22962963 L18.002963,7.22962963 L18.002963,8.07703704 L13.0014815,8.07703704 L13.0014815,9.46074074 L17.0785185,9.46074074 C16.7051852,10.9896296 16.1362963,12.3881481 15.4251852,13.6148148 C16.6074074,14.0444444 22,15.6918519 22,15.6918519 Z M7.53777778,17.4607407 C4.61333333,17.4607407 4.15407407,15.6148148 4.30814815,14.8444444 C4.46222222,14.0740741 5.30962963,13.0755556 6.93333333,13.0755556 C8.80296296,13.0755556 10.4740741,13.5525926 12.48,14.5303704 C11.0725926,16.3674074 9.3362963,17.4607407 7.53777778,17.4607407 Z"/>
</svg>
