<svg xmlns="http://www.w3.org/2000/svg" width="24" height="24" viewBox="0 0 24 24">
  <g fill="none" fill-rule="evenodd" transform="translate(-696 -1152)">
    <path fill="#555" fill-rule="nonzero" d="M22,15.061037 L22,4.23051852 C22,1.89362963 20.1063704,0 17.7694815,0 L4.23051852,0 C1.89362963,0 0,1.89362963 0,4.23051852 L0,17.7694815 C0,20.1063704 1.89362963,22 4.23051852,22 L17.7694815,22 C19.8521481,22 21.5828148,20.4942222 21.9348148,18.5158519 C20.8136296,18.0334815 15.9508148,15.9345185 13.4183704,14.7220741 C11.4888889,17.0557037 9.47140741,18.4571852 6.42725926,18.4571852 C3.38311111,18.4571852 1.35259259,16.5831111 1.6002963,14.2885926 C1.76,12.7828148 2.79318519,10.3220741 7.27792593,10.7457778 C9.64088889,10.9674074 10.722963,11.4106667 12.6524444,12.0462222 C13.1478519,11.1336296 13.565037,10.1265185 13.8779259,9.05422222 L5.33214815,9.05422222 L5.33214815,8.20681481 L9.55940741,8.20681481 L9.55940741,6.68474074 L4.4,6.68474074 L4.4,5.75259259 L9.55940741,5.75259259 L9.55940741,3.55911111 C9.55940741,3.55911111 9.6082963,3.21362963 9.98637037,3.21362963 L12.1016296,3.21362963 L12.1016296,5.75259259 L17.6032593,5.75259259 L17.6032593,6.68474074 L12.1016296,6.68474074 L12.1016296,8.20681481 L16.5863704,8.20681481 C16.1757037,9.88859259 15.5499259,11.426963 14.7677037,12.7762963 C16.0681481,13.2488889 22,15.061037 22,15.061037 Z M6.09155556,17.0068148 C2.87466667,17.0068148 2.36948148,14.9762963 2.53896296,14.1288889 C2.70844444,13.2814815 3.64059259,12.1831111 5.42666667,12.1831111 C7.48325926,12.1831111 9.32148148,12.7078519 11.528,13.7834074 C9.97985185,15.8041481 8.06992593,17.0068148 6.09155556,17.0068148 Z" transform="translate(697 1153)"/>
  </g>
</svg>
