<svg xmlns="http://www.w3.org/2000/svg" width="24" height="24" viewBox="0 0 24 24">
  <g fill="none" fill-rule="evenodd" transform="translate(-360 -1152)">
    <path fill="#555" fill-rule="nonzero" d="M21.121063,7.22401506 C20.5797719,5.95894903 19.7999911,4.82065371 18.8111969,3.84610389 C17.8224028,2.87155407 16.6674698,2.10564771 15.3839131,1.56951326 C14.0548023,1.01489141 12.642622,0.734939426 11.1875672,0.734939426 C9.97100206,0.734939426 8.78123349,0.930377601 7.64505809,1.32125395 C4.60364518,-0.10227546 0.988785254,-0.00191531571 0.830685376,0.00336679714 C0.235801088,0.0218541921 -0.158108778,0.616091887 0.0616232564,1.16014951 L1.95882179,5.86122994 C0.940551393,7.51717232 0.404619602,9.40816872 0.404619602,11.3599094 C0.404619602,12.7940031 0.688663451,14.1858398 1.25139183,15.4958038 C1.79268294,16.7608698 2.57246369,17.8991651 3.56125785,18.8737149 C4.550052,19.8482648 5.70498501,20.6141711 6.98854165,21.1503056 C8.31765249,21.7049274 9.72983276,21.9848794 11.1848876,21.9848794 C12.6399424,21.9848794 14.0521226,21.7049274 15.3839131,21.1503056 C16.6674698,20.6168122 17.8224028,19.8482648 18.8111969,18.8737149 C19.7999911,17.8991651 20.5770922,16.7608698 21.121063,15.4958038 C21.6837913,14.1858398 21.9678352,12.7940031 21.9678352,11.3599094 C21.9678352,9.92581578 21.6837913,8.53397904 21.121063,7.22401506 Z M11.6940228,9.26291061 C11.6940228,9.748865 11.2947536,10.1423824 10.8016963,10.1423824 L10.8016963,10.1423824 C10.3086391,10.1423824 9.90936991,9.748865 9.90936991,9.26291061 L9.90936991,7.66507148 C9.90936991,7.1791171 10.3086391,6.78559969 10.8016963,6.78559969 L10.8016963,6.78559969 C11.2947536,6.78559969 11.6940228,7.1791171 11.6940228,7.66507148 L11.6940228,9.26291061 Z M16.8791628,9.26291061 C16.8791628,9.748865 16.4798937,10.1423824 15.9868364,10.1423824 L15.9868364,10.1423824 C15.4937792,10.1423824 15.09451,9.748865 15.09451,9.26291061 L15.09451,7.66507148 C15.09451,7.1791171 15.4937792,6.78559969 15.9868364,6.78559969 L15.9868364,6.78559969 C16.4798937,6.78559969 16.8791628,7.1791171 16.8791628,7.66507148 L16.8791628,9.26291061 Z" transform="translate(361 1153)"/>
  </g>
</svg>
