<svg xmlns="http://www.w3.org/2000/svg" width="24" height="24" viewBox="0 0 24 24">
  <path fill="#555" d="M21.22908,8.57180321 C20.7362766,7.42095221 20.0263471,6.38542657 19.1261272,5.49886285 C18.2259072,4.61229913 17.1744308,3.91554174 16.0058527,3.42781157 C14.7958009,2.92326311 13.510121,2.66858627 12.1854071,2.66858627 C11.0778194,2.66858627 9.99462797,2.84637954 8.96022892,3.20196607 C6.19125976,1.90695836 2.90021183,1.99825761 2.75627422,2.00306283 C2.21467849,2.01988111 1.85605429,2.56046874 2.05610317,3.05540675 L3.78335442,7.33205558 C2.85629866,8.83849311 2.36837458,10.5587631 2.36837458,12.3342931 C2.36837458,13.6389113 2.62697434,14.9050877 3.13929463,16.0967831 C3.63209795,17.2476341 4.34202749,18.2831597 5.24224742,19.1697234 C6.14246735,20.0562871 7.19394375,20.7530445 8.36252192,21.2407747 C9.57257364,21.7453232 10.8582536,22 12.1829675,22 C13.5076814,22 14.7933613,21.7453232 16.0058527,21.2407747 C17.1744308,20.7554471 18.2259072,20.0562871 19.1261272,19.1697234 C20.0263471,18.2831597 20.733837,17.2476341 21.22908,16.0967831 C21.7414002,14.9050877 22,13.6389113 22,12.3342931 C22,11.029675 21.7414002,9.76349862 21.22908,8.57180321 Z M12.6464954,10.4266194 C12.6464954,10.8687 12.2829919,11.2266891 11.8341018,11.2266891 C11.3852116,11.2266891 11.0217082,10.8687 11.0217082,10.4266194 L11.0217082,8.97303937 C11.0217082,8.53095882 11.3852116,8.17296967 11.8341018,8.17296967 C12.2829919,8.17296967 12.6464954,8.53095882 12.6464954,8.97303937 L12.6464954,10.4266194 Z M17.3671608,10.4266194 C17.3671608,10.8687 17.0036574,11.2266891 16.5547673,11.2266891 C16.1058771,11.2266891 15.7423737,10.8687 15.7423737,10.4266194 L15.7423737,8.97303937 C15.7423737,8.53095882 16.1058771,8.17296967 16.5547673,8.17296967 C17.0036574,8.17296967 17.3671608,8.53095882 17.3671608,8.97303937 L17.3671608,10.4266194 Z"/>
</svg>
