<svg xmlns="http://www.w3.org/2000/svg" width="24" height="24" viewBox="0 0 24 24">
  <g fill="none" fill-rule="evenodd" transform="translate(-360 -1152)">
    <path fill="#555" fill-rule="nonzero" d="M22.1519879,8.22898354 C21.6099043,6.96304743 20.8289818,5.82396923 19.8387399,4.84874914 C18.848498,3.87352905 17.6918739,3.10709592 16.4064379,2.57059272 C15.075381,2.01558942 13.6611331,1.7354449 12.2039478,1.7354449 C10.9856014,1.7354449 9.79409077,1.93101749 8.65625181,2.32216267 C5.61038573,0.897654198 1.99023301,0.998083367 1.83190165,1.00336911 C1.23614634,1.02186922 0.841659723,1.61651562 1.06171348,2.16094743 L2.96168986,6.86526114 C1.94192853,8.52234242 1.40521204,10.4146394 1.40521204,12.3677224 C1.40521204,13.8028024 1.68967178,15.1955964 2.25322409,16.5064614 C2.79530775,17.7723975 3.57623024,18.9114757 4.56647216,19.8866958 C5.55671408,20.8619158 6.71333812,21.628349 7.99877411,22.1648522 C9.32983101,22.7198555 10.744079,23 12.2012642,23 C13.6584495,23 15.0726974,22.7198555 16.4064379,22.1648522 C17.6918739,21.6309919 18.848498,20.8619158 19.8387399,19.8866958 C20.8289818,18.9114757 21.6072207,17.7723975 22.1519879,16.5064614 C22.7155403,15.1955964 23,13.8028024 23,12.3677224 C23,10.9326425 22.7155403,9.53984848 22.1519879,8.22898354 Z M12.7111449,10.2692814 C12.7111449,10.75557 12.3112911,11.1493581 11.8175119,11.1493581 C11.3237328,11.1493581 10.923879,10.75557 10.923879,10.2692814 L10.923879,8.67034331 C10.923879,8.1840547 11.3237328,7.79026664 11.8175119,7.79026664 C12.3112911,7.79026664 12.7111449,8.1840547 12.7111449,8.67034331 L12.7111449,10.2692814 Z M17.9038769,10.2692814 C17.9038769,10.75557 17.5040231,11.1493581 17.010244,11.1493581 C16.5164648,11.1493581 16.116611,10.75557 16.116611,10.2692814 L16.116611,8.67034331 C16.116611,8.1840547 16.5164648,7.79026664 17.010244,7.79026664 C17.5040231,7.79026664 17.9038769,8.1840547 17.9038769,8.67034331 L17.9038769,10.2692814 Z" transform="translate(360 1152)"/>
  </g>
</svg>
