<svg xmlns="http://www.w3.org/2000/svg" width="24" height="24" viewBox="0 0 24 24">
  <g fill="none" fill-rule="evenodd" transform="translate(-552 -1104)">
    <path fill="#555" d="M13.4758235,2.19308007 L14.5134706,0.305080069 C14.56875,0.206003146 14.5326176,0.0795416077 14.4325588,0.0253877615 C14.3309559,-0.0296891616 14.2058824,0.0081569923 14.1524559,0.106926223 L13.1036912,2.01369545 C12.2216912,1.6238493 11.2343824,1.40415699 10.1908676,1.40508007 C9.14920588,1.40415699 8.16375,1.62261853 7.28452941,2.0118493 L6.23514706,0.109080069 C6.18141176,0.00877237691 6.05479412,-0.0278430077 5.95597059,0.0269262231 C5.85529412,0.0804646846 5.81823529,0.206310838 5.87413235,0.305387762 L6.91239706,2.19154161 C4.87230882,3.24015699 3.49433824,5.23554161 3.49557353,7.52723392 L16.8877059,7.52600315 C16.8883235,5.23492622 15.5128235,3.24292622 13.4758235,2.19308007 L13.4758235,2.19308007 Z M7.14525,5.11031084 C6.83673529,5.10969545 6.58566176,4.85954161 6.58566176,4.55092622 C6.58566176,4.2438493 6.83673529,3.99154161 7.14555882,3.99154161 C7.45623529,3.99154161 7.70730882,4.2438493 7.70761765,4.55092622 C7.70761765,4.85954161 7.45623529,5.11031084 7.14525,5.11031084 L7.14525,5.11031084 Z M13.2432794,5.10908007 C12.9338382,5.10908007 12.6812206,4.85954161 12.6818382,4.54969545 C12.6818382,4.24323392 12.9332206,3.99092622 13.2432794,3.98969545 C13.5511765,3.99031084 13.8037941,4.24323392 13.8037941,4.55031084 C13.8037941,4.85892622 13.5527206,5.10908007 13.2432794,5.10908007 Z M20.3891471,9.24231084 L20.3900735,15.4450801 C20.3897647,16.2647724 19.7248676,16.9266185 18.9040147,16.9266185 C18.0822353,16.9272339 17.4170294,16.2647724 17.4167206,15.4456955 L17.4161029,9.24292622 C17.4157941,8.42446468 18.0813088,7.76046468 18.9021618,7.76108007 C19.7236324,7.76108007 20.3891471,8.4238493 20.3891471,9.24231084 Z M16.842,8.04015699 L16.8444706,17.6536955 C16.8441618,18.2315416 16.5300882,18.7309262 16.0668529,19.0069262 C15.8290588,19.1487724 15.5542059,19.2355416 15.2574265,19.2352339 L14.1731471,19.2358493 L14.1740735,22.5164647 C14.1740735,23.3343108 13.5085588,23.9992339 12.6870882,23.9986185 C12.5845588,23.9986185 12.4845,23.9884647 12.3878382,23.9687724 C11.7112059,23.8312339 11.2004118,23.2327724 11.1994853,22.5180031 L11.1994853,19.236157 L9.19244118,19.236157 L9.19336765,22.5180031 C9.19336765,23.2333878 8.6835,23.8312339 8.00594118,23.9696955 C7.90897059,23.9893878 7.80860294,23.9998493 7.70607353,23.9998493 C6.98898529,23.9998493 6.38925,23.4915416 6.25089706,22.8164647 C6.23113235,22.720157 6.22063235,22.6204647 6.22063235,22.5183108 L6.21939706,19.2364647 L5.13913235,19.2364647 C4.51407353,19.2364647 3.97980882,18.8749262 3.72132353,18.3527724 C3.61663235,18.1416955 3.55239706,17.9072339 3.55270588,17.6552339 L3.55054412,8.04261853 L16.842,8.04015699 Z M1.48667647,7.76261853 C2.30783824,7.76261853 2.97427941,8.42600315 2.97427941,9.24354161 L2.97427941,15.4472339 C2.97427941,15.5496955 2.96408824,15.6496955 2.94432353,15.7463108 C2.80627941,16.4223108 2.20685294,16.9290801 1.48791176,16.9300031 C1.18526471,16.9293878 0.904235294,16.8383108 0.669220588,16.6832339 C0.267132353,16.4183108 0.00123529412,15.9650801 0.000926470588,15.4472339 L0,9.2438493 C0.000308823529,8.42692622 0.665514706,7.76261853 1.48667647,7.76261853 Z" transform="translate(554 1104)"/>
  </g>
</svg>
