<svg xmlns="http://www.w3.org/2000/svg" width="24" height="24" viewBox="0 0 24 24">
  <g fill="none" fill-rule="evenodd" transform="translate(-552 -1104)">
    <path fill="#555" d="M13.612482,3.01033602 L14.4585252,1.27965849 C14.5035971,1.1888374 14.4741367,1.0729136 14.392554,1.02327226 C14.3097122,0.972784764 14.2077338,1.00747729 14.1641727,1.09801632 L13.3090647,2.84589909 C12.5899281,2.48853787 11.7849281,2.28715199 10.9341007,2.28799815 C10.0847842,2.28715199 9.28129496,2.48740966 8.56442446,2.84420677 L7.70881295,1.09999069 C7.665,1.0080414 7.56176259,0.974477083 7.48118705,1.02468253 C7.39910072,1.07375976 7.36888489,1.18911946 7.41446043,1.27994054 L8.26100719,3.00892575 C6.5976259,3.97016256 5.47410072,5.79927661 5.47510791,7.90000775 L16.3943525,7.89887954 C16.3948561,5.7987125 15.2733453,3.97270104 13.612482,3.01033602 L13.612482,3.01033602 Z M8.45086331,5.68448102 C8.19931655,5.68391691 7.99460432,5.45460778 7.99460432,5.17170857 C7.99460432,4.89021962 8.19931655,4.65893612 8.45111511,4.65893612 C8.70442446,4.65893612 8.90913669,4.89021962 8.90938849,5.17170857 C8.90938849,5.45460778 8.70442446,5.68448102 8.45086331,5.68448102 L8.45086331,5.68448102 Z M13.4228777,5.6833528 C13.1705755,5.6833528 12.9646043,5.45460778 12.9651079,5.17058035 C12.9651079,4.88965551 13.1700719,4.65837201 13.4228777,4.6572438 C13.6739209,4.6578079 13.8798921,4.88965551 13.8798921,5.17114446 C13.8798921,5.45404367 13.6751799,5.6833528 13.4228777,5.6833528 Z M19.2492446,9.47217147 L19.25,15.158079 C19.2497482,15.9094683 18.7076259,16.5161644 18.0383453,16.5161644 C17.3683094,16.5167285 16.8259353,15.9094683 16.8256835,15.1586431 L16.8251799,9.47273557 C16.8249281,8.72247445 17.367554,8.11380396 18.0368345,8.11436807 C18.7066187,8.11436807 19.2492446,8.72191035 19.2492446,9.47217147 Z M16.3570863,8.37019019 L16.3591007,17.1826558 C16.3588489,17.7123514 16.1027698,18.1701235 15.7250719,18.4231251 C15.5311871,18.5531516 15.3070863,18.6326905 15.0651079,18.6324085 L14.1810432,18.6329726 L14.1817986,21.6402222 C14.1817986,22.3899192 13.6391727,22.9994359 12.9693885,22.9988718 C12.8857914,22.9988718 12.8042086,22.989564 12.7253957,22.9715126 C12.173705,22.8454349 11.7572302,22.2968417 11.7564748,21.6416325 L11.7564748,18.6332546 L10.120036,18.6332546 L10.1207914,21.6416325 C10.1207914,22.2974058 9.70507194,22.8454349 9.1526259,22.9723588 C9.07356115,22.9904102 8.99172662,23 8.9081295,23 C8.32345324,23 7.83446043,22.5340484 7.72165468,21.915224 C7.70553957,21.8269414 7.69697842,21.7355562 7.69697842,21.6419145 L7.69597122,18.6335367 L6.81517986,18.6335367 C6.30553957,18.6335367 5.86992806,18.3021243 5.65917266,17.8234803 C5.57381295,17.6299919 5.52143885,17.4150675 5.52169065,17.184066 L5.51992806,8.37244661 L16.3570863,8.37019019 Z M3.83715827,8.11577833 C4.50669065,8.11577833 5.05007194,8.72388472 5.05007194,9.47329968 L5.05007194,15.1600533 C5.05007194,15.253977 5.04176259,15.3456442 5.02564748,15.4342089 C4.91309353,16.0538795 4.42435252,16.5184208 3.83816547,16.519267 C3.59140288,16.5187029 3.36226619,16.4352152 3.17064748,16.2930605 C2.84280576,16.0502128 2.62600719,15.6347486 2.6257554,15.1600533 L2.625,9.47358173 C2.6252518,8.72473088 3.1676259,8.11577833 3.83715827,8.11577833 Z" transform="translate(554 1104)"/>
  </g>
</svg>
