<svg xmlns="http://www.w3.org/2000/svg" width="20" height="20" viewBox="0 0 20 20">
  <path fill="#555" fill-rule="evenodd" d="M12.73532,1.8275782 L13.6004468,0.254234987 C13.6465354,0.171670366 13.6164105,0.0662850893 13.5329875,0.0211566008 C13.4482772,-0.0247411233 13.3439985,0.00679753626 13.2994548,0.0891057454 L12.4250587,1.67809008 C11.6897009,1.35321625 10.866543,1.17013817 9.99652404,1.17090741 C9.12804998,1.17013817 8.30643696,1.3521906 7.57339644,1.67655161 L6.69848542,0.0909006285 C6.65368421,0.00731036 6.54811814,-0.0232026521 6.4657251,0.0224386601 C6.3817872,0.0670543249 6.35088981,0.171926778 6.39749337,0.254491399 L7.26313518,1.82629614 C5.562234,2.70014778 4.41336615,4.36297874 4.41439606,6.27273432 L15.5799394,6.27170867 C15.5804544,4.36246591 14.4336463,2.70245549 12.73532,1.8275782 L12.73532,1.8275782 Z M7.45727376,4.25861911 C7.20005301,4.25810628 6.99072321,4.04964343 6.99072321,3.79246233 C6.99072321,3.53656329 7.20005301,3.32630556 7.45753124,3.32630556 C7.71655434,3.32630556 7.92588413,3.53656329 7.92614161,3.79246233 C7.92614161,4.04964343 7.71655434,4.25861911 7.45727376,4.25861911 L7.45727376,4.25861911 Z M12.5414388,4.25759346 C12.2834457,4.25759346 12.0728285,4.04964343 12.0733434,3.79143669 C12.0733434,3.53605047 12.2829307,3.32579274 12.5414388,3.32476709 C12.7981446,3.32527991 13.0087618,3.53605047 13.0087618,3.79194951 C13.0087618,4.04913061 12.799432,4.25759346 12.5414388,4.25759346 Z M18.4992276,7.70197406 L18.5,12.8709809 C18.4997425,13.5540621 17.9453919,14.105604 17.2610148,14.105604 C16.5758652,14.1061168 16.0212571,13.5540621 16.0209996,12.8714937 L16.0204847,7.70248688 C16.0202272,7.02043132 16.5750928,6.46709451 17.2594699,6.46760734 C17.944362,6.46760734 18.4992276,7.0199185 18.4992276,7.70197406 Z M15.5418326,6.7001729 L15.5438925,14.7115053 C15.543635,15.1930467 15.2817796,15.6092032 14.8955623,15.8392046 C14.6973041,15.9574105 14.4681484,16.0297187 14.2207119,16.0294622 L13.3167058,16.0299751 L13.3174782,18.7638384 C13.3174782,19.4453811 12.7626126,19.9994872 12.0777206,19.9989744 C11.9922378,19.9989744 11.9088148,19.9905128 11.8282242,19.9741024 C11.2640894,19.8594863 10.8382204,19.3607652 10.8374479,18.7651205 L10.8374479,16.0302315 L9.16409693,16.0302315 L9.16486937,18.7651205 C9.16486937,19.361278 8.73977281,19.8594863 8.17486558,19.9748716 C8.09401742,19.991282 8.01033699,20 7.92485422,20 C7.32698978,20 6.82696706,19.5764076 6.71161681,19.01384 C6.69513821,18.933583 6.68638395,18.8505056 6.68638395,18.7653769 L6.68535403,16.0304879 L5.78469519,16.0304879 C5.26355926,16.0304879 4.81812192,15.729204 4.60261265,15.294073 C4.51532753,15.1181745 4.46177206,14.9227886 4.46202953,14.7127873 L4.46022719,6.70222419 L15.5418326,6.7001729 Z M2.73950019,6.46888939 C3.4241348,6.46888939 3.97977281,7.02171338 3.97977281,7.70299971 L3.97977281,12.8727758 C3.97977281,12.9581609 3.97127603,13.0414948 3.95479743,13.1220081 C3.83970466,13.685345 3.33993942,14.1076553 2.7405301,14.1084245 C2.48820144,14.1079117 2.25389625,14.0320138 2.05795532,13.9027822 C1.72271867,13.6820116 1.50102991,13.3043169 1.50077243,12.8727758 L1.5,7.70325612 C1.50025748,7.02248261 2.05486558,6.46888939 2.73950019,6.46888939 Z"/>
</svg>
