<svg xmlns="http://www.w3.org/2000/svg" width="24" height="24" viewBox="0 0 24 24">
  <path fill="#555" fill-rule="evenodd" d="M15.23532,3.8275782 L16.1004468,2.25423499 C16.1465354,2.17167037 16.1164105,2.06628509 16.0329875,2.0211566 C15.9482772,1.97525888 15.8439985,2.00679754 15.7994548,2.08910575 L14.9250587,3.67809008 C14.1897009,3.35321625 13.366543,3.17013817 12.496524,3.17090741 C11.62805,3.17013817 10.806437,3.3521906 10.0733964,3.67655161 L9.19848542,2.09090063 C9.15368421,2.00731036 9.04811814,1.97679735 8.9657251,2.02243866 C8.8817872,2.06705432 8.85088981,2.17192678 8.89749337,2.2544914 L9.76313518,3.82629614 C8.062234,4.70014778 6.91336615,6.36297874 6.91439606,8.27273432 L18.0799394,8.27170867 C18.0804544,6.36246591 16.9336463,4.70245549 15.23532,3.8275782 L15.23532,3.8275782 Z M9.95727376,6.25861911 C9.70005301,6.25810628 9.49072321,6.04964343 9.49072321,5.79246233 C9.49072321,5.53656329 9.70005301,5.32630556 9.95753124,5.32630556 C10.2165543,5.32630556 10.4258841,5.53656329 10.4261416,5.79246233 C10.4261416,6.04964343 10.2165543,6.25861911 9.95727376,6.25861911 L9.95727376,6.25861911 Z M15.0414388,6.25759346 C14.7834457,6.25759346 14.5728285,6.04964343 14.5733434,5.79143669 C14.5733434,5.53605047 14.7829307,5.32579274 15.0414388,5.32476709 C15.2981446,5.32527991 15.5087618,5.53605047 15.5087618,5.79194951 C15.5087618,6.04913061 15.299432,6.25759346 15.0414388,6.25759346 Z M20.9992276,9.70197406 L21,14.8709809 C20.9997425,15.5540621 20.4453919,16.105604 19.7610148,16.105604 C19.0758652,16.1061168 18.5212571,15.5540621 18.5209996,14.8714937 L18.5204847,9.70248688 C18.5202272,9.02043132 19.0750928,8.46709451 19.7594699,8.46760734 C20.444362,8.46760734 20.9992276,9.0199185 20.9992276,9.70197406 Z M18.0418326,8.7001729 L18.0438925,16.7115053 C18.043635,17.1930467 17.7817796,17.6092032 17.3955623,17.8392046 C17.1973041,17.9574105 16.9681484,18.0297187 16.7207119,18.0294622 L15.8167058,18.0299751 L15.8174782,20.7638384 C15.8174782,21.4453811 15.2626126,21.9994872 14.5777206,21.9989744 C14.4922378,21.9989744 14.4088148,21.9905128 14.3282242,21.9741024 C13.7640894,21.8594863 13.3382204,21.3607652 13.3374479,20.7651205 L13.3374479,18.0302315 L11.6640969,18.0302315 L11.6648694,20.7651205 C11.6648694,21.361278 11.2397728,21.8594863 10.6748656,21.9748716 C10.5940174,21.991282 10.510337,22 10.4248542,22 C9.82698978,22 9.32696706,21.5764076 9.21161681,21.01384 C9.19513821,20.933583 9.18638395,20.8505056 9.18638395,20.7653769 L9.18535403,18.0304879 L8.28469519,18.0304879 C7.76355926,18.0304879 7.31812192,17.729204 7.10261265,17.294073 C7.01532753,17.1181745 6.96177206,16.9227886 6.96202953,16.7127873 L6.96022719,8.70222419 L18.0418326,8.7001729 Z M5.23950019,8.46888939 C5.9241348,8.46888939 6.47977281,9.02171338 6.47977281,9.70299971 L6.47977281,14.8727758 C6.47977281,14.9581609 6.47127603,15.0414948 6.45479743,15.1220081 C6.33970466,15.685345 5.83993942,16.1076553 5.2405301,16.1084245 C4.98820144,16.1079117 4.75389625,16.0320138 4.55795532,15.9027822 C4.22271867,15.6820116 4.00102991,15.3043169 4.00077243,14.8727758 L4,9.70325612 C4.00025748,9.02248261 4.55486558,8.46888939 5.23950019,8.46888939 Z"/>
</svg>
