<svg xmlns="http://www.w3.org/2000/svg" width="24" height="24" viewBox="0 0 24 24">
  <path fill="#555" d="M6.57398016,8.44514442 C6.41051929,8.44514442 6.27800806,8.57287936 6.27800806,8.73044839 L6.27800806,14.7156816 C6.27800806,14.8732507 6.41051929,15.0009856 6.57398016,15.0009856 C6.73744104,15.0009856 6.86995227,14.8732507 6.86995227,14.7156816 L6.86995227,8.73044839 C6.86995227,8.57287936 6.73744104,8.44514442 6.57398016,8.44514442 Z M6.66300468,7.12738566 C7.5814568,7.12738566 8.32600935,7.84510129 8.32600935,8.73044839 L8.32600935,14.7156816 C8.32600935,15.6010287 7.5814568,16.3187444 6.66300468,16.3187444 C5.74455256,16.3187444 5,15.6010287 5,14.7156816 L5,8.73044839 C5,7.84510129 5.74455256,7.12738566 6.66300468,7.12738566 Z M8.40209221,8.62819569 L8.40209221,16.7579973 L16.6042877,16.7579973 L16.6042877,8.62819569 L8.40209221,8.62819569 Z M7.03505963,7.31043693 L17.9713202,7.31043693 L17.9713202,17.1972502 C17.9713202,17.6824356 17.5632927,18.075756 17.0599652,18.075756 L7.94641468,18.075756 C7.44308719,18.075756 7.03505963,17.6824356 7.03505963,17.1972502 L7.03505963,7.31043693 Z M18.4073327,8.42906211 C18.2438718,8.42906211 18.1113606,8.55679705 18.1113606,8.71436609 L18.1113606,14.6995993 C18.1113606,14.8571684 18.2438718,14.9849033 18.4073327,14.9849033 C18.5707935,14.9849033 18.7033048,14.7963549 18.7033048,14.6995993 L18.7033048,8.71436609 C18.7033048,8.55679705 18.5707935,8.42906211 18.4073327,8.42906211 Z M14.345167,3.35543181 L15.1639411,2.27116516 C15.3861029,1.97696589 15.8136142,1.91207654 16.1188142,2.12623074 C16.4240142,2.34038493 16.4913299,2.75248684 16.269168,3.04668611 L15.587799,3.9489933 C16.743391,4.68205395 17.6103261,5.81163559 17.9711327,7.15022291 C18.0888544,7.12474658 18.2112963,7.11130335 18.3369953,7.11130335 C19.2554474,7.11130335 20,7.82901899 20,8.71436609 L20,14.6995993 C20,15.5849464 19.2554474,16.3026621 18.3369953,16.3026621 C17.4185432,16.3026621 16.6739906,15.5849464 16.6739906,14.6995993 L16.6739906,8.71436609 C16.6739906,8.39610253 16.7702055,8.09950115 16.9361262,7.85011538 L16.7342372,7.8808147 C16.404776,5.86754294 14.5959084,4.36410577 12.4584158,4.36410577 C10.246647,4.36410577 8.39667151,5.97144135 8.15588732,8.0729355 L6.79711724,7.92827171 C6.98393541,6.29777721 7.90545634,4.89394584 9.22634396,4.01566705 L8.49462688,3.04668611 C8.27246501,2.75248684 8.33978071,2.34038493 8.64498071,2.12623074 C8.95018072,1.91207654 9.377692,1.97696589 9.59985388,2.27116516 L10.4506035,3.39777573 C11.0763568,3.17041388 11.7533958,3.04634701 12.4584158,3.04634701 C13.1176224,3.04634701 13.7530279,3.15496996 14.345167,3.35543181 Z M11.1361574,6.21592719 C10.8844936,6.21592719 10.6804798,6.01926696 10.6804798,5.77667427 C10.6804798,5.53408159 10.8844936,5.33742135 11.1361574,5.33742135 C11.3878211,5.33742135 11.5918349,5.53408159 11.5918349,5.77667427 C11.5918349,6.01926696 11.3878211,6.21592719 11.1361574,6.21592719 Z M13.8702225,6.21592719 C13.6185588,6.21592719 13.414545,6.01926696 13.414545,5.77667427 C13.414545,5.53408159 13.6185588,5.33742135 13.8702225,5.33742135 C14.1218863,5.33742135 14.3259,5.53408159 14.3259,5.77667427 C14.3259,6.01926696 14.1218863,6.21592719 13.8702225,6.21592719 Z M8.81721896,17.8637899 C8.81721896,17.4999009 9.12323962,17.2049105 9.50073524,17.2049105 C9.87823087,17.2049105 10.1842515,17.4999009 10.1842515,17.8637899 L10.1832609,20.1487766 C10.2082245,20.5952479 10.286489,20.6822412 10.5415378,20.6822412 C10.7800505,20.6822412 10.8341391,20.6181361 10.8341391,20.1842373 L10.8341391,17.8637899 C10.8341391,17.4999009 11.1401598,17.2049105 11.5176554,17.2049105 C11.895151,17.2049105 12.2011717,17.4999009 12.2011717,17.8637899 L12.2011717,20.1842373 C12.2011717,21.2928496 11.6045152,22 10.5415378,22 C9.49509657,22 8.87949269,21.3157378 8.81721896,20.1842373 L8.81721896,17.8637899 Z M13.3582019,17.8637899 C13.3582019,17.4999009 13.6642226,17.2049105 14.0417182,17.2049105 C14.4192138,17.2049105 14.7252345,17.4999009 14.7252345,17.8637899 L14.7242438,20.1487766 C14.7492075,20.5952479 14.827472,20.6822412 15.0825208,20.6822412 C15.3210335,20.6822412 15.375122,20.6181361 15.375122,20.1842373 L15.375122,17.8637899 C15.375122,17.4999009 15.6811427,17.2049105 16.0586383,17.2049105 C16.4361339,17.2049105 16.7421546,17.4999009 16.7421546,17.8637899 L16.7421546,20.1842373 C16.7421546,21.2928496 16.1454981,22 15.0825208,22 C14.0360795,22 13.4204756,21.3157378 13.3582019,20.1842373 L13.3582019,17.8637899 Z"/>
</svg>
