<svg xmlns="http://www.w3.org/2000/svg" width="24" height="24" viewBox="0 0 24 24">
  <g fill="none" fill-rule="evenodd" transform="translate(-120 -1200)">
    <path fill="#555" fill-rule="nonzero" d="M15.4062484,5.99998722 C15.1937565,5.99998722 15.0343814,6.05454975 14.8750062,6.10908673 L14.8750062,5.99998722 L14.8218895,5.99998722 C14.6093727,4.30908545 13.4937466,2.83635713 11.9531367,1.96363776 L12.6968708,0.87271937 C12.6968708,0.763619861 12.7500125,0.654545919 12.7500125,0.54544641 C12.7500125,0.21817345 12.5374956,0 12.2187453,0 C12.0593702,0 11.899995,0.109073941 11.7937615,0.272710421 L10.9437441,1.52726529 C10.20001,1.2545293 9.34999253,1.09089282 8.5,1.09089282 C7.65000747,1.09089282 6.79999004,1.2545293 6.05625591,1.52726529 L5.20623848,0.272710421 C5.10000498,0.109073941 4.94062982,0 4.78125467,0 C4.46250436,0 4.24998755,0.21817345 4.24998755,0.54544641 C4.24998755,0.654545919 4.3031292,0.763619861 4.35624595,0.818182399 L5.10000498,1.90907522 C3.50625342,2.78182016 2.39062733,4.25454848 2.23125218,5.94545025 L2.12499377,5.94545025 L2.12499377,6.05454975 C1.96561862,5.99998722 1.80624346,5.94545025 1.59375156,5.94545025 C0.690617374,5.94545025 0,6.65453314 0,7.58181504 L0,15.2181926 C0,16.145449 0.690617374,16.8545574 1.59375156,16.8545574 C1.80624346,16.8545574 1.96561862,16.7999949 2.12499377,16.7454579 L2.12499377,18.5454592 C2.12499377,19.1454681 2.60311924,19.6363776 3.18750311,19.6363776 L4.24998755,19.6363776 L4.24998755,22.3636352 C4.24998755,23.2909171 4.94062982,24 5.84373911,24 C6.74684839,24 7.43749066,23.2909171 7.43749066,22.3636352 L7.43749066,19.6363776 L9.56250934,19.6363776 L9.56250934,22.3636352 C9.56250934,23.2909171 10.2531267,24 11.1562609,24 C12.0593951,24 12.7500125,23.2909171 12.7500125,22.3636352 L12.7500125,19.6363776 L13.8124969,19.6363776 C14.3968808,19.6363776 14.8750062,19.1454681 14.8750062,18.5454592 L14.8750062,16.7999949 C15.0343814,16.8545574 15.1937565,16.9090944 15.4062484,16.9090944 C16.3093826,16.9090944 17,16.2000115 17,15.2727296 L17,7.63635201 C17,6.70909567 16.3093826,5.99998722 15.4062484,5.99998722 Z M2.12499377,15.2727296 C2.12499377,15.6000026 1.91250187,15.818176 1.59375156,15.818176 C1.27500125,15.818176 1.06248444,15.6000026 1.06248444,15.2727296 L1.06248444,7.63635201 C1.06248444,7.30907905 1.27500125,7.0909056 1.59375156,7.0909056 C1.91250187,7.0909056 2.12499377,7.30907905 2.12499377,7.63635201 L2.12499377,15.2727296 Z M8.5,2.18181121 C11.2093776,2.18181121 13.4406298,3.87271298 13.7593801,5.99998722 L3.24061986,5.99998722 C3.55937018,3.87271298 5.79062235,2.18181121 8.5,2.18181121 Z M6.37500623,22.3636352 C6.37500623,22.6909082 6.16248942,22.9091072 5.84373911,22.9091072 C5.52498879,22.9091072 5.31249689,22.6909082 5.31249689,22.3636352 L5.31249689,19.6363776 L6.37500623,19.6363776 L6.37500623,22.3636352 L6.37500623,22.3636352 Z M11.6875031,22.3636352 C11.6875031,22.6909082 11.4750112,22.9091072 11.1562609,22.9091072 C10.8375106,22.9091072 10.6249938,22.6909082 10.6249938,22.3636352 L10.6249938,19.6363776 L11.6875031,19.6363776 L11.6875031,22.3636352 L11.6875031,22.3636352 Z M13.8124969,18.5454592 L3.18750311,18.5454592 L3.18750311,7.0909056 L13.8124969,7.0909056 L13.8124969,18.5454592 Z M15.9375156,15.2727296 C15.9375156,15.6000026 15.7249988,15.818176 15.4062484,15.818176 C15.0874981,15.818176 14.8750062,15.6000026 14.8750062,15.2727296 L14.8750062,7.63635201 C14.8750062,7.30907905 15.0874981,7.0909056 15.4062484,7.0909056 C15.7249988,7.0909056 15.9375156,7.30907905 15.9375156,7.63635201 L15.9375156,15.2727296 Z M10.0937516,3.81817601 C9.77500125,3.81817601 9.56250934,4.03634946 9.56250934,4.36362242 C9.56250934,4.69089538 9.77500125,4.9090944 10.0937516,4.9090944 C10.4125019,4.9090944 10.6249938,4.69089538 10.6249938,4.36362242 C10.6249938,4.03634946 10.4125019,3.81817601 10.0937516,3.81817601 Z M6.90624844,3.81817601 C6.58749813,3.81817601 6.37500623,4.03634946 6.37500623,4.36362242 C6.37500623,4.69089538 6.58749813,4.9090944 6.90624844,4.9090944 C7.22499875,4.9090944 7.43749066,4.69089538 7.43749066,4.36362242 C7.43749066,4.03634946 7.22499875,3.81817601 6.90624844,3.81817601 Z" transform="translate(123 1200)"/>
  </g>
</svg>
