<svg xmlns="http://www.w3.org/2000/svg" width="24" height="24" viewBox="0 0 24 24">
  <g fill="none" fill-rule="evenodd" transform="translate(-120 -1200)">
    <path fill="#555" fill-rule="nonzero" d="M6.09064143,8.08965886 C5.91430071,8.08965886 5.77134831,8.23016729 5.77134831,8.40349323 L5.77134831,14.9872498 C5.77134831,15.1605757 5.91430071,15.3010842 6.09064143,15.3010842 C6.26698215,15.3010842 6.40993454,15.1605757 6.40993454,14.9872498 L6.40993454,8.40349323 C6.40993454,8.23016729 6.26698215,8.08965886 6.09064143,8.08965886 Z M6.1866806,6.64012422 C7.17750182,6.64012422 7.98072113,7.42961142 7.98072113,8.40349323 L7.98072113,14.9872498 C7.98072113,15.9611316 7.17750182,16.7506188 6.1866806,16.7506188 C5.19585937,16.7506188 4.39264006,15.9611316 4.39264006,14.9872498 L4.39264006,8.40349323 C4.39264006,7.42961142 5.19585937,6.64012422 6.1866806,6.64012422 Z M8.0627989,8.29101526 L8.0627989,17.233797 L16.9112834,17.233797 L16.9112834,8.29101526 L8.0627989,8.29101526 Z M6.58805149,6.84148062 L18.3860308,6.84148062 L18.3860308,17.7169752 C18.3860308,18.2506791 17.9458529,18.6833316 17.4028659,18.6833316 L7.57121643,18.6833316 C7.02822943,18.6833316 6.58805149,18.2506791 6.58805149,17.7169752 L6.58805149,6.84148062 Z M18.8563987,8.07196832 C18.680058,8.07196832 18.5371056,8.21247676 18.5371056,8.3858027 L18.5371056,14.9695592 C18.5371056,15.1428852 18.680058,15.2833936 18.8563987,15.2833936 C19.0327394,15.2833936 19.1756918,15.0759904 19.1756918,14.9695592 L19.1756918,8.3858027 C19.1756918,8.21247676 19.0327394,8.07196832 18.8563987,8.07196832 Z M14.4741562,2.49097499 L15.3574452,1.29828167 C15.5971122,0.97466248 16.0583091,0.903284194 16.3875573,1.13885381 C16.7168054,1.37442343 16.7894252,1.82773552 16.5497582,2.15135472 L15.8147009,3.14389263 C17.0613473,3.95025935 17.9965923,5.19279915 18.3858285,6.6652452 C18.5128261,6.63722123 18.6449157,6.62243369 18.7805191,6.62243369 C19.7713404,6.62243369 20.5745597,7.41192089 20.5745597,8.3858027 L20.5745597,14.9695592 C20.5745597,15.9434411 19.7713404,16.7329283 18.7805191,16.7329283 C17.7896979,16.7329283 16.9864786,15.9434411 16.9864786,14.9695592 L16.9864786,8.3858027 C16.9864786,8.03571278 17.0902747,7.70945126 17.2692691,7.43512692 L17.0514722,7.46889617 C16.6960513,5.25429724 14.7446546,3.60051635 12.438739,3.60051635 C10.0526947,3.60051635 8.05695108,5.36858549 7.79719439,7.68022905 L6.33136051,7.52109888 C6.53289895,5.72755493 7.52703078,4.18334043 8.95199728,3.21723376 L8.16262482,2.15135472 C7.92295777,1.82773552 7.99557759,1.37442343 8.32482572,1.13885381 C8.65407385,0.903284194 9.11527073,0.97466248 9.35493777,1.29828167 L10.2727219,2.5375533 C10.9477812,2.28745527 11.6781673,2.15098171 12.438739,2.15098171 C13.1498876,2.15098171 13.8353597,2.27046695 14.4741562,2.49097499 Z M11.0122937,5.63751991 C10.7408002,5.63751991 10.5207113,5.42119366 10.5207113,5.1543417 C10.5207113,4.88748974 10.7408002,4.67116349 11.0122937,4.67116349 C11.2837872,4.67116349 11.5038762,4.88748974 11.5038762,5.1543417 C11.5038762,5.42119366 11.2837872,5.63751991 11.0122937,5.63751991 Z M13.9617886,5.63751991 C13.6902951,5.63751991 13.4702061,5.42119366 13.4702061,5.1543417 C13.4702061,4.88748974 13.6902951,4.67116349 13.9617886,4.67116349 C14.2332821,4.67116349 14.453371,4.88748974 14.453371,5.1543417 C14.453371,5.42119366 14.2332821,5.63751991 13.9617886,5.63751991 Z M8.51063541,18.4501689 C8.51063541,18.0498909 8.84076887,17.7254016 9.24800912,17.7254016 C9.65524938,17.7254016 9.98538283,18.0498909 9.98538283,18.4501689 L9.98431413,20.9636543 C10.0112448,21.4547727 10.0956761,21.5504654 10.3708214,21.5504654 C10.6281276,21.5504654 10.686478,21.4799497 10.686478,21.0026611 L10.686478,18.4501689 C10.686478,18.0498909 11.0166115,17.7254016 11.4238518,17.7254016 C11.831092,17.7254016 12.1612255,18.0498909 12.1612255,18.4501689 L12.1612255,21.0026611 C12.1612255,22.2221346 11.5175557,23 10.3708214,23 C9.24192615,23 8.57781599,22.2473116 8.51063541,21.0026611 L8.51063541,18.4501689 Z M13.4094235,18.4501689 C13.4094235,18.0498909 13.7395569,17.7254016 14.1467972,17.7254016 C14.5540374,17.7254016 14.8841709,18.0498909 14.8841709,18.4501689 L14.8831022,20.9636543 C14.9100328,21.4547727 14.9944642,21.5504654 15.2696094,21.5504654 C15.5269157,21.5504654 15.5852661,21.4799497 15.5852661,21.0026611 L15.5852661,18.4501689 C15.5852661,18.0498909 15.9153996,17.7254016 16.3226398,17.7254016 C16.7298801,17.7254016 17.0600135,18.0498909 17.0600135,18.4501689 L17.0600135,21.0026611 C17.0600135,22.2221346 16.4163437,23 15.2696094,23 C14.1407142,23 13.476604,22.2473116 13.4094235,21.0026611 L13.4094235,18.4501689 Z" transform="translate(120 1200)"/>
  </g>
</svg>
