<svg xmlns="http://www.w3.org/2000/svg" width="24" height="24" viewBox="0 0 24 24">
  <path fill="#555" fill-rule="evenodd" d="M20.4224981,8.71020766 C17.0825789,10.561446 17.6252231,15.3836655 21,16.6731574 C20.5354768,17.7134008 20.3127331,18.1783979 19.7147121,19.0986421 C18.8803503,20.383384 17.7040857,21.9828739 16.2462394,21.9968738 C14.9508155,22.0091237 14.6183069,21.1443792 12.8600904,21.1541291 C11.1021211,21.1641291 10.7354964,22.0118737 9.43982533,21.9998738 C7.98197904,21.9861239 6.86702453,20.541633 6.03216835,19.2571411 C3.69793322,15.6649138 3.45417598,11.4494404 4.89372811,9.20895451 C5.91671741,7.61571456 7.53031122,6.68347045 9.04798433,6.68347045 C10.5930987,6.68347045 11.5644194,7.54046504 12.8417963,7.54046504 C14.0811016,7.54046504 14.835859,6.68222045 16.6222584,6.68222045 C17.9725648,6.68222045 19.4029698,7.42546577 20.4224981,8.71020766 Z M15.267255,5.24697951 C14.5723243,6.14897382 13.3747989,6.84821941 12.2175701,6.81196964 C12.0064457,5.64872698 12.5490898,4.45198453 13.206196,3.64498962 C13.9300512,2.75574523 15.1700982,2.07399953 16.2301702,2 C16.4091563,3.21549233 15.916203,4.40498482 15.267255,5.24697951 Z"/>
</svg>
