<svg xmlns="http://www.w3.org/2000/svg" width="24" height="24" viewBox="0 0 24 24">
  <g fill="none" fill-rule="evenodd" transform="translate(-216 -1104)">
    <path fill="#555" d="M21.3545567,8.38122842 C17.6217058,10.4175906 18.2281905,15.7220321 22,17.1404732 C21.480827,18.2847409 21.2318782,18.7962377 20.5635017,19.8085063 C19.6309798,21.2217224 18.3163311,22.9811613 16.6869735,22.9965612 C15.2391468,23.0100361 14.8675195,22.0588171 12.902454,22.0695421 C10.9376648,22.080542 10.5279078,23.0130611 9.07980478,22.9998612 C7.45044717,22.9847363 6.20432154,21.3957963 5.27124698,19.9828552 C2.66239595,16.0314052 2.38996139,11.3943844 3.99887259,8.92984996 C5.14221358,7.17728602 6.94564195,6.15181749 8.64186484,6.15181749 C10.3687573,6.15181749 11.454351,7.09451154 12.8820076,7.09451154 C14.2671135,7.09451154 15.110666,6.1504425 17.10723,6.1504425 C18.6163959,6.1504425 20.2150839,6.96801234 21.3545567,8.38122842 Z M15.5928144,4.57167746 C14.8161272,5.5638712 13.4777164,6.33304135 12.184343,6.2931666 C11.9483804,5.01359967 12.5548651,3.69718298 13.2892779,2.80948858 C14.0982925,1.83131975 15.4842274,1.08139949 16.6690138,1 C16.869057,2.33704156 16.3181092,3.64548331 15.5928144,4.57167746 Z" transform="translate(216 1104)"/>
  </g>
</svg>
