<svg xmlns="http://www.w3.org/2000/svg" width="24" height="24" viewBox="0 0 24 24">
  <g fill="none" fill-rule="evenodd" transform="translate(-288 -1032)">
    <path fill="#555" d="M19.6827074,7.95288889 C15.6797444,10.146963 16.3301148,15.8622222 20.3748555,17.3905185 C19.8181148,18.6234074 19.5511518,19.1745185 18.8344111,20.2651852 C17.8344111,21.7878519 16.4246333,23.6835556 14.677374,23.7001481 C13.1247815,23.7146667 12.7262629,22.6897778 10.6190037,22.7013333 C8.51204072,22.7131852 8.07263331,23.7179259 6.51974442,23.7037037 C4.77248516,23.6874074 3.43618886,21.9754074 2.43559627,20.453037 C-0.362033358,16.1955556 -0.654181506,11.1994074 1.07115183,8.544 C2.2972259,6.6557037 4.23115183,5.55081481 6.05011479,5.55081481 C7.90196664,5.55081481 9.06611479,6.56651852 10.5970778,6.56651852 C12.0824111,6.56651852 12.9870037,5.54933333 15.1280407,5.54933333 C16.7464111,5.54933333 18.4607815,6.43022222 19.6827074,7.95288889 Z M13.5040407,3.8482963 C12.6711518,4.91733333 11.2358926,5.74607407 9.8489296,5.70311111 C9.59589257,4.32444444 10.2462629,2.90607407 11.0338185,1.94962963 C11.901374,0.895703704 13.3875963,0.0877037037 14.6581148,0 C14.8726333,1.44059259 14.2818185,2.85037037 13.5040407,3.8482963 Z" transform="translate(290 1032)"/>
  </g>
</svg>
