<svg xmlns="http://www.w3.org/2000/svg" width="24" height="24" viewBox="0 0 24 24">
  <g fill="none" fill-rule="evenodd" transform="translate(-336 -816)">
    <path fill="#555" fill-rule="nonzero" d="M8.94642857,0 L1.92857143,0 C1.39285714,0 0.9375,0.1875 0.5625,0.5625 C0.1875,0.9375 0,1.39285714 0,1.92857143 L0,8.94642857 C0,9.48214286 0.1875,9.9375 0.5625,10.3125 C0.9375,10.6875 1.39285714,10.875 1.92857143,10.875 L8.94642857,10.875 C9.48214286,10.875 9.9375,10.6875 10.3125,10.3125 C10.6875,9.9375 10.875,9.48214286 10.875,8.94642857 L10.875,1.92857143 C10.875,1.39285714 10.6875,0.9375 10.3125,0.5625 C9.9375,0.1875 9.48214286,0 8.94642857,0 Z M22.0714286,0 L15.0535714,0 C14.5178571,0 14.0625,0.1875 13.6875,0.5625 C13.3125,0.9375 13.125,1.39285714 13.125,1.92857143 L13.125,8.94642857 C13.125,9.48214286 13.3125,9.9375 13.6875,10.3125 C14.0625,10.6875 14.5178571,10.875 15.0535714,10.875 L22.0714286,10.875 C22.6071429,10.875 23.0625,10.6875 23.4375,10.3125 C23.8125,9.9375 24,9.48214286 24,8.94642857 L24,1.92857143 C24,1.39285714 23.8125,0.9375 23.4375,0.5625 C23.0625,0.1875 22.6071429,0 22.0714286,0 Z M8.94642857,13.125 L1.92857143,13.125 C1.39285714,13.125 0.9375,13.3125 0.5625,13.6875 C0.1875,14.0625 0,14.5178571 0,15.0535714 L0,22.0714286 C0,22.6071429 0.1875,23.0625 0.5625,23.4375 C0.9375,23.8125 1.39285714,24 1.92857143,24 L8.94642857,24 C9.48214286,24 9.9375,23.8125 10.3125,23.4375 C10.6875,23.0625 10.875,22.6071429 10.875,22.0714286 L10.875,15.0535714 C10.875,14.5178571 10.6875,14.0625 10.3125,13.6875 C9.9375,13.3125 9.48214286,13.125 8.94642857,13.125 Z M22.0714286,13.125 L15.0535714,13.125 C14.5178571,13.125 14.0625,13.3125 13.6875,13.6875 C13.3125,14.0625 13.125,14.5178571 13.125,15.0535714 L13.125,22.0714286 C13.125,22.6071429 13.3125,23.0625 13.6875,23.4375 C14.0625,23.8125 14.5178571,24 15.0535714,24 L22.0714286,24 C22.6071429,24 23.0625,23.8125 23.4375,23.4375 C23.8125,23.0625 24,22.6071429 24,22.0714286 L24,15.0535714 C24,14.5178571 23.8125,14.0625 23.4375,13.6875 C23.0625,13.3125 22.6071429,13.125 22.0714286,13.125 Z" transform="translate(336 816)"/>
  </g>
</svg>
