<svg xmlns="http://www.w3.org/2000/svg" width="24" height="24" viewBox="0 0 24 24">
  <g fill="none" fill-rule="evenodd" transform="translate(-212 -884)">
    <path fill="#555" fill-rule="nonzero" d="M8.4140625,15 C8.7375,15 9,15.2625 9,15.5859375 L9,21.9140625 L9,21.9164063 L9,21.91875 C9,22.1273438 8.89453125,22.265625 8.82890625,22.33125 C8.765625,22.3945313 8.62734375,22.5023438 8.41875,22.5023438 L2.0859375,22.5023438 C1.7625,22.5023438 1.5,22.2398437 1.5,21.9164063 L1.5,15.5859375 C1.5,15.2625 1.7625,15 2.0859375,15 L8.4140625,15 L8.4140625,15 Z M8.4140625,13.5 L2.0859375,13.5 C0.93515625,13.5 0,14.4351562 0,15.5859375 L0,21.9140625 C0,23.0648438 0.93515625,24 2.0859375,24 L8.41875,24 C9.5671875,24 10.5023438,23.0648438 10.5,21.9140625 L10.5,15.5859375 C10.5,14.4351562 9.56484375,13.5 8.4140625,13.5 L8.4140625,13.5 Z M8.4140625,1.5 C8.7375,1.5 9,1.7625 9,2.0859375 L9,8.4140625 L9,8.41640625 L9,8.41875 C9,8.62734375 8.89453125,8.765625 8.82890625,8.83125 C8.765625,8.89453125 8.62734375,9.00234375 8.41875,9.00234375 L2.0859375,9.00234375 C1.7625,9.00234375 1.5,8.73984375 1.5,8.41640625 L1.5,2.0859375 C1.5,1.7625 1.7625,1.5 2.0859375,1.5 L8.4140625,1.5 L8.4140625,1.5 Z M8.4140625,0 L2.0859375,0 C0.93515625,0 0,0.93515625 0,2.0859375 L0,8.4140625 C0,9.56484375 0.93515625,10.5 2.0859375,10.5 L8.41875,10.5 C9.5671875,10.5 10.5023438,9.56484375 10.5,8.4140625 L10.5,2.0859375 C10.5,0.93515625 9.56484375,0 8.4140625,0 L8.4140625,0 Z M21.9140625,15 C22.2375,15 22.5,15.2625 22.5,15.5859375 L22.5,21.9140625 L22.5,21.9164063 L22.5,21.91875 C22.5,22.1273438 22.3945312,22.265625 22.3289063,22.33125 C22.265625,22.3945313 22.1273438,22.5023438 21.91875,22.5023438 L15.5859375,22.5023438 C15.2625,22.5023438 15,22.2398437 15,21.9164063 L15,15.5859375 C15,15.2625 15.2625,15 15.5859375,15 L21.9140625,15 L21.9140625,15 Z M21.9140625,13.5 L15.5859375,13.5 C14.4351563,13.5 13.5,14.4351562 13.5,15.5859375 L13.5,21.9140625 C13.5,23.0648438 14.4351563,24 15.5859375,24 L21.91875,24 C23.0671875,24 24.0023438,23.0648438 24,21.9140625 L24,15.5859375 C24,14.4351562 23.0648438,13.5 21.9140625,13.5 L21.9140625,13.5 Z M21.9140625,1.5 C22.2375,1.5 22.5,1.7625 22.5,2.0859375 L22.5,8.4140625 L22.5,8.41640625 L22.5,8.41875 C22.5,8.62734375 22.3945312,8.765625 22.3289063,8.83125 C22.265625,8.89453125 22.1273438,9.00234375 21.91875,9.00234375 L15.5859375,9.00234375 C15.2625,9.00234375 15,8.73984375 15,8.41640625 L15,2.0859375 C15,1.7625 15.2625,1.5 15.5859375,1.5 L21.9140625,1.5 L21.9140625,1.5 Z M21.9140625,0 L15.5859375,0 C14.4351563,0 13.5,0.93515625 13.5,2.0859375 L13.5,8.4140625 C13.5,9.56484375 14.4351563,10.5 15.5859375,10.5 L21.91875,10.5 C23.0671875,10.5 24.0023438,9.56484375 24,8.4140625 L24,2.0859375 C24,0.93515625 23.0648438,0 21.9140625,0 L21.9140625,0 Z" transform="translate(212 884)"/>
  </g>
</svg>
