<svg xmlns="http://www.w3.org/2000/svg" width="24" height="24" viewBox="0 0 24 24">
  <g fill="none" fill-rule="evenodd" transform="translate(-264 -888)">
    <path fill="#555" fill-rule="nonzero" d="M3.22222222,1 L8.77777778,1 C10.0050772,1 11,1.99492278 11,3.22222222 L11,8.77777778 C11,10.0050772 10.0050772,11 8.77777778,11 L3.22222222,11 C1.99492278,11 1,10.0050772 1,8.77777778 L1,3.22222222 C1,1.99492278 1.99492278,1 3.22222222,1 Z M15.2222222,1 L20.7777778,1 C22.0050772,1 23,1.99492278 23,3.22222222 L23,8.77777778 C23,10.0050772 22.0050772,11 20.7777778,11 L15.2222222,11 C13.9949228,11 13,10.0050772 13,8.77777778 L13,3.22222222 C13,1.99492278 13.9949228,1 15.2222222,1 Z M3.22222222,13 L8.77777778,13 C10.0050772,13 11,13.9949228 11,15.2222222 L11,20.7777778 C11,22.0050772 10.0050772,23 8.77777778,23 L3.22222222,23 C1.99492278,23 1,22.0050772 1,20.7777778 L1,15.2222222 C1,13.9949228 1.99492278,13 3.22222222,13 Z M15.2222222,13 L20.7777778,13 C22.0050772,13 23,13.9949228 23,15.2222222 L23,20.7777778 C23,22.0050772 22.0050772,23 20.7777778,23 L15.2222222,23 C13.9949228,23 13,22.0050772 13,20.7777778 L13,15.2222222 C13,13.9949228 13.9949228,13 15.2222222,13 Z" transform="translate(264 888)"/>
  </g>
</svg>
