<svg xmlns="http://www.w3.org/2000/svg" width="24" height="24" viewBox="0 0 24 24">
  <path fill="#555" d="M4.02020202,3.51515152 C3.74127033,3.51515152 3.51515152,3.74127033 3.51515152,4.02020202 L3.51515152,9.07070707 C3.51515152,9.34963876 3.74127033,9.57575758 4.02020202,9.57575758 L9.07070707,9.57575758 C9.34963876,9.57575758 9.57575758,9.34963876 9.57575758,9.07070707 L9.57575758,4.02020202 C9.57575758,3.74127033 9.34963876,3.51515152 9.07070707,3.51515152 L4.02020202,3.51515152 Z M4.02020202,2 L9.07070707,2 C10.1864338,2 11.0909091,2.90447525 11.0909091,4.02020202 L11.0909091,9.07070707 C11.0909091,10.1864338 10.1864338,11.0909091 9.07070707,11.0909091 L4.02020202,11.0909091 C2.90447525,11.0909091 2,10.1864338 2,9.07070707 L2,4.02020202 C2,2.90447525 2.90447525,2 4.02020202,2 Z M14.9292929,2 L19.979798,2 C21.0955247,2 22,2.90447525 22,4.02020202 L22,9.07070707 C22,10.1864338 21.0955247,11.0909091 19.979798,11.0909091 L14.9292929,11.0909091 C13.8135662,11.0909091 12.9090909,10.1864338 12.9090909,9.07070707 L12.9090909,4.02020202 C12.9090909,2.90447525 13.8135662,2 14.9292929,2 Z M14.9292929,3.51515152 C14.6503612,3.51515152 14.4242424,3.74127033 14.4242424,4.02020202 L14.4242424,9.07070707 C14.4242424,9.34963876 14.6503612,9.57575758 14.9292929,9.57575758 L19.979798,9.57575758 C20.2587297,9.57575758 20.4848485,9.34963876 20.4848485,9.07070707 L20.4848485,4.02020202 C20.4848485,3.74127033 20.2587297,3.51515152 19.979798,3.51515152 L14.9292929,3.51515152 Z M4.02020202,12.9090909 L9.07070707,12.9090909 C10.1864338,12.9090909 11.0909091,13.8135662 11.0909091,14.9292929 L11.0909091,19.979798 C11.0909091,21.0955247 10.1864338,22 9.07070707,22 L4.02020202,22 C2.90447525,22 2,21.0955247 2,19.979798 L2,14.9292929 C2,13.8135662 2.90447525,12.9090909 4.02020202,12.9090909 Z M4.02020202,14.4242424 C3.74127033,14.4242424 3.51515152,14.6503612 3.51515152,14.9292929 L3.51515152,19.979798 C3.51515152,20.2587297 3.74127033,20.4848485 4.02020202,20.4848485 L9.07070707,20.4848485 C9.34963876,20.4848485 9.57575758,20.2587297 9.57575758,19.979798 L9.57575758,14.9292929 C9.57575758,14.6503612 9.34963876,14.4242424 9.07070707,14.4242424 L4.02020202,14.4242424 Z M14.9292929,12.9090909 L19.979798,12.9090909 C21.0955247,12.9090909 22,13.8135662 22,14.9292929 L22,19.979798 C22,21.0955247 21.0955247,22 19.979798,22 L14.9292929,22 C13.8135662,22 12.9090909,21.0955247 12.9090909,19.979798 L12.9090909,14.9292929 C12.9090909,13.8135662 13.8135662,12.9090909 14.9292929,12.9090909 Z M14.9292929,14.4242424 C14.6503612,14.4242424 14.4242424,14.6503612 14.4242424,14.9292929 L14.4242424,19.979798 C14.4242424,20.2587297 14.6503612,20.4848485 14.9292929,20.4848485 L19.979798,20.4848485 C20.2587297,20.4848485 20.4848485,20.2587297 20.4848485,19.979798 L20.4848485,14.9292929 C20.4848485,14.6503612 20.2587297,14.4242424 19.979798,14.4242424 L14.9292929,14.4242424 Z"/>
</svg>
