<svg xmlns="http://www.w3.org/2000/svg" width="24" height="24" viewBox="0 0 24 24">
  <path fill="#555" d="M4.02020202,2 L9.07070707,2 C10.1864338,2 11.0909091,2.90447525 11.0909091,4.02020202 L11.0909091,9.07070707 C11.0909091,10.1864338 10.1864338,11.0909091 9.07070707,11.0909091 L4.02020202,11.0909091 C2.90447525,11.0909091 2,10.1864338 2,9.07070707 L2,4.02020202 C2,2.90447525 2.90447525,2 4.02020202,2 Z M14.9292929,2 L19.979798,2 C21.0955247,2 22,2.90447525 22,4.02020202 L22,9.07070707 C22,10.1864338 21.0955247,11.0909091 19.979798,11.0909091 L14.9292929,11.0909091 C13.8135662,11.0909091 12.9090909,10.1864338 12.9090909,9.07070707 L12.9090909,4.02020202 C12.9090909,2.90447525 13.8135662,2 14.9292929,2 Z M4.02020202,12.9090909 L9.07070707,12.9090909 C10.1864338,12.9090909 11.0909091,13.8135662 11.0909091,14.9292929 L11.0909091,19.979798 C11.0909091,21.0955247 10.1864338,22 9.07070707,22 L4.02020202,22 C2.90447525,22 2,21.0955247 2,19.979798 L2,14.9292929 C2,13.8135662 2.90447525,12.9090909 4.02020202,12.9090909 Z M14.9292929,12.9090909 L19.979798,12.9090909 C21.0955247,12.9090909 22,13.8135662 22,14.9292929 L22,19.979798 C22,21.0955247 21.0955247,22 19.979798,22 L14.9292929,22 C13.8135662,22 12.9090909,21.0955247 12.9090909,19.979798 L12.9090909,14.9292929 C12.9090909,13.8135662 13.8135662,12.9090909 14.9292929,12.9090909 Z"/>
</svg>
