<svg xmlns="http://www.w3.org/2000/svg" width="24" height="24" viewBox="0 0 24 24">
  <g fill="none" fill-rule="evenodd" transform="translate(-336 -768)">
    <path fill="#555" fill-rule="nonzero" d="M1.92,22.08 L23.04,22.08 C23.5701934,22.08 24,22.5098066 24,23.04 C24,23.5701934 23.5701934,24 23.04,24 L0.96,24 C0.42980664,24 6.49299601e-17,23.5701934 0,23.04 L0,0.96 C-6.49299601e-17,0.42980664 0.42980664,9.73949402e-17 0.96,0 C1.49019336,-9.73949402e-17 1.92,0.42980664 1.92,0.96 L1.92,22.08 Z M3.42886957,20.5711304 L6.72,13.9888696 L10.0111304,15.6344348 L14.1255652,10.6966957 L17.4166957,13.1655652 L22.3544348,5.76 L22.3544348,20.5711304 L3.42886957,20.5711304 Z" transform="translate(336 768)"/>
  </g>
</svg>
