<svg xmlns="http://www.w3.org/2000/svg" xmlns:xlink="http://www.w3.org/1999/xlink" width="24" height="24" viewBox="0 0 24 24">
  <defs>
    <path id="area-chart-a" d="M2.50600812,21.4766482 L22.2469959,21.4766482 C22.6628686,21.4766482 23,21.8176621 23,22.2383241 C23,22.6589861 22.6628686,23 22.2469959,23 L1.75300406,23 C1.3371314,23 1,22.6589861 1,22.2383241 L1,1.7616759 C1,1.34101392 1.3371314,1 1.75300406,1 C2.16887672,1 2.50600812,1.34101392 2.50600812,1.7616759 L2.50600812,21.4766482 Z M4.12044301,20.1388367 L7.14939639,14.0111651 L10.1783498,15.543083 L13.9650217,10.9463579 L16.993975,13.2447205 L21.5383655,6.3506042 L21.5383655,20.1388367 L4.12044301,20.1388367 Z"/>
  </defs>
  <g fill="none" fill-rule="evenodd" transform="translate(-264 -840)">
    <g transform="translate(264 840)">
      <use fill="#555" fill-rule="nonzero" xlink:href="#area-chart-a"/>
    </g>
  </g>
</svg>
