<svg xmlns="http://www.w3.org/2000/svg" width="24" height="24" viewBox="0 0 24 24">
  <path fill="#555" fill-rule="evenodd" d="M11.1415839,17.3340268 L11.1415839,2.46123785 C11.1415839,2.45864542 11.1467675,2.45605299 11.1467675,2.45864542 L16.5377607,8.06867076 C16.9731871,8.52234656 17.6963059,8.53790116 18.149875,8.09977995 C18.6034441,7.66425119 18.6189951,6.94096234 18.1809769,6.48728654 L10.8435242,-1.15002152 C10.6284028,-1.37297078 10.3303431,-1.5 10.0219161,-1.5 C9.71089725,-1.5 9.41542936,-1.37297078 9.200308,-1.15002152 L1.81879431,6.52876547 C1.60626477,6.74912228 1.5,7.03428993 1.5,7.31945758 C1.5,7.62017982 1.61663206,7.91830963 1.84989619,8.14125888 C2.30346532,8.57678765 3.02658412,8.56382549 3.46201049,8.11014969 L8.85300363,2.50012435 C8.85559546,2.49753192 8.85818728,2.50012435 8.85818728,2.50271678 L8.85818728,17.3599512 C8.85818728,17.9665805 9.332491,18.4617353 9.92861044,18.4980293 C10.5921173,18.5369158 11.1415839,17.9950973 11.1415839,17.3340268 Z" transform="rotate(90 9 11.5)"/>
</svg>
