<svg xmlns="http://www.w3.org/2000/svg" width="20" height="20" viewBox="0 0 20 20">
  <path fill="#555" d="M9.00836084,1.72321702 C9.3113889,2.02286945 9.31470953,2.51203066 9.01577766,2.81578916 L2.683,9.24963727 L19.2358864,9.36464251 C19.661536,9.36759742 20.0042035,9.71588176 20.0012745,10.1425574 C19.9983079,10.569233 19.650861,10.9127265 19.2252114,10.9097716 L2.572,10.7936373 L9.00920802,17.1788898 C9.31177381,17.4790112 9.31434039,17.968177 9.01494064,18.2714721 C8.7155409,18.5747672 8.22755141,18.57734 7.92498562,18.2772185 L0.228614139,10.643024 C-0.0736211149,10.3432305 -0.0765608043,9.85471759 0.222044494,9.55129093 L7.91841597,1.73065172 C8.21734784,1.42689322 8.70533278,1.42356459 9.00836084,1.72321702 Z" transform="matrix(0 1 1 0 0 0)"/>
</svg>
