<svg xmlns="http://www.w3.org/2000/svg" width="24" height="24" viewBox="0 0 24 24">
  <g fill="none" fill-rule="evenodd" transform="translate(-168 -360)">
    <path fill="#555" fill-rule="nonzero" d="M3.57470829,21.507593 L8.26928581,21.507593 C8.68214984,21.507593 9.01684226,21.8416797 9.01684226,22.2537965 C9.01684226,22.6659133 8.68214984,23 8.26928581,23 L1.74755645,23 C1.33469242,23 1,22.6659133 1,22.2537965 L1,15.8138262 C1,15.4017094 1.33469242,15.0676227 1.74755645,15.0676227 C2.16042048,15.0676227 2.4951129,15.4017094 2.4951129,15.8138262 L2.4951129,20.4748245 L8.96211122,13.9642129 C9.25280201,13.6715617 9.72612426,13.669546 10.0193061,13.9597107 C10.3124879,14.2498754 10.3145072,14.722341 10.0238164,15.0149922 L3.57470829,21.507593 Z M20.4252917,2.49240703 L15.7307142,2.49240703 C15.3178502,2.49240703 14.9831577,2.15832034 14.9831577,1.74620352 C14.9831577,1.33408669 15.3178502,1 15.7307142,1 L22.2524435,1 C22.6653076,1 23,1.33408669 23,1.74620352 L23,8.1861738 C23,8.59829062 22.6653076,8.93237732 22.2524435,8.93237732 C21.8395795,8.93237732 21.5048871,8.59829062 21.5048871,8.1861738 L21.5048871,3.52517554 L15.0378888,10.0357871 C14.747198,10.3284383 14.2738757,10.330454 13.9806939,10.0402893 C13.6875121,9.7501246 13.6854928,9.27765896 13.9761836,8.98500776 L20.4252917,2.49240703 Z" transform="translate(168 360)"/>
  </g>
</svg>
