<svg xmlns="http://www.w3.org/2000/svg" width="24" height="24" viewBox="0 0 24 24">
  <path fill="#555" d="M3.39841318,19.6589588 L10.171249,12.77055 C10.4422936,12.4948802 10.8854933,12.4911307 11.1611631,12.7621754 C11.4368329,13.03322 11.4405823,13.4764196 11.1695377,13.7520894 L4.43174296,20.6048592 L8.69841318,20.6048592 C9.0850125,20.6048592 9.39841318,20.9182599 9.39841318,21.3048592 C9.39841318,21.6914586 9.0850125,22.0048592 8.69841318,22.0048592 L2.69841318,22.0048592 C2.31181385,22.0048592 1.99841318,21.6914586 1.99841318,21.3048592 L1.99841318,15.3048592 C1.99841318,14.9182599 2.31181385,14.6048592 2.69841318,14.6048592 C3.0850125,14.6048592 3.39841318,14.9182599 3.39841318,15.3048592 L3.39841318,19.6589588 Z M20.6003096,4.34590041 L13.8274737,11.2343093 C13.5564291,11.5099791 13.1132295,11.5137285 12.8375597,11.2426839 C12.5618899,10.9716392 12.5581404,10.5284396 12.8291851,10.2527698 L19.5669798,3.4 L15.3003096,3.4 C14.9137102,3.4 14.6003096,3.08659932 14.6003096,2.7 C14.6003096,2.31340068 14.9137102,2 15.3003096,2 L21.3003096,2 C21.6869089,2 22.0003096,2.31340068 22.0003096,2.7 L22.0003096,8.7 C22.0003096,9.08659932 21.6869089,9.4 21.3003096,9.4 C20.9137102,9.4 20.6003096,9.08659932 20.6003096,8.7 L20.6003096,4.34590041 Z"/>
</svg>
