<svg xmlns="http://www.w3.org/2000/svg" width="24" height="24" viewBox="0 0 24 24">
  <g fill="none" fill-rule="evenodd" transform="translate(-168 -360)">
    <path fill="#555" d="M8.15865576,1.96428571 L3.43910469,1.96428571 L8.62569467,7.14508929 C9.01005205,7.52901786 9.01005205,8.14955357 8.62569467,8.53348214 C8.24133729,8.91741071 7.6201085,8.91741071 7.23575113,8.53348214 L1.96647961,3.27232143 L1.96647961,7.94642857 C1.96647961,8.48883929 1.52625634,8.92857143 0.983239807,8.92857143 C0.440223277,8.92857143 0,8.48883929 0,7.94642857 L0,0.982142857 C0,0.439732143 0.440223277,0 0.983239807,0 L8.15642113,0 C8.69943766,0 9.13966093,0.439732143 9.13966093,0.982142857 C9.13966093,1.52455357 8.70167229,1.96428571 8.15865576,1.96428571 L8.15865576,1.96428571 Z M19.0189864,20 L11.845805,20 C11.3027885,20 10.8625652,19.5602679 10.8625652,19.0178571 C10.8625652,18.4754464 11.3027885,18.0357143 11.845805,18.0357143 L16.5631215,18.0357143 L11.3765315,12.8571429 C10.9921741,12.4732143 10.9921741,11.8526786 11.3765315,11.46875 C11.5687102,11.2767857 11.821224,11.1808036 12.0715033,11.1808036 C12.3240171,11.1808036 12.5742964,11.2767857 12.766475,11.46875 L18.0335119,16.7299107 L18.0335119,12.0558036 C18.0335119,11.5133929 18.4737352,11.0736607 19.0167517,11.0736607 C19.5597683,11.0736607 19.9999915,11.5133929 19.9999915,12.0558036 L19.9999915,19.0200893 C20.0022262,19.5602679 19.5620029,20 19.0189864,20 L19.0189864,20 Z" transform="matrix(1 0 0 -1 170 382)"/>
  </g>
</svg>
