<svg xmlns="http://www.w3.org/2000/svg" width="24" height="24" viewBox="0 0 24 24">
  <path fill="#555" d="M4.68405382,11.7491095 L21.2346118,11.8640052 C21.6602614,11.8669601 22.0029289,12.2152445 21.9999811,12.6419201 C21.9970333,13.0685957 21.6495865,13.4120892 21.2239369,13.4091343 L4.57249318,13.2935382 L11.009208,19.6782525 C11.3117738,19.9783739 11.3143404,20.4675397 11.0149406,20.7708348 C10.7155409,21.0741299 10.2275514,21.0767027 9.92498562,20.7765813 L2.22861414,13.1423868 C1.92637889,12.8425932 1.9234392,12.3540803 2.22204449,12.0506537 L9.91841597,4.23001445 C10.2173478,3.92625595 10.7053328,3.92292732 11.0083608,4.22257975 C11.3113889,4.52223218 11.3147095,5.01139339 11.0157777,5.31515189 L4.68405382,11.7491095 Z" transform="matrix(-1 0 0 1 24 0)"/>
</svg>
