<svg xmlns="http://www.w3.org/2000/svg" width="20" height="20" viewBox="0 0 20 20">
  <path fill="#555" d="M2.68341698,9.24974632 L19.2352491,9.36464251 C19.6608987,9.36759742 20.0035662,9.71588176 20.0006184,10.1425574 C19.9976706,10.569233 19.6502238,10.9127265 19.2245742,10.9097716 L2.57185551,10.7941751 L9.00857075,17.1788898 C9.31113654,17.4790112 9.31370312,17.968177 9.01430337,18.2714721 C8.71490363,18.5747672 8.22691414,18.57734 7.92434835,18.2772185 L0.22797687,10.643024 C-0.0742583838,10.3432305 -0.0771980732,9.85471759 0.221407225,9.55129093 L7.9177787,1.73065172 C8.21671057,1.42689322 8.70469551,1.42356459 9.00772357,1.72321702 C9.31075163,2.02286945 9.31407226,2.51203066 9.01514039,2.81578916 L2.68341698,9.24974632 Z" transform="rotate(-90 10 10)"/>
</svg>
