<svg xmlns="http://www.w3.org/2000/svg" width="20" height="20" viewBox="0 0 20 20">
  <path fill="#555" d="M2.68405425,8.74910905 L19.2358864,8.86400524 C19.661536,8.86696015 20.0042035,9.21524449 20.0012557,9.6419201 C19.9983079,10.0685957 19.650861,10.4120892 19.2252114,10.4091343 L2.57249278,10.2935378 L9.00920802,16.6782525 C9.31177381,16.9783739 9.31434039,17.4675397 9.01494064,17.7708348 C8.7155409,18.0741299 8.22755141,18.0767027 7.92498562,17.7765813 L0.228614139,10.1423868 C-0.0736211149,9.84259319 -0.0765608043,9.35408032 0.222044494,9.05065366 L7.91841597,1.23001445 C8.21734784,0.926255947 8.70533278,0.922927318 9.00836084,1.22257975 C9.3113889,1.52223218 9.31470953,2.01139339 9.01577766,2.31515189 L2.68405425,8.74910905 Z" transform="rotate(-90 10 9.5)"/>
</svg>
