<svg xmlns="http://www.w3.org/2000/svg" width="24" height="24" viewBox="0 0 24 24">
  <g fill="none" fill-rule="evenodd" transform="translate(-740 -788)">
    <path fill="#555" d="M5.59425534,10 L0.711094664,13.4192259 L0.711094664,13.4192259 C-0.0429139729,13.9471884 -0.226160547,14.9864314 0.301801984,15.7404401 L0.301801984,15.7404401 L0.301801984,15.7404401 C0.829764515,16.4944487 1.86900748,16.6776953 2.62301612,16.1497327 L6.83333333,13.2016369 L6.83333333,18.3414851 C6.83333333,19.2619597 7.57952542,20.0081518 8.5,20.0081518 C9.42047458,20.0081518 10.1666667,19.2619597 10.1666667,18.3414851 L10.1666667,18.3414851 L10.1666667,13.2016369 L14.3769839,16.1497327 C15.1309925,16.6776953 16.1702355,16.4944487 16.698198,15.7404401 C17.2261605,14.9864314 17.042914,13.9471884 16.2889053,13.4192259 L16.2889053,13.4192259 L11.4057447,10 L16.2889053,6.58077408 C17.042914,6.05281155 17.2261605,5.01356859 16.698198,4.25955995 C16.1702355,3.50555131 15.1309925,3.32230474 14.3769839,3.85026727 L14.3769839,3.85026727 L10.1666667,6.79836312 L10.1666667,1.65851485 L10.1666667,1.65851485 C10.1666667,0.738040272 9.42047458,-0.008151812 8.5,-0.008151812 C7.57952542,-0.008151812 6.83333333,0.738040272 6.83333333,1.65851485 L6.83333333,6.79836312 L2.62301612,3.85026727 C1.86900748,3.32230474 0.829764515,3.50555131 0.301801984,4.25955995 L0.301801984,4.25955995 L0.301801984,4.25955995 C-0.226160547,5.01356859 -0.0429139729,6.05281155 0.711094664,6.58077408 L5.59425534,10 Z" transform="translate(744 790)"/>
  </g>
</svg>
