<svg xmlns="http://www.w3.org/2000/svg" width="24" height="24" viewBox="0 0 24 24">
  <path fill="#555" d="M12.7459853,10.4925639 L18.8154827,5.95222445 C19.1487947,5.70288756 19.6153112,5.77896469 19.8574766,6.12214748 C20.0996419,6.46533027 20.0257529,6.94566237 19.692441,7.19499926 L13.2691459,12 L19.692441,16.8050007 C20.0257529,17.0543376 20.0996419,17.5346697 19.8574766,17.8778525 C19.6153112,18.2210353 19.1487947,18.2971124 18.8154827,18.0477756 L12.7459853,13.5074361 L12.7459853,21.2319229 C12.7459853,21.6561202 12.4119963,22 12,22 C11.5880037,22 11.2540147,21.6561202 11.2540147,21.2319229 L11.2540147,13.5074361 L5.18451733,18.0477756 C4.85120533,18.2971124 4.38468877,18.2210353 4.14252343,17.8778525 C3.90035809,17.5346697 3.97424705,17.0543376 4.30755905,16.8050007 L10.7308541,12 L4.30755905,7.19499926 C3.97424705,6.94566237 3.90035809,6.46533027 4.14252343,6.12214748 C4.38468877,5.77896469 4.85120533,5.70288756 5.18451733,5.95222445 L11.2540147,10.4925639 L11.2540147,2.76807708 C11.2540147,2.34387982 11.5880037,2 12,2 C12.4119963,2 12.7459853,2.34387982 12.7459853,2.76807708 L12.7459853,10.4925639 Z"/>
</svg>
