<svg xmlns="http://www.w3.org/2000/svg" width="24" height="24" viewBox="0 0 24 24">
  <g fill="none" fill-rule="evenodd" transform="translate(-744 -792)">
    <path fill="#555" fill-rule="nonzero" d="M13.1392022,10.7868522 L19.2413643,6.35337195 C19.5764701,6.10990333 20.0454974,6.18418994 20.288966,6.51929576 C20.5324346,6.85440157 20.458148,7.32342882 20.1230422,7.56689744 L13.6651784,12.2588101 L20.1230422,16.9507228 C20.458148,17.1941914 20.5324346,17.6632186 20.288966,17.9983244 C20.0454974,18.3334303 19.5764701,18.4077169 19.2413643,18.1642483 L13.1392022,13.730768 L13.1392022,21.2734551 C13.1392022,21.6876687 12.8034158,22.0234551 12.3892022,22.0234551 C11.9749887,22.0234551 11.6392022,21.6876687 11.6392022,21.2734551 L11.6392022,13.730768 L5.53704013,18.1642483 C5.20193432,18.4077169 4.73290707,18.3334303 4.48943844,17.9983244 C4.24596982,17.6632186 4.32025644,17.1941914 4.65536225,16.9507228 L11.113226,12.2588101 L4.65536225,7.56689744 C4.32025644,7.32342882 4.24596982,6.85440157 4.48943844,6.51929576 C4.73290707,6.18418994 5.20193432,6.10990333 5.53704013,6.35337195 L11.6392022,10.7868522 L11.6392022,3.24416507 C11.6392022,2.8299515 11.9749887,2.49416507 12.3892022,2.49416507 C12.8034158,2.49416507 13.1392022,2.8299515 13.1392022,3.24416507 L13.1392022,10.7868522 Z" transform="translate(744 792)"/>
  </g>
</svg>
