<svg xmlns="http://www.w3.org/2000/svg" width="20" height="20" viewBox="0 0 20 20">
  <path fill="#555" d="M10.7459853,8.49256386 L16.8154827,3.95222445 C17.1487947,3.70288756 17.6153112,3.77896469 17.8574766,4.12214748 C18.0996419,4.46533027 18.0257529,4.94566237 17.692441,5.19499926 L11.2691459,10 L17.692441,14.8050007 C18.0257529,15.0543376 18.0996419,15.5346697 17.8574766,15.8778525 C17.6153112,16.2210353 17.1487947,16.2971124 16.8154827,16.0477756 L10.7459853,11.5074361 L10.7459853,19.2319229 C10.7459853,19.6561202 10.4119963,20 10,20 C9.58800371,20 9.25401473,19.6561202 9.25401473,19.2319229 L9.25401473,11.5074361 L3.18451733,16.0477756 C2.85120533,16.2971124 2.38468877,16.2210353 2.14252343,15.8778525 C1.90035809,15.5346697 1.97424705,15.0543376 2.30755905,14.8050007 L8.73085405,10 L2.30755905,5.19499926 C1.97424705,4.94566237 1.90035809,4.46533027 2.14252343,4.12214748 C2.38468877,3.77896469 2.85120533,3.70288756 3.18451733,3.95222445 L9.25401473,8.49256386 L9.25401473,0.768077075 C9.25401473,0.34387982 9.58800371,0 10,0 C10.4119963,0 10.7459853,0.34387982 10.7459853,0.768077075 L10.7459853,8.49256386 Z"/>
</svg>
