<svg xmlns="http://www.w3.org/2000/svg" width="20" height="20" viewBox="0 0 20 20">
  <path fill="#555" d="M3.7233025,10.5391892 C5.85481651,10.071003 5.56081458,7.47015333 5.50038085,6.90199847 C5.39584683,6.02727326 4.38480685,4.4960876 3.01443118,4.6193822 C1.29125319,4.77433352 1.0397182,7.31853429 1.0397182,7.31853429 C0.805333325,8.49316529 1.59668853,11.0057093 3.7233025,10.5383561 M7.68007851,6.1730608 C8.85608624,6.1730608 9.80669249,4.79016189 9.80669249,3.08236504 C9.80669249,1.38289891 8.85935293,0 7.6833452,0 C6.50733747,0 5.55101452,1.37540126 5.55101452,3.08319811 C5.55101452,4.79099496 6.5065208,6.17389387 7.68252853,6.17389387 M12.7516118,6.37799642 C14.3277889,6.59459504 15.3339288,4.87846748 15.5380968,3.57887573 C15.7422648,2.2876147 14.7214248,0.779755048 13.6107508,0.521502842 C12.4919101,0.258252206 11.1117344,2.08267908 10.9729002,3.27063923 C10.8258992,4.72851458 11.1770682,6.17805922 12.7450785,6.38382792 M18.9852695,8.56814174 C18.9852695,7.9466703 18.4846495,6.07475834 16.6087539,6.07475834 C14.7344915,6.07475834 14.4772399,7.8408702 14.4772399,9.09047765 C14.4772399,10.2817701 14.5736072,11.9395826 16.9150059,11.8895983 C19.2466045,11.8312833 18.9918029,9.19044625 18.9918029,8.56564252 M16.6169206,14.0130979 C16.6169206,14.0130979 14.1791546,12.0887025 12.7573285,10.0143541 C10.8299825,6.9511497 8.09004787,8.19825793 7.17619186,9.75110346 C6.26151919,11.3197773 4.84050985,12.3019688 4.6404252,12.5643864 C4.43625719,12.8226386 1.70040587,14.3304982 2.30964321,17.0796346 C2.92214724,19.828771 5.05366125,19.7787867 5.05366125,19.7787867 C5.05366125,19.7787867 6.62167155,19.9370703 8.45101691,19.5205345 C10.2803623,19.1039987 11.8483726,19.6205031 11.8483726,19.6205031 C11.8483726,19.6205031 16.1007839,21.0783784 17.2776083,18.2792578 C18.4405492,15.4718064 16.6161039,14.0222617 16.6161039,14.0222617"/>
</svg>
