<svg xmlns="http://www.w3.org/2000/svg" width="24" height="24" viewBox="0 0 24 24">
  <g fill="none" fill-rule="evenodd" transform="translate(-312 -1152)">
    <path fill="#555" fill-rule="nonzero" d="M3.02589167,11.5931081 C5.39424057,11.0781033 5.06757176,8.21716866 5.00042317,7.59219832 C4.88427426,6.63000059 3.7608965,4.94569636 2.23825686,5.08132042 C0.323614651,5.25176688 0.0441313325,8.05038772 0.0441313325,8.05038772 C-0.216296305,9.34248182 0.662987252,12.1062803 3.02589167,11.5921918 M7.42230945,6.79036687 C8.72898471,6.79036687 9.78521387,5.26917807 9.78521387,3.39060154 C9.78521387,1.5211888 8.73261436,0 7.42593911,0 C6.11926385,0 5.0566828,1.51294139 5.0566828,3.39151792 C5.0566828,5.27009445 6.11835644,6.79128325 7.4250317,6.79128325 M13.0573465,7.01579606 C14.8086543,7.25405455 15.9265876,5.36631423 16.1534409,3.93676331 C16.3802943,2.51637617 15.2460275,0.857730553 14.0119454,0.573653126 C12.768789,0.284077427 11.2352604,2.29094699 11.0810002,3.59770315 C10.9176658,5.20136604 11.3078535,6.79586515 13.0500872,7.02221071 M19.9836328,9.42495591 C19.9836328,8.74133733 19.4273884,6.68223418 17.3430598,6.68223418 C15.2605462,6.68223418 14.9747109,8.62495722 14.9747109,9.99952542 C14.9747109,11.3099471 15.0817857,13.1335409 17.6833399,13.0785582 C20.274005,13.0144117 19.9908921,10.1094909 19.9908921,9.42220678 M17.352134,15.4144077 C17.352134,15.4144077 14.6435051,13.2975727 13.0636984,11.0157895 C10.9222028,7.64626467 7.87783097,9.01808373 6.8624354,10.7262138 C5.84613243,12.4517551 4.26723316,13.5321657 4.04491689,13.820825 C3.81806354,14.1049024 0.77822875,15.763548 1.45515912,18.7875981 C2.13571915,21.8116481 4.50406805,21.7566654 4.50406805,21.7566654 C4.50406805,21.7566654 6.24630173,21.9307773 8.27890768,21.4725879 C10.3115136,21.0143985 12.0537473,21.5825534 12.0537473,21.5825534 C12.0537473,21.5825534 16.7786487,23.1862163 18.0862314,20.1071835 C19.378388,17.018987 17.3512266,15.4244879 17.3512266,15.4244879" transform="translate(314 1153)"/>
  </g>
</svg>
