<svg xmlns="http://www.w3.org/2000/svg" width="24" height="24" viewBox="0 0 24 24">
  <g fill="none" fill-rule="evenodd" transform="translate(-312 -1152)">
    <path fill="#555" fill-rule="nonzero" d="M5.02589167,12.5931081 C7.39424057,12.0781033 7.06757176,9.21716866 7.00042317,8.59219832 C6.88427426,7.63000059 5.7608965,5.94569636 4.23825686,6.08132042 C2.32361465,6.25176688 2.04413133,9.05038772 2.04413133,9.05038772 C1.78370369,10.3424818 2.66298725,13.1062803 5.02589167,12.5921918 M9.42230945,7.79036687 C10.7289847,7.79036687 11.7852139,6.26917807 11.7852139,4.39060154 C11.7852139,2.5211888 10.7326144,1 9.42593911,1 C8.11926385,1 7.0566828,2.51294139 7.0566828,4.39151792 C7.0566828,6.27009445 8.11835644,7.79128325 9.4250317,7.79128325 M15.0573465,8.01579606 C16.8086543,8.25405455 17.9265876,6.36631423 18.1534409,4.93676331 C18.3802943,3.51637617 17.2460275,1.85773055 16.0119454,1.57365313 C14.768789,1.28407743 13.2352604,3.29094699 13.0810002,4.59770315 C12.9176658,6.20136604 13.3078535,7.79586515 15.0500872,8.02221071 M21.9836328,10.4249559 C21.9836328,9.74133733 21.4273884,7.68223418 19.3430598,7.68223418 C17.2605462,7.68223418 16.9747109,9.62495722 16.9747109,10.9995254 C16.9747109,12.3099471 17.0817857,14.1335409 19.6833399,14.0785582 C22.274005,14.0144117 21.9908921,11.1094909 21.9908921,10.4222068 M19.352134,16.4144077 C19.352134,16.4144077 16.6435051,14.2975727 15.0636984,12.0157895 C12.9222028,8.64626467 9.87783097,10.0180837 8.8624354,11.7262138 C7.84613243,13.4517551 6.26723316,14.5321657 6.04491689,14.820825 C5.81806354,15.1049024 2.77822875,16.763548 3.45515912,19.7875981 C4.13571915,22.8116481 6.50406805,22.7566654 6.50406805,22.7566654 C6.50406805,22.7566654 8.24630173,22.9307773 10.2789077,22.4725879 C12.3115136,22.0143985 14.0537473,22.5825534 14.0537473,22.5825534 C14.0537473,22.5825534 18.7786487,24.1862163 20.0862314,21.1071835 C21.378388,18.018987 19.3512266,16.4244879 19.3512266,16.4244879" transform="translate(312 1152)"/>
  </g>
</svg>
