<svg xmlns="http://www.w3.org/2000/svg" width="24" height="24" viewBox="0 0 24 24">
  <path fill="#555" d="M5.7233025,12.5391892 C7.85481651,12.071003 7.56081458,9.47015333 7.50038085,8.90199847 C7.39584683,8.02727326 6.38480685,6.4960876 5.01443118,6.6193822 C3.29125319,6.77433352 3.0397182,9.31853429 3.0397182,9.31853429 C2.80533333,10.4931653 3.59668853,13.0057093 5.7233025,12.5383561 M9.68007851,8.1730608 C10.8560862,8.1730608 11.8066925,6.79016189 11.8066925,5.08236504 C11.8066925,3.38289891 10.8593529,2 9.6833452,2 C8.50733747,2 7.55101452,3.37540126 7.55101452,5.08319811 C7.55101452,6.79099496 8.5065208,8.17389387 9.68252853,8.17389387 M14.7516118,8.37799642 C16.3277889,8.59459504 17.3339288,6.87846748 17.5380968,5.57887573 C17.7422648,4.2876147 16.7214248,2.77975505 15.6107508,2.52150284 C14.4919101,2.25825221 13.1117344,4.08267908 12.9729002,5.27063923 C12.8258992,6.72851458 13.1770682,8.17805922 14.7450785,8.38382792 M20.9852695,10.5681417 C20.9852695,9.9466703 20.4846495,8.07475834 18.6087539,8.07475834 C16.7344915,8.07475834 16.4772399,9.8408702 16.4772399,11.0904777 C16.4772399,12.2817701 16.5736072,13.9395826 18.9150059,13.8895983 C21.2466045,13.8312833 20.9918029,11.1904462 20.9918029,10.5656425 M18.6169206,16.0130979 C18.6169206,16.0130979 16.1791546,14.0887025 14.7573285,12.0143541 C12.8299825,8.9511497 10.0900479,10.1982579 9.17619186,11.7511035 C8.26151919,13.3197773 6.84050985,14.3019688 6.6404252,14.5643864 C6.43625719,14.8226386 3.70040587,16.3304982 4.30964321,19.0796346 C4.92214724,21.828771 7.05366125,21.7787867 7.05366125,21.7787867 C7.05366125,21.7787867 8.62167155,21.9370703 10.4510169,21.5205345 C12.2803623,21.1039987 13.8483726,21.6205031 13.8483726,21.6205031 C13.8483726,21.6205031 18.1007839,23.0783784 19.2776083,20.2792578 C20.4405492,17.4718064 18.6161039,16.0222617 18.6161039,16.0222617"/>
</svg>
