<svg xmlns="http://www.w3.org/2000/svg" width="24" height="24" viewBox="0 0 24 24">
  <g fill="none" fill-rule="evenodd" transform="translate(-120 -840)">
    <path fill="#555" d="M1.97320662,7.21526438 L3.8449752,7.21526438 C4.38246237,7.21526438 4.81818182,7.65098382 4.81818182,8.188471 L4.81818182,17.0601137 C4.81818182,17.5976009 4.38246237,18.0333203 3.8449752,18.0333203 L1.97320662,18.0333203 C1.43571945,18.0333203 1,17.5976009 1,17.0601137 L1,8.188471 C1,7.65098382 1.43571945,7.21526438 1.97320662,7.21526438 Z M7.70047935,12.3245991 L9.57224792,12.3245991 C10.1097351,12.3245991 10.5454545,12.7603186 10.5454545,13.2978058 L10.5454545,17.0601137 C10.5454545,17.5976009 10.1097351,18.0333203 9.57224792,18.0333203 L7.70047935,18.0333203 C7.16299217,18.0333203 6.72727273,17.5976009 6.72727273,17.0601137 L6.72727273,13.2978058 C6.72727273,12.7603186 7.16299217,12.3245991 7.70047935,12.3245991 Z M13.4277521,2.28332035 L15.2995206,2.28332035 C15.8370078,2.28332035 16.2727273,2.7190398 16.2727273,3.25652697 L16.2727273,17.0601137 C16.2727273,17.5976009 15.8370078,18.0333203 15.2995206,18.0333203 L13.4277521,18.0333203 C12.8902649,18.0333203 12.4545455,17.5976009 12.4545455,17.0601137 L12.4545455,3.25652697 C12.4545455,2.7190398 12.8902649,2.28332035 13.4277521,2.28332035 Z M19.1550248,2.28332035 L21.0267934,2.28332035 C21.5642806,2.28332035 22,2.7190398 22,3.25652697 L22,17.0601137 C22,17.5976009 21.5642806,18.0333203 21.0267934,18.0333203 L19.1550248,18.0333203 C18.6175376,18.0333203 18.1818182,17.5976009 18.1818182,17.0601137 L18.1818182,3.25652697 C18.1818182,2.7190398 18.6175376,2.28332035 19.1550248,2.28332035 Z" transform="translate(120 842)"/>
  </g>
</svg>
