<svg xmlns="http://www.w3.org/2000/svg" width="24" height="24" viewBox="0 0 24 24">
  <path fill="#555" fill-rule="evenodd" d="M3,8 L5,8 C5.55228475,8 6,8.44771525 6,9 L6,21 C6,21.5522847 5.55228475,22 5,22 L3,22 C2.44771525,22 2,21.5522847 2,21 L2,9 C2,8.44771525 2.44771525,8 3,8 Z M8.36512054,14 L10.3651205,14 C10.9174053,14 11.3651205,14.4477153 11.3651205,15 L11.3651205,21 C11.3651205,21.5522847 10.9174053,22 10.3651205,22 L8.36512054,22 C7.81283579,22 7.36512054,21.5522847 7.36512054,21 L7.36512054,15 C7.36512054,14.4477153 7.81283579,14 8.36512054,14 Z M13.69693,2 L15.69693,2 C16.2492147,2 16.69693,2.44771525 16.69693,3 L16.69693,21 C16.69693,21.5522847 16.2492147,22 15.69693,22 L13.69693,22 C13.1446452,22 12.69693,21.5522847 12.69693,21 L12.69693,3 C12.69693,2.44771525 13.1446452,2 13.69693,2 Z M19,2 L21,2 C21.5522847,2 22,2.44771525 22,3 L22,21 C22,21.5522847 21.5522847,22 21,22 L19,22 C18.4477153,22 18,21.5522847 18,21 L18,3 C18,2.44771525 18.4477153,2 19,2 Z"/>
</svg>
