<svg xmlns="http://www.w3.org/2000/svg" width="24" height="24" viewBox="0 0 24 24">
  <g fill="none" fill-rule="evenodd" transform="translate(-116 -836)">
    <path fill="#555" d="M10.7942857,13.208125 C11.0328571,13.208125 11.2262857,13.4052917 11.2262857,13.649125 L11.2262857,20.0468333 C11.2262857,20.2906667 11.0331429,20.488125 10.7942857,20.488125 L6.758,20.488125 C6.51914286,20.488125 6.32571429,20.2906667 6.32571429,20.0468333 L6.32571429,13.6494167 C6.32571429,13.4055833 6.51914286,13.208125 6.758,13.208125 L10.7942857,13.208125 Z M17.0877143,0 C17.3265714,0 17.52,0.197458333 17.52,0.441291667 L17.52,20.0465417 C17.52,20.290375 17.3265714,20.4878333 17.0877143,20.4878333 L13.0514286,20.4878333 C12.8125714,20.4878333 12.6191429,20.290375 12.6191429,20.0465417 L12.6191429,0.441291667 C12.6191429,0.197458333 12.8125714,0 13.0514286,0 L17.0877143,0 Z M23.4134286,5.956125 C23.652,5.956125 23.8454286,6.153875 23.8454286,6.39741667 L23.8454286,20.0465417 C23.8454286,20.290375 23.652,20.4878333 23.4131429,20.4878333 L19.3771429,20.4878333 C19.1382857,20.4878333 18.9448571,20.290375 18.9448571,20.0465417 L18.9448571,6.39741667 C18.9448571,6.15358333 19.1382857,5.956125 19.3771429,5.956125 L23.4134286,5.956125 Z M4.46857143,5.956125 C4.70742857,5.956125 4.90085714,6.153875 4.90085714,6.39741667 L4.90085714,20.0465417 C4.90085714,20.290375 4.70742857,20.4878333 4.46857143,20.4878333 L0.432285714,20.4878333 C0.193428571,20.4878333 0,20.290375 0,20.0465417 L0,6.39741667 C0,6.15358333 0.193428571,5.956125 0.432285714,5.956125 L4.46857143,5.956125 Z" transform="translate(116 838)"/>
  </g>
</svg>
