<svg xmlns="http://www.w3.org/2000/svg" width="24" height="24" viewBox="0 0 24 24">
  <g fill="none" fill-rule="evenodd" transform="translate(-408 -1032)">
    <path fill="#666" fill-rule="nonzero" d="M9.28546851,0.00353846809 L10.2607066,0.00353846809 L10.2607066,13.5756577 L9.28546851,13.5756577 L9.28546851,0.00353846809 Z M6.84737329,0.00353846809 L8.31023043,0.00353846809 L8.31023043,13.5756577 L6.84737329,13.5756577 L6.84737329,0.00353846809 Z M5.87213517,0.00353846809 L6.35975423,0.00353846809 L6.35975423,13.5756577 L5.87213517,13.5756577 L5.87213517,0.00353846809 Z M2.45880186,0.00353846809 L2.94642089,0.00353846809 L2.94642089,13.5756577 L2.45880186,13.5756577 L2.45880186,0.00353846809 Z M3.43403994,0.00353846809 L4.89689709,0.00353846809 L4.89689709,13.5756577 L3.43403994,13.5756577 L3.43403994,0.00353846809 Z M17.1031029,0.00353846809 L18.5659601,0.00353846809 L18.5659601,13.5756577 L17.1031029,13.5756577 L17.1031029,0.00353846809 Z M14.1773886,0.00353846809 L15.6402458,0.00353846809 L15.6402458,13.5756577 L14.1773886,13.5756577 L14.1773886,0.00353846809 Z M16.1278648,0.00353846809 L16.6154839,0.00353846809 L16.6154839,13.5756577 L16.1278648,13.5756577 L16.1278648,0.00353846809 Z M14.1773886,14.5439793 L19.5411981,14.5439793 L19.5411981,15.9964615 L14.1773886,15.9964615 L14.1773886,14.5439793 Z M0.0207066,0.00353846809 L1.48356374,0.00353846809 L1.48356374,15.9964615 L0.0207066,15.9964615 L0.0207066,0.00353846809 Z M11.7392934,14.5439793 L13.2021505,14.5439793 L13.2021505,15.9964615 L11.7392934,15.9964615 L11.7392934,14.5439793 Z M19.0535791,0.00353846809 L19.5411981,0.00353846809 L19.5411981,13.5756577 L19.0535791,13.5756577 L19.0535791,0.00353846809 Z M20.5164363,0.00353846809 L21.9792934,0.00353846809 L21.9792934,15.9964615 L20.5164363,15.9964615 L20.5164363,0.00353846809 Z M12.7145315,0.00353846809 L13.6897696,0.00353846809 L13.6897696,13.5756577 L12.7145315,13.5756577 L12.7145315,0.00353846809 Z M2.45880186,14.5439793 L3.921659,14.5439793 L3.921659,15.9964615 L2.45880186,15.9964615 L2.45880186,14.5439793 Z M4.89689709,14.5439793 L10.7483257,14.5439793 L10.7483257,15.9964615 L4.89689709,15.9964615 L4.89689709,14.5439793 Z M11.2516743,0.00353846809 L11.7392934,0.00353846809 L11.7392934,13.5756577 L11.2516743,13.5756577 L11.2516743,0.00353846809 Z" transform="translate(409 1036)"/>
  </g>
</svg>
