<svg xmlns="http://www.w3.org/2000/svg" width="24" height="24" viewBox="0 0 24 24">
  <path fill="#555" d="M20.6206897,5.44827586 L17.1724138,5.44827586 C17.1724138,3.54384569 15.6285681,2 13.7241379,2 C11.8197078,2 10.2758621,3.54384569 10.2758621,5.44827586 L6.82758621,5.44827586 C6.06581414,5.44827586 5.44827586,6.06581414 5.44827586,6.82758621 L5.44827586,10.2758621 C3.54384569,10.2758621 2,11.8197078 2,13.7241379 C2,15.6285681 3.54384569,17.1724138 5.44827586,17.1724138 L5.44827586,20.6206897 C5.44827586,21.3824617 6.06581414,22 6.82758621,22 L11.6551724,22 L11.6551724,20.6206897 C11.6551724,19.4780316 12.5814798,18.5517241 13.7241379,18.5517241 C14.866796,18.5517241 15.7931034,19.4780316 15.7931034,20.6206897 L15.7931034,22 L20.6206897,22 C21.3824617,22 22,21.3824617 22,20.6206897 L22,15.7931034 L20.6206897,15.7931034 C19.4780316,15.7931034 18.5517241,14.866796 18.5517241,13.7241379 C18.5517241,12.5814798 19.4780316,11.6551724 20.6206897,11.6551724 L22,11.6551724 L22,6.82758621 C22,6.06581414 21.3824617,5.44827586 20.6206897,5.44827586 Z M17.1724138,13.7241379 C17.1724138,15.6285681 18.7162595,17.1724138 20.6206897,17.1724138 L20.6206897,20.6206897 L17.1724138,20.6206897 C17.1724138,19.3887393 16.5151762,18.2503703 15.4482759,17.6343951 C14.3813756,17.0184199 13.0669003,17.0184199 12,17.6343951 C10.9330997,18.2503703 10.275862,19.3887393 10.2758621,20.6206897 L6.82758621,20.6206897 L6.82758621,15.7931034 L5.44827586,15.7931034 C4.30561776,15.7931034 3.37931034,14.866796 3.37931034,13.7241379 C3.37931034,12.5814798 4.30561776,11.6551724 5.44827586,11.6551724 L6.82758621,11.6551724 L6.82758621,6.82758621 L11.6551724,6.82758621 L11.6551724,5.44827586 C11.6551724,4.30561776 12.5814798,3.37931034 13.7241379,3.37931034 C14.866796,3.37931034 15.7931034,4.30561776 15.7931034,5.44827586 L15.7931034,6.82758621 L20.6206897,6.82758621 L20.6206897,10.2758621 C18.7162595,10.2758621 17.1724138,11.8197078 17.1724138,13.7241379 Z"/>
</svg>
