<svg xmlns="http://www.w3.org/2000/svg" width="24" height="24" viewBox="0 0 24 24">
  <g fill="none" fill-rule="evenodd" transform="translate(-504 -1032)">
    <path fill="#555" fill-rule="nonzero" d="M10.282235,4 L11.2593123,4 L11.2593123,17.578125 L10.282235,17.578125 L10.282235,4 Z M7.83954156,4 L9.30515761,4 L9.30515761,17.578125 L7.83954156,17.578125 L7.83954156,4 Z M6.86246418,4 L7.35100287,4 L7.35100287,17.578125 L6.86246418,17.578125 L6.86246418,4 Z M3.44269343,4 L3.93123209,4 L3.93123209,17.578125 L3.44269343,17.578125 L3.44269343,4 Z M4.41977078,4 L5.88538683,4 L5.88538683,17.578125 L4.41977078,17.578125 L4.41977078,4 Z M18.1146132,4 L19.5802292,4 L19.5802292,17.578125 L18.1146132,17.578125 L18.1146132,4 Z M15.1833811,4 L16.6489971,4 L16.6489971,17.578125 L15.1833811,17.578125 L15.1833811,4 Z M17.1375358,4 L17.6260745,4 L17.6260745,17.578125 L17.1375358,17.578125 L17.1375358,4 Z M15.1833811,18.546875 L20.5573066,18.546875 L20.5573066,20 L15.1833811,20 L15.1833811,18.546875 Z M1,4 L2.46561605,4 L2.46561605,20 L1,20 L1,4 Z M12.7406877,18.546875 L14.2063037,18.546875 L14.2063037,20 L12.7406877,20 L12.7406877,18.546875 Z M20.0687679,4 L20.5573066,4 L20.5573066,17.578125 L20.0687679,17.578125 L20.0687679,4 Z M21.534384,4 L23,4 L23,20 L21.534384,20 L21.534384,4 Z M13.717765,4 L14.6948424,4 L14.6948424,17.578125 L13.717765,17.578125 L13.717765,4 Z M3.44269343,18.546875 L4.90830947,18.546875 L4.90830947,20 L3.44269343,20 L3.44269343,18.546875 Z M5.88538683,18.546875 L11.747851,18.546875 L11.747851,20 L5.88538683,20 L5.88538683,18.546875 Z M12.252149,4 L12.7406877,4 L12.7406877,17.578125 L12.252149,17.578125 L12.252149,4 Z" transform="translate(504 1032)"/>
  </g>
</svg>
