<svg xmlns="http://www.w3.org/2000/svg" width="24" height="24" viewBox="0 0 24 24">
  <path fill="#555" d="M9.23421981,19.3412244 L6.27764595,19.3412244 L6.22235669,19.3388521 C5.59539086,19.2849519 5.1282251,18.9815541 5.02321251,18.3980734 C4.95200959,18.0024491 5.04550135,17.5756677 5.29146293,17.0675726 L6.51624036,14.8871114 L6.51880221,9.41484929 C6.62578521,8.20521083 7.07841144,7.07753145 7.86675672,6.0436623 C8.53374467,5.16894625 9.4864067,4.52542426 10.5201803,4.15423081 C10.5166172,4.10494522 10.5148248,4.05538914 10.5148248,4.00564169 C10.5148248,2.89795637 11.3971092,2 12.4854621,2 C13.5738151,2 14.4560995,2.89795637 14.4560995,4.00564169 C14.4560995,4.06052259 14.453918,4.11516114 14.4495867,4.16945053 C15.3168267,4.52149116 16.1542683,5.10586031 16.8982383,5.87807132 C17.7598324,6.77237143 18.2643314,7.95615219 18.4194472,9.47478499 L18.4194472,14.9530263 L19.610036,17.0509445 C20.0095265,17.7167459 20.1377183,18.2749986 19.8257968,18.7576931 C19.5403571,19.1994072 19.0294845,19.3525518 18.3350964,19.3412244 L15.6653885,19.3412244 C15.3552507,20.859324 14.0334121,22 12.4498041,22 C10.8661962,22 9.54435759,20.859324 9.23421981,19.3412244 Z M10.5967227,19.3412244 C10.871479,20.1121487 11.597446,20.6629055 12.4498041,20.6629055 C13.3021623,20.6629055 14.0281293,20.1121487 14.3028856,19.3412244 L10.5967227,19.3412244 Z M11.8505143,3.83368955 C12.0952704,3.80264685 12.3397731,3.78687644 12.5815452,3.78687644 C12.7593779,3.78687644 12.9378421,3.79771515 13.1164078,3.81902228 C13.0370464,3.54061024 12.7846063,3.33709446 12.4854621,3.33709446 C12.1810891,3.33709446 11.9250672,3.54778703 11.8505143,3.83368955 Z M18.3455449,18.0042146 C18.4671736,18.0061838 18.5586311,18.0014725 18.6220735,17.9985769 C18.5894627,17.9259816 18.5429416,17.8378504 18.4806338,17.7337983 L17.1937782,15.4666494 C17.1360709,15.3649821 17.1056889,15.2496401 17.1056889,15.1322274 L17.1093789,9.54554741 C16.9878881,8.38390365 16.6034843,7.48192009 15.9601893,6.81420571 C14.9192675,5.73377068 13.6975803,5.12397089 12.5815452,5.12397089 C11.2281525,5.12397089 9.73880206,5.76947015 8.90463611,6.86343046 C8.26697658,7.69968397 7.91116271,8.58616367 7.82991538,9.47478499 L7.82991538,15.0648706 C7.82991538,15.1812593 7.80006071,15.2956317 7.74330449,15.3966743 L6.45167509,17.693396 C6.39083954,17.8198362 6.35259204,17.9240447 6.33205632,18.0041304 L18.3455449,18.0042146 Z"/>
</svg>
