<svg xmlns="http://www.w3.org/2000/svg" width="20" height="20" viewBox="0 0 20 20">
  <path fill="#555" d="M6.73421981,17.3412244 L3.77764595,17.3412244 L3.72235669,17.3388521 C3.09539086,17.2849519 2.6282251,16.9815541 2.52321251,16.3980734 C2.45200959,16.0024491 2.54550135,15.5756677 2.79146293,15.0675726 L4.01624036,12.8871114 L4.01880221,7.41484929 C4.12578521,6.20521083 4.57841144,5.07753145 5.36675672,4.0436623 C6.03374467,3.16894625 6.9864067,2.52542426 8.0201803,2.15423081 C8.01661719,2.10494522 8.01482476,2.05538914 8.01482476,2.00564169 C8.01482476,0.897956369 8.89710916,0 9.98546213,0 C11.0738151,0 11.9560995,0.897956369 11.9560995,2.00564169 C11.9560995,2.06052259 11.953918,2.11516114 11.9495867,2.16945053 C12.8168267,2.52149116 13.6542683,3.10586031 14.3982383,3.87807132 C15.2598324,4.77237143 15.7643314,5.95615219 15.9194472,7.47478499 L15.9194472,12.9530263 L17.110036,15.0509445 C17.5095265,15.7167459 17.6377183,16.2749986 17.3257968,16.7576931 C17.0403571,17.1994072 16.5294845,17.3525518 15.8350964,17.3412244 L13.1653885,17.3412244 C12.8552507,18.859324 11.5334121,20 9.94980414,20 C8.36619618,20 7.04435759,18.859324 6.73421981,17.3412244 Z M8.09672271,17.3412244 C8.37147898,18.1121487 9.09744602,18.6629055 9.94980414,18.6629055 C10.8021623,18.6629055 11.5281293,18.1121487 11.8028856,17.3412244 L8.09672271,17.3412244 Z M9.35051425,1.83368955 C9.59527041,1.80264685 9.83977315,1.78687644 10.0815452,1.78687644 C10.2593779,1.78687644 10.4378421,1.79771515 10.6164078,1.81902228 C10.5370464,1.54061024 10.2846063,1.33709446 9.98546213,1.33709446 C9.68108912,1.33709446 9.42506715,1.54778703 9.35051425,1.83368955 Z M15.8455449,16.0042146 C15.9671736,16.0061838 16.0586311,16.0014725 16.1220735,15.9985769 C16.0894627,15.9259816 16.0429416,15.8378504 15.9806338,15.7337983 L14.6937782,13.4666494 C14.6360709,13.3649821 14.6056889,13.2496401 14.6056889,13.1322274 L14.6093789,7.54554741 C14.4878881,6.38390365 14.1034843,5.48192009 13.4601893,4.81420571 C12.4192675,3.73377068 11.1975803,3.12397089 10.0815452,3.12397089 C8.72815253,3.12397089 7.23880206,3.76947015 6.40463611,4.86343046 C5.76697658,5.69968397 5.41116271,6.58616367 5.32991538,7.47478499 L5.32991538,13.0648706 C5.32991538,13.1812593 5.30006071,13.2956317 5.24330449,13.3966743 L3.95167509,15.693396 C3.89083954,15.8198362 3.85259204,15.9240447 3.83205632,16.0041304 L15.8455449,16.0042146 Z"/>
</svg>
