<svg xmlns="http://www.w3.org/2000/svg" width="24" height="24" viewBox="0 0 24 24">
  <g fill="none" fill-rule="evenodd" transform="translate(-216 -984)">
    <path fill="#555" fill-rule="nonzero" d="M8.79878245,20.0753469 L5.44799874,20.0753469 L5.38533758,20.0727373 C4.67477631,20.0134471 4.14532177,19.6797095 4.02630752,19.0378807 C3.94561087,18.602694 4.0515682,18.1332345 4.33032466,17.5743299 L5.71840574,15.1758225 L5.72130917,9.15633422 C5.84255657,7.82573191 6.35553296,6.5852846 7.24899095,5.44802853 C8.00491063,4.48584087 9.08459426,3.77796668 10.2562043,3.36965389 C10.2521662,3.31543975 10.2501347,3.26092805 10.2501347,3.20620585 C10.2501347,1.98775201 11.250057,1 12.4835237,1 C13.7169904,1 14.7169128,1.98775201 14.7169128,3.20620585 C14.7169128,3.26657485 14.7144404,3.32667725 14.7095316,3.38639558 C15.6924035,3.77364027 16.641504,4.41644635 17.48467,5.26587845 C18.4611433,6.24960858 19.0329089,7.55176741 19.2087068,9.22226349 L19.2087068,15.2483289 L20.5580408,17.556039 C21.0107967,18.2884205 21.1560808,18.9024984 20.8025697,19.4334624 C20.4790714,19.9193479 19.9000824,20.0878069 19.1131092,20.0753469 L16.0874403,20.0753469 C15.7359508,21.7452564 14.237867,23 12.4431114,23 C10.6483557,23 9.15027193,21.7452564 8.79878245,20.0753469 Z M10.3429524,20.0753469 C10.6543428,20.9233636 11.4771055,21.5291961 12.4431114,21.5291961 C13.4091172,21.5291961 14.2318799,20.9233636 14.5432703,20.0753469 L10.3429524,20.0753469 Z M11.7639162,3.0170585 C12.0413065,2.98291154 12.3184096,2.96556408 12.5924179,2.96556408 C12.7939617,2.96556408 12.9962211,2.97748667 13.1985955,3.00092451 C13.1086526,2.69467126 12.8225538,2.4708039 12.4835237,2.4708039 C12.1385677,2.4708039 11.8484094,2.70256573 11.7639162,3.0170585 Z M19.1249509,18.604636 C19.2627967,18.6068022 19.3664486,18.6016197 19.43835,18.5984345 C19.4013911,18.5185797 19.3486672,18.4216354 19.2780516,18.3071782 L17.8196153,15.8133144 C17.7542137,15.7014803 17.7197808,15.5746041 17.7197808,15.4454502 L17.7239627,9.30010215 C17.5862732,8.02229401 17.1506155,7.03011209 16.4215479,6.29562628 C15.2418365,5.10714774 13.8572577,4.43636798 12.5924179,4.43636798 C11.0585729,4.43636798 9.37064234,5.14641716 8.42525425,6.3497735 C7.70257346,7.26965237 7.29931774,8.24478004 7.20723744,9.22226349 L7.20723744,15.3713577 C7.20723744,15.4993853 7.17340214,15.6251949 7.10907842,15.7363418 L5.64523177,18.2627356 C5.57628481,18.4018198 5.53293764,18.5164492 5.50966383,18.6045434 L19.1249509,18.604636 Z" transform="translate(216 984)"/>
  </g>
</svg>
