<svg xmlns="http://www.w3.org/2000/svg" width="24" height="24" viewBox="0 0 24 24">
  <g fill="none" fill-rule="evenodd" transform="translate(-216 -984)">
    <path fill="#555" fill-rule="nonzero" d="M16.7681961,17.054673 L15.1842793,14.2740198 L15.1842793,8.40375192 C15.1842793,7.16790605 14.7578402,5.87026789 13.9658818,4.7580066 C13.1739234,3.64574532 12.0164457,2.71886091 10.7371283,2.22452257 C10.6762084,2.22452257 10.5543687,2.16273029 10.4325289,2.10093798 L10.4325289,1.91556111 C10.4325289,0.865092106 9.57965065,0 8.54401274,0 C7.50837482,0 6.65549654,0.865092106 6.65549654,1.91556111 L6.65549654,2.10093798 C6.53365679,2.16273026 6.41181703,2.16273026 6.41181703,2.16273029 C5.13249962,2.65706864 3.97502195,3.52216075 3.12214367,4.69621432 C2.33018529,5.8084756 1.84282626,7.10611376 1.84282626,8.34195964 L1.84282626,14.2122275 L0.137069718,17.2400499 C-0.045689906,17.6108037 -0.045689906,18.0433497 0.137069718,18.4141035 C0.319829342,18.7848573 0.746268478,18.9702341 1.11178775,18.9702341 L5.01065987,19.0320264 C5.25433938,20.5768338 6.53365679,21.9362642 8.42217298,21.9980565 C10.3106892,22.0598488 11.6509265,20.6386261 11.894606,19.0938187 L15.7934781,19.0320264 C16.4026769,19.0320264 16.9509558,18.5376881 16.9509558,17.8579728 C17.0727955,17.5490114 16.9509558,17.2400499 16.7681961,17.054673 Z M8.54401274,0.988676695 C9.03137176,0.988676695 9.39689101,1.35943046 9.4578109,1.8537688 C9.33597114,1.8537688 9.27505127,1.79197652 9.1532115,1.79197652 L9.03137176,1.79197652 L8.97045187,1.79197652 C8.84861212,1.79197652 8.72677236,1.73018423 8.54401274,1.73018421 C8.36125311,1.73018421 8.23941336,1.73018421 8.1175736,1.79197652 L7.93481398,1.79197652 C7.81297422,1.79197652 7.75205435,1.79197652 7.63021457,1.8537688 C7.69113444,1.35943044 8.05665371,0.988676695 8.54401274,0.988676695 Z M8.54401274,20.7622106 C7.44745495,20.7622106 6.59457668,20.0207031 6.35089716,18.9702341 L10.7371283,18.9702341 C10.4934488,20.0207031 9.64057052,20.7622106 8.54401274,20.7622106 L8.54401274,20.7622106 Z M15.6716383,17.7343883 L1.41638713,17.7343883 C1.35546726,17.7343883 1.29454737,17.7343883 1.29454737,17.672596 L1.29454737,17.4872191 L3.00030394,14.4593967 C3.06122381,14.3976044 3.06122381,14.2740198 3.06122381,14.2122275 L3.06122381,8.40375192 C3.06122381,6.30281394 4.64514062,4.14008365 6.7773363,3.33678385 C6.83825617,3.33678385 7.38653506,3.15140698 7.93481398,3.02782239 L8.97045187,3.02782239 C9.51873077,3.15140698 10.1279295,3.33678385 10.2497693,3.33678385 C12.3210451,4.14008368 13.9049619,6.30281394 13.9049619,8.40375192 L13.9049619,14.2122275 C13.9049619,14.2740198 13.9049619,14.3976044 13.9658818,14.4593967 L15.6107185,17.3636345 C15.6107185,17.4254268 15.6716383,17.4254268 15.6716383,17.4872191 C15.6716383,17.4872191 15.7325582,17.5490114 15.7325582,17.6108037 C15.854398,17.672596 15.7934781,17.7343883 15.6716383,17.7343883 L15.6716383,17.7343883 Z" transform="translate(220 985)"/>
  </g>
</svg>
