<svg xmlns="http://www.w3.org/2000/svg" width="24" height="24" viewBox="0 0 24 24">
  <path fill="#555" d="M6.32603365,4.88906938 L17.5735294,4.88906938 L17.5735294,3.35086294 L7.46023891,3.35086294 C6.926669,3.35086294 6.54524934,3.43451846 6.40698079,3.93723637 C6.36537428,4.08850965 6.3383919,4.24239688 6.32603365,4.39889809 L6.32603365,4.88906938 Z M18.8970588,4.88906938 L19.1176471,4.88906938 C19.6049571,4.88906938 20,5.29227068 20,5.78964468 L20,21.0994247 C20,21.5967987 19.6049571,22 19.1176471,22 L6.76470588,22 C5.79008574,22 5,21.1935974 5,20.1988494 L5,5.78964468 C5,5.74532712 5.00313639,5.70175724 5.00919497,5.65915364 L5.00919497,4.03696529 C5.01082855,3.94890438 5.01324967,3.88368164 5.01645832,3.84129707 C5.10937244,2.61394993 6.2378385,2 7.46023891,2 L18.2352941,2 C18.6007767,2 18.8970588,2.30240097 18.8970588,2.67543147 L18.8970588,4.88906938 Z M6.32603365,6.23993233 L6.32603365,7.08744454 L6.32352941,7.08750729 L6.32352941,20.1988494 C6.32352941,20.4475364 6.52105085,20.6491371 6.76470588,20.6491371 L18.6764706,20.6491371 L18.6764706,6.23993233 L6.32603365,6.23993233 Z M8.98401565,10.0570418 C8.61853309,10.0570418 8.32225094,9.75464085 8.32225094,9.38161034 C8.32225094,9.00857984 8.61853309,8.70617887 8.98401565,8.70617887 L16.0428392,8.70617887 C16.4083217,8.70617887 16.7046039,9.00857984 16.7046039,9.38161034 C16.7046039,9.75464085 16.4083217,10.0570418 16.0428392,10.0570418 L8.98401565,10.0570418 Z M8.98401565,12.7587677 C8.61853309,12.7587677 8.32225094,12.4563667 8.32225094,12.0833362 C8.32225094,11.7103057 8.61853309,11.4079048 8.98401565,11.4079048 L12.3699306,11.4079048 C12.7354132,11.4079048 13.0316953,11.7103057 13.0316953,12.0833362 C13.0316953,12.4563667 12.7354132,12.7587677 12.3699306,12.7587677 L8.98401565,12.7587677 Z"/>
</svg>
