<svg xmlns="http://www.w3.org/2000/svg" width="24" height="24" viewBox="0 0 24 24">
  <g fill="none" fill-rule="evenodd" transform="translate(-260 -932)">
    <path fill="#555" fill-rule="nonzero" d="M20.9996222,2.22228554 L20.4628435,2.22228554 C19.8142966,1.05567654 18.8370116,0 17.8149148,0 L9.66476403,0 C8.64266727,0 7.66538222,1.05567654 7.01686277,2.22228554 L4.5000996,2.22228554 L4.5000996,1.48141515 C4.5000996,1.07260947 4.16421797,0.740843268 3.75025243,0.740843268 C3.33579234,0.740843268 2.99985575,1.0726095 2.99985575,1.48141515 L2.99985575,2.22228554 C1.34580696,2.22228554 0,3.5514942 0,5.18514297 L0,17.0371426 C0,18.6710627 1.34580699,20 2.99985575,20 L20.9995948,20 C22.654193,20 24,18.6710627 24,17.0371426 L24,5.18514297 C24.0000275,3.55152133 22.6542205,2.22228554 20.9996222,2.22228554 Z M9.66476403,1.48141515 L17.8149148,1.48141515 C18.0307033,1.48141515 18.3655134,1.78802619 18.6959,2.22228554 L8.78377876,2.22228554 C9.1141654,1.78805332 9.44897553,1.48141515 9.66476403,1.48141515 Z M22.4998111,17.0371697 C22.4998111,17.8537227 21.8269488,18.5186391 20.9996222,18.5186391 L2.99988322,18.5186391 C2.17313357,18.5186391 1.50021636,17.8537227 1.50021636,17.0371697 L1.50021636,8.88889795 L5.81714028,8.88889795 C5.58967491,9.53549745 5.46018533,10.2265731 5.46018533,10.9482854 C5.46018533,14.4200265 8.32002859,17.2440555 11.8351227,17.2440555 C15.3501892,17.2440555 18.210005,14.4200265 18.210005,10.9482854 C18.210005,10.2265731 18.079966,9.53549745 17.8525281,8.88889795 L22.4997837,8.88889795 L22.4997836,17.0371697 L22.4998111,17.0371697 Z M6.95987966,10.9482853 C6.95987966,8.29312439 9.14677821,6.13314338 11.8351227,6.13314338 C14.5234121,6.13314338 16.7098436,8.29312439 16.7098436,10.9482853 C16.7098436,13.6032021 14.5234121,15.7623147 11.8351227,15.7623147 C9.14680568,15.7623147 6.95987966,13.6032021 6.95987966,10.9482853 Z M22.4998111,7.40742851 L17.1021589,7.40742851 C15.953375,5.74536821 14.0214992,4.65172823 11.8351501,4.65172823 C9.64871864,4.65172823 7.71634829,5.74536819 6.56750946,7.40745564 L1.50021636,7.40745564 L1.50021636,5.1851701 C1.50021636,4.3683457 2.17310611,3.70375495 2.99988322,3.70375495 L20.9996222,3.70375495 C21.8269214,3.70375495 22.4998111,4.3683457 22.4998111,5.1851701 L22.4998111,7.40742851 Z" transform="translate(260 934)"/>
  </g>
</svg>
