<svg xmlns="http://www.w3.org/2000/svg" width="20" height="20" viewBox="0 0 20 20">
  <path fill="#555" d="M1.81818182,5.17440428 C1.5671433,5.17440428 1.36363636,5.37241169 1.36363636,5.6166662 L1.36363636,16.2309523 C1.36363636,16.4752068 1.5671433,16.6732142 1.81818182,16.6732142 L18.1818182,16.6732142 C18.4328567,16.6732142 18.6363636,16.4752068 18.6363636,16.2309523 L18.6363636,5.6166662 C18.6363636,5.37241169 18.4328567,5.17440428 18.1818182,5.17440428 L1.81818182,5.17440428 Z M1.81818182,3.84761852 L18.1818182,3.84761852 C19.1859723,3.84761852 20,4.63964815 20,5.6166662 L20,16.2309523 C20,17.2079704 19.1859723,18 18.1818182,18 L1.81818182,18 C0.814027728,18 2.01858732e-16,17.2079704 0,16.2309523 L0,5.6166662 C-1.00929366e-16,4.63964815 0.814027728,3.84761852 1.81818182,3.84761852 Z M1.02868956,9.37589253 C0.652131776,9.37589253 0.346871378,9.07888142 0.346871378,8.71249965 C0.346871378,8.34611788 0.652131776,8.04910677 1.02868956,8.04910677 L5.52835111,8.04910677 C5.90490889,8.04910677 6.21016929,8.34611788 6.21016929,8.71249965 C6.21016929,9.07888142 5.90490889,9.37589253 5.52835111,9.37589253 L1.02868956,9.37589253 Z M14.1365577,9.37589253 C13.7599999,9.37589253 13.4547395,9.07888142 13.4547395,8.71249965 C13.4547395,8.34611788 13.7599999,8.04910677 14.1365577,8.04910677 L19.1118185,8.04910677 C19.4883763,8.04910677 19.7936367,8.34611788 19.7936367,8.71249965 C19.7936367,9.07888142 19.4883763,9.37589253 19.1118185,9.37589253 L14.1365577,9.37589253 Z M9.83742652,15.8956903 C6.95048351,15.8956903 4.61015379,13.6186052 4.61015379,10.8096782 C4.61015379,8.00075132 6.95048351,5.72366615 9.83742652,5.72366615 C12.7243695,5.72366615 15.0646992,8.00075132 15.0646992,10.8096782 C15.0646992,13.6186052 12.7243695,15.8956903 9.83742652,15.8956903 Z M9.83742652,14.5689046 C11.971254,14.5689046 13.7010629,12.8858416 13.7010629,10.8096782 C13.7010629,8.73351487 11.971254,7.05045191 9.83742652,7.05045191 C7.70359908,7.05045191 5.97379016,8.73351487 5.97379016,10.8096782 C5.97379016,12.8858416 7.70359908,14.5689046 9.83742652,14.5689046 Z M6.85230618,4.67301892 L5.65217888,4.04306013 C5.94370442,3.51728961 6.27463603,3.0668862 6.64643356,2.69344646 C7.09908972,2.23879093 7.65882225,2 8.28854118,2 L14.660321,2.00215153 C15.3166233,2.05370623 15.8800646,2.31649088 16.3174665,2.77852222 C16.6715602,3.15255432 16.9850082,3.56825172 17.2576153,4.02477269 L16.0785412,4.69130637 C15.8552319,4.31734198 15.6006096,3.97965967 15.3144792,3.67741771 C15.111657,3.46317499 14.8680851,3.34957491 14.6054529,3.32678576 L8.28854118,3.32678576 C8.03436516,3.32678576 7.82584067,3.41574568 7.62587773,3.61659185 C7.34505615,3.8986538 7.08671236,4.25026398 6.85230618,4.67301892 Z M2.5,3.18059333 C2.5,2.81421155 2.8052604,2.51720044 3.18181818,2.51720044 C3.55837597,2.51720044 3.86363636,2.81421155 3.86363636,3.18059333 L3.86363636,4.28988044 C3.86363636,4.65626221 3.55837597,4.95327332 3.18181818,4.95327332 C2.8052604,4.95327332 2.5,4.65626221 2.5,4.28988044 L2.5,3.18059333 Z"/>
</svg>
