<svg xmlns="http://www.w3.org/2000/svg" width="24" height="24" viewBox="0 0 24 24">
  <path fill="#555" d="M3.81818182,7.17440428 C3.5671433,7.17440428 3.36363636,7.37241169 3.36363636,7.6166662 L3.36363636,18.2309523 C3.36363636,18.4752068 3.5671433,18.6732142 3.81818182,18.6732142 L20.1818182,18.6732142 C20.4328567,18.6732142 20.6363636,18.4752068 20.6363636,18.2309523 L20.6363636,7.6166662 C20.6363636,7.37241169 20.4328567,7.17440428 20.1818182,7.17440428 L3.81818182,7.17440428 Z M3.81818182,5.84761852 L20.1818182,5.84761852 C21.1859723,5.84761852 22,6.63964815 22,7.6166662 L22,18.2309523 C22,19.2079704 21.1859723,20 20.1818182,20 L3.81818182,20 C2.81402773,20 2,19.2079704 2,18.2309523 L2,7.6166662 C2,6.63964815 2.81402773,5.84761852 3.81818182,5.84761852 Z M3.02868956,11.3758925 C2.65213178,11.3758925 2.34687138,11.0788814 2.34687138,10.7124997 C2.34687138,10.3461179 2.65213178,10.0491068 3.02868956,10.0491068 L7.52835111,10.0491068 C7.90490889,10.0491068 8.21016929,10.3461179 8.21016929,10.7124997 C8.21016929,11.0788814 7.90490889,11.3758925 7.52835111,11.3758925 L3.02868956,11.3758925 Z M16.1365577,11.3758925 C15.7599999,11.3758925 15.4547395,11.0788814 15.4547395,10.7124997 C15.4547395,10.3461179 15.7599999,10.0491068 16.1365577,10.0491068 L21.1118185,10.0491068 C21.4883763,10.0491068 21.7936367,10.3461179 21.7936367,10.7124997 C21.7936367,11.0788814 21.4883763,11.3758925 21.1118185,11.3758925 L16.1365577,11.3758925 Z M11.8374265,17.8956903 C8.95048351,17.8956903 6.61015379,15.6186052 6.61015379,12.8096782 C6.61015379,10.0007513 8.95048351,7.72366615 11.8374265,7.72366615 C14.7243695,7.72366615 17.0646992,10.0007513 17.0646992,12.8096782 C17.0646992,15.6186052 14.7243695,17.8956903 11.8374265,17.8956903 Z M11.8374265,16.5689046 C13.971254,16.5689046 15.7010629,14.8858416 15.7010629,12.8096782 C15.7010629,10.7335149 13.971254,9.05045191 11.8374265,9.05045191 C9.70359908,9.05045191 7.97379016,10.7335149 7.97379016,12.8096782 C7.97379016,14.8858416 9.70359908,16.5689046 11.8374265,16.5689046 Z M8.85230618,6.67301892 L7.65217888,6.04306013 C7.94370442,5.51728961 8.27463603,5.0668862 8.64643356,4.69344646 C9.09908972,4.23879093 9.65882225,4 10.2885412,4 L16.660321,4.00215153 C17.3166233,4.05370623 17.8800646,4.31649088 18.3174665,4.77852222 C18.6715602,5.15255432 18.9850082,5.56825172 19.2576153,6.02477269 L18.0785412,6.69130637 C17.8552319,6.31734198 17.6006096,5.97965967 17.3144792,5.67741771 C17.111657,5.46317499 16.8680851,5.34957491 16.6054529,5.32678576 L10.2885412,5.32678576 C10.0343652,5.32678576 9.82584067,5.41574568 9.62587773,5.61659185 C9.34505615,5.8986538 9.08671236,6.25026398 8.85230618,6.67301892 Z M4.5,5.18059333 C4.5,4.81421155 4.8052604,4.51720044 5.18181818,4.51720044 C5.55837597,4.51720044 5.86363636,4.81421155 5.86363636,5.18059333 L5.86363636,6.28988044 C5.86363636,6.65626221 5.55837597,6.95327332 5.18181818,6.95327332 C4.8052604,6.95327332 4.5,6.65626221 4.5,6.28988044 L4.5,5.18059333 Z"/>
</svg>
