<svg xmlns="http://www.w3.org/2000/svg" width="24" height="24" viewBox="0 0 24 24">
  <g fill="none" fill-rule="evenodd" transform="translate(-264 -936)">
    <path fill="#555" fill-rule="nonzero" d="M3,6.57120482 C2.72385763,6.57120482 2.5,6.79396315 2.5,7.06874948 L2.5,19.0098214 C2.5,19.2846077 2.72385763,19.507366 3,19.507366 L21,19.507366 C21.2761424,19.507366 21.5,19.2846077 21.5,19.0098214 L21.5,7.06874948 C21.5,6.79396315 21.2761424,6.57120482 21,6.57120482 L3,6.57120482 Z M3,5.07857083 L21,5.07857083 C22.1045695,5.07857083 23,5.96960416 23,7.06874948 L23,19.0098214 C23,20.1089667 22.1045695,21 21,21 L3,21 C1.8954305,21 1,20.1089667 1,19.0098214 L1,7.06874948 C1,5.96960416 1.8954305,5.07857083 3,5.07857083 Z M2.13155852,11.2978791 C1.71734495,11.2978791 1.38155852,10.9637416 1.38155852,10.5515621 C1.38155852,10.1393826 1.71734495,9.80524512 2.13155852,9.80524512 L7.08118622,9.80524512 C7.49539978,9.80524512 7.83118622,10.1393826 7.83118622,10.5515621 C7.83118622,10.9637416 7.49539978,11.2978791 7.08118622,11.2978791 L2.13155852,11.2978791 Z M16.5502135,11.2978791 C16.1359999,11.2978791 15.8002135,10.9637416 15.8002135,10.5515621 C15.8002135,10.1393826 16.1359999,9.80524512 16.5502135,9.80524512 L22.0230004,9.80524512 C22.4372139,9.80524512 22.7730004,10.1393826 22.7730004,10.5515621 C22.7730004,10.9637416 22.4372139,11.2978791 22.0230004,11.2978791 L16.5502135,11.2978791 Z M11.8211692,18.6326516 C8.64553186,18.6326516 6.07116917,16.0709308 6.07116917,12.910888 C6.07116917,9.75084524 8.64553186,7.18912441 11.8211692,7.18912441 C14.9968065,7.18912441 17.5711692,9.75084524 17.5711692,12.910888 C17.5711692,16.0709308 14.9968065,18.6326516 11.8211692,18.6326516 Z M11.8211692,17.1400176 C14.1683794,17.1400176 16.0711692,15.2465718 16.0711692,12.910888 C16.0711692,10.5752042 14.1683794,8.6817584 11.8211692,8.6817584 C9.47395899,8.6817584 7.57116917,10.5752042 7.57116917,12.910888 C7.57116917,15.2465718 9.47395899,17.1400176 11.8211692,17.1400176 Z M8.5375368,6.00714629 L7.21739677,5.29844265 C7.53807486,4.70695081 7.90209963,4.20024698 8.31107692,3.78012727 C8.80899869,3.2686398 9.42470448,3 10.1173953,3 L17.1263531,3.00242048 C17.8482856,3.06041951 18.468071,3.35605224 18.9492132,3.8758375 C19.3387162,4.29662361 19.683509,4.76428319 19.9833768,5.27786928 L18.6863953,6.02771966 C18.4407551,5.60700973 18.1606705,5.22711713 17.8459271,4.88709492 C17.6228227,4.64607186 17.3548936,4.51827178 17.0659982,4.49263398 L10.1173953,4.49263398 C9.83780168,4.49263398 9.60842474,4.59271389 9.3884655,4.81866583 C9.07956177,5.13598553 8.7953836,5.53154698 8.5375368,6.00714629 Z M3.75,4.32816749 C3.75,3.915988 4.08578644,3.5818505 4.5,3.5818505 C4.91421356,3.5818505 5.25,3.915988 5.25,4.32816749 L5.25,5.57611549 C5.25,5.98829499 4.91421356,6.32243249 4.5,6.32243249 C4.08578644,6.32243249 3.75,5.98829499 3.75,5.57611549 L3.75,4.32816749 Z" transform="translate(264 936)"/>
  </g>
</svg>
