<svg xmlns="http://www.w3.org/2000/svg" width="24" height="24" viewBox="0 0 24 24">
  <g fill="none" fill-rule="evenodd" transform="translate(-648 -648)">
    <path fill="#555" fill-rule="nonzero" d="M3,2.5209559 C2.72385763,2.5209559 2.5,2.74481353 2.5,3.0209559 L2.5,21.0209559 C2.5,21.2970983 2.72385763,21.5209559 3,21.5209559 L21,21.5209559 C21.2761424,21.5209559 21.5,21.2970983 21.5,21.0209559 L21.5,3.0209559 C21.5,2.74481353 21.2761424,2.5209559 21,2.5209559 L3,2.5209559 Z M3,1.0209559 L21,1.0209559 C22.1045695,1.0209559 23,1.9163864 23,3.0209559 L23,21.0209559 C23,22.1255254 22.1045695,23.0209559 21,23.0209559 L3,23.0209559 C1.8954305,23.0209559 1,22.1255254 1,21.0209559 L1,3.0209559 C1,1.9163864 1.8954305,1.0209559 3,1.0209559 Z M16.3548558,8.29980067 L11.5017224,13.72508 L8.38696468,10.3917883 C8.10416042,10.0891423 7.62955918,10.0730573 7.32691313,10.3558616 C7.02426709,10.6386658 7.00818215,11.1132671 7.29098641,11.4159131 L10.9658087,15.348564 C11.2666781,15.6705427 11.7789806,15.6649765 12.0727833,15.3365368 L17.4728267,9.2998712 C17.7489885,8.99115206 17.7225956,8.51701234 17.4138765,8.24085048 C17.1051574,7.96468863 16.6310176,7.99108153 16.3548558,8.29980067 Z" transform="translate(648 648)"/>
  </g>
</svg>
