<svg xmlns="http://www.w3.org/2000/svg" width="24" height="24" viewBox="0 0 24 24">
  <g fill="none" fill-rule="evenodd" transform="translate(-644 -644)">
    <path fill="#555" fill-rule="nonzero" d="M2,1.5 C1.72385763,1.5 1.5,1.72385763 1.5,2 L1.5,22 C1.5,22.2761424 1.72385763,22.5 2,22.5 L22,22.5 C22.2761424,22.5 22.5,22.2761424 22.5,22 L22.5,2 C22.5,1.72385763 22.2761424,1.5 22,1.5 L2,1.5 Z M2,0 L22,0 C23.1045695,0 24,0.8954305 24,2 L24,22 C24,23.1045695 23.1045695,24 22,24 L2,24 C0.8954305,24 0,23.1045695 0,22 L0,2 C0,0.8954305 0.8954305,0 2,0 Z M6.59504064,10.780382 C6.31216656,10.4952248 5.82874628,10.5164821 5.51529123,10.8278615 C5.20183617,11.139241 5.17704539,11.6228295 5.45991947,11.9079868 L10.0696497,16.5549233 C10.3572943,16.8448896 10.8509474,16.8173246 11.1627558,16.4938854 L18.3820217,9.00533454 C18.6886588,8.68725962 18.7019426,8.20431362 18.4116918,7.92664447 C18.121441,7.64897531 17.6375678,7.68173065 17.3309307,7.99980557 L10.6802492,14.8985633 L6.59504064,10.780382 Z" transform="translate(644 644)"/>
  </g>
</svg>
