<svg xmlns="http://www.w3.org/2000/svg" width="24" height="24" viewBox="0 0 24 24">
  <path fill="#555" d="M3.81818182,3.36363636 C3.5671433,3.36363636 3.36363636,3.5671433 3.36363636,3.81818182 L3.36363636,20.1818182 C3.36363636,20.4328567 3.5671433,20.6363636 3.81818182,20.6363636 L20.1818182,20.6363636 C20.4328567,20.6363636 20.6363636,20.4328567 20.6363636,20.1818182 L20.6363636,3.81818182 C20.6363636,3.5671433 20.4328567,3.36363636 20.1818182,3.36363636 L3.81818182,3.36363636 Z M3.81818182,2 L20.1818182,2 C21.1859723,2 22,2.81402773 22,3.81818182 L22,20.1818182 C22,21.1859723 21.1859723,22 20.1818182,22 L3.81818182,22 C2.81402773,22 2,21.1859723 2,20.1818182 L2,3.81818182 C2,2.81402773 2.81402773,2 3.81818182,2 Z M15.9589598,8.61713161 L11.5470203,13.5492037 L8.71542243,10.5189385 C8.45832765,10.2438058 8.02687198,10.2291831 7.75173921,10.4862779 C7.47660645,10.7433727 7.46198377,11.1748283 7.71907855,11.4499611 L11.0598261,15.0250982 C11.3333437,15.3178061 11.7990732,15.312746 12.0661666,15.0141645 L16.975297,9.52628664 C17.2263532,9.24563287 17.2023597,8.81459676 16.9217059,8.56354053 C16.6410521,8.3124843 16.210016,8.33647785 15.9589598,8.61713161 Z"/>
</svg>
