<svg xmlns="http://www.w3.org/2000/svg" width="24" height="24" viewBox="0 0 24 24">
  <g fill="none" fill-rule="evenodd" transform="translate(-744 -1104)">
    <path fill="#555" fill-rule="nonzero" d="M6.46944035,14.2967615 C7.74006494,16.7978724 10.4284238,18.3225781 13.2104203,17.8009726 L10.134177,23.8331265 C4.39629728,22.9503589 0.00931858194,17.9882479 0.00931858194,11.996287 C0.00931858194,9.57542518 0.731560562,7.31503419 1.9620743,5.42916645 L6.46944035,14.2967615 Z M17.9852286,1.61732005 C20.085094,2.83447262 21.6767698,4.58656449 22.6932311,6.59281959 L12.7690091,6.0711593 C9.96031767,5.91063371 7.2852926,7.48892096 6.36241415,10.137169 L2.67092773,4.46617712 C4.97142959,1.60393151 8.42216867,0.0256716522 11.9531295,0.0123104749 C13.9995502,-0.00105067559 16.0859997,0.520554836 17.9852286,1.61732005 Z M16.0325277,11.996287 C16.0325277,14.2298735 14.226909,16.0355196 11.9932677,16.0355196 C9.7597086,16.0355196 7.95406256,14.2298736 7.95406256,11.996287 C7.95406256,9.76264573 9.75970858,7.95705445 11.9932677,7.95705445 C14.226909,7.95702708 16.0325277,9.76264573 16.0325277,11.996287 Z M17.9852286,22.375254 C15.8853632,23.5923792 13.5715276,24.0872076 11.3245525,23.9668476 L16.7413811,15.634274 C18.2795301,13.2668842 18.2527256,10.1772798 16.4203573,8.03727617 L23.1746984,7.68950266 C25.2745912,13.0930248 23.1747258,19.3792599 17.9852286,22.375254 L17.9852286,22.375254 Z" transform="translate(744 1104)"/>
  </g>
</svg>
