<svg xmlns="http://www.w3.org/2000/svg" width="24" height="24" viewBox="0 0 24 24">
  <path fill="#555" d="M7.38992245,13.9176481 C8.45005231,16.0043112 10.6930512,17.2763649 13.0141754,16.8411923 L10.44755,21.8737853 C5.66022125,21.1372971 2,16.997435 2,11.9983748 C2,9.97866303 2.60259364,8.09283119 3.62925751,6.51946205 L7.38992245,13.9176481 Z M16.9979775,3.33925945 C18.7499742,4.35472318 20.0779691,5.81648385 20.926041,7.4902915 L12.6458895,7.05507318 C10.3024926,6.92114755 8.07061865,8.23790397 7.30062647,10.4473228 L4.22068057,5.71604532 C6.14007576,3.32808946 9.0191571,2.0113559 11.9651705,2.00020874 C13.6725762,1.98906161 15.4133794,2.42423423 16.9979775,3.33925945 Z M15.3687657,11.9983748 C15.3687657,13.8618438 13.8622702,15.3682844 11.9986593,15.3682844 C10.1351169,15.3682844 8.62859857,13.8618438 8.62859857,11.9983748 C8.62859857,10.1348601 10.1351169,8.62846518 11.9986593,8.62846518 C13.8622702,8.62844234 15.3687657,10.1348601 15.3687657,11.9983748 Z M16.9979775,20.6574902 C15.2459809,21.6729311 13.3154608,22.0857637 11.4407251,21.9853481 L15.9601888,15.0335275 C17.2435243,13.0584271 17.2211603,10.4807871 15.6923465,8.69539373 L21.3277473,8.40524819 C23.0797667,12.9133772 21.3277701,18.1579487 16.9979775,20.6574902 Z"/>
</svg>
