<svg xmlns="http://www.w3.org/2000/svg" width="24" height="24" viewBox="0 0 24 24">
  <g fill="none" fill-rule="evenodd" transform="translate(-744 -1104)">
    <path fill="#555" fill-rule="nonzero" d="M6.92891469,14.1094129 C8.09505754,16.4047424 10.5623563,17.8040014 13.115593,17.3253115 L10.292305,22.8611638 C5.02624338,22.0510268 1,17.4971785 1,11.9982123 C1,9.77652933 1.662853,7.70211431 2.79218326,5.97140825 L6.92891469,14.1094129 Z M17.4977753,2.4731854 C19.4249716,3.59019549 20.885766,5.19813223 21.8186451,7.03932065 L12.7104784,6.5605805 C10.1327419,6.41326231 7.67768052,7.86169437 6.83068912,10.2920551 L3.44274863,5.08764986 C5.55408333,2.46089841 8.7210728,1.01249149 11.9616875,1.00022961 C13.8398338,0.987967766 15.7547174,1.46665765 17.4977753,2.4731854 Z M15.7056423,11.9982123 C15.7056423,14.0480282 14.0484972,15.7051129 11.9985252,15.7051129 C9.94862864,15.7051129 8.29145842,14.0480282 8.29145842,11.9982123 C8.29145842,9.94834612 9.94862861,8.2913117 11.9985252,8.2913117 C14.0484972,8.29128658 15.7056423,9.94834612 15.7056423,11.9982123 Z M17.4977753,21.5232392 C15.570579,22.6402242 13.4470069,23.0943401 11.3847976,22.9838829 L16.3562077,15.3368802 C17.7678768,13.1642698 17.7432764,10.3288658 16.0615812,8.3649331 L22.260522,8.04577301 C24.1877434,13.0047149 22.2605471,18.7737435 17.4977753,21.5232392 Z" transform="translate(744 1104)"/>
  </g>
</svg>
