<svg xmlns="http://www.w3.org/2000/svg" width="24" height="24" viewBox="0 0 24 24">
  <g fill="none" fill-rule="evenodd" transform="translate(-552 -648)">
    <path fill="#555" fill-rule="nonzero" d="M12,23 C5.92486775,23 1,18.0751322 1,12 C1,5.92486775 5.92486775,1 12,1 C18.0751322,1 23,5.92486775 23,12 C23,18.0751322 18.0751322,23 12,23 Z M12,21.4651163 C17.2274394,21.4651163 21.4651163,17.2274394 21.4651163,12 C21.4651163,6.77256062 17.2274394,2.53488372 12,2.53488372 C6.77256062,2.53488372 2.53488372,6.77256062 2.53488372,12 C2.53488372,17.2274394 6.77256062,21.4651163 12,21.4651163 Z M16.3548558,8.29980067 C16.6310176,7.99108153 17.1051574,7.96468863 17.4138765,8.24085048 C17.7225956,8.51701234 17.7489885,8.99115206 17.4728267,9.2998712 L12.0727833,15.3365368 C11.7789806,15.6649765 11.2666781,15.6705427 10.9658087,15.348564 L7.29098641,11.4159131 C7.00818215,11.1132671 7.02426709,10.6386658 7.32691313,10.3558616 C7.62955918,10.0730573 8.10416042,10.0891423 8.38696468,10.3917883 L11.5017224,13.72508 L16.3548558,8.29980067 Z" transform="translate(552 648)"/>
  </g>
</svg>
