<svg xmlns="http://www.w3.org/2000/svg" width="24" height="24" viewBox="0 0 24 24">
  <path fill="#555" d="M12,22 C6.4771525,22 2,17.5228475 2,12 C2,6.4771525 6.4771525,2 12,2 C17.5228475,2 22,6.4771525 22,12 C22,17.5228475 17.5228475,22 12,22 Z M15.9589598,8.63618243 L11.5470203,13.5682545 L8.71542243,10.5379894 C8.45832765,10.2628566 8.02687198,10.2482339 7.75173921,10.5053287 C7.47660645,10.7624235 7.46198377,11.1938792 7.71907855,11.4690119 L11.0598261,15.0441491 C11.3333437,15.336857 11.7990732,15.3317969 12.0661666,15.0332153 L16.975297,9.54533745 C17.2263532,9.26468369 17.2023597,8.83364758 16.9217059,8.58259135 C16.6410521,8.33153512 16.210016,8.35552866 15.9589598,8.63618243 Z"/>
</svg>
