<svg xmlns="http://www.w3.org/2000/svg" width="24" height="24" viewBox="0 0 24 24">
  <g fill="none" fill-rule="evenodd" transform="translate(-624 -576)">
    <path fill="#555" fill-rule="nonzero" d="M12,22.5 C17.7989899,22.5 22.5,17.7989899 22.5,12 C22.5,6.20101013 17.7989899,1.5 12,1.5 C6.20101013,1.5 1.5,6.20101013 1.5,12 C1.5,17.7989899 6.20101013,22.5 12,22.5 Z M12,24 C5.372583,24 0,18.627417 0,12 C0,5.372583 5.372583,0 12,0 C18.627417,0 24,5.372583 24,12 C24,18.627417 18.627417,24 12,24 Z M6.59504064,10.780382 C6.31216656,10.4952248 5.82874628,10.5164821 5.51529123,10.8278615 C5.20183617,11.139241 5.17704539,11.6228295 5.45991947,11.9079868 L10.0696497,16.5549233 C10.3572943,16.8448896 10.8509474,16.8173246 11.1627558,16.4938854 L18.3820217,9.00533454 C18.6886588,8.68725962 18.7019426,8.20431362 18.4116918,7.92664447 C18.121441,7.64897531 17.6375678,7.68173065 17.3309307,7.99980557 L10.6802492,14.8985633 L6.59504064,10.780382 Z" transform="translate(624 576)"/>
  </g>
</svg>
