<svg xmlns="http://www.w3.org/2000/svg" width="24" height="24" viewBox="0 0 24 24">
  <g fill="none" fill-rule="evenodd" transform="translate(-312 -648)">
    <path fill="#555" fill-rule="nonzero" d="M12.011874,10.9333949 L14.4272852,8.5202095 C14.7203134,8.22745133 15.1951871,8.22767022 15.4879453,8.52069842 C15.7807035,8.81372662 15.7804846,9.28860031 15.4874564,9.58135848 L13.0730235,11.9935665 L15.4874564,14.4057745 C15.7804846,14.6985326 15.7807035,15.1734063 15.4879453,15.4664345 C15.1951871,15.7594627 14.7203134,15.7596816 14.4272852,15.4669234 L12.011874,13.0537381 L9.59646288,15.4669234 C9.30343468,15.7596816 8.82856099,15.7594627 8.53580282,15.4664345 C8.24304464,15.1734063 8.24326354,14.6985326 8.53629174,14.4057745 L10.9507246,11.9935665 L8.53629174,9.58135848 C8.24326354,9.28860031 8.24304464,8.81372662 8.53580282,8.52069842 C8.82856099,8.22767022 9.30343468,8.22745133 9.59646288,8.5202095 L12.011874,10.9333949 Z M12,23 C5.92486775,23 1,18.0751322 1,12 C1,5.92486775 5.92486775,1 12,1 C18.0751322,1 23,5.92486775 23,12 C23,18.0751322 18.0751322,23 12,23 Z M12,21.4651163 C17.2274394,21.4651163 21.4651163,17.2274394 21.4651163,12 C21.4651163,6.77256062 17.2274394,2.53488372 12,2.53488372 C6.77256062,2.53488372 2.53488372,6.77256062 2.53488372,12 C2.53488372,17.2274394 6.77256062,21.4651163 12,21.4651163 Z" transform="translate(312 648)"/>
  </g>
</svg>
