<svg xmlns="http://www.w3.org/2000/svg" width="24" height="24" viewBox="0 0 24 24">
  <path fill="#555" d="M12.0107946,11.030359 L14.2066229,8.83655409 C14.4730122,8.5704103 14.9047155,8.57060929 15.1708593,8.83699857 C15.4370031,9.10338784 15.4368041,9.53509119 15.1704149,9.80123498 L12.9754759,11.9941513 L15.1704149,14.1870677 C15.4368041,14.4532115 15.4370031,14.8849148 15.1708593,15.1513041 C14.9047155,15.4176934 14.4730122,15.4178924 14.2066229,15.1517486 L12.0107946,12.9579437 L9.81496625,15.1517486 C9.54857698,15.4178924 9.11687363,15.4176934 8.85072984,15.1513041 C8.58458604,14.8849148 8.58478504,14.4532115 8.85117431,14.1870677 L11.0461133,11.9941513 L8.85117431,9.80123498 C8.58478504,9.53509119 8.58458604,9.10338784 8.85072984,8.83699857 C9.11687363,8.57060929 9.54857698,8.5704103 9.81496625,8.83655409 L12.0107946,11.030359 Z M12,22 C6.4771525,22 2,17.5228475 2,12 C2,6.4771525 6.4771525,2 12,2 C17.5228475,2 22,6.4771525 22,12 C22,17.5228475 17.5228475,22 12,22 Z M12,20.6046512 C16.7522176,20.6046512 20.6046512,16.7522176 20.6046512,12 C20.6046512,7.24778239 16.7522176,3.39534884 12,3.39534884 C7.24778239,3.39534884 3.39534884,7.24778239 3.39534884,12 C3.39534884,16.7522176 7.24778239,20.6046512 12,20.6046512 Z"/>
</svg>
