<svg xmlns="http://www.w3.org/2000/svg" width="24" height="24" viewBox="0 0 24 24">
  <path fill="#555" d="M12,22 C6.4771525,22 2,17.5228475 2,12 C2,6.4771525 6.4771525,2 12,2 C17.5228475,2 22,6.4771525 22,12 C22,17.5228475 17.5228475,22 12,22 Z M12,20.6046512 C16.7522176,20.6046512 20.6046512,16.7522176 20.6046512,12 C20.6046512,7.24778239 16.7522176,3.39534884 12,3.39534884 C7.24778239,3.39534884 3.39534884,7.24778239 3.39534884,12 C3.39534884,16.7522176 7.24778239,20.6046512 12,20.6046512 Z M15.9589598,8.63618243 C16.210016,8.35552866 16.6410521,8.33153512 16.9217059,8.58259135 C17.2023597,8.83364758 17.2263532,9.26468369 16.975297,9.54533745 L12.0661666,15.0332153 C11.7990732,15.3317969 11.3333437,15.336857 11.0598261,15.0441491 L7.71907855,11.4690119 C7.46198377,11.1938792 7.47660645,10.7624235 7.75173921,10.5053287 C8.02687198,10.2482339 8.45832765,10.2628566 8.71542243,10.5379894 L11.5470203,13.5682545 L15.9589598,8.63618243 Z"/>
</svg>
