<svg xmlns="http://www.w3.org/2000/svg" width="20" height="20" viewBox="0 0 20 20">
  <path fill="#555" d="M10.0107946,9.03035899 L7.81496625,6.83655409 C7.54857698,6.5704103 7.11687363,6.57060929 6.85072984,6.83699857 C6.58458604,7.10338784 6.58478504,7.53509119 6.85117431,7.80123498 L9.04611329,9.99415134 L6.85117431,12.1870677 C6.58478504,12.4532115 6.58458604,12.8849148 6.85072984,13.1513041 C7.11687363,13.4176934 7.54857698,13.4178924 7.81496625,13.1517486 L10.0107946,10.9579437 L12.2066229,13.1517486 C12.4730122,13.4178924 12.9047155,13.4176934 13.1708593,13.1513041 C13.4370031,12.8849148 13.4368041,12.4532115 13.1704149,12.1870677 L10.9754759,9.99415134 L13.1704149,7.80123498 C13.4368041,7.53509119 13.4370031,7.10338784 13.1708593,6.83699857 C12.9047155,6.57060929 12.4730122,6.5704103 12.2066229,6.83655409 L10.0107946,9.03035899 Z M10,20 C4.4771525,20 0,15.5228475 0,10 C0,4.4771525 4.4771525,0 10,0 C15.5228475,0 20,4.4771525 20,10 C20,15.5228475 15.5228475,20 10,20 Z"/>
</svg>
