<svg xmlns="http://www.w3.org/2000/svg" width="24" height="24" viewBox="0 0 24 24">
  <g fill="none" fill-rule="evenodd" transform="translate(-456 -648)">
    <path fill="#555" fill-rule="nonzero" d="M12.011874,10.9333949 L9.59646288,8.5202095 C9.30343468,8.22745133 8.82856099,8.22767022 8.53580282,8.52069842 C8.24304464,8.81372662 8.24326354,9.28860031 8.53629174,9.58135848 L10.9507246,11.9935665 L8.53629174,14.4057745 C8.24326354,14.6985326 8.24304464,15.1734063 8.53580282,15.4664345 C8.82856099,15.7594627 9.30343468,15.7596816 9.59646288,15.4669234 L12.011874,13.0537381 L14.4272852,15.4669234 C14.7203134,15.7596816 15.1951871,15.7594627 15.4879453,15.4664345 C15.7807035,15.1734063 15.7804846,14.6985326 15.4874564,14.4057745 L13.0730235,11.9935665 L15.4874564,9.58135848 C15.7804846,9.28860031 15.7807035,8.81372662 15.4879453,8.52069842 C15.1951871,8.22767022 14.7203134,8.22745133 14.4272852,8.5202095 L12.011874,10.9333949 Z M3,1.0209559 L21,1.0209559 C22.1045695,1.0209559 23,1.9163864 23,3.0209559 L23,21.0209559 C23,22.1255254 22.1045695,23.0209559 21,23.0209559 L3,23.0209559 C1.8954305,23.0209559 1,22.1255254 1,21.0209559 L1,3.0209559 C1,1.9163864 1.8954305,1.0209559 3,1.0209559 Z" transform="translate(456 648)"/>
  </g>
</svg>
