<svg xmlns="http://www.w3.org/2000/svg" width="24" height="24" viewBox="0 0 24 24">
  <g fill="none" fill-rule="evenodd" transform="translate(-456 -648)">
    <path fill="#555" fill-rule="nonzero" d="M13.1462214,11.8163884 L17.3573593,7.60525046 C17.7245826,7.23802721 17.7245826,6.64264069 17.3573593,6.27541744 C16.9901361,5.90819419 16.3947495,5.90819419 16.0275263,6.27541744 L11.8163884,10.4865554 L7.97247371,6.64264069 C7.60525046,6.27541744 7.00986394,6.27541744 6.64264069,6.64264069 C6.27541744,7.00986394 6.27541744,7.60525046 6.64264069,7.97247371 L10.4865554,11.8163884 L6.27541744,16.0275263 C5.90819419,16.3947495 5.90819419,16.9901361 6.27541744,17.3573593 C6.64264069,17.7245826 7.23802721,17.7245826 7.60525046,17.3573593 L11.8163884,13.1462214 L16.3947495,17.7245826 C16.7619728,18.0918058 17.3573593,18.0918058 17.7245826,17.7245826 C18.0918058,17.3573593 18.0918058,16.7619728 17.7245826,16.3947495 L13.1462214,11.8163884 Z M2,0 L22,0 C23.1045695,0 24,0.8954305 24,2 L24,22 C24,23.1045695 23.1045695,24 22,24 L2,24 C0.8954305,24 0,23.1045695 0,22 L0,2 C0,0.8954305 0.8954305,0 2,0 Z" transform="translate(456 648)"/>
  </g>
</svg>
