<svg xmlns="http://www.w3.org/2000/svg" width="24" height="24" viewBox="0 0 24 24">
  <g fill="none" fill-rule="evenodd" transform="translate(-264 -648)">
    <path fill="#555" fill-rule="nonzero" d="M12.3168377,10.7958607 L21.7958607,10.7958607 C22.2158669,10.7958607 22.5563492,11.136343 22.5563492,11.5563492 C22.5563492,11.9763554 22.2158669,12.3168377 21.7958607,12.3168377 L12.3168377,12.3168377 L12.3168377,21.7958607 C12.3168377,22.2158669 11.9763554,22.5563492 11.5563492,22.5563492 C11.136343,22.5563492 10.7958607,22.2158669 10.7958607,21.7958607 L10.7958607,12.3168377 L1.31683769,12.3168377 C0.896831487,12.3168377 0.556349186,11.9763554 0.556349186,11.5563492 C0.556349186,11.136343 0.896831487,10.7958607 1.31683769,10.7958607 L10.7958607,10.7958607 L10.7958607,1.31683769 C10.7958607,0.896831487 11.136343,0.556349186 11.5563492,0.556349186 C11.9763554,0.556349186 12.3168377,0.896831487 12.3168377,1.31683769 L12.3168377,10.7958607 Z" transform="rotate(45 -638.649 654.233)"/>
  </g>
</svg>
