<svg xmlns="http://www.w3.org/2000/svg" width="24" height="24" viewBox="0 0 24 24">
  <g fill="none" fill-rule="evenodd" transform="translate(-264 -648)">
    <path fill="#555" fill-rule="nonzero" d="M16.4730159,14.6396825 L16.4730159,5.47301585 C16.4730159,4.96675483 16.0626102,4.55634919 15.5563492,4.55634919 C15.0500882,4.55634919 14.6396825,4.96675483 14.6396825,5.47301585 L14.6396825,14.6396825 L5.47301585,14.6396825 C4.96675483,14.6396825 4.55634919,15.0500882 4.55634919,15.5563492 C4.55634919,16.0626102 4.96675483,16.4730159 5.47301585,16.4730159 L14.6396825,16.4730159 L14.6396825,25.6396825 C14.6396825,26.1459435 15.0500882,26.5563492 15.5563492,26.5563492 C16.0626102,26.5563492 16.4730159,26.1459435 16.4730159,25.6396825 L16.4730159,16.4730159 L25.6396825,16.4730159 C26.1459435,16.4730159 26.5563492,16.0626102 26.5563492,15.5563492 C26.5563492,15.0500882 26.1459435,14.6396825 25.6396825,14.6396825 L16.4730159,14.6396825 Z" transform="rotate(45 -633.028 651.904)"/>
  </g>
</svg>
