<svg xmlns="http://www.w3.org/2000/svg" width="24" height="24" viewBox="0 0 24 24">
  <g fill="none" fill-rule="evenodd" transform="translate(-264 -648)">
    <path fill="#555" fill-rule="nonzero" d="M16.7604885,15.2395115 L26.2395115,15.2395115 C26.6595177,15.2395115 27,15.5799938 27,16 C27,16.4200062 26.6595177,16.7604885 26.2395115,16.7604885 L16.7604885,16.7604885 L16.7604885,26.2395115 C16.7604885,26.6595177 16.4200062,27 16,27 C15.5799938,27 15.2395115,26.6595177 15.2395115,26.2395115 L15.2395115,16.7604885 L5.76048851,16.7604885 C5.3404823,16.7604885 5,16.4200062 5,16 C5,15.5799938 5.3404823,15.2395115 5.76048851,15.2395115 L15.2395115,15.2395115 L15.2395115,5.76048851 C15.2395115,5.3404823 15.5799938,5 16,5 C16.4200062,5 16.7604885,5.3404823 16.7604885,5.76048851 L16.7604885,15.2395115 Z" transform="rotate(45 -632.584 652.348)"/>
  </g>
</svg>
