<svg xmlns="http://www.w3.org/2000/svg" width="24" height="24" viewBox="0 0 24 24">
  <path fill="#555" d="M12.0107946,11.0113082 L9.81496625,8.81750327 C9.54857698,8.55135948 9.11687363,8.55155848 8.85072984,8.81794775 C8.58458604,9.08433702 8.58478504,9.51604037 8.85117431,9.78218417 L11.0461133,11.9751005 L8.85117431,14.1680169 C8.58478504,14.4341607 8.58458604,14.865864 8.85072984,15.1322533 C9.11687363,15.3986426 9.54857698,15.3988416 9.81496625,15.1326978 L12.0107946,12.9388929 L14.2066229,15.1326978 C14.4730122,15.3988416 14.9047155,15.3986426 15.1708593,15.1322533 C15.4370031,14.865864 15.4368041,14.4341607 15.1704149,14.1680169 L12.9754759,11.9751005 L15.1704149,9.78218417 C15.4368041,9.51604037 15.4370031,9.08433702 15.1708593,8.81794775 C14.9047155,8.55155848 14.4730122,8.55135948 14.2066229,8.81750327 L12.0107946,11.0113082 Z M3.81818182,2 L20.1818182,2 C21.1859723,2 22,2.81402773 22,3.81818182 L22,20.1818182 C22,21.1859723 21.1859723,22 20.1818182,22 L3.81818182,22 C2.81402773,22 2,21.1859723 2,20.1818182 L2,3.81818182 C2,2.81402773 2.81402773,2 3.81818182,2 Z"/>
</svg>
