<svg xmlns="http://www.w3.org/2000/svg" width="24" height="24" viewBox="0 0 24 24">
  <g fill="none" fill-rule="evenodd" transform="translate(-216 -744)">
    <path fill="#555" fill-rule="nonzero" d="M23.7342639,13.3702156 C23.5857611,15.7843739 21.4392788,17.7044757 18.8451139,17.7044757 L14.7313752,17.7434068 L5.69919691,17.6461393 C2.68838321,17.6461393 0.124415864,15.3183795 0.00544158381,12.4676595 C-0.113652136,9.8201072 1.73453442,7.52214089 4.3278392,6.96936317 C4.44693292,5.02035762 5.34119902,3.18742385 6.86170462,1.87802743 C8.47179927,0.481823639 10.5588183,-0.187314401 12.7348292,0.0454302992 C16.0438909,0.365126654 18.7863913,2.83848713 19.3522119,6.03850454 C19.5014076,6.85312307 19.5315095,7.63816459 19.4124875,8.42390343 C20.5742307,8.51150431 21.677299,9.03506571 22.4525908,9.8784437 C23.3771022,10.8388793 23.8238291,12.0600256 23.7342639,13.3702156 L23.7342639,13.3702156 L23.7342639,13.3702156 L23.7342639,13.3702156 Z M21.7971094,10.4607984 C21.0519195,9.70422781 20.0680644,9.26761805 18.964996,9.26761805 L18.8761476,9.26761805 C18.7261396,9.26761805 18.6071415,9.20928157 18.5174569,9.12216162 C18.4277483,9.00582534 18.3983631,8.88956118 18.4277483,8.74359979 C18.6071415,7.90067871 18.6364072,7.027363 18.4578503,6.18362433 C17.9516362,3.36168782 15.5368645,1.20898555 12.6157593,0.889144934 C10.7373992,0.685664639 8.88926041,1.26722584 7.45774663,2.5179251 C6.05705148,3.74022561 5.22224863,5.48536612 5.22224863,7.34756432 C5.22224863,7.55138126 5.07376968,7.75486155 4.83500886,7.7839817 C2.5091573,8.10370209 0.81014251,10.111477 0.899731568,12.4380344 C0.988627802,14.8242509 3.1653315,16.8028334 5.72927494,16.8028334 L12.3374838,16.8012464 L12.3815377,16.8012464 L14.60693,16.8012464 C14.6092474,16.8012464 14.6107525,16.8028334 14.6124009,16.8028334 L18.8452334,16.8028334 C20.9624499,16.8028334 22.7209518,15.2607163 22.8407145,13.2831437 C22.9002972,12.2350591 22.5415109,11.2166236 21.7971094,10.4607984 L21.7971094,10.4607984 L21.7971094,10.4607984 L21.7971094,10.4607984 Z M11.8853098,6.10885218 C11.7361381,5.93461225 11.4377468,5.93461225 11.2591898,6.10885218 L7.71196455,9.57143182 C7.53257141,9.74576793 7.53257141,10.0079694 7.71196455,10.1822093 C7.89052154,10.3568821 8.15881091,10.3568821 8.33727232,10.1822093 L11.0674931,7.48127412 L11.0674931,12.6578783 C11.0674931,12.7601955 11.0573874,14.4406754 11.0674931,14.5402994 L12.0251883,14.5402994 C12.0082261,14.4324996 12.0336694,12.9126975 12.0336694,12.8005694 L12.0336694,7.51008166 L14.7770298,10.2113054 C14.866595,10.2989544 14.9856649,10.3280264 15.104663,10.3280264 C15.2237329,10.3280264 15.3428505,10.26969 15.4324157,10.1822334 C15.6110921,10.0079935 15.6110921,9.74579194 15.4324157,9.57145585 L11.8853098,6.10885218 L11.8853098,6.10885218 L11.8853098,6.10885218 L11.8853098,6.10885218 Z" transform="translate(216 747)"/>
  </g>
</svg>
