<svg xmlns="http://www.w3.org/2000/svg" width="24" height="24" viewBox="0 0 24 24">
  <g fill="none" fill-rule="evenodd" transform="translate(-168 -744)">
    <path fill="#555" fill-rule="nonzero" d="M7.23484552,9.57928826 C7.24579057,9.9784007 6.95381025,10.3197613 6.56237799,10.3654849 C5.15238698,10.5301871 4.14133644,10.9539923 3.50372338,11.6127537 C2.87127649,12.2661776 2.5431435,13.1170591 2.51612781,14.1190405 C2.61415037,15.194392 2.98023271,15.9996013 3.61240087,16.5754403 C4.24154347,17.1485234 5.18695311,17.452022 6.47537018,17.4602475 L18.2119252,17.4618312 C19.3079668,17.390484 20.1149897,16.9884436 20.6893853,16.2470566 C21.4135479,15.3123617 21.5658097,14.4706439 21.4396228,13.5298667 C21.3449543,12.8240721 20.894267,11.9277981 20.1662534,11.3185453 C19.6113144,10.8541335 18.7355034,10.5709752 17.5249691,10.4977176 C17.1143211,10.4728665 16.7977847,10.1213448 16.81088,9.70470348 C16.848448,8.50943647 16.5168966,7.44005895 15.8069844,6.46924362 C14.8479901,5.15780472 13.3612981,4.48821487 11.900763,4.54284832 C10.4726269,4.59626984 9.14853061,5.24952994 8.19288587,6.48566509 C7.52011658,7.35589827 7.20186061,8.37649052 7.23484552,9.57928826 Z M12.9308406,13.0269045 L12.9308406,8.59189689 C12.9308406,8.16670598 12.5906806,7.82202064 12.1710721,7.82202064 C11.7514635,7.82202064 11.4113035,8.16670598 11.4113035,8.59189689 L11.4113035,13.01261 L10.5450651,12.1463716 C10.2444098,11.8457162 9.76015103,11.8425163 9.46344296,12.1392243 C9.1667349,12.4359324 9.16993483,12.9201911 9.47059021,13.2208465 L11.6481291,15.3983854 C11.9487844,15.6990408 12.4330432,15.7022407 12.7297513,15.4055326 L14.8787011,13.2565828 C15.1754092,12.9598747 15.1722093,12.4756159 14.8715539,12.1749606 C14.5708985,11.8743052 14.0866398,11.8711053 13.7899317,12.1678133 L12.9308406,13.0269045 Z M5.72852295,8.93377531 C5.81237336,7.65945239 6.23576457,6.52038818 6.99668834,5.53612638 C8.23483028,3.93457856 9.97929917,3.07392221 11.8447069,3.0041439 C13.7901473,2.93137185 15.7598546,3.81850653 17.0278785,5.55254786 C17.795753,6.60262753 18.2269354,7.76625109 18.3159325,9.02717464 C19.4909426,9.18237531 20.4329872,9.54478302 21.1338761,10.131336 C22.1730107,11.0009567 22.8015981,12.2510174 22.9453163,13.3224979 C23.1221953,14.6412067 22.8958136,15.8926664 21.8846018,17.1978629 C21.0331597,18.2968407 19.8226088,18.8999096 18.2606328,19 L6.47059228,18.9999848 C4.83274407,18.9895477 3.53089007,18.5716222 2.59654855,17.7205349 C1.66523259,16.8722035 1.13471828,15.7053211 1,14.172688 C1.03229525,12.7050337 1.50530691,11.4784675 2.41887003,10.5346033 C3.20813487,9.71916014 4.31692836,9.1908301 5.72852295,8.93377531 Z" transform="translate(168 744)"/>
  </g>
</svg>
