<svg xmlns="http://www.w3.org/2000/svg" width="24" height="24" viewBox="0 0 24 24">
  <g fill="none" fill-rule="evenodd" transform="translate(-216 -744)">
    <path fill="#555" fill-rule="nonzero" d="M7.23484552,10.5792883 C7.24579057,10.9784007 6.95381025,11.3197613 6.56237799,11.3654849 C5.15238698,11.5301871 4.14133644,11.9539923 3.50372338,12.6127537 C2.87127649,13.2661776 2.5431435,14.1170591 2.51612781,15.1190405 C2.61415037,16.194392 2.98023271,16.9996013 3.61240087,17.5754403 C4.24154347,18.1485234 5.18695311,18.452022 6.47537018,18.4602475 L18.2119252,18.4618312 C19.3079668,18.390484 20.1149897,17.9884436 20.6893853,17.2470566 C21.4135479,16.3123617 21.5658097,15.4706439 21.4396228,14.5298667 C21.3449543,13.8240721 20.894267,12.9277981 20.1662534,12.3185453 C19.6113144,11.8541335 18.7355034,11.5709752 17.5249691,11.4977176 C17.1143211,11.4728665 16.7977847,11.1213448 16.81088,10.7047035 C16.848448,9.50943647 16.5168966,8.44005895 15.8069844,7.46924362 C14.8479901,6.15780472 13.3612981,5.48821487 11.900763,5.54284832 C10.4726269,5.59626984 9.14853061,6.24952994 8.19288587,7.48566509 C7.52011658,8.35589827 7.20186061,9.37649052 7.23484552,10.5792883 Z M11.4113035,11.3301938 L11.4113035,15.8525506 C11.4113035,16.2777415 11.7514635,16.6224268 12.1710721,16.6224268 C12.5906806,16.6224268 12.9308406,16.2777415 12.9308406,15.8525506 L12.9308406,11.3158993 L13.7899317,12.1749904 C14.0866398,12.4716985 14.5708985,12.4684986 14.8715539,12.1678432 C15.1722093,11.8671878 15.1754092,11.3829291 14.8787011,11.086221 L12.7297513,8.93727113 C12.4330432,8.64056307 11.9487844,8.643763 11.6481291,8.94441837 L9.47059021,11.1219572 C9.16993483,11.4226126 9.1667349,11.9068714 9.46344296,12.2035794 C9.76015103,12.5002875 10.2444098,12.4970876 10.5450651,12.1964322 L11.4113035,11.3301938 Z M5.72852295,9.93377531 C5.81237336,8.65945239 6.23576457,7.52038818 6.99668834,6.53612638 C8.23483028,4.93457856 9.97929917,4.07392221 11.8447069,4.0041439 C13.7901473,3.93137185 15.7598546,4.81850653 17.0278785,6.55254786 C17.795753,7.60262753 18.2269354,8.76625109 18.3159325,10.0271746 C19.4909426,10.1823753 20.4329872,10.544783 21.1338761,11.131336 C22.1730107,12.0009567 22.8015981,13.2510174 22.9453163,14.3224979 C23.1221953,15.6412067 22.8958136,16.8926664 21.8846018,18.1978629 C21.0331597,19.2968407 19.8226088,19.8999096 18.2606328,20 L6.47059228,19.9999848 C4.83274407,19.9895477 3.53089007,19.5716222 2.59654855,18.7205349 C1.66523259,17.8722035 1.13471828,16.7053211 1,15.172688 C1.03229525,13.7050337 1.50530691,12.4784675 2.41887003,11.5346033 C3.20813487,10.7191601 4.31692836,10.1908301 5.72852295,9.93377531 Z" transform="translate(216 744)"/>
  </g>
</svg>
