<svg xmlns="http://www.w3.org/2000/svg" width="24" height="24" viewBox="0 0 24 24">
  <g fill="none" fill-rule="evenodd" transform="translate(-116 -980)">
    <path fill="#555" fill-rule="nonzero" d="M8.78688113,4.37679133 C8.78688113,4.37679133 7.33505924,2.85877239 5.36530355,4.09850862 C3.60293533,5.28210157 3.91460622,7.44820173 3.91460622,7.44820173 C3.91460622,7.44820173 0,8.27546601 0,12.6155332 C0.0872777166,16.9485825 4.25120967,16.9930104 4.25120967,16.9930104 L10.5016333,17 L10.5016333,12.3609076 L7.50448554,12.3609076 L12.0010713,7.72209827 L16.4970535,12.3609076 L13.4993571,12.3609076 L13.4993571,17 L19.5684505,16.9930104 C19.5684505,16.9930104 23.443395,16.9965193 23.9879619,12.8742054 C24.2469151,8.36519903 20.2422334,7.47652803 20.2422334,7.47652803 C20.2422334,7.47652803 20.697822,0.801987447 15.0741413,0.0410820204 C10.2534596,-0.494118412 8.78688113,4.37679133 8.78688113,4.37679133 Z" transform="translate(116 983)"/>
  </g>
</svg>
