<svg xmlns="http://www.w3.org/2000/svg" width="20" height="20" viewBox="0 0 20 20">
  <path fill="#555" fill-rule="evenodd" d="M15.9919114,7.26976423 L16,7.26976423 L16,8.49711747 C18.209139,8.49711747 20,10.2871181 20,12.4951958 C20,14.7032735 18.209139,16.4932741 16,16.4932741 L16,16.5 L4,16.5 L4,16.4932741 C1.790861,16.4932741 -1.8189894e-12,14.7032735 -1.8189894e-12,12.4951958 C-1.8189894e-12,10.5617145 1.37313471,8.94879187 3.19786131,8.57752806 C3.0700399,8.24431247 3,7.88249355 3,7.50432379 C3,5.84826553 4.34314575,4.50576505 6,4.50576505 C6.5511082,4.50576505 7.06750826,4.6542969 7.51131601,4.91349464 C8.26327306,3.47885024 9.76727023,2.5 11.5,2.5 C13.9852814,2.5 16,4.51375071 16,6.99783811 C16,7.08914109 15.9972782,7.17980867 15.9919114,7.26976423 Z M11.4543312,11.4221343 L11.4543312,6.5 L9.4543312,6.5 L9.4543312,11.4213348 L7,11.4203536 L10.4543312,15.4956762 L13.9176042,11.423119 L11.4543312,11.4221343 Z"/>
</svg>
