<svg xmlns="http://www.w3.org/2000/svg" width="24" height="24" viewBox="0 0 24 24">
  <g fill="none" fill-rule="evenodd" transform="translate(-168 -984)">
    <path fill="#555" fill-rule="nonzero" d="M9.05464103,8.11933302 C9.05464103,8.11933302 10.3990046,3.53494738 14.8179629,4.03866543 C19.9730035,4.75481171 19.5553806,11.0367323 19.5553806,11.0367323 C19.5553806,11.0367323 23.2263388,11.8731285 22.988965,16.1168992 C22.4897787,19.9967241 18.9377463,19.9934215 18.9377463,19.9934215 L13.3744107,20 L10.6264972,20 L4.8969422,19.9934215 C4.8969422,19.9934215 1.08000457,19.9516071 1,15.873443 C1,11.7886739 4.58838903,11.0100722 4.58838903,11.0100722 C4.58838903,11.0100722 4.30269072,8.97138971 5.91819492,7.85741988 C7.7238043,6.69060931 9.05464103,8.11933302 9.05464103,8.11933302 Z M10.6264972,11.2678572 L10.6264972,15.6340618 L7.87911174,15.6340618 L12.000982,20 L16.1222991,15.6340618 L13.3744107,15.6340618 L13.3744107,11.2678572 L10.6264972,11.2678572 Z" transform="translate(168 984)"/>
  </g>
</svg>
