<svg xmlns="http://www.w3.org/2000/svg" width="24" height="24" viewBox="0 0 24 24">
  <g fill="none" fill-rule="evenodd" transform="translate(-120 -984)">
    <path fill="#555" fill-rule="nonzero" d="M9.05464103,7.11933302 C9.05464103,7.11933302 7.7238043,5.69060931 5.91819492,6.85741988 C4.30269072,7.97138971 4.58838903,10.0100722 4.58838903,10.0100722 C4.58838903,10.0100722 1,10.7886739 1,14.873443 C1.08000457,18.9516071 4.8969422,18.9934215 4.8969422,18.9934215 L10.6264972,19 L10.6264972,14.6337954 L7.87911174,14.6337954 L12.000982,10.2678572 L16.1222991,14.6337954 L13.3744107,14.6337954 L13.3744107,19 L18.9377463,18.9934215 C18.9377463,18.9934215 22.4897787,18.9967241 22.988965,15.1168992 C23.2263388,10.8731285 19.5553806,10.0367323 19.5553806,10.0367323 C19.5553806,10.0367323 19.9730035,3.75481171 14.8179629,3.03866543 C10.3990046,2.53494738 9.05464103,7.11933302 9.05464103,7.11933302 Z" transform="translate(120 984)"/>
  </g>
</svg>
