<svg xmlns="http://www.w3.org/2000/svg" width="24" height="24" viewBox="0 0 24 24">
  <path fill="#555" d="M7.66804138,10.1680827 C7.67799143,10.5422507 7.41255477,10.8622762 7.05670726,10.9051421 C5.77489725,11.0595504 4.8557604,11.4568678 4.27611216,12.0744566 C3.70116045,12.6870415 3.40285772,13.4847429 3.378298,14.4241005 C3.46740942,15.4322425 3.80021156,16.1871262 4.37490988,16.7269753 C4.9468577,17.2642407 5.80632101,17.5487706 6.97760925,17.556482 L17.6472047,17.5579667 C18.6436062,17.4910788 19.3772633,17.1141659 19.8994412,16.4191156 C20.5577709,15.5428391 20.6961907,14.7537287 20.5814753,13.87175 C20.495413,13.2100676 20.0856972,12.3698107 19.4238667,11.7986362 C18.9193767,11.3632502 18.1231849,11.0977893 17.0226992,11.0291103 C16.6493828,11.0058124 16.3616225,10.6762607 16.3735273,10.2856595 C16.40768,9.16509669 16.1062696,8.16255526 15.4608949,7.2524159 C14.5890819,6.02294193 13.2375437,5.39520144 11.9097845,5.4464203 C10.611479,5.49650298 9.4077551,6.10893432 8.53898715,7.26781103 C7.92737871,8.08365463 7.6380551,9.04045986 7.66804138,10.1680827 Z M12.8462187,13.4002229 L12.8462187,9.24240333 C12.8462187,8.84378685 12.5369824,8.52064435 12.15552,8.52064435 C11.7740577,8.52064435 11.4648214,8.84378685 11.4648214,9.24240333 L11.4648214,13.3868218 L10.677332,12.5747234 C10.4040089,12.2928589 9.96377366,12.289859 9.69403906,12.5680228 C9.42430446,12.8461866 9.42721348,13.3001792 9.70053655,13.5820436 L11.6801173,15.6234863 C11.9534404,15.9053507 12.3936756,15.9083506 12.6634102,15.6301868 L14.617001,13.6155463 C14.8867356,13.3373825 14.8838266,12.8833899 14.6105035,12.6015255 C14.3371805,12.3196611 13.8969452,12.3166612 13.6272106,12.594825 L12.8462187,13.4002229 Z M6.29865723,9.56291436 C6.37488487,8.36823662 6.75978597,7.30036392 7.45153486,6.37761848 C8.57711843,4.8761674 10.1629992,4.06930207 11.8588245,4.0038849 C13.6274066,3.93566111 15.4180496,4.76734987 16.5707986,6.39301361 C17.2688663,7.37746331 17.6608503,8.4683604 17.7417568,9.65047622 C18.8099478,9.79597685 19.666352,10.1357341 20.3035237,10.6856275 C21.2481915,11.5008969 21.8196346,12.6728288 21.9502875,13.6773418 C22.1110867,14.9136312 21.9052851,16.0868747 20.9860017,17.3104965 C20.2119634,18.3407882 19.1114625,18.9061653 17.6914844,19 L6.97326571,18.9999857 C5.48431279,18.990201 4.30080915,18.5983958 3.45140777,17.8005014 C2.6047569,17.0051908 2.12247116,15.9112385 2,14.474395 C2.02935932,13.0984691 2.45936992,11.9485633 3.28988184,11.0636906 C4.00739533,10.2992126 5.01538942,9.80390322 6.29865723,9.56291436 Z"/>
</svg>
