<svg xmlns="http://www.w3.org/2000/svg" width="24" height="24" viewBox="0 0 24 24">
  <g fill="none" fill-rule="evenodd" transform="translate(-168 -984)">
    <path fill="#555" fill-rule="nonzero" d="M8.78688113,4.37679133 C8.78688113,4.37679133 10.2534596,-0.494118412 15.0741413,0.0410820204 C20.697822,0.801987447 20.2422334,7.47652803 20.2422334,7.47652803 C20.2422334,7.47652803 24.2469151,8.36519903 23.9879619,12.8742054 C23.443395,16.9965193 19.5684505,16.9930104 19.5684505,16.9930104 L13.4993571,17 L10.5016333,17 L4.25120967,16.9930104 C4.25120967,16.9930104 0.0872777166,16.9485825 0,12.6155332 C0,8.27546601 3.91460622,7.44820173 3.91460622,7.44820173 C3.91460622,7.44820173 3.60293533,5.28210157 5.36530355,4.09850862 C7.33505924,2.85877239 8.78688113,4.37679133 8.78688113,4.37679133 Z M10.5016333,7.72209827 L10.5016333,12.3611906 L7.50448554,12.3611906 L12.0010713,17 L16.4970535,12.3611906 L13.4993571,12.3611906 L13.4993571,7.72209827 L10.5016333,7.72209827 Z" transform="translate(168 987)"/>
  </g>
</svg>
