<svg xmlns="http://www.w3.org/2000/svg" width="24" height="24" viewBox="0 0 24 24">
  <path fill="#555" fill-rule="evenodd" d="M13,19 L13,15.0773853 L15.463273,15.0764006 L12,11.0038434 L8.5456688,15.0791659 L11,15.0781848 L11,19 L6,19 L6,18.9932741 C3.790861,18.9932741 2,17.2032735 2,14.9951958 C2,13.0617145 3.37313471,11.4487919 5.19786131,11.0775281 C5.0700399,10.7443125 5,10.3824935 5,10.0043238 C5,8.34826553 6.34314575,7.00576505 8,7.00576505 C8.5511082,7.00576505 9.06750826,7.1542969 9.51131601,7.41349464 C10.2632731,5.97885024 11.7672702,5 13.5,5 C15.9852814,5 18,7.01375071 18,9.49783811 C18,9.58914109 17.9972782,9.67980867 17.9919114,9.76976423 L18,9.76976423 L18,10.9971175 C20.209139,10.9971175 22,12.7871181 22,14.9951958 C22,17.2032735 20.209139,18.9932741 18,18.9932741 L18,19 L13,19 Z"/>
</svg>
