<svg xmlns="http://www.w3.org/2000/svg" width="20" height="20" viewBox="0 0 20 20">
  <path fill="#555" fill-rule="evenodd" d="M11,17 L11,13.0773853 L13.463273,13.0764006 L10,9.00384337 L6.5456688,13.0791659 L9,13.0781848 L9,17 L4,17 L4,16.9932741 C1.790861,16.9932741 -1.8189894e-12,15.2032735 -1.8189894e-12,12.9951958 C-1.8189894e-12,11.0617145 1.37313471,9.44879187 3.19786131,9.07752806 C3.0700399,8.74431247 3,8.38249355 3,8.00432379 C3,6.34826553 4.34314575,5.00576505 6,5.00576505 C6.5511082,5.00576505 7.06750826,5.1542969 7.51131601,5.41349464 C8.26327306,3.97885024 9.76727023,3 11.5,3 C13.9852814,3 16,5.01375071 16,7.49783811 C16,7.58914109 15.9972782,7.67980867 15.9919114,7.76976423 L16,7.76976423 L16,8.99711747 C18.209139,8.99711747 20,10.7871181 20,12.9951958 C20,15.2032735 18.209139,16.9932741 16,16.9932741 L16,17 L11,17 Z"/>
</svg>
