<svg xmlns="http://www.w3.org/2000/svg" width="24" height="24" viewBox="0 0 24 24">
  <path fill="#555" d="M7.66804138,11.1680827 C7.67799143,11.5422507 7.41255477,11.8622762 7.05670726,11.9051421 C5.77489725,12.0595504 4.8557604,12.4568678 4.27611216,13.0744566 C3.70116045,13.6870415 3.40285772,14.4847429 3.378298,15.4241005 C3.46740942,16.4322425 3.80021156,17.1871262 4.37490988,17.7269753 C4.9468577,18.2642407 5.80632101,18.5487706 6.97760925,18.556482 L17.6472047,18.5579667 C18.6436062,18.4910788 19.3772633,18.1141659 19.8994412,17.4191156 C20.5577709,16.5428391 20.6961907,15.7537287 20.5814753,14.87175 C20.495413,14.2100676 20.0856972,13.3698107 19.4238667,12.7986362 C18.9193767,12.3632502 18.1231849,12.0977893 17.0226992,12.0291103 C16.6493828,12.0058124 16.3616225,11.6762607 16.3735273,11.2856595 C16.40768,10.1650967 16.1062696,9.16255526 15.4608949,8.2524159 C14.5890819,7.02294193 13.2375437,6.39520144 11.9097845,6.4464203 C10.611479,6.49650298 9.4077551,7.10893432 8.53898715,8.26781103 C7.92737871,9.08365463 7.6380551,10.0404599 7.66804138,11.1680827 Z M11.4648214,11.8720567 L11.4648214,16.1117662 C11.4648214,16.5103826 11.7740577,16.8335251 12.15552,16.8335251 C12.5369824,16.8335251 12.8462187,16.5103826 12.8462187,16.1117662 L12.8462187,11.8586556 L13.6272106,12.6640535 C13.8969452,12.9422173 14.3371805,12.9392174 14.6105035,12.657353 C14.8838266,12.3754886 14.8867356,11.921496 14.617001,11.6433322 L12.6634102,9.62869168 C12.3936756,9.35052788 11.9534404,9.35352781 11.6801173,9.63539223 L9.70053655,11.6768349 C9.42721348,11.9586993 9.42430446,12.4126919 9.69403906,12.6908557 C9.96377366,12.9690195 10.4040089,12.9660196 10.677332,12.6841552 L11.4648214,11.8720567 Z M6.29865723,10.5629144 C6.37488487,9.36823662 6.75978597,8.30036392 7.45153486,7.37761848 C8.57711843,5.8761674 10.1629992,5.06930207 11.8588245,5.0038849 C13.6274066,4.93566111 15.4180496,5.76734987 16.5707986,7.39301361 C17.2688663,8.37746331 17.6608503,9.4683604 17.7417568,10.6504762 C18.8099478,10.7959768 19.666352,11.1357341 20.3035237,11.6856275 C21.2481915,12.5008969 21.8196346,13.6728288 21.9502875,14.6773418 C22.1110867,15.9136312 21.9052851,17.0868747 20.9860017,18.3104965 C20.2119634,19.3407882 19.1114625,19.9061653 17.6914844,20 L6.97326571,19.9999857 C5.48431279,19.990201 4.30080915,19.5983958 3.45140777,18.8005014 C2.6047569,18.0051908 2.12247116,16.9112385 2,15.474395 C2.02935932,14.0984691 2.45936992,12.9485633 3.28988184,12.0636906 C4.00739533,11.2992126 5.01538942,10.8039032 6.29865723,10.5629144 Z"/>
</svg>
