<svg xmlns="http://www.w3.org/2000/svg" width="24" height="24" viewBox="0 0 24 24">
  <g fill="none" fill-rule="evenodd" transform="translate(-720 -864)">
    <path fill="#555" fill-rule="nonzero" d="M20.141415,9.67583028 C19.9280147,9.6574839 19.7134587,9.6574839 19.5000584,9.67583028 C19.3320965,8.92194169 18.6609394,8.39277683 17.896667,8.41165779 L13.2468318,8.41165779 C13.8381587,7.79284037 14.2439816,7.0173705 14.4173075,6.17504496 C14.5730407,5.18217961 14.2234236,4.17682162 13.4873405,3.50083394 C13.2788996,3.27393119 13.19873,3.17668715 13.1826961,3.07944312 C13.1343596,2.69284832 13.2254349,2.30159161 13.4392387,1.97734402 C13.5508679,1.79797222 13.685673,1.63445634 13.8400866,1.49112385 C14.0692212,1.3174141 14.189269,1.03333562 14.155009,0.745898021 C14.120749,0.458460417 13.9373862,0.2113323 13.6739915,0.0976044396 C13.4105969,-0.0161234212 13.1071863,0.0208269418 12.8780517,0.194536684 C12.5620994,0.455524539 12.2911871,0.767705036 12.076356,1.11835504 C11.6407376,1.77504926 11.4687534,2.57473357 11.5953385,3.35496788 C11.6968004,3.83483537 11.9433417,4.27094918 12.3008308,4.60293303 C12.7032837,4.91562611 12.9059304,5.42461898 12.82995,5.93193487 C12.6232915,6.61772615 12.228568,7.23026466 11.691542,7.69853487 C11.5029564,7.87678255 11.4130468,8.13731109 11.4510333,8.39545045 L10.0560827,8.39545045 C10.6452842,7.77507785 11.0507647,7.00026221 11.2265585,6.15883762 C11.3822917,5.16597227 11.0326746,4.16061428 10.2965915,3.4846266 C10.1041845,3.27393119 10.007981,3.16047981 9.99194708,3.06323578 C9.93422697,2.67619766 10.0260912,2.28155165 10.2484897,1.96113668 C10.3602728,1.78187792 10.4950618,1.61838163 10.6493376,1.47491651 C11.003549,1.20638452 11.0753353,0.698445408 10.8096767,0.340402749 C10.5440181,-0.017639909 10.0415142,-0.0902026437 9.68730271,0.178329345 C9.37093357,0.438880523 9.09995549,0.751136806 8.88560696,1.10214771 C8.44998856,1.75884192 8.27800435,2.55852623 8.40458953,3.33876054 C8.50802534,3.81786348 8.75424648,4.25341102 9.11008177,4.58672569 C9.51253469,4.89941877 9.71518143,5.40841164 9.63920096,5.91572753 C9.43581541,6.60305712 9.04053385,7.21646148 8.50079302,7.68232753 C8.31220736,7.86057521 8.22229779,8.12110376 8.2602843,8.37924312 L6.86533373,8.37924312 C7.45666069,7.76042569 7.86248359,6.98495582 8.0358095,6.14263028 C8.19154267,5.14976492 7.84192561,4.14440694 7.10584244,3.46841926 C6.89740156,3.24151651 6.81723198,3.14427247 6.80119807,3.04702844 C6.75286157,2.66043364 6.84393689,2.26917693 7.0577407,1.94492935 C7.16921375,1.76544301 7.30403541,1.60190712 7.45858856,1.45870917 C7.81280001,1.19017718 7.88458629,0.682238073 7.6189277,0.32419542 C7.35326911,-0.0338472327 6.85076516,-0.106409971 6.4965537,0.162122006 C6.18060143,0.423109859 5.9096891,0.735290356 5.69485795,1.08594037 C5.25923955,1.74263458 5.08725534,2.54231889 5.21384052,3.3225532 C5.31530243,3.80242069 5.56184369,4.2385345 5.91933275,4.57051835 C6.32178567,4.88321143 6.52443242,5.3922043 6.44845195,5.89952019 C6.24179353,6.58531147 5.84706994,7.19784998 5.31004401,7.66612019 C5.12145835,7.84436787 5.03154877,8.10489642 5.06953529,8.36303578 L1.60620974,8.36303578 C1.18096388,8.36303578 0.773134987,8.53379118 0.472440759,8.83773776 C0.171746531,9.14168433 0.00281827237,9.55392435 0.00281827237,9.98376972 L0.00281827237,16.5639495 C0.0380995655,20.6930314 3.3736242,24.0138782 7.45858856,23.986911 L12.2687629,23.986911 C16.2957458,24.0147779 19.6037674,20.7790733 19.7084993,16.7098156 C19.8604193,16.8664888 20.0686901,16.954207 20.2857203,16.9529257 C22.3268638,16.9529257 23.9815376,15.2803548 23.9815376,13.2171339 C23.9815376,11.1539131 22.3268638,9.48134221 20.2857203,9.48134221 L20.141415,9.67583028 Z M17.9768365,16.7584376 C17.9415937,19.9924183 15.3239162,22.5876639 12.1244577,22.5606651 L7.31428333,22.5606651 C4.11482486,22.5876639 1.49714738,19.9924183 1.46190451,16.7584376 L1.46190451,10.1134284 L17.8485652,10.1134284 L17.9768365,16.7584376 Z M20.141415,15.5266798 C19.9322305,15.5254096 19.7308398,15.6068371 19.580228,15.7535826 L19.580228,11.3776009 C19.7629671,11.3258385 19.9516471,11.2985927 20.141415,11.2965642 C21.2970299,11.2965642 22.2338409,12.2435079 22.2338409,13.411622 C22.2338409,14.5797362 21.2970299,15.5266798 20.141415,15.5266798 Z" transform="translate(720 864)"/>
  </g>
</svg>
