<svg xmlns="http://www.w3.org/2000/svg" width="24" height="24" viewBox="0 0 24 24">
  <path fill="#555" d="M3.38197865,10.5046848 L3.38199932,15.5631773 C3.38199932,18.3563179 5.64597172,20.6206084 8.43875483,20.6206177 L12.1164674,20.6206981 C14.9092315,20.620687 17.1732052,18.3563849 17.1731941,15.5632501 L17.1731285,10.5057016 L3.38197865,10.5046848 Z M13.4250279,9.12640952 L17.306126,9.12640952 C17.7430066,9.14261066 18.0599124,9.25440509 18.2568432,9.46179281 C18.3652814,9.57598899 18.4438644,9.71957281 18.492592,9.89254425 C18.512447,9.89220619 18.5323229,9.89203692 18.5522181,9.89203692 C20.4563755,9.89203692 22,11.4358732 22,13.3402917 C22,15.2447103 20.4563755,16.7885465 18.5522181,16.7885465 C18.5134707,16.7885465 18.4747985,16.7879045 18.4362134,16.7866241 C17.8648718,19.7564709 15.2526403,21.9999876 12.1164728,22 L8.43872469,21.9999196 C4.88430599,21.9999078 2.00288658,19.1180836 2.00288658,15.5631773 L2.00286522,10.3367322 C1.9832058,9.90387044 2.06471475,9.59740722 2.24739206,9.41734256 C2.43006936,9.2372779 2.699557,9.14030022 3.05585498,9.12640952 L6.00930891,9.12640952 C6.04674279,9.06436735 6.09466888,9.00721544 6.15287076,8.95765169 C6.76165561,8.43922067 7.15955413,7.89859775 7.35998008,7.33601443 C7.47365368,7.01693962 7.46146952,6.82651397 7.33804655,6.56463778 C7.25990012,6.39882836 6.76908244,5.62321744 6.67052633,5.44892126 C6.13215786,4.49681825 6.42865329,3.40483106 7.39929252,2.246651 C7.64393006,1.95474613 8.07885117,1.91645559 8.370716,2.16112669 C8.66258084,2.40579779 8.70086613,2.84077855 8.45622859,3.13268342 C7.81442645,3.89849054 7.67291366,4.41967954 7.87097011,4.76994178 C7.93242021,4.8786161 8.46388494,5.71845921 8.58551882,5.97653935 C8.86134377,6.56177877 8.89765735,7.12932211 8.65909115,7.79896276 C8.49319536,8.26462206 8.24216054,8.70708941 7.90857695,9.12640952 L8.7675344,9.12640952 C8.80496828,9.06436735 8.85289437,9.00721544 8.91109625,8.95765169 C9.5198811,8.43922067 9.91777962,7.89859775 10.1182056,7.33601443 C10.2318792,7.01693962 10.219695,6.82651397 10.096272,6.56463778 C10.0181256,6.39882836 9.52730793,5.62321744 9.42875181,5.44892126 C8.89038335,4.49681825 9.18687878,3.40483106 10.157518,2.246651 C10.4021556,1.95474613 10.8370767,1.91645559 11.1289415,2.16112669 C11.4208063,2.40579779 11.4590916,2.84077855 11.2144541,3.13268342 C10.5726519,3.89849054 10.4311391,4.41967954 10.6291956,4.76994178 C10.6906457,4.8786161 11.2221104,5.71845921 11.3437443,5.97653935 C11.6195693,6.56177877 11.6558828,7.12932211 11.4173166,7.79896276 C11.2514208,8.26462206 11.000386,8.70708941 10.6668024,9.12640952 L11.5257599,9.12640952 C11.5631938,9.06436735 11.6111199,9.00721544 11.6693217,8.95765169 C12.2781066,8.43922067 12.6760051,7.89859775 12.8764311,7.33601443 C12.9901047,7.01693962 12.9779205,6.82651397 12.8544975,6.56463778 C12.7763511,6.39882836 12.2855334,5.62321744 12.1869773,5.44892126 C11.6486088,4.49681825 11.9451043,3.40483106 12.9157435,2.246651 C13.160381,1.95474613 13.5953021,1.91645559 13.887167,2.16112669 C14.1790318,2.40579779 14.2173171,2.84077855 13.9726796,3.13268342 C13.3308774,3.89849054 13.1893646,4.41967954 13.3874211,4.76994178 C13.4488712,4.8786161 13.9803359,5.71845921 14.1019698,5.97653935 C14.3777947,6.56177877 14.4141083,7.12932211 14.1755421,7.79896276 C14.0096463,8.26462206 13.7586115,8.70708941 13.4250279,9.12640952 Z M18.5522511,11.2713388 L18.5523049,15.4092446 C19.6947594,15.4091977 20.6208873,14.4829139 20.6208873,13.3402917 C20.6208873,12.1976516 19.6947304,11.2713567 18.5522511,11.2713388 Z"/>
</svg>
