<svg xmlns="http://www.w3.org/2000/svg" width="24" height="24" viewBox="0 0 24 24">
  <g fill="none" fill-rule="evenodd" transform="translate(-648 -936)">
    <path fill="#555" fill-rule="nonzero" d="M2.52017651,10.3551533 L2.52019925,15.919495 C2.52019925,18.9919497 5.01056889,21.4826693 8.08263032,21.4826794 L12.1281141,21.4827679 C15.2001546,21.4827557 17.6905257,18.9920234 17.6905135,15.9195751 L17.6904413,10.3562718 L2.52017651,10.3551533 Z M13.5675307,8.83905047 L17.8367386,8.83905047 C18.3173073,8.85687173 18.6659036,8.9798456 18.8825275,9.20797209 C19.0018096,9.33358789 19.0882508,9.49153009 19.1418513,9.68179867 C19.1636917,9.68142681 19.1855552,9.68124061 19.20744,9.68124061 C21.302013,9.68124061 23,11.3794605 23,13.4743209 C23,15.5691813 21.302013,17.2674012 19.20744,17.2674012 C19.1648178,17.2674012 19.1222783,17.2666949 19.0798347,17.2652865 C18.451359,20.532118 15.5779043,22.9999863 12.1281201,23 L8.08259716,22.9999116 C4.17273659,22.9998986 1.00317523,19.8298919 1.00317523,15.919495 L1.00315174,10.1704054 C0.981526384,9.69425748 1.07118622,9.35714794 1.27213126,9.15907682 C1.4730763,8.96100569 1.7695127,8.85433024 2.16144048,8.83905047 L5.4102398,8.83905047 C5.45141707,8.77080408 5.50413577,8.70793698 5.56815784,8.65341686 C6.23782117,8.08314274 6.67550954,7.48845752 6.89597808,6.86961588 C7.02101904,6.51863358 7.00761647,6.30916536 6.87185121,6.02110156 C6.78589013,5.8387112 6.24599068,4.98553919 6.13757896,4.79381338 C5.54537365,3.74650008 5.87151862,2.54531416 6.93922178,1.2713161 C7.20832307,0.950220741 7.68673629,0.908101149 8.00778761,1.17723936 C8.32883892,1.44637756 8.37095274,1.92485641 8.10185144,2.24595177 C7.3958691,3.08833959 7.24020503,3.6616475 7.45806712,4.04693596 C7.52566224,4.16647771 8.11027343,5.09030513 8.2440707,5.37419328 C8.54747815,6.01795664 8.58742308,6.64225432 8.32500027,7.37885904 C8.1425149,7.89108427 7.86637659,8.37779835 7.49943464,8.83905047 L8.44428784,8.83905047 C8.48546511,8.77080408 8.53818381,8.70793698 8.60220588,8.65341686 C9.27186921,8.08314274 9.70955758,7.48845752 9.93002612,6.86961588 C10.0550671,6.51863358 10.0416645,6.30916536 9.90589924,6.02110156 C9.81993817,5.8387112 9.28003872,4.98553919 9.171627,4.79381338 C8.57942168,3.74650008 8.90556666,2.54531416 9.97326981,1.2713161 C10.2423711,0.950220741 10.7207843,0.908101149 11.0418356,1.17723936 C11.362887,1.44637756 11.4050008,1.92485641 11.1358995,2.24595177 C10.4299171,3.08833959 10.2742531,3.6616475 10.4921152,4.04693596 C10.5597103,4.16647771 11.1443215,5.09030513 11.2781187,5.37419328 C11.5815262,6.01795664 11.6214711,6.64225432 11.3590483,7.37885904 C11.1765629,7.89108427 10.9004246,8.37779835 10.5334827,8.83905047 L11.4783359,8.83905047 C11.5195131,8.77080408 11.5722318,8.70793698 11.6362539,8.65341686 C12.3059172,8.08314274 12.7436056,7.48845752 12.9640742,6.86961588 C13.0891151,6.51863358 13.0757125,6.30916536 12.9399473,6.02110156 C12.8539862,5.8387112 12.3140868,4.98553919 12.205675,4.79381338 C11.6134697,3.74650008 11.9396147,2.54531416 13.0073178,1.2713161 C13.2764191,0.950220741 13.7548324,0.908101149 14.0758837,1.17723936 C14.396935,1.44637756 14.4390488,1.92485641 14.1699475,2.24595177 C13.4639652,3.08833959 13.3083011,3.6616475 13.5261632,4.04693596 C13.5937583,4.16647771 14.1783695,5.09030513 14.3121668,5.37419328 C14.6155742,6.01795664 14.6555192,6.64225432 14.3930963,7.37885904 C14.210611,7.89108427 13.9344727,8.37779835 13.5675307,8.83905047 Z M19.2074762,11.1984727 L19.2075353,15.7501691 C20.4642353,15.7501175 21.482976,14.7312053 21.482976,13.4743209 C21.482976,12.2174168 20.4642034,11.1984923 19.2074762,11.1984727 Z" transform="translate(648 936)"/>
  </g>
</svg>
