<svg xmlns="http://www.w3.org/2000/svg" width="20" height="20" viewBox="0 0 20 20">
  <path fill="#555" d="M1.38197865,8.50468479 L1.38199932,13.5631773 C1.38199932,16.3563179 3.64597172,18.6206084 6.43875483,18.6206177 L10.1164674,18.6206981 C12.9092315,18.620687 15.1732052,16.3563849 15.1731941,13.5632501 L15.1731285,8.50570164 L1.38197865,8.50468479 Z M11.4250279,7.12640952 L15.306126,7.12640952 C15.7430066,7.14261066 16.0599124,7.25440509 16.2568432,7.46179281 C16.3652814,7.57598899 16.4438644,7.71957281 16.492592,7.89254425 C16.512447,7.89220619 16.5323229,7.89203692 16.5522181,7.89203692 C18.4563755,7.89203692 20,9.43587318 20,11.3402917 C20,13.2447103 18.4563755,14.7885465 16.5522181,14.7885465 C16.5134707,14.7885465 16.4747985,14.7879045 16.4362134,14.7866241 C15.8648718,17.7564709 13.2526403,19.9999876 10.1164728,20 L6.43872469,19.9999196 C2.88430599,19.9999078 0.00288657549,17.1180836 0.00288657549,13.5631773 L0.00286521846,8.33673221 C-0.0167941967,7.90387044 0.0647147488,7.59740722 0.247392055,7.41734256 C0.430069361,7.2372779 0.699557002,7.14030022 1.05585498,7.12640952 L4.00930891,7.12640952 C4.04674279,7.06436735 4.09466888,7.00721544 4.15287076,6.95765169 C4.76165561,6.43922067 5.15955413,5.89859775 5.35998008,5.33601443 C5.47365368,5.01693962 5.46146952,4.82651397 5.33804655,4.56463778 C5.25990012,4.39882836 4.76908244,3.62321744 4.67052633,3.44892126 C4.13215786,2.49681825 4.42865329,1.40483106 5.39929252,0.246650998 C5.64393006,-0.0452538722 6.07885117,-0.0835444104 6.370716,0.161126688 C6.66258084,0.405797785 6.70086613,0.840778552 6.45622859,1.13268342 C5.81442645,1.89849054 5.67291366,2.41967954 5.87097011,2.76994178 C5.93242021,2.8786161 6.46388494,3.71845921 6.58551882,3.97653935 C6.86134377,4.56177877 6.89765735,5.12932211 6.65909115,5.79896276 C6.49319536,6.26462206 6.24216054,6.70708941 5.90857695,7.12640952 L6.7675344,7.12640952 C6.80496828,7.06436735 6.85289437,7.00721544 6.91109625,6.95765169 C7.5198811,6.43922067 7.91777962,5.89859775 8.11820556,5.33601443 C8.23187916,5.01693962 8.21969501,4.82651397 8.09627204,4.56463778 C8.0181256,4.39882836 7.52730793,3.62321744 7.42875181,3.44892126 C6.89038335,2.49681825 7.18687878,1.40483106 8.15751801,0.246650998 C8.40215555,-0.0452538722 8.83707666,-0.0835444104 9.12894149,0.161126688 C9.42080633,0.405797785 9.45909161,0.840778552 9.21445407,1.13268342 C8.57265194,1.89849054 8.43113915,2.41967954 8.6291956,2.76994178 C8.6906457,2.8786161 9.22211043,3.71845921 9.34374431,3.97653935 C9.61956926,4.56177877 9.65588284,5.12932211 9.41731664,5.79896276 C9.25142085,6.26462206 9.00038602,6.70708941 8.66680244,7.12640952 L9.52575988,7.12640952 C9.56319377,7.06436735 9.61111986,7.00721544 9.66932174,6.95765169 C10.2781066,6.43922067 10.6760051,5.89859775 10.8764311,5.33601443 C10.9901047,5.01693962 10.9779205,4.82651397 10.8544975,4.56463778 C10.7763511,4.39882836 10.2855334,3.62321744 10.1869773,3.44892126 C9.64860884,2.49681825 9.94510427,1.40483106 10.9157435,0.246650998 C11.160381,-0.0452538722 11.5953021,-0.0835444104 11.887167,0.161126688 C12.1790318,0.405797785 12.2173171,0.840778552 11.9726796,1.13268342 C11.3308774,1.89849054 11.1893646,2.41967954 11.3874211,2.76994178 C11.4488712,2.8786161 11.9803359,3.71845921 12.1019698,3.97653935 C12.3777947,4.56177877 12.4141083,5.12932211 12.1755421,5.79896276 C12.0096463,6.26462206 11.7586115,6.70708941 11.4250279,7.12640952 Z M16.5522511,9.27133884 L16.5523049,13.4092446 C17.6947594,13.4091977 18.6208873,12.4829139 18.6208873,11.3402917 C18.6208873,10.1976516 17.6947304,9.27135668 16.5522511,9.27133884 Z"/>
</svg>
