<svg xmlns="http://www.w3.org/2000/svg" width="20" height="20" viewBox="0 0 20 20">
  <path fill="#555" d="M18.6206897,3.44827586 L15.1724138,3.44827586 C15.1724138,1.54384569 13.6285681,0 11.7241379,0 C9.81970776,0 8.27586207,1.54384569 8.27586207,3.44827586 L4.82758621,3.44827586 C4.06581414,3.44827586 3.44827586,4.06581414 3.44827586,4.82758621 L3.44827586,8.27586207 C1.54384569,8.27586207 0,9.81970776 0,11.7241379 C0,13.6285681 1.54384569,15.1724138 3.44827586,15.1724138 L3.44827586,18.6206897 C3.44827586,19.3824617 4.06581414,20 4.82758621,20 L9.65517241,20 L9.65517241,18.6206897 C9.65517241,17.4780316 10.5814798,16.5517241 11.7241379,16.5517241 C12.866796,16.5517241 13.7931034,17.4780316 13.7931034,18.6206897 L13.7931034,20 L18.6206897,20 C19.3824617,20 20,19.3824617 20,18.6206897 L20,13.7931034 L18.6206897,13.7931034 C17.4780316,13.7931034 16.5517241,12.866796 16.5517241,11.7241379 C16.5517241,10.5814798 17.4780316,9.65517241 18.6206897,9.65517241 L20,9.65517241 L20,4.82758621 C20,4.06581414 19.3824617,3.44827586 18.6206897,3.44827586 Z M15.1724138,11.7241379 C15.1724138,13.6285681 16.7162595,15.1724138 18.6206897,15.1724138 L18.6206897,18.6206897 L15.1724138,18.6206897 C15.1724138,17.3887393 14.5151762,16.2503703 13.4482759,15.6343951 C12.3813756,15.0184199 11.0669003,15.0184199 9.99999998,15.6343951 C8.9330997,16.2503703 8.27586204,17.3887393 8.27586207,18.6206897 L4.82758621,18.6206897 L4.82758621,13.7931034 L3.44827586,13.7931034 C2.30561776,13.7931034 1.37931034,12.866796 1.37931034,11.7241379 C1.37931034,10.5814798 2.30561776,9.65517241 3.44827586,9.65517241 L4.82758621,9.65517241 L4.82758621,4.82758621 L9.65517241,4.82758621 L9.65517241,3.44827586 C9.65517241,2.30561776 10.5814798,1.37931034 11.7241379,1.37931034 C12.866796,1.37931034 13.7931034,2.30561776 13.7931034,3.44827586 L13.7931034,4.82758621 L18.6206897,4.82758621 L18.6206897,8.27586207 C16.7162595,8.27586207 15.1724138,9.81970776 15.1724138,11.7241379 Z"/>
</svg>
