<svg xmlns="http://www.w3.org/2000/svg" width="24" height="24" viewBox="0 0 24 24">
  <g fill="none" fill-rule="evenodd" transform="translate(-696 -792)">
    <path fill="#555" fill-rule="nonzero" d="M12,23 C5.92486775,23 1,18.0751322 1,12 C1,5.92486775 5.92486775,1 12,1 C18.0751322,1 23,5.92486775 23,12 C23,18.0751322 18.0751322,23 12,23 Z M12,21.4651163 C17.2274394,21.4651163 21.4651163,17.2274394 21.4651163,12 C21.4651163,6.77256062 17.2274394,2.53488372 12,2.53488372 C6.77256062,2.53488372 2.53488372,6.77256062 2.53488372,12 C2.53488372,17.2274394 6.77256062,21.4651163 12,21.4651163 Z M15.4797628,7.06595834 C15.8380551,7.29239254 15.9449472,7.76640701 15.718513,8.12469928 C15.4920788,8.48299155 15.0180643,8.58988363 14.659772,8.36344943 C13.9284246,7.90125115 13.0731514,7.65116279 12.1769109,7.65116279 C9.67168139,7.65116279 7.65116279,9.6041509 7.65116279,12 C7.65116279,14.3958491 9.67168139,16.3488372 12.1769109,16.3488372 C13.0584099,16.3488372 13.9003617,16.1069374 14.6240306,15.6589078 C14.9844026,15.4357984 15.4574077,15.5470717 15.6805172,15.9074437 C15.9036266,16.2678157 15.7923533,16.7408209 15.4319813,16.9639303 C14.4667723,17.5614995 13.3452544,17.8837209 12.1769109,17.8837209 C8.83544421,17.8837209 6.11627907,15.2554367 6.11627907,12 C6.11627907,8.74456329 8.83544421,6.11627907 12.1769109,6.11627907 C13.3648671,6.11627907 14.5042243,6.44943574 15.4797628,7.06595834 Z" transform="translate(696 792)"/>
  </g>
</svg>
