<svg xmlns="http://www.w3.org/2000/svg" width="24" height="24" viewBox="0 0 24 24">
  <g fill="none" fill-rule="evenodd" transform="translate(-744 -984)">
    <path fill="#555" fill-rule="nonzero" d="M18.4771574,0 L8.95940342,0 C8.11969246,0 7.43653566,0.685371514 7.43653566,1.52777953 L7.43653566,1.78240945 L5.88832487,1.78240945 C5.2503284,1.78240945 4.7045615,2.18492883 4.48923361,2.75000316 L1.52284264,2.75000316 C0.683156796,2.75000316 0,3.43537467 0,4.27778269 L0,20.4722205 C0,21.3146285 0.683156796,22 1.52284264,22 L15.0253807,22 C15.8650666,22 16.5482234,21.3146285 16.5482234,20.4722205 L16.5482234,19.2499968 L18.4771574,19.2499968 C19.3168432,19.2499968 20,18.5646253 20,17.7222173 L20,1.52777953 C20,0.685371539 19.3168432,0 18.4771574,0 Z M5.88832487,2.80092914 L10.6599236,2.80092914 C10.9258371,2.80092914 11.1421445,3.01796303 11.1421445,3.2847134 C11.1421445,3.55148896 10.925812,3.76849766 10.6599236,3.76849766 L5.88832487,3.76849763 C5.62241137,3.76849763 5.40610392,3.55146375 5.40610392,3.28471338 C5.40607881,3.01796303 5.62241137,2.80092914 5.88832487,2.80092914 Z M15.5329949,20.4722205 C15.5329949,20.7530063 15.3052592,20.9814803 15.0253807,20.9814803 L1.52284264,20.9814803 C1.242939,20.9814803 1.01522844,20.7530063 1.01522844,20.4722205 L1.01522844,4.27778269 C1.01522844,3.99699682 1.242939,3.76852285 1.52284264,3.76852285 L4.47097355,3.76852285 C4.6721857,4.3601815 5.23131484,4.78704255 5.88829974,4.78704255 L10.6598985,4.78704255 C11.3169085,4.78704255 11.8760125,4.3601815 12.0772246,3.76852285 L15.0253556,3.76852285 C15.3052341,3.76852285 15.5329698,3.99699682 15.5329698,4.27778269 L15.5329698,20.4722205 L15.5329949,20.4722205 Z M18.9847716,17.7222173 C18.9847716,18.0030032 18.7570359,18.2314771 18.4771574,18.2314771 L16.5482234,18.2314771 L16.5482234,4.27778269 C16.5482234,3.43537467 15.8650666,2.75000316 15.0253807,2.75000316 L12.0589897,2.75000316 C11.843687,2.18492885 11.2979201,1.78240945 10.6598985,1.78240945 L8.45173899,1.78240945 L8.45173897,1.52777953 C8.45173897,1.24696847 8.67947464,1.0185197 8.95940342,1.0185197 L18.4771574,1.0185197 C18.7570359,1.0185197 18.9847716,1.24696847 18.9847716,1.52777953 L18.9847716,17.7222173 Z M12.6655146,6.62307419 L3.83305243,6.62307419 C3.55269667,6.62307419 3.32543823,6.8510946 3.32543823,7.13233403 C3.32543823,7.41357346 3.55269667,7.64159386 3.83305243,7.64159386 L12.6655397,7.64159386 C12.9458704,7.64159386 13.1731539,7.41357346 13.1731539,7.13233403 C13.1731539,6.8510946 12.9458453,6.62307419 12.6655146,6.62307419 Z M12.6655146,9.57675606 L3.83305243,9.57675606 C3.55269667,9.57675606 3.32543823,9.80477647 3.32543823,10.0860159 C3.32543823,10.3672553 3.55269667,10.5952757 3.83305243,10.5952757 L12.6655397,10.5952757 C12.9458704,10.5952757 13.1731539,10.3672553 13.1731539,10.0860159 C13.1731288,9.80480166 12.9458453,9.57675606 12.6655146,9.57675606 Z M8.24929609,12.5304631 L3.83305243,12.5304631 C3.55269667,12.5304631 3.32543823,12.7584836 3.32543823,13.039723 C3.32543823,13.3209624 3.55269667,13.5489828 3.83305243,13.5489828 L8.24929609,13.5489828 C8.52962672,13.5489828 8.75691029,13.3209624 8.75691029,13.039723 C8.75691032,12.7584836 8.52960163,12.5304631 8.24929609,12.5304631 Z" transform="translate(746 985)"/>
  </g>
</svg>
