<svg xmlns="http://www.w3.org/2000/svg" width="24" height="24" viewBox="0 0 24 24">
  <path fill="#555" d="M12,22 C6.4771525,22 2,17.5228475 2,12 C2,6.4771525 6.4771525,2 12,2 C17.5228475,2 22,6.4771525 22,12 C22,17.5228475 17.5228475,22 12,22 Z M12,20.6046512 C16.7522176,20.6046512 20.6046512,16.7522176 20.6046512,12 C20.6046512,7.24778239 16.7522176,3.39534884 12,3.39534884 C7.24778239,3.39534884 3.39534884,7.24778239 3.39534884,12 C3.39534884,16.7522176 7.24778239,20.6046512 12,20.6046512 Z M15.1634208,7.51450758 C15.489141,7.72035686 15.5863156,8.1512791 15.3804664,8.47699935 C15.1746171,8.80271959 14.7436948,8.89989421 14.4179746,8.69404493 C13.7531133,8.27386468 12.9755922,8.04651163 12.1608281,8.04651163 C9.88334672,8.04651163 8.04651163,9.82195536 8.04651163,12 C8.04651163,14.1780446 9.88334672,15.9534884 12.1608281,15.9534884 C12.9621908,15.9534884 13.7276015,15.7335795 14.3854823,15.3262798 C14.7130933,15.1234531 15.143098,15.2246106 15.3459247,15.5522215 C15.5487514,15.8798325 15.4475939,16.3098372 15.119983,16.5126639 C14.2425202,17.0559086 13.2229586,17.3488372 12.1608281,17.3488372 C9.1231311,17.3488372 6.65116279,14.9594879 6.65116279,12 C6.65116279,9.04051208 9.1231311,6.65116279 12.1608281,6.65116279 C13.2407883,6.65116279 14.2765676,6.95403249 15.1634208,7.51450758 Z"/>
</svg>
