<svg xmlns="http://www.w3.org/2000/svg" width="24" height="24" viewBox="0 0 24 24">
  <g fill="none" fill-rule="evenodd" transform="translate(-168 -1032)">
    <path fill="#555" fill-rule="nonzero" d="M8.27113692,4.28171101 C8.11583868,4.28171101 7.98994458,4.40555708 7.98994458,4.55832894 C7.98994458,4.7111008 8.11583868,4.83494687 8.27113692,4.83494687 L12.3967638,4.83494687 C12.552062,4.83494687 12.6779561,4.7111008 12.6779561,4.55832894 C12.6779561,4.40555708 12.552062,4.28171101 12.3967638,4.28171101 L8.27113692,4.28171101 Z M14.1119654,4.08217839 L16.5288328,4.08219145 C17.2193008,4.08673273 17.7755847,4.30777206 18.1196072,4.78361907 C18.4157789,5.19327958 18.5328677,5.7188947 18.5032101,6.31003592 L18.5010157,20.6232545 C18.5482887,21.2299489 18.4317626,21.7671795 18.1361458,22.2119302 C17.7897844,22.7330253 17.2239095,22.9939623 16.5238167,23 L4.37773332,22.9994462 C3.53332948,22.9672504 2.90819782,22.7703536 2.51690704,22.3306279 C2.15311523,21.9218051 1.99414042,21.3616583 2.00057864,20.6796628 L2.00074338,6.32550202 C1.9866885,5.66583852 2.17168085,5.10856661 2.57702775,4.69749279 C2.99420375,4.27442274 3.61200552,4.08727654 4.40679127,4.08217495 L6.55593624,4.08217495 C6.76682581,3.3455418 7.45488127,2.80558084 8.27113692,2.80558084 L12.3967638,2.80558084 C13.2130207,2.80558084 13.901077,3.34554348 14.1119654,4.08217839 Z M13.8602657,5.55830513 C13.5384172,6.01328679 13.0029419,6.31107704 12.3967638,6.31107704 L8.27113692,6.31107704 C7.66495759,6.31107704 7.12948137,6.0132856 6.80763303,5.55830241 L4.41170183,5.55828932 C3.98647781,5.56102721 3.74345761,5.63464355 3.65408888,5.72527492 C3.55289106,5.82790252 3.4947439,6.00306532 3.50111948,6.31003592 L3.50108745,20.6864826 C3.49772565,21.0443751 3.5591434,21.2607802 3.64596874,21.358353 C3.70529512,21.4250229 3.96373238,21.5064225 4.40679127,21.5238698 L16.5172083,21.5238985 C16.7392241,21.5219747 16.8296034,21.4802988 16.8802506,21.404101 C16.9816422,21.2515589 17.0282771,21.0365543 17.0026693,20.6796628 L17.0035293,6.27470753 C17.0192665,5.95165079 16.9731943,5.74483119 16.8967891,5.63914864 C16.8682347,5.5996526 16.7682643,5.55992938 16.5238167,5.55830513 L13.8602657,5.55830513 Z M17.8239582,20.427392 L17.8239582,18.9512619 L19.9992789,18.9512619 C20.2755208,18.9512619 20.4994592,18.7309665 20.4994592,18.4592185 L20.4994592,2.96817356 C20.4994592,2.6964255 20.2755208,2.47613017 19.9992789,2.47613017 L11.603709,2.47613017 C11.3274671,2.47613017 11.1035287,2.6964255 11.1035287,2.96817356 L11.1035287,3.14019213 L9.60298791,3.14019213 L9.60298791,2.96817356 C9.60298791,1.88118132 10.4987413,1 11.603709,1 L19.9992789,1 C21.1042466,1 22,1.88118132 22,2.96817356 L22,18.4592185 C22,19.5462107 21.1042466,20.427392 19.9992789,20.427392 L17.8239582,20.427392 Z M17.8239582,20.427392 L17.8239582,18.9512619 L19.9992789,18.9512619 C20.2755208,18.9512619 20.4994592,18.7309665 20.4994592,18.4592185 L20.4994592,2.96817356 C20.4994592,2.6964255 20.2755208,2.47613017 19.9992789,2.47613017 L11.603709,2.47613017 C11.3274671,2.47613017 11.1035287,2.6964255 11.1035287,2.96817356 L11.1035287,3.14019213 L9.60298791,3.14019213 L9.60298791,2.96817356 C9.60298791,1.88118132 10.4987413,1 11.603709,1 L19.9992789,1 C21.1042466,1 22,1.88118132 22,2.96817356 L22,18.4592185 C22,19.5462107 21.1042466,20.427392 19.9992789,20.427392 L17.8239582,20.427392 Z M5.49405082,9.49793528 C5.07968791,9.49793528 4.7437804,9.16749228 4.7437804,8.75987019 C4.7437804,8.3522481 5.07968791,8.02180511 5.49405082,8.02180511 L14.4972958,8.02180511 C14.9116587,8.02180511 15.2475662,8.3522481 15.2475662,8.75987019 C15.2475662,9.16749228 14.9116587,9.49793528 14.4972958,9.49793528 L5.49405082,9.49793528 Z M5.49405082,12.4501956 C5.07968791,12.4501956 4.7437804,12.1197526 4.7437804,11.7121305 C4.7437804,11.3045084 5.07968791,10.9740654 5.49405082,10.9740654 L14.4972958,10.9740654 C14.9116587,10.9740654 15.2475662,11.3045084 15.2475662,11.7121305 C15.2475662,12.1197526 14.9116587,12.4501956 14.4972958,12.4501956 L5.49405082,12.4501956 Z M5.49405082,15.402456 C5.07968791,15.402456 4.7437804,15.072013 4.7437804,14.6643909 C4.7437804,14.2567688 5.07968791,13.9263258 5.49405082,13.9263258 L9.99567332,13.9263258 C10.4100362,13.9263258 10.7459437,14.2567688 10.7459437,14.6643909 C10.7459437,15.072013 10.4100362,15.402456 9.99567332,15.402456 L5.49405082,15.402456 Z" transform="translate(168 1032)"/>
  </g>
</svg>
