<svg xmlns="http://www.w3.org/2000/svg" width="24" height="24" viewBox="0 0 24 24">
  <g fill="none" fill-rule="evenodd" transform="translate(-696 -792)">
    <path fill="#555" fill-rule="nonzero" d="M12,0 C5.37257143,0 0,5.37259821 0,12 C0,18.6274018 5.37257143,24 12,24 C18.6274286,24 24,18.6274286 24,12 C24,5.37257143 18.6274286,0 12,0 Z M12,22.2857143 C6.31933929,22.2857143 1.71428571,17.6806339 1.71428571,12 C1.71428571,6.31936607 6.31933929,1.71428571 12,1.71428571 C17.6806339,1.71428571 22.2857143,6.31936607 22.2857143,12 C22.2857143,17.6806339 17.6806339,22.2857143 12,22.2857143 Z M15.7004464,16.9834018 C15.4637411,16.5734464 14.9395179,16.4329821 14.5295625,16.6696607 C12.0609107,18.0949554 8.89299107,17.2461161 7.46772321,14.7774375 C7.22466964,14.3564464 7.04788393,13.915125 6.93383036,13.4655804 C6.9324375,13.4600625 6.93099107,13.4545714 6.929625,13.4490804 C6.92292857,13.4223482 6.91674107,13.3955625 6.9105,13.3687768 C6.90626786,13.3505089 6.90192857,13.3322946 6.89788393,13.314 C6.89477679,13.2999375 6.89191071,13.2857946 6.8889375,13.2717321 C6.88266964,13.2420804 6.87640179,13.212375 6.87064286,13.1826161 C6.87008036,13.1796696 6.86954464,13.1766964 6.86900893,13.17375 C6.81503571,12.8918571 6.78423214,12.6051696 6.7775625,12.316875 C6.77748214,12.3128036 6.77750893,12.3087589 6.77742857,12.3047143 C6.77667857,12.2686071 6.77625,12.2325804 6.77627679,12.1964464 C6.77627679,12.1784196 6.77665179,12.1604196 6.77683929,12.1423929 C6.77708036,12.1202679 6.77721429,12.0981161 6.77772321,12.0759911 C6.77847321,12.0448929 6.77967857,12.0137946 6.78099107,11.98275 C6.78139286,11.9736161 6.78158036,11.9644821 6.78203571,11.9553482 C6.79170536,11.7515893 6.81345536,11.5489018 6.84683036,11.3483571 C6.84739286,11.3449821 6.84792857,11.3415536 6.84849107,11.3381786 C6.85376786,11.3069464 6.85952679,11.2758482 6.86533929,11.2447768 C6.8675625,11.2330179 6.869625,11.2212589 6.87190179,11.2095 C6.87616071,11.1876161 6.88082143,11.1657857 6.88534821,11.1439286 C6.88995536,11.1218839 6.89448214,11.0998125 6.89938393,11.0777946 C6.90184821,11.0667054 6.90447321,11.0556696 6.90701786,11.0446071 C7.01925,10.5565179 7.20463393,10.0768929 7.46777679,9.62110714 C8.89304464,7.15245536 12.0609911,6.30361607 14.5296161,7.72888393 L14.5296429,7.72885714 C14.9395982,7.96553571 15.4638214,7.82509821 15.7005268,7.41511607 C15.9372054,7.00516071 15.7967411,6.4809375 15.3867857,6.24425893 C15.3862232,6.24391071 15.3856071,6.24364286 15.3850179,6.24329464 C13.7930089,5.32475893 11.9385804,5.08084821 10.1631161,5.5565625 C9.62049107,5.70195536 9.10526786,5.90957143 8.62486607,6.17279464 C8.58334821,6.18873214 8.5425,6.20801786 8.50277679,6.23097321 C8.5021875,6.23129464 8.50165179,6.23166964 8.50108929,6.23201786 C6.90958929,7.15149107 5.77114286,8.6355 5.29540179,10.4109643 C5.28975,10.4320714 5.2846875,10.4532589 5.27922321,10.4743929 C5.27622321,10.4858571 5.27338393,10.4973482 5.2704375,10.5088393 C5.26186607,10.5428036 5.25334821,10.5767679 5.2453125,10.6107857 C5.23623214,10.6486875 5.22763393,10.6866696 5.21922321,10.7246786 C5.217,10.73475 5.21472321,10.7448214 5.21252679,10.7549196 C5.13058929,11.133 5.08119643,11.517 5.06466964,11.9035446 C5.06426786,11.9125982 5.0638125,11.921625 5.06346429,11.9306786 C5.0619375,11.9698661 5.06086607,12.0091071 5.06003571,12.0483482 C5.05952679,12.06975 5.05901786,12.0911518 5.05875,12.1125268 C5.05842857,12.1389107 5.05840179,12.1653214 5.05840179,12.1917321 C5.05834821,12.226125 5.05840179,12.2605179 5.05888393,12.2949107 C5.05907143,12.3083304 5.05941964,12.3216964 5.0596875,12.3351161 C5.06059821,12.3823393 5.06191071,12.4295089 5.06378571,12.4766518 C5.06383929,12.47775 5.06389286,12.4788482 5.06391964,12.4799464 C5.0799375,12.8742857 5.13021429,13.2660268 5.21421429,13.6515804 C5.21469643,13.65375 5.21517857,13.6558929 5.21566071,13.6580893 C5.22570536,13.7039732 5.23615179,13.7497768 5.24713393,13.7954732 C5.25332143,13.8215625 5.25988393,13.8475982 5.26639286,13.8736607 C5.27129464,13.8930268 5.27611607,13.9123661 5.28117857,13.9316786 C5.286,13.9502946 5.29044643,13.9689911 5.29542857,13.9876071 C5.77133036,15.7637143 6.91041964,17.2481786 8.50283036,18.1675714 C8.54241964,18.1904196 8.58308036,18.2096518 8.62441071,18.2255893 C9.10489286,18.4888929 9.62025,18.6965625 10.1630357,18.8420089 C11.9391429,19.3179643 13.7942679,19.0736786 15.3867054,18.1542857 C15.7966607,17.9176071 15.9371518,17.3934107 15.7004464,16.9834018 Z" transform="translate(696 792)"/>
  </g>
</svg>
