<svg xmlns="http://www.w3.org/2000/svg" width="24" height="24" viewBox="0 0 24 24">
  <path fill="#555" d="M8.64402323,4.98337365 C8.50425481,4.98337365 8.39095013,5.09596098 8.39095013,5.23484449 C8.39095013,5.373728 8.50425481,5.48631533 8.64402323,5.48631533 L12.3570874,5.48631533 C12.4968558,5.48631533 12.6101605,5.373728 12.6101605,5.23484449 C12.6101605,5.09596098 12.4968558,4.98337365 12.3570874,4.98337365 L8.64402323,4.98337365 Z M13.9007689,4.80198035 L16.0759495,4.80199223 C16.6973707,4.80612066 17.1980262,5.00706551 17.5076465,5.4396537 C17.774201,5.81207235 17.879581,6.28990427 17.8528891,6.82730538 L17.8509141,19.8393223 C17.8934599,20.3908626 17.7885863,20.8792541 17.5225312,21.2835729 C17.210806,21.7572957 16.7015186,21.9945112 16.071435,22 L5.13995999,21.9994966 C4.37999653,21.9702276 3.81737804,21.7912306 3.46521634,21.3914799 C3.13780371,21.0198228 2.99472638,20.5105985 3.00052078,19.8906025 L3.00066905,6.84136547 C2.98801965,6.24167138 3.15451277,5.73506055 3.51932498,5.36135708 C3.89478337,4.97674795 4.45080497,4.80661504 5.16611214,4.80197723 L7.10034261,4.80197723 C7.29014323,4.13231072 7.90939315,3.64143713 8.64402323,3.64143713 L12.3570874,3.64143713 C13.0917186,3.64143713 13.7109693,4.13231225 13.9007689,4.80198035 Z M13.6742392,6.14391375 C13.3845755,6.55753344 12.9026477,6.82825185 12.3570874,6.82825185 L8.64402323,6.82825185 C8.09846183,6.82825185 7.61653323,6.55753237 7.32686973,6.14391129 L5.17053164,6.14389938 C4.78783003,6.14638837 4.56911185,6.21331232 4.48868,6.29570448 C4.39760195,6.38900229 4.34526951,6.5482412 4.35100753,6.82730538 L4.3509787,19.8968024 C4.34795309,20.2221592 4.40322906,20.418891 4.48137187,20.5075936 C4.53476561,20.5682026 4.76735914,20.6422022 5.16611214,20.6580635 L16.0654875,20.6580895 C16.2653017,20.6563406 16.3466431,20.6184535 16.3922255,20.5491828 C16.483478,20.4105081 16.5254494,20.2150494 16.5024024,19.8906025 L16.5031763,6.79518866 C16.5173399,6.50150072 16.4758749,6.3134829 16.4071102,6.21740786 C16.3814113,6.18150236 16.2914379,6.14539034 16.071435,6.14391375 L13.6742392,6.14391375 Z M17.2415624,19.6612655 L17.2415624,18.319329 L19.199351,18.319329 C19.4479687,18.319329 19.6495132,18.1190605 19.6495132,17.8720168 L19.6495132,3.78924869 C19.6495132,3.542205 19.4479687,3.34193652 19.199351,3.34193652 L11.6433381,3.34193652 C11.3947204,3.34193652 11.1931759,3.542205 11.1931759,3.78924869 L11.1931759,3.94562921 L9.84268912,3.94562921 L9.84268912,3.78924869 C9.84268912,2.80107393 10.6488671,2 11.6433381,2 L19.199351,2 C20.193822,2 21,2.80107393 21,3.78924869 L21,17.8720168 C21,18.8601916 20.193822,19.6612655 19.199351,19.6612655 L17.2415624,19.6612655 Z M6.14464574,9.72539571 C5.77171912,9.72539571 5.46940236,9.42499298 5.46940236,9.05442745 C5.46940236,8.68386191 5.77171912,8.38345919 6.14464574,8.38345919 L14.2475662,8.38345919 C14.6204929,8.38345919 14.9228096,8.68386191 14.9228096,9.05442745 C14.9228096,9.42499298 14.6204929,9.72539571 14.2475662,9.72539571 L6.14464574,9.72539571 Z M6.14464574,12.4092687 C5.77171912,12.4092687 5.46940236,12.108866 5.46940236,11.7383005 C5.46940236,11.3677349 5.77171912,11.0673322 6.14464574,11.0673322 L14.2475662,11.0673322 C14.6204929,11.0673322 14.9228096,11.3677349 14.9228096,11.7383005 C14.9228096,12.108866 14.6204929,12.4092687 14.2475662,12.4092687 L6.14464574,12.4092687 Z M6.14464574,15.0931418 C5.77171912,15.0931418 5.46940236,14.7927391 5.46940236,14.4221735 C5.46940236,14.051608 5.77171912,13.7512053 6.14464574,13.7512053 L10.196106,13.7512053 C10.5690326,13.7512053 10.8713494,14.051608 10.8713494,14.4221735 C10.8713494,14.7927391 10.5690326,15.0931418 10.196106,15.0931418 L6.14464574,15.0931418 Z"/>
</svg>
