<svg xmlns="http://www.w3.org/2000/svg" width="24" height="24" viewBox="0 0 24 24">
  <path fill="#555" fill-rule="evenodd" d="M4,2 L5.59355753,20.0557267 L12.4998661,22 L19.4059069,20.0557267 L21,2 L4,2 L4,2 Z M17.5769709,7.85186222 L12.4937072,10.124615 L12.4813893,10.1299356 L12.4937072,10.1299356 L17.3975585,10.1299356 L16.8352209,16.891627 L12.5014728,18.2147858 L12.4937072,18.2122655 L12.4937072,18.2147858 L8.13639442,16.8672641 L7.85522564,13.4620554 L7.86272348,13.4620554 L10.0103174,13.4620554 L10.018083,13.4620554 L10.1586674,15.2259871 L12.4738915,15.8373005 L12.4937072,15.8314198 L12.4937072,15.8342201 L14.8908719,15.1282554 L15.0550209,12.2864744 L12.4937072,12.2783534 L7.71464125,12.2615514 L7.55076002,10.1302156 L12.4937072,7.97731728 L12.7818382,7.85214226 L12.4937072,7.85214226 L7.36331417,7.85214226 L7.10544223,5.67124055 L12.4937072,5.67124055 L17.7879814,5.67124055 L17.5769709,7.85186222 L17.5769709,7.85186222 Z"/>
</svg>
