<svg xmlns="http://www.w3.org/2000/svg" width="24" height="24" viewBox="0 0 24 24">
  <g fill="none" fill-rule="evenodd" transform="translate(-336 -1032)">
    <path fill="#555" d="M-8.34887715e-14,2.38771012e-15 L1.96851225,21.666872 L10.4998346,24 L19.0308262,21.666872 L21,0 L-8.34887715e-14,0 L-8.34887715e-14,2.38771012e-15 Z M16.7715523,7.02223467 L10.4922265,9.74953794 L10.4770103,9.75592271 L10.4922265,9.75592271 L16.5499252,9.75592271 L15.8552729,17.8699524 L10.5018193,19.4577429 L10.4922265,19.4547186 L10.4922265,19.4577429 L5.1096637,17.8407169 L4.76233756,13.7544665 L4.77159959,13.7544665 L7.42450973,13.7544665 L7.43410254,13.7544665 L7.60776561,15.8711845 L10.4677483,16.6047606 L10.4922265,16.5977037 L10.4922265,16.6010641 L13.4534299,15.7539065 L13.6562023,12.3437693 L10.4922265,12.3340241 L4.58867449,12.3138617 L4.38623297,9.75625875 L10.4922265,7.17278073 L10.8481531,7.02257071 L10.4922265,7.02257071 L4.15468221,7.02257071 L3.83613452,4.40548866 L10.4922265,4.40548866 L17.0322123,4.40548866 L16.7715523,7.02223467 L16.7715523,7.02223467 Z" transform="translate(338 1032)"/>
  </g>
</svg>
