<svg xmlns="http://www.w3.org/2000/svg" width="24" height="24" viewBox="0 0 24 24">
  <g fill="none" fill-rule="evenodd" transform="translate(-264 -1104)">
    <path fill="#555" d="M3,1 L4.78103489,20.8612994 L12.4998504,23 L20.2183665,20.8612994 L22,1 L3,1 L3,1 Z M18.1742616,7.43704845 L12.4929668,9.93707645 L12.4791998,9.94292915 L12.4929668,9.94292915 L17.9737418,9.94292915 L17.3452469,17.3807897 L12.5016461,18.8362644 L12.4929668,18.833492 L12.4929668,18.8362644 L7.62302906,17.3539905 L7.3087816,13.608261 L7.31716153,13.608261 L9.71741356,13.608261 L9.72609278,13.608261 L9.88321651,15.5485858 L12.4708199,16.2210305 L12.4929668,16.2145617 L12.4929668,16.2176421 L15.1721509,15.4410809 L15.3556116,12.3151218 L12.4929668,12.3061887 L7.15165787,12.2877065 L6.9684965,9.94323719 L12.4929668,7.57504901 L12.8149957,7.43735648 L12.4929668,7.43735648 L6.75899819,7.43735648 L6.47078838,5.0383646 L12.4929668,5.0383646 L18.4100969,5.0383646 L18.1742616,7.43704845 L18.1742616,7.43704845 Z" transform="translate(264 1104)"/>
  </g>
</svg>
