<svg xmlns="http://www.w3.org/2000/svg" width="24" height="24" viewBox="0 0 24 24">
  <g fill="none" fill-rule="evenodd" transform="translate(-216 -1032)">
    <path fill="#555" fill-rule="nonzero" d="M13.0129542,10.9752897 L16.52537,14.7356054 C17.1153639,14.4254833 17.7871888,14.25 18.5,14.25 C20.8472102,14.25 22.75,16.1527898 22.75,18.5 C22.75,20.8472102 20.8472102,22.75 18.5,22.75 C16.1527898,22.75 14.25,20.8472102 14.25,18.5 C14.25,17.4087858 14.6612509,16.4136243 15.3372177,15.6610508 L11.9866605,12.0740174 L8.64967326,15.6465232 C9.33342841,16.4007946 9.75,17.4017495 9.75,18.5 C9.75,20.8472102 7.84721019,22.75 5.5,22.75 C3.15278981,22.75 1.25,20.8472102 1.25,18.5 C1.25,16.1527898 3.15278981,14.25 5.5,14.25 C6.20560144,14.25 6.87104148,14.4219514 7.45670235,14.7262365 L10.9603668,10.9752897 L2.92828393,2.37631703 C2.64553854,2.07361599 2.66171579,1.59901788 2.96441683,1.3162725 C3.26711788,1.03352711 3.74171598,1.04970436 4.02446137,1.35240541 L11.9866605,9.87656211 L19.9488597,1.35240541 C20.2316051,1.04970436 20.7062032,1.03352711 21.0089042,1.3162725 C21.3116053,1.59901788 21.3277825,2.07361599 21.0450371,2.37631703 L13.0129542,10.9752897 Z M5.5,21.25 C7.01878306,21.25 8.25,20.0187831 8.25,18.5 C8.25,16.9812169 7.01878306,15.75 5.5,15.75 C3.98121694,15.75 2.75,16.9812169 2.75,18.5 C2.75,20.0187831 3.98121694,21.25 5.5,21.25 Z M18.5,21.25 C20.0187831,21.25 21.25,20.0187831 21.25,18.5 C21.25,16.9812169 20.0187831,15.75 18.5,15.75 C16.9812169,15.75 15.75,16.9812169 15.75,18.5 C15.75,20.0187831 16.9812169,21.25 18.5,21.25 Z" transform="translate(216 1032)"/>
  </g>
</svg>
