<svg xmlns="http://www.w3.org/2000/svg" width="24" height="24" viewBox="0 0 24 24">
  <g fill="none" fill-rule="evenodd" transform="translate(-120 -1032)">
    <path fill="#555" fill-rule="nonzero" d="M15.9328358,11.9799389 C15.2985075,11.9799389 14.6890547,12.1275474 14.1542289,12.3858623 L11.0572139,9.06467134 L18.3208955,1.29062441 C18.6069652,0.983106736 18.5945274,0.49107845 18.2835821,0.208162185 C17.9726368,-0.0747540796 17.4751244,-0.0624533725 17.1890547,0.245064306 L9.98756219,7.93300628 L2.79850746,0.245064306 C2.51243781,-0.0624533725 2.01492537,-0.0870547868 1.7039801,0.208162185 C1.39303483,0.49107845 1.3681592,0.983106736 1.66666667,1.29062441 L8.93034826,9.06467134 L5.83333333,12.3858623 C5.29850746,12.1275474 4.68905473,11.9799389 4.05472637,11.9799389 C1.8159204,11.9799389 0,13.7758422 0,15.9899695 C0,18.2040968 1.8159204,20 4.05472637,20 C6.29353234,20 8.10945274,18.2040968 8.10945274,15.9899695 C8.10945274,14.9690108 7.7238806,14.034157 7.07711443,13.320716 L10,10.1963364 L12.9228856,13.320716 C12.2885572,14.034157 11.8905473,14.9567101 11.8905473,15.9899695 C11.8905473,18.2040968 13.7064677,20 15.9452736,20 C18.1840796,20 20,18.2040968 20,15.9899695 C20,13.7758422 18.1716418,11.9799389 15.9328358,11.9799389 Z M4.04228856,18.4624116 C2.66169154,18.4624116 1.54228856,17.355348 1.54228856,15.9899695 C1.54228856,14.624591 2.66169154,13.5175273 4.04228856,13.5175273 C5.42288557,13.5175273 6.54228856,14.624591 6.54228856,15.9899695 C6.54228856,17.355348 5.42288557,18.4624116 4.04228856,18.4624116 Z M15.9328358,18.4624116 C14.5522388,18.4624116 13.4328358,17.355348 13.4328358,15.9899695 C13.4328358,14.624591 14.5522388,13.5175273 15.9328358,13.5175273 C17.3134328,13.5175273 18.4328358,14.624591 18.4328358,15.9899695 C18.4328358,17.355348 17.3134328,18.4624116 15.9328358,18.4624116 Z" transform="translate(122 1034)"/>
  </g>
</svg>
