<svg xmlns="http://www.w3.org/2000/svg" width="20" height="20" viewBox="0 0 20 20">
  <path fill="#555" d="M10.942283,9.11545077 L14.2096465,12.5914888 C14.758478,12.3048118 15.3834314,12.1425949 16.0465116,12.1425949 C18.229963,12.1425949 20,13.9015349 20,16.0712974 C20,18.24106 18.229963,20 16.0465116,20 C13.8630603,20 12.0930233,18.24106 12.0930233,16.0712974 C12.0930233,15.0625783 12.4755823,14.1426505 13.1043886,13.4469711 L9.9875912,10.1311153 L6.88341698,13.4335417 C7.51946829,14.1307907 7.90697674,15.0560741 7.90697674,16.0712974 C7.90697674,18.24106 6.13693971,20 3.95348837,20 C1.77003704,20 0,18.24106 0,16.0712974 C0,13.9015349 1.77003704,12.1425949 3.95348837,12.1425949 C4.60986181,12.1425949 5.2288758,12.3015469 5.7736766,12.5828282 L9.03289939,9.11545077 L1.56119435,1.16655523 C1.29817538,0.886738203 1.31322399,0.448019431 1.59480636,0.186649425 C1.87638872,-0.0747205812 2.31787533,-0.0597663173 2.5808943,0.220050708 L9.9875912,8.09978628 L17.3942881,0.220050708 C17.6573071,-0.0597663173 18.0987937,-0.0747205812 18.380376,0.186649425 C18.6619584,0.448019431 18.677007,0.886738203 18.413988,1.16655523 L10.942283,9.11545077 Z M3.95348837,18.6133991 C5.36630983,18.6133991 6.51162791,17.4752614 6.51162791,16.0712974 C6.51162791,14.6673335 5.36630983,13.5291958 3.95348837,13.5291958 C2.54066692,13.5291958 1.39534884,14.6673335 1.39534884,16.0712974 C1.39534884,17.4752614 2.54066692,18.6133991 3.95348837,18.6133991 Z M16.0465116,18.6133991 C17.4593331,18.6133991 18.6046512,17.4752614 18.6046512,16.0712974 C18.6046512,14.6673335 17.4593331,13.5291958 16.0465116,13.5291958 C14.6336902,13.5291958 13.4883721,14.6673335 13.4883721,16.0712974 C13.4883721,17.4752614 14.6336902,18.6133991 16.0465116,18.6133991 Z"/>
</svg>
