<svg xmlns="http://www.w3.org/2000/svg" width="24" height="24" viewBox="0 0 24 24">
  <path fill="#555" d="M12.942283,11.1154508 L16.2096465,14.5914888 C16.758478,14.3048118 17.3834314,14.1425949 18.0465116,14.1425949 C20.229963,14.1425949 22,15.9015349 22,18.0712974 C22,20.24106 20.229963,22 18.0465116,22 C15.8630603,22 14.0930233,20.24106 14.0930233,18.0712974 C14.0930233,17.0625783 14.4755823,16.1426505 15.1043886,15.4469711 L11.9875912,12.1311153 L8.88341698,15.4335417 C9.51946829,16.1307907 9.90697674,17.0560741 9.90697674,18.0712974 C9.90697674,20.24106 8.13693971,22 5.95348837,22 C3.77003704,22 2,20.24106 2,18.0712974 C2,15.9015349 3.77003704,14.1425949 5.95348837,14.1425949 C6.60986181,14.1425949 7.2288758,14.3015469 7.7736766,14.5828282 L11.0328994,11.1154508 L3.56119435,3.16655523 C3.29817538,2.8867382 3.31322399,2.44801943 3.59480636,2.18664942 C3.87638872,1.92527942 4.31787533,1.94023368 4.5808943,2.22005071 L11.9875912,10.0997863 L19.3942881,2.22005071 C19.6573071,1.94023368 20.0987937,1.92527942 20.380376,2.18664942 C20.6619584,2.44801943 20.677007,2.8867382 20.413988,3.16655523 L12.942283,11.1154508 Z M5.95348837,20.6133991 C7.36630983,20.6133991 8.51162791,19.4752614 8.51162791,18.0712974 C8.51162791,16.6673335 7.36630983,15.5291958 5.95348837,15.5291958 C4.54066692,15.5291958 3.39534884,16.6673335 3.39534884,18.0712974 C3.39534884,19.4752614 4.54066692,20.6133991 5.95348837,20.6133991 Z M18.0465116,20.6133991 C19.4593331,20.6133991 20.6046512,19.4752614 20.6046512,18.0712974 C20.6046512,16.6673335 19.4593331,15.5291958 18.0465116,15.5291958 C16.6336902,15.5291958 15.4883721,16.6673335 15.4883721,18.0712974 C15.4883721,19.4752614 16.6336902,20.6133991 18.0465116,20.6133991 Z"/>
</svg>
