<svg xmlns="http://www.w3.org/2000/svg" width="24" height="24" viewBox="0 0 24 24">
  <g fill="none" fill-rule="evenodd" transform="translate(-308 -308)">
    <path fill="#555" fill-rule="nonzero" d="M10.7259833,18.0100537 C11.1708643,18.4549347 11.1753642,19.1717293 10.7360342,19.6110593 C10.2967042,20.0503893 9.57990955,20.0458894 9.13502856,19.6010084 L0.274217572,10.7401974 C-0.170663408,10.2953164 -0.175163349,9.57852181 0.264166673,9.13919178 L9.01441778,0.38894068 C9.4537478,-0.0503893425 10.1705424,-0.0458894017 10.6154234,0.398991578 C11.0603044,0.843872559 11.0648043,1.5606672 10.6254743,1.99999722 L2.67070059,9.95477095 L10.7259833,18.0100537 Z M19.7257824,18.0100537 C20.1706634,18.4549347 20.1751633,19.1717293 19.7358333,19.6110593 C19.2965033,20.0503893 18.5797087,20.0458894 18.1348277,19.6010084 L9.27401669,10.7401974 C8.82913571,10.2953164 8.82463577,9.57852181 9.26396579,9.13919178 L18.0142169,0.38894068 C18.4535469,-0.0503893425 19.1703416,-0.0458894017 19.6152225,0.398991578 C20.0601035,0.843872559 20.0646035,1.5606672 19.6252734,1.99999722 L11.6704997,9.95477095 L19.7257824,18.0100537 Z" transform="translate(310 310)"/>
  </g>
</svg>
