<svg xmlns="http://www.w3.org/2000/svg" width="24" height="24" viewBox="0 0 24 24">
  <path fill="#555" d="M4.72165154,11.8974487 L11.7901059,18.8045692 C12.0696807,19.0777629 12.070006,19.5210156 11.7908324,19.7946019 C11.5116588,20.0681882 11.0587037,20.0685065 10.7791289,19.7953128 L3.20989415,12.398842 C2.93245073,12.127731 2.92970668,11.6885957 3.20374127,11.4141848 L10.3972735,4.21077392 C10.6734132,3.93425491 11.1263384,3.92915248 11.4089101,4.19937732 C11.6914819,4.46960216 11.696696,4.91282562 11.4205562,5.18934463 L4.72165154,11.8974487 Z M13.7216515,11.8974487 L20.7901059,18.8045692 C21.0696807,19.0777629 21.070006,19.5210156 20.7908324,19.7946019 C20.5116588,20.0681882 20.0587037,20.0685065 19.7791289,19.7953128 L12.2098942,12.398842 C11.9324507,12.127731 11.9297067,11.6885957 12.2037413,11.4141848 L19.3972735,4.21077392 C19.6734132,3.93425491 20.1263384,3.92915248 20.4089101,4.19937732 C20.6914819,4.46960216 20.696696,4.91282562 20.4205562,5.18934463 L13.7216515,11.8974487 Z"/>
</svg>
