<svg xmlns="http://www.w3.org/2000/svg" width="24" height="24" viewBox="0 0 24 24">
  <g fill="none" fill-rule="evenodd" transform="translate(-312 -312)">
    <path fill="#555" fill-rule="nonzero" d="M11.7721763,18.7057591 C12.0767546,19.0026259 12.07582,19.4830346 11.7700887,19.7787819 C11.4643574,20.0745292 10.9696038,20.0736216 10.6650254,19.7767548 L3.2278237,12.5278529 C2.92383155,12.2315575 2.9240921,11.7522737 3.22840623,11.45629 L10.665608,4.22267799 C10.9705089,3.92612357 11.4652633,3.92572321 11.7706728,4.22178376 C12.0760824,4.51784431 12.0764947,4.99825366 11.7715938,5.29480807 L4.88496302,11.9929207 L11.7721763,18.7057591 Z M20.7721763,18.7057591 C21.0767546,19.0026259 21.07582,19.4830346 20.7700887,19.7787819 C20.4643574,20.0745292 19.9696038,20.0736216 19.6650254,19.7767548 L12.2278237,12.5278529 C11.9238315,12.2315575 11.9240921,11.7522737 12.2284062,11.45629 L19.665608,4.22267799 C19.9705089,3.92612357 20.4652633,3.92572321 20.7706728,4.22178376 C21.0760824,4.51784431 21.0764947,4.99825366 20.7715938,5.29480807 L13.884963,11.9929207 L20.7721763,18.7057591 Z" transform="translate(312 312)"/>
  </g>
</svg>
