<svg xmlns="http://www.w3.org/2000/svg" width="20" height="20" viewBox="0 0 20 20">
  <path fill="#555" d="M11.0030988,8.29506009 L12.9779915,6.71524011 C13.2655061,6.48524211 13.685033,6.53186856 13.915031,6.81938321 C14.145029,7.10689785 14.0984026,7.52642475 13.8108879,7.75642275 L11.7725345,9.38700829 C11.7760053,9.42623157 11.7777778,9.46594285 11.7777778,9.5060681 C11.7777778,10.2424478 11.1808241,10.8394014 10.4444444,10.8394014 C9.70806478,10.8394014 9.11111111,10.2424478 9.11111111,9.5060681 C9.11111111,8.76968844 9.70806478,8.17273477 10.4444444,8.17273477 C10.643926,8.17273477 10.8331759,8.21654167 11.0030988,8.29506009 Z M18.0439429,13.2320239 C18.4186201,12.3003884 18.6361411,11.2886426 18.6636842,10.2296083 L17.5801585,10.2296083 C17.2119687,10.2296083 16.9134919,9.93113145 16.9134919,9.56294162 C16.9134919,9.19475178 17.2119687,8.89627495 17.5801585,8.89627495 L18.5970477,8.89627495 C18.5007433,8.13860084 18.3066121,7.41146073 18.0277145,6.72791503 L17.0774976,7.2196678 C16.7505016,7.38889358 16.3482343,7.26099554 16.1790086,6.93399953 C16.0097828,6.60700352 16.1376808,6.20473628 16.4646768,6.0355105 L17.4300478,5.53591526 C16.938214,4.71906104 16.3154849,3.98994279 15.5908924,3.3775925 L14.989005,4.16653 C14.7656801,4.45925813 14.3473365,4.51552058 14.0546084,4.29219571 C13.7618803,4.06887084 13.7056178,3.65052723 13.9289427,3.3577991 L14.5091531,2.59727526 C13.3738941,1.90428524 12.0667753,1.46510123 10.6666667,1.35859309 L10.6666667,2.39369912 C10.6666667,2.76188896 10.3681898,3.06036579 10,3.06036579 C9.63181017,3.06036579 9.33333333,2.76188896 9.33333333,2.39369912 L9.33333333,1.35859309 C7.99296045,1.46055705 6.73781192,1.86741514 5.63708721,2.5099679 L6.15877881,3.09446789 C6.40395109,3.36915737 6.38002267,3.79058858 6.1053332,4.03576086 C5.83064373,4.28093314 5.40921251,4.25700472 5.16404023,3.98231525 L4.53276037,3.27503327 C3.84603881,3.83400133 3.24657086,4.49605154 2.75793897,5.23760149 L3.60056908,5.74266584 C3.91637417,5.93195636 4.01893449,6.34141725 3.82964397,6.65722234 C3.64035345,6.97302742 3.23089256,7.07558774 2.91508748,6.88629723 L2.11186468,6.40485324 C1.75767194,7.18073643 1.51458682,8.01799131 1.40295225,8.89627495 L2.30982267,8.89627495 C2.67801251,8.89627495 2.97648934,9.19475178 2.97648934,9.56294162 C2.97648934,9.93113145 2.67801251,10.2296083 2.30982267,10.2296083 L1.33631585,10.2296083 C1.36675325,11.3999302 1.62919379,12.5125029 2.07934309,13.523032 L2.91509122,12.96437 C3.22119047,12.7597558 3.63520559,12.8420256 3.83981986,13.1481249 C4.04443413,13.4542241 3.9621643,13.8682392 3.65606505,14.0728535 L2.71740471,14.7003078 C4.26103154,17.0870627 6.94604764,18.6666667 10,18.6666667 C13.1651146,18.6666667 15.933946,16.9699764 17.4465829,14.436507 L16.3147639,13.6799344 C16.0086647,13.4753201 15.9263949,13.061305 16.1310091,12.7552058 C16.3356234,12.4491065 16.7496385,12.3668367 17.0557378,12.571451 L18.0439429,13.2320239 Z M10,20 C4.4771525,20 0,15.5228475 0,10 C0,4.4771525 4.4771525,0 10,0 C15.5228475,0 20,4.4771525 20,10 C20,15.5228475 15.5228475,20 10,20 Z"/>
</svg>
