<svg xmlns="http://www.w3.org/2000/svg" width="24" height="24" viewBox="0 0 24 24">
  <g fill="none" fill-rule="evenodd" transform="translate(-216 -1032)">
    <path fill="#555" fill-rule="nonzero" d="M17.25124,3.39331121 C18.1887079,4.16261888 18.9756471,5.09747563 19.5725762,6.15097872 L19.1025266,6.37442907 L18.5982026,6.61413036 L18.3690067,6.7231277 C18.0816742,6.86297296 17.9611708,7.20722387 18.098956,7.49460163 C18.2367412,7.7819794 18.5813502,7.90514412 18.8712324,7.7706165 L19.1004282,7.66173524 L19.6046356,7.42203396 L20.0837785,7.19428872 C20.4562607,8.08605069 20.6933399,9.02805661 20.7872207,9.98933338 L19.5852834,9.98933338 C19.2633573,9.98933338 19.0023846,10.2491831 19.0023846,10.5697239 C19.0023846,10.8902647 19.2633573,11.1501144 19.5852834,11.1501144 L20.8322205,11.1501144 C20.8076878,12.4272295 20.5319867,13.6871736 20.0207088,14.8586938 L19.5279262,14.5353002 L19.0614905,14.2290861 L18.8493154,14.0899085 C18.580507,13.9135149 18.2189816,13.9874941 18.0418256,14.2551457 C17.8646697,14.5227973 17.9389686,14.882767 18.2077769,15.0591606 L18.4199521,15.1982222 C18.6318941,15.3375159 18.6318941,15.3375159 18.8863877,15.5044363 L19.4891051,15.9000304 C18.8292846,17.0200339 17.9529579,17.9986409 16.9108271,18.7792317 C16.7444772,18.9039756 16.6576013,19.1076084 16.6829246,19.3134237 C16.708248,19.5192389 16.8419234,19.6959683 17.0335966,19.7770396 C17.2252698,19.858111 17.4458211,19.8312075 17.6121709,19.7064636 C20.3542435,17.6500239 22,14.4368659 22,10.9526656 C22,4.9037195 17.075088,0 11,0 C4.92491204,0 0,4.9037195 0,10.9526656 C0,14.5452829 1.7505617,17.8465442 4.63696002,19.8878937 C4.80660266,20.0115677 5.02998984,20.0346918 5.22155463,19.9484084 C5.41311942,19.862125 5.54317122,19.6798072 5.56189458,19.4712905 C5.58061794,19.2627739 5.48511093,19.0603764 5.31195684,18.941625 C4.27106113,18.206261 3.38330888,17.2768373 2.69788885,16.2048515 L3.09169528,15.9464617 L3.55824749,15.6402476 L3.77030607,15.50107 C4.03911439,15.3246443 4.11338721,14.9646486 3.93619908,14.696997 C3.75901094,14.4293454 3.39745938,14.3553921 3.12865107,14.5318178 L2.91659248,14.6711115 L2.45004027,14.9772095 L2.13026199,15.1871948 C1.52284149,13.9255959 1.19461364,12.5488225 1.16777947,11.1499983 L2.31259273,11.1499983 C2.63451886,11.1499983 2.89549154,10.8901487 2.89549154,10.5696078 C2.89549154,10.249067 2.63451886,9.9892173 2.31259273,9.9892173 L1.21277926,9.9892173 C1.32058293,8.88511566 1.61724163,7.80750478 2.08992539,6.80298943 C2.42772754,7.00215277 2.76553683,7.20130411 3.10335326,7.40044343 C3.38046726,7.56359871 3.73794764,7.47218359 3.90180804,7.19626204 C4.06566843,6.9203405 3.97385825,6.5643984 3.69674425,6.40124311 C3.34675899,6.19505924 2.99682539,5.98878844 2.64694349,5.78243074 C3.24125954,4.83293056 3.99379805,3.9912632 4.87221798,3.29360012 L5.12216499,3.56162446 L5.66682564,4.14584556 C5.88596075,4.38070582 6.25481955,4.39421801 6.49069482,4.17602586 C6.72657009,3.95783372 6.74014067,3.59056217 6.52100555,3.3557019 L5.97657807,2.77182904 L5.83400102,2.61907026 C7.21746274,1.76641889 8.79275443,1.2710045 10.4171012,1.17772844 L10.4171012,2.46665971 C10.4171012,2.78720054 10.6780739,3.04705023 11,3.04705023 C11.3219261,3.04705023 11.5828988,2.78720054 11.5828988,2.46665971 L11.5828988,1.17772844 C13.2644705,1.27430213 14.8924777,1.80173443 16.3091589,2.70891471 C16.0649593,3.02611451 15.8207636,3.34331728 15.5765717,3.660523 C15.3807762,3.91496832 15.4292128,4.27927758 15.6847577,4.47423051 C15.9403027,4.66918345 16.3061864,4.62095534 16.5019819,4.36651003 C16.5399869,4.31706076 16.7171881,4.0867618 16.9888189,3.73411652 L17.2511234,3.39331121 L17.25124,3.39331121 Z M12.3810039,9.16935766 L14.5581309,7.43967783 C14.8097806,7.23975651 15.1765516,7.28081276 15.3773369,7.53137953 C15.5781222,7.7819463 15.5368885,8.14713905 15.2852389,8.34706037 L13.1008839,10.082428 C13.1480987,10.2342582 13.1735131,10.3958389 13.1735131,10.5631074 C13.1735131,11.4606233 12.4427911,12.1882009 11.5413964,12.1882009 C10.6400017,12.1882009 9.90927975,11.4606233 9.90927975,10.5631074 C9.90927975,9.66559155 10.6400017,8.938014 11.5413964,8.938014 C11.8484675,8.938014 12.13572,9.02240278 12.3810039,9.16924158 L12.3810039,9.16935766 Z" transform="translate(217 1034)"/>
  </g>
</svg>
