<svg xmlns="http://www.w3.org/2000/svg" width="24" height="24" viewBox="0 0 24 24">
  <path fill="#555" d="M13.0030988,10.2950601 L14.9779915,8.71524011 C15.2655061,8.48524211 15.685033,8.53186856 15.915031,8.81938321 C16.145029,9.10689785 16.0984026,9.52642475 15.8108879,9.75642275 L13.7725345,11.3870083 C13.7760053,11.4262316 13.7777778,11.4659428 13.7777778,11.5060681 C13.7777778,12.2424478 13.1808241,12.8394014 12.4444444,12.8394014 C11.7080648,12.8394014 11.1111111,12.2424478 11.1111111,11.5060681 C11.1111111,10.7696884 11.7080648,10.1727348 12.4444444,10.1727348 C12.643926,10.1727348 12.8331759,10.2165417 13.0030988,10.2950601 Z M20.0439429,15.2320239 C20.4186201,14.3003884 20.6361411,13.2886426 20.6636842,12.2296083 L19.5801585,12.2296083 C19.2119687,12.2296083 18.9134919,11.9311314 18.9134919,11.5629416 C18.9134919,11.1947518 19.2119687,10.896275 19.5801585,10.896275 L20.5970477,10.896275 C20.5007433,10.1386008 20.3066121,9.41146073 20.0277145,8.72791503 L19.0774976,9.2196678 C18.7505016,9.38889358 18.3482343,9.26099554 18.1790086,8.93399953 C18.0097828,8.60700352 18.1376808,8.20473628 18.4646768,8.0355105 L19.4300478,7.53591526 C18.938214,6.71906104 18.3154849,5.98994279 17.5908924,5.3775925 L16.989005,6.16653 C16.7656801,6.45925813 16.3473365,6.51552058 16.0546084,6.29219571 C15.7618803,6.06887084 15.7056178,5.65052723 15.9289427,5.3577991 L16.5091531,4.59727526 C15.3738941,3.90428524 14.0667753,3.46510123 12.6666667,3.35859309 L12.6666667,4.39369912 C12.6666667,4.76188896 12.3681898,5.06036579 12,5.06036579 C11.6318102,5.06036579 11.3333333,4.76188896 11.3333333,4.39369912 L11.3333333,3.35859309 C9.99296045,3.46055705 8.73781192,3.86741514 7.63708721,4.5099679 L8.15877881,5.09446789 C8.40395109,5.36915737 8.38002267,5.79058858 8.1053332,6.03576086 C7.83064373,6.28093314 7.40921251,6.25700472 7.16404023,5.98231525 L6.53276037,5.27503327 C5.84603881,5.83400133 5.24657086,6.49605154 4.75793897,7.23760149 L5.60056908,7.74266584 C5.91637417,7.93195636 6.01893449,8.34141725 5.82964397,8.65722234 C5.64035345,8.97302742 5.23089256,9.07558774 4.91508748,8.88629723 L4.11186468,8.40485324 C3.75767194,9.18073643 3.51458682,10.0179913 3.40295225,10.896275 L4.30982267,10.896275 C4.67801251,10.896275 4.97648934,11.1947518 4.97648934,11.5629416 C4.97648934,11.9311314 4.67801251,12.2296083 4.30982267,12.2296083 L3.33631585,12.2296083 C3.36675325,13.3999302 3.62919379,14.5125029 4.07934309,15.523032 L4.91509122,14.96437 C5.22119047,14.7597558 5.63520559,14.8420256 5.83981986,15.1481249 C6.04443413,15.4542241 5.9621643,15.8682392 5.65606505,16.0728535 L4.71740471,16.7003078 C6.26103154,19.0870627 8.94604764,20.6666667 12,20.6666667 C15.1651146,20.6666667 17.933946,18.9699764 19.4465829,16.436507 L18.3147639,15.6799344 C18.0086647,15.4753201 17.9263949,15.061305 18.1310091,14.7552058 C18.3356234,14.4491065 18.7496385,14.3668367 19.0557378,14.571451 L20.0439429,15.2320239 Z M12,22 C6.4771525,22 2,17.5228475 2,12 C2,6.4771525 6.4771525,2 12,2 C17.5228475,2 22,6.4771525 22,12 C22,17.5228475 17.5228475,22 12,22 Z"/>
</svg>
