<svg xmlns="http://www.w3.org/2000/svg" width="24" height="24" viewBox="0 0 24 24">
  <g fill="none" fill-rule="evenodd" transform="translate(-312 -1032)">
    <path fill="#555" fill-rule="nonzero" d="M13.1034086,10.1245661 L15.2757906,8.38676412 C15.5920567,8.13376632 16.0535363,8.18505542 16.3065341,8.50132153 C16.5595319,8.81758764 16.5082428,9.27906722 16.1919767,9.53206503 L13.9497879,11.3257091 C13.9536059,11.3688547 13.9555556,11.4125371 13.9555556,11.4566749 C13.9555556,12.2666925 13.2989065,12.9233416 12.4888889,12.9233416 C11.6788713,12.9233416 11.0222222,12.2666925 11.0222222,11.4566749 C11.0222222,10.6466573 11.6788713,9.99000825 12.4888889,9.99000825 C12.7083186,9.99000825 12.9164935,10.0381958 13.1034086,10.1245661 Z M20.8483372,15.5552262 C21.2604821,14.5304273 21.4997552,13.4175069 21.5300526,12.2525691 L20.3381744,12.2525691 C19.9331656,12.2525691 19.604841,11.9242446 19.604841,11.5192358 C19.604841,11.114227 19.9331656,10.7859024 20.3381744,10.7859024 L21.4567525,10.7859024 C21.3508176,9.95246093 21.1372733,9.15260681 20.8304859,8.40070653 L19.7852474,8.94163458 C19.4255517,9.12778294 18.9830578,8.98709509 18.7969094,8.62739948 C18.6107611,8.26770387 18.7514489,7.82520991 19.1111445,7.63906155 L20.1730526,7.08950679 C19.6320354,6.19096714 18.9470334,5.38893707 18.1499816,4.71535175 L17.4879055,5.583183 C17.2422481,5.90518394 16.7820702,5.96707264 16.4600692,5.72141528 C16.1380683,5.47575792 16.0761796,5.01557995 16.321837,4.69357901 L16.9600684,3.85700279 C15.7112835,3.09471377 14.2734529,2.61161135 12.7333333,2.4944524 L12.7333333,3.63306904 C12.7333333,4.03807785 12.4050088,4.36640237 12,4.36640237 C11.5949912,4.36640237 11.2666667,4.03807785 11.2666667,3.63306904 L11.2666667,2.4944524 C9.7922565,2.60661275 8.41159311,3.05415666 7.20079593,3.76096469 L7.77465669,4.40391468 C8.0443462,4.7060731 8.01802494,5.16964744 7.71586652,5.43933695 C7.4137081,5.70902645 6.95013376,5.6827052 6.68044425,5.38054677 L5.98603641,4.6025366 C5.23064269,5.21740146 4.57122795,5.9456567 4.03373286,6.76136164 L4.96062599,7.31693243 C5.30801159,7.525152 5.42082794,7.97555898 5.21260837,8.32294457 C5.0043888,8.67033017 4.55398182,8.78314652 4.20659622,8.57492695 L3.32305115,8.04533857 C2.93343913,8.89881007 2.6660455,9.81979044 2.54324748,10.7859024 L3.54080494,10.7859024 C3.94581376,10.7859024 4.27413827,11.114227 4.27413827,11.5192358 C4.27413827,11.9242446 3.94581376,12.2525691 3.54080494,12.2525691 L2.46994743,12.2525691 C2.50342857,13.5399233 2.79211317,14.7637532 3.2872774,15.8753352 L4.20660034,15.260807 C4.54330952,15.0357313 4.99872614,15.1262282 5.22380184,15.4629373 C5.44887755,15.7996465 5.35838073,16.2550631 5.02167156,16.4801388 L3.98914518,17.1703386 C5.6871347,19.795769 8.6406524,21.5333333 12,21.5333333 C15.4816261,21.5333333 18.5273406,19.666974 20.1912412,16.8801577 L18.9462403,16.0479279 C18.6095312,15.8228521 18.5190343,15.3674355 18.74411,15.0307263 C18.9691857,14.6940172 19.4246024,14.6035204 19.7613116,14.8285961 L20.8483372,15.5552262 Z M12,23 C5.92486775,23 1,18.0751322 1,12 C1,5.92486775 5.92486775,1 12,1 C18.0751322,1 23,5.92486775 23,12 C23,18.0751322 18.0751322,23 12,23 Z" transform="translate(312 1032)"/>
  </g>
</svg>
