<svg xmlns="http://www.w3.org/2000/svg" width="24" height="24" viewBox="0 0 24 24">
  <path fill="#454242" d="M7,12.6417617 L8.66666667,12.6417617 L8.66666667,14.3078931 L7,14.3078931 L7,12.6417617 Z M11.1666667,12.6417617 L12.8333333,12.6417617 L12.8333333,14.3078931 L11.1666667,14.3078931 L11.1666667,12.6417617 Z M15.3333333,12.6417617 L17,12.6417617 L17,14.3078931 L15.3333333,14.3078931 L15.3333333,12.6417617 Z M7,16.6186466 L8.66666667,16.6186466 L8.66666667,18.284778 L7,18.284778 L7,16.6186466 Z M11.1666667,16.6186466 L12.8333333,16.6186466 L12.8333333,18.284778 L11.1666667,18.284778 L11.1666667,16.6186466 Z M15.3333333,16.6186466 L17,16.6186466 L17,18.284778 L15.3333333,18.284778 L15.3333333,16.6186466 Z M3.4,8.3436041 L20.6,8.35686018 L20.6,6.00801605 C20.6,5.67681122 20.3313708,5.40831666 20,5.40831666 L17.2901337,5.40831666 L17.2901337,6.33697436 C17.2901337,6.72338 16.976733,7.03662366 16.5901337,7.03662366 C16.2035343,7.03662366 15.8901337,6.72338 15.8901337,6.33697436 L15.8901337,5.40831666 L8.37326018,5.40831666 L8.37326018,6.32848246 C8.37326018,6.7148881 8.0598595,7.02813176 7.67326018,7.02813176 C7.28666085,7.02813176 6.97326018,6.7148881 6.97326018,6.32848246 L6.97326018,5.40831666 L4,5.40831666 C3.66862915,5.40831666 3.4,5.67681122 3.4,6.00801605 L3.4,8.3436041 Z M3.4,9.74290312 L3.4,20.001002 C3.4,20.3322068 3.66862915,20.6007014 4,20.6007014 L20,20.6007014 C20.3313708,20.6007014 20.6,20.3322068 20.6,20.001002 L20.6,9.75615919 L3.4,9.74290312 Z M17.2901337,4.00901806 L20,4.00901806 C21.1045695,4.00901806 22,4.90399995 22,6.00801605 L22,20.001002 C22,21.1050181 21.1045695,22 20,22 L4,22 C2.8954305,22 2,21.1050181 2,20.001002 L2,6.00801605 C2,4.90399995 2.8954305,4.00901806 4,4.00901806 L6.97326018,4.00901806 L6.97326018,2.6996493 C6.97326018,2.31324366 7.28666085,2 7.67326018,2 C8.0598595,2 8.37326018,2.31324366 8.37326018,2.6996493 L8.37326018,4.00901806 L15.8901337,4.00901806 L15.8901337,2.7081412 C15.8901337,2.32173556 16.2035343,2.0084919 16.5901337,2.0084919 C16.976733,2.0084919 17.2901337,2.32173556 17.2901337,2.7081412 L17.2901337,4.00901806 Z"/>
</svg>
