<svg xmlns="http://www.w3.org/2000/svg" width="24" height="24" viewBox="0 0 24 24">
  <g fill="none" fill-rule="evenodd" transform="translate(-264 -792)">
    <path fill="#454242" fill-rule="nonzero" d="M17.8740037,2.82970486 L21.1666667,2.82970486 C22.1791887,2.82970486 23,3.65066384 23,4.66336806 L23,21.1663368 C23,22.179041 22.1791887,23 21.1666667,23 L2.83333333,23 C1.82081129,23 1,22.179041 1,21.1663368 L1,4.66336806 C1,3.65066384 1.82081129,2.82970486 2.83333333,2.82970486 L6.41307637,2.82970486 L6.41307637,1.82514844 C6.41307637,1.36943154 6.78244146,1 7.23807637,1 C7.69371129,1 8.06307637,1.36943154 8.06307637,1.82514844 L8.06307637,2.82970486 L16.2240037,2.82970486 L16.2240037,1.82514844 C16.2240037,1.36943154 16.5933688,1 17.0490037,1 C17.5046386,1 17.8740037,1.36943154 17.8740037,1.82514844 L17.8740037,2.82970486 Z M2.65144269,4.45921549 L2.65144269,7.97301475 L21.3610425,7.97301475 L21.3610425,4.45921549 L17.8667149,4.45921549 L17.8667149,5.74986316 C17.8557783,5.88569692 17.8208576,6.00640175 17.7619527,6.11197765 C17.7030479,6.21755355 17.6086807,6.31674081 17.4788513,6.40953942 C17.3453852,6.48290161 17.1972792,6.51958271 17.0345332,6.51958271 C16.8717872,6.51958271 16.7186038,6.47102433 16.574983,6.37390755 C16.4679341,6.28251724 16.3850598,6.18868339 16.3263601,6.092406 C16.2676604,5.99612861 16.2373221,5.88194767 16.2353452,5.74986316 L16.2353452,4.45921549 L8.06163931,4.45921549 L8.06163931,5.77702028 C8.04681657,5.9718886 7.96127029,6.1464935 7.80500049,6.30083496 C7.64873069,6.45517642 7.45546112,6.52809234 7.22519177,6.51958271 C7.03034117,6.51958271 6.854724,6.45402249 6.69834025,6.32290206 C6.5419565,6.19178162 6.44653836,6.00982103 6.41208582,5.77702028 L6.41208582,4.45921549 L2.65144269,4.45921549 Z M2.64775242,9.59027137 L2.64786412,20.2991664 L2.64786412,21.1401528 C2.6482735,21.2124431 2.66634454,21.2654813 2.70207723,21.2992673 C2.73780992,21.3330534 2.80172687,21.3499464 2.89382807,21.3499464 L20.2042288,21.3499464 L21.1103054,21.3499464 C21.1910069,21.3574954 21.2532895,21.3406023 21.2971535,21.2992673 C21.3410174,21.2579323 21.357266,21.2048941 21.3458993,21.1401528 L21.3458993,9.59027137 L2.64775242,9.59027137 Z M6.5,12.7007779 L8.33333333,12.7007779 L8.33333333,14.5344411 L6.5,14.5344411 L6.5,12.7007779 Z M11.0833333,12.7007779 L12.9166667,12.7007779 L12.9166667,14.5344411 L11.0833333,14.5344411 L11.0833333,12.7007779 Z M15.6666667,12.7007779 L17.5,12.7007779 L17.5,14.5344411 L15.6666667,14.5344411 L15.6666667,12.7007779 Z M6.5,17.0775441 L8.33333333,17.0775441 L8.33333333,18.9112073 L6.5,18.9112073 L6.5,17.0775441 Z M11.0833333,17.0775441 L12.9166667,17.0775441 L12.9166667,18.9112073 L11.0833333,18.9112073 L11.0833333,17.0775441 Z M15.6666667,17.0775441 L17.5,17.0775441 L17.5,18.9112073 L15.6666667,18.9112073 L15.6666667,17.0775441 Z" transform="translate(264 792)"/>
  </g>
</svg>
