<svg xmlns="http://www.w3.org/2000/svg" width="24" height="24" viewBox="0 0 24 24">
  <g fill="none" fill-rule="evenodd" transform="translate(-264 -792)">
    <path fill="#555" fill-rule="nonzero" d="M6,14.90925 L7.5,14.90925 C7.70710678,14.90925 7.875,14.7413568 7.875,14.53425 L7.875,13.03425 C7.875,12.8271432 7.70710678,12.65925 7.5,12.65925 L6,12.65925 C5.79289322,12.65925 5.625,12.8271432 5.625,13.03425 L5.625,14.53425 C5.625,14.74125 5.793,14.90925 6,14.90925 Z M11.226,14.90925 L12.7725,14.90925 C12.9665943,14.9084241 13.1235018,14.7508461 13.1235,14.55675 L13.1235,13.01175 C13.1235018,12.8176539 12.9665943,12.6600759 12.7725,12.65925 L11.226,12.65925 C11.0313196,12.65925 10.8735,12.8170696 10.8735,13.01175 L10.8735,14.55675 C10.8735,14.75175 11.031,14.90925 11.226,14.90925 L11.226,14.90925 Z M16.524,14.90925 L17.9775,14.90925 C18.198104,14.9084238 18.3765015,14.7293556 18.3765,14.50875 L18.3765,13.05825 C18.3765,12.8378884 18.1978616,12.65925 17.9775,12.65925 L16.524,12.65925 C16.30398,12.6600725 16.1258225,12.83823 16.125,13.05825 L16.125,14.51025 C16.125,14.73075 16.3035,14.90925 16.524,14.90925 L16.524,14.90925 Z M5.9535,19.64325 L7.5465,19.64325 C7.72792554,19.64325 7.875,19.4961755 7.875,19.31475 L7.875,17.72175 C7.875,17.5403245 7.72792554,17.39325 7.5465,17.39325 L5.9535,17.39325 C5.77207446,17.39325 5.625,17.5403245 5.625,17.72175 L5.625,19.31475 C5.625,19.49625 5.772,19.64325 5.9535,19.64325 L5.9535,19.64325 Z M12.819,17.39475 L11.1795,17.39475 C11.0113293,17.39475 10.875,17.5310793 10.875,17.69925 L10.875,19.33875 C10.875,19.50825 11.0115,19.64325 11.1795,19.64325 L12.819,19.64325 C12.9885,19.64325 13.125,19.50825 13.125,19.33875 L13.125,17.69925 C13.1254057,17.6181072 13.0932482,17.5401922 13.0357301,17.482956 C12.9782119,17.4257198 12.9001398,17.3939456 12.819,17.39475 L12.819,17.39475 Z M16.4535,19.64325 L18.048,19.64325 C18.2294255,19.64325 18.3765,19.4961755 18.3765,19.31475 L18.3765,17.72175 C18.3765,17.5403245 18.2294255,17.39325 18.048,17.39325 L16.4535,17.39325 C16.2720745,17.39325 16.125,17.5403245 16.125,17.72175 L16.125,19.31475 C16.125,19.49625 16.272,19.64325 16.4535,19.64325 L16.4535,19.64325 Z M21.4545,2.11725 L17.97,2.11725 L17.97,0.66225 C17.9463242,0.307705348 17.6518343,0.0322249931 17.2965,0.0322249931 C16.9411657,0.0322249931 16.6466758,0.307705348 16.623,0.66225 L16.623,2.11725 L7.377,2.11725 L7.377,0.67425 C7.377,0.301872007 7.07512799,2.34187669e-17 6.70275,0 C6.33037201,-2.34187669e-17 6.0285,0.301872007 6.0285,0.67425 L6.0285,2.11725 L2.544,2.11725 C1.1415,2.11725 0,3.25725 0,4.65825 L0,21.44625 C0,22.84875 1.1415,23.98875 2.544,23.98875 L21.453,23.98875 C22.857,23.98875 24,22.84875 24,21.44775 L24,4.65825 C24,3.25725 22.857,2.11725 21.4545,2.11725 Z M22.503,21.44775 C22.5013487,22.0258921 22.0326439,22.4939264 21.4545,22.49475 L2.544,22.49475 C1.96610042,22.4939238 1.49782616,22.0256496 1.497,21.44775 L1.497,9.41025 L22.503,9.41025 L22.503,21.44775 Z M22.503,8.06475 L1.497,8.06475 L1.497,4.65825 C1.497,4.08075 1.9665,3.61125 2.544,3.61125 L6.0285,3.61125 L6.0285,4.65975 C6.04548585,5.01977398 6.34232554,5.30293903 6.70275,5.30293903 C7.06317446,5.30293903 7.36001415,5.01977398 7.377,4.65975 L7.377,3.61125 L16.623,3.61125 L16.623,4.64775 C16.623,5.01971378 16.9245362,5.32125 17.2965,5.32125 C17.6684638,5.32125 17.97,5.01971378 17.97,4.64775 L17.97,3.61125 L21.453,3.61125 C22.0311439,3.61207356 22.4998487,4.08010787 22.5015,4.65825 L22.5015,8.06475 L22.503,8.06475 Z" transform="translate(264 792)"/>
  </g>
</svg>
