<svg xmlns="http://www.w3.org/2000/svg" width="24" height="24" viewBox="0 0 24 24">
  <path fill="#555" d="M4.39315828,6.19552726 L2.68568843,6.19552726 C2.30699317,6.19552726 2,5.88571315 2,5.50353807 C2,5.12136299 2.30699317,4.81154887 2.68568843,4.81154887 L8.1558091,4.81154887 C8.17041963,4.29792458 8.36051803,3.77726442 8.7098201,3.26219866 C9.23012695,2.49497667 10.0420659,2.07384751 11.1285609,2 L13.102803,2.00487381 C13.8809966,2.09857895 14.5627342,2.46497512 15.1253642,3.0831551 C15.5837211,3.58676671 15.8247362,4.1728192 15.8394421,4.81154887 L21.3143116,4.81154887 C21.6930068,4.81154887 22,5.12136299 22,5.50353807 C22,5.88571315 21.6930068,6.19552726 21.3143116,6.19552726 L19.4783037,6.19552726 L19.4783037,17.8224356 C19.4783037,20.3654005 18.529181,22 16.4365642,22 L7.41874994,22 C5.32701954,22 4.39315828,20.3737591 4.39315828,17.8224356 L4.39315828,6.19552726 Z M5.76453514,6.19552726 L5.76453514,17.8224356 C5.76453514,19.7103418 6.28461756,20.6160216 7.41874994,20.6160216 L16.4365642,20.6160216 C17.5759705,20.6160216 18.1069268,19.7015972 18.1069268,17.8224356 L18.1069268,6.19552726 L5.76453514,6.19552726 Z M9.52921551,4.81154887 L14.4674106,4.81154887 C14.4532075,4.51999799 14.3384211,4.26443084 14.1153724,4.01935991 C13.7693001,3.63911901 13.3851686,3.43266964 13.0215648,3.38397839 L11.1756546,3.38234438 C10.5343468,3.42689992 10.1110274,3.64646338 9.84152662,4.04385759 C9.64387403,4.33530758 9.54499207,4.58715461 9.52921551,4.81154887 Z M8.02952192,9.03210342 C8.02952192,8.64992834 8.33651508,8.34011422 8.71521035,8.34011422 C9.09390561,8.34011422 9.40089877,8.64992834 9.40089877,9.03210342 L9.40089877,17.0820969 C9.40089877,17.464272 9.09390561,17.7740861 8.71521035,17.7740861 C8.33651508,17.7740861 8.02952192,17.464272 8.02952192,17.0820969 L8.02952192,9.03210342 Z M10.7567946,9.03210342 C10.7567946,8.64992834 11.0637878,8.34011422 11.4424831,8.34011422 C11.8211783,8.34011422 12.1281715,8.64992834 12.1281715,9.03210342 L12.1281715,17.0820969 C12.1281715,17.464272 11.8211783,17.7740861 11.4424831,17.7740861 C11.0637878,17.7740861 10.7567946,17.464272 10.7567946,17.0820969 L10.7567946,9.03210342 Z M13.4840674,9.03210342 C13.4840674,8.64992834 13.7910605,8.34011422 14.1697558,8.34011422 C14.5484511,8.34011422 14.8554442,8.64992834 14.8554442,9.03210342 L14.8554442,17.0820969 C14.8554442,17.464272 14.5484511,17.7740861 14.1697558,17.7740861 C13.7910605,17.7740861 13.4840674,17.464272 13.4840674,17.0820969 L13.4840674,9.03210342 Z"/>
</svg>
