<svg xmlns="http://www.w3.org/2000/svg" width="24" height="24" viewBox="0 0 24 24">
  <g fill="none" fill-rule="evenodd" transform="translate(-692 -740)">
    <path fill="#555" fill-rule="nonzero" d="M14.3732739,8.79020045 C14.3732739,8.34654788 14.7447661,7.9857461 15.1723831,7.9857461 C15.613363,7.9857461 15.9714922,8.35723831 15.9714922,8.79020045 L15.9714922,18.3634744 C15.9714922,18.8071269 15.6,19.1679287 15.1723831,19.1679287 C14.7314031,19.1679287 14.3732739,18.7964365 14.3732739,18.3634744 L14.3732739,8.79020045 Z M11.17951,8.79020045 C11.17951,8.34654788 11.5510022,7.9857461 11.9786192,7.9857461 C12.4195991,7.9857461 12.7777283,8.35723831 12.7777283,8.79020045 L12.7777283,18.3634744 C12.7777283,18.8071269 12.4062361,19.1679287 11.9786192,19.1679287 C11.5376392,19.1679287 11.17951,18.7964365 11.17951,18.3634744 L11.17951,8.79020045 Z M7.9857461,8.79020045 C7.9857461,8.34654788 8.35723831,7.9857461 8.78485523,7.9857461 C9.22583519,7.9857461 9.58396437,8.35723831 9.58396437,8.79020045 L9.58396437,18.3634744 C9.58396437,18.8071269 9.21247216,19.1679287 8.78485523,19.1679287 C8.34387528,19.1679287 7.9857461,18.7964365 7.9857461,18.3634744 L7.9857461,8.79020045 Z M4.79198218,20.7581292 C4.79198218,21.6481069 5.50022272,22.35902 6.37683742,22.35902 L17.5830735,22.35902 C18.4489978,22.35902 19.1679287,21.6374165 19.1679287,20.7581292 L19.1679287,4.79198218 L4.79198218,4.79198218 L4.79198218,20.7581292 Z M14.3732739,3.19376392 L14.3732739,2.39465479 C14.3732739,1.94832962 14.02049,1.59554566 13.5741648,1.59554566 L10.3804009,1.59554566 C9.94209354,1.59554566 9.58129176,1.95634744 9.58129176,2.39465479 L9.58129176,3.19376392 L14.3732739,3.19376392 Z M3.19376392,4.79198218 L0.796436526,4.79198218 C0.35545657,4.79198218 0,4.42048998 0,3.99287305 C0,3.5518931 0.358129176,3.19376392 0.796436526,3.19376392 L7.9857461,3.19376392 L7.9857461,2.39465479 C7.9857461,1.07171492 9.06280624,0 10.3830735,0 L13.5768374,0 C14.8997773,0 15.9741648,1.0636971 15.9741648,2.39465479 L15.9741648,3.19376392 L23.1634744,3.19376392 C23.6044543,3.19376392 23.9599109,3.56525612 23.9599109,3.99287305 C23.9599109,4.43385301 23.6017817,4.79198218 23.1634744,4.79198218 L20.766147,4.79198218 L20.766147,20.7608018 C20.766147,22.5273942 19.3282851,23.9599109 17.5857461,23.9599109 L6.37683742,23.9599109 C4.62093541,23.9599109 3.19643653,22.5327394 3.19643653,20.7608018 L3.19643653,4.79198218 L3.19376392,4.79198218 Z" transform="translate(692 740)"/>
  </g>
</svg>
