<svg xmlns="http://www.w3.org/2000/svg" width="24" height="24" viewBox="0 0 24 24">
  <g fill="none" fill-rule="evenodd" transform="translate(-696 -744)">
    <path fill="#555" fill-rule="nonzero" d="M3.20408063,5.63220216 L1.75425727,5.63220216 C1.33769248,5.63220216 1,5.29014227 1,4.86819 C1,4.44623774 1.33769248,4.10417785 1.75425727,4.10417785 L7.77139001,4.10417785 C7.78746159,3.53709499 7.99656983,2.96224398 8.38080211,2.39356963 C8.95313964,1.54649436 9.84627253,1.08153363 11.041417,1 L13.2130833,1.00538108 C14.0690963,1.10883915 14.8190076,1.51337022 15.4379007,2.19589102 C15.9420932,2.75191907 16.2072099,3.39896852 16.2233863,4.10417785 L22.2457427,4.10417785 C22.6623075,4.10417785 23,4.44623774 23,4.86819 C23,5.29014227 22.6623075,5.63220216 22.2457427,5.63220216 L19.7977406,5.63220216 L19.7977406,18.3876303 C19.7977406,21.1952696 18.7537056,23 16.4518272,23 L6.53223146,23 C4.23132802,23 3.20408063,21.2044982 3.20408063,18.3876303 L3.20408063,5.63220216 Z M4.71259517,5.63220216 L4.71259517,18.3876303 C4.71259517,20.4720318 5.28468583,21.4719757 6.53223146,21.4719757 L16.4518272,21.4719757 C17.705174,21.4719757 18.289226,20.462377 18.289226,18.3876303 L18.289226,5.63220216 L4.71259517,5.63220216 Z M9.28213706,4.10417785 L14.7141517,4.10417785 C14.6985283,3.78228204 14.5722633,3.50011519 14.3269096,3.22953702 C13.9462301,2.80972025 13.5236855,2.58178341 13.1237213,2.52802432 L11.0932201,2.52622024 C10.3877815,2.57541316 9.92213015,2.81782902 9.62567928,3.25658445 C9.40826143,3.57836885 9.29949127,3.85642839 9.28213706,4.10417785 Z M7.98104335,8.7384397 C7.98104335,8.31648744 8.31873583,7.97442754 8.73530062,7.97442754 C9.1518654,7.97442754 9.48955789,8.31648744 9.48955789,8.7384397 L9.48955789,17.626285 C9.48955789,18.0482372 9.1518654,18.3902971 8.73530062,18.3902971 C8.31873583,18.3902971 7.98104335,18.0482372 7.98104335,17.626285 L7.98104335,8.7384397 Z M10.9980724,8.7384397 C10.9980724,8.31648744 11.3357649,7.97442754 11.7523297,7.97442754 C12.1688945,7.97442754 12.506587,8.31648744 12.506587,8.7384397 L12.506587,17.626285 C12.506587,18.0482372 12.1688945,18.3902971 11.7523297,18.3902971 C11.3357649,18.3902971 10.9980724,18.0482372 10.9980724,17.626285 L10.9980724,8.7384397 Z M14.0151015,8.7384397 C14.0151015,8.31648744 14.352794,7.97442754 14.7693588,7.97442754 C15.1859236,7.97442754 15.5236161,8.31648744 15.5236161,8.7384397 L15.5236161,17.626285 C15.5236161,18.0482372 15.1859236,18.3902971 14.7693588,18.3902971 C14.352794,18.3902971 14.0151015,18.0482372 14.0151015,17.626285 L14.0151015,8.7384397 Z" transform="translate(696 744)"/>
  </g>
</svg>
