<svg xmlns="http://www.w3.org/2000/svg" width="24" height="24" viewBox="0 0 24 24">
  <path fill="#555" d="M19.9662004,9.47474562 C19.9321515,9.62207529 19.8512853,9.83414072 19.7384983,10.0930838 L19.7406263,10.0930838 L19.727858,10.1176387 C19.0617761,11.6154904 17.3231533,14.5509225 17.3231533,14.5509225 C17.3231533,14.5509225 17.3210253,14.5442257 17.3146411,14.5330644 L16.8060354,15.4616877 L19.2554293,15.4616877 L14.5758314,22 L15.637732,17.5533226 L13.7097121,17.5533226 L14.3800502,14.613426 C13.8373956,14.7518266 13.1968504,14.9393371 12.439262,15.1960479 C12.439262,15.1960479 11.4135384,15.8277797 9.48339048,13.9816942 C9.48339048,13.9816942 8.18101946,12.7762696 8.93647977,12.4771457 C9.25781642,12.3499065 10.4942177,12.1869509 11.4688679,12.0485503 C12.7840072,11.8610398 13.592669,11.7628201 13.592669,11.7628201 C13.592669,11.7628201 9.53659191,11.8275558 8.57471004,11.6668326 C7.61282818,11.5083415 6.39132332,9.82074712 6.13170034,8.33852133 C6.13170034,8.33852133 5.72949753,7.5237436 6.99569158,7.90992592 C8.26188563,8.29610824 13.5054186,9.41000985 13.5054186,9.41000985 C13.5054186,9.41000985 6.68499522,7.21345838 6.23171903,6.67771412 C5.77844284,6.14196985 4.89529909,3.75344335 5.01021418,2.28461117 C5.01021418,2.28461117 5.0591595,1.91851926 5.41667311,2.01673904 C5.41667311,2.01673904 10.4580407,4.43651729 13.9054934,5.76248434 C17.3550742,7.08621912 20.3535068,7.76036398 19.9662004,9.47474562 Z"/>
</svg>
