<svg xmlns="http://www.w3.org/2000/svg" width="24" height="24" viewBox="0 0 24 24">
  <g fill="none" fill-rule="evenodd" transform="translate(-504 -1152)">
    <path fill="#555" fill-rule="nonzero" d="M20.9616938,9.22222018 C20.923105,9.38428282 20.8314567,9.6175548 20.7036314,9.90239216 L20.7060432,9.90239216 L20.6915724,9.9294026 C19.9366796,11.5770394 17.9662404,14.8060147 17.9662404,14.8060147 C17.9662404,14.8060147 17.9638286,14.7986483 17.9565932,14.7863708 L17.3801735,15.8078565 L20.1561532,15.8078565 L14.852609,23 L16.0560963,18.1086549 L13.8710071,18.1086549 L14.6307235,14.8747686 C14.015715,15.0270093 13.2897637,15.2332708 12.4311636,15.5156527 C12.4311636,15.5156527 11.2686768,16.2105576 9.08117588,14.1798636 C9.08117588,14.1798636 7.60515538,12.8538966 8.46134374,12.5248603 C8.82552527,12.3848971 10.22678,12.205646 11.3313836,12.0534054 C12.8218749,11.8471438 13.7383582,11.7391021 13.7383582,11.7391021 C13.7383582,11.7391021 9.14147083,11.8103114 8.05133805,11.6335158 C6.96120527,11.4591757 5.5768331,9.60282183 5.28259372,7.97237346 C5.28259372,7.97237346 4.82676386,7.07611796 6.26178379,7.50091851 C7.69680372,7.92571906 13.6394745,9.15101084 13.6394745,9.15101084 C13.6394745,9.15101084 5.90966125,6.73480422 5.39594824,6.14548553 C4.88223522,5.55616684 3.88133897,2.92878769 4.01157607,1.31307229 C4.01157607,1.31307229 4.06704743,0.910371185 4.47222953,1.01841294 C4.47222953,1.01841294 10.1857795,3.68016902 14.0928925,5.13873277 C18.0024174,6.59484103 21.4006411,7.33640038 20.9616938,9.22222018 Z" transform="translate(504 1152)"/>
  </g>
</svg>
