<svg xmlns="http://www.w3.org/2000/svg" width="24" height="24" viewBox="0 0 24 24">
  <g fill="none" fill-rule="evenodd" transform="translate(-504 -1152)">
    <path fill="#555" fill-rule="nonzero" d="M16.9616938,8.22222018 C16.923105,8.38428282 16.8314567,8.6175548 16.7036314,8.90239216 L16.7060432,8.90239216 L16.6915724,8.9294026 C15.9366796,10.5770394 13.9662404,13.8060147 13.9662404,13.8060147 C13.9662404,13.8060147 13.9638286,13.7986483 13.9565932,13.7863708 L13.3801735,14.8078565 L16.1561532,14.8078565 L10.852609,22 L12.0560963,17.1086549 L9.8710071,17.1086549 L10.6307235,13.8747686 C10.015715,14.0270093 9.28976373,14.2332708 8.43116357,14.5156527 C8.43116357,14.5156527 7.26867684,15.2105576 5.08117588,13.1798636 C5.08117588,13.1798636 3.60515538,11.8538966 4.46134374,11.5248603 C4.82552527,11.3848971 6.22678002,11.205646 7.3313836,11.0534054 C8.82187488,10.8471438 9.7383582,10.7391021 9.7383582,10.7391021 C9.7383582,10.7391021 5.14147083,10.8103114 4.05133805,10.6335158 C2.96120527,10.4591757 1.5768331,8.60282183 1.28259372,6.97237346 C1.28259372,6.97237346 0.826763862,6.07611796 2.26178379,6.50091851 C3.69680372,6.92571906 9.63947447,8.15101084 9.63947447,8.15101084 C9.63947447,8.15101084 1.90966125,5.73480422 1.39594824,5.14548553 C0.882235221,4.55616684 -0.11866103,1.92878769 0.0115760722,0.313072288 C0.0115760722,0.313072288 0.0670474307,-0.0896288153 0.472229528,0.0184129441 C0.472229528,0.0184129441 6.18577945,2.68016902 10.0928925,4.13873277 C14.0024174,5.59484103 17.4006411,6.33640038 16.9616938,8.22222018 Z" transform="translate(508 1153)"/>
  </g>
</svg>
