<svg xmlns="http://www.w3.org/2000/svg" width="20" height="20" viewBox="0 0 20 20">
  <path fill="#555" d="M1.86088057,9.49461632 L1.86086471,16.6522169 L4.88924934,16.6522169 L5.04295141,16.669915 C7.85632613,17.3264467 9.719553,17.7987199 10.6492205,18.0919596 C11.8826979,18.4810282 12.3431033,18.575637 13.1802647,18.6322585 C13.8063982,18.674607 14.5169996,18.4335226 14.8413428,18.103732 C15.0196863,17.9223933 15.1542622,17.5483534 15.2069375,16.9681973 C15.2294857,16.7198551 15.3853604,16.5037105 15.6133359,16.4046624 C15.8618479,16.2966919 16.0685557,16.1212587 16.2419902,15.865589 C16.4011699,15.6309331 16.5058214,15.1954671 16.5246237,14.5640487 C16.5316554,14.3279089 16.6600195,14.1122725 16.863849,13.9941906 C17.4457511,13.6570847 17.7347296,13.2769776 17.7943246,12.8312056 C17.8602481,12.338096 17.6995661,11.7826785 17.2806277,11.1512656 C17.0760317,10.8429039 17.1543442,10.4269441 17.4569335,10.21481 C17.8582156,9.93348616 18.0779653,9.5409083 18.1332748,8.9851434 C18.2214317,8.09931968 17.656275,7.44351055 16.3773623,7.31252406 C15.2624423,7.19833374 14.1323013,7.29247162 12.9832786,7.59641559 C12.4250699,7.74407516 11.9496765,7.16931529 12.1968787,6.64564266 C12.6963307,5.58760445 12.9752151,4.71453762 13.0396762,4.03901467 C13.1253087,3.14162377 12.9181163,2.49152051 12.4338786,1.95581546 C12.0672119,1.55017735 11.4799973,1.31763269 11.2600333,1.36531558 C10.9696082,1.42827276 10.781031,1.59684713 10.5352097,2.18427466 C10.3897068,2.53197598 10.3199789,2.8282418 10.1997294,3.51866179 C10.0854712,4.17468235 10.021958,4.4707247 9.89107836,4.85968417 C9.49574015,6.03458495 8.52731995,7.25370081 7.2256191,8.09546562 C6.32090012,8.68051601 5.34158756,9.13691545 4.28933455,9.46424884 C4.2242644,9.48449077 4.15652971,9.49478472 4.08840697,9.49478472 L1.86088057,9.49461632 Z M1.81780294,18.0148644 C1.49539565,18.0236275 1.20468734,17.9522771 0.96234885,17.7821144 C0.652432695,17.5645007 0.505943732,17.2231922 0.503235065,16.8290895 L0.505846906,9.50610364 C0.471636891,9.11574509 0.587320472,8.75762347 0.858889377,8.49174573 C1.11359001,8.24238276 1.44664516,8.12370393 1.79943013,8.13188763 L3.98409667,8.13188763 C4.88260664,7.84342441 5.71754484,7.44949057 6.49039908,6.94971253 C7.53799965,6.27226556 8.30960035,5.30092001 8.60483191,4.42352493 C8.70639643,4.12168658 8.75987737,3.87240596 8.86237135,3.28393051 C8.99972371,2.49531346 9.0861607,2.1280525 9.28352472,1.65642103 C9.69468034,0.673901842 10.2315864,0.193946916 10.9734676,0.0331248912 C11.7036464,-0.12516034 12.7666223,0.295791979 13.4392897,1.03995414 C14.184139,1.86397017 14.5127105,2.89492167 14.3911352,4.16897582 C14.338872,4.71667099 14.1870452,5.3301477 13.9372676,6.01270565 C14.8022674,5.8881032 15.6619273,5.86927699 16.5151615,5.95666541 C18.5222793,6.1622348 19.648549,7.46916076 19.4841955,9.12062866 C19.413311,9.83289448 19.1548581,10.4377417 18.7162102,10.9127663 C19.0848501,11.624358 19.2315959,12.3266504 19.1399064,13.01249 C19.0342981,13.8024424 18.5938139,14.4606697 17.8615933,14.9717849 C17.8050365,15.6649876 17.6457321,16.2176207 17.3641529,16.6327126 C17.1297511,16.9782578 16.8448812,17.2576621 16.5130466,17.4656797 C16.4050245,18.1502334 16.1776602,18.6848483 15.8074649,19.061261 C15.1921032,19.6869577 14.0926808,20.0599567 13.089001,19.9920727 C12.1364602,19.9276476 11.5723519,19.8117289 10.2422529,19.3921834 C9.36450134,19.1153193 7.54881088,18.6545996 4.81132055,18.0151077 L1.81780294,18.0148644 Z M3.51948917,9.18352286 C3.51948917,8.80716922 3.82340849,8.50207431 4.19831198,8.50207431 C4.57321546,8.50207431 4.87713478,8.80716922 4.87713478,9.18352286 L4.87713478,16.8619216 C4.87713478,17.2382753 4.57321546,17.5433702 4.19831198,17.5433702 C3.82340849,17.5433702 3.51948917,17.2382753 3.51948917,16.8619216 L3.51948917,9.18352286 Z" transform="matrix(1 0 0 -1 0 20)"/>
</svg>
