<svg xmlns="http://www.w3.org/2000/svg" width="24" height="24" viewBox="0 0 24 24">
  <g fill="none" fill-rule="evenodd" transform="translate(-216 -792)">
    <path fill="#555" fill-rule="nonzero" d="M3.14427711,17.646335 L3.14427711,14.9857611 L1.74363483,14.9857611 C1.33293666,14.9857611 1,14.6499747 1,14.2357611 C1,13.8215475 1.33293666,13.4857611 1.74363483,13.4857611 L3.14427711,13.4857611 L3.14427711,10.8114727 L1.74363483,10.8114727 C1.33293666,10.8114727 1,10.4756863 1,10.0614727 C1,9.64725918 1.33293666,9.31147274 1.74363483,9.31147274 L3.14427711,9.31147274 L3.14427711,6.63459988 L1.74363483,6.63459988 C1.33293666,6.63459988 1,6.29881344 1,5.88459988 C1,5.47038632 1.33293666,5.13459988 1.74363483,5.13459988 L3.14427711,5.13459988 L3.14427711,3 C3.14427711,1.8954305 4.03210819,1 5.12730333,1 L18.0169738,1 C19.1121689,1 20,1.8954305 20,3 L20,21 C20,22.1045695 19.1121689,23 18.0169738,23 L5.12730333,23 C4.03210819,23 3.14427711,22.1045695 3.14427711,21 L3.14427711,19.146335 L1.74363483,19.146335 C1.33293666,19.146335 1,18.8105486 1,18.396335 C1,17.9821214 1.33293666,17.646335 1.74363483,17.646335 L3.14427711,17.646335 Z M5.45074549,17.6475547 C5.84154151,17.6699045 6.15161044,17.9965996 6.15161044,18.396335 C6.15161044,18.8105486 5.81867379,19.146335 5.40797561,19.146335 L4.63341087,19.146335 L4.63339307,21.0863341 C4.64129021,21.1839904 4.6859164,21.2749532 4.76727163,21.3592224 C4.84862687,21.4434916 4.94939298,21.4909566 5.06956997,21.5016174 L14.3872303,21.5018069 L14.3872303,2.50041964 L5.04224647,2.50041964 C4.93931852,2.5031939 4.84766024,2.54635338 4.76727163,2.62989807 C4.68688303,2.71344277 4.64227684,2.81189756 4.63345307,2.92526245 L4.63344591,5.13459988 L5.40797561,5.13459988 C5.74226222,5.13459988 6.02503105,5.35706174 6.11867939,5.66320494 C6.12769013,5.69068603 6.13433174,5.71831923 6.13906626,5.7466938 C6.14730391,5.79139564 6.15161044,5.83749053 6.15161044,5.88459988 C6.15161044,6.29881344 5.81867379,6.63459988 5.40797561,6.63459988 L4.63343973,6.63459988 L4.63343153,9.30856541 L5.44050988,9.30856541 C5.45820394,9.3108312 5.47552306,9.31339624 5.49246722,9.31626052 C5.86338191,9.35856784 6.15161044,9.67607249 6.15161044,10.0614727 C6.15161044,10.4756863 5.81867379,10.8114727 5.40797561,10.8114727 L4.63342533,10.8114727 L4.63341711,13.4857611 L5.40797561,13.4857611 C5.53393636,13.4857611 5.65258253,13.5173466 5.75655246,13.573093 C5.81581211,13.6010868 5.86522305,13.6359515 5.90478527,13.6776869 C6.056309,13.8149865 6.15161044,14.0141491 6.15161044,14.2357611 C6.15161044,14.2690559 6.14945931,14.301844 6.14528958,14.3339918 C6.13805694,14.4004097 6.12057605,14.4643806 6.0942125,14.5252011 C5.98191238,14.7957139 5.71694959,14.9857611 5.40797561,14.9857611 L4.63345305,14.9857611 L4.63342908,17.6458593 L5.44050988,17.6458593 C5.44393636,17.6464152 5.44734823,17.6469803 5.45074549,17.6475547 Z M15.8694811,2.49851463 L15.8694811,21.4997217 L18.0755241,21.4997124 C18.1771627,21.500484 18.2725831,21.4529215 18.3617854,21.3570251 C18.4509877,21.2611287 18.5009597,21.1629333 18.5117015,21.062439 L18.5117015,2.97332764 C18.4999108,2.84617106 18.4499387,2.73678589 18.3617854,2.64517212 C18.2736321,2.55355835 18.1648828,2.50467252 18.0355374,2.49851463 L15.8694811,2.49851463 Z" transform="translate(217 792)"/>
  </g>
</svg>
