<svg xmlns="http://www.w3.org/2000/svg" width="20" height="20" viewBox="0 0 20 20">
  <path fill="#555" d="M2.76795404,15.1330318 L2.76795404,12.7143283 L1.66535748,12.7143283 C1.29789069,12.7143283 1,12.4090679 1,12.0325101 C1,11.6559523 1.29789069,11.3506919 1.66535748,11.3506919 L2.76795404,11.3506919 L2.76795404,8.91952067 L1.66535748,8.91952067 C1.29789069,8.91952067 1,8.61426027 1,8.23770249 C1,7.86114471 1.29789069,7.55588431 1.66535748,7.55588431 L2.76795404,7.55588431 L2.76795404,5.12236353 L1.66535748,5.12236353 C1.29789069,5.12236353 1,4.81710313 1,4.44054534 C1,4.06398756 1.29789069,3.75872716 1.66535748,3.75872716 L2.76795404,3.75872716 L2.76795404,1.81818182 C2.76795404,0.814027728 3.56232921,3.81008356e-15 4.54224066,3.60822483e-15 L17.2257134,0 C18.2056248,-2.01858732e-16 19,0.814027728 19,1.81818182 L19,18.1818182 C19,19.1859723 18.2056248,20 17.2257134,20 L4.54224066,20 C3.56232921,20 2.76795404,19.1859723 2.76795404,18.1818182 L2.76795404,16.4966682 L1.66535748,16.4966682 C1.29789069,16.4966682 1,16.1914078 1,15.81485 C1,15.4382922 1.29789069,15.1330318 1.66535748,15.1330318 L2.76795404,15.1330318 Z M4.98224597,15.1341407 C5.33190556,15.1544586 5.60933566,15.4514542 5.60933566,15.81485 C5.60933566,16.1914078 5.31144497,16.4966682 4.94397818,16.4966682 L4.10033687,16.4966682 L4.10032095,18.2603037 C4.10738681,18.3490822 4.14731551,18.4317756 4.22010703,18.508384 C4.29289855,18.5849924 4.38305771,18.6281424 4.49058449,18.637834 L13.9780482,18.6380062 L13.9780482,1.36401786 L4.46613715,1.36401786 C4.37404371,1.36653991 4.29203368,1.4057758 4.22010703,1.48172552 C4.14818038,1.55767524 4.10826958,1.6471796 4.10037463,1.75023859 L4.10036822,3.75872716 L4.94397818,3.75872716 C5.24307672,3.75872716 5.49608041,3.96096522 5.57987103,4.23927722 C5.58793327,4.26426003 5.59387576,4.28938112 5.59811191,4.31517619 C5.60548245,4.35581422 5.60933566,4.39771867 5.60933566,4.44054534 C5.60933566,4.81710313 5.31144497,5.12236353 4.94397818,5.12236353 L4.1003627,5.12236353 L4.10035536,7.55324128 L4.97308779,7.55324128 C4.98891932,7.55530109 5.00441537,7.55763294 5.01957593,7.56023684 C5.35144697,7.59869803 5.60933566,7.88733862 5.60933566,8.23770249 C5.60933566,8.61426027 5.31144497,8.91952067 4.94397818,8.91952067 L4.10034981,8.91952067 L4.10034245,11.3506919 L4.94397818,11.3506919 C5.0566799,11.3506919 5.162837,11.379406 5.25586273,11.4300846 C5.30888452,11.4555335 5.3530943,11.4872286 5.38849208,11.5251699 C5.52406595,11.6499877 5.60933566,11.8310447 5.60933566,12.0325101 C5.60933566,12.0627781 5.60741096,12.0925855 5.60368015,12.1218107 C5.59720884,12.1821906 5.58156805,12.240346 5.55797961,12.2956374 C5.45750055,12.5415581 5.22042858,12.7143283 4.94397818,12.7143283 L4.10037462,12.7143283 L4.10035317,15.1325994 L4.97308779,15.1325994 C4.97615359,15.1331047 4.97920631,15.1336185 4.98224597,15.1341407 Z M15.3042726,1.36228602 L15.3042726,18.6361106 L17.2781005,18.6361022 C17.3690403,18.6368036 17.4544165,18.593565 17.5342291,18.5063865 C17.6140416,18.4192079 17.6587535,18.3299394 17.6683645,18.2385809 L17.6683645,1.79393422 C17.6578149,1.67833733 17.6131031,1.57889626 17.5342291,1.49561102 C17.455355,1.41232577 17.358053,1.36788411 17.242323,1.36228602 L15.3042726,1.36228602 Z"/>
</svg>
