<svg xmlns="http://www.w3.org/2000/svg" width="24" height="24" viewBox="0 0 24 24">
  <g fill="none" fill-rule="evenodd" transform="translate(-212 -788)">
    <path fill="#555" fill-rule="nonzero" d="M18.9436966,0 L3.58454861,0 C2.4619481,0 1.5516103,0.913385836 1.5516103,2.03974502 L1.5516103,4.47244095 L0.759362266,4.47244095 C0.340816148,4.47244095 0,4.81289838 0,5.23434572 C0,5.65579305 0.339321317,5.99625049 0.759362266,5.99625049 L1.5516103,5.99625049 L1.5516103,8.99587554 L0.759362266,8.99587554 C0.340816148,8.99587554 0,9.33633298 0,9.75778031 C0,10.1792276 0.339321317,10.5196851 0.759362266,10.5196851 L1.5516103,10.5196851 L1.5516103,13.4908137 L0.759362266,13.4908137 C0.340816148,13.4908137 0,13.8312711 0,14.2527185 C0,14.6741658 0.339321317,15.0146232 0.759362266,15.0146232 L1.5516103,15.0146232 L1.5516103,17.9962505 L0.759362266,17.9962505 C0.340816148,17.9962505 0,18.336708 0,18.7581553 C0,19.1796026 0.339321317,19.5200601 0.759362266,19.5200601 L1.5516103,19.5200601 L1.5516103,21.9602551 C1.5516103,23.0866143 2.46194813,24.0000001 3.58454861,24.0000001 L18.9436966,24.0000001 C20.0662971,24.0000001 20.9766349,23.0866143 20.9766349,21.9602551 L20.9766349,2.04124495 C20.9766349,0.914885742 20.066297,0.00149992969 18.9436966,0.00149992969 L18.9436966,0 Z M3.0344594,21.9572554 L3.0344594,19.5170604 L3.75944107,19.5170604 C4.17798719,19.5170604 4.51880334,19.1766029 4.51880334,18.7551556 C4.51880334,18.3337083 4.17948202,17.9932508 3.75944107,17.9932508 L3.0344594,17.9932508 L3.0344594,15.0116235 L3.75944107,15.0116235 C4.17798719,15.0116235 4.51880334,14.6711661 4.51880334,14.2497188 C4.51880334,13.8282714 4.17948202,13.487814 3.75944107,13.487814 L3.0344594,13.487814 L3.0344594,10.5166854 L3.75944107,10.5166854 C4.17798719,10.5166854 4.51880334,10.1762279 4.51880334,9.75478059 C4.51880334,9.33333326 4.17948202,8.99287582 3.75944107,8.99287582 L3.0344594,8.99287582 L3.0344594,5.99325077 L3.75944107,5.99325077 C4.17798719,5.99325077 4.51880334,5.65279334 4.51880334,5.231346 C4.51880334,4.80989866 4.17948202,4.46944123 3.75944107,4.46944123 L3.0344594,4.46944123 L3.0344594,2.0367453 C3.0344594,1.73228337 3.28110265,1.4848143 3.58454859,1.4848143 L14.9929201,1.4848143 L14.9929201,22.5076864 L3.58454859,22.5076864 C3.28110265,22.5076864 3.0344594,22.2602174 3.0344594,21.9557554 L3.0344594,21.9572554 Z M19.4937857,21.9572554 C19.4937857,22.2617173 19.2471425,22.5091864 18.9436966,22.5091864 L16.462316,22.5091864 L16.462316,1.48631421 L18.9436966,1.48631421 C19.2471425,1.48631421 19.4937857,1.73378327 19.4937857,2.03824521 L19.4937857,21.9572553 L19.4937857,21.9572554 Z" transform="translate(213 788)"/>
  </g>
</svg>
