<svg xmlns="http://www.w3.org/2000/svg" width="24" height="24" viewBox="0 0 24 24">
  <path fill="#555" d="M4.76795404,17.1330318 L4.76795404,14.7143283 L3.66535748,14.7143283 C3.29789069,14.7143283 3,14.4090679 3,14.0325101 C3,13.6559523 3.29789069,13.3506919 3.66535748,13.3506919 L4.76795404,13.3506919 L4.76795404,10.9195207 L3.66535748,10.9195207 C3.29789069,10.9195207 3,10.6142603 3,10.2377025 C3,9.86114471 3.29789069,9.55588431 3.66535748,9.55588431 L4.76795404,9.55588431 L4.76795404,7.12236353 L3.66535748,7.12236353 C3.29789069,7.12236353 3,6.81710313 3,6.44054534 C3,6.06398756 3.29789069,5.75872716 3.66535748,5.75872716 L4.76795404,5.75872716 L4.76795404,3.81818182 C4.76795404,2.81402773 5.56232921,2 6.54224066,2 L19.2257134,2 C20.2056248,2 21,2.81402773 21,3.81818182 L21,20.1818182 C21,21.1859723 20.2056248,22 19.2257134,22 L6.54224066,22 C5.56232921,22 4.76795404,21.1859723 4.76795404,20.1818182 L4.76795404,18.4966682 L3.66535748,18.4966682 C3.29789069,18.4966682 3,18.1914078 3,17.81485 C3,17.4382922 3.29789069,17.1330318 3.66535748,17.1330318 L4.76795404,17.1330318 Z M6.98224597,17.1341407 C7.33190556,17.1544586 7.60933566,17.4514542 7.60933566,17.81485 C7.60933566,18.1914078 7.31144497,18.4966682 6.94397818,18.4966682 L6.10033687,18.4966682 L6.10032095,20.2603037 C6.10738681,20.3490822 6.14731551,20.4317756 6.22010703,20.508384 C6.29289855,20.5849924 6.38305771,20.6281424 6.49058449,20.637834 L15.9780482,20.6380062 L15.9780482,3.36401786 L6.46613715,3.36401786 C6.37404371,3.36653991 6.29203368,3.4057758 6.22010703,3.48172552 C6.14818038,3.55767524 6.10826958,3.6471796 6.10037463,3.75023859 L6.10036822,5.75872716 L6.94397818,5.75872716 C7.24307672,5.75872716 7.49608041,5.96096522 7.57987103,6.23927722 C7.58793327,6.26426003 7.59387576,6.28938112 7.59811191,6.31517619 C7.60548245,6.35581422 7.60933566,6.39771867 7.60933566,6.44054534 C7.60933566,6.81710313 7.31144497,7.12236353 6.94397818,7.12236353 L6.1003627,7.12236353 L6.10035536,9.55324128 L6.97308779,9.55324128 C6.98891932,9.55530109 7.00441537,9.55763294 7.01957593,9.56023684 C7.35144697,9.59869803 7.60933566,9.88733862 7.60933566,10.2377025 C7.60933566,10.6142603 7.31144497,10.9195207 6.94397818,10.9195207 L6.10034981,10.9195207 L6.10034245,13.3506919 L6.94397818,13.3506919 C7.0566799,13.3506919 7.162837,13.379406 7.25586273,13.4300846 C7.30888452,13.4555335 7.3530943,13.4872286 7.38849208,13.5251699 C7.52406595,13.6499877 7.60933566,13.8310447 7.60933566,14.0325101 C7.60933566,14.0627781 7.60741096,14.0925855 7.60368015,14.1218107 C7.59720884,14.1821906 7.58156805,14.240346 7.55797961,14.2956374 C7.45750055,14.5415581 7.22042858,14.7143283 6.94397818,14.7143283 L6.10037462,14.7143283 L6.10035317,17.1325994 L6.97308779,17.1325994 C6.97615359,17.1331047 6.97920631,17.1336185 6.98224597,17.1341407 Z M17.3042726,3.36228602 L17.3042726,20.6361106 L19.2781005,20.6361022 C19.3690403,20.6368036 19.4544165,20.593565 19.5342291,20.5063865 C19.6140416,20.4192079 19.6587535,20.3299394 19.6683645,20.2385809 L19.6683645,3.79393422 C19.6578149,3.67833733 19.6131031,3.57889626 19.5342291,3.49561102 C19.455355,3.41232577 19.358053,3.36788411 19.242323,3.36228602 L17.3042726,3.36228602 Z"/>
</svg>
