<svg xmlns="http://www.w3.org/2000/svg" width="24" height="24" viewBox="0 0 24 24">
  <path fill="#555" fill-rule="evenodd" d="M14.0318404,5.00075965 L14.0318404,7.00227895 C14.0318404,7.55498325 13.5837851,8.0030386 13.0310808,8.0030386 L3.00108033,8.0030386 C2.44837604,8.0030386 2.00032068,7.55498325 2.00032068,7.00227895 L2.00032068,5.00075965 C2.00032068,4.44805536 2.44837604,4 3.00108033,4 L13.0310808,4 C13.5837851,4 14.0318404,4.44805536 14.0318404,5.00075965 Z M17.0202871,16.997721 L17.0202871,18.9992403 C17.0202871,19.5519446 16.5722317,20 16.0195274,20 L3.00075965,20 C2.44805536,20 2,19.5519446 2,18.9992403 L2,16.997721 C2,16.4450168 2.44805536,15.9969614 3.00075965,15.9969614 L16.0195274,15.9969614 C16.5722317,15.9969614 17.0202871,16.4450168 17.0202871,16.997721 Z M22,11.0085379 L22,13.0100573 C22,13.5627615 21.5519446,14.0108169 20.9992403,14.0108169 L3.00075965,14.0108169 C2.44805536,14.0108169 2,13.5627615 2,13.0100573 L2,11.0085379 C2,10.4558337 2.44805536,10.0077783 3.00075965,10.0077783 L20.9992403,10.0077783 C21.5519446,10.0077783 22,10.4558337 22,11.0085379 Z"/>
</svg>
