<svg xmlns="http://www.w3.org/2000/svg" width="24" height="24" viewBox="0 0 24 24">
  <g fill="none" fill-rule="evenodd" transform="translate(-168 -840)">
    <path fill="#555" d="M2,2.97140015 L13,2.97140015 C13.5522847,2.97140015 14,3.4191154 14,3.97140015 L14,5.47140015 C14,6.0236849 13.5522847,6.47140015 13,6.47140015 L2,6.47140015 C1.44771525,6.47140015 1,6.0236849 1,5.47140015 L1,3.97140015 C1,3.4191154 1.44771525,2.97140015 2,2.97140015 Z M2,13.4714002 L16,13.4714002 C16.5522847,13.4714002 17,13.9191154 17,14.4714002 L17,15.9714002 C17,16.5236849 16.5522847,16.9714002 16,16.9714002 L2,16.9714002 C1.44771525,16.9714002 1,16.5236849 1,15.9714002 L1,14.4714002 C1,13.9191154 1.44771525,13.4714002 2,13.4714002 Z M2,8.22140015 L22,8.22140015 C22.5522847,8.22140015 23,8.6691154 23,9.22140015 L23,10.7214002 C23,11.2736849 22.5522847,11.7214002 22,11.7214002 L2,11.7214002 C1.44771525,11.7214002 1,11.2736849 1,10.7214002 L1,9.22140015 C1,8.6691154 1.44771525,8.22140015 2,8.22140015 Z" transform="translate(168 842)"/>
  </g>
</svg>
