<svg xmlns="http://www.w3.org/2000/svg" width="24" height="24" viewBox="0 0 24 24">
  <g fill="none" fill-rule="evenodd" transform="translate(-168 -840)">
    <path fill="#555" d="M23.4066316,7.37863636 C23.6706316,7.37863636 23.8844211,7.59404545 23.8844211,7.85972727 L23.8844211,12.6731818 C23.8844211,12.9391818 23.6706316,13.1545909 23.4066316,13.1545909 L0.477789474,13.1545909 C0.213789474,13.1545909 -3.55271368e-15,12.9391818 -3.55271368e-15,12.6731818 L-3.55271368e-15,7.86004545 C-3.55271368e-15,7.59404545 0.213789474,7.37863636 0.477789474,7.37863636 L23.4066316,7.37863636 Z M13.9193684,0.0168636364 C14.1252632,0.0706363636 14.2777895,0.257090909 14.2777895,0.481090909 L14.2777895,5.29486364 C14.2777895,5.51886364 14.1252632,5.70531818 13.9193684,5.75909091 L13.9193684,5.77595455 L0.477789474,5.77595455 C0.213789474,5.77595455 -3.55271368e-15,5.56054545 -3.55271368e-15,5.29454545 L-3.55271368e-15,0.481409091 C-3.55271368e-15,0.215409091 0.213789474,0 0.477789474,0 L13.9193684,0 L13.9193684,0.0168636364 Z M16.9578947,14.7184545 C17.2218947,14.7184545 17.4356842,14.9338636 17.4356842,15.1998636 L17.4356842,20.013 C17.4356842,20.279 17.2218947,20.4944091 16.9578947,20.4944091 L0.477789474,20.4944091 C0.213789474,20.4944091 -3.55271368e-15,20.279 -3.55271368e-15,20.013 L-3.55271368e-15,15.1998636 C-3.55271368e-15,14.9338636 0.213789474,14.7184545 0.477789474,14.7184545 L16.9578947,14.7184545 Z" transform="translate(168 842)"/>
  </g>
</svg>
