<svg xmlns="http://www.w3.org/2000/svg" width="24" height="24" viewBox="0 0 24 24">
  <g fill="none" fill-rule="evenodd" transform="translate(-768 -336)">
    <path fill="#555" fill-rule="nonzero" d="M2,1.5 C1.72385763,1.5 1.5,1.72385763 1.5,2 L1.5,22 C1.5,22.2761424 1.72385763,22.5 2,22.5 L22,22.5 C22.2761424,22.5 22.5,22.2761424 22.5,22 L22.5,2 C22.5,1.72385763 22.2761424,1.5 22,1.5 L2,1.5 Z M2,0 L22,0 C23.1045695,0 24,0.8954305 24,2 L24,22 C24,23.1045695 23.1045695,24 22,24 L2,24 C0.8954305,24 0,23.1045695 0,22 L0,2 C0,0.8954305 0.8954305,0 2,0 Z M8.36372294,10.4245022 C8.05130351,10.1120827 7.54477153,10.1120827 7.23235209,10.4245022 C6.91993266,10.7369216 6.91993266,11.2434536 7.23235209,11.555873 L11.7578355,16.0813564 C12.0702549,16.3937758 12.5767869,16.3937758 12.8892063,16.0813564 L17.4146897,11.555873 C17.7271092,11.2434536 17.7271092,10.7369216 17.4146897,10.4245022 C17.1022703,10.1120827 16.5957383,10.1120827 16.2833189,10.4245022 L12.3235209,14.3843001 L8.36372294,10.4245022 Z" transform="translate(768 336)"/>
  </g>
</svg>
