<svg xmlns="http://www.w3.org/2000/svg" width="20" height="20" viewBox="0 0 20 20">
  <path fill="#555" d="M1.81818182,0 L18.1818182,0 C19.1859723,-2.01858732e-16 20,0.814027728 20,1.81818182 L20,18.1818182 C20,19.1859723 19.1859723,20 18.1818182,20 L1.81818182,20 C0.814027728,20 2.01858732e-16,19.1859723 0,18.1818182 L0,1.81818182 C-1.00929366e-16,0.814027728 0.814027728,2.01858732e-16 1.81818182,0 Z M10.0046519,11.0143458 L6.58558122,7.6170873 C6.31846398,7.35167415 5.8867628,7.35305558 5.62134964,7.62017282 C5.35593648,7.88729006 5.35731792,8.31899125 5.62443516,8.58440441 L9.51942697,12.4545479 C9.78350334,12.7169396 10.2092302,12.71901 10.4758462,12.4591992 L14.4473588,8.58905566 C14.7170449,8.32625309 14.7226251,7.89458576 14.4598225,7.6248997 C14.1970199,7.35521364 13.7653526,7.34963347 13.4956665,7.61243605 L10.0046519,11.0143458 Z"/>
</svg>
