<svg xmlns="http://www.w3.org/2000/svg" width="24" height="24" viewBox="0 0 24 24">
  <path fill="#555" d="M12.6792767,13.5701579 L15.7412518,10.4900666 C16.0116068,10.2181121 16.4480014,10.2200784 16.7159664,10.4944585 C16.9839314,10.7688386 16.9819939,11.2117304 16.7116389,11.4836849 L12.3562492,15.8648433 C12.0862788,16.136411 11.6506384,16.1348929 11.3825119,15.86145 L7.08653398,11.4802916 C6.81802558,11.2064592 6.81908501,10.7635644 7.08890029,10.4910584 C7.35871558,10.2185523 7.79511316,10.2196276 8.06362157,10.4934599 L11.3008086,13.7948338 L11.3008086,2.69949559 C11.3008086,2.31317484 11.6093892,2 11.9900427,2 C12.3706961,2 12.6792767,2.31317484 12.6792767,2.69949559 L12.6792767,13.5701579 Z M2.00000264,14.7509492 C2.00000168,14.3646285 2.3085815,14.0514528 2.68923496,14.0514519 C3.06988841,14.0514509 3.37846979,14.3646249 3.37847075,14.7509457 L3.37848021,19.6644834 C3.37755618,19.9967232 3.44266621,20.235573 3.56028228,20.400218 C3.64140402,20.5137764 3.78414309,20.5838993 3.99909415,20.6010088 L19.8165968,20.6020475 C20.2362406,20.5788121 20.4438468,20.5018725 20.4715409,20.4616506 C20.5561601,20.3387527 20.6177678,20.0692372 20.6215319,19.662509 L20.6215319,14.7509475 C20.6215319,14.3646267 20.9301125,14.0514519 21.3107659,14.0514519 C21.6914194,14.0514519 22,14.3646267 22,14.7509475 L21.9999701,19.6690264 C21.9938202,20.3388667 21.8725879,20.8692232 21.6014711,21.2629832 C21.2734293,21.7394192 20.692794,21.9546046 19.8541437,22 L3.95063965,21.9982693 C3.30493215,21.9520847 2.78312212,21.6957368 2.44425869,21.2213785 C2.14188958,20.7981068 1.99831856,20.2714304 2.00001485,19.6625107 L2.00000264,14.7509492 Z"/>
</svg>
