<svg xmlns="http://www.w3.org/2000/svg" width="20" height="20" viewBox="0 0 20 20">
  <path fill="#555" d="M10,0 C15.5228475,0 20,4.4771525 20,10 C20,15.5228475 15.5228475,20 10,20 C4.4771525,20 0,15.5228475 0,10 C0,4.4771525 4.4771525,0 10,0 Z M6.58558122,7.63613812 C6.31846398,7.37072496 5.8867628,7.3721064 5.62134964,7.63922364 C5.35593648,7.90634088 5.35731792,8.33804207 5.62443516,8.60345522 L5.62443516,8.60345522 L9.51942697,12.4735988 C9.78350334,12.7359904 10.2092302,12.7380608 10.4758462,12.47825 L10.4758462,12.47825 L14.4473588,8.60810648 C14.7170449,8.3453039 14.7226251,7.91363658 14.4598225,7.64395051 C14.1970199,7.37426445 13.7653526,7.36868429 13.4956665,7.63148686 L13.4956665,7.63148686 L10.0046519,11.0333966 Z"/>
</svg>
