<svg xmlns="http://www.w3.org/2000/svg" width="24" height="24" viewBox="0 0 24 24">
  <g fill="none" fill-rule="evenodd" transform="translate(-120 -744)">
    <path fill="#555" fill-rule="nonzero" d="M12.7472044,13.7271737 L16.115377,10.3390733 C16.4127675,10.0399233 16.8928015,10.0420863 17.187563,10.3439044 C17.4823245,10.6457225 17.4801933,11.1329034 17.1828028,11.4320534 L12.3918741,16.2513276 C12.0949067,16.5500521 11.6157022,16.5483821 11.3207631,16.247595 L6.59518738,11.4283208 C6.29982813,11.1271052 6.30099351,10.6399209 6.59779032,10.3401642 C6.89458714,10.0404076 7.37462447,10.0415903 7.66998372,10.3428059 L11.2308895,13.9743172 L11.2308895,1.76944515 C11.2308895,1.34449233 11.5703281,1 11.9890469,1 C12.4077657,1 12.7472044,1.34449233 12.7472044,1.76944515 L12.7472044,13.7271737 Z M1.00000291,15.0260441 C1.00000185,14.6010913 1.33943965,14.2565981 1.75815845,14.2565971 C2.17687725,14.256596 2.51631677,14.6010874 2.51631782,15.0260403 L2.51632823,20.4309317 C2.5153118,20.7963955 2.58693283,21.0591303 2.7163105,21.2402398 C2.80554442,21.365154 2.9625574,21.4422892 3.19900356,21.4611097 L20.5982565,21.4622523 C21.0598647,21.4366933 21.2882315,21.3520597 21.318695,21.3078156 C21.4117762,21.172628 21.4795445,20.8761609 21.4836851,20.4287598 L21.4836851,15.0260422 C21.4836851,14.6010894 21.8231237,14.2565971 22.2418425,14.2565971 C22.6605613,14.2565971 23,14.6010894 23,15.0260422 L22.9999671,20.4359291 C22.9932022,21.1727534 22.8598467,21.7561455 22.5616183,22.1892815 C22.2007722,22.7133611 21.5620734,22.9500651 20.6395581,23 L3.14570362,22.9980962 C2.43542537,22.9472931 1.86143433,22.6653105 1.48868456,22.1435163 C1.15607854,21.6779174 0.998150415,21.0985734 1.00001634,20.4287618 L1.00000291,15.0260441 Z" transform="translate(120 744)"/>
  </g>
</svg>
