<svg xmlns="http://www.w3.org/2000/svg" width="24" height="24" viewBox="0 0 24 24">
  <path fill="#555" d="M3.81818182,2 L20.1818182,2 C21.1859723,2 22,2.81402773 22,3.81818182 L22,20.1818182 C22,21.1859723 21.1859723,22 20.1818182,22 L3.81818182,22 C2.81402773,22 2,21.1859723 2,20.1818182 L2,3.81818182 C2,2.81402773 2.81402773,2 3.81818182,2 Z M12.0046519,13.0143458 L8.58558122,9.6170873 C8.31846398,9.35167415 7.8867628,9.35305558 7.62134964,9.62017282 C7.35593648,9.88729006 7.35731792,10.3189912 7.62443516,10.5844044 L11.519427,14.4545479 C11.7835033,14.7169396 12.2092302,14.71901 12.4758462,14.4591992 L16.4473588,10.5890557 C16.7170449,10.3262531 16.7226251,9.89458576 16.4598225,9.6248997 C16.1970199,9.35521364 15.7653526,9.34963347 15.4956665,9.61243605 L12.0046519,13.0143458 Z"/>
</svg>
