<svg xmlns="http://www.w3.org/2000/svg" width="24" height="24" viewBox="0 0 24 24">
  <g fill="none" fill-rule="evenodd" transform="translate(-116 -740)">
    <path fill="#555" d="M6.35519042,10.5757967 C6.13150082,10.5757967 5.90781122,10.491112 5.73761261,10.3193229 C5.39478399,9.98058391 5.39478399,9.42892323 5.73761261,9.08776465 L9.29719492,5.54794196 C9.63759214,5.20678339 10.1919533,5.20678339 10.5347819,5.54794196 L14.0943643,9.08776465 C14.4371929,9.42650366 14.4371929,9.97816434 14.0943643,10.3193229 C13.9217342,10.4886924 13.700476,10.5733772 13.474355,10.5733772 C13.248234,10.5733772 13.0245444,10.4886924 12.8543458,10.3193229 L10.7900799,8.26511276 L10.7900799,19.1289568 C10.7900799,19.6104501 10.3986231,20 9.91477273,20 C9.4309224,20 9.0394656,19.6104501 9.0394656,19.1289568 L9.0394656,8.26511276 L6.97519963,10.3217425 C6.80256962,10.491112 6.57888002,10.5757967 6.35519042,10.5757967 Z M19.2276786,7.09695526 C18.8013393,7.09695526 18.4553571,6.75265853 18.4553571,6.3283961 L18.4553571,1.98803598 C18.4553571,1.73703256 18.25,1.53045452 17.9955357,1.53045452 L2.00223214,1.53045452 C1.75,1.53045452 1.54241071,1.73481129 1.54241071,1.98803598 L1.54241071,6.33061737 C1.54241071,6.7548798 1.19642857,7.09917653 0.770089286,7.09917653 C0.34375,7.09917653 0,6.75265853 0,6.33061737 L0,1.37940821 C0,0.617512852 0.622767857,0 1.38616071,0 L18.6138393,0 C19.3794643,0 20,0.619734122 20,1.37940821 L20,6.33061737 C20,6.75265853 19.6540179,7.09695526 19.2276786,7.09695526 Z" transform="matrix(1 0 0 -1 118 762)"/>
  </g>
</svg>
