<svg xmlns="http://www.w3.org/2000/svg" width="24" height="24" viewBox="0 0 24 24">
  <g fill="none" fill-rule="evenodd" transform="translate(-312 -408)">
    <path fill="#555" fill-rule="nonzero" d="M12,23 C5.92486775,23 1,18.0751322 1,12 C1,5.92486775 5.92486775,1 12,1 C18.0751322,1 23,5.92486775 23,12 C23,18.0751322 18.0751322,23 12,23 Z M12,21.4651163 C17.2274394,21.4651163 21.4651163,17.2274394 21.4651163,12 C21.4651163,6.77256062 17.2274394,2.53488372 12,2.53488372 C6.77256062,2.53488372 2.53488372,6.77256062 2.53488372,12 C2.53488372,17.2274394 6.77256062,21.4651163 12,21.4651163 Z M12.005117,13.1367363 L15.8452332,9.39463555 C16.1418878,9.10555272 16.6167219,9.1116909 16.9058047,9.40834557 C17.1948876,9.70500023 17.1887494,10.1798343 16.8920947,10.4689171 L12.5234308,14.726075 C12.2301532,15.0118669 11.7618537,15.0095895 11.4713697,14.7209586 L7.18687868,10.4638007 C6.89304971,10.1718463 6.89153013,9.69697497 7.18348461,9.403146 C7.47543908,9.10931704 7.95031038,9.10779746 8.24413935,9.39975193 L12.005117,13.1367363 Z" transform="translate(312 408)"/>
  </g>
</svg>
