<svg xmlns="http://www.w3.org/2000/svg" width="24" height="24" viewBox="0 0 24 24">
  <g fill="none" fill-rule="evenodd" transform="translate(-504 -408)">
    <path fill="#555" fill-rule="nonzero" d="M3,1.0209559 L21,1.0209559 C22.1045695,1.0209559 23,1.9163864 23,3.0209559 L23,21.0209559 C23,22.1255254 22.1045695,23.0209559 21,23.0209559 L3,23.0209559 C1.8954305,23.0209559 1,22.1255254 1,21.0209559 L1,3.0209559 C1,1.9163864 1.8954305,1.0209559 3,1.0209559 Z M12.005117,13.1367363 L8.24413935,9.39975193 C7.95031038,9.10779746 7.47543908,9.10931704 7.18348461,9.403146 C6.89153013,9.69697497 6.89304971,10.1718463 7.18687868,10.4638007 L11.4713697,14.7209586 C11.7618537,15.0095895 12.2301532,15.0118669 12.5234308,14.726075 L16.8920947,10.4689171 C17.1887494,10.1798343 17.1948876,9.70500023 16.9058047,9.40834557 C16.6167219,9.1116909 16.1418878,9.10555272 15.8452332,9.39463555 L12.005117,13.1367363 Z" transform="translate(504 408)"/>
  </g>
</svg>
