<svg xmlns="http://www.w3.org/2000/svg" width="24" height="24" viewBox="0 0 24 24">
  <path fill="#555" d="M12,22 C6.4771525,22 2,17.5228475 2,12 C2,6.4771525 6.4771525,2 12,2 C17.5228475,2 22,6.4771525 22,12 C22,17.5228475 17.5228475,22 12,22 Z M12.0046519,13.0333966 L8.58558122,9.63613812 C8.31846398,9.37072496 7.8867628,9.3721064 7.62134964,9.63922364 C7.35593648,9.90634088 7.35731792,10.3380421 7.62443516,10.6034552 L11.519427,14.4735988 C11.7835033,14.7359904 12.2092302,14.7380608 12.4758462,14.47825 L16.4473588,10.6081065 C16.7170449,10.3453039 16.7226251,9.91363658 16.4598225,9.64395051 C16.1970199,9.37426445 15.7653526,9.36868429 15.4956665,9.63148686 L12.0046519,13.0333966 Z"/>
</svg>
