<svg xmlns="http://www.w3.org/2000/svg" width="24" height="24" viewBox="0 0 24 24">
  <g fill="none" fill-rule="evenodd" transform="translate(-312 -408)">
    <path fill="#555" fill-rule="nonzero" d="M12,22.6666667 C17.8910373,22.6666667 22.6666667,17.8910373 22.6666667,12 C22.6666667,6.10896267 17.8910373,1.33333333 12,1.33333333 C6.10896267,1.33333333 1.33333333,6.10896267 1.33333333,12 C1.33333333,17.8910373 6.10896267,22.6666667 12,22.6666667 Z M12,24 C5.372583,24 0,18.627417 0,12 C0,5.372583 5.372583,0 12,0 C18.627417,0 24,5.372583 24,12 C24,18.627417 18.627417,24 12,24 Z M8.36372294,10.4245022 C8.05130351,10.1120827 7.54477153,10.1120827 7.23235209,10.4245022 C6.91993266,10.7369216 6.91993266,11.2434536 7.23235209,11.555873 L11.7578355,16.0813564 C12.0702549,16.3937758 12.5767869,16.3937758 12.8892063,16.0813564 L17.4146897,11.555873 C17.7271092,11.2434536 17.7271092,10.7369216 17.4146897,10.4245022 C17.1022703,10.1120827 16.5957383,10.1120827 16.2833189,10.4245022 L12.3235209,14.3843001 L8.36372294,10.4245022 Z" transform="translate(312 408)"/>
  </g>
</svg>
