<svg xmlns="http://www.w3.org/2000/svg" width="24" height="24" viewBox="0 0 24 24">
  <g fill="none" fill-rule="evenodd" transform="translate(-456 -360)">
    <path fill="#555" d="M19.9999939,12.8464763 L19.9999939,17.9390476 C19.9999939,18.5252238 19.5388915,19 18.9695975,19 C18.4003035,19 17.9392011,18.5252238 17.9392011,17.9390476 L17.9392011,12.8464763 C17.9392011,11.270962 17.3441472,9.78828105 16.259655,8.67162868 C15.1777388,7.55762869 13.7377598,6.94227632 12.2050452,6.94227632 L3.46213186,6.94227632 L6.35754571,9.9209001 C6.7594003,10.3373239 6.7594003,11.0083763 6.35754571,11.4221477 C6.15661842,11.6290334 5.89386734,11.7324763 5.62854027,11.7324763 C5.3632132,11.7324763 5.10046212,11.6290334 4.89953482,11.4221477 L0.301390943,6.68764775 C0.108191621,6.48871918 0,6.21817632 0,5.93702395 C0,5.65587157 0.108191621,5.38532871 0.301390943,5.18640014 L5.03348635,0.311324005 C5.43791694,-0.102447419 6.08964265,-0.1050998 6.49149724,0.311324005 C6.89335183,0.727747811 6.89335183,1.39880018 6.49149724,1.81257161 L3.57032348,4.82037158 L12.2050452,4.82037158 C14.2864459,4.82037158 16.2441991,5.65321919 17.7176659,7.17038108 C19.1911327,8.68754297 20.0025699,10.7033525 19.9999939,12.8464763 Z" transform="matrix(1 0 0 -1 458 382)"/>
  </g>
</svg>
