<svg xmlns="http://www.w3.org/2000/svg" width="24" height="24" viewBox="0 0 24 24">
  <g fill="none" fill-rule="evenodd" transform="translate(-456 -360)">
    <path fill="#555" fill-rule="nonzero" d="M3.48907739,16.0714828 L13.077555,16.0714828 C16.0511245,16.0714828 18.4616789,13.6611927 18.4616789,10.6879491 L18.4616789,2.76907623 C18.4616789,2.34432716 18.8060438,2 19.2308394,2 C19.6556351,2 20,2.34432716 20,2.76907623 L20,10.6879491 C20,14.5106908 16.9007158,17.6096352 13.077555,17.6096352 L3.76713577,17.6096352 L6.90508359,20.6813662 C7.20862898,20.9785062 7.21379518,21.4654309 6.91662261,21.768943 C6.61945005,22.0724552 6.13247192,22.0776208 5.82892653,21.7804808 L1.23108231,17.2796601 C0.927660262,16.9826409 0.92235676,16.4959586 1.21923415,16.1923992 L5.89858131,11.4077305 C6.19557938,11.1040477 6.68255446,11.0986022 6.98627058,11.3955677 C7.28998671,11.6925332 7.29543276,12.1794549 6.99843469,12.4831378 L3.48907739,16.0714828 Z" transform="translate(456 360)"/>
  </g>
</svg>
