<svg xmlns="http://www.w3.org/2000/svg" width="24" height="24" viewBox="0 0 24 24">
  <g fill="none" fill-rule="evenodd" transform="translate(-600 -984)">
    <path fill="#555" fill-rule="nonzero" d="M8.50068101,0 C3.82051039,0 0.0245163205,3.69398661 0.0245163205,8.25 C0.0245163205,12.8073638 8.50068101,22 8.50068101,22 C8.50068101,22 16.9754585,12.8073638 16.9754585,8.25 C16.9754585,3.69398661 13.1808516,0 8.50068101,0 Z M8.50068101,13.75 C5.3791632,13.75 2.84944214,11.2873504 2.84944214,8.25 C2.84944214,5.21264955 5.37921365,2.75 8.50068101,2.75 C11.6207864,2.75 14.1505326,5.21264955 14.1505326,8.25 C14.1505326,11.2873504 11.6207864,13.75 8.50068101,13.75 Z M8.50068101,5.5 C6.9405905,5.5 5.67436795,6.7313125 5.67436795,8.25 C5.67436795,9.7686875 6.94061573,11 8.50068101,11 C10.0607211,11 11.3242196,9.7686875 11.3242196,8.25 C11.3242448,6.7313125 10.0607463,5.5 8.50068101,5.5 Z" transform="translate(604 985)"/>
  </g>
</svg>
