<svg xmlns="http://www.w3.org/2000/svg" width="24" height="24" viewBox="0 0 24 24">
  <path fill="#555" d="M13.0385405,21.7177833 C12.7763306,22.0940004 12.2340032,22.0940871 11.9716804,21.717954 L6.11398515,13.3172573 C5.64262456,12.5604581 5.31745341,11.7890456 5.14174611,11.0042904 C4.75522027,9.27796373 5.14244471,6.89779059 6.5101525,5.03002489 C7.84566477,3.20622595 9.70901174,2.31504705 11.5936464,2.06856296 C13.0316414,1.88049315 14.4024366,2.0645316 15.8709348,2.80509994 C17.0096054,3.37933521 18.042464,4.35645066 18.996299,5.75921597 C19.5986485,6.76973596 19.9311842,7.88751678 19.9920598,9.10213066 C20.053425,10.3265144 19.7587773,11.6191206 19.1192569,12.9762793 L19.0617409,13.0757331 L13.0385405,21.7177833 Z M17.9613496,12.3312283 C18.4919549,11.1891206 18.7277471,10.1372938 18.6793792,9.17223846 C18.6297953,8.18292102 18.3628907,7.28575164 17.8989107,6.5049454 C17.0869751,5.31274205 16.217094,4.48980823 15.2939639,4.02427075 C14.0714151,3.40773545 12.9564795,3.25804787 11.7588586,3.41468007 C10.1945413,3.6192711 8.64999175,4.35797943 7.55871768,5.84824241 C6.43957136,7.37656821 6.11932643,9.34503485 6.42241988,10.6987304 C6.56289153,11.3261139 6.82753226,11.9539284 7.20017135,12.5539579 L12.5048766,20.1601416 L17.9613496,12.3312283 Z M12.5312188,13.011573 C10.5728019,13.011573 8.97737258,11.4130687 8.97737258,9.43092315 C8.97737258,7.44877757 10.5728019,5.85027329 12.5312188,5.85027329 C14.4896358,5.85027329 16.0850651,7.44877757 16.0850651,9.43092315 C16.0850651,11.4130687 14.4896358,13.011573 12.5312188,13.011573 Z M12.5312188,11.6546952 C13.772329,11.6546952 14.7706288,10.6544713 14.7706288,9.43092315 C14.7706288,8.20737504 13.772329,7.20715113 12.5312188,7.20715113 C11.2901087,7.20715113 10.2918089,8.20737504 10.2918089,9.43092315 C10.2918089,10.6544713 11.2901087,11.6546952 12.5312188,11.6546952 Z"/>
</svg>
