<svg xmlns="http://www.w3.org/2000/svg" width="24" height="24" viewBox="0 0 24 24">
  <g fill="none" fill-rule="evenodd" transform="translate(-168 -936)">
    <path fill="#555" fill-rule="nonzero" d="M8.99651932,8.22857143e-05 C8.3900155,8.22857143e-05 7.77282161,0.0611108571 7.1641468,0.181769143 C3.74895596,0.856704 0.955933059,3.60466286 0.214333059,7.01968457 C-0.1156303,8.53700571 -0.0643783915,10.043712 0.36646741,11.4978103 C0.598213975,12.2813074 0.987233822,13.055616 1.59093459,13.9327817 L8.2520613,23.5917257 C8.42057428,23.8358674 8.69859871,23.9821166 8.99585978,23.9821166 C9.29452237,23.9821166 9.57320634,23.8359497 9.74031779,23.5910949 L16.3509895,13.9867063 C17.1338384,12.8490514 17.6181346,11.7582994 17.832156,10.6511177 C17.9373529,10.1018331 17.9907208,9.53831314 17.9907208,8.97761829 C17.9907208,4.02750171 13.9561926,0 8.99662924,0 L8.99651932,8.22857143e-05 Z M8.99651932,1.45357714 C13.1525957,1.45357714 16.5343422,4.82885486 16.5343422,8.97775543 C16.5343422,9.44689371 16.4895208,9.91811657 16.4013621,10.3772709 C16.227188,11.2835383 15.818327,12.1948526 15.1506231,13.16352 L8.99577733,22.1064137 L2.79116359,13.1095954 C2.27567657,12.3608229 1.94925825,11.7185554 1.76302008,11.0862994 C1.40178344,9.868416 1.35982008,8.60376686 1.63647046,7.32842057 C2.2579239,4.47047314 4.59300481,2.17105371 7.44711779,1.60679314 C7.96194527,1.50528 8.48312085,1.45346743 8.9965468,1.45346743 L8.99651932,1.45357714 Z M8.99651932,13.1919909 C11.3514964,13.1919909 13.2671636,11.2793691 13.2671636,8.92885029 C13.2671636,6.57833143 11.3515789,4.66570971 8.99651932,4.66570971 C6.64145978,4.66570971 4.72524298,6.57833143 4.72524298,8.92885029 C4.72524298,11.2793691 6.64151474,13.1919909 8.99651932,13.1919909 Z M11.8108674,8.92879543 C11.8108674,10.4780709 10.5480918,11.7384686 8.99651932,11.7384686 C7.44428726,11.7384686 6.1814842,10.4780983 6.1814842,8.92879543 C6.1814842,7.37949257 7.44425978,6.11912229 8.99651932,6.11912229 C10.5480094,6.11912229 11.8108674,7.37949257 11.8108674,8.92879543 L11.8108674,8.92879543 Z" transform="translate(171 936)"/>
  </g>
</svg>
