<svg xmlns="http://www.w3.org/2000/svg" width="24" height="24" viewBox="0 0 24 24">
  <g fill="none" fill-rule="evenodd" transform="translate(-600 -984)">
    <path fill="#555" fill-rule="nonzero" d="M13.1103459,22.6895617 C12.8131747,23.1034004 12.198537,23.1034959 11.9012378,22.6897494 L5.26251651,13.448983 C4.72830784,12.6165039 4.35978053,11.7679502 4.16064559,10.9047194 C3.72258297,9.00576011 4.16143734,6.38756964 5.71150617,4.33302737 C7.22508674,2.32684855 9.33687997,1.34655175 11.4727993,1.07541925 C13.1025269,0.86854246 14.6560948,1.07098475 16.3203927,1.88560994 C17.6108861,2.51726874 18.7814592,3.59209572 19.8624722,5.13513757 C20.5451349,6.24670956 20.9220088,7.47626846 20.9910011,8.81234372 C21.0605484,10.1591658 20.7266143,11.5810326 20.0018245,13.0739072 L19.9366397,13.1833064 L13.1103459,22.6895617 Z M12.5353813,11.6201647 C11.1287899,11.6201647 9.99738338,10.5199184 9.99738338,9.17401546 C9.99738338,7.82811254 11.1287899,6.72786624 12.5353813,6.72786624 C13.9419728,6.72786624 15.0733793,7.82811254 15.0733793,9.17401546 C15.0733793,10.5199184 13.9419728,11.6201647 12.5353813,11.6201647 Z M12.5353813,14.4585535 C15.574111,14.4585535 18.0183448,12.0816366 18.0183448,9.17401546 C18.0183448,6.26639431 15.574111,3.88947741 12.5353813,3.88947741 C9.49665165,3.88947741 7.05241787,6.26639431 7.05241787,9.17401546 C7.05241787,12.0816366 9.49665165,14.4585535 12.5353813,14.4585535 Z" transform="translate(600 984)"/>
  </g>
</svg>
