<svg xmlns="http://www.w3.org/2000/svg" width="24" height="24" viewBox="0 0 24 24">
  <path fill="#555" d="M13.0385405,21.7177833 C12.7763306,22.0940004 12.2340032,22.0940871 11.9716804,21.717954 L6.11398515,13.3172573 C5.64262456,12.5604581 5.31745341,11.7890456 5.14174611,11.0042904 C4.75522027,9.27796373 5.14244471,6.89779059 6.5101525,5.03002489 C7.84566477,3.20622595 9.70901174,2.31504705 11.5936464,2.06856296 C13.0316414,1.88049315 14.4024366,2.0645316 15.8709348,2.80509994 C17.0096054,3.37933521 18.042464,4.35645066 18.996299,5.75921597 C19.5986485,6.76973596 19.9311842,7.88751678 19.9920598,9.10213066 C20.053425,10.3265144 19.7587773,11.6191206 19.1192569,12.9762793 L19.0617409,13.0757331 L13.0385405,21.7177833 Z M12.5312188,11.6546952 C11.2901087,11.6546952 10.2918089,10.6544713 10.2918089,9.43092315 C10.2918089,8.20737504 11.2901087,7.20715113 12.5312188,7.20715113 C13.772329,7.20715113 14.7706288,8.20737504 14.7706288,9.43092315 C14.7706288,10.6544713 13.772329,11.6546952 12.5312188,11.6546952 Z M12.5312188,14.2350486 C15.2124509,14.2350486 17.3691278,12.0742151 17.3691278,9.43092315 C17.3691278,6.78763119 15.2124509,4.62679764 12.5312188,4.62679764 C9.84998675,4.62679764 7.69330988,6.78763119 7.69330988,9.43092315 C7.69330988,12.0742151 9.84998675,14.2350486 12.5312188,14.2350486 Z"/>
</svg>
