<svg xmlns="http://www.w3.org/2000/svg" width="24" height="24" viewBox="0 0 24 24">
  <g fill="none" fill-rule="evenodd" transform="translate(-168 -936)">
    <path fill="#555" fill-rule="nonzero" d="M13.1103459,22.6895617 C12.8131747,23.1034004 12.198537,23.1034959 11.9012378,22.6897494 L5.26251651,13.448983 C4.72830784,12.6165039 4.35978053,11.7679502 4.16064559,10.9047194 C3.72258297,9.00576011 4.16143734,6.38756964 5.71150617,4.33302737 C7.22508674,2.32684855 9.33687997,1.34655175 11.4727993,1.07541925 C13.1025269,0.86854246 14.6560948,1.07098475 16.3203927,1.88560994 C17.6108861,2.51726874 18.7814592,3.59209572 19.8624722,5.13513757 C20.5451349,6.24670956 20.9220088,7.47626846 20.9910011,8.81234372 C21.0605484,10.1591658 20.7266143,11.5810326 20.0018245,13.0739072 L19.9366397,13.1833064 L13.1103459,22.6895617 Z M18.6895295,12.3643511 C19.2908822,11.1080327 19.5581134,9.95102321 19.5032964,8.8894623 C19.4471014,7.80121313 19.1446094,6.8143268 18.6187654,5.95543994 C17.6985718,4.64401626 16.7127065,3.73878905 15.6664924,3.22669783 C14.2809371,2.548509 13.0173434,2.38385265 11.6600398,2.55614808 C9.88714676,2.78119821 8.13665732,3.59377738 6.89988004,5.23306665 C5.63151421,6.91422503 5.26856995,9.07953833 5.61207587,10.5686034 C5.77127707,11.2587253 6.07120322,11.9493212 6.49352753,12.6093537 L12.5055268,20.9761557 L18.6895295,12.3643511 Z M12.5353813,13.1127303 C10.3158422,13.1127303 8.50768893,11.3543756 8.50768893,9.17401546 C8.50768893,6.99365533 10.3158422,5.23530062 12.5353813,5.23530062 C14.7549205,5.23530062 16.5630738,6.99365533 16.5630738,9.17401546 C16.5630738,11.3543756 14.7549205,13.1127303 12.5353813,13.1127303 Z M12.5353813,11.6201647 C13.9419728,11.6201647 15.0733793,10.5199184 15.0733793,9.17401546 C15.0733793,7.82811254 13.9419728,6.72786624 12.5353813,6.72786624 C11.1287899,6.72786624 9.99738338,7.82811254 9.99738338,9.17401546 C9.99738338,10.5199184 11.1287899,11.6201647 12.5353813,11.6201647 Z" transform="translate(168 936)"/>
  </g>
</svg>
