<svg xmlns="http://www.w3.org/2000/svg" width="24" height="24" viewBox="0 0 24 24">
  <g fill="none" fill-rule="evenodd" transform="translate(-216 -936)">
    <path fill="#555" fill-rule="nonzero" d="M11.9760266,12.75 C9.58934517,12.75 7.71409545,10.88 7.71409545,8.5 C7.71409545,6.12 9.58934517,4.25 11.9760266,4.25 C14.3627081,4.25 16.2379578,6.12 16.2379578,8.5 C16.2379578,10.88 14.3627081,12.75 11.9760266,12.75 Z M11.9760266,5.95 C10.52697,5.95 9.41886792,7.055 9.41886792,8.5 C9.41886792,9.945 10.52697,11.05 11.9760266,11.05 C13.4250832,11.05 14.5331853,9.945 14.5331853,8.5 C14.5331853,7.055 13.4250832,5.95 11.9760266,5.95 Z M11.9760266,17 C6.26503885,17 2.42930078,12.58 0.127857936,8.925 C-0.0426193119,8.67 -0.0426193119,8.33 0.127857936,8.075 C2.42930078,4.42 6.26503885,0 11.9760266,0 C17.6870144,0 21.6079911,4.42 23.8241953,8.075 C23.9946726,8.33 23.9946726,8.585 23.909434,8.84 C21.9489456,13.6 16.9198668,17 11.9760266,17 Z M1.91786903,8.5 C3.963596,11.73 7.28790233,15.3 11.9760266,15.3 C16.0674806,15.3 20.3294118,12.41 22.1194229,8.585 C20.0736959,5.355 16.7493896,1.7 11.9760266,1.7 C7.28790233,1.7 3.963596,5.27 1.91786903,8.5 Z" transform="translate(216 940)"/>
  </g>
</svg>
