<svg xmlns="http://www.w3.org/2000/svg" width="24" height="24" viewBox="0 0 24 24">
  <path fill="#555" d="M7.08925923,16.7812575 C8.83890353,18.1489473 10.3085416,18.5872788 11.9990821,18.5872788 C13.4711695,18.5872788 15.3910914,17.9742173 17.2378869,16.6683383 C18.570419,15.7260976 19.6708255,14.3530959 20.537983,12.5374417 C19.597691,10.9064566 18.5098973,9.57033264 17.2752009,8.52533954 C15.564451,7.07743571 13.6931693,6.41272117 11.9627704,6.41272117 C10.1731558,6.41272117 8.1122309,7.2112 6.35475439,8.88682086 C5.08938698,10.0932529 4.13041907,11.306867 3.47454449,12.5252727 C4.54037395,14.3139696 5.74584601,15.7311169 7.08925923,16.7812575 Z M11.9990821,20 C10.0261428,20 8.26540717,19.4748462 6.25862012,17.906149 C4.68211393,16.6738006 3.29482989,15.004971 2.09473085,12.9050997 C1.97627219,12.6978268 1.96842911,12.442789 2.0739152,12.2282256 C2.80780563,10.73546 3.92510465,9.27729191 5.42149342,7.85059845 C7.43785551,5.92814977 9.83346934,5 11.9627704,5 C14.0058629,5 16.1864334,5.77457977 18.1474712,7.43431633 C19.5958754,8.66018236 20.8499416,10.2356028 21.9103911,12.1560851 C22.0198049,12.3542344 22.0295805,12.5945247 21.9366437,12.8013887 C20.9485194,15.0008108 19.6419411,16.6826004 18.0155725,17.8326144 C15.9398762,19.3003504 13.748787,20 11.9990821,20 Z M12.2339532,16.4 C10.1904996,16.4 8.53395318,14.7434536 8.53395318,12.7 C8.53395318,10.6565464 10.1904996,9 12.2339532,9 C14.2774067,9 15.9339532,10.6565464 15.9339532,12.7 C15.9339532,14.7434536 14.2774067,16.4 12.2339532,16.4 Z M12.2339532,15 C13.5042081,15 14.5339532,13.9702549 14.5339532,12.7 C14.5339532,11.4297451 13.5042081,10.4 12.2339532,10.4 C10.9636983,10.4 9.93395318,11.4297451 9.93395318,12.7 C9.93395318,13.9702549 10.9636983,15 12.2339532,15 Z"/>
</svg>
