<svg xmlns="http://www.w3.org/2000/svg" width="24" height="24" viewBox="0 0 24 24">
  <g fill="none" fill-rule="evenodd" transform="translate(-648 -984)">
    <path fill="#555" d="M10.9938632,15 C5.75123806,15 2.2300719,11.1 0.117372205,7.875 C-0.0391240684,7.65 -0.0391240684,7.35 0.117372205,7.125 C2.2300719,3.9 5.75123806,0 10.9938632,0 C16.2364884,0 19.8359027,3.9 21.8703542,7.125 C22.0268505,7.35 22.0268505,7.575 21.9486024,7.8 C20.1488952,12 15.5322552,15 10.9938632,15 Z M10.9938632,11.25 C13.1848111,11.25 14.9062701,9.6 14.9062701,7.5 C14.9062701,5.4 13.1848111,3.75 10.9938632,3.75 C8.80291539,3.75 7.08145638,5.4 7.08145638,7.5 C7.08145638,9.6 8.80291539,11.25 10.9938632,11.25 Z M10.9938632,5.25 C12.3240815,5.25 13.3413073,6.225 13.3413073,7.5 C13.3413073,8.775 12.3240815,9.75 10.9938632,9.75 C9.6636449,9.75 8.64641912,8.775 8.64641912,7.5 C8.64641912,6.225 9.6636449,5.25 10.9938632,5.25 Z" transform="translate(649 988)"/>
  </g>
</svg>
