<svg xmlns="http://www.w3.org/2000/svg" width="24" height="24" viewBox="0 0 24 24">
  <g fill="none" fill-rule="evenodd" transform="translate(-648 -984)">
    <path fill="#555" fill-rule="nonzero" d="M11.9989903,20 C9.8287571,20 7.89194789,19.439836 5.68448213,17.766559 C3.95032532,16.452054 2.42431288,14.6719691 1.10420394,12.4321063 C0.973899405,12.2110153 0.965272016,11.9389749 1.08130672,11.7101073 C1.88858619,10.117824 3.11761511,8.5624447 4.76364276,7.04063835 C6.98164106,4.99002642 9.61681628,4 11.9590475,4 C14.2064492,4 16.6050768,4.82621842 18.7622183,6.59660409 C20.355463,7.90419451 21.7349358,9.58464298 22.9014302,11.6331574 C23.0217854,11.8445167 23.0325386,12.1008263 22.9303081,12.3214813 C21.8433714,14.6675315 20.4061353,16.4614404 18.6171297,17.6881221 C16.3338639,19.2537071 13.9236657,20 11.9989903,20 Z M11.9989903,16.1722174 C14.3624152,16.1722174 16.2783497,14.2606714 16.2783497,11.9026601 C16.2783497,9.54464867 14.3624152,7.63310275 11.9989903,7.63310275 C9.63556544,7.63310275 7.71963101,9.54464867 7.71963101,11.9026601 C7.71963101,14.2606714 9.63556544,16.1722174 11.9989903,16.1722174 Z M11.9989903,14.6653148 C10.4697154,14.6653148 9.22999312,13.4284321 9.22999312,11.9026601 C9.22999312,10.376888 10.4697154,9.14000533 11.9989903,9.14000533 C13.5282653,9.14000533 14.7679876,10.376888 14.7679876,11.9026601 C14.7679876,13.4284321 13.5282653,14.6653148 11.9989903,14.6653148 Z" transform="translate(648 984)"/>
  </g>
</svg>
