<svg xmlns="http://www.w3.org/2000/svg" width="24" height="24" viewBox="0 0 24 24">
  <path fill="#555" d="M11.9990821,20 C10.0261428,20 8.26540717,19.4748462 6.25862012,17.906149 C4.68211393,16.6738006 3.29482989,15.004971 2.09473085,12.9050997 C1.97627219,12.6978268 1.96842911,12.442789 2.0739152,12.2282256 C2.80780563,10.73546 3.92510465,9.27729191 5.42149342,7.85059845 C7.43785551,5.92814977 9.83346934,5 11.9627704,5 C14.0058629,5 16.1864334,5.77457977 18.1474712,7.43431633 C19.5958754,8.66018236 20.8499416,10.2356028 21.9103911,12.1560851 C22.0198049,12.3542344 22.0295805,12.5945247 21.9366437,12.8013887 C20.9485194,15.0008108 19.6419411,16.6826004 18.0155725,17.8326144 C15.9398762,19.3003504 13.748787,20 11.9990821,20 Z M11.9990821,16.4114538 C14.1476502,16.4114538 15.8894088,14.6193795 15.8894088,12.4087438 C15.8894088,10.1981081 14.1476502,8.40603383 11.9990821,8.40603383 C9.85051404,8.40603383 8.10875546,10.1981081 8.10875546,12.4087438 C8.10875546,14.6193795 9.85051404,16.4114538 11.9990821,16.4114538 Z M11.9990821,14.9987326 C10.6088322,14.9987326 9.48181193,13.8391551 9.48181193,12.4087438 C9.48181193,10.9783325 10.6088322,9.818755 11.9990821,9.818755 C13.3893321,9.818755 14.5163523,10.9783325 14.5163523,12.4087438 C14.5163523,13.8391551 13.3893321,14.9987326 11.9990821,14.9987326 Z"/>
</svg>
