<svg xmlns="http://www.w3.org/2000/svg" width="24" height="24" viewBox="0 0 24 24">
  <path fill="#555" fill-rule="evenodd" d="M20.8961111,2 L3.10388889,2 C2.49416667,2 2,2.49416667 2,3.10388889 L2,20.8963889 C2,21.5058333 2.49416667,22 3.10388889,22 L12.6825,22 L12.6825,14.255 L10.0761111,14.255 L10.0761111,11.2366667 L12.6825,11.2366667 L12.6825,9.01055556 C12.6825,6.42722222 14.2602778,5.02083333 16.5647222,5.02083333 C17.6686111,5.02083333 18.6172222,5.10277778 18.8938889,5.13972222 L18.8938889,7.83944444 L17.2955556,7.84027778 C16.0422222,7.84027778 15.7997222,8.43583333 15.7997222,9.30972222 L15.7997222,11.2369444 L18.7886111,11.2369444 L18.3994444,14.2552778 L15.7997222,14.2552778 L15.7997222,22 L20.8963889,22 C21.5058333,22 22,21.5058333 22,20.8961111 L22,3.10388889 C22,2.49416667 21.5058333,2 20.8961111,2 L20.8961111,2 Z"/>
</svg>
