<svg xmlns="http://www.w3.org/2000/svg" width="24" height="24" viewBox="0 0 24 24">
  <g fill="none" fill-rule="evenodd" transform="translate(-504 -1104)">
    <path fill="#555" d="M21.7857222,1 L2.21427778,1 C1.54358333,1 1,1.54358333 1,2.21427778 L1,21.7860278 C1,22.4564167 1.54358333,23 2.21427778,23 L12.75075,23 L12.75075,14.4805 L9.88372222,14.4805 L9.88372222,11.1603333 L12.75075,11.1603333 L12.75075,8.71161111 C12.75075,5.86994444 14.4863056,4.32291667 17.0211944,4.32291667 C18.2354722,4.32291667 19.2789444,4.41305556 19.5832778,4.45369444 L19.5832778,7.42338889 L17.8251111,7.42430556 C16.4464444,7.42430556 16.1796944,8.07941667 16.1796944,9.04069444 L16.1796944,11.1606389 L19.4674722,11.1606389 L19.0393889,14.4808056 L16.1796944,14.4808056 L16.1796944,23 L21.7860278,23 C22.4564167,23 23,22.4564167 23,21.7857222 L23,2.21427778 C23,1.54358333 22.4564167,1 21.7857222,1 L21.7857222,1 Z" transform="translate(504 1104)"/>
  </g>
</svg>
