<svg xmlns="http://www.w3.org/2000/svg" width="24" height="24" viewBox="0 0 24 24">
  <g fill="none" fill-rule="evenodd" transform="translate(-504 -1104)">
    <path fill="#555" d="M22.6753333,0 L1.32466667,0 C0.593,0 0,0.593 0,1.32466667 L0,22.6756667 C0,23.407 0.593,24 1.32466667,24 L12.819,24 L12.819,14.706 L9.69133333,14.706 L9.69133333,11.084 L12.819,11.084 L12.819,8.41266667 C12.819,5.31266667 14.7123333,3.625 17.4776667,3.625 C18.8023333,3.625 19.9406667,3.72333333 20.2726667,3.76766667 L20.2726667,7.00733333 L18.3546667,7.00833333 C16.8506667,7.00833333 16.5596667,7.723 16.5596667,8.77166667 L16.5596667,11.0843333 L20.1463333,11.0843333 L19.6793333,14.7063333 L16.5596667,14.7063333 L16.5596667,24 L22.6756667,24 C23.407,24 24,23.407 24,22.6753333 L24,1.32466667 C24,0.593 23.407,0 22.6753333,0 L22.6753333,0 Z" transform="translate(504 1104)"/>
  </g>
</svg>
