<svg xmlns="http://www.w3.org/2000/svg" width="24" height="24" viewBox="0 0 24 24">
  <g fill="none" fill-rule="evenodd" transform="translate(-504 -840)">
    <path fill="#555" fill-rule="nonzero" d="M15.117435,2.50413237 L15.1136537,2.5 L5.5,2.5 L5.5,21.5 L19.5,21.5 L19.5,7.97671537 L16.2937431,7.97615863 C15.4940039,8.00699066 14.8756935,7.8814894 14.4339846,7.54299403 C13.9202825,7.14932803 13.7316006,6.47841038 13.75647,5.58328296 L13.75647,2.50413237 L15.117435,2.50413237 Z M15.2026893,2.59730374 L15.2564558,2.65963772 L15.2561873,5.60387556 C15.242948,6.08588031 15.3100744,6.32456927 15.3463804,6.35239171 C15.4546796,6.43538479 15.7528143,6.49589853 16.2648501,6.47671537 L18.7508417,6.47671537 L19.1758301,6.94307336 L19.4660549,7.25657967 L15.2026893,2.59730374 Z M5,1 L15.7743044,1 L21,6.71097114 L21,22 C21,22.5522847 20.5522847,23 20,23 L5,23 C4.44771525,23 4,22.5522847 4,22 L4,2 C4,1.44771525 4.44771525,1 5,1 Z M7.75,10.5 C7.33578644,10.5 7,10.1642136 7,9.75 C7,9.33578644 7.33578644,9 7.75,9 L13.5471856,9 C13.9613992,9 14.2971856,9.33578644 14.2971856,9.75 C14.2971856,10.1642136 13.9613992,10.5 13.5471856,10.5 L7.75,10.5 Z M7.75,18.5 C7.33578644,18.5 7,18.1642136 7,17.75 C7,17.3357864 7.33578644,17 7.75,17 L13.5471856,17 C13.9613992,17 14.2971856,17.3357864 14.2971856,17.75 C14.2971856,18.1642136 13.9613992,18.5 13.5471856,18.5 L7.75,18.5 Z M7.75,14.5 C7.33578644,14.5 7,14.1642136 7,13.75 C7,13.3357864 7.33578644,13 7.75,13 L17.0094222,13 C17.4236358,13 17.7594222,13.3357864 17.7594222,13.75 C17.7594222,14.1642136 17.4236358,14.5 17.0094222,14.5 L7.75,14.5 Z" transform="translate(504 840)"/>
  </g>
</svg>
