<svg xmlns="http://www.w3.org/2000/svg" width="24" height="24" viewBox="0 0 24 24">
  <g fill="none" fill-rule="evenodd" transform="translate(-696 -840)">
    <path fill="#555" fill-rule="nonzero" d="M9.49542029,10.9029269 C9.17727537,10.9029269 8.96139132,10.9341815 8.84823188,10.9656712 L8.84823188,13.0376409 C8.98202898,13.0688955 9.14643479,13.0794704 9.37228984,13.0794704 C10.2047536,13.0794704 10.7188406,12.6522456 10.7188406,11.9340943 C10.7188406,11.2883222 10.2766377,10.9029269 9.49542029,10.9029269 Z M19.6208696,8.57387034 L19.0529855,8.57387034 L19.0529855,5.79667426 C19.0529855,5.77928446 19.0502029,5.76189467 19.0481159,5.74426988 C19.0488937,5.63267379 19.0097663,5.52456786 18.937971,5.43994861 L14.3777391,0.160738063 C14.3763478,0.159328077 14.3749565,0.158858082 14.374029,0.157448096 C14.3388749,0.118335756 14.2973901,0.0855924685 14.2513623,0.0606292627 C14.2222395,0.0444608959 14.1915449,0.031388185 14.1597681,0.0216197494 C14.1511884,0.0192697735 14.1435362,0.0157448096 14.1349565,0.0133948627 C14.1001077,0.0047797123 14.0643914,0.000284797794 14.0285217,0 L2.82110145,0 C2.30933334,0 1.89356521,0.421819865 1.89356521,0.93998854 L1.89356521,8.57363534 L1.32568115,8.57363534 C0.974088645,8.57363534 0.636896453,8.71518001 0.38828301,8.96713112 C0.139669567,9.21908224 -7.5673186e-09,9.56080128 0,9.91711397 L0,16.9035787 C0.000128023415,17.6455077 0.593580704,18.2469275 1.32568115,18.2470573 L1.89356521,18.2470573 L1.89356521,23.0297189 C1.89356521,23.5478876 2.30933334,23.9697074 2.82110145,23.9697074 L18.1254493,23.9697074 C18.6367536,23.9697074 19.0529855,23.5478875 19.0529855,23.0297189 L19.0529855,18.2472923 L19.6208696,18.2472923 C20.35297,18.2471625 20.9464227,17.6457427 20.9465507,16.9038137 L20.9465507,9.91734896 C20.9465507,9.56103628 20.8068812,9.21931724 20.5582677,8.96736612 C20.3096543,8.71541501 19.9724621,8.57387034 19.6208696,8.57387034 Z M2.82110145,0.940223537 L13.5647536,0.940223537 L13.5647536,5.74943983 C13.5647536,5.87409006 13.6136148,5.99363494 13.7005882,6.08177596 C13.7875616,6.16991698 13.9055228,6.21943409 14.0285217,6.21943408 L18.1254493,6.21943408 L18.1254493,8.57410534 L2.82110145,8.57410534 L2.82110145,0.940223537 Z M12.269913,11.8922648 C12.269913,12.5793965 12.044058,13.1626593 11.6331594,13.5586295 C11.0984348,14.0688083 10.3072464,14.2976955 9.38295653,14.2976955 C9.17727537,14.2976955 8.99200001,14.2875906 8.84823187,14.2666759 L8.84823187,16.7762102 L7.29669564,16.7762102 L7.29669564,9.85154975 C7.77994202,9.76789079 8.45797101,9.70561654 9.4135652,9.70561654 C10.3793623,9.70561654 11.0678261,9.89290924 11.5306667,10.2679647 C11.9721739,10.6218704 12.269913,11.2051332 12.269913,11.8922648 Z M2.38446377,16.7240409 L2.55953624,15.4433065 C2.77542029,15.5161556 3.05252174,15.56856 3.36069565,15.56856 C4.01878261,15.56856 4.42944928,15.2661187 4.42944928,14.172912 L4.42944928,9.75755089 L5.99118841,9.75755089 L5.99118841,14.1935918 C5.99118841,16.1929474 5.04556523,16.8904188 3.52510146,16.8904188 C3.16568118,16.8906538 2.69286957,16.8286146 2.38446377,16.7240409 L2.38446377,16.7240409 Z M18.1254493,22.775217 L2.82110145,22.775217 L2.82110145,18.2472923 L18.1254493,18.2472923 L18.1254493,22.775217 L18.1254493,22.775217 Z M19.0525217,16.4533242 C18.5697391,16.6199371 17.6554203,16.8490593 16.7401739,16.8490593 C15.4768695,16.8490593 14.5618551,16.5261733 13.9251015,15.9015509 C13.2878841,15.2976083 12.9382029,14.3813545 12.9488695,13.3501871 C12.9588406,11.0176055 14.6337391,9.68470181 16.9048116,9.68470178 C17.7989565,9.68470178 18.4876522,9.86141962 18.8266667,10.0282676 L18.4976232,11.2986621 C18.1173333,11.1320491 17.6445217,10.9966908 16.8841739,10.9966908 C15.5793623,10.9966908 14.5931594,11.7465666 14.5931594,13.2669981 C14.5931594,14.7143454 15.4868406,15.568325 16.7714783,15.568325 C17.1311304,15.568325 17.4188986,15.5264955 17.542029,15.4637512 L17.542029,13.9957242 L16.4732754,13.9957242 L16.4732754,12.7565843 L19.0525217,12.7565843 L19.0525217,16.4533242 Z" transform="translate(697 840)"/>
  </g>
</svg>
