<svg xmlns="http://www.w3.org/2000/svg" width="24" height="24" viewBox="0 0 24 24">
  <g fill="none" fill-rule="evenodd" transform="translate(-648 -840)">
    <path fill="#555" fill-rule="nonzero" d="M17.1478337,2.49686522 L15.7873383,1 L5.06831842,1 C4.29526817,1 3.99703429,1.56786471 3.99703429,2.01083497 L3.99703429,6.00489545 L5.50004694,6.00489545 L5.50004694,2.8175431 C5.50004694,2.6474074 5.64393496,2.50514657 5.81103796,2.50514657 L13.4802246,2.50514657 C13.649292,2.50514657 13.7335782,2.53489685 13.7335782,2.67146301 L13.7335782,7.97372429 L19.1929016,7.97372429 C19.4074402,7.97372429 19.490504,8.08301614 19.490504,8.24514771 L19.490504,21.1906517 C19.490504,21.4620209 19.3800366,21.5030482 19.2129336,21.5030482 L5.81103796,21.5030482 C5.64247701,21.5030482 5.50004694,21.357816 5.50004694,21.1906517 L5.50004694,20.0077282 L4.00636913,20.0077282 L4.00636913,21.8721163 C3.98687179,22.5314838 4.34240178,23 5.06831842,23 L19.9556017,23 C20.7332916,23 20.999115,22.4421844 20.999115,21.9341583 L20.999115,8.08836214 L20.999115,6.70533752 L20.6107941,6.28792074 L17.1478337,2.49686522 Z M15.2617317,2.67146301 L15.6911469,3.14888 L18.5756041,6.28792074 L18.7345123,6.4780426 L15.7873383,6.4780426 C15.5647736,6.4780426 15.4239604,6.44166565 15.3648987,6.36891174 C15.305837,6.29615784 15.271448,6.18118795 15.2617317,6.02400208 L15.2617317,2.67146301 Z M14.0495948,12.7341276 L19.1357223,12.7341276 L19.1357223,14.2008829 L14.0495948,14.2008829 L14.0495948,12.7341276 Z M14.0495948,9.80058863 L19.1357223,9.80058863 L19.1357223,11.267344 L14.0495948,11.267344 L14.0495948,9.80058863 Z M14.0495948,15.6676666 L19.1357223,15.6676666 L19.1357223,17.1344219 L14.0495948,17.1344219 L14.0495948,15.6676666 Z M1,7.18830388 L1,18.9224315 L12.6269763,18.9224315 L12.6269763,7.18830388 L1,7.18830388 Z M6.8142031,14.013145 L6.1021088,15.0882657 L6.8142031,15.0882657 L6.8142031,16.3995727 L3.23937647,16.399601 L5.83477204,12.5405034 L3.5358441,9.06721096 L5.45550991,9.06721096 L6.81568908,11.0869639 L8.17441031,9.06721096 L10.0925901,9.06721096 L7.7907463,12.5390602 L10.3875998,16.399601 L8.39528907,16.3995727 L6.8142031,14.013145 Z" transform="translate(648 840)"/>
  </g>
</svg>
