<svg xmlns="http://www.w3.org/2000/svg" width="24" height="24" viewBox="0 0 24 24">
  <g fill="none" fill-rule="evenodd" transform="translate(-600 -840)">
    <path fill="#555" fill-rule="nonzero" d="M21.2155235,4.20779222 C21.059527,4.06393608 20.8915307,3.90809191 20.6995351,3.72827173 C20.1595472,3.23676323 19.631559,2.74525474 19.1155707,2.27772227 C19.055572,2.22977023 19.055572,2.22977023 18.9955733,2.16983018 C18.3115887,1.55844157 17.7476014,1.05494505 17.3276108,0.695304703 C17.0876162,0.491508492 16.8836208,0.335664352 16.7516237,0.227772234 C16.6556259,0.155844164 16.5836275,0.107892117 16.4996294,0.0719280703 C16.4036316,0.0239760234 16.3196334,0 16.1876364,0 C15.851644,0.0119880234 15.5876499,0.275724281 15.5876499,0.611388609 L15.5876499,6.005994 L20.9875286,6.005994 L20.3875421,5.40659341 L20.3875421,23.4005994 L20.9875286,22.8011988 L5.38787899,22.8011988 C4.39190137,22.8011988 3.58791941,21.998002 3.58791941,21.002997 L3.58791941,0.635364633 L2.98793288,1.23476524 L13.7876903,1.23476524 C14.1236828,1.23476524 14.3876769,0.971028984 14.3876768,0.635364633 C14.3876768,0.299700281 14.1236828,0.0359640234 13.7876903,0.0359640469 L2.38794637,0.0359640469 L2.38794637,21.002997 C2.38794637,22.6573427 3.73191618,24 5.38787899,24 L21.5875151,24 L21.5875151,4.83116883 L16.1876364,4.83116883 L16.7876229,5.43056944 L16.7876229,0.635364633 C16.7876229,0.959040961 16.5236289,1.21078922 16.2116359,1.22277722 C16.1036383,1.22277722 16.0436396,1.2107892 15.983641,1.17482517 C15.9716412,1.17482517 16.0076404,1.1868132 16.0436396,1.21078922 C16.1516372,1.29470531 16.3316332,1.42657343 16.5476283,1.61838162 C16.9556191,1.96603397 17.5076068,2.45754246 18.1795917,3.05694305 C18.2395903,3.10489509 18.2395903,3.10489509 18.299589,3.16483516 C18.8035776,3.62037961 19.3435655,4.1118881 19.8715537,4.60339659 C20.0635493,4.77122876 20.2315456,4.93906092 20.3875421,5.08291709 C20.4835399,5.16683318 20.5435386,5.22677323 20.5795378,5.26273727 C20.8195324,5.49050951 21.2035238,5.47852148 21.4315186,5.23876125 C21.6595135,4.99900102 21.6475138,4.61538462 21.4075192,4.38761238 C21.37152,4.36363636 21.3115213,4.30369629 21.2155235,4.20779222 Z M2.39994609,10.8251748 L0,10.8251748 L0,21.014985 L23.999461,21.014985 L23.999461,10.8251748 L3.59991913,10.8251748 L3.59991913,10.8131868 L2.39994609,10.8131868 L2.39994609,10.8251748 Z M4.8838903,16.6753247 L4.8838903,19.2047952 L3.695917,19.2047952 L3.695917,12.3836164 L6.31185823,12.3836164 C7.07984099,12.3836164 7.6798275,12.5874126 8.12381752,12.983017 C8.56780755,13.3786214 8.79580244,13.9060939 8.79580244,14.5534466 C8.79580244,15.2247752 8.5798073,15.7402597 8.13581727,16.1118881 C7.69182724,16.4835165 7.07984099,16.6633367 6.28785877,16.6633367 L4.8838903,16.6633367 L4.8838903,16.6753247 Z M4.8838903,15.7162837 L6.31185823,15.7162837 C6.7318488,15.7162837 7.05584152,15.6203796 7.27183667,15.4165834 C7.48783181,15.2127872 7.60782911,14.937063 7.60782911,14.5534466 C7.60782911,14.1818182 7.49983153,13.8941059 7.27183667,13.6663337 C7.04384181,13.4385614 6.7318488,13.3306693 6.34785743,13.3306693 L4.89589004,13.3306693 L4.89589004,15.7162837 L4.8838903,15.7162837 Z M9.82777926,19.2047952 L9.82777926,12.3836164 L11.843734,12.3836164 C12.4437205,12.3836164 12.9837084,12.5154845 13.4516979,12.7912088 C13.9196873,13.0669331 14.2796792,13.4385615 14.5316736,13.9300699 C14.7836679,14.4215784 14.915665,14.985015 14.915665,15.6203796 L14.915665,15.968032 C14.915665,16.6153846 14.7836679,17.1788212 14.5316736,17.6703297 C14.2796792,18.1618382 13.9076876,18.5334665 13.4276984,18.8091908 C12.9477092,19.0849151 12.4077213,19.2047952 11.7837353,19.2047952 L9.82777926,19.2047952 L9.82777926,19.2047952 Z M11.0157526,13.3426573 L11.0157526,18.2577423 L11.7837353,18.2577423 C12.4077213,18.2577423 12.8877105,18.0659341 13.2117032,17.6703297 C13.535696,17.2747253 13.7156919,16.7232767 13.7156919,15.992008 L13.7156919,15.6083916 C13.7156919,14.8651349 13.5596954,14.3016983 13.2357027,13.9180819 C12.91171,13.5224775 12.4437205,13.3306693 11.8317342,13.3306693 L11.0157526,13.3306693 L11.0157526,13.3426573 Z M20.0395499,16.3156843 L17.2916116,16.3156843 L17.2916116,19.2047952 L16.1036383,19.2047952 L16.1036383,12.3836164 L20.435541,12.3836164 L20.435541,13.3426573 L17.2916116,13.3426573 L17.2916116,15.3686314 L20.0395499,15.3686314 L20.0395499,16.3156843 L20.0395499,16.3156843 Z" transform="translate(600 840)"/>
  </g>
</svg>
