<svg xmlns="http://www.w3.org/2000/svg" width="24" height="24" viewBox="0 0 24 24">
  <g fill="none" fill-rule="evenodd" transform="translate(-696 -840)">
    <path fill="#555" fill-rule="nonzero" d="M9.61301643,11.0069804 C9.32443653,11.0069804 9.12861446,11.0356667 9.02597086,11.0645686 L9.02597086,12.9662745 C9.14733428,12.9949608 9.29646194,13.0046667 9.50132842,13.0046667 C10.2564318,13.0046667 10.722745,12.612549 10.722745,11.9534118 C10.722745,11.3607059 10.3216357,11.0069804 9.61301643,11.0069804 Z M18.7975136,8.86931373 L18.253006,8.86931373 L18.253006,6.78974915 C18.2492944,6.6392254 18.2138031,6.54000306 18.1486797,6.46233738 L13.2146445,1.14752943 C13.179392,1.10861153 13.1417623,1.07855892 13.1000118,1.05564706 C13.0735954,1.04080733 13.0457532,1.02880887 13.0169294,1.01984315 C12.9628132,1.00438694 12.930416,1.00026139 12.8978797,1 L3.55893814,1 C3.09472834,1 2.67893982,1.38715688 2.67893982,1.86274511 L2.67893982,8.86909804 L2.20248638,8.86909804 C1.88356716,8.86909804 1.57771004,8.99901129 1.3522001,9.23025836 C1.12669016,9.46150543 0.999999993,9.77514376 1,10.1021765 L1,16.5145294 C1.00011613,17.1954905 1.5384196,17.7474888 2.20248638,17.7476079 L2.67893982,17.7476079 L2.67893982,22.1372549 C2.67893982,22.6128432 3.09472834,23 3.55893814,23 L17.4116651,23 C17.8754543,23 18.253006,22.6128431 18.253006,22.1372549 L18.253006,17.7478235 L18.7975136,17.7478235 C19.4615804,17.7477045 19.9998839,17.1957062 20,16.5147451 L20,10.1023922 C20,9.77535944 19.8733098,9.46172111 19.6477999,9.23047405 C19.42229,8.99922698 19.1164328,8.86931373 18.7975136,8.86931373 Z M4.19751584,2.51597919 L10.9845138,2.51597919 L10.9845138,7.55068234 C10.9845138,7.66508946 11.0288343,7.77481075 11.1077253,7.8557088 C11.1866163,7.93660684 11.2936155,7.98205489 11.4051842,7.98205488 L16.7243196,7.98205488 L16.7243196,8.86952942 L4.19751584,8.86952942 L4.19751584,2.51597919 Z M12.1296772,11.9150196 C12.1296772,12.5456863 11.9248107,13.0810196 11.5520967,13.444451 C11.0670637,13.9127059 10.3494,14.1227843 9.51100386,14.1227843 C9.32443653,14.1227843 9.15637871,14.1135098 9.02597086,14.0943137 L9.02597086,16.3976275 L7.61861797,16.3976275 L7.61861797,10.042 C8.05695655,9.96521571 8.67197671,9.90805884 9.53876809,9.90805884 C10.4148142,9.90805884 11.0392995,10.0799608 11.4591286,10.4241961 C11.8596068,10.7490196 12.1296772,11.284353 12.1296772,11.9150196 Z M3.32168003,15.1742549 C3.5175021,15.2411176 3.76885268,15.2892157 4.04838817,15.2892157 C4.64531949,15.2892157 5.01782315,15.0116275 5.01782315,14.0082549 L5.01782315,9.95572549 L6.43443077,9.95572549 L6.43443077,14.0272353 C6.43443077,15.8622941 5.5766838,16.502451 4.19751584,16.502451 C3.87149628,16.5026667 3.44262278,16.4457255 3.16287695,16.3497451 L3.32168003,15.1742549 Z M4.19751584,21.484074 L4.19751584,17.7478235 L16.7243196,17.7478235 L16.7243196,21.484074 L4.19751584,21.484074 Z M18.281982,16.1012745 C17.8440641,16.2541961 17.0147124,16.4644902 16.1845193,16.4644902 C15.0386131,16.4644902 14.2086304,16.1681373 13.6310499,15.5948431 C13.0530488,15.0405294 12.7358633,14.1995686 12.7455387,13.2531373 C12.7545831,11.1122353 14.2738343,9.88886278 16.3338573,9.88886275 C17.1449099,9.88886275 17.7696055,10.0510588 18.0771155,10.2041961 L17.7786499,11.3701961 C17.4337001,11.2172745 17.0048266,11.0930392 16.3151375,11.0930392 C15.1315813,11.0930392 14.2370256,11.7812941 14.2370256,13.1767843 C14.2370256,14.5051961 15.0476575,15.289 16.2129146,15.289 C16.5391445,15.289 16.8001705,15.2506079 16.9118585,15.1930196 L16.9118585,13.8456275 L15.9424235,13.8456275 L15.9424235,12.7083137 L18.281982,12.7083137 L18.281982,16.1012745 Z M12.5326357,2.67146301 L12.9620508,3.14888 L15.8465081,6.28792074 L16.0054163,6.4780426 L13.0582422,6.4780426 C12.8356775,6.4780426 12.6948644,6.44166565 12.6358027,6.36891174 C12.576741,6.29615784 12.542352,6.18118795 12.5326357,6.02400208 L12.5326357,2.67146301 Z" transform="translate(697 840)"/>
  </g>
</svg>
