<svg xmlns="http://www.w3.org/2000/svg" width="24" height="24" viewBox="0 0 24 24">
  <g fill="none" fill-rule="evenodd" transform="translate(-504 -840)">
    <path fill="#555" d="M12.6091954,24 L1.93678161,24 C0.867816092,24 0,23.1655438 0,22.1376323 L0,1.86236766 C0,0.834456208 0.867816092,0 1.93678161,0 L16.0632184,1.23096913e-15 C17.1321839,1.23096913e-15 18,0.834456208 18,1.86236766 L18,17.9480269 L12.6091954,24 Z M11.9425287,16.2617902 L16.183908,16.2617902 L16.183908,1.87102984 C16.1724138,1.85659288 16.1293103,1.82483157 16.0632184,1.82483157 L1.93678161,1.82483157 C1.87068966,1.82483157 1.82758621,1.85370549 1.81609195,1.87102984 L1.81609195,1.87102984 L1.81609195,22.1260828 C1.82758621,22.1434071 1.87356322,22.1751684 1.93678161,22.1751684 L10.2988506,22.1751684 L10.2988506,17.9133782 C10.2988506,17.0038499 11.0373563,16.2617902 11.9425287,16.2617902 Z M12.1149425,18.0866218 L12.1149425,21.8171319 L15.4367816,18.0866218 L12.1149425,18.0866218 Z M3.84770115,15.0750722 C3.37931034,15.0750722 2.99712644,14.6910491 2.99712644,14.2204042 C2.99712644,13.7497594 3.37931034,13.3657363 3.84770115,13.3657363 L9.73275862,13.3657363 C10.2011494,13.3657363 10.5833333,13.7497594 10.5833333,14.2204042 C10.5833333,14.6910491 10.2011494,15.0750722 9.73275862,15.0750722 L3.84770115,15.0750722 Z M2.99712644,9.78248316 C2.99712644,9.31183831 3.37931034,8.92781521 3.84770115,8.92781521 L14.158046,8.92781521 C14.6264368,8.92781521 15.0086207,9.31183831 15.0086207,9.78248316 C15.0086207,10.253128 14.6264368,10.6371511 14.158046,10.6371511 L3.84770115,10.6371511 C3.37931034,10.6371511 2.99712644,10.253128 2.99712644,9.78248316 Z M9.73275862,6.20211742 L3.84770115,6.20211742 C3.37931034,6.20211742 2.99712644,5.81809432 2.99712644,5.34744947 C2.99712644,4.87680462 3.37931034,4.49278152 3.84770115,4.49278152 L9.73275862,4.49278152 C10.2011494,4.49278152 10.5833333,4.87680462 10.5833333,5.34744947 C10.5833333,5.81809432 10.2011494,6.20211742 9.73275862,6.20211742 Z" transform="matrix(1 0 0 -1 507 864)"/>
  </g>
</svg>
