<svg xmlns="http://www.w3.org/2000/svg" width="24" height="24" viewBox="0 0 24 24">
  <path fill="#555" d="M14.8095014,3.36739306 L14.8061651,3.36363636 L6.32352941,3.36363636 L6.32352941,20.6363636 L18.6764706,20.6363636 L18.6764706,8.34246851 L15.8474204,8.34196239 C15.1417682,8.36999151 14.5962002,8.25589945 14.206457,7.94817639 C13.7531904,7.59029821 13.5867064,6.98037308 13.60865,6.16662087 L13.60865,3.36739306 L14.8095014,3.36739306 Z M14.8847259,3.45209431 L14.9321669,3.50876156 L14.9319299,6.18534141 C14.9202482,6.62352755 14.9794774,6.84051752 15.0115121,6.86581065 C15.1070703,6.9412589 15.3701302,6.99627139 15.8219266,6.97883216 L18.0154486,6.97883216 L18.3904383,7.40279396 L18.646519,7.6877997 L14.8847259,3.45209431 Z M5.88235294,2 L15.3890921,2 L20,7.19179195 L20,21.0909091 C20,21.5929861 19.6049571,22 19.1176471,22 L5.88235294,22 C5.39504287,22 5,21.5929861 5,21.0909091 L5,2.90909091 C5,2.40701386 5.39504287,2 5.88235294,2 Z M8.30882353,10.6363636 C7.94334097,10.6363636 7.64705882,10.3311032 7.64705882,9.95454545 C7.64705882,9.57798767 7.94334097,9.27272727 8.30882353,9.27272727 L13.4239873,9.27272727 C13.7894699,9.27272727 14.085752,9.57798767 14.085752,9.95454545 C14.085752,10.3311032 13.7894699,10.6363636 13.4239873,10.6363636 L8.30882353,10.6363636 Z M8.30882353,17.9090909 C7.94334097,17.9090909 7.64705882,17.6038305 7.64705882,17.2272727 C7.64705882,16.8507149 7.94334097,16.5454545 8.30882353,16.5454545 L13.4239873,16.5454545 C13.7894699,16.5454545 14.085752,16.8507149 14.085752,17.2272727 C14.085752,17.6038305 13.7894699,17.9090909 13.4239873,17.9090909 L8.30882353,17.9090909 Z M8.30882353,14.2727273 C7.94334097,14.2727273 7.64705882,13.9674669 7.64705882,13.5909091 C7.64705882,13.2143513 7.94334097,12.9090909 8.30882353,12.9090909 L16.4789019,12.9090909 C16.8443845,12.9090909 17.1406667,13.2143513 17.1406667,13.5909091 C17.1406667,13.9674669 16.8443845,14.2727273 16.4789019,14.2727273 L8.30882353,14.2727273 Z"/>
</svg>
