<svg xmlns="http://www.w3.org/2000/svg" width="24" height="24" viewBox="0 0 24 24">
  <path fill="#555" d="M11.7063831,11.0972549 C11.4481801,11.0972549 11.2729708,11.1233333 11.1811318,11.1496079 L11.1811318,12.8784314 C11.2897201,12.9045098 11.4231502,12.9133333 11.6064517,12.9133333 C12.2820706,12.9133333 12.6992981,12.5568628 12.6992981,11.9576471 C12.6992981,11.4188235 12.3404109,11.0972549 11.7063831,11.0972549 Z M19.9240911,9.15392157 L19.4369001,9.15392157 L19.4369001,7.26340831 C19.4335792,7.12656854 19.4018238,7.03636642 19.3435555,6.96576125 L14.9288925,2.13411767 C14.8973507,2.09873776 14.8636821,2.0714172 14.8263264,2.05058824 C14.8026906,2.03709757 14.7777792,2.02618988 14.7519895,2.01803923 C14.7035697,2.00398813 14.6745827,2.00023763 14.6454713,2 L6.28957623,2 C5.87423062,2 5.50220931,2.3519608 5.50220931,2.78431374 L5.50220931,9.15372549 L5.07590886,9.15372549 C4.79056009,9.15372549 4.51689845,9.27182845 4.3151264,9.48205305 C4.11335435,9.69227766 3.99999999,9.97740342 4,10.2747059 L4,16.1041177 C4.0001039,16.7231732 4.48174385,17.2249898 5.07590886,17.2250981 L5.50220931,17.2250981 L5.50220931,21.2156863 C5.50220931,21.6480392 5.87423062,22 6.28957623,22 L18.6841214,22 C19.0990907,22 19.4369001,21.6480392 19.4369001,21.2156863 L19.4369001,17.2252941 L19.9240911,17.2252941 C20.5182562,17.2251859 20.9998961,16.7233693 21,16.1043137 L21,10.274902 C21,9.97759949 20.8866457,9.69247374 20.6848736,9.48224913 C20.4831015,9.27202453 20.2094399,9.15392157 19.9240911,9.15392157 Z M6.86093522,3.3781629 L12.9335123,3.3781629 L12.9335123,7.95516576 C12.9335123,8.05917223 12.9731675,8.15891887 13.0437542,8.23246254 C13.1143409,8.30600622 13.210077,8.34732263 13.3099017,8.34732262 L18.069128,8.34732262 L18.069128,9.15411765 L6.86093522,9.15411765 L6.86093522,3.3781629 Z M13.9581322,11.9227451 C13.9581322,12.4960784 13.7748306,12.9827451 13.4413497,13.3131373 C13.0073728,13.7388236 12.3652526,13.9298039 11.6151087,13.9298039 C11.4481801,13.9298039 11.2978125,13.9213726 11.1811318,13.9039216 L11.1811318,15.9978431 L9.92192135,15.9978431 L9.92192135,10.22 C10.314119,10.1501961 10.8644002,10.0982353 11.6399504,10.0982353 C12.4237812,10.0982353 12.9825311,10.2545098 13.3581677,10.567451 C13.7164903,10.8627451 13.9581322,11.3494118 13.9581322,11.9227451 Z M6.07729266,14.8856863 C6.25250188,14.9464706 6.4773945,14.9901961 6.7275052,14.9901961 C7.26160165,14.9901961 7.5948944,14.7378431 7.5948944,13.8256863 L7.5948944,10.1415686 L8.86238543,10.1415686 L8.86238543,13.8429412 C8.86238543,15.5111765 8.09492761,16.0931373 6.86093522,16.0931373 C6.56923351,16.0933334 6.18550459,16.0415686 5.93520569,15.9543137 L6.07729266,14.8856863 Z M6.86093522,20.6218854 L6.86093522,17.2252941 L18.069128,17.2252941 L18.069128,20.6218854 L6.86093522,20.6218854 Z M19.462826,15.7284314 C19.0710047,15.867451 18.3289532,16.0586275 17.5861489,16.0586275 C16.5608644,16.0586275 15.8182482,15.7892157 15.3014657,15.2680392 C14.7843068,14.7641177 14.5005092,13.9996079 14.5091662,13.1392157 C14.5172585,11.1929412 15.8765886,10.0807843 17.7197671,10.0807843 C18.4454457,10.0807843 19.0043838,10.2282353 19.2795244,10.367451 L19.0124762,11.427451 C18.703837,11.2884314 18.320108,11.1754902 17.7030178,11.1754902 C16.6440464,11.1754902 15.8436545,11.8011765 15.8436545,13.0698039 C15.8436545,14.277451 16.5689567,14.99 17.6115552,14.99 C17.9034451,14.99 18.1369947,14.9550981 18.236926,14.9027451 L18.236926,13.6778431 L17.3695368,13.6778431 L17.3695368,12.6439216 L19.462826,12.6439216 L19.462826,15.7284314 Z M14.3186741,3.51951183 L14.7028876,3.95352728 L17.2837178,6.80720067 L17.4258988,6.98003873 L14.7889536,6.98003873 C14.5898168,6.98003873 14.463826,6.94696877 14.4109813,6.88082886 C14.3581367,6.81468894 14.3273676,6.71017086 14.3186741,6.56727461 L14.3186741,3.51951183 Z"/>
</svg>
