<svg xmlns="http://www.w3.org/2000/svg" width="24" height="24" viewBox="0 0 24 24">
  <path fill="#555" d="M19.9240911,9.15392157 L19.4096375,9.15392157 L19.4369001,7.26340831 C19.4335792,7.12656854 19.3745612,7.03636642 19.3162929,6.96576125 L14.9016298,2.13411767 C14.8700881,2.09873776 14.8364194,2.0714172 14.7990637,2.05058824 C14.775428,2.03709757 14.7505165,2.02618988 14.7247269,2.01803923 C14.6763071,2.00398813 14.6473201,2.00023763 14.6182087,2 L5.37883111,2 C4.96348549,2 4.59146418,2.3519608 4.59146418,2.78431374 L4.59146418,9.15372549 L4.07590886,9.15372549 C3.79056009,9.15372549 3.51689845,9.27182845 3.3151264,9.48205305 C3.11335435,9.69227766 2.99999999,9.97740342 3,10.2747059 L3,16.1041177 C3.0001039,16.7231732 3.48174385,17.2249898 4.07590886,17.2250981 L4.59146418,17.2250981 L4.59146418,21.2156863 C4.59146418,21.6480392 4.96348549,22 5.37883111,22 L18.6568588,22 C19.071828,22 19.4369001,21.6480392 19.4369001,21.2156863 L19.4369001,17.2252941 L19.9240911,17.2252941 C20.5182562,17.2251859 20.9998961,16.7233693 21,16.1043137 L21,10.274902 C21,9.97759949 20.8866457,9.69247374 20.6848736,9.48224913 C20.4831015,9.27202453 20.2094399,9.15392157 19.9240911,9.15392157 Z M5.9501901,3.3781629 L12.9062497,3.3781629 L12.9062497,7.95516576 C12.9062497,8.05917223 12.9459049,8.15891887 13.0164916,8.23246254 C13.0870783,8.30600622 13.1828144,8.34732263 13.282639,8.34732262 L18.0418654,8.34732262 L18.0418654,9.15411765 L5.9501901,9.15411765 L5.9501901,3.3781629 Z M5.9501901,20.6218854 L5.9501901,17.2252941 L18.0418654,17.2252941 L18.0418654,20.6218854 L5.9501901,20.6218854 Z M14.2914114,3.51951183 L14.675625,3.95352728 L17.2564552,6.80720067 L17.3986362,6.98003873 L14.761691,6.98003873 C14.5625541,6.98003873 14.4365634,6.94696877 14.3837187,6.88082886 C14.330874,6.81468894 14.3001049,6.71017086 14.2914114,6.56727461 L14.2914114,3.51951183 Z M5,16.2321872 L5,10.2321872 L6.91765953,10.2321872 C7.6443552,10.2321872 8.11804601,10.2622005 8.33874618,10.3222281 C8.67787082,10.4122695 8.96181616,10.6080383 9.19059073,10.9095405 C9.41936529,11.2110427 9.53375085,11.600534 9.53375085,12.0780262 C9.53375085,12.4463773 9.46781094,12.7560604 9.33592913,13.0070848 C9.20404733,13.2581093 9.03650612,13.4552424 8.83330048,13.59849 C8.63009484,13.7417377 8.42352796,13.8365526 8.21359366,13.8829375 C7.92829832,13.9402366 7.51516458,13.9688857 6.97418002,13.9688857 L6.19500468,13.9688857 L6.19500468,16.2321872 L5,16.2321872 Z M6.19500468,11.247194 L6.19500468,12.9497861 L6.84902751,12.9497861 C7.32003396,12.9497861 7.63493069,12.9184085 7.79372715,12.8556524 C7.95252361,12.7928963 8.07700202,12.6946708 8.16716611,12.560973 C8.2573302,12.4272752 8.30241157,12.2717515 8.30241157,12.0943973 C8.30241157,11.8761151 8.23916309,11.6960351 8.11266421,11.5541517 C7.98616533,11.4122683 7.82602554,11.3235925 7.63224003,11.2881217 C7.48959236,11.2608364 7.2029556,11.247194 6.77232113,11.247194 L6.19500468,11.247194 Z M10.2351432,10.2321872 L12.4192564,10.2321872 C12.9117946,10.2321872 13.2872484,10.270386 13.5456291,10.3467847 C13.8928281,10.4504687 14.1902306,10.6346415 14.4378454,10.8993086 C14.6854602,11.1639757 14.87386,11.4879833 15.0030503,11.8713413 C15.1322407,12.2546993 15.1968349,12.7274095 15.1968349,13.2894859 C15.1968349,13.7833492 15.1362778,14.208993 15.0151619,14.56643 C14.8671313,15.0029943 14.6558544,15.3563332 14.3813249,15.6264573 C14.1740821,15.8310968 13.8941739,15.9907132 13.5415919,16.1053113 C13.2778283,16.1898956 12.9252516,16.2321872 12.4838513,16.2321872 L10.2351432,16.2321872 L10.2351432,10.2321872 Z M11.4301478,11.247194 L11.4301478,15.2212731 L12.3223642,15.2212731 C12.6561059,15.2212731 12.8969884,15.2021737 13.045019,15.1639743 C13.2388045,15.1148609 13.3996172,15.031642 13.5274618,14.9143154 C13.6553064,14.7969888 13.7595991,14.6039484 13.8403431,14.3351885 C13.921087,14.0664287 13.9614584,13.7001295 13.9614584,13.2362799 C13.9614584,12.7724304 13.921087,12.416363 13.8403431,12.1680671 C13.7595991,11.9197712 13.6465593,11.7260487 13.5012201,11.5868938 C13.355881,11.447739 13.1715184,11.3536062 12.9481268,11.3044928 C12.7812559,11.2662934 12.4542478,11.247194 11.9670925,11.247194 L11.4301478,11.247194 Z M15.9426361,16.2321872 L15.9426361,10.2321872 L20,10.2321872 L20,11.247194 L17.1376408,11.247194 L17.1376408,12.667385 L19.6083937,12.667385 L19.6083937,13.6823918 L17.1376408,13.6823918 L17.1376408,16.2321872 L15.9426361,16.2321872 Z"/>
</svg>
