<svg xmlns="http://www.w3.org/2000/svg" width="24" height="24" viewBox="0 0 24 24">
  <g fill="none" fill-rule="evenodd" transform="translate(-600 -840)">
    <path fill="#555" fill-rule="nonzero" d="M20.4957835,4.83987982 C20.3527834,4.70801169 20.1776785,4.56495114 20.0016785,4.40011597 C19.5066785,3.94956652 19.019112,3.51588222 18.5461121,3.08731079 C18.5094454,3.05800676 18.4727787,3.02503973 18.4361121,2.98840971 C17.6868172,2.31058231 17.1838365,1.86177851 16.9271698,1.64199829 C16.7071698,1.4551851 16.51,1.25222142 16.389,1.15332031 C16.301,1.08738625 16.235,1.04343021 16.158,1.01046316 C16.07,0.966507119 15.9763947,0.932342529 15.7783051,0.950210571 C15.4703051,0.961199593 15.1141052,1.26696777 15.1141052,1.66294861 L15.1141052,6.02295814 C15.1109823,6.24225151 15.189743,6.43349711 15.3503876,6.59669495 C15.5110321,6.75989278 15.7026062,6.84957886 15.9251099,6.86575317 L20.2047577,6.86575317 L19.463913,5.99629211 L19.4131421,20.8300781 C19.392902,21.1048584 19.3212687,21.2983856 19.1982422,21.4106598 C19.0752157,21.522934 18.8501349,21.5989227 18.523,21.6386261 L5.93900001,21.6386261 C4.98157481,21.5868794 4.56750023,20.8848922 4.51873779,20.1405024 L4.48597717,1.84487915 L4.07787604,2.5022583 L13.5080261,2.5022583 C13.8160261,2.5022583 14.1908417,2.25076294 14.2080688,1.78509521 C14.225296,1.31942749 13.8432679,0.999999979 13.5352679,1 L3.6965332,1 C3.48626709,1.01665243 3.31708936,1.09213257 3.189,1.22644043 C3.06091065,1.36074829 2.99246326,1.51749674 2.98365784,1.69668579 L3.01904297,20.2527473 C3.01904297,21.8331084 4.21068136,23.1458435 5.93900001,23.1458435 L18.5950717,23.1458435 C19.4157732,23.0854739 20.0156842,22.8144434 20.3948046,22.332752 C20.773925,21.8510605 20.9634852,21.2365513 20.9634852,20.4892244 L20.9634852,5.42857143 L18.8894806,5.36846924 L16.0957672,5.3513031 L16.6212158,5.99629211 L16.5948486,1.73640442 C16.5948486,2.03310772 16.3259104,2.16120078 16.0399104,2.17218978 C15.9409104,2.17218978 15.8859104,2.16120075 15.8309104,2.12823373 C15.8199104,2.12823373 15.8529104,2.13922275 15.8859104,2.16120078 C15.9519104,2.21248283 16.0158599,2.45876755 16.0777588,2.90005493 L17.476036,4.16037228 L17.586036,4.25927339 C17.9550044,4.58459296 18.300822,4.89743589 18.6234887,5.19780219 C18.7994886,5.35164834 18.9534886,5.50549449 19.0964887,5.63736264 C19.1844886,5.71428573 19.2394887,5.76923077 19.2724886,5.80219781 C19.4924886,6.01098903 20.6114853,6.02197803 20.8204853,5.80219781 C21.0294853,5.5824176 21.0284576,5.31512451 20.6717834,5.00471497 C20.6387834,4.98273694 20.5837834,4.92779188 20.4957835,4.83987982 Z M3.19999999,10.9230769 L1,10.9230769 L1,20.2637363 L23,20.2637363 L23,10.9230769 L4.29999999,10.9230769 L4.29999999,10.9120879 L3.19999999,10.9120879 L3.19999999,10.9230769 Z M5.477,16.2857143 L5.477,18.6043956 L4.38800001,18.6043956 L4.38800001,12.3516483 L6.786,12.3516483 C7.49,12.3516483 8.03999999,12.5384615 8.44699999,12.9010989 C8.854,13.2637363 9.063,13.7472527 9.063,14.3406593 C9.063,14.956044 8.86500001,15.4285714 8.458,15.7692308 C8.051,16.1098901 7.49,16.2747253 6.764,16.2747253 L5.477,16.2747253 L5.477,16.2857143 Z M5.477,15.4065934 L6.786,15.4065934 C7.171,15.4065934 7.46800001,15.3186813 7.666,15.1318681 C7.864,14.9450549 7.97399999,14.6923077 7.97399999,14.3406593 C7.97399999,14 7.87499999,13.7362637 7.666,13.5274725 C7.45700002,13.3186813 7.171,13.2197802 6.81900001,13.2197802 L5.48800001,13.2197802 L5.48800001,15.4065934 L5.477,15.4065934 Z M10.009,18.6043956 L10.009,12.3516483 L11.857,12.3516483 C12.407,12.3516483 12.902,12.4725275 13.331,12.7252747 C13.76,12.978022 14.09,13.3186813 14.321,13.7692308 C14.552,14.2197802 14.673,14.7362637 14.673,15.3186813 L14.673,15.6373626 C14.673,16.2307692 14.552,16.7472527 14.321,17.1978022 C14.09,17.6483517 13.749,17.989011 13.309,18.2417583 C12.869,18.4945055 12.374,18.6043956 11.802,18.6043956 L10.009,18.6043956 Z M11.098,13.2307692 L11.098,17.7362637 L11.802,17.7362637 C12.374,17.7362637 12.814,17.5604396 13.111,17.1978022 C13.408,16.8351648 13.573,16.3296703 13.573,15.6593407 L13.573,15.3076923 C13.573,14.6263736 13.43,14.1098901 13.133,13.7582418 C12.836,13.3956044 12.407,13.2197802 11.846,13.2197802 L11.098,13.2197802 L11.098,13.2307692 Z M19.37,15.956044 L16.851,15.956044 L16.851,18.6043956 L15.762,18.6043956 L15.762,12.3516483 L19.733,12.3516483 L19.733,13.2307692 L16.851,13.2307692 L16.851,15.0879121 L19.37,15.0879121 L19.37,15.956044 Z" transform="translate(600 840)"/>
  </g>
</svg>
