<svg xmlns="http://www.w3.org/2000/svg" width="24" height="24" viewBox="0 0 24 24">
  <g fill="none" fill-rule="evenodd" transform="translate(-552 -840)">
    <path fill="#555" fill-rule="nonzero" d="M15.117435,2.50413237 L15.1136537,2.5 L5.5,2.5 L5.5,21.5 L19.5,21.5 L19.5,7.97671537 L16.2937431,7.97615863 C15.4940039,8.00699066 14.8756935,7.8814894 14.4339846,7.54299403 C13.9202825,7.14932803 13.7316006,6.47841038 13.75647,5.58328296 L13.75647,2.50413237 L15.117435,2.50413237 Z M15.2026893,2.59730374 L15.2564558,2.65963772 L15.2561873,5.60387556 C15.242948,6.08588031 15.3100744,6.32456927 15.3463804,6.35239171 C15.4546796,6.43538479 15.7528143,6.49589853 16.2648501,6.47671537 L18.7508417,6.47671537 L19.1758301,6.94307336 L19.4660549,7.25657967 L15.2026893,2.59730374 Z M5,1 L15.7743044,1 L21,6.71097114 L21,22 C21,22.5522847 20.5522847,23 20,23 L5,23 C4.44771525,23 4,22.5522847 4,22 L4,2 C4,1.44771525 4.44771525,1 5,1 Z M11.3837758,19.0155536 C10.941948,19.0155536 10.5837758,18.6711572 10.5837758,18.2463228 C10.5837758,17.8214884 10.941948,17.477092 11.3837758,17.477092 C11.8256036,17.477092 12.1837758,17.8214884 12.1837758,18.2463228 C12.1837758,18.6711572 11.8256036,19.0155536 11.3837758,19.0155536 Z M9.55036141,12.5568095 C9.45544975,12.9600025 9.05165608,13.209914 8.64846301,13.1150023 C8.24526994,13.0200906 7.99535848,12.616297 8.09027015,12.2131039 C8.2438083,11.5608604 8.54025804,10.9894495 8.97618271,10.5106407 C9.60420127,9.82084086 10.4034006,9.45777794 11.3271094,9.3877869 C12.2453168,9.31821273 13.1444631,9.65379576 13.8404109,10.3304105 C14.4942869,10.966122 14.7163549,11.7353687 14.6327399,12.5280193 C14.5700641,13.1221712 14.1750387,13.7060782 13.6274136,14.2556154 C13.4990339,14.3844433 13.3750013,14.5028777 13.1055729,14.75646 C12.7770342,15.0656723 12.6505469,15.1869857 12.5344045,15.3075955 C12.3032719,15.5476186 12.2309492,15.6487973 12.1923459,15.7600162 C12.1538769,15.8708478 12.1029437,16.113351 12.0492611,16.4650564 C11.9867613,16.8745276 11.6041533,17.1558035 11.1946821,17.0933038 C10.7852109,17.0308041 10.503935,16.6481961 10.5664347,16.2387249 C10.6329305,15.803073 10.699307,15.4870416 10.7752789,15.2681613 C10.8997362,14.9095916 11.0854477,14.6497828 11.4539225,14.2671347 C11.5943835,14.1212709 11.7277228,13.9933858 12.0743242,13.6671733 C12.3345705,13.4222331 12.4520465,13.3100594 12.5649066,13.1968052 C12.8850684,12.8755256 13.125203,12.5205705 13.1410166,12.3706607 C13.1795889,12.0050048 13.0892941,11.6922225 12.7947943,11.4059038 C12.4035022,11.0254816 11.924756,10.846802 11.4404421,10.8834993 C10.8848939,10.9255942 10.4450081,11.125427 10.08535,11.5204664 C9.82336838,11.8082205 9.6461844,12.149745 9.55036141,12.5568095 Z" transform="translate(552 840)"/>
  </g>
</svg>
