<svg xmlns="http://www.w3.org/2000/svg" width="24" height="24" viewBox="0 0 24 24">
  <g fill="none" fill-rule="evenodd" transform="translate(-644 -836)">
    <path fill="#555" fill-rule="nonzero" d="M21.77088,4.25145501 L18.74454,1.20558355 C18.0849,0.543640103 16.7847253,0 15.8517227,0 L5.68238,0 C4.74937733,0 3.988016,0.767506427 3.988016,1.70440103 L3.988016,5.1451928 L5.34382,5.1451928 L5.34382,1.70440103 C5.34382,1.51894087 5.50120133,1.36386632 5.68397467,1.36386632 L15.8533173,1.36386632 C15.9534133,1.36386632 16.0694867,1.37663753 16.1918467,1.40063753 L16.1918467,6.81923907 L21.5801027,6.81923907 C21.6039613,6.94229306 21.6166573,7.6154653 21.6166573,7.71942416 L21.6166573,22.2771825 C21.6166573,22.4626427 21.459276,22.6177172 21.2765027,22.6177172 L5.68231867,22.6177172 C5.49795067,22.6177172 5.342164,22.4594036 5.342164,22.2771825 L5.342164,21.1340051 L3.98636,21.1340051 L3.98636,22.2771825 C3.98636,23.2157121 4.74772133,23.9815835 5.68075467,23.9815835 L21.2749387,23.9815835 C22.2079413,23.9815835 22.9693027,23.2157121 22.9693027,22.2771825 L22.9693027,7.72099743 C22.970928,6.78246787 22.4304587,4.91336761 21.7708187,4.25142416 L21.77088,4.25145501 Z M17.5460867,5.45697686 L17.5460867,1.97302828 C17.6382707,2.03694602 17.717728,2.10413368 17.7829253,2.17125964 L20.8092653,5.21552699 C20.8760267,5.2826838 20.942788,5.36418509 21.0079547,5.45691517 L17.5461173,5.45691517 L17.5460867,5.45697686 Z M14.27334,12.7910437 L19.8364267,12.7910437 L19.8364267,14.3899126 L14.27334,14.3899126 L14.27334,12.7910437 Z M14.27334,9.59327506 L19.8364267,9.59327506 L19.8364267,11.192144 L14.27334,11.192144 L14.27334,9.59327506 Z M14.27334,15.9888123 L19.8364267,15.9888123 L19.8364267,17.5876812 L14.27334,17.5876812 L14.27334,15.9888123 Z M0,6.74569666 L0,19.5367404 L12.7173133,19.5367404 L12.7173133,6.74569666 L0,6.74569666 Z M8.08876267,16.7866735 L6.35943867,14.1852648 L5.58056667,15.3572237 L6.35943867,15.3572237 L6.35943867,16.7866427 L2.44937733,16.7866427 L5.28816,12.5799794 L2.77364667,8.79384062 L4.873332,8.79384062 L6.361064,10.9955167 L7.84720133,8.79384062 L9.94526133,8.79384062 L7.42755867,12.5784062 L10.267936,16.7866427 L8.08879333,16.7866427 L8.08876267,16.7866735 Z" transform="translate(644 836)"/>
  </g>
</svg>
