<svg xmlns="http://www.w3.org/2000/svg" width="24" height="24" viewBox="0 0 24 24">
  <path fill="#555" d="M19.7234395,5.50849351 C19.5934395,5.38969593 19.4342531,5.26081531 19.2742532,5.11231833 C18.8242532,4.7064266 18.3810109,4.31572839 17.951011,3.92963626 C17.9176776,3.9032368 17.8843443,3.87353741 17.851011,3.84053809 C17.1698338,3.22989583 16.7125786,2.82557673 16.4792453,2.62758077 C16.2792453,2.45928419 16.1,2.27643795 15.99,2.18733975 C15.91,2.12794097 15.85,2.08834177 15.78,2.05864237 C15.7,2.01904318 15.6149042,1.98826493 15.4348228,2.00436192 C15.1548228,2.01426173 14.8310047,2.28972266 14.8310047,2.64645453 L14.8310047,6.57430704 C14.8281657,6.77186441 14.8997664,6.94415406 15.0458069,7.09117599 C15.1918474,7.23819792 15.3660056,7.31899446 15.5682817,7.33356561 L19.4588706,7.33356561 L18.7853754,6.55028411 L18.7392201,19.9137695 C18.72082,20.161314 18.6556988,20.3356591 18.5438565,20.4368049 C18.4320142,20.5379506 18.2273954,20.6064075 17.93,20.6421755 L6.49000001,20.6421755 C5.61961347,20.5955579 5.24318202,19.9631504 5.19885254,19.2925433 L5.16907016,2.81035241 L4.79806913,3.40257321 L13.3709328,3.40257321 C13.6509328,3.40257321 13.9916742,3.17600566 14.0073353,2.75649416 C14.0229964,2.33698266 13.675698,2.04921628 13.3956981,2.0492163 L4.45139382,2.0492163 C4.26024281,2.06421816 4.10644487,2.13221684 3.99,2.25321232 C3.87355514,2.37420781 3.81133024,2.51541961 3.80332531,2.67684773 L3.83549361,19.3936627 C3.83549361,20.8173811 4.91880124,22 6.49000001,22 L17.9955197,22 C18.741612,21.9456142 19.2869856,21.7014478 19.6316405,21.2675008 C19.9762955,20.8335538 20.1486229,20.2799538 20.1486229,19.6067007 L20.1486229,6.03883497 L18.2631642,5.98469001 L15.7234247,5.96922535 L16.2011053,6.55028411 L16.1771351,2.71262952 C16.1771351,2.97992407 15.9326458,3.09532075 15.6726458,3.10522054 C15.5826458,3.10522054 15.5326458,3.09532073 15.4826458,3.06562135 C15.4726458,3.06562135 15.5026458,3.07552116 15.5326458,3.09532075 C15.5926458,3.14151982 15.6507817,3.3633932 15.7070534,3.76094089 L16.9782145,4.89633765 L17.0782145,4.98543584 C17.4136404,5.27851026 17.72802,5.56034471 18.0213533,5.8309392 C18.1813533,5.96953637 18.3213533,6.10813354 18.4513533,6.22693114 C18.5313533,6.29622973 18.5813533,6.34572871 18.6113533,6.37542812 C18.8113533,6.56352429 19.828623,6.57342407 20.018623,6.37542812 C20.208623,6.17743216 20.2076888,5.93663272 19.8834395,5.65699047 C19.8534395,5.63719087 19.8034395,5.58769187 19.7234395,5.50849351 Z M3.99999999,10.9887341 L2,10.9887341 L2,19.4035625 L22,19.4035625 L22,10.9887341 L4.99999999,10.9887341 L4.99999999,10.9788343 L3.99999999,10.9788343 L3.99999999,10.9887341 Z M6.07,15.8198356 L6.07,17.908693 L5.08000001,17.908693 L5.08000001,12.2757078 L7.26,12.2757078 C7.9,12.2757078 8.39999999,12.4440044 8.76999999,12.7706977 C9.14,13.0973911 9.33,13.5329822 9.33,14.0675713 C9.33,14.62196 9.15000001,15.0476513 8.78,15.3545451 C8.41,15.6614388 7.9,15.8099358 7.24,15.8099358 L6.07,15.8099358 L6.07,15.8198356 Z M6.07,15.0278517 L7.26,15.0278517 C7.61,15.0278517 7.88,14.9486533 8.06,14.7803568 C8.24,14.6120602 8.33999999,14.3843649 8.33999999,14.0675713 C8.33999999,13.7606775 8.24999999,13.5230824 8.06,13.3349862 C7.87000001,13.1468901 7.61,13.0577919 7.29000001,13.0577919 L6.08000001,13.0577919 L6.08000001,15.0278517 L6.07,15.0278517 Z M10.19,17.908693 L10.19,12.2757078 L11.87,12.2757078 C12.37,12.2757078 12.82,12.3846056 13.21,12.612301 C13.6,12.8399963 13.9,13.1468901 14.11,13.5527818 C14.32,13.9586735 14.43,14.423964 14.43,14.9486533 L14.43,15.2357475 C14.43,15.7703366 14.32,16.2356271 14.11,16.6415188 C13.9,17.0474106 13.59,17.3543043 13.19,17.5819997 C12.79,17.809695 12.34,17.908693 11.82,17.908693 L10.19,17.908693 Z M11.18,13.0676917 L11.18,17.1266089 L11.82,17.1266089 C12.34,17.1266089 12.74,16.9682122 13.01,16.6415188 C13.28,16.3148255 13.43,15.8594348 13.43,15.2555471 L13.43,14.9387535 C13.43,14.324966 13.3,13.8596755 13.03,13.542882 C12.76,13.2161887 12.37,13.0577919 11.86,13.0577919 L11.18,13.0577919 L11.18,13.0676917 Z M18.7,15.5228416 L16.41,15.5228416 L16.41,17.908693 L15.42,17.908693 L15.42,12.2757078 L19.03,12.2757078 L19.03,13.0676917 L16.41,13.0676917 L16.41,14.7407576 L18.7,14.7407576 L18.7,15.5228416 Z"/>
</svg>
