<svg xmlns="http://www.w3.org/2000/svg" width="24" height="24" viewBox="0 0 24 24">
  <path fill="#555" d="M10.9276785,11.0972549 C10.6694755,11.0972549 10.4942662,11.1233333 10.4024272,11.1496079 L10.4024272,12.8784314 C10.5110156,12.9045098 10.6444456,12.9133333 10.8277472,12.9133333 C11.503366,12.9133333 11.9205936,12.5568628 11.9205936,11.9576471 C11.9205936,11.4188235 11.5617063,11.0972549 10.9276785,11.0972549 Z M19.9240911,9.15392157 L19.4096375,9.15392157 L19.4369001,7.26340831 C19.4335792,7.12656854 19.3745612,7.03636642 19.3162929,6.96576125 L14.9016298,2.13411767 C14.8700881,2.09873776 14.8364194,2.0714172 14.7990637,2.05058824 C14.775428,2.03709757 14.7505165,2.02618988 14.7247269,2.01803923 C14.6763071,2.00398813 14.6473201,2.00023763 14.6182087,2 L5.37883111,2 C4.96348549,2 4.59146418,2.3519608 4.59146418,2.78431374 L4.59146418,9.15372549 L4.07590886,9.15372549 C3.79056009,9.15372549 3.51689845,9.27182845 3.3151264,9.48205305 C3.11335435,9.69227766 2.99999999,9.97740342 3,10.2747059 L3,16.1041177 C3.0001039,16.7231732 3.48174385,17.2249898 4.07590886,17.2250981 L4.59146418,17.2250981 L4.59146418,21.2156863 C4.59146418,21.6480392 4.96348549,22 5.37883111,22 L18.6568588,22 C19.071828,22 19.4369001,21.6480392 19.4369001,21.2156863 L19.4369001,17.2252941 L19.9240911,17.2252941 C20.5182562,17.2251859 20.9998961,16.7233693 21,16.1043137 L21,10.274902 C21,9.97759949 20.8866457,9.69247374 20.6848736,9.48224913 C20.4831015,9.27202453 20.2094399,9.15392157 19.9240911,9.15392157 Z M5.9501901,3.3781629 L12.9062497,3.3781629 L12.9062497,7.95516576 C12.9062497,8.05917223 12.9459049,8.15891887 13.0164916,8.23246254 C13.0870783,8.30600622 13.1828144,8.34732263 13.282639,8.34732262 L18.0418654,8.34732262 L18.0418654,9.15411765 L5.9501901,9.15411765 L5.9501901,3.3781629 Z M13.1794276,11.9227451 C13.1794276,12.4960784 12.996126,12.9827451 12.6626451,13.3131373 C12.2286682,13.7388236 11.586548,13.9298039 10.8364041,13.9298039 C10.6694755,13.9298039 10.5191079,13.9213726 10.4024272,13.9039216 L10.4024272,15.9978431 L9.23247163,15.9978431 L9.23247163,10.22 C9.6246693,10.1501961 10.0856956,10.0982353 10.8612458,10.0982353 C11.6450766,10.0982353 12.2038265,10.2545098 12.5794631,10.567451 C12.9377857,10.8627451 13.1794276,11.3494118 13.1794276,11.9227451 Z M5.38784294,14.8856863 C5.56305217,14.9464706 5.78794478,14.9901961 6.03805549,14.9901961 C6.57215193,14.9901961 6.90544468,14.7378431 6.90544468,13.8256863 L6.90544468,10.1415686 L8.17293571,10.1415686 L8.17293571,13.8429412 C8.17293571,15.5111765 7.40547789,16.0931373 6.17148551,16.0931373 C5.87978379,16.0933334 5.49605487,16.0415686 5.24575597,15.9543137 L5.38784294,14.8856863 Z M5.9501901,20.6218854 L5.9501901,17.2252941 L18.0418654,17.2252941 L18.0418654,20.6218854 L5.9501901,20.6218854 Z M18.6841214,15.7284314 C18.2923002,15.867451 17.5502486,16.0586275 16.8074443,16.0586275 C15.7821598,16.0586275 15.0395436,15.7892157 14.5227611,15.2680392 C14.0056022,14.7641177 13.7218047,13.9996079 13.7304616,13.1392157 C13.7385539,11.1929412 15.097884,10.0807843 16.9410625,10.0807843 C17.6667411,10.0807843 18.2256793,10.2282353 18.5008198,10.367451 L18.2337716,11.427451 C17.9251324,11.2884314 17.5414035,11.1754902 16.9243132,11.1754902 C15.8653418,11.1754902 15.0649499,11.8011765 15.0649499,13.0698039 C15.0649499,14.277451 15.7902522,14.99 16.8328506,14.99 C17.1247405,14.99 17.3582901,14.9550981 17.4582214,14.9027451 L17.4582214,13.6778431 L16.5908322,13.6778431 L16.5908322,12.6439216 L18.6841214,12.6439216 L18.6841214,15.7284314 Z M14.2914114,3.51951183 L14.675625,3.95352728 L17.2564552,6.80720067 L17.3986362,6.98003873 L14.761691,6.98003873 C14.5625541,6.98003873 14.4365634,6.94696877 14.3837187,6.88082886 C14.330874,6.81468894 14.3001049,6.71017086 14.2914114,6.56727461 L14.2914114,3.51951183 Z"/>
</svg>
