<svg xmlns="http://www.w3.org/2000/svg" width="24" height="24" viewBox="0 0 24 24">
  <g fill="none" fill-rule="evenodd" transform="translate(-552 -840)">
    <path fill="#555" fill-rule="nonzero" d="M17.508,7.07234341 L10.992,0.493018537 C10.8825,0.399110244 10.76525,0.313194146 10.64025,0.235270244 C10.59325,0.203800976 10.562,0.188066341 10.5465,0.188066341 C10.531,0.172581463 10.5075,0.156846829 10.476,0.140862439 C10.257,0.0469541463 10.0305,0 9.7965,0 L1.71075,0 C1.24175,0 0.8395,0.16384 0.504,0.49152 C0.1685,0.8192 0.0005,1.21731122 0,1.68585366 L0,22.2907317 C0,22.7592741 0.168,23.1573854 0.504,23.4850654 C0.84,23.8127454 1.24225,23.9765854 1.71075,23.9765854 L16.3125,23.9765854 C16.7815,23.9765854 17.176,23.8127454 17.496,23.4850654 C17.816,23.1573854 17.97625,22.7592741 17.97675,22.2907317 L17.97675,8.24195122 C17.97675,7.77340878 17.8205,7.38304 17.508,7.07084488 L17.508,7.07234341 Z M10.66425,2.57673366 L15.375,7.30686439 L10.66425,7.30686439 L10.66425,2.57673366 Z M16.28925,22.291481 L1.6875,22.291481 L1.6875,1.68660293 L8.97675,1.68660293 L8.97675,7.30611512 C8.97675,7.77465756 9.14475,8.17276878 9.48075,8.50044878 C9.81675,8.82812878 10.219,8.99196878 10.6875,8.99196878 L16.28925,8.99196878 L16.28925,22.291481 Z M8.9535,13.2770341 C8.9535,12.9958088 8.8675,12.7772722 8.6955,12.6214244 C8.5235,12.4655766 8.297,12.3874029 8.016,12.3869034 C7.5785,12.3869034 7.12525,12.6131824 6.65625,13.0657405 L5.367,11.8714068 C6.1795,10.9503063 7.156,10.4897561 8.2965,10.4897561 C9.1715,10.4897561 9.8785,10.7082927 10.4175,11.1453659 C10.9565,11.582439 11.226,12.2380488 11.226,13.1121951 C11.226,13.4398751 11.14775,13.7560663 10.99125,14.0607688 C10.83475,14.3654712 10.64725,14.630962 10.42875,14.857241 C10.21025,15.08352 9.9955,15.309799 9.7845,15.536078 C9.5735,15.7623571 9.4015,16.0198556 9.2685,16.3085737 C9.1355,16.5972917 9.0925,16.9054907 9.1395,17.2331707 L7.077,17.2331707 C6.999,16.7646283 7.04975,16.3198127 7.22925,15.8987239 C7.40875,15.4776351 7.6315,15.1382166 7.8975,14.8804683 C8.1635,14.62272 8.40575,14.3457405 8.62425,14.0495298 C8.84275,13.753319 8.95225,13.4958205 8.95275,13.2770341 L8.9535,13.2770341 Z M7.125,19.5289288 C7.125,19.2322185 7.21875,18.9902049 7.40625,18.8028878 C7.59375,18.6155707 7.82425,18.5219122 8.09775,18.5219122 C8.37125,18.5219122 8.60175,18.6195668 8.78925,18.8148761 C8.97675,19.0101854 9.0705,19.2482029 9.0705,19.5289288 C9.0705,19.8096546 8.97675,20.0476722 8.78925,20.2429815 C8.60175,20.4382907 8.37125,20.5359454 8.09775,20.5359454 C7.82425,20.5359454 7.59375,20.4382907 7.40625,20.2429815 C7.21875,20.0476722 7.125,19.8096546 7.125,19.5289288 Z" transform="translate(555 840)"/>
  </g>
</svg>
