<svg xmlns="http://www.w3.org/2000/svg" width="24" height="24" viewBox="0 0 24 24">
  <path fill="#555" d="M14.8095014,3.36739306 L14.8061651,3.36363636 L6.32352941,3.36363636 L6.32352941,20.6363636 L18.6764706,20.6363636 L18.6764706,8.34246851 L15.8474204,8.34196239 C15.1417682,8.36999151 14.5962002,8.25589945 14.206457,7.94817639 C13.7531904,7.59029821 13.5867064,6.98037308 13.60865,6.16662087 L13.60865,3.36739306 L14.8095014,3.36739306 Z M14.8847259,3.45209431 L14.9321669,3.50876156 L14.9319299,6.18534141 C14.9202482,6.62352755 14.9794774,6.84051752 15.0115121,6.86581065 C15.1070703,6.9412589 15.3701302,6.99627139 15.8219266,6.97883216 L18.0154486,6.97883216 L18.3904383,7.40279396 L18.646519,7.6877997 L14.8847259,3.45209431 Z M5.88235294,2 L15.3890921,2 L20,7.19179195 L20,21.0909091 C20,21.5929861 19.6049571,22 19.1176471,22 L5.88235294,22 C5.39504287,22 5,21.5929861 5,21.0909091 L5,2.90909091 C5,2.40701386 5.39504287,2 5.88235294,2 Z M11.5150963,18.377776 C11.1252482,18.377776 10.8092139,18.0646884 10.8092139,17.6784753 C10.8092139,17.2922622 11.1252482,16.9791746 11.5150963,16.9791746 C11.9049443,16.9791746 12.2209786,17.2922622 12.2209786,17.6784753 C12.2209786,18.0646884 11.9049443,18.377776 11.5150963,18.377776 Z M9.89737772,12.5061904 C9.81363213,12.8727296 9.4573436,13.0999218 9.10158501,13.0136385 C8.74582642,12.9273551 8.52531631,12.56027 8.60906189,12.1937308 C8.74453674,11.6007822 9.00611003,11.0813177 9.39074945,10.646037 C9.94488347,10.0189462 10.6500593,9.68888903 11.4650965,9.62526082 C12.2752795,9.56201157 13.0686439,9.86708705 13.6827155,10.4821913 C14.2596649,11.0601109 14.4556072,11.7594261 14.3818293,12.4800176 C14.3265271,13.0201556 13.9779753,13.5509802 13.4947767,14.0505594 C13.3815005,14.1676757 13.27206,14.2753433 13.034329,14.5058727 C12.7444419,14.7869748 12.6328355,14.8972597 12.5303569,15.006905 C12.3264164,15.2251078 12.2626023,15.3170885 12.2285405,15.4181966 C12.1945973,15.5189526 12.1496562,15.73941 12.1022892,16.0591422 C12.0471424,16.4313887 11.7095471,16.6870941 11.3482489,16.6302762 C10.9869508,16.5734583 10.7387662,16.2256328 10.793913,15.8533862 C10.8525857,15.4573391 10.9111532,15.1700378 10.9781873,14.9710557 C11.0880025,14.6450833 11.2518656,14.4088935 11.5769904,14.0610316 C11.7009266,13.9284281 11.8185789,13.8121689 12.1244037,13.5156121 C12.3540328,13.2929392 12.457688,13.1909631 12.5572705,13.0880047 C12.8397662,12.7959324 13.0516497,12.4732459 13.0656029,12.3369643 C13.0996372,12.0045498 13.0199654,11.7202023 12.7601126,11.4599126 C12.4148549,11.1140742 11.9924318,10.9516382 11.565096,10.9849994 C11.0749063,11.0232675 10.6867718,11.2049336 10.3694265,11.5640604 C10.1382662,11.825655 9.98192741,12.1361318 9.89737772,12.5061904 Z"/>
</svg>
