<svg xmlns="http://www.w3.org/2000/svg" width="24" height="24" viewBox="0 0 24 24">
  <path fill="#555" d="M17.5336935,3.36078656 L16.3091934,2 L6.66164861,2 C5.96587259,2 5.69745022,2.51624064 5.69745022,2.91894088 L5.69745022,6.54990495 L7.05022147,6.54990495 L7.05022147,3.65231191 C7.05022147,3.49764309 7.17972642,3.36831506 7.33012577,3.36831506 L14.2326992,3.36831506 C14.3848666,3.36831506 14.4607275,3.39536077 14.4607275,3.51951183 L14.4607275,8.33974935 L19.374336,8.33974935 C19.5674293,8.33974935 19.64219,8.43910559 19.64219,8.58649791 L19.64219,20.3551379 C19.64219,20.6018372 19.5427649,20.6391348 19.3923656,20.6391348 L7.33012577,20.6391348 C7.17841421,20.6391348 7.05022147,20.5071054 7.05022147,20.3551379 L7.05022147,19.2797529 L5.70585195,19.2797529 L5.70585195,20.9746512 C5.68830357,21.5740762 6.00829472,22 6.66164861,22 L20.0607964,22 C20.7607484,22 21,21.492895 21,21.031053 L21,8.44396558 L21,7.18667048 L20.6504957,6.80720067 L17.5336935,3.36078656 Z M15.8361266,3.51951183 L16.2226173,3.95352728 L18.8187437,6.80720067 L18.9617674,6.98003873 L16.3091934,6.98003873 C16.1088763,6.98003873 15.9821388,6.94696877 15.9289809,6.88082886 C15.8758231,6.81468894 15.8448716,6.71017086 15.8361266,6.56727461 L15.8361266,3.51951183 Z M14.745155,12.6673887 L19.3228723,12.6673887 L19.3228723,14.0008027 L14.745155,14.0008027 L14.745155,12.6673887 Z M14.745155,10.0005351 L19.3228723,10.0005351 L19.3228723,11.3339491 L14.745155,11.3339491 L14.745155,10.0005351 Z M14.745155,15.3342423 L19.3228723,15.3342423 L19.3228723,16.6676563 L14.745155,16.6676563 L14.745155,15.3342423 Z M3,7.6257308 L3,18.2931195 L13.4647417,18.2931195 L13.4647417,7.6257308 L3,7.6257308 Z M8.23301435,13.8301319 L7.59210113,14.8075142 L8.23301435,14.8075142 L8.23301435,15.9996115 L5.01552801,15.9996373 L7.35148739,12.4913668 L5.28236069,9.33382814 L7.01013637,9.33382814 L8.2343518,11.1699672 L9.45725501,9.33382814 L11.1836933,9.33382814 L9.11194213,12.4900547 L11.4492137,15.9996373 L9.6560547,15.9996115 L8.23301435,13.8301319 Z"/>
</svg>
