<svg xmlns="http://www.w3.org/2000/svg" width="20" height="20" viewBox="0 0 20 20">
  <path fill="#555" d="M17.9240911,7.15392157 L17.4096375,7.15392157 L17.4369001,5.26340831 C17.4335792,5.12656854 17.3745612,5.03636642 17.3162929,4.96576125 L12.9016298,0.134117668 C12.8700881,0.0987377557 12.8364194,0.0714171993 12.7990637,0.0505882376 C12.775428,0.0370975708 12.7505165,0.0261898775 12.7247269,0.0180392268 C12.6763071,0.00398812736 12.6473201,0.000237631432 12.6182087,0 L3.37883111,0 C2.96348549,0 2.59146418,0.351960796 2.59146418,0.784313737 L2.59146418,7.15372549 L2.07590886,7.15372549 C1.79056009,7.15372549 1.51689845,7.27182845 1.3151264,7.48205305 C1.11335435,7.69227766 1,7.97740342 1,8.2747059 L1,14.1041177 C1,14.7231732 1.48174385,15.2249898 2.07590886,15.2250981 L2.59146418,15.2250981 L2.59146418,19.2156863 C2.59146418,19.6480392 2.96348549,20 3.37883111,20 L16.6568588,20 C17.071828,20 17.4369001,19.6480392 17.4369001,19.2156863 L17.4369001,15.2252941 L17.9240911,15.2252941 C18.5182562,15.2251859 19,14.7233693 19,14.1043137 L19,8.27490198 C19,7.97759949 18.8866457,7.69247374 18.6848736,7.48224913 C18.4831015,7.27202453 18.2094399,7.15392157 17.9240911,7.15392157 Z M3.9501901,1.3781629 L10.9062497,1.3781629 L10.9062497,5.95516576 C10.9062497,6.05917223 10.9459049,6.15891887 11.0164916,6.23246254 C11.0870783,6.30600622 11.1828144,6.34732263 11.282639,6.34732262 L16.0418654,6.34732262 L16.0418654,7.15411765 L3.9501901,7.15411765 L3.9501901,1.3781629 Z M3.9501901,18.6218854 L3.9501901,15.2252941 L16.0418654,15.2252941 L16.0418654,18.6218854 L3.9501901,18.6218854 Z M12.2914114,1.51951183 L12.675625,1.95352728 L15.2564552,4.80720067 L15.3986362,4.98003873 L12.761691,4.98003873 C12.5625541,4.98003873 12.4365634,4.94696877 12.3837187,4.88082886 C12.330874,4.81468894 12.3001049,4.71017086 12.2914114,4.56727461 L12.2914114,1.51951183 Z M3,14.2321872 L3,8.23218716 L4.91765953,8.23218716 C5.6443552,8.23218716 6.11804601,8.2622005 6.33874618,8.32222809 C6.67787082,8.41226947 6.96181616,8.60803831 7.19059073,8.9095405 C7.41936529,9.21104269 7.53375085,9.60053402 7.53375085,10.0780262 C7.53375085,10.4463773 7.46781094,10.7560604 7.33592913,11.0070848 C7.20404733,11.2581093 7.03650612,11.4552424 6.83330048,11.59849 C6.63009484,11.7417377 6.42352796,11.8365526 6.21359366,11.8829375 C5.92829832,11.9402366 5.51516458,11.9688857 4.97418002,11.9688857 L4.19500468,11.9688857 L4.19500468,14.2321872 L3,14.2321872 Z M4.19500468,9.24719398 L4.19500468,10.9497861 L4.84902751,10.9497861 C5.32003396,10.9497861 5.63493069,10.9184085 5.79372715,10.8556524 C5.95252361,10.7928963 6.07700202,10.6946708 6.16716611,10.560973 C6.2573302,10.4272752 6.30241157,10.2717515 6.30241157,10.0943973 C6.30241157,9.87611513 6.23916309,9.69603507 6.11266421,9.55415169 C5.98616533,9.41226831 5.82602554,9.32359252 5.63224003,9.28812168 C5.48959236,9.26083641 5.2029556,9.24719398 4.77232113,9.24719398 L4.19500468,9.24719398 Z M8.23514316,8.23218716 L10.4192564,8.23218716 C10.9117946,8.23218716 11.2872484,8.27038596 11.5456291,8.34678471 C11.8928281,8.45046872 12.1902306,8.6346415 12.4378454,8.89930858 C12.6854602,9.16397566 12.87386,9.48798333 13.0030503,9.87134132 C13.1322407,10.2546993 13.1968349,10.7274095 13.1968349,11.2894859 C13.1968349,11.7833492 13.1362778,12.208993 13.0151619,12.56643 C12.8671313,13.0029943 12.6558544,13.3563332 12.3813249,13.6264573 C12.1740821,13.8310968 11.8941739,13.9907132 11.5415919,14.1053113 C11.2778283,14.1898956 10.9252516,14.2321872 10.4838513,14.2321872 L8.23514316,14.2321872 L8.23514316,8.23218716 Z M9.43014784,9.24719398 L9.43014784,13.2212731 L10.3223642,13.2212731 C10.6561059,13.2212731 10.8969884,13.2021737 11.045019,13.1639743 C11.2388045,13.1148609 11.3996172,13.031642 11.5274618,12.9143154 C11.6553064,12.7969888 11.7595991,12.6039484 11.8403431,12.3351885 C11.921087,12.0664287 11.9614584,11.7001295 11.9614584,11.2362799 C11.9614584,10.7724304 11.921087,10.416363 11.8403431,10.1680671 C11.7595991,9.91977119 11.6465593,9.7260487 11.5012201,9.58689385 C11.355881,9.44773899 11.1715184,9.35360623 10.9481268,9.30449275 C10.7812559,9.26629338 10.4542478,9.24719398 9.96709251,9.24719398 L9.43014784,9.24719398 Z M13.9426361,14.2321872 L13.9426361,8.23218716 L18,8.23218716 L18,9.24719398 L15.1376408,9.24719398 L15.1376408,10.667385 L17.6083937,10.667385 L17.6083937,11.6823918 L15.1376408,11.6823918 L15.1376408,14.2321872 L13.9426361,14.2321872 Z"/>
</svg>
