<svg xmlns="http://www.w3.org/2000/svg" width="24" height="24" viewBox="0 0 24 24">
  <g fill="none" fill-rule="evenodd" transform="translate(-744 -840)">
    <path fill="#555" fill-rule="nonzero" d="M17.1341537,18.0001875 L13.4827724,18.0001875 L13.4827724,14.3440518 C13.4827724,14.1095591 13.4008816,13.9103153 13.2371,13.7463204 C13.0733184,13.5823256 12.8743337,13.5003281 12.6401459,13.5003281 C12.4059582,13.5003281 12.2069735,13.5823256 12.0431919,13.7463204 C11.8794103,13.9103153 11.7975195,14.1095591 11.7975195,14.3440518 L11.7975195,18.0001875 L8.33338847,18.0001875 C8.09920073,18.0001875 7.90021605,18.0821849 7.73643443,18.2461798 C7.57265281,18.4101747 7.49076201,18.6094185 7.49076201,18.8439111 C7.49076201,19.0784038 7.57265281,19.2776476 7.73643443,19.4416425 C7.90021605,19.6056373 8.09920073,19.6876348 8.33338847,19.6876348 L11.7975195,19.6876348 L11.7975195,23.1562764 C11.7975195,23.390769 11.8794103,23.5900128 12.0431919,23.7540077 C12.2069735,23.9180026 12.4059582,24 12.6401459,24 C12.8743337,24 13.0733184,23.9180026 13.2371,23.7540077 C13.4008816,23.5900128 13.4827724,23.390769 13.4827724,23.1562764 L13.4827724,19.6876348 L17.1341537,19.6876348 C17.3683415,19.6876348 17.5673262,19.6056373 17.7311078,19.4416425 C17.8948894,19.2776476 17.9767802,19.0784038 17.9767802,18.8439111 C17.9767802,18.6094185 17.8948894,18.4101747 17.7311078,18.2461798 C17.5673262,18.0821849 17.3683415,18.0001875 17.1341537,18.0001875 Z M17.4854354,7.07902877 L10.9781121,0.493484578 C10.8842372,0.399487516 10.7671434,0.313490203 10.6268304,0.235492641 C10.5953724,0.203993625 10.564164,0.188244117 10.5332053,0.188244117 C10.5177259,0.172744602 10.4942572,0.156995094 10.4627992,0.140995594 C10.2440908,0.0469985312 10.0178924,0 9.78420399,0 L1.68525293,0 C1.21687745,0 0.818908088,0.163994875 0.491344853,0.491984625 C0.163781618,0.819974375 0,1.21846192 0,1.68744727 L0,22.3118028 C0,22.7807881 0.163781618,23.1792756 0.491344853,23.5072654 C0.818908088,23.8352551 1.21687745,23.99925 1.68525293,23.99925 L6.64738654,23.99925 C6.88157428,23.99925 7.08055896,23.9172526 7.24434058,23.7532577 C7.4081222,23.5892628 7.490013,23.3900191 7.490013,23.1555264 C7.490013,22.9210337 7.4081222,22.7217899 7.24434058,22.5577951 C7.08055896,22.3938002 6.88157428,22.3118028 6.64738654,22.3118028 L1.68525293,22.3118028 L1.68525293,1.68744727 L8.9880156,1.68744727 L8.9880156,7.31227148 C8.9880156,7.78125683 9.15179722,8.17974438 9.47936046,8.50773412 C9.80692369,8.83572388 10.2048931,8.99971875 10.6732685,8.99971875 L16.2907783,8.99971875 L16.2907783,12.6558545 C16.2907783,12.8903472 16.3726691,13.089591 16.5364507,13.2535858 C16.7002323,13.4175807 16.899217,13.4995781 17.1334047,13.4995781 C17.3675925,13.4995781 17.5665772,13.4175807 17.7303588,13.2535858 C17.8941404,13.089591 17.9760312,12.8903472 17.9760312,12.6558545 L17.9760312,8.24974219 C17.9760312,7.79675634 17.8122496,7.40601855 17.4846864,7.07752882 L17.4854354,7.07902877 Z M10.6740175,7.31302146 L10.6740175,2.57841942 L15.3552757,7.31302146 L10.6740175,7.31302146 Z" transform="translate(748 840)"/>
  </g>
</svg>
