<svg xmlns="http://www.w3.org/2000/svg" width="24" height="24" viewBox="0 0 24 24">
  <g fill="none" fill-rule="evenodd" transform="translate(-744 -840)">
    <path fill="#555" fill-rule="nonzero" d="M20.2506834,17.500775 L17.0036447,17.500775 L17.0036447,14.1496848 C17.0036447,13.9347567 16.9308222,13.7521366 16.7851773,13.6018245 C16.6395323,13.4515123 16.4625826,13.3763563 16.2543281,13.3763563 C16.0460736,13.3763563 15.8691239,13.4515123 15.7234789,13.6018245 C15.577834,13.7521366 15.5050115,13.9347567 15.5050115,14.1496848 L15.5050115,17.500775 L12.4244876,17.500775 C12.2162331,17.500775 12.0392834,17.5759311 11.8936384,17.7262432 C11.7479935,17.8765554 11.675171,18.0591755 11.675171,18.2741035 C11.675171,18.4890316 11.7479935,18.6716517 11.8936384,18.8219638 C12.0392834,18.972276 12.2162331,19.047432 12.4244876,19.047432 L15.5050115,19.047432 L15.5050115,22.2266715 C15.5050115,22.4415995 15.577834,22.6242196 15.7234789,22.7745318 C15.8691239,22.9248439 16.0460736,23 16.2543281,23 C16.4625826,23 16.6395323,22.9248439 16.7851773,22.7745318 C16.9308222,22.6242196 17.0036447,22.4415995 17.0036447,22.2266715 L17.0036447,19.047432 L20.2506834,19.047432 C20.4589379,19.047432 20.6358876,18.972276 20.7815326,18.8219638 C20.9271775,18.6716517 21,18.4890316 21,18.2741035 C21,18.0591755 20.9271775,17.8765554 20.7815326,17.7262432 C20.6358876,17.5759311 20.4589379,17.500775 20.2506834,17.500775 Z M20.8359582,6.5301877 L16.2743459,1.52876785 L15.7749027,1.00241261 L5.45084765,1.00241261 C5.25730238,1.00241261 5.04360703,0.990300046 4.85412451,1.02035498 C4.63584103,1.05497821 4.44486171,1.14313766 4.2743481,1.3303338 C3.95581895,1.68002689 4.00302862,2.11921356 4.00302862,2.54906964 L4.00302862,21.4526556 C4.00302862,21.8825117 3.95141299,22.347971 4.2743481,22.6736418 C4.59728322,22.9993126 4.8136059,22.9993126 5.23011493,22.9993126 L10.9251883,22.9993126 C11.1334428,22.9993126 11.3103926,22.9241565 11.4560375,22.7738444 C11.6016825,22.6235322 11.6745049,22.4409121 11.6745049,22.2259841 C11.6745049,22.011056 11.6016825,21.8284359 11.4560375,21.6781238 C11.3103926,21.5278116 11.1334428,21.4526556 10.9251883,21.4526556 L5.52428237,21.4526556 L5.51732119,2.50072241 L13.7620619,2.50072241 L13.7620619,6.45310876 C13.7620619,6.88296485 13.934703,7.27052385 14.2059579,7.54882934 C14.4772127,7.82713483 14.8511472,7.99976579 15.2676563,7.99976579 L19.5007007,7.99976579 L19.5007007,12.6023403 C19.5007007,12.8172684 19.5735232,12.9998885 19.7191681,13.1502006 C19.8648131,13.3005128 20.0417628,13.3756689 20.2500173,13.3756689 C20.4582718,13.3756689 20.6352216,13.3005128 20.7808665,13.1502006 C20.9265115,12.9998885 20.9993339,12.8172684 20.9993339,12.6023403 L20.9993339,7.02291418 C20.9995273,6.96849145 20.9997493,6.86613724 21,6.71585154 L20.8359582,6.5301877 Z M15.354233,6.34020609 C15.307226,6.28202562 15.2785891,6.17940118 15.2683223,6.03233275 L15.2683223,2.6735116 L18.7353983,6.45379616 L15.6279206,6.45379616 C15.4924692,6.43624992 15.40124,6.39838656 15.354233,6.34020609 Z" transform="translate(744 840)"/>
  </g>
</svg>
