<svg xmlns="http://www.w3.org/2000/svg" width="24" height="24" viewBox="0 0 24 24">
  <path fill="#555" d="M19.3388383,17.0007046 L16.4738042,17.0007046 L16.4738042,13.9542589 C16.4738042,13.7588698 16.409549,13.5928515 16.2810388,13.4562041 C16.1525285,13.3195567 15.9963964,13.251233 15.8126424,13.251233 C15.6288885,13.251233 15.4727563,13.3195567 15.3442461,13.4562041 C15.2157358,13.5928515 15.1514807,13.7588698 15.1514807,13.9542589 L15.1514807,17.0007046 L12.4333714,17.0007046 C12.2496174,17.0007046 12.0934853,17.0690283 11.9649751,17.2056757 C11.8364648,17.3423231 11.7722097,17.5083413 11.7722097,17.7037305 C11.7722097,17.8991196 11.8364648,18.0651379 11.9649751,18.2017853 C12.0934853,18.3384327 12.2496174,18.4067564 12.4333714,18.4067564 L15.1514807,18.4067564 L15.1514807,21.2969741 C15.1514807,21.4923632 15.2157358,21.6583815 15.3442461,21.7950289 C15.4727563,21.9316763 15.6288885,22 15.8126424,22 C15.9963964,22 16.1525285,21.9316763 16.2810388,21.7950289 C16.409549,21.6583815 16.4738042,21.4923632 16.4738042,21.2969741 L16.4738042,18.4067564 L19.3388383,18.4067564 C19.5225923,18.4067564 19.6787244,18.3384327 19.8072346,18.2017853 C19.9357449,18.0651379 20,17.8991196 20,17.7037305 C20,17.5083413 19.9357449,17.3423231 19.8072346,17.2056757 C19.6787244,17.0690283 19.5225923,17.0007046 19.3388383,17.0007046 Z M19.8552572,7.02744336 L15.8303052,2.48069804 L15.38962,2.00219329 L6.28015969,2.00219329 C6.10938445,2.00219329 5.92082973,1.99118186 5.75363927,2.01850453 C5.5610362,2.04998019 5.39252504,2.13012514 5.24207186,2.30030346 C4.96101672,2.61820627 5.00267232,3.01746687 5.00267232,3.40824513 L5.00267232,20.5933232 C5.00267232,20.9841015 4.95712911,21.4072464 5.24207186,21.7033107 C5.5270146,21.9993751 5.71788756,21.9993751 6.08539553,21.9993751 L11.1104603,21.9993751 C11.2942143,21.9993751 11.4503464,21.9310514 11.5788566,21.794404 C11.7073669,21.6577566 11.771622,21.4917383 11.771622,21.2963492 C11.771622,21.10096 11.7073669,20.9349418 11.5788566,20.7982944 C11.4503464,20.6616469 11.2942143,20.5933232 11.1104603,20.5933232 L6.34495503,20.5933232 L6.33881281,3.3642931 L13.613584,3.3642931 L13.613584,6.9573716 C13.613584,7.34814986 13.7659145,7.70047623 14.005257,7.95348122 C14.2445995,8.20648621 14.5745417,8.36342345 14.9420496,8.36342345 L18.6770889,8.36342345 L18.6770889,12.5475821 C18.6770889,12.7429713 18.741344,12.9089895 18.8698542,13.0456369 C18.9983645,13.1822844 19.1544966,13.2506081 19.3382506,13.2506081 C19.5220046,13.2506081 19.6781367,13.1822844 19.8066469,13.0456369 C19.9351572,12.9089895 19.9994123,12.7429713 19.9994123,12.5475821 L19.9994123,7.47537652 C19.9995829,7.42590132 19.9997788,7.33285203 20,7.19622867 L19.8552572,7.02744336 Z M15.0184409,6.85473281 C14.9769641,6.80184148 14.9516963,6.70854652 14.9426373,6.57484796 L14.9426373,3.52137418 L18.001822,6.95799651 L15.2599299,6.95799651 C15.140414,6.94204538 15.0599177,6.90762414 15.0184409,6.85473281 Z"/>
</svg>
