<svg xmlns="http://www.w3.org/2000/svg" width="24" height="24" viewBox="0 0 24 24">
  <path fill="#555" d="M10.3975826,16.6045785 L11.7206915,17.7481409 C12.0108962,17.9989646 12.0444149,18.4394138 11.7955578,18.7319118 C11.5467006,19.0244098 11.1097047,19.0581934 10.8195,18.8073697 L9.25478248,17.4549851 C9.10142726,17.3224403 9.01317389,17.1289858 9.01317389,16.9253707 L9.01317389,9.93828102 L3.17082654,3.15503282 C2.78180316,2.70335784 3.10011445,2 3.69354765,2 L20.3064518,2 C20.9000823,2 21.2183221,2.70376359 20.8288983,3.1553514 L14.9794764,9.93852148 L14.9794764,21.3023256 C14.9794764,21.6876405 14.6695659,22 14.287272,22 C13.9049781,22 13.5950677,21.6876405 13.5950677,21.3023256 L13.5950677,9.67770086 C13.5950677,9.50950502 13.6553535,9.34697097 13.7648255,9.22002387 L18.7876956,3.39534884 L5.21108757,3.39534884 L10.2280993,9.22034245 C10.3374007,9.34724658 10.3975826,9.50965028 10.3975826,9.67770086 L10.3975826,16.6045785 Z"/>
</svg>
