<svg xmlns="http://www.w3.org/2000/svg" width="24" height="24" viewBox="0 0 24 24">
  <g fill="none" fill-rule="evenodd" transform="translate(-720 -720)">
    <path fill="#555" fill-rule="nonzero" d="M13.7332591,23.9868382 C13.2281245,23.9868382 12.8200097,23.5743896 12.8200097,23.0641712 L12.8200097,9.22499196 C12.8200097,8.99625724 12.9040445,8.77577316 13.0556448,8.60699293 L19.0143061,1.84615899 L2.95085617,1.84615901 L8.92149517,8.61150329 C9.07031879,8.78042102 9.15250251,8.99906247 9.15250251,9.22600956 L9.15250251,17.5517388 L10.6034715,18.7382331 C10.9962875,19.0591273 11.0566118,19.6395035 10.7387385,20.0353683 C10.4209468,20.4310956 9.8464229,20.4920126 9.4547503,20.1718611 L7.66489247,18.7086959 C7.45030008,18.5342503 7.32603086,18.2694604 7.32603086,17.9918545 L7.32603091,9.57649591 L0.231388417,1.53700822 C-0.00797613154,1.26589279 -0.0671843564,0.87734357 0.0798153606,0.545256054 C0.226815078,0.213993622 0.553698925,0 0.913494374,0 L21.0709412,0 C21.4325605,0 21.7594171,0.214928681 21.905573,0.548061259 C22.0516471,0.881138822 21.9904517,1.27037563 21.7484194,1.54083099 L14.6463724,9.57932864 L14.6463724,23.0641713 C14.6463724,23.5743896 14.2382576,23.9868382 13.7332591,23.9868382 L13.7332591,23.9868382 Z" transform="translate(721 720)"/>
  </g>
</svg>
