<svg xmlns="http://www.w3.org/2000/svg" width="24" height="24" viewBox="0 0 24 24">
  <g fill="none" fill-rule="evenodd" transform="translate(-648 -792)">
    <path fill="#555" fill-rule="nonzero" d="M9.21953619,17.0650363 L10.6896572,18.3229549 C11.0121068,18.598861 11.0493499,19.0833552 10.772842,19.405103 C10.496334,19.7268508 10.010783,19.7640128 9.68833334,19.4881067 L7.94975832,18.0004836 C7.77936362,17.8546843 7.68130433,17.6418844 7.68130433,17.4179078 L7.68130433,9.73210913 L1.18980727,2.27053611 C0.757559067,1.77369363 1.11123828,1 1.7706085,1 L20.2293909,1 C20.8889803,1 21.2425801,1.77413995 20.809887,2.27088654 L14.3105293,9.73237362 L14.3105293,22.2325581 C14.3105293,22.6564046 13.9661844,23 13.5414134,23 C13.1166424,23 12.7722974,22.6564046 12.7722974,22.2325581 L12.7722974,9.44547094 C12.7722974,9.26045552 12.8392817,9.08166807 12.9609172,8.94202626 L18.541884,2.53488372 L3.45676397,2.53488372 L9.03122149,8.9423767 C9.1526674,9.08197123 9.21953619,9.26061531 9.21953619,9.44547094 L9.21953619,17.0650363 Z" transform="translate(649 792)"/>
  </g>
</svg>
