<svg xmlns="http://www.w3.org/2000/svg" width="24" height="24" viewBox="0 0 24 24">
  <g fill="none" fill-rule="evenodd" transform="translate(-168 -1152)">
    <path fill="#555" fill-rule="nonzero" d="M22.9683225,8.78467739 L22.7135676,10.3740595 C22.7135676,10.3740595 22.3492548,7.4314565 21.9031037,6.33150995 C21.2189174,4.64586648 20.9144434,4.65955698 20.9126834,4.66212395 C21.3711543,5.79458545 21.287996,6.40295728 21.287996,6.40295728 C21.287996,6.40295728 20.4762121,4.25140879 18.3294949,3.56688352 C15.9513423,2.80877179 14.6648079,3.01626851 14.5165308,3.05520088 C14.4940913,3.05520088 14.4720917,3.05520088 14.4514121,3.05520088 C14.4690118,3.05648437 14.4861714,3.05819568 14.5033311,3.05947917 C14.5024511,3.05990699 14.5015711,3.06033482 14.5015711,3.06076265 C14.5112509,3.07231402 17.1291988,3.50570408 17.5933896,4.1260551 C17.5933896,4.1260551 16.4815317,4.1260551 15.3745137,4.43623061 C15.3243547,4.45034895 19.4461927,4.93678972 20.2887759,8.94169037 C20.2887759,8.94169037 19.8369049,8.02528217 19.278116,7.86955267 C19.6455087,8.95666436 19.5513506,11.0192246 19.2011175,12.0443012 C19.1562384,12.1760723 19.1100393,11.4744339 18.4205731,11.1719593 C18.6414487,12.7104298 18.4073733,15.1507624 17.3095952,15.8228806 C17.2242369,15.8750757 17.9977415,13.4142073 17.4653521,14.3656975 C14.3994932,18.936615 10.7752853,16.474891 9.14555779,15.3916297 C9.98066115,15.5683228 11.5659496,15.3642487 12.2672956,14.8564165 C12.2681756,14.8559887 12.2690556,14.855133 12.2699356,14.8547052 C13.0320004,14.3481565 13.4829914,13.978085 13.8882233,14.0657898 C14.2938953,14.1539225 14.5636099,13.7581813 14.2485762,13.4069343 C13.9331024,13.0552594 13.1675177,12.5718134 12.1317783,12.8353557 C11.4013929,13.021461 10.4963309,13.8073816 9.11431841,13.0116209 C8.05393952,12.4006821 7.95406151,11.8928499 7.94438171,11.5416029 C7.97034119,11.4171049 8.00334053,11.3007356 8.04249975,11.1942063 C8.16437733,10.8626394 8.53484995,10.7625276 8.74076585,10.6838072 C9.09011889,10.7419918 9.3910729,10.8480932 9.7069866,11.0055341 C9.71094653,10.9032831 9.7122665,10.7676615 9.70654661,10.6136433 C9.73690601,10.5550309 9.71798639,10.3787656 9.66958735,10.1627123 C9.64142791,9.94751469 9.59610881,9.72461615 9.52439024,9.52139771 C9.52483023,9.52139771 9.52483023,9.52139771 9.52483023,9.52096988 C9.52615021,9.52054205 9.52703019,9.52011422 9.52835016,9.5196864 C9.53011013,9.51883074 9.5314301,9.51754725 9.53275007,9.51583594 C9.53319007,9.51540811 9.53319007,9.51498028 9.53363006,9.51455246 C9.53539002,9.51198549 9.53714999,9.50899069 9.53802997,9.50471241 C9.56002953,9.40845104 9.79630483,9.22234573 10.090659,9.02212209 C10.3542137,8.84286204 10.6644075,8.65247844 10.9086027,8.50487768 C11.1246384,8.37439005 11.2891951,8.27770086 11.3243944,8.25203116 C11.3375941,8.24219111 11.3534338,8.23106758 11.3710335,8.2178049 C11.3741134,8.21523793 11.3776333,8.21309879 11.3807133,8.21053182 C11.3829132,8.2088205 11.3846732,8.20753702 11.3868732,8.20582571 C11.5030308,8.11598176 11.6763874,7.9457061 11.7129067,7.58804165 C11.7129067,7.58718599 11.7129067,7.58633034 11.7133466,7.58547468 C11.7142266,7.57477897 11.7151066,7.56408327 11.7159866,7.55338756 C11.7164266,7.54568665 11.7168666,7.53841357 11.7177466,7.53028483 C11.7181866,7.52429524 11.7186265,7.51830564 11.7186265,7.51231604 C11.7190665,7.49819771 11.7195065,7.48365155 11.7199465,7.46910539 C11.7199465,7.46824973 11.7199465,7.46739407 11.7199465,7.46653842 C11.7203865,7.43188432 11.7199465,7.39594675 11.7177466,7.35787003 C11.7164266,7.33647861 11.7151066,7.31765417 11.7111467,7.30011321 C11.7111467,7.29925755 11.7107067,7.2984019 11.7107067,7.29711841 C11.7102667,7.2954071 11.7098267,7.29369579 11.7093867,7.29198447 C11.7085067,7.28898967 11.7076268,7.28599488 11.7067468,7.28300008 C11.7067468,7.28257225 11.7067468,7.28214442 11.7063068,7.28214442 C11.7049868,7.27872179 11.7041068,7.275727 11.7027869,7.27230437 C11.7027869,7.27230437 11.7027869,7.27230437 11.7027869,7.27187654 C11.6649476,7.18588306 11.5241504,7.15379593 10.941162,7.14395588 C10.940722,7.14395588 10.940282,7.14395588 10.9394021,7.14395588 C10.7018068,7.14010543 10.390733,7.14010543 9.9833011,7.14138891 C9.26875533,7.14438371 8.87408319,6.46242541 8.7482457,6.19845535 C8.92116225,5.26964013 9.42011232,4.60778976 10.240256,4.15899788 C10.2556557,4.15044131 10.2525757,4.14359606 10.2345361,4.13846212 C10.3946929,4.0443399 8.29549471,4.13589515 7.33015394,5.32996392 C6.47305101,5.12289502 5.72638588,5.13701336 5.0826787,5.28375846 C4.95904116,5.28033584 4.80504422,5.26536185 4.62200787,5.22856861 C4.1938964,4.85122406 3.5809886,4.1547196 3.54842925,3.32302139 C3.54842925,3.32302139 3.54666928,3.32473271 3.54314935,3.32729968 C3.54270936,3.31917094 3.54182938,3.31147003 3.54138939,3.30334129 C3.54138939,3.30334129 2.23681537,4.27836197 2.43217148,6.9356035 C2.43173149,6.9779585 2.43085151,7.01903002 2.42953153,7.05839022 C2.07665856,7.52386741 1.90154205,7.9153303 1.88834231,8.00175161 C1.57550854,8.62081915 1.25827486,9.553057 1,10.9678852 C1,10.9678852 1.1808364,10.4108527 1.54338918,9.779806 C1.27675449,10.5742831 1.06731866,11.8094234 1.19007621,13.6623478 C1.19007621,13.6623478 1.22263557,13.2516326 1.33791327,12.6599461 C1.42767148,13.8090929 1.82190363,15.2277715 2.81716381,16.8963018 C4.72804576,20.0990244 7.66542726,21.7166432 10.9121226,21.9643558 C11.4885111,22.0105612 12.0732595,22.0118447 12.6615278,21.9682062 C12.7156467,21.9643558 12.7697656,21.9605053 12.8238845,21.9562271 C13.4891513,21.9108773 14.1588179,21.8129046 14.8271646,21.6563194 C23.9613827,19.5090492 22.9683225,8.78382173 22.9683225,8.78382173 L22.9683225,8.78467739 Z" transform="translate(168 1152)"/>
  </g>
</svg>
