<svg xmlns="http://www.w3.org/2000/svg" width="24" height="24" viewBox="0 0 24 24">
  <g fill="none" fill-rule="evenodd" transform="translate(-168 -1152)">
    <path fill="#555" fill-rule="nonzero" d="M23.9425386,6.39533538 L23.6648898,8.15110154 C23.6648898,8.15110154 23.2678375,4.90045292 22.7815924,3.68535877 C22.0359205,1.82325415 21.7040846,1.83837785 21.7021665,1.84121354 C22.2018385,3.09222646 22.111207,3.76428554 22.111207,3.76428554 C22.111207,3.76428554 21.226471,1.38750277 18.8868358,0.631318154 C16.2949669,-0.206156308 14.8928162,0.0230621538 14.731214,0.0660701538 C14.7067579,0.0660701538 14.6827813,0.0660701538 14.6602434,0.0660701538 C14.6794246,0.067488 14.6981264,0.0693784615 14.7168281,0.0707963077 C14.715869,0.0712689231 14.71491,0.0717415385 14.71491,0.0722141538 C14.7254597,0.0849747692 17.5786733,0.563734154 18.0845793,1.24902646 C18.0845793,1.24902646 16.8728027,1.24902646 15.6663009,1.59167262 C15.6116343,1.60726892 20.1038873,2.14463262 21.0221905,6.56878523 C21.0221905,6.56878523 20.5297115,5.55644308 19.9207062,5.38441108 C20.3211152,6.58532677 20.2184954,8.86380554 19.8367881,9.996192 C19.7878759,10.1417575 19.7375251,9.36666831 18.9860989,9.03252923 C19.2268238,10.7320542 18.9717129,13.4278523 17.7752813,14.1703311 C17.6822522,14.2279902 18.5252689,11.5095065 17.9450356,12.5606031 C14.6036586,17.6100258 10.6537559,14.8905969 8.8775705,13.6939348 C9.78772168,13.8891249 11.5154744,13.6636874 12.279848,13.1026929 C12.280807,13.1022203 12.2817661,13.1012751 12.2827252,13.1008025 C13.1132741,12.5412258 13.6047941,12.1324135 14.0464428,12.2292997 C14.488571,12.3266585 14.7825239,11.8894892 14.4391792,11.501472 C14.095355,11.1129822 13.2609698,10.5789268 12.1321522,10.8700578 C11.3361296,11.0756455 10.3497328,11.94384 8.84352375,11.0647754 C7.68785233,10.3898806 7.57899863,9.82888615 7.56844894,9.44086892 C7.59674131,9.30333785 7.63270619,9.17478646 7.67538451,9.05710523 C7.80821479,8.69082831 8.21198049,8.58023631 8.43640133,8.49327508 C8.8171495,8.55755077 9.14514919,8.67475938 9.48945296,8.84868185 C9.49376874,8.73572677 9.49520734,8.58590769 9.48897342,8.41576615 C9.52206111,8.35101785 9.50144125,8.15630031 9.44869276,7.91762954 C9.41800273,7.679904 9.36861097,7.43367138 9.2904473,7.20917908 C9.29092683,7.20917908 9.29092683,7.20917908 9.29092683,7.20870646 C9.29236542,7.20823385 9.29332449,7.20776123 9.29476308,7.20728862 C9.29668121,7.20634338 9.2981198,7.20492554 9.2995584,7.20303508 C9.30003793,7.20256246 9.30003793,7.20208985 9.30051746,7.20161723 C9.30243559,7.19878154 9.30435372,7.19547323 9.30531278,7.19074708 C9.32928937,7.08440862 9.58679789,6.87882092 9.9076046,6.65763692 C10.1948441,6.45961108 10.532914,6.24929723 10.799054,6.08624492 C11.0345041,5.94209723 11.213849,5.83528615 11.2522115,5.80692923 C11.2665975,5.79605908 11.2838606,5.78377108 11.3030419,5.76912 C11.3063986,5.76628431 11.3102348,5.76392123 11.3135916,5.76108554 C11.3159892,5.75919508 11.3179074,5.75777723 11.320305,5.75588677 C11.4469014,5.65663754 11.6358369,5.46853662 11.675638,5.07343015 C11.675638,5.07248492 11.675638,5.07153969 11.6761175,5.07059446 C11.6770766,5.05877908 11.6780357,5.04696369 11.6789947,5.03514831 C11.6794743,5.02664123 11.6799538,5.01860677 11.6809129,5.00962708 C11.6813924,5.00301046 11.6818719,4.99639385 11.6818719,4.98977723 C11.6823515,4.97418092 11.682831,4.958112 11.6833105,4.94204308 C11.6833105,4.94109785 11.6833105,4.94015262 11.6833105,4.93920738 C11.68379,4.90092554 11.6833105,4.86122585 11.6809129,4.81916308 C11.6794743,4.79553231 11.6780357,4.77473723 11.6737199,4.75536 C11.6737199,4.75441477 11.6732404,4.75346954 11.6732404,4.75205169 C11.6727608,4.75016123 11.6722813,4.74827077 11.6718018,4.74638031 C11.6708427,4.743072 11.6698836,4.73976369 11.6689246,4.73645538 C11.6689246,4.73598277 11.6689246,4.73551015 11.668445,4.73551015 C11.6670064,4.73172923 11.6660474,4.72842092 11.6646088,4.72464 C11.6646088,4.72464 11.6646088,4.72464 11.6646088,4.72416738 C11.6233691,4.62917169 11.4699189,4.59372554 10.8345394,4.58285538 C10.8340599,4.58285538 10.8335803,4.58285538 10.8326213,4.58285538 L10.8326213,4.58285538 C10.5736741,4.57860185 10.2346452,4.57860185 9.79059887,4.58001969 C9.01183938,4.583328 8.58169943,3.82997908 8.44455337,3.53837538 C8.63300933,2.51232738 9.17679828,1.78119138 10.0706454,1.28541785 C10.087429,1.27596554 10.0840723,1.26840369 10.0644115,1.26273231 C10.238961,1.15875692 7.95111524,1.25989662 6.89902267,2.57896615 C5.96489491,2.35022031 5.1511296,2.36581662 4.44957471,2.52792369 C4.3148263,2.52414277 4.1469902,2.50760123 3.94750501,2.46695631 C3.48092066,2.05010954 2.812933,1.28069169 2.77744765,0.361927385 C2.77744765,0.361927385 2.77552952,0.363817846 2.77169327,0.366653538 C2.77121374,0.357673846 2.77025467,0.349166769 2.76977514,0.340187077 C2.76977514,0.340187077 1.34796363,1.41727754 1.56087571,4.35269169 C1.56039618,4.39948062 1.55943711,4.44485169 1.55799852,4.48833231 C1.17341409,5.00253785 0.982560468,5.43498092 0.968174517,5.53044923 C0.627227473,6.21432369 0.281485112,7.24415262 -1.13686838e-13,8.80709169 C-1.13686838e-13,8.80709169 0.197087532,8.19174646 0.592221659,7.49463877 C0.301625444,8.37228554 0.0733683512,9.73672615 0.207157698,11.7836234 C0.207157698,11.7836234 0.242643044,11.3299126 0.368280351,10.6762855 C0.46610482,11.9457305 0.895765229,13.5129231 1.98046595,15.3561231 C4.06307216,18.8941218 7.26442583,20.6810806 10.8028903,20.9547249 C11.4310768,21.0057674 12.0683745,21.0071852 12.7095084,20.9589785 C12.7684908,20.9547249 12.8274732,20.9504714 12.8864556,20.9457452 C13.6115075,20.895648 14.3413548,20.7874191 15.0697634,20.6144418 C25.0248417,18.2423852 23.9425386,6.39439015 23.9425386,6.39439015 L23.9425386,6.39533538 Z" transform="translate(168 1154)"/>
  </g>
</svg>
