<svg xmlns="http://www.w3.org/2000/svg" width="24" height="24" viewBox="0 0 24 24">
  <path fill="#555" d="M21.9712023,9.17576398 L21.7396069,10.5978427 C21.7396069,10.5978427 21.4084135,7.96498739 21.0028216,6.9808247 C20.380834,5.47261737 20.1040395,5.48486677 20.1024395,5.48716354 C20.5192312,6.50041856 20.4436327,7.04475125 20.4436327,7.04475125 C20.4436327,7.04475125 19.7056474,5.11968155 17.7540863,4.50721157 C15.5921293,3.82890107 14.4225526,4.01455603 14.2877553,4.04939026 C14.2673557,4.04939026 14.2473561,4.04939026 14.2285565,4.04939026 C14.2445562,4.05053865 14.2601558,4.05206982 14.2757555,4.0532182 C14.2749556,4.053601 14.2741556,4.05398379 14.2741556,4.05436658 C14.2829554,4.06470201 16.662908,4.45247207 17.0848996,5.00752299 C17.0848996,5.00752299 16.0741197,5.00752299 15.0677398,5.28504844 C15.0221407,5.29768064 18.769266,5.73291712 19.5352508,9.31624928 C19.5352508,9.31624928 19.124459,8.4963051 18.6164691,8.35696818 C18.9504624,9.32964706 18.8648641,11.1750957 18.5464705,12.0922695 C18.5056713,12.2101699 18.4636721,11.5823882 17.8368846,11.311753 C18.0376806,12.6882793 17.8248849,14.8717348 16.8269047,15.4731037 C16.7493063,15.5198046 17.4524923,13.317975 16.9685019,14.1693083 C14.1813574,18.2590765 10.886623,16.0564814 9.40505253,15.0872476 C10.1642374,15.2453415 11.6054087,15.0627488 12.242996,14.6083727 C12.243796,14.6079899 12.244596,14.6072243 12.245396,14.6068415 C12.9381822,14.1536137 13.348174,13.8224971 13.7165667,13.9009699 C14.0853593,13.9798254 14.3305544,13.6257412 14.0441601,13.3114675 C13.7573659,12.9968111 13.0613797,12.5642541 12.1197985,12.8000551 C11.4558117,12.9665703 10.6330281,13.6697624 9.3766531,12.9577661 C8.41267229,12.4111366 8.3218741,11.9567605 8.31307428,11.6424868 C8.33667381,11.5310938 8.36667321,11.4269739 8.4022725,11.3316583 C8.5130703,11.0349932 8.84986359,10.9454194 9.03705986,10.8749854 C9.35465354,10.9270453 9.62824809,11.0219782 9.91544237,11.1628463 C9.9190423,11.0713586 9.92024227,10.9500129 9.91504238,10.8122072 C9.94264183,10.7597645 9.92544217,10.6020534 9.88144305,10.4087426 C9.85584355,10.2161974 9.81464438,10.0167618 9.74944567,9.83493479 C9.74984567,9.83493479 9.74984567,9.83493479 9.74984567,9.834552 C9.75104564,9.8341692 9.75184563,9.83378641 9.7530456,9.83340362 C9.75464557,9.83263803 9.75584555,9.83148965 9.75704552,9.82995847 C9.75744551,9.82957568 9.75744551,9.82919289 9.75784551,9.82881009 C9.75944547,9.82651333 9.76104544,9.82383377 9.76184543,9.82000584 C9.78184503,9.73387725 9.99664075,9.56736197 10.2642354,9.3882145 C10.5038307,9.22782393 10.785825,9.05748071 11.0078206,8.92541687 C11.2042167,8.80866479 11.3538137,8.7221534 11.3858131,8.69918578 C11.3978128,8.69038152 11.4122126,8.68042888 11.4282122,8.66856228 C11.4310122,8.66626552 11.4342121,8.66435155 11.4370121,8.66205478 C11.439012,8.66052361 11.440612,8.65937523 11.442612,8.65784405 C11.5482099,8.57745737 11.7058067,8.42510546 11.7390061,8.1050899 C11.7390061,8.10432431 11.7390061,8.10355872 11.739406,8.10279314 C11.740206,8.09322329 11.741006,8.08365345 11.741806,8.07408361 C11.742206,8.06719332 11.742606,8.06068582 11.743406,8.05341274 C11.743806,8.04805363 11.7442059,8.04269452 11.7442059,8.03733541 C11.7446059,8.02470321 11.7450059,8.01168823 11.7454059,7.99867324 C11.7454059,7.99790765 11.7454059,7.99714206 11.7454059,7.99637648 C11.7458059,7.96537018 11.7454059,7.93321551 11.743406,7.89914687 C11.742206,7.88000718 11.741006,7.86316426 11.7374061,7.84746971 C11.7374061,7.84670413 11.7370061,7.84593854 11.7370061,7.84479016 C11.7366061,7.84325898 11.7362061,7.84172781 11.7358061,7.84019663 C11.7350061,7.83751708 11.7342061,7.83483752 11.7334062,7.83215796 C11.7334062,7.83177517 11.7334062,7.83139238 11.7330062,7.83139238 C11.7318062,7.82833003 11.7310062,7.82565047 11.7298062,7.82258812 C11.7298062,7.82258812 11.7298062,7.82258812 11.7298062,7.82220533 C11.6954069,7.74526379 11.5674095,7.71655426 11.03742,7.70775 C11.03702,7.70775 11.03662,7.70775 11.0358201,7.70775 C10.8198244,7.70430486 10.53703,7.70430486 10.1666374,7.70545324 C9.5170503,7.70813279 9.15825745,7.09795958 9.04385973,6.86177584 C9.20105659,6.03073064 9.65464756,5.43854873 10.4002327,5.0369981 C10.4142324,5.02934223 10.4114325,5.02321753 10.3950328,5.018624 C10.5406299,4.93440938 8.63226792,5.01632724 7.7546854,6.08470456 C6.97550092,5.89943239 6.29671443,5.91206458 5.71152609,6.04336284 C5.59912833,6.04030049 5.45913111,6.0269027 5.29273443,5.99398244 C4.90354218,5.65635837 4.34635327,5.03317017 4.31675386,4.28901914 C4.31675386,4.28901914 4.31515389,4.29055032 4.31195396,4.29284708 C4.31155397,4.285574 4.31075398,4.27868371 4.31035399,4.27141063 C4.31035399,4.27141063 3.12437761,5.14379756 3.30197407,7.52132945 C3.30157408,7.55922603 3.3007741,7.59597423 3.29957412,7.63119125 C2.97878051,8.04767084 2.81958368,8.39792711 2.80758392,8.47525144 C2.52318958,9.02915398 2.23479532,9.86326153 2,11.1291604 C2,11.1291604 2.16439673,10.630763 2.49399016,10.0661422 C2.25159499,10.7769902 2.06119878,11.8821157 2.17279656,13.5399954 C2.17279656,13.5399954 2.20239597,13.1725134 2.30719388,12.6431096 C2.38879226,13.6712936 2.74718512,14.9406376 3.6519671,16.4335332 C5.38913251,19.2991271 8.05947933,20.7464702 11.0110206,20.9681078 C11.5350101,21.0094495 12.0665995,21.0105979 12.6013889,20.971553 C12.6505879,20.9681078 12.6997869,20.9646627 12.7489859,20.9608347 C13.3537739,20.9202586 13.9625618,20.8325988 14.5701497,20.6924963 C22.8739843,18.7712546 21.9712023,9.17499839 21.9712023,9.17499839 L21.9712023,9.17576398 Z"/>
</svg>
