<svg xmlns="http://www.w3.org/2000/svg" width="20" height="20" viewBox="0 0 20 20">
  <path fill="#555" fill-rule="evenodd" d="M17.008194,14.6735658 L19.3214364,14.6990255 C19.7016945,14.7032107 20.0104307,15.0099776 20.0110181,15.3842087 C20.0116055,15.7584398 19.7038216,16.0584212 19.3235635,16.0542361 L17.0235937,16.0289224 L17.0493135,18.2925769 C17.0535658,18.6668309 16.7487718,18.9697551 16.368537,18.969177 C15.9883022,18.9685989 15.6766139,18.6647374 15.6723616,18.2904834 L15.6464933,16.0137659 L13.333251,15.9883061 C12.9529929,15.9841209 12.6442566,15.677354 12.6436692,15.3031229 C12.6430818,14.9288919 12.9508657,14.6289104 13.3311238,14.6330955 L15.6310937,14.6584092 L15.6053739,12.3947547 C15.6011216,12.0205007 15.9059156,11.7175765 16.2861504,11.7181546 C16.6663851,11.7187328 16.9780735,12.0225942 16.9823258,12.3968482 L17.008194,14.6735658 Z M9.59641799,4.98150308 L17.8605717,4.98163485 C18.6428129,4.99698951 19.2163314,5.20043579 19.5272123,5.68626374 C19.7589633,6.04843175 19.8729913,6.46848155 19.8729913,6.93151813 L19.8729913,11.3461617 C19.8729913,11.7166614 19.569671,12.0170107 19.1955064,12.0170107 C18.8213418,12.0170107 18.5180215,11.7166614 18.5180215,11.3461617 L18.5180215,6.93151813 C18.5180215,6.71422656 18.4716701,6.54347989 18.3826622,6.4043831 C18.3727842,6.38894626 18.2077741,6.33041164 17.8471444,6.32320102 L9.59641799,6.32320102 C9.25057173,6.32320102 8.93579378,6.23550395 8.67023946,6.05313091 C8.3338357,5.82210105 8.16517875,5.43807831 8.07844041,4.89479155 L7.92641871,3.78905917 C7.89448399,3.63249789 7.8345299,3.52039703 7.74373546,3.43411888 C7.68736067,3.38054829 7.57554205,3.34311108 7.37876991,3.34169794 L1.86665175,3.33958215 C1.63485396,3.35785485 1.5304651,3.40543623 1.49681745,3.45294186 C1.41431227,3.56942729 1.36283701,3.74528644 1.35496979,3.97194235 L1.35293255,16.9359505 C1.37773183,17.2518847 1.45067112,17.4351249 1.54053997,17.515828 C1.63719059,17.6026212 1.81761522,17.6583021 2.11063415,17.6583021 L11.9039596,17.6583021 C12.2781242,17.6583021 12.5814445,17.9586514 12.5814445,18.329151 C12.5814445,18.6996507 12.2781242,19 11.9039596,19 L2.11063415,19 C1.50646621,19 1.00341383,18.8447531 0.630297311,18.5096908 C0.250399025,18.1685385 0.0513824841,17.6685633 0,16.9879363 L0.000363699921,3.94996359 C0.016698266,3.45653872 0.141667876,3.02959482 0.387486948,2.68253371 C0.682163557,2.26649281 1.15826469,2.04948164 1.81288719,2 L7.38362349,2.00001722 C7.90767638,2.00373491 8.35189665,2.15246119 8.68192105,2.46606952 C8.97752579,2.74697029 9.16934854,3.10563632 9.26167742,3.56496318 L9.41877127,4.69858519 C9.45050073,4.89699148 9.48583049,4.97900444 9.44405682,4.95172491 C9.47076604,4.96937005 9.51586431,4.98150308 9.59641799,4.98150308 Z"/>
</svg>
