<svg xmlns="http://www.w3.org/2000/svg" width="24" height="24" viewBox="0 0 24 24">
  <path fill="#555" d="M11.5658905,8.33769509 C10.8939544,8.33769509 10.3221677,7.85594737 10.2185616,7.20252955 L9.98356971,5.72049378 C9.94903435,5.50268784 9.75843877,5.34210526 9.53446009,5.34210526 L3.81818182,5.34210526 C3.5671433,5.34210526 3.36363636,5.54239893 3.36363636,5.78947368 L3.36363636,19.2105263 C3.36363636,19.4576011 3.5671433,19.6578947 3.81818182,19.6578947 L20.1818182,19.6578947 C20.4328567,19.6578947 20.6363636,19.4576011 20.6363636,19.2105263 L20.6363636,8.78506352 C20.6363636,8.53798876 20.4328567,8.33769509 20.1818182,8.33769509 L11.5658905,8.33769509 Z M11.5658905,6.99558983 L20.1818182,6.99558983 C21.1859723,6.99558983 22,7.79676449 22,8.78506352 L22,19.2105263 C22,20.1988253 21.1859723,21 20.1818182,21 L3.81818182,21 C2.81402773,21 2,20.1988253 2,19.2105263 L2,5.78947368 C2,4.80117466 2.81402773,4 3.81818182,4 L9.53446009,4 C10.4303748,4 11.1927571,4.6423303 11.3308986,5.51355405 L11.5658905,6.99558983 Z"/>
</svg>
