<svg xmlns="http://www.w3.org/2000/svg" width="24" height="24" viewBox="0 0 24 24">
  <g fill="none" fill-rule="evenodd" transform="translate(-116 -884)">
    <path fill="#555" fill-rule="nonzero" d="M22.3878486,10.265625 C22.3878486,9.96732954 22.1657719,9.81818182 21.7216184,9.81818182 L8.04504387,9.81818182 C7.70983371,9.81818182 7.35157785,9.90980113 6.97027629,10.0930398 C6.58897473,10.2762784 6.28938065,10.5 6.07149404,10.7642045 L2.37580202,15.4048295 C2.22495745,15.609375 2.14953516,15.7798295 2.14953516,15.9161932 C2.14953516,16.2144886 2.37161189,16.3636363 2.81576535,16.3636363 L16.4923399,16.3636363 C16.8275501,16.3636363 17.187901,16.2698863 17.5733927,16.0823863 C17.9588844,15.8948863 18.2563834,15.6690341 18.4658898,15.4048295 L22.1615818,10.7642045 C22.3124264,10.5767045 22.3878486,10.4105114 22.3878486,10.265625 Z M8.04504387,8.18181818 L17.6990965,8.18181818 L17.6990965,6.13636365 C17.6990965,5.79545456 17.581773,5.50568183 17.3471258,5.26704546 C17.1124787,5.0284091 16.8275501,4.90909092 16.4923399,4.90909092 L9.25180045,4.90909092 C8.91659029,4.90909092 8.63166165,4.78977274 8.39701454,4.55113637 C8.16236743,4.31250001 8.04504387,4.02272728 8.04504387,3.68181819 L8.04504387,2.86363636 C8.04504387,2.52272727 7.92772032,2.23295454 7.6930732,1.99431818 C7.45842609,1.75568181 7.17349745,1.63636363 6.83828729,1.63636363 L2.81576535,1.63636363 C2.48055519,1.63636363 2.19562655,1.75568181 1.96097944,1.99431818 C1.72633233,2.23295454 1.60900877,2.52272727 1.60900877,2.86363636 L1.60900877,13.7684659 L4.82702631,9.74147726 C5.19575748,9.28977272 5.68181222,8.9169034 6.2851905,8.6228693 C6.88856879,8.32883521 7.47518657,8.18181816 8.04504385,8.18181816 L8.04504387,8.18181818 Z M23.9968574,10.265625 C23.9968574,10.7940341 23.8041116,11.3053977 23.4186199,11.7997159 L19.7103575,16.4403409 C19.3500065,16.8920454 18.8639518,17.2649148 18.2521933,17.5589489 C17.6404347,17.852983 17.053817,18 16.4923399,18 L2.81576535,18 C2.04478198,18 1.38274191,17.71875 0.829645155,17.15625 C0.2765484,16.59375 1.46654445e-08,15.9204545 0,15.1363636 L0,2.86363636 C0,2.07954545 0.276548385,1.40624999 0.829645155,0.843750006 C1.38274192,0.281250017 2.04478199,1.49147727e-08 2.81576535,0 L6.83828729,0 C7.60927067,0 8.27131073,0.281250002 8.82440749,0.843750006 C9.37750424,1.40625001 9.65405263,2.07954546 9.65405264,2.86363636 L9.65405264,3.27272726 L16.4923399,3.27272726 C17.2633233,3.27272726 17.9253634,3.55397727 18.4784601,4.11647727 C19.0315569,4.67897727 19.3081053,5.35227273 19.3081053,6.13636363 L19.3081053,8.18181816 L21.7216184,8.18181816 C22.1741522,8.18181816 22.5889747,8.28622157 22.9660862,8.49502839 C23.3431976,8.70383521 23.6239361,9.00426134 23.8083017,9.39630679 C23.9340055,9.66903406 23.9968574,9.95880679 23.9968574,10.265625 L23.9968574,10.265625 Z" transform="translate(116 887)"/>
  </g>
</svg>
