<svg xmlns="http://www.w3.org/2000/svg" width="24" height="24" viewBox="0 0 24 24">
  <path fill="#555" d="M4.28207116,6.32782681 C3.93139275,6.39061436 3.7157592,6.51654323 3.59095975,6.70187553 C3.42601097,6.94683125 3.35229976,7.2111041 3.36642402,7.54312449 L3.36642402,19.2613195 L2.00219214,18.3199344 L2.00283001,7.57182967 C1.97705486,6.99213499 2.12744434,6.45295167 2.44995845,5.97400497 C2.8067712,5.44412338 3.37895412,5.12368924 4.11578248,5.00841391 L4.22403448,5 L7.78364338,5.00089037 C8.52617637,5.03835758 9.13918702,5.3504057 9.5673719,5.91670863 C9.95383536,6.4278322 10.0393075,6.8271066 10.0514318,7.55577361 C10.0528926,7.64357156 10.0544146,7.70651435 10.0567365,7.75714322 C10.1025273,7.75681998 10.1656187,7.7543483 10.2499913,7.74771098 L15.8860925,7.74771098 L15.9870677,7.75502564 C16.5731461,7.84040977 17.0767664,8.08357289 17.475608,8.47894537 C17.9106992,8.91025215 18.1077382,9.50704635 18.0901105,10.2134944 L18.0901105,12.0119809 L16.7258786,12.0119809 L16.7260752,10.1975547 C16.7356739,9.8085356 16.6533055,9.55905711 16.5021591,9.40922534 C16.3244518,9.23306379 16.1070169,9.12340783 15.8308199,9.07550784 L10.3149536,9.07252008 C9.46062988,9.15207335 8.81082721,8.82129645 8.71389794,8.05548458 C8.69584787,7.91287583 8.69119406,7.80657387 8.68737876,7.5772749 C8.67947407,7.10220433 8.64376562,6.93539594 8.46860999,6.703741 C8.28652585,6.46292263 8.05309487,6.34409647 7.7483285,6.32782681 L4.28207116,6.32782681 Z M9.95962532,7.75388283 C9.9578122,7.75287695 9.95598635,7.7519053 9.9541486,7.75096981 C9.95476118,7.75128164 9.95580236,7.75162545 9.95730122,7.75198651 L9.95962532,7.75388283 Z M2.42788719,17.1070125 L5.8727539,13.2736483 C6.41137054,12.7157011 6.89226434,12.3338762 7.33785369,12.127461 C7.79931501,11.9136932 8.36595294,11.8198779 9.02498089,11.8322313 L20.0541929,11.8323243 C20.8851491,11.845862 21.5133485,12.1362295 21.8235275,12.7404607 C22.1178599,13.3138226 22.0344287,13.965691 21.6446869,14.6495456 L21.5904006,14.7303314 L18.7469081,18.3558964 C18.4072818,18.8040608 18.0164881,19.1739616 17.575319,19.4622577 C17.092264,19.7779256 16.4871575,19.9527498 15.7239643,20 L4.01621448,20 C3.38335385,20 2.88557293,19.8585887 2.5438181,19.5226149 C2.12327549,19.1091861 1.95504298,18.673181 2.01259256,18.1292076 C2.0484071,17.7906793 2.1820456,17.4606796 2.42788719,17.1070125 Z M20.6031488,13.3339467 C20.5530343,13.2363234 20.4008596,13.1659849 20.042777,13.1600581 L9.01197487,13.1599374 C8.53566393,13.1510962 8.1729768,13.2111445 7.92413292,13.3264192 C7.65941708,13.4490464 7.29955756,13.7347713 6.91080662,14.132703 L3.53497688,17.8817716 C3.43257155,18.0300848 3.38107021,18.1572594 3.36964886,18.2652169 C3.35499848,18.4036961 3.37308811,18.4505786 3.51328084,18.5883999 C3.55206873,18.6265317 3.71273115,18.6721732 4.01621448,18.6721732 L15.6793641,18.6735939 C16.173415,18.6420849 16.5490628,18.5335548 16.8148728,18.3598527 C17.1225687,18.1587788 17.4003536,17.8958451 17.6557597,17.5589677 L20.4741643,13.9652437 C20.6444618,13.6539559 20.6664278,13.4572147 20.6031488,13.3339467 Z"/>
</svg>
