<svg xmlns="http://www.w3.org/2000/svg" width="24" height="24" viewBox="0 0 24 24">
  <g fill="none" fill-rule="evenodd" transform="translate(-120 -888)">
    <path fill="#555" fill-rule="nonzero" d="M3.51027828,5.50487038 C3.12453203,5.57602961 2.88733512,5.71874899 2.75005573,5.92879227 C2.56861206,6.20640876 2.48752973,6.50591798 2.50306643,6.88220776 L2.50306643,20.1628288 L1.00241136,19.0959256 L1.00311301,6.91474029 C0.97476035,6.25775299 1.14018877,5.64667856 1.4949543,5.1038723 C1.88744832,4.50333983 2.51684953,4.14018114 3.32736072,4.00953576 L3.44643793,4 L7.36200772,4.00100909 C8.17879401,4.04347193 8.85310572,4.39712646 9.32410909,5.03893644 C9.7492189,5.61820983 9.84323824,6.07072081 9.85657495,6.89654343 C9.8581819,6.99604776 9.85985604,7.06738292 9.8624102,7.12476231 C9.91278,7.12439597 9.9821806,7.12159474 10.0749904,7.11407244 L16.2747017,7.11407244 L16.3857745,7.12236239 C17.0304607,7.21913108 17.584443,7.49471595 18.0231688,7.94280476 C18.5017691,8.43161911 18.718512,9.10798586 18.6991215,9.90862698 L18.6991215,11.9469117 L17.1984665,11.9469117 L17.1986828,9.89056194 C17.2092413,9.44967368 17.1186361,9.16693139 16.952375,8.99712205 C16.756897,8.79747229 16.5177186,8.67319554 16.2139019,8.61890889 L10.146449,8.61552275 C9.20669286,8.70568312 8.49190993,8.33080264 8.38528774,7.46288252 C8.36543265,7.30125927 8.36031347,7.18078372 8.35611664,6.92091155 C8.34742148,6.38249825 8.30814218,6.19344873 8.11547099,5.93090646 C7.91517843,5.65797898 7.65840435,5.52330934 7.32316135,5.50487038 L3.51027828,5.50487038 Z M9.75558785,7.12106721 C9.75359342,7.11992721 9.75158499,7.11882601 9.74956346,7.11776578 C9.7502373,7.11811919 9.7513826,7.11850885 9.75303134,7.11891805 L9.75558785,7.12106721 Z M1.4706759,17.7212808 L5.2600293,13.3768014 C5.85250759,12.7444613 6.38149077,12.3117264 6.87163906,12.0777891 C7.37924651,11.835519 8.00254823,11.7291949 8.72747898,11.7431955 L20.8596122,11.7433008 C21.773664,11.7586436 22.4646833,12.0877268 22.8058803,12.7725222 C23.1296459,13.4223322 23.0378716,14.1611165 22.6091556,14.9361517 L22.5494406,15.027709 L19.4215989,19.1366826 C19.0480099,19.6446022 18.6181369,20.0638231 18.132851,20.3905588 C17.6014904,20.7483157 16.9358732,20.9464497 16.0963607,21 L3.21783593,21 C2.52168924,21 1.97413022,20.8397339 1.59819991,20.4589636 C1.13560304,19.9904109 0.950547275,19.4962718 1.01385181,18.8797686 C1.05324781,18.4961032 1.20025017,18.1221035 1.4706759,17.7212808 Z M21.4634636,13.4451396 C21.4083378,13.3344998 21.2409456,13.2547829 20.8470547,13.2480658 L8.71317236,13.2479291 C8.18923032,13.2379091 7.79027448,13.3059638 7.51654622,13.4366084 C7.22535879,13.5755859 6.82951331,13.8994074 6.40188728,14.3503968 L2.68847457,18.5993412 C2.57582871,18.7674294 2.51917723,18.9115606 2.50661375,19.0339125 C2.49049833,19.1908556 2.51039693,19.2439891 2.66460892,19.4001866 C2.70727561,19.4434026 2.88400426,19.4951296 3.21783593,19.4951296 L16.0473005,19.4967398 C16.5907565,19.4610296 17.0039691,19.3380288 17.29636,19.1411664 C17.6348255,18.9132827 17.9403889,18.6152911 18.2213356,18.2334967 L21.3215808,14.1606095 C21.508908,13.8078167 21.5330706,13.5848433 21.4634636,13.4451396 Z" transform="translate(120 888)"/>
  </g>
</svg>
