<svg xmlns="http://www.w3.org/2000/svg" width="24" height="24" viewBox="0 0 24 24">
  <g fill="none" fill-rule="evenodd" transform="translate(-168 -888)">
    <path fill="#555" fill-rule="nonzero" d="M23.1344078,13.8303001 L19.4817249,13.8303001 L19.4817249,10.0848019 C19.4817249,9.84457783 19.3998049,9.64046419 19.2359649,9.47246098 C19.0721249,9.30445778 18.8730693,9.22045618 18.638798,9.22045618 C18.4045268,9.22045618 18.2054712,9.30445778 18.0416312,9.47246098 C17.8777912,9.64046419 17.7958712,9.84457783 17.7958712,10.0848019 L17.7958712,13.8303001 L14.3305054,13.8303001 C14.0962341,13.8303001 13.8971785,13.9143017 13.7333385,14.0823049 C13.5694985,14.2503081 13.4875785,14.4544218 13.4875785,14.6946459 C13.4875785,14.9348699 13.5694985,15.1389836 13.7333385,15.3069868 C13.8971785,15.47499 14.0962341,15.5589916 14.3305054,15.5589916 L17.7958712,15.5589916 L17.7958712,19.112413 C17.7958712,19.3526371 17.8777912,19.5567507 18.0416312,19.7247539 C18.2054712,19.8927571 18.4045268,19.9767587 18.638798,19.9767587 C18.8730693,19.9767587 19.0721249,19.8927571 19.2359649,19.7247539 C19.3998049,19.5567507 19.4817249,19.3526371 19.4817249,19.112413 L19.4817249,15.5589916 L23.1344078,15.5589916 C23.368679,15.5589916 23.5677346,15.47499 23.7315746,15.3069868 C23.8954146,15.1389836 23.9773346,14.9348699 23.9773346,14.6946459 C23.9773346,14.4544218 23.8954146,14.2503081 23.7315746,14.0823049 C23.5677346,13.9143017 23.368679,13.8303001 23.1344078,13.8303001 Z M22.291481,3.0739976 L11.450318,3.0739976 L10.8651395,1.20086435 C10.7557463,0.848467387 10.5526946,0.560352141 10.2559844,0.336518607 C9.95927415,0.112685074 9.62360195,0.000512204882 9.2489678,0 L1.68585366,0 C1.21731122,0 0.8192,0.168003201 0.49152,0.504009604 C0.16384,0.840016006 -1.10913988e-16,1.2482433 0,1.72869148 L0,18.2472989 C0,18.7277471 0.16384,19.1359744 0.49152,19.4719808 C0.8192,19.8079872 1.21731122,19.9759904 1.68585366,19.9759904 L12.6439024,19.9759904 C12.8781737,19.9759904 13.0772293,19.8919888 13.2410693,19.7239856 C13.4049093,19.5559824 13.4868293,19.3518687 13.4868293,19.1116447 C13.4868293,18.8714206 13.4049093,18.6673069 13.2410693,18.4993037 C13.0772293,18.3313005 12.8781737,18.2472989 12.6439024,18.2472989 L1.68585366,18.2472989 L1.68585366,4.80192077 L22.2907317,4.80192077 L22.2907317,8.35534214 C22.2907317,8.59556623 22.3726517,8.79967987 22.5364917,8.96768307 C22.7003317,9.13568627 22.8993873,9.21968788 23.1336585,9.21968788 C23.3679298,9.21968788 23.5669854,9.13568627 23.7308254,8.96768307 C23.8946654,8.79967987 23.9765854,8.59556623 23.9765854,8.35534214 L23.9765854,4.80192077 C23.9765854,4.32147259 23.8127454,3.9132453 23.4850654,3.5772389 C23.1573854,3.24123249 22.7592741,3.07322929 22.2907317,3.07322929 L22.291481,3.0739976 Z M1.68660293,3.0739976 L1.68660293,1.72945978 L9.24971707,1.72945978 L9.67155512,3.0739976 L1.6873522,3.0739976 L1.68660293,3.0739976 Z" transform="translate(168 890)"/>
  </g>
</svg>
