<svg xmlns="http://www.w3.org/2000/svg" width="24" height="24" viewBox="0 0 24 24">
  <g fill="none" fill-rule="evenodd" transform="translate(-696 -984)">
    <path fill="#555" fill-rule="nonzero" d="M11.5224795,7.84801216 C10.7833499,7.84801216 10.1543845,7.30958824 10.0404178,6.57929774 L9.78192668,4.92290481 C9.74393778,4.67947464 9.53428265,4.5 9.2879061,4.5 L3,4.5 C2.72385763,4.5 2.5,4.72385763 2.5,5 L2.5,20 C2.5,20.2761424 2.72385763,20.5 3,20.5 L21,20.5 C21.2761424,20.5 21.5,20.2761424 21.5,20 L21.5,8.34801216 C21.5,8.07186979 21.2761424,7.84801216 21,7.84801216 L11.5224795,7.84801216 Z M11.5224795,6.34801216 L21,6.34801216 C22.1045695,6.34801216 23,7.24344266 23,8.34801216 L23,20 C23,21.1045695 22.1045695,22 21,22 L3,22 C1.8954305,22 1,21.1045695 1,20 L1,5 C1,3.8954305 1.8954305,3 3,3 L9.2879061,3 C10.2734123,3 11.1120328,3.71789857 11.2639884,4.69161924 L11.5224795,6.34801216 Z" transform="translate(696 984)"/>
  </g>
</svg>
