<svg xmlns="http://www.w3.org/2000/svg" width="24" height="24" viewBox="0 0 24 24">
  <path fill="#555" d="M17.3115878,15.4217394 L17.3115878,12.0868559 C17.3115878,11.6715281 17.6476045,11.3348384 18.0621021,11.3348384 C18.4765998,11.3348384 18.8126165,11.6715281 18.8126165,12.0868559 L18.8126165,15.4217394 L22.1474999,15.4217394 C22.5628277,15.4217394 22.8995174,15.7577561 22.8995174,16.1722537 C22.8995174,16.5867514 22.5628277,16.9227681 22.1474999,16.9227681 L18.8126165,16.9227681 L18.8126165,20.2576515 C18.8126165,20.6729793 18.4765998,21.009669 18.0621021,21.009669 C17.6476045,21.009669 17.3115878,20.6729793 17.3115878,20.2576515 L17.3115878,16.9227681 L13.9767043,16.9227681 C13.5613765,16.9227681 13.2246868,16.5867514 13.2246868,16.1722537 C13.2246868,15.7577561 13.5613765,15.4217394 13.9767043,15.4217394 L17.3115878,15.4217394 Z M1.00055665,6.50488452 L1.00379304,4.47961281 C1.04293994,4.0802859 1.17417013,3.73753187 1.41678109,3.47244735 C1.68570781,3.1786094 2.06054697,3.03274027 2.55815302,3 L9.28598639,3.00174828 C9.76023071,3.03411021 10.1476939,3.15999778 10.4380715,3.41922058 C10.6862029,3.64072983 10.8693727,3.93783993 11.0073958,4.3255882 L11.4257253,5.6406079 C11.4408152,5.68804312 11.4509357,5.7358658 11.4563773,5.78351615 L22.2479825,5.78351615 C22.6633103,5.78351615 23,6.11953288 23,6.53403052 L23,10.5611175 C23,10.9756152 22.6633103,11.3116319 22.2479825,11.3116319 C21.8326547,11.3116319 21.495965,10.9756152 21.495965,10.5611175 L21.495965,7.28454489 L2.50402973,7.28454489 L2.5039476,18.9475488 C2.50756225,19.1841289 2.50595283,19.2894148 2.55815302,19.3677496 C2.61035322,19.4460844 2.64812321,19.4460844 2.80326449,19.4460844 L12.5761966,19.4460844 C12.9915244,19.4460844 13.3282141,19.7821011 13.3282141,20.1965987 C13.3282141,20.6110964 12.9915244,20.9471131 12.5761966,20.9471131 L2.73439121,20.9471131 L2.6059858,20.9360916 C2.01681637,20.8341969 1.57129909,20.6088113 1.311816,20.1998681 C1.10296164,19.8707153 1.0075739,19.4604282 1,18.9589915 L1,6.53403052 C1,6.52427055 1.00018667,6.5145541 1.00055665,6.50488452 Z M2.50425315,5.78351615 L9.89328924,5.78351615 L9.58228577,4.80472045 C9.53137986,4.66221663 9.48935278,4.58106515 9.43533782,4.53798235 C9.38132286,4.49489955 9.35377606,4.51090765 9.23468652,4.50102874 L2.61035322,4.49921848 C2.5184588,4.50559984 2.51041778,4.52644842 2.50425456,4.55269226 L2.50425315,5.78351615 Z"/>
</svg>
