<svg xmlns="http://www.w3.org/2000/svg" width="24" height="24" viewBox="0 0 24 24">
  <path fill="#555" d="M16.8287162,15.0415461 L16.8287162,12.0772053 C16.8287162,11.708025 17.1341859,11.4087453 17.5110019,11.4087453 C17.887818,11.4087453 18.1932877,11.708025 18.1932877,12.0772053 L18.1932877,15.0415461 L21.2249999,15.0415461 C21.6025707,15.0415461 21.9086522,15.3402276 21.9086522,15.70867 C21.9086522,16.0771123 21.6025707,16.3757939 21.2249999,16.3757939 L18.1932877,16.3757939 L18.1932877,19.3401347 C18.1932877,19.709315 17.887818,20.0085947 17.5110019,20.0085947 C17.1341859,20.0085947 16.8287162,19.709315 16.8287162,19.3401347 L16.8287162,16.3757939 L13.7970039,16.3757939 C13.4194332,16.3757939 13.1133517,16.0771123 13.1133517,15.70867 C13.1133517,15.3402276 13.4194332,15.0415461 13.7970039,15.0415461 L16.8287162,15.0415461 Z M2.00050605,7.11545291 L2.00344822,5.31521139 C2.03903631,4.96025413 2.15833648,4.65558388 2.3788919,4.4199532 C2.62337074,4.15876391 2.96413361,4.02910246 3.41650275,4 L9.5327149,4.00155403 C9.9638461,4.03032018 10.3160854,4.14222025 10.580065,4.37264052 C10.805639,4.56953763 10.972157,4.8336355 11.0976325,5.17830062 L11.4779321,6.34720702 C11.4916502,6.38937166 11.5008506,6.43188071 11.5057976,6.47423658 L21.3163477,6.47423658 C21.6939184,6.47423658 22,6.77291812 22,7.14136046 L22,10.7209933 C22,11.0894357 21.6939184,11.3881172 21.3163477,11.3881172 C20.938777,11.3881172 20.6326954,11.0894357 20.6326954,10.7209933 L20.6326954,7.80848435 L3.36729975,7.80848435 L3.36722509,18.1755989 C3.37051113,18.3858924 3.36904802,18.4794799 3.41650275,18.5491108 C3.46395747,18.6187417 3.49829383,18.6187417 3.63933135,18.6187417 L12.5238151,18.6187417 C12.9013858,18.6187417 13.2074674,18.9174232 13.2074674,19.2858655 C13.2074674,19.6543079 12.9013858,19.9529894 12.5238151,19.9529894 L3.57671928,19.9529894 L3.45998709,19.9431925 C2.92437852,19.8526195 2.51936281,19.6522768 2.28346909,19.2887716 C2.09360149,18.9961914 2.00688536,18.6314917 2,18.1857702 L2,7.14136046 C2,7.13268494 2.0001697,7.12404809 2.00050605,7.11545291 Z M3.36750286,6.47423658 L10.0848084,6.47423658 L9.80207798,5.60419595 C9.75579987,5.4775259 9.71759344,5.40539124 9.66848893,5.36709542 C9.61938441,5.3287996 9.59434188,5.34302902 9.48607865,5.33424777 L3.46395747,5.33263865 C3.38041709,5.33831097 3.37310707,5.35684304 3.36750414,5.3801709 L3.36750286,6.47423658 Z"/>
</svg>
