<svg xmlns="http://www.w3.org/2000/svg" width="24" height="24" viewBox="0 0 24 24">
  <g fill="none" fill-rule="evenodd" transform="translate(-696 -984)">
    <path fill="#555" fill-rule="nonzero" d="M20.4147791,18.9814866 L1.57264293,18.9814866 C0.705243979,18.9814866 0,18.272161 0,17.3996902 L0,1.58179634 C0,0.70934878 0.705220942,0 1.57264293,0 L8.69373194,0 C9.0795267,0 9.46776335,0.140878049 9.78965445,0.395454878 C10.1115455,0.650031707 10.3400691,0.998519512 10.4285298,1.37418659 L10.8192314,3.00047073 C10.8364398,3.06720244 10.9568293,3.16359268 11.0256398,3.16359268 L20.4123141,3.16359268 C21.2797131,3.16359268 21.9849571,3.87291829 21.9849571,4.74538902 L21.9849571,17.3996902 C21.987422,18.2721378 21.282178,18.9814866 20.4147791,18.9814866 Z M2.3614178,17.3996902 L19.630911,17.3996902 C20.0658429,17.3996902 20.4172209,17.0462671 20.4172209,16.6088037 L20.4172209,5.53627561 C20.4172209,5.0988122 20.0658429,4.74538902 19.630911,4.74538902 L11.0305696,4.74538902 C10.6447749,4.74538902 10.2565382,4.60451098 9.93464712,4.34993415 C9.61275602,4.09535732 9.38423246,3.74686951 9.29577173,3.37120244 L8.90507016,1.74491829 C8.88786178,1.67818659 8.76747225,1.58179634 8.69866178,1.58179634 L2.36388272,1.58179634 C1.92895079,1.58179634 1.57757277,1.93521951 1.57757277,2.37268293 L1.57757277,16.6087805 C1.57510785,17.0462439 1.9265089,17.3996671 2.36144084,17.3996671 L2.3614178,17.3996902 Z" transform="translate(697 986)"/>
  </g>
</svg>
