<svg xmlns="http://www.w3.org/2000/svg" width="24" height="24" viewBox="0 0 24 24">
  <path fill="#555" d="M6.28633413,21.7440129 C5.85375107,22.249831 4.99999919,21.9557899 5,21.300986 L5.00112978,3.51658333 C5.03225238,2.97577526 5.23428875,2.54120405 5.65293254,2.28510109 C5.98682857,2.08084209 6.43119814,2.00001126 7.01023056,2.00001126 L18.5961418,2.00001679 C19.1374788,1.99794472 19.5866187,2.1876253 19.8267207,2.6148851 C20.0138073,2.94780441 20.0430941,3.32788345 19.944885,3.70054773 L19.2972063,6.6141319 C19.1338473,7.16763859 18.8879462,7.57282257 18.508305,7.8109792 C18.1548575,8.03270396 17.6844824,8.11466032 17.0947754,8.10156018 L11.7100224,8.10156018 C11.5159951,8.10156018 11.4192089,8.12364581 11.4223145,8.12131398 C11.4682754,8.08680427 11.4699243,8.08272382 11.468119,8.14858565 L11.4676797,9.38986145 C11.4716376,9.49915983 11.4737638,9.50467743 11.4008758,9.45400383 C11.3840982,9.44233956 11.5618745,9.47233426 11.868627,9.47233426 L16.6183976,9.47262427 C17.2250274,9.45580456 17.7299899,9.62693888 18.0678048,10.0202618 C18.3883324,10.3934569 18.4943899,10.8706305 18.4051282,11.4424565 L17.8004458,14.2652548 C17.6761295,14.7629359 17.4380322,15.1420088 17.0483095,15.358556 C16.7447387,15.5272333 16.3718113,15.6135719 15.8914654,15.6359422 L12.0394591,15.6346509 C11.8224195,15.6219392 11.6718808,15.6368174 11.5948809,15.664714 C11.5253738,15.6898961 11.4115648,15.7706165 11.3029958,15.878046 L6.28633413,21.7440129 Z M6.45145973,19.3545581 L10.2159379,14.9548336 C10.4972776,14.6698124 10.7811658,14.4684614 11.0829913,14.3591116 C11.377324,14.2524763 11.7232242,14.21829 12.0835944,14.2406901 L15.8549624,14.2415731 C16.0873333,14.2303236 16.2435131,14.1941655 16.3219429,14.1505865 C16.3142208,14.1548772 16.349223,14.0991506 16.3839415,13.9617581 L16.976399,11.1996196 C17.002331,11.0313352 16.9843032,10.9502244 16.9485277,10.9085706 C16.9300397,10.8870447 16.8557722,10.8618751 16.6393214,10.8675863 L11.868627,10.8675863 C11.2736219,10.8675863 10.8560325,10.79713 10.550281,10.5845636 C10.1884193,10.332988 10.0350867,9.93507068 10.0166616,9.4141314 L10.0168609,8.1322382 C10.0281687,7.66849243 10.1852764,7.27970605 10.5288424,7.02173952 C10.8295531,6.79595088 11.2223962,6.70630809 11.7100224,6.70630809 L17.1113104,6.70648919 C17.4513118,6.71393776 17.6588765,6.67777249 17.7150651,6.64252419 C17.74506,6.62370777 17.8240566,6.49354114 17.8892473,6.27829505 L18.529017,3.39526334 L7.01023056,3.39526334 C6.70841018,3.39526334 6.51425994,3.42626791 6.44670624,3.45494772 C6.46409516,3.44992638 6.45689221,3.47698451 6.45147919,3.55511781 L6.45145973,19.3545581 Z"/>
</svg>
