<svg xmlns="http://www.w3.org/2000/svg" width="24" height="24" viewBox="0 0 24 24">
  <g fill="none" fill-rule="evenodd" transform="translate(-552 -1152)">
    <path fill="#555" fill-rule="nonzero" d="M5.37208974,22.7184142 C4.91066781,23.2748141 3.99999914,22.9513689 4,22.2310846 L4.0012051,2.66824166 C4.03440254,2.07335279 4.249908,1.59532446 4.69646138,1.3136112 C5.05261714,1.0889263 5.52661135,1.00001238 6.14424593,1.00001238 L18.5025513,1.00001846 C19.0799774,0.997739191 19.5590599,1.20638783 19.8151687,1.67637361 C20.0147278,2.04258485 20.045967,2.4606718 19.9412107,2.8706025 L19.2503533,6.07554509 C19.0761038,6.68440245 18.8138093,7.13010482 18.4088587,7.39207712 C18.031848,7.63597436 17.5301146,7.72612635 16.9010938,7.7117162 L11.1573573,7.7117162 C10.9503948,7.7117162 10.8471562,7.73601039 10.8504688,7.73344538 C10.8994937,7.69548469 10.9012525,7.6909962 10.8993269,7.76344422 L10.8988583,9.12884759 C10.9030802,9.24907581 10.905348,9.25514518 10.8276009,9.19940421 C10.8097047,9.18657351 10.9993328,9.21956768 11.3265355,9.21956768 L16.3929574,9.21988669 C17.0400292,9.20138501 17.5786558,9.38963276 17.9389918,9.82228803 C18.2808878,10.2328026 18.3940159,10.7576936 18.2988034,11.3867021 L17.6538089,14.4917802 C17.5212048,15.0392295 17.2672344,15.4562097 16.8515302,15.6944116 C16.5277213,15.8799567 16.1299321,15.974929 15.6175631,15.9995364 L11.5087564,15.998116 C11.2772475,15.9841331 11.1166729,16.0004991 11.0345396,16.0311855 C10.9603987,16.0588857 10.8390025,16.1476781 10.7231955,16.2658506 L5.37208974,22.7184142 Z M5.54822371,20.0900139 L9.56366709,15.250317 C9.86376272,14.9367937 10.1665768,14.7153075 10.488524,14.5950227 C10.8024789,14.477724 11.1714391,14.4401191 11.555834,14.4647591 L15.5786265,14.4657305 C15.8264888,14.453356 15.9930807,14.4135821 16.0767391,14.3656451 C16.0685022,14.3703649 16.1058379,14.3090656 16.142871,14.157934 L16.7748256,11.1195816 C16.8024864,10.9344687 16.7832567,10.8452469 16.7450963,10.7994277 C16.7253757,10.7757491 16.646157,10.7480626 16.4152761,10.754345 L11.3265355,10.754345 C10.6918634,10.754345 10.2464347,10.676843 9.92029977,10.44302 C9.53431391,10.1662868 9.37075912,9.72857775 9.35110575,9.15554454 L9.35131831,7.74546202 C9.36337997,7.23534167 9.53096146,6.80767666 9.89743186,6.52391347 C10.21819,6.27554596 10.6372226,6.1769389 11.1573573,6.1769389 L16.9187311,6.17713811 C17.2813992,6.18533154 17.5028016,6.14554973 17.5627361,6.10677661 C17.5947307,6.08607855 17.6789937,5.94289526 17.7485305,5.70612455 L18.4309515,2.53478968 L6.14424593,2.53478968 C5.82230419,2.53478968 5.61521061,2.5688947 5.54315332,2.60044249 C5.5617015,2.59491902 5.55401835,2.62468296 5.54824446,2.7106296 L5.54822371,20.0900139 Z" transform="translate(553 1152)"/>
  </g>
</svg>
