<svg xmlns="http://www.w3.org/2000/svg" width="24" height="24" viewBox="0 0 24 24">
  <g fill="none" fill-rule="evenodd" transform="translate(-552 -1152)">
    <path fill="#555" fill-rule="nonzero" d="M13.3274972,3.17622423 L12.8298207,5.74195341 C12.7702856,6.01970116 12.4158655,6.31303211 12.0847013,6.31303211 L7.45119372,6.31303211 C6.92840086,6.31303211 6.55537605,6.67144587 6.55537605,7.17927508 L6.55537605,7.74210385 C6.55537605,8.26368295 6.9321218,8.62209671 7.45398443,8.62209671 L11.3888845,8.62209671 C11.7563279,8.62209671 12.1191201,9.02176013 12.0372593,9.40584035 L11.5395828,11.9358198 C11.4921407,12.155818 11.2474886,12.5133151 10.8093472,12.5133151 L7.5935199,12.5133151 C7.00747095,12.5133151 6.83258651,12.5967311 6.44095697,13.0642273 C6.05025768,13.5445568 2.52838259,17.710773 2.52838259,17.710773 C2.49396384,17.7520226 2.45954509,17.7373561 2.45954509,17.6970231 L2.45954509,3.13497456 C2.45954509,2.8058939 2.74884862,2.41998036 3.18140856,2.41998036 L12.7386575,2.41998036 C13.0874962,2.41998036 13.4177301,2.74631105 13.3274972,3.17255759 L13.3274972,3.17622423 L13.3274972,3.17622423 Z M13.7470338,13.2411426 C13.8819181,12.7113135 15.3712266,5.18920789 15.8689031,2.80497724 L13.7470338,13.2411426 Z M14.0335466,0 L2.12372975,0 C0.481862466,0 0,1.21732346 0,1.98365057 L0,20.6284993 C0,21.490159 0.468839156,21.8119064 0.733956535,21.9164055 C0.998143679,22.0236546 1.72837927,22.1125706 2.16745086,21.6157413 C2.16745086,21.6157413 7.78979978,15.1862934 7.8846839,15.0918775 C8.03817291,14.947962 8.03817291,14.947962 8.17770837,14.947962 L11.8186537,14.947962 C13.3535438,14.947962 13.5916843,13.8754707 13.7591269,13.2429759 C13.8986624,12.7213968 15.3907616,5.20020781 15.8791357,2.80681056 C16.2558814,0.989991967 15.7814609,0 14.0372676,0 L14.0335466,0 L14.0335466,0 Z" transform="translate(557 1153)"/>
  </g>
</svg>
