<svg xmlns="http://www.w3.org/2000/svg" width="24" height="24" viewBox="0 0 24 24">
  <g fill="none" fill-rule="evenodd" transform="translate(-264 -696)">
    <path fill="#555" fill-rule="nonzero" d="M12,23 C5.92486775,23 1,18.0751322 1,12 C1,5.92486775 5.92486775,1 12,1 C18.0751322,1 23,5.92486775 23,12 C23,18.0751322 18.0751322,23 12,23 Z M7.39534884,10.9767442 C8.24304171,10.9767442 8.93023256,10.2895533 8.93023256,9.44186047 C8.93023256,8.59416759 8.24304171,7.90697674 7.39534884,7.90697674 C6.54765597,7.90697674 5.86046512,8.59416759 5.86046512,9.44186047 C5.86046512,10.2895533 6.54765597,10.9767442 7.39534884,10.9767442 Z M16.6046512,10.9767442 C17.452344,10.9767442 18.1395349,10.2895533 18.1395349,9.44186047 C18.1395349,8.59416759 17.452344,7.90697674 16.6046512,7.90697674 C15.7569583,7.90697674 15.0697674,8.59416759 15.0697674,9.44186047 C15.0697674,10.2895533 15.7569583,10.9767442 16.6046512,10.9767442 Z M8.02861067,17.0581558 C7.97929952,17.4694237 8.27272344,17.8427968 8.68399134,17.8921079 C9.09525924,17.9414191 9.46863234,17.6479952 9.51794349,17.2367273 C9.66756836,15.9888167 10.731402,15.0384235 12,15.0384235 C13.2624037,15.0384235 14.3228614,15.9797778 14.4800055,17.2200926 C14.5320689,17.6310211 14.907398,17.9219388 15.3183266,17.8698754 C15.7292551,17.8178121 16.0201728,17.4424829 15.9681095,17.0315544 C15.7162895,15.043977 14.0202481,13.5384235 12,13.5384235 C9.96984164,13.5384235 8.26837526,15.0584563 8.02861067,17.0581558 Z" transform="translate(264 696)"/>
  </g>
</svg>
