<svg xmlns="http://www.w3.org/2000/svg" width="24" height="24" viewBox="0 0 24 24">
  <path fill="#555" d="M12,22 C6.4771525,22 2,17.5228475 2,12 C2,6.4771525 6.4771525,2 12,2 C17.5228475,2 22,6.4771525 22,12 C22,17.5228475 17.5228475,22 12,22 Z M12,20.6046512 C16.7522176,20.6046512 20.6046512,16.7522176 20.6046512,12 C20.6046512,7.24778239 16.7522176,3.39534884 12,3.39534884 C7.24778239,3.39534884 3.39534884,7.24778239 3.39534884,12 C3.39534884,16.7522176 7.24778239,20.6046512 12,20.6046512 Z M7.81395349,11.0697674 C7.0433236,11.0697674 6.41860465,10.4450485 6.41860465,9.6744186 C6.41860465,8.90378872 7.0433236,8.27906977 7.81395349,8.27906977 C8.58458337,8.27906977 9.20930233,8.90378872 9.20930233,9.6744186 C9.20930233,10.4450485 8.58458337,11.0697674 7.81395349,11.0697674 Z M16.1860465,11.0697674 C15.4154166,11.0697674 14.7906977,10.4450485 14.7906977,9.6744186 C14.7906977,8.90378872 15.4154166,8.27906977 16.1860465,8.27906977 C16.9566764,8.27906977 17.5813953,8.90378872 17.5813953,9.6744186 C17.5813953,10.4450485 16.9566764,11.0697674 16.1860465,11.0697674 Z M8.38964607,16.5983234 C8.60761388,14.7804148 10.1544015,13.3985668 12,13.3985668 C13.8365892,13.3985668 15.378445,14.7672518 15.6073722,16.5741403 C15.6547026,16.9477118 15.3902319,17.2889201 15.0166605,17.3362504 C14.6430891,17.3835808 14.3018808,17.1191101 14.2545505,16.7455387 C14.1116922,15.6179799 13.1476397,14.7622031 12,14.7622031 C10.8467291,14.7622031 9.8796076,15.626197 9.74358499,16.7606611 C9.69875667,17.134541 9.35932659,17.4012901 8.98544668,17.3564618 C8.61156677,17.3116334 8.34481775,16.9722033 8.38964607,16.5983234 Z"/>
</svg>
