<svg xmlns="http://www.w3.org/2000/svg" width="24" height="24" viewBox="0 0 24 24">
  <path fill="#555" d="M5.77324649,18.1599727 C4.9538396,17.1003527 4.70960228,16.7543857 4.52376242,16.4150835 C4.49980221,16.371138 4.49980221,16.371138 4.48410935,16.3423297 C4.43113718,16.246442 4.39586468,16.1820057 4.36165837,16.1163605 C4.30631762,16.0101561 4.26027235,15.9128404 4.22113777,15.8154284 C4.04770775,15.3837345 4.01481819,15.00321 4.29121366,14.6509984 C4.77710079,14.0318309 5.56497063,14.205559 6.22929319,14.7735293 C6.65719346,15.1393676 7.2950138,15.7941716 7.68390337,16.2597043 C7.93931908,16.5654579 8.4042211,16.8810669 8.74347846,16.9937207 C8.77898265,17.0055102 8.81254409,17.0144873 8.84450693,17.0207779 L9.02182667,16.4609828 C8.33348006,16.2186763 7.70995648,15.8970394 7.15307321,15.4957668 C5.85394485,14.5596559 4.72270671,12.7232977 4.81968456,11.321852 C4.88094654,10.4365431 5.18012478,9.56942796 5.70928526,8.72573971 C5.66090907,8.24223326 5.63652214,7.8302691 5.63652214,7.48773387 C5.63652214,6.99908544 5.79686415,6.46764948 6.10356867,5.88489684 C6.21441945,5.67427528 6.43124722,5.53966545 6.67039537,5.53300261 C7.22160303,5.51764557 7.75478755,5.57435264 8.26826083,5.70355541 C8.72301463,5.81798289 9.20379692,6.02002146 9.71326126,6.30763211 C10.4753034,6.14961695 11.2139265,6.07026336 11.9288184,6.07026336 C12.6457657,6.07026336 13.3922214,6.1500736 14.1680099,6.30893334 C14.8303278,5.9376387 15.4119382,5.6855261 15.920135,5.5539537 C16.5809284,5.38287395 17.1737682,5.43310504 17.6630539,5.73597681 C17.7304079,5.77766947 17.7896478,5.83107898 17.8379336,5.8936449 C18.1375484,6.28186768 18.3043205,6.79703872 18.3586866,7.43213027 C18.4001442,7.9164267 18.384946,8.39745857 18.3131146,8.87418465 C18.7464532,9.52548853 19.0276786,10.3574012 19.1665465,11.3649034 C19.3929774,13.0076839 18.6420505,14.7005249 17.448915,15.6756968 C16.8928174,16.1302058 16.1286102,16.4869227 15.1551032,16.7566985 C15.2166631,16.9720082 15.2607996,17.1871546 15.2872695,17.4020165 C15.3309259,17.7563844 15.3618304,18.7062338 15.3827009,20.2910929 C16.4845468,19.7178839 17.3403742,19.1515307 17.9483903,18.5971446 C18.9826652,17.6540977 19.7631835,16.3155578 20.2710905,14.7618985 C20.6959144,13.4623858 20.7781897,12.3653942 20.5675472,11.1560271 C20.3113638,9.6851943 19.9413158,8.48718071 19.3835429,7.52452385 C18.7316059,6.39934963 17.6916829,5.33534139 16.4480453,4.55680486 C15.2573011,3.81138042 13.3278329,3.31238764 11.8078175,3.31238764 C10.211922,3.31238764 8.42574446,3.82938873 7.07134559,4.78486209 C5.75282102,5.71502758 4.66094788,7.11420365 4.02779594,8.48820553 C3.52661598,9.57581526 3.32104903,10.7345845 3.32104903,12.4457826 C3.32104903,13.8317778 3.82480255,15.5160259 4.41896638,16.5699958 C4.88801819,17.4020331 5.55361337,18.1906406 6.53261695,19.0464423 C7.02598506,19.4777229 7.72340688,19.9089441 8.62308484,20.334848 L8.62308484,19.9122502 C7.41811241,19.6322099 6.45981889,19.047817 5.77324649,18.1599727 Z M5.41617992,15.2378724 C5.41605577,15.2348801 5.41586859,15.2319545 5.41562175,15.2290986 C5.41570678,15.2300824 5.41588866,15.2313473 5.41616931,15.232882 L5.41617992,15.2378724 Z M6.82084682,17.3604486 C7.39177508,18.0987472 8.23216551,18.5515402 9.38023625,18.7202026 C9.70419045,18.7677945 9.94413387,19.044007 9.94413387,19.3693371 L9.94413387,21.3430362 C9.94413387,21.8105299 9.46605546,22.1280771 9.0311925,21.9494262 C7.55625775,21.3434919 6.43387105,20.708245 5.65993704,20.0317061 C4.57401218,19.0824386 3.81274206,18.1804739 3.26636418,17.2112701 C2.56811224,15.9726613 2,14.0732365 2,12.4457826 C2,10.5599866 2.23773494,9.21988829 2.82662847,7.94193149 C3.5511531,6.3696419 4.78564403,4.78770889 6.30647886,3.71482172 C7.89455156,2.59450098 9.94848205,2 11.8078175,2 C13.5661799,2 15.7395906,2.5620804 17.1523319,3.44647849 C18.5760295,4.33773543 19.7679751,5.55728709 20.5284663,6.86981434 C21.1768658,7.98888327 21.5889633,9.32303014 21.869253,10.9322647 C22.116753,12.353243 22.0182872,13.6661051 21.5275392,15.167276 C20.9544059,16.9204589 20.0614439,18.4518328 18.8416616,19.5640244 C17.960189,20.3677468 16.6858767,21.1551887 15.0150895,21.9367138 C14.5793466,22.1405362 14.0776006,21.8274592 14.073217,21.3490088 C14.0535307,19.2003779 14.0195479,17.9148977 13.9760045,17.5614466 C13.9366581,17.2420639 13.8383096,16.9126654 13.6785655,16.5720565 C13.4993689,16.189971 13.7240903,15.7415379 14.1389891,15.6532777 C15.2831893,15.4098754 16.1074877,15.072614 16.6096111,14.6622191 C17.4636016,13.9642367 18.0189016,12.7124044 17.8577108,11.5429476 C17.7300982,10.6171041 17.4707628,9.91696292 17.0937734,9.43528587 C16.9762879,9.28517537 16.9301228,9.09181785 16.9672316,8.90527955 C17.0566485,8.45579953 17.0816879,8.0024186 17.0423889,7.54333747 C17.0144275,7.21669897 16.9498036,6.97050933 16.8592262,6.80108596 C16.7140275,6.75295421 16.5179023,6.75541383 16.253285,6.82392338 C15.8227912,6.93537844 15.2724845,7.18320161 14.6123972,7.56926099 C14.4674271,7.65404836 14.2953548,7.68068905 14.1312887,7.64374749 C13.3566914,7.46933708 12.6226146,7.382651 11.9288184,7.382651 C11.2356604,7.382651 10.5096016,7.46917908 9.75021122,7.64319019 C9.58217251,7.68169556 9.40563869,7.65338691 9.25832931,7.56431288 C8.76762824,7.2675991 8.32813848,7.07245267 7.94390064,6.97576878 C7.67349215,6.90772722 7.39476541,6.86576503 7.10717444,6.85002181 C7.00589453,7.10098425 6.95757117,7.3144972 6.95757117,7.48773387 C6.95757117,7.83033692 6.98718743,8.27413675 7.04703611,8.81585866 C7.06400963,8.96949483 7.0258494,9.12415234 6.93928077,9.25257441 C6.45116363,9.97668215 6.18728099,10.694243 6.13762307,11.4118593 C6.07637565,12.2969577 6.96445665,13.7385948 7.92871323,14.4334077 C8.52345345,14.8619587 9.21962792,15.1828762 10.021322,15.3954743 C10.3847993,15.4918634 10.5939591,15.8699359 10.4810338,16.2264389 L9.97846507,17.813039 C9.91786297,18.0043587 9.77251324,18.1576384 9.58388718,18.2291442 C9.18281778,18.3811847 8.75463459,18.3811847 8.32469104,18.2384177 C7.75230178,18.0483502 7.08022805,17.5920981 6.66732477,17.097819 C6.56625588,16.9768312 6.44415649,16.8393194 6.31274524,16.6974367 C6.4487977,16.877489 6.61513629,17.0944331 6.82084682,17.3604486 Z"/>
</svg>
