<svg xmlns="http://www.w3.org/2000/svg" width="24" height="24" viewBox="0 0 24 24">
  <g fill="none" fill-rule="evenodd" transform="translate(-360 -1104)">
    <path fill="#555" fill-rule="nonzero" d="M23,12.2754966 C23,14.7322237 22.3005642,16.9418099 20.9016927,18.9042553 C19.5028212,20.8667007 17.6957465,22.224752 15.4804688,22.9784093 C15.2226563,23.0273481 15.0340712,22.993091 14.9147135,22.8756379 C14.7953559,22.7581848 14.7356771,22.6113684 14.7356771,22.4351888 L14.7356771,19.3373636 C14.7356771,18.3879511 14.4874132,17.6930203 13.9908854,17.2525712 C14.5351562,17.1938447 15.0245226,17.1057549 15.4589844,16.9883018 C15.8934462,16.8708487 16.3422309,16.6799874 16.8053385,16.415718 C17.2684462,16.1514485 17.6551649,15.8260056 17.9654948,15.4393892 C18.2758246,15.0527727 18.5288628,14.5389155 18.7246094,13.8978174 C18.9203559,13.2567193 19.0182292,12.5201905 19.0182292,11.6882311 C19.0182292,10.5039125 18.641059,9.49577346 17.8867188,8.66381407 C18.2400174,7.77312814 18.2018229,6.77477689 17.7721354,5.66876031 C17.5047743,5.58067049 17.1180555,5.63450316 16.6119792,5.8302583 C16.1059028,6.02601344 15.6666667,6.2413441 15.2942708,6.47625028 L14.75,6.82860956 C13.8619792,6.57412786 12.9453125,6.44688702 12,6.44688702 C11.0546875,6.44688702 10.1380208,6.57412786 9.24999999,6.82860956 C9.09722222,6.72094423 8.89431423,6.58880951 8.64127604,6.43220539 C8.38823785,6.27560128 7.98958333,6.08718695 7.44531249,5.8669624 C6.90104165,5.64673786 6.49045138,5.58067049 6.21354166,5.66876031 C5.79340278,6.7747769 5.75998264,7.77312816 6.11328125,8.66381407 C5.35894097,9.49577346 4.98177084,10.5039125 4.98177084,11.6882311 C4.98177084,12.5201905 5.0796441,13.2542723 5.27539063,13.8904766 C5.47113717,14.5266808 5.72178821,15.0405381 6.02734376,15.4320484 C6.33289931,15.8235587 6.71723091,16.1514485 7.18033855,16.415718 C7.64344619,16.6799874 8.09223091,16.8708487 8.5266927,16.9883018 C8.96115449,17.1057549 9.45052081,17.1938447 9.99479167,17.2525712 C9.61284722,17.6049305 9.37890625,18.109 9.29296875,18.7647798 C9.09244792,18.8626573 8.87760417,18.9360655 8.64843749,18.9850043 C8.41927082,19.0339431 8.14713541,19.0584125 7.83203126,19.0584125 C7.51692711,19.0584125 7.20421009,18.9531941 6.8938802,18.7427573 C6.58355032,18.5323205 6.31857637,18.2264531 6.09895835,17.825155 C5.91753473,17.5119468 5.68598091,17.2574651 5.40429688,17.06171 C5.12261285,16.8659548 4.88628473,16.7485017 4.69531251,16.7093507 L4.40885417,16.6653058 C4.20833333,16.6653058 4.06987848,16.6873282 3.9934896,16.7313731 C3.91710072,16.775418 3.89322919,16.8316976 3.92187501,16.900212 C3.95052083,16.9687263 3.99348958,17.0372406 4.05078126,17.1057549 C4.10807293,17.1742692 4.1701389,17.2329957 4.23697916,17.2819345 L4.33723958,17.3553427 C4.54730903,17.4532203 4.75499132,17.6391877 4.96028646,17.9132448 C5.16558159,18.187302 5.31597222,18.4368899 5.41145833,18.6620083 L5.55468751,18.9996859 C5.67881944,19.3716207 5.88888889,19.6725943 6.18489584,19.9026066 C6.48090278,20.1326189 6.80078125,20.2794352 7.14453124,20.3430556 C7.48828123,20.4066761 7.82009547,20.4409332 8.13997396,20.4458271 C8.45985245,20.450721 8.72482641,20.4335924 8.93489584,20.3944414 L9.26432292,20.3357148 C9.26432292,20.7076496 9.26671007,21.1432048 9.27148437,21.6423805 C9.27625867,22.1415561 9.27864582,22.4058255 9.27864582,22.4351888 C9.27864582,22.6113684 9.21657985,22.7581848 9.09244792,22.8756379 C8.96831598,22.993091 8.77734376,23.0273482 8.51953125,22.9784093 C6.30425346,22.224752 4.49717881,20.8667007 3.0983073,18.9042553 C1.69943578,16.9418099 1.00000002,14.7322237 1,12.2754966 C1,10.2298553 1.49175347,8.34326503 2.47526042,6.61572584 C3.45876737,4.88818665 4.79318577,3.52034755 6.47851563,2.51220853 C8.1638455,1.50406951 10.0043403,1 12,1 C13.9956597,1 15.8361545,1.50406951 17.5214844,2.51220853 C19.2068142,3.52034755 20.5412326,4.88818665 21.5247396,6.61572584 C22.5082465,8.34326503 23,10.2298553 23,12.2754966 Z" transform="translate(360 1104)"/>
  </g>
</svg>
