<svg xmlns="http://www.w3.org/2000/svg" width="24" height="24" viewBox="0 0 24 24">
  <g fill="none" fill-rule="evenodd" transform="translate(-360 -1104)">
    <path fill="#555" fill-rule="nonzero" d="M24,12.3005417 C24,14.9806077 23.2369792,17.3910654 21.7109375,19.5319149 C20.1848958,21.6727644 18.2135417,23.1542749 15.796875,23.9764466 C15.515625,24.0298343 15.3098958,23.9924629 15.1796875,23.8643322 C15.0494791,23.7362016 14.984375,23.5760383 14.984375,23.3838423 L14.984375,20.0043966 C14.984375,18.9686739 14.7135417,18.2105676 14.171875,17.7300777 C14.765625,17.6660124 15.2994792,17.5699144 15.7734375,17.4417838 C16.2473958,17.3136531 16.7369792,17.1054408 17.2421875,16.8171469 C17.7473958,16.528853 18.1692708,16.1738243 18.5078125,15.7520609 C18.8463542,15.3302975 19.1223958,14.769726 19.3359375,14.0703462 C19.5494792,13.3709665 19.65625,12.5674806 19.65625,11.6598885 C19.65625,10.3679045 19.2447917,9.2681165 18.421875,8.36052444 C18.8072917,7.38886706 18.765625,6.2997566 18.296875,5.09319306 C18.0052083,4.99709508 17.5833333,5.05582162 17.03125,5.26937269 C16.4791667,5.48292375 16,5.71782993 15.59375,5.97409122 L15,6.35848316 C14.03125,6.08086676 13.03125,5.94205856 12,5.94205856 C10.96875,5.94205856 9.96874999,6.08086676 8.99999999,6.35848316 C8.83333333,6.24103007 8.61197917,6.0968831 8.3359375,5.92604225 C8.05989584,5.75520139 7.625,5.54965849 7.03124999,5.30941353 C6.43749999,5.06916857 5.98958332,4.99709508 5.6875,5.09319306 C5.22916667,6.29975662 5.19270833,7.38886708 5.578125,8.36052444 C4.75520833,9.2681165 4.34375,10.3679045 4.34375,11.6598885 C4.34375,12.5674806 4.45052084,13.3682971 4.66406251,14.0623381 C4.87760418,14.756379 5.15104168,15.3169506 5.48437501,15.7440527 C5.81770834,16.1711549 6.23697917,16.5288529 6.74218751,16.8171469 C7.24739585,17.1054408 7.73697917,17.3136531 8.21093749,17.4417838 C8.6848958,17.5699144 9.21874997,17.6660124 9.8125,17.7300777 C9.39583333,18.1144697 9.140625,18.6643637 9.046875,19.3797597 C8.828125,19.4865353 8.59375,19.5666169 8.34374999,19.6200047 C8.09374999,19.6733924 7.79687499,19.7000863 7.45312501,19.7000863 C7.10937503,19.7000864 6.76822919,19.5853027 6.42968749,19.3557352 C6.0911458,19.1261678 5.80208331,18.7924943 5.56250001,18.3547146 C5.36458334,18.0130329 5.11197918,17.7354165 4.80468751,17.5218654 C4.49739584,17.3083143 4.23958334,17.1801837 4.03125001,17.1374735 L3.71875,17.0894245 C3.5,17.0894245 3.34895834,17.113449 3.26562501,17.161498 C3.18229169,17.2095469 3.15625002,17.2709429 3.18750001,17.3456858 C3.21875,17.4204287 3.265625,17.4951715 3.32812501,17.5699144 C3.39062502,17.6446573 3.45833335,17.7087226 3.53124999,17.7621104 L3.64062499,17.842192 C3.86979167,17.9489676 4.09635417,18.1518411 4.3203125,18.4508126 C4.54427083,18.749784 4.70833333,19.0220617 4.8125,19.2676454 L4.96875001,19.636021 C5.10416667,20.0417681 5.33333333,20.3701028 5.65625,20.6210253 C5.97916667,20.8719478 6.328125,21.0321111 6.70312499,21.1015152 C7.07812498,21.1709194 7.44010415,21.2082908 7.7890625,21.2136296 C8.13802085,21.2189683 8.42708335,21.2002826 8.65625001,21.1575724 L9.015625,21.0935071 C9.015625,21.4992541 9.01822917,21.9744053 9.0234375,22.5189605 C9.02864583,23.0635157 9.03124999,23.3518097 9.03124999,23.3838423 C9.03124999,23.5760383 8.96354166,23.7362016 8.828125,23.8643322 C8.69270834,23.9924629 8.48437501,24.0298343 8.203125,23.9764466 C5.78645832,23.1542749 3.81510416,21.6727644 2.28906251,19.5319149 C0.763020854,17.3910654 1.82291658e-08,14.9806077 0,12.3005417 C0,10.068933 0.536458334,8.01083458 1.609375,6.12624637 C2.68229167,4.24165817 4.13802084,2.74947005 5.97656251,1.64968203 C7.81510418,0.54989401 9.82291668,-1.19493015e-15 12,0 C14.1770833,1.19493015e-15 16.1848958,0.54989401 18.0234375,1.64968203 C19.8619792,2.74947005 21.3177083,4.24165817 22.390625,6.12624637 C23.4635417,8.01083458 24,10.068933 24,12.3005417 Z" transform="translate(360 1104)"/>
  </g>
</svg>
