<svg xmlns="http://www.w3.org/2000/svg" width="24" height="24" viewBox="0 0 24 24">
  <path fill="#555" d="M22,12.2504514 C22,14.4838397 21.3641493,16.4925545 20.0924479,18.2765957 C18.8207465,20.060637 17.1779514,21.2952291 15.1640625,21.9803721 C14.9296875,22.0248619 14.7582465,21.9937191 14.6497396,21.8869435 C14.5412326,21.780168 14.4869791,21.6466986 14.4869792,21.4865353 L14.4869792,18.6703305 C14.4869792,17.8072283 14.2612847,17.175473 13.8098958,16.7750648 C14.3046875,16.721677 14.749566,16.6415953 15.1445312,16.5348198 C15.5394965,16.4280442 15.9474826,16.254534 16.3684896,16.0142891 C16.7894965,15.7740441 17.141059,15.4781869 17.4231771,15.1267174 C17.7052951,14.7752479 17.9353298,14.308105 18.1132812,13.7252885 C18.2912326,13.1424721 18.3802083,12.4729005 18.3802083,11.7165737 C18.3802083,10.6399204 18.0373264,9.72343042 17.3515625,8.9671037 C17.6727431,8.15738922 17.6380208,7.24979717 17.2473958,6.24432755 C17.0043403,6.1642459 16.6527778,6.21318469 16.1927083,6.39114391 C15.7326389,6.56910313 15.3333333,6.76485827 14.9947917,6.97840935 L14.5,7.29873596 C13.6927083,7.06738897 12.859375,6.95171547 12,6.95171547 C11.140625,6.95171547 10.3072917,7.06738897 9.49999999,7.29873596 C9.36111111,7.20085839 9.1766493,7.08073592 8.94661458,6.93836854 C8.71657986,6.79600116 8.35416667,6.62471541 7.85937499,6.42451127 C7.36458332,6.22430714 6.99131943,6.1642459 6.73958333,6.24432755 C6.35763889,7.24979719 6.32725695,8.15738923 6.6484375,8.9671037 C5.96267361,9.72343042 5.61979167,10.6399204 5.61979167,11.7165737 C5.61979167,12.4729005 5.70876737,13.1402476 5.88671876,13.7186151 C6.06467015,14.2969825 6.29253473,14.7641255 6.57031251,15.120044 C6.84809028,15.4759624 7.19748264,15.7740441 7.61848959,16.0142891 C8.03949654,16.254534 8.44748265,16.4280443 8.84244791,16.5348198 C9.23741317,16.6415953 9.68229165,16.721677 10.1770833,16.7750648 C9.82986111,17.0953914 9.6171875,17.5536364 9.5390625,18.1497998 C9.35677083,18.2387794 9.16145833,18.3055141 8.95312499,18.3500039 C8.74479166,18.3944937 8.49739583,18.4167386 8.21093751,18.4167386 C7.92447919,18.4167386 7.64019099,18.3210856 7.35807291,18.1297794 C7.07595483,17.9384732 6.83506942,17.6604119 6.63541668,17.2955955 C6.47048612,17.0108607 6.25998265,16.7795137 6.00390626,16.6015545 C5.74782986,16.4235953 5.53298612,16.3168197 5.35937501,16.2812279 L5.09895833,16.2411871 C4.91666667,16.2411871 4.79079861,16.2612075 4.72135418,16.3012483 C4.65190974,16.3412891 4.63020835,16.3924524 4.65625001,16.4547382 C4.68229166,16.5170239 4.72135416,16.5793096 4.77343751,16.6415953 C4.82552085,16.7038811 4.88194446,16.7572688 4.94270833,16.8017586 L5.03385416,16.8684934 C5.22482639,16.957473 5.41362848,17.1265342 5.60026042,17.3756771 C5.78689236,17.62482 5.92361111,17.8517181 6.01041667,18.0563712 L6.14062501,18.3633509 C6.25347222,18.7014734 6.44444444,18.9750857 6.71354167,19.1841878 C6.98263889,19.3932899 7.2734375,19.5267593 7.58593749,19.584596 C7.89843749,19.6424328 8.20008679,19.6735757 8.49088542,19.6780246 C8.78168404,19.6824736 9.02256946,19.6669022 9.21354167,19.6313103 L9.51302084,19.5779226 C9.51302084,19.9160451 9.51519097,20.3120044 9.51953125,20.7658004 C9.52387152,21.2195964 9.52604166,21.4598414 9.52604166,21.4865353 C9.52604166,21.6466986 9.46961805,21.780168 9.35677083,21.8869435 C9.24392362,21.9937191 9.07031251,22.024862 8.8359375,21.9803721 C6.8220486,21.2952291 5.17925347,20.060637 3.90755209,18.2765957 C2.63585071,16.4925545 2.00000002,14.4838397 2,12.2504514 C2,10.3907775 2.44704861,8.67569548 3.34114584,7.10520531 C4.23524306,5.53471514 5.4483507,4.29122504 6.98046876,3.37473503 C8.51258682,2.45824501 10.1857639,2 12,2 C13.8142361,2 15.4874132,2.45824501 17.0195312,3.37473503 C18.5516493,4.29122504 19.7647569,5.53471514 20.6588542,7.10520531 C21.5529514,8.67569548 22,10.3907775 22,12.2504514 Z"/>
</svg>
