<svg xmlns="http://www.w3.org/2000/svg" width="24" height="24" viewBox="0 0 24 24">
  <g fill="none" fill-rule="evenodd" transform="translate(-404 -1100)">
    <path fill="#555" fill-rule="nonzero" d="M12,0 C5.37321429,0 0,5.5125 0,12.3053571 C0,17.7428571 3.43928571,22.35 8.20714286,23.9785714 C8.28214286,23.9946429 8.34642857,24 8.41071429,24 C8.85535714,24 9.02678571,23.6732143 9.02678571,23.3892857 C9.02678571,23.0946429 9.01607143,22.3232143 9.01071429,21.2946429 C8.56071429,21.3964286 8.15892857,21.4392857 7.8,21.4392857 C5.49107143,21.4392857 4.96607143,19.6446429 4.96607143,19.6446429 C4.41964286,18.225 3.63214286,17.8446429 3.63214286,17.8446429 C2.5875,17.1107143 3.62678571,17.0892857 3.70714286,17.0892857 C3.7125,17.0892857 3.7125,17.0892857 3.7125,17.0892857 C4.91785714,17.1964286 5.55,18.3642857 5.55,18.3642857 C6.15,19.4142857 6.95357143,19.7089286 7.67142857,19.7089286 C8.23392857,19.7089286 8.74285714,19.5267857 9.04285714,19.3875 C9.15,18.5946429 9.46071429,18.0535714 9.80357143,17.7428571 C7.14107143,17.4321429 4.33928571,16.3767857 4.33928571,11.6625 C4.33928571,10.3178571 4.80535714,9.21964286 5.57142857,8.3625 C5.44821429,8.05178571 5.03571429,6.79821429 5.68928571,5.10535714 C5.68928571,5.10535714 5.775,5.07857143 5.95714286,5.07857143 C6.39107143,5.07857143 7.37142857,5.24464286 8.98928571,6.36964286 C9.94821429,6.09642857 10.9714286,5.9625 11.9946429,5.95714286 C13.0125,5.9625 14.0410714,6.09642857 15,6.36964286 C16.6178571,5.24464286 17.5982143,5.07857143 18.0321429,5.07857143 C18.2142857,5.07857143 18.3,5.10535714 18.3,5.10535714 C18.9535714,6.79821429 18.5410714,8.05178571 18.4178571,8.3625 C19.1839286,9.225 19.65,10.3232143 19.65,11.6625 C19.65,16.3875 16.8428571,17.4267857 14.1696429,17.7321429 C14.5982143,18.1125 14.9839286,18.8625 14.9839286,20.0089286 C14.9839286,21.6535714 14.9678571,22.9821429 14.9678571,23.3839286 C14.9678571,23.6732143 15.1339286,24 15.5785714,24 C15.6428571,24 15.7178571,23.9946429 15.7928571,23.9785714 C20.5660714,22.35 24,17.7375 24,12.3053571 C24,5.5125 18.6267857,0 12,0 Z M7.89795918,22.323913 C8.01020408,22.323913 8.12244898,22.3173913 8.23979592,22.3108696 C8.23979592,22.4934783 8.23979592,22.6695652 8.24489796,22.826087 C8.24489796,22.9826087 8.24489796,23.126087 8.25,23.25 C7.45408163,22.8717391 6.70408163,22.3695652 6,21.75 C6.5,22.0956522 7.12755102,22.323913 7.89795918,22.323913 Z M8.25,18.3569277 C8.2041109,18.4563253 8.16395793,18.560241 8.12954111,18.6686747 C7.93451243,18.7138554 7.69933078,18.75 7.458413,18.75 C6.833174,18.75 6.36854685,18.5060241 5.98996176,17.9864458 C5.85229446,17.7786145 5.5999044,17.503012 5.25,17.25 C6.21367113,17.8870482 7.33221797,18.1942771 8.25,18.3569277 Z M18.6526442,21.7185011 C17.7980769,22.3647719 16.8677885,22.8752715 15.8942308,23.25 C15.8942308,23.1468139 15.8942308,23.0273353 15.8942308,22.8969949 C15.8942308,22.2507241 15.8942308,21.2786025 15.8942308,20.1598479 C15.8942308,19.4864229 15.780649,18.9379073 15.6237981,18.5034395 C17.6358173,18.0526792 20.5997596,16.673244 20.5997596,11.6931571 C20.5997596,10.3571687 20.2157452,9.16781318 19.453125,8.1576756 C19.6207933,7.45709631 19.750601,6.22429399 19.1772837,4.73624185 L19.03125,4.3506517 L18.6418269,4.22031137 C18.5606971,4.19315713 18.3822115,4.14971035 18.1009615,4.14971035 C17.4789663,4.14971035 16.4296875,4.37237509 14.8828125,5.38794352 C13.9633413,5.15984794 13.000601,5.0403693 12.0108173,5.0403693 L12,5.0403693 L11.9945913,5.0403693 C11.0048077,5.0403693 10.0366587,5.15984794 9.12259615,5.38794352 C7.57572115,4.37237509 6.52644231,4.14971035 5.90444712,4.14971035 C5.62319712,4.14971035 5.44471154,4.19858798 5.36358173,4.22574222 L4.97415865,4.35608255 L4.828125,4.7416727 C4.25480769,6.23515568 4.38461538,7.467958 4.55228365,8.16310644 C3.78966346,9.17867487 3.40564904,10.3680304 3.40564904,11.698588 C3.40564904,14.3922882 4.27103365,16.0378349 5.38521635,17.0479725 C4.94711538,16.6895366 4.37920673,16.39084 3.69771635,16.3419623 L3.67067308,16.3419623 L3.64362981,16.3419623 L3.62740385,16.3419623 C2.91887019,16.3419623 2.42127404,16.6352281 2.26442308,17.1402969 C2.01021635,17.9440623 2.79447115,18.4980087 3.05408654,18.6826575 L3.08112981,18.7152426 L3.16225962,18.7478277 C3.24879808,18.8021361 3.70853365,19.127987 4.07632212,20.0783852 C4.18449519,20.4150978 4.41706731,20.8658581 4.81189904,21.2840333 C4.10336538,20.6757784 3.47055288,19.98063 2.92427885,19.2148805 C1.50180288,17.2163287 0.75,14.8430485 0.75,12.3557205 C0.75,10.7862056 1.04747596,9.26556843 1.63701923,7.83182476 C2.20492788,6.44695873 3.01622596,5.20872556 4.0546875,4.14427951 C5.08774038,3.07983345 6.29387019,2.24348298 7.62980769,1.66238233 C9.01442308,1.05955829 10.4855769,0.75 12,0.75 C13.5144231,0.75 14.9855769,1.05412744 16.3701923,1.65695148 C17.7115385,2.23805214 18.9122596,3.07440261 19.9453125,4.13884866 C20.9783654,5.20329471 21.7950721,6.44695873 22.3629808,7.82639392 C22.952524,9.26013758 23.25,10.7807748 23.25,12.3502896 C23.25,14.8376177 22.5036058,17.2108979 21.0811298,19.2094497 C20.3996394,20.1707096 19.5829327,21.0124909 18.6526442,21.7185011 Z" transform="translate(404 1100)"/>
  </g>
</svg>
