<svg xmlns="http://www.w3.org/2000/svg" width="24" height="24" viewBox="0 0 24 24">
  <g fill="none" fill-rule="evenodd" transform="translate(-408 -1104)">
    <path fill="#555" fill-rule="nonzero" d="M5.15057114,18.7759699 C4.24922356,17.610388 3.98056251,17.2298243 3.77613867,16.8565918 C3.74978243,16.8082518 3.74978243,16.8082518 3.73252029,16.7765627 C3.6742509,16.6710862 3.63545115,16.6002063 3.5978242,16.5279965 C3.53694938,16.4111717 3.48629959,16.3041244 3.44325155,16.1969712 C3.25247853,15.722108 3.21630001,15.303531 3.52033503,14.9160982 C4.05481087,14.235014 4.9214677,14.4261149 5.65222251,15.0508822 C6.12291281,15.4533043 6.82451518,16.1735887 7.25229371,16.6856748 C7.53325098,17.0220037 8.04464321,17.3691736 8.4178263,17.4930927 C8.45688092,17.5060612 8.49379849,17.515936 8.52895763,17.5228557 L8.72400934,16.9070811 C7.96682807,16.640544 7.28095213,16.2867433 6.66838053,15.8453435 C5.23933933,14.8156215 3.99497739,12.7956275 4.10165301,11.2540372 C4.1690412,10.2801974 4.49813725,9.32637076 5.08021379,8.39831368 C5.02699997,7.86645659 5.00017436,7.41329601 5.00017436,7.03650726 C5.00017436,6.49899398 5.17655057,5.91441443 5.51392553,5.27338652 C5.63586139,5.0417028 5.87437195,4.893632 6.1374349,4.88630287 C6.74376333,4.86941013 7.3302663,4.9317879 7.89508691,5.07391095 C8.3953161,5.19978118 8.92417661,5.42202361 9.48458739,5.73839532 C10.3228337,5.56457865 11.1353191,5.47728969 11.9217003,5.47728969 C12.7103422,5.47728969 13.5314436,5.56508096 14.3848109,5.73982668 C15.1133606,5.33140257 15.7531321,5.05407871 16.3121485,4.90934907 C17.0390213,4.72116135 17.691145,4.77641555 18.2293593,5.10957449 C18.3034487,5.15543642 18.3686126,5.21418687 18.421727,5.28300939 C18.7513032,5.71005445 18.9347525,6.2767426 18.9945553,6.9753433 C19.0401586,7.50806937 19.0234406,8.03720442 18.9444261,8.56160312 C19.4210985,9.27803738 19.7304464,10.1931413 19.8832012,11.3013938 C20.1322751,13.1084523 19.3062555,14.9705773 17.9938065,16.0432665 C17.3820992,16.5432263 16.5414712,16.935615 15.4706136,17.2323684 C15.5383294,17.469209 15.5868795,17.7058701 15.6159964,17.9422182 C15.6640184,18.3320228 15.6980134,19.3768572 15.720971,21.1202022 C16.9330015,20.4896722 17.8744116,19.8666838 18.5432293,19.2568591 C19.6809318,18.2195075 20.5395018,16.7471136 21.0981995,15.0380884 C21.5655058,13.6086243 21.6560087,12.4019336 21.424302,11.0716298 C21.1425002,9.45371373 20.7354474,8.13589878 20.1218972,7.07697624 C19.4047665,5.83928459 18.2608511,4.66887553 16.8928498,3.81248534 C15.5830312,2.99251846 13.4606162,2.4436264 11.7885993,2.4436264 C10.0331142,2.4436264 8.06831891,3.0123276 6.57848014,4.0633483 C5.12810312,5.08653034 3.92704267,6.62562401 3.23057554,8.13702608 C2.67927758,9.33339679 2.45315393,10.6080429 2.45315393,12.4903609 C2.45315393,14.0149556 3.00728281,15.8676285 3.66086302,17.0269953 C4.17682001,17.9422364 4.90897471,18.8097047 5.98587864,19.7510865 C6.52858357,20.2254952 7.29574756,20.6998385 8.28539333,21.1683328 L8.28539333,20.7034752 C6.95992366,20.3954309 5.90580078,19.7525987 5.15057114,18.7759699 Z M4.75779791,15.5616596 C4.75766134,15.5583681 4.75745545,15.55515 4.75718392,15.5520085 C4.75727746,15.5530907 4.75747753,15.5544821 4.75778624,15.5561702 L4.75779791,15.5616596 Z M6.3029315,17.8964935 C6.93095259,18.708622 7.85538206,19.2066942 9.11825988,19.3922229 C9.4746095,19.444574 9.73854726,19.7484077 9.73854726,20.1062708 L9.73854726,22.2773399 C9.73854726,22.7915829 9.212661,23.1408848 8.73431175,22.9443688 C7.11188352,22.2778411 5.87725815,21.5790695 5.02593075,20.8348767 C3.8314134,19.7906824 2.99401627,18.7985213 2.3930006,17.7323971 C1.62492347,16.3699275 1,14.2805601 1,12.4903609 C1,10.4159853 1.26150843,8.94187711 1.90929132,7.53612463 C2.70626841,5.80660609 4.06420843,4.06647978 5.73712675,2.88630389 C7.48400672,1.65395107 9.74333026,1 11.7885993,1 C13.7227979,1 16.1135497,1.61828844 17.6675651,2.59112634 C19.2336325,3.57150898 20.5447726,4.9130158 21.3813129,6.35679577 C22.0945524,7.5877716 22.5478597,9.05533316 22.8561783,10.8254912 C23.1284283,12.3885673 23.0201159,13.8327157 22.4802931,15.4840036 C21.8498465,17.4125048 20.8675883,19.0970161 19.5258277,20.3204269 C18.5562079,21.2045215 17.1544644,22.0707075 15.3165984,22.9303852 C14.8372813,23.1545898 14.2853607,22.8102051 14.2805387,22.2839096 C14.2588838,19.9204157 14.2215027,18.5063874 14.1736049,18.1175912 C14.1303239,17.7662703 14.0221406,17.4039319 13.846422,17.0292621 C13.6493058,16.6089681 13.8964994,16.1156917 14.352888,16.0186055 C15.6115082,15.750863 16.5182364,15.3798754 17.0705722,14.928441 C18.0099618,14.1606603 18.6207917,12.7836448 18.4434819,11.4972423 C18.303108,10.4788145 18.0178391,9.70865921 17.6031507,9.17881446 C17.4739167,9.01369291 17.4231351,8.80099964 17.4639548,8.59580751 C17.5623133,8.10137948 17.5898567,7.60266046 17.5466278,7.09767122 C17.5158702,6.73836886 17.4447839,6.46756026 17.3451488,6.28119456 C17.1854302,6.22824963 16.9696926,6.23095521 16.6786136,6.30631572 C16.2050704,6.42891629 15.599733,6.70152177 14.8736369,7.12618709 C14.7141698,7.2194532 14.5248903,7.24875796 14.3444176,7.20812224 C13.4923605,7.01627079 12.684876,6.9209161 11.9217003,6.9209161 C11.1592265,6.9209161 10.3605618,7.01609698 9.52523235,7.20750921 C9.34038976,7.24986511 9.14620256,7.2187256 8.98416224,7.12074416 C8.44439106,6.79435901 7.96095232,6.57969794 7.5382907,6.47334566 C7.24084137,6.39849994 6.93424195,6.35234153 6.61789189,6.33502399 C6.50648399,6.61108267 6.45332829,6.84594692 6.45332829,7.03650726 C6.45332829,7.41337061 6.48590617,7.90155043 6.55173972,8.49744452 C6.57041059,8.66644431 6.52843434,8.83656757 6.43320884,8.97783185 C5.89627999,9.77435037 5.60600909,10.5636673 5.55138538,11.3530452 C5.48401322,12.3266535 6.46090232,13.9124543 7.52158456,14.6767485 C8.1757988,15.1481546 8.94159071,15.5011638 9.82345421,15.7350217 C10.2232793,15.8410498 10.453355,16.2569294 10.3291371,16.6490828 L9.77631158,18.3943429 C9.70964927,18.6047945 9.54976456,18.7734022 9.3422759,18.8520586 C8.90109956,19.0193031 8.43009805,19.0193031 7.95716015,18.8622594 C7.32753196,18.6531852 6.58825085,18.1513079 6.13405724,17.6076009 C6.02288147,17.4745143 5.88857214,17.3232514 5.74401977,17.1671803 C5.89367747,17.3652379 6.07664992,17.6038764 6.3029315,17.8964935 Z" transform="translate(408 1104)"/>
  </g>
</svg>
