<svg xmlns="http://www.w3.org/2000/svg" width="24" height="24" viewBox="0 0 24 24">
  <g fill="none" fill-rule="evenodd" transform="translate(-456 -840)">
    <path fill="#555" fill-rule="nonzero" d="M12,23 C5.92486775,23 1,18.0751322 1,12 C1,5.92486775 5.92486775,1 12,1 C18.0751322,1 23,5.92486775 23,12 C23,18.0751322 18.0751322,23 12,23 Z M12,21.4651163 C17.2274394,21.4651163 21.4651163,17.2274394 21.4651163,12 C21.4651163,6.77256062 17.2274394,2.53488372 12,2.53488372 C6.77256062,2.53488372 2.53488372,6.77256062 2.53488372,12 C2.53488372,17.2274394 6.77256062,21.4651163 12,21.4651163 Z M19.1271038,11.3477023 C19.1492619,11.5846124 19.1627724,11.8230088 19.1627907,12.0627974 C19.1627907,12.2982024 19.1492801,12.5336261 19.1284749,12.7661336 C19.121418,12.8381737 19.1127887,12.9161591 19.1035196,12.9867881 C19.0856396,13.145694 19.0620373,13.3045999 19.0341751,13.4591032 C19.0191105,13.5400048 19.0062947,13.6209064 18.9898772,13.6989107 C18.946201,13.9078815 18.8954678,14.1123744 18.8361053,14.3153623 C18.2771075,14.0579069 17.6187273,13.6812628 17.4471485,13.2662939 C17.1347964,12.5174646 16.3033931,12.1437179 15.9646231,11.1800289 C15.4062652,9.58513794 16.1468971,9.62782766 16.2511973,8.6376105 C16.2991333,8.17268951 15.9646232,8.07701862 15.5228328,8.2653501 C14.4941641,8.69794806 14.1453206,8.531667 13.9372687,7.75627188 C13.7291985,6.9823631 13.9372687,6.76755987 13.9372687,6.76755987 C13.235322,6.84405894 13.2088128,5.98924853 13.5727208,5.7744453 C13.8264418,5.62876592 14.0409473,5.18297911 14.253259,4.8372093 C14.9638349,5.10648004 15.6228732,5.48018914 16.2133531,5.94657763 C16.2212693,5.94951268 16.2283262,5.95395285 16.2355112,5.96277678 C16.3727377,6.06870148 16.5050097,6.18051506 16.6343566,6.30117138 C16.6579589,6.32177306 16.6794772,6.34382346 16.7023665,6.36591149 C17.0632945,6.69986589 17.3907112,7.07508014 17.6823678,7.47821485 C17.7223877,7.53413103 17.7653326,7.58558825 17.8024639,7.64005574 C17.8732527,7.7430454 17.9389591,7.85047525 18.0047935,7.95781101 C18.056971,8.04319045 18.1091851,8.12998098 18.1577427,8.21825782 C18.213467,8.31680729 18.2671254,8.41545085 18.3185899,8.51840287 C18.376508,8.63023526 18.4294168,8.74942407 18.4822525,8.8656402 C18.5187439,8.94654183 18.5587637,9.0289298 18.5923482,9.11430924 C18.6724244,9.31439967 18.7445844,9.51599525 18.8089562,9.72197457 C18.8297431,9.7896121 18.8461605,9.86321378 18.866143,9.9308513 C18.909801,10.0853734 18.9498391,10.2442793 18.9826923,10.3987826 C19.0005724,10.4796654 19.0155638,10.560567 19.0305187,10.6414687 C19.0591121,10.8048523 19.0827145,10.9622718 19.1027884,11.1270478 C19.1105949,11.1991631 19.1213814,11.275681 19.1271038,11.3477023 Z M11.3116096,9.57623876 C11.9607206,9.28057152 12.5597566,9.17314168 12.4811429,8.66261476 C12.4031509,8.15788265 12.2208952,7.78127614 11.207218,7.78127614 C10.1929009,7.78127614 10.6353312,9.17314168 9.80328802,8.34331672 C8.97188474,7.51789431 9.98483068,7.73124884 10.4008614,7.54291737 C10.8169835,7.35309956 11.2329959,6.57774208 10.505253,6.52327459 C9.77751003,6.47179858 9.93338445,6.84402134 9.36149761,6.63215314 C8.78962907,6.41734991 8.52945447,7.37957133 8.16481512,7.24570736 C7.92462302,7.15594419 7.28057618,6.66013006 6.85385035,6.17310224 C5.99385366,6.91758539 5.30042649,7.86360769 4.8372093,8.93331541 C4.96094352,10.3722168 5.72153965,11.1270102 5.72153965,11.1270102 C5.72153965,11.1270102 6.11177411,12.0627599 8.45221197,13.213388 C8.45221197,13.213388 8.89327107,13.2398033 8.37359834,12.7057585 C7.8539073,12.1702085 7.28130748,11.5021868 7.93105837,11.1549683 C8.58091897,10.8048336 8.76392423,10.834278 8.91968892,11.4771638 C9.07556334,12.1201623 9.59596739,11.7421071 9.64745018,11.1270478 C9.69964598,10.5134936 10.6611274,9.87200007 11.3116096,9.57623876 Z M16.2905773,13.8710618 C16.5893274,13.681244 17.3034501,14.1771146 17.1483984,14.6993816 C16.9918293,15.2216863 16.4985378,14.9274113 16.251179,14.6993816 C16.0039117,14.4728571 15.9910227,14.057907 16.2905773,13.8710618 Z M12.7156127,13.9386993 C13.5998516,14.7126457 13.1316251,15.4880032 12.6890851,16.0780583 C12.2473679,16.6650843 11.857042,17.3316009 11.6489901,18.539481 C11.4410296,19.7430339 10.8948293,18.8853073 10.7132866,18.5910323 C10.5317439,18.295271 10.2450784,18.0289541 10.324405,16.7974431 C10.4008431,15.5689236 9.56879995,16.2928051 9.28359697,14.6861363 C8.99766268,13.082459 9.69962768,12.8117396 10.8169652,12.8117396 C11.9356739,12.8117396 11.8312823,13.1589581 12.7156127,13.9386993 Z" transform="translate(456 840)"/>
  </g>
</svg>
