<svg xmlns="http://www.w3.org/2000/svg" width="20" height="20" viewBox="0 0 20 20">
  <path fill="#555" d="M10,0 C15.5228475,0 20,4.4771525 20,10 C20,15.5228475 15.5228475,20 10,20 C4.4771525,20 0,15.5228475 0,10 C0,4.4771525 4.4771525,0 10,0 Z M10,1.39534884 C5.24778239,1.39534884 1.39534884,5.24778239 1.39534884,10 C1.39534884,14.7522176 5.24778239,18.6046512 10,18.6046512 C14.7522176,18.6046512 18.6046512,14.7522176 18.6046512,10 C18.6046512,5.24778239 14.7522176,1.39534884 10,1.39534884 Z M12.0484173,3.48837209 C12.6943954,3.73316368 13.2935211,4.07289922 13.830321,4.49688876 C13.8375175,4.49955698 13.8439329,4.5035935 13.8504647,4.51161526 C13.9752161,4.60791044 14.0954634,4.70955914 14.2130514,4.81924671 C14.2345081,4.83797551 14.2540701,4.85802133 14.2748787,4.87810136 C14.602995,5.18169627 14.9006466,5.52280013 15.165789,5.88928623 C15.2021706,5.94011912 15.2412115,5.98689841 15.2749672,6.03641431 C15.3393207,6.13004127 15.3990537,6.22770477 15.4589031,6.32528274 C15.5063373,6.40290041 15.5538046,6.48180089 15.5979479,6.56205257 C15.6486063,6.65164299 15.6973867,6.74131895 15.7441726,6.8349117 C15.7968255,6.93657751 15.8449244,7.04493097 15.8929568,7.150582 C15.9261308,7.22412893 15.9625124,7.29902709 15.9930438,7.37664476 C16.0658404,7.55854515 16.1314404,7.74181386 16.1899602,7.92906779 C16.2088574,7.99055645 16.2237823,8.05746707 16.2419482,8.11895573 C16.2816373,8.25943039 16.3180356,8.40389025 16.3479021,8.5443478 C16.3641567,8.61787764 16.3777853,8.69142458 16.3913806,8.76497151 C16.4173746,8.91350212 16.4388314,9.05661077 16.4570804,9.20640707 C16.4641772,9.27196648 16.4739831,9.3415282 16.4791852,9.40700207 C16.499329,9.62237488 16.5116279,9.83909889 16.5116279,10.0570886 C16.5116279,10.2710931 16.4993456,10.4851147 16.4804318,10.6964851 C16.4740163,10.7619761 16.4661716,10.8328719 16.4577451,10.8970801 C16.4414906,11.04154 16.4200339,11.1859999 16.3947046,11.3264574 C16.3810096,11.4000044 16.3693588,11.4735513 16.3544338,11.5444642 C16.3147282,11.7344377 16.268607,11.9203404 16.2146412,12.1048748 C15.7064613,11.8708245 15.1079339,11.5284207 14.9519532,11.1511763 C14.6679967,10.4704224 13.9121755,10.1306526 13.6042029,9.25457176 C13.0966047,7.80467086 13.7699065,7.84347969 13.8647248,6.94328227 C13.908303,6.52062683 13.6042029,6.43365329 13.2025752,6.60486372 C12.2674219,6.9981346 11.9502915,6.84697 11.7611534,6.14206535 C11.5719986,5.43851191 11.7611534,5.24323625 11.7611534,5.24323625 C11.12302,5.31278086 11.0989207,4.53568049 11.4297462,4.34040482 C11.6604016,4.20796902 11.8554067,3.80270829 12.0484173,3.48837209 Z M9.37419054,7.79658069 C9.96429148,7.52779229 10.5088696,7.4301288 10.4374027,6.96601342 C10.3665008,6.50716604 10.2008138,6.16479649 9.27928909,6.16479649 C8.35718264,6.16479649 8.75939198,7.4301288 8.00298911,6.67574247 C7.24716795,5.92535846 8.16802789,6.11931713 8.54623763,5.9481067 C8.92453048,5.77554505 9.30272358,5.07067462 8.64113908,5.02115872 C7.97955458,4.97436234 8.12125859,5.31274668 7.60136146,5.12013922 C7.08148097,4.92486355 6.84495861,5.7996103 6.51346829,5.67791578 C6.29511184,5.5963129 5.7096147,5.14557278 5.32168214,4.70282022 C4.53986696,5.37962308 3.90947863,6.23964335 3.48837209,7.21210492 C3.60085774,8.52019708 4.29230877,9.20637291 4.29230877,9.20637291 C4.29230877,9.20637291 4.64706737,10.0570544 6.77473816,11.10308 C6.77473816,11.10308 7.17570097,11.1270939 6.70327121,10.6415986 C6.23082482,10.154735 5.71027952,9.54744255 6.30096215,9.23178937 C6.89174452,8.91348506 7.05811294,8.94025273 7.1997172,9.52469432 C7.34142121,10.1092385 7.81451581,9.76555194 7.86131834,9.20640707 C7.90876907,8.64863051 8.78284309,8.06545461 9.37419054,7.79658069 Z M8.92451384,10.7379451 C9.94152175,10.7379451 9.8466203,11.0535983 10.650557,11.7624539 C11.4544106,12.4660416 11.0287501,13.170912 10.626441,13.7073257 C10.2248799,14.2409857 9.87003816,14.8469099 9.68090006,15.9449828 C9.49184506,17.0391217 8.99529936,16.2593703 8.83026056,15.9918475 C8.66522176,15.7229736 8.4046167,15.4808674 8.47673184,14.3613119 C8.54622099,13.244476 7.78981814,13.9025501 7.5305427,12.4419421 C7.27060244,10.9840537 7.90875244,10.7379451 8.92451384,10.7379451 Z M13.9005248,11.7009653 C14.1721158,11.5284036 14.8213183,11.9791951 14.6803622,12.4539833 C14.5380266,12.9288057 14.0895798,12.661283 13.8647082,12.4539833 C13.6399197,12.2480519 13.6282025,11.8708245 13.9005248,11.7009653 Z"/>
</svg>
