<svg xmlns="http://www.w3.org/2000/svg" width="24" height="24" viewBox="0 0 24 24">
  <path fill="#555" d="M12,22 C6.4771525,22 2,17.5228475 2,12 C2,6.4771525 6.4771525,2 12,2 C17.5228475,2 22,6.4771525 22,12 C22,17.5228475 17.5228475,22 12,22 Z M12,20.6046512 C16.7522176,20.6046512 20.6046512,16.7522176 20.6046512,12 C20.6046512,7.24778239 16.7522176,3.39534884 12,3.39534884 C7.24778239,3.39534884 3.39534884,7.24778239 3.39534884,12 C3.39534884,16.7522176 7.24778239,20.6046512 12,20.6046512 Z M18.4791852,11.4070021 C18.499329,11.6223749 18.5116113,11.8390989 18.5116279,12.0570886 C18.5116279,12.2710931 18.4993456,12.4851147 18.4804318,12.6964851 C18.4740163,12.7619761 18.4661716,12.8328719 18.4577451,12.8970801 C18.4414906,13.04154 18.4200339,13.1859999 18.3947046,13.3264574 C18.3810096,13.4000044 18.3693588,13.4735513 18.3544338,13.5444642 C18.3147282,13.7344377 18.268607,13.9203404 18.2146412,14.1048748 C17.7064613,13.8708245 17.1079339,13.5284207 16.9519532,13.1511763 C16.6679967,12.4704224 15.9121755,12.1306526 15.6042029,11.2545718 C15.0966047,9.80467086 15.7699065,9.84347969 15.8647248,8.94328227 C15.908303,8.52062683 15.6042029,8.43365329 15.2025752,8.60486372 C14.2674219,8.9981346 13.9502915,8.84697 13.7611534,8.14206535 C13.5719986,7.43851191 13.7611534,7.24323625 13.7611534,7.24323625 C13.12302,7.31278086 13.0989207,6.53568049 13.4297462,6.34040482 C13.6604016,6.20796902 13.8554067,5.80270829 14.0484173,5.48837209 C14.6943954,5.73316368 15.2935211,6.07289922 15.830321,6.49688876 C15.8375175,6.49955698 15.8439329,6.5035935 15.8504647,6.51161526 C15.9752161,6.60791044 16.0954634,6.70955914 16.2130514,6.81924671 C16.2345081,6.83797551 16.2540701,6.85802133 16.2748787,6.87810136 C16.602995,7.18169627 16.9006466,7.52280013 17.165789,7.88928623 C17.2021706,7.94011912 17.2412115,7.98689841 17.2749672,8.03641431 C17.3393207,8.13004127 17.3990537,8.22770477 17.4589031,8.32528274 C17.5063373,8.40290041 17.5538046,8.48180089 17.5979479,8.56205257 C17.6486063,8.65164299 17.6973867,8.74131895 17.7441726,8.8349117 C17.7968255,8.93657751 17.8449244,9.04493097 17.8929568,9.150582 C17.9261308,9.22412893 17.9625124,9.29902709 17.9930438,9.37664476 C18.0658404,9.55854515 18.1314404,9.74181386 18.1899602,9.92906779 C18.2088574,9.99055645 18.2237823,10.0574671 18.2419482,10.1189557 C18.2816373,10.2594304 18.3180356,10.4038902 18.3479021,10.5443478 C18.3641567,10.6178776 18.3777853,10.6914246 18.3913806,10.7649715 C18.4173746,10.9135021 18.4388314,11.0566108 18.4570804,11.2064071 C18.4641772,11.2719665 18.4739831,11.3415282 18.4791852,11.4070021 Z M11.3741905,9.79658069 C11.9642915,9.52779229 12.5088696,9.4301288 12.4374027,8.96601342 C12.3665008,8.50716604 12.2008138,8.16479649 11.2792891,8.16479649 C10.3571826,8.16479649 10.759392,9.4301288 10.0029891,8.67574247 C9.24716795,7.92535846 10.1680279,8.11931713 10.5462376,7.9481067 C10.9245305,7.77554505 11.3027236,7.07067462 10.6411391,7.02115872 C9.97955458,6.97436234 10.1212586,7.31274668 9.60136146,7.12013922 C9.08148097,6.92486355 8.84495861,7.7996103 8.51346829,7.67791578 C8.29511184,7.5963129 7.7096147,7.14557278 7.32168214,6.70282022 C6.53986696,7.37962308 5.90947863,8.23964335 5.48837209,9.21210492 C5.60085774,10.5201971 6.29230877,11.2063729 6.29230877,11.2063729 C6.29230877,11.2063729 6.64706737,12.0570544 8.77473816,13.10308 C8.77473816,13.10308 9.17570097,13.1270939 8.70327121,12.6415986 C8.23082482,12.154735 7.71027952,11.5474426 8.30096215,11.2317894 C8.89174452,10.9134851 9.05811294,10.9402527 9.1997172,11.5246943 C9.34142121,12.1092385 9.81451581,11.7655519 9.86131834,11.2064071 C9.90876907,10.6486305 10.7828431,10.0654546 11.3741905,9.79658069 Z M15.9005248,13.7009653 C16.1721158,13.5284036 16.8213183,13.9791951 16.6803622,14.4539833 C16.5380266,14.9288057 16.0895798,14.661283 15.8647082,14.4539833 C15.6399197,14.2480519 15.6282025,13.8708245 15.9005248,13.7009653 Z M12.650557,13.7624539 C13.4544106,14.4660416 13.0287501,15.170912 12.626441,15.7073257 C12.2248799,16.2409857 11.8700382,16.8469099 11.6809001,17.9449828 C11.4918451,19.0391217 10.9952994,18.2593703 10.8302606,17.9918475 C10.6652218,17.7229736 10.4046167,17.4808674 10.4767318,16.3613119 C10.546221,15.244476 9.78981814,15.9025501 9.5305427,14.4419421 C9.27060244,12.9840537 9.90875244,12.7379451 10.9245138,12.7379451 C11.9415217,12.7379451 11.8466203,13.0535983 12.650557,13.7624539 Z"/>
</svg>
