<svg xmlns="http://www.w3.org/2000/svg" width="24" height="24" viewBox="0 0 24 24">
  <g fill="none" fill-rule="evenodd" transform="translate(-456 -840)">
    <path fill="#555" fill-rule="nonzero" d="M21.7709839,11.088832 C21.76348,10.9970644 21.7493355,10.8995672 21.7390987,10.8076797 C21.7127754,10.5977264 21.6818251,10.3971465 21.64433,10.1889671 C21.6247194,10.0858844 21.6050609,9.98280157 21.5816145,9.87974273 C21.5385334,9.68287856 21.4860307,9.48040479 21.4287812,9.28351664 C21.4025778,9.19733463 21.3810493,9.10355325 21.353791,9.01737124 C21.2693791,8.75491765 21.1747543,8.4980497 21.0697489,8.24309958 C21.0257089,8.13431128 20.9732302,8.02933463 20.9253784,7.92625184 C20.856094,7.77817221 20.7867137,7.62630487 20.7107646,7.4838109 C20.6432782,7.35263205 20.5729149,7.22694295 20.4998427,7.10137373 C20.4361681,6.98889363 20.3676988,6.87830735 20.2992775,6.76951905 C20.2129477,6.63275456 20.1267857,6.49587019 20.033959,6.36464339 C19.9852681,6.2952423 19.9289535,6.22967684 19.8764748,6.15842986 C19.49402,5.6447659 19.0646724,5.16667748 18.5913808,4.7411613 C18.5613656,4.7130173 18.5331484,4.68492124 18.5021981,4.6586711 C18.3325832,4.5049339 18.1591324,4.3624639 17.9791847,4.22749734 C17.969763,4.21625412 17.9605091,4.21059656 17.9501284,4.2068568 C17.1758212,3.61259648 16.311612,3.13642589 15.3798206,2.79332798 C15.1014124,3.23389905 14.8201273,3.80190923 14.4874182,3.98753018 C14.0102189,4.26122698 14.044981,5.35040459 14.9654567,5.25293142 C14.9654567,5.25293142 14.6926104,5.52662822 14.9654567,6.51272304 C15.238279,7.5007117 15.695724,7.71258279 17.0446363,7.16137751 C17.6239643,6.92141034 18.0626137,7.04331176 17.9997543,7.63570221 C17.8629835,8.89741165 16.8917791,8.8430175 17.6239642,10.8751869 C18.0681996,12.1030948 19.1584341,12.5793133 19.5680273,13.5334525 C19.7930218,14.0621953 20.6563679,14.5421056 21.3893921,14.8701486 C21.4672352,14.6115067 21.5337626,14.350947 21.5910361,14.0846817 C21.6125647,13.9852907 21.6293703,13.8822079 21.6491248,13.7791251 C21.6856609,13.582261 21.7166111,13.3797872 21.7400576,13.1773134 C21.7522123,13.0873197 21.7635279,12.9879527 21.7727819,12.8961611 C21.8000641,12.5999059 21.8177808,12.299935 21.8177808,11.999988 C21.8177568,11.6944554 21.8000402,11.3906968 21.7709839,11.088832 L21.7709839,11.088832 L21.7709839,11.088832 Z M11.9995805,22.9107505 C5.9749054,22.9107505 1.09011469,18.0271192 1.09011469,11.999988 C1.09011469,5.97278496 5.9749054,1.0910475 11.9995805,1.0910475 C18.0250946,1.0910475 22.9089503,5.97278496 22.9089503,11.999988 C22.9089503,18.0271431 18.0250946,22.9107505 11.9995805,22.9107505 L11.9995805,22.9107505 L11.9995805,22.9107505 Z M11.9995805,0 C5.37213101,0 0,5.37289102 0,12.000012 C0,18.6270371 5.37213101,24 11.9995805,24 C18.626934,24 24,18.6270371 24,12.000012 C24,5.37289102 18.626934,0 11.9995805,0 L11.9995805,0 L11.9995805,0 Z M11.5223811,8.83167839 C12.3735724,8.45494673 13.1590994,8.31806238 13.0560119,7.667562 C12.9537395,7.02444523 12.7147442,6.54458283 11.3854905,6.54458283 C10.0553976,6.54458283 10.6355646,8.31806238 9.54449098,7.26072059 C8.45425641,6.20898841 9.78255124,6.48083932 10.3281,6.24087216 C10.8737687,5.99901115 11.4192935,5.01107044 10.4649907,4.94166935 C9.51068782,4.87607993 9.71508884,5.35035668 8.96516299,5.08039962 C8.21526115,4.80670282 7.87408936,6.0327408 7.39593101,5.86217475 C7.08096265,5.7478008 6.23641205,5.11604709 5.67683855,4.49548868 C4.5491089,5.44409011 3.63980496,6.64948758 3.03237966,8.01248187 C3.19463463,9.84589329 4.19201848,10.8076318 4.19201848,10.8076318 C4.19201848,10.8076318 4.70374017,11.9999401 7.77279984,13.4660412 C7.77279984,13.4660412 8.35116884,13.4996989 7.66971232,12.8192326 C6.9882318,12.1368485 6.23737102,11.2856723 7.08940144,10.8432553 C7.94157572,10.3971225 8.18155392,10.4346399 8.38581105,11.2537885 C8.59021207,12.0730809 9.27262758,11.5913726 9.34013791,10.8076797 C9.40858324,10.0259045 10.6693917,9.20852991 11.5223811,8.83167839 Z M18.0513939,14.3040323 C17.6585825,14.5421056 17.675484,15.0708245 17.9997303,15.3594563 C18.3240964,15.6500059 18.9709587,16.0249636 19.1762707,15.3594563 C19.3795929,14.6939969 18.4431505,14.0621713 18.0513939,14.3040323 L18.0513939,14.3040323 L18.0513939,14.3040323 Z M13.3634764,14.3902143 C12.2038376,13.396688 12.3407282,12.954271 10.8737447,12.954271 C9.40855924,12.954271 8.48805949,13.2992148 8.86301044,15.3425795 C9.23700241,17.3897558 10.328076,16.4674045 10.2278414,18.0327527 C10.1238189,19.6019126 10.4997288,19.9412468 10.737789,20.3180983 C10.9758493,20.693056 11.6920919,21.7859494 11.9647944,20.252413 C12.2376167,18.7133629 12.7494583,17.8641045 13.3286904,17.1161309 C13.9090013,16.3642978 14.5229954,15.3763571 13.3634764,14.3902143 L13.3634764,14.3902143 L13.3634764,14.3902143 Z" transform="translate(456 840)"/>
  </g>
</svg>
