<svg xmlns="http://www.w3.org/2000/svg" width="24" height="24" viewBox="0 0 24 24">
  <path fill="#555" d="M15.6705038,4.15775755 C17.7733256,3.6643364 19.8346764,4.37952015 20.8050117,5.59161872 C21.7007318,6.71051134 22.1078092,7.87372498 21.9755956,9.58978592 C21.8803055,10.8265996 21.4754445,11.7435134 20.6768484,12.753173 C20.5296466,12.9392792 20.3687155,13.1302896 20.1658464,13.362046 C20.0465566,13.4983221 19.5949329,14.0061955 19.6178177,13.9803526 C18.8186802,14.8827879 16.4625844,17.143494 12.5145935,20.799202 C12.224182,21.0681134 11.7677789,21.0667637 11.4790508,20.7961397 C8.089961,17.6195561 5.89625857,15.5278592 4.89042367,14.5135158 C3.03250481,12.6398805 2.32646894,11.5511668 2.06986914,9.79291272 C1.80143934,7.95359801 2.31465113,6.44412412 3.46841698,5.27151837 C4.55037542,4.17189257 6.4852998,3.76441086 8.39590277,4.15285729 C9.51456274,4.38029307 10.7059751,5.11194275 11.9964538,6.33297717 C13.0971959,5.20423085 14.323284,4.47387885 15.6705038,4.15775755 Z"/>
</svg>
