<svg xmlns="http://www.w3.org/2000/svg" width="24" height="24" viewBox="0 0 24 24">
  <g fill="none" fill-rule="evenodd" transform="translate(-696 -696)">
    <path fill="#555" fill-rule="nonzero" d="M16.0375542,3.17631726 C18.3506582,2.62484656 20.618144,3.42416958 21.6855129,4.77886798 C22.670805,6.02939503 23.1185901,7.32945733 22.9731552,9.24740779 C22.8683361,10.6297289 22.422989,11.654515 21.5445333,12.782958 C21.3826113,12.9909591 21.205587,13.2044413 20.9824311,13.4634632 C20.8512122,13.6157717 20.3544262,14.183395 20.3795994,14.1545118 C19.5005482,15.1631159 16.9088428,17.6897874 12.5660529,21.7755787 C12.2466002,22.0761267 11.7445568,22.0746183 11.4269559,21.7721562 C7.6989571,18.2218568 5.28588442,15.8840779 4.17946604,14.7504 C2.13575529,12.656337 1.35911584,11.4395394 1.07685605,9.47443186 C0.78158327,7.41872719 1.34611624,5.73166814 2.61525868,4.42110876 C3.80541296,3.19211523 5.93382978,2.73669449 8.03549304,3.1708405 C9.26601902,3.42503343 10.5765726,4.24275954 11.9960992,5.60744508 C13.2069154,4.34590506 14.5556124,3.52962931 16.0375542,3.17631726 Z" transform="translate(696 696)"/>
  </g>
</svg>
