<svg xmlns="http://www.w3.org/2000/svg" width="24" height="24" viewBox="0 0 24 24">
  <g fill="none" fill-rule="evenodd" transform="translate(-648 -696)">
    <path fill="#555" fill-rule="nonzero" d="M16.0497676,3.20286875 C18.2575569,2.66722322 20.0842285,3.23239856 21.3836107,4.42653364 C22.518903,5.46986966 23.1746157,7.2856183 22.9593138,9.33227566 C22.797738,10.8682139 21.9766791,12.427262 20.4927766,14.0496936 L12.4920737,21.7867276 C12.1968751,22.0721977 11.7264493,22.0709289 11.4328122,21.7838706 L3.49263051,14.0203185 C2.3177633,12.7533866 1.56783801,11.5500699 1.25578514,10.3963159 C0.803054781,8.72243466 0.957198722,7.03126755 1.67144221,5.65406946 C2.51815453,4.02144613 4.2077838,3.05185814 6.65586855,3.05185814 C8.33079888,3.05185814 10.0879944,3.8927033 11.9420577,5.53376939 C13.2040861,4.34180337 14.5745945,3.56076971 16.0497676,3.20286875 Z M11.9668549,20.1929923 L19.4038318,13.002989 C20.6551857,11.6330018 21.3282687,10.3549342 21.4523418,9.17549625 C21.6188011,7.59313599 21.1330128,6.24792901 20.35526,5.5331725 C19.4107559,4.66517118 18.0942672,4.2578473 16.408891,4.66674694 C15.0264754,5.00214342 13.7311106,5.80589736 12.517113,7.09618321 C12.2281286,7.40332762 11.7422216,7.41566704 11.4378504,7.12359067 C9.63724431,5.39571877 8.03680694,4.55867128 6.65586855,4.55867128 C4.76145112,4.55867128 3.59818919,5.22620516 3.0180838,6.34475934 C2.4810864,7.38019304 2.36211242,8.68549825 2.71897758,10.0049368 C2.95939209,10.8938221 3.58425181,11.8964608 4.58065882,12.9722823 L11.9668549,20.1929923 Z" transform="translate(648 696)"/>
  </g>
</svg>
