<svg xmlns="http://www.w3.org/2000/svg" width="24" height="24" viewBox="0 0 24 24">
  <path fill="#555" d="M15.6816069,4.18151414 C17.6886881,3.70225236 19.3492986,4.20793555 20.5305552,5.27637221 C21.5626391,6.20988338 22.1587415,7.83450059 21.9630126,9.66572033 C21.8161255,11.0399809 21.0697083,12.4349186 19.720706,13.886568 L12.4473397,20.8091773 C12.1789774,21.0645979 11.7513176,21.0634627 11.4843747,20.806621 L4.26602773,13.860285 C3.19796664,12.7267143 2.51621638,11.6500625 2.23253195,10.6177563 C1.82095889,9.12007311 1.96108975,7.6069236 2.61040201,6.37469373 C3.38014048,4.91392548 4.91616709,4.04639939 7.14169869,4.04639939 C8.66436262,4.04639939 10.2618131,4.79873453 11.9473252,6.26705682 C13.0946237,5.20056091 14.3405404,4.50174132 15.6816069,4.18151414 Z M11.9698681,19.3832036 L18.7307562,12.9500428 C19.8683506,11.7242648 20.4802442,10.5807306 20.593038,9.52544401 C20.7443646,8.10964799 20.3027389,6.90604174 19.5956909,6.26652276 C18.7370508,5.48989 17.5402429,5.12544232 16.0080827,5.49129989 C14.7513412,5.79139148 13.5737369,6.51053975 12.4701027,7.66500603 C12.2073896,7.93981945 11.765656,7.95085998 11.4889549,7.6895285 C9.85204028,6.14353785 8.39709722,5.39460061 7.14169869,5.39460061 C5.41950102,5.39460061 4.36199017,5.99186778 3.83462163,6.99267941 C3.34644218,7.91912009 3.23828402,9.08702475 3.56270689,10.2675751 C3.78126554,11.0628935 4.34931983,11.9599913 5.25514439,12.9225684 L11.9698681,19.3832036 Z"/>
</svg>
