<svg xmlns="http://www.w3.org/2000/svg" width="24" height="24" viewBox="0 0 24 24">
  <g fill="none" fill-rule="evenodd" transform="translate(-644 -692)">
    <path fill="#555" fill-rule="nonzero" d="M22.2928645,1.69191895 C21.1581817,0.5657325 19.5945679,0 17.5920096,0 C17.0373922,0 16.472646,0.0995485714 15.8974089,0.293372518 C15.3197524,0.489792911 14.7883368,0.756906455 14.2902937,1.08695054 C13.7973413,1.41956432 13.3685991,1.72854233 13.011656,2.02191485 C12.6522148,2.31261062 12.3184367,2.62164217 11.9950551,2.94903627 C11.6715108,2.61899218 11.3326578,2.31261062 10.9783702,2.02191485 C10.6188765,1.73119232 10.1952775,1.41696785 9.69978504,1.08695054 C9.20682213,0.754310009 8.67026862,0.489792911 8.09257539,0.293372518 C7.52000954,0.096952125 6.95005723,7.61295788e-16 6.39801138,7.61295788e-16 C4.39802471,7.61295788e-16 2.83192327,0.5657325 1.69714606,1.69191895 C0.56226386,2.81805721 0,4.38687212 0,6.39033879 C0,7.00058574 0.1078586,7.62651316 0.318385444,8.27343169 C0.528912289,8.92035021 0.767700053,9.47293449 1.03470677,9.92862554 C1.30170299,10.3869666 1.6072044,10.8269718 1.94356979,11.2591288 C2.27994567,11.6911573 2.53151252,11.9898834 2.68562248,12.1548251 C2.83961173,12.3170901 2.96545027,12.4349744 3.05273638,12.5109676 L11.4071596,20.7348257 C11.5637467,20.8943069 11.7666008,20.9836035 11.9951023,20.9836035 C12.2236039,20.9836035 12.4238182,20.9022836 12.5830451,20.7348257 L20.9246945,12.539823 C22.9681877,10.4550097 23.9926608,8.40705538 23.9926608,6.39566553 C23.9899843,4.38687212 23.4277047,2.81805721 22.2928645,1.69191895 Z M19.7640809,11.2511574 L11.9950499,18.8908134 L4.21315575,11.2356055 C2.54433361,9.53319362 1.70732211,7.91728921 1.70732211,6.38509232 C1.70732211,5.64654841 1.80489448,4.99709231 1.99490132,4.43130627 C2.18743775,3.86565407 2.43131617,3.42040773 2.73173218,3.08517072 C3.02954513,2.75255695 3.39411897,2.48011666 3.82285586,2.27068722 C4.25166097,2.06112394 4.67010638,1.9197109 5.08092105,1.8464213 C5.49174097,1.7730514 5.92817157,1.73637983 6.39032823,1.73637983 C6.85756506,1.73637983 7.35572358,1.8516142 7.89227183,2.08470616 C8.42887258,2.31785167 8.92177253,2.60589745 9.37115013,2.96206666 C9.82555539,3.31301622 10.2055009,3.64300677 10.5290294,3.94684004 C10.8525737,4.25065192 11.1169721,4.53090833 11.3326421,4.78752897 C11.4892344,4.98654581 11.7125876,5.08614793 11.9898963,5.08614793 C12.2646334,5.08614793 12.4828487,4.98654581 12.6472449,4.78752897 C12.8602383,4.53085479 13.1272083,4.25324837 13.4508051,3.94684004 C13.7742445,3.64305493 14.1593488,3.31560731 14.6086844,2.96206666 C15.0630634,2.61109034 15.5509777,2.32044812 16.0875364,2.08470616 C16.6241529,1.84901775 17.1221908,1.73637983 17.5894801,1.73637983 C18.0568218,1.73637983 18.4879991,1.77572815 18.898924,1.8464213 C19.309639,1.91711446 19.7282261,2.06112394 20.156837,2.27068722 C20.5857103,2.48019696 20.9502369,2.75261049 21.2480131,3.08517072 C21.5458418,3.41781126 21.7949106,3.8656594 21.9848965,4.43130627 C22.1773961,4.99703877 22.2724914,5.64655377 22.2724914,6.38509232 C22.2801116,7.92245534 21.4405758,9.53844008 19.7640809,11.2511574 Z" transform="translate(644 694)"/>
  </g>
</svg>
