<svg xmlns="http://www.w3.org/2000/svg" width="24" height="24" viewBox="0 0 24 24">
  <g fill="none" fill-rule="evenodd" transform="translate(-696 -696)">
    <path fill="#555" fill-rule="nonzero" d="M22.2928645,1.69191895 C21.1581817,0.5657325 19.5945679,0 17.5920096,0 C17.0373922,0 16.472646,0.0995485714 15.8974089,0.293372518 C15.3197524,0.489792911 14.7883368,0.756906455 14.2902937,1.08695054 C13.7973413,1.41956432 13.3685991,1.72854233 13.011656,2.02191485 C12.6522148,2.31261062 12.3184367,2.62164217 11.9950551,2.94903627 C11.6715108,2.61899218 11.3326578,2.31261062 10.9783702,2.02191485 C10.6188765,1.73119232 10.1952775,1.41696785 9.69978504,1.08695054 C9.20682213,0.754310009 8.67026862,0.489792911 8.09257539,0.293372518 C7.52000954,0.096952125 6.95005723,7.61295788e-16 6.39801138,7.61295788e-16 C4.39802471,7.61295788e-16 2.83192327,0.5657325 1.69714606,1.69191895 C0.56226386,2.81805721 0,4.38687212 0,6.39033879 C0,7.00058574 0.1078586,7.62651316 0.318385444,8.27343169 C0.528912289,8.92035021 0.767700053,9.47293449 1.03470677,9.92862554 C1.30170299,10.3869666 1.6072044,10.8269718 1.94356979,11.2591288 C2.27994567,11.6911573 2.53151252,11.9898834 2.68562248,12.1548251 C2.83961173,12.3170901 2.96545027,12.4349744 3.05273638,12.5109676 L11.4071596,20.7348257 C11.5637467,20.8943069 11.7666008,20.9836035 11.9951023,20.9836035 C12.2236039,20.9836035 12.4238182,20.9022836 12.5830451,20.7348257 L20.9246945,12.539823 C22.9681877,10.4550097 23.9926608,8.40705538 23.9926608,6.39566553 C23.9899843,4.38687212 23.4277047,2.81805721 22.2928645,1.69191895 Z" transform="translate(696 698)"/>
  </g>
</svg>
