<svg xmlns="http://www.w3.org/2000/svg" width="24" height="24" viewBox="0 0 24 24">
  <g fill="none" fill-rule="evenodd" transform="translate(-432 -768)">
    <path fill="#000" fill-opacity=".65" d="M22.6838734,13.8929011 L12.7849217,23.5009503 C12.0560013,24.1663499 10.946659,24.1663499 10.2177386,23.5009503 L0.316126626,13.8929011 C-0.0775967943,13.5360537 -0.106860021,12.9269983 0.246958998,12.529905 L0.246958998,12.529905 C0.600778018,12.1328116 1.20732491,12.1032979 1.59838804,12.4601453 L11.5,22.0681945 L21.401612,12.4601453 C21.7953354,12.1032979 22.399222,12.1328116 22.753041,12.529905 L22.753041,12.529905 C23.10686,12.9269983 23.0775968,13.5360537 22.6838734,13.8929011 Z M20.0395418,10.3297932 L20.0395418,10.3297932 C19.5101434,10.3297932 19.0818361,9.89782001 19.0818361,9.36389044 L19.0818361,1.93180548 L15.2776166,1.93180548 L15.2776166,8.37115707 C15.2776166,9.43901621 14.4210021,10.3029625 13.3622054,10.3029625 L9.63779463,10.3029625 C8.57899787,10.3029625 7.7223834,9.43901621 7.7223834,8.37115707 L7.7223834,1.93180548 L3.91816386,1.93180548 L3.91816386,9.36389044 C3.91816386,9.89782001 3.48985663,10.3297932 2.96045825,10.3297932 L2.96045825,10.3297932 C2.43105986,10.3297932 2.00275263,9.89782001 2.00275263,9.36389044 L2.00275263,1.93180548 C2.00275263,0.863946339 2.8593671,-1.13686838e-13 3.91816386,-1.13686838e-13 L19.0818361,-1.13686838e-13 C20.1406329,-1.13686838e-13 20.9972474,0.863946339 20.9972474,1.93180548 L20.9972474,9.36389044 C20.9972474,9.89782001 20.5689401,10.3297932 20.0395418,10.3297932 Z M9.63779463,8.37115707 L13.3622054,8.37115707 L13.3622054,1.93180548 L9.63779463,1.93180548 L9.63779463,8.37115707 Z" transform="matrix(1 0 0 -1 433 792)"/>
  </g>
</svg>
