<svg xmlns="http://www.w3.org/2000/svg" width="24" height="24" viewBox="0 0 24 24">
  <path fill="#555" d="M8.96521476,20.5940839 L8.96521476,14.4020484 C8.96521476,13.8501051 9.41311755,13.4026667 9.96563364,13.4026667 L14.8116937,13.4026667 C15.3642098,13.4026667 15.8121126,13.8501051 15.8121126,14.4020484 L15.8121126,20.5945731 L14.4115261,20.594473 L14.4115261,14.8018011 L10.3658012,14.8018011 L10.3658012,20.594184 L14.4115261,20.594473 L14.4115261,14.8018011 L10.3658012,14.8018011 L10.3658012,20.594184 L8.96521476,20.5940839 L8.96521476,14.4020484 C8.96521476,13.8501051 9.41311755,13.4026667 9.96563364,13.4026667 L14.8116937,13.4026667 C15.3642098,13.4026667 15.8121126,13.8501051 15.8121126,14.4020484 L15.8121126,20.5945731 L19.0178944,20.5948021 C19.3432429,20.6121015 19.5126095,20.5810976 19.4938437,20.5983976 C19.4497184,20.6390764 19.4917428,20.4096651 19.4777523,19.9700942 L19.4777523,14.0728715 C19.4777523,13.6865112 19.7912843,13.3733043 20.1780455,13.3733043 C20.5648068,13.3733043 20.8783387,13.6865112 20.8783387,14.0728715 L20.8779659,19.9472709 C20.9045058,20.7594781 20.8070167,21.291671 20.4437066,21.6266035 C20.105756,21.9381573 19.6163877,22.02774 18.9806726,21.9929477 L5.14358762,21.9921612 C4.50135353,21.9617139 4.00101685,21.6995595 3.76807877,21.1740143 C3.61416876,20.826769 3.54233858,20.4172981 3.54233858,19.9457519 L3.54233858,14.0728715 C3.54233858,13.6865112 3.85587053,13.3733043 4.2426318,13.3733043 C4.62939306,13.3733043 4.94292502,13.6865112 4.94292502,14.0728715 L4.94292502,19.9457519 C4.94292502,20.2355516 4.98161475,20.4561039 5.04874456,20.6075594 C5.03684629,20.580715 5.04875819,20.5869563 5.17678453,20.5938132 L8.96521476,20.5940839 Z M12.4018236,3.50898373 L3.15769646,11.4741186 C2.86482741,11.7264671 2.42262897,11.6938648 2.17001861,11.4012994 C1.91740824,11.1087339 1.95004435,10.6669939 2.2429134,10.4146454 L11.6885128,2.27591349 L11.7747863,2.2123954 C11.9894381,2.07839547 12.2025363,2 12.4342636,2 C12.6979883,2 12.9335521,2.1036477 13.156261,2.29711334 L21.7806041,10.4358453 C22.0617527,10.7011632 22.0743627,11.1439255 21.8087695,11.4247826 C21.5431762,11.7056396 21.0999544,11.7182366 20.8188059,11.4529187 L12.4018236,3.50898373 Z"/>
</svg>
