<svg xmlns="http://www.w3.org/2000/svg" width="24" height="24" viewBox="0 0 24 24">
  <g fill="none" fill-rule="evenodd" transform="translate(-360 -840)">
    <path fill="#555" fill-rule="nonzero" d="M7.95808665,21.4797568 L7.95808665,14.2926972 C7.95808665,13.872855 8.29729322,13.5325056 8.71572573,13.5325056 L14.7768383,13.5325056 C15.1952708,13.5325056 15.5344774,13.872855 15.5344774,14.2926972 L15.5344774,21.4800639 L18.3333605,21.4801773 C18.4412665,21.4760176 18.5251665,21.4671569 18.58271,21.4596448 C18.588514,21.3995182 18.5915777,21.3235793 18.5907536,21.2318213 L18.5909124,14.2893672 C18.590922,13.869525 18.9301364,13.5291834 19.3485689,13.5291931 C19.7670014,13.5292027 20.1062001,13.8695599 20.1061905,14.2894021 L20.1059996,21.2248359 C20.1119888,21.8771673 19.9896563,22.3494462 19.5993559,22.6516032 C19.3010239,22.8825616 18.9057568,22.9796164 18.3624477,23 L4.48346492,22.9997015 C3.86961191,22.9824374 3.38486601,22.8118189 3.07125061,22.4182996 C2.79329968,22.0695315 2.68322544,21.5965073 2.68425496,20.9934992 L2.68424909,14.2893853 C2.68424872,13.8695431 3.02345499,13.5291934 3.4418875,13.5291931 C3.86032001,13.5291927 4.19952687,13.8695418 4.19952724,14.289384 L4.199532,20.9947994 C4.19904359,21.2811808 4.23526541,21.4410529 4.2538782,21.4676906 C4.24030246,21.4480656 4.31738234,21.474056 4.50469304,21.4796169 L7.95808665,21.4797568 Z M9.4733648,21.4798183 L14.0191993,21.4800025 L14.0191993,15.0528888 L9.4733648,15.0528888 L9.4733648,21.4798183 Z M2.28332829,11.4133771 C1.98200714,11.7046849 1.50237937,11.6957445 1.21204968,11.3934082 C0.921719999,11.0910719 0.930630346,10.6098283 1.2319515,10.3185205 L10.4507678,1.41136668 C10.7833916,1.14885042 11.1310579,1 11.4999998,1 C11.9102569,1 12.2738276,1.19453217 12.5845816,1.51087139 L21.7658664,10.3164197 C22.0683439,10.6065186 22.0791684,11.0877227 21.7900436,11.3912192 C21.5009189,11.6947157 21.0213305,11.7055767 20.718853,11.4154779 L11.5218713,2.5944308 C11.4545418,2.52599021 11.4440624,2.52038312 11.4999998,2.52038312 C11.514622,2.52038312 11.4750696,2.53731716 11.4448602,2.55629655 L2.28332829,11.4133771 Z" transform="translate(361 840)"/>
  </g>
</svg>
