<svg xmlns="http://www.w3.org/2000/svg" width="24" height="24" viewBox="0 0 24 24">
  <g fill="none" fill-rule="evenodd" transform="translate(-312 -1104)">
    <path fill="#555" d="M6.21724894e-14,0 L1.91117635,21.6005418 L10.4870963,24 L19.0870315,21.5976522 L21,0.000361200993 L6.21724894e-14,0.000361200993 L6.21724894e-14,0 Z M17.013484,5.1261645 L16.8937666,6.46910979 L16.8410767,7.06436903 L16.8328327,7.06436903 L10.5,7.06436903 L10.4910391,7.06436903 L6.78087663,7.06436903 L7.0210282,9.77734969 L10.4906807,9.77734969 L10.5,9.77734969 L15.8933741,9.77734969 L16.6020004,9.77734969 L16.5378405,10.4889156 L15.9198983,17.464068 L15.8804704,17.9112349 L10.5,19.413831 L10.4878132,19.4178042 L5.10268314,17.9112349 L4.73457022,13.751283 L5.95074077,13.751283 L7.37336997,13.751283 L7.56047313,15.86467 L10.4881716,16.6611182 L10.4906807,16.6603958 L10.4906807,16.6600346 L13.4230388,15.8625028 L13.7280672,12.426759 L10.5,12.426759 L10.4910391,12.426759 L4.61664505,12.426759 L3.97074486,5.1261645 L3.90801871,4.41495974 L10.4910391,4.41495974 L10.5,4.41495974 L17.0765686,4.41495974 L17.013484,5.1261645 L17.013484,5.1261645 Z" transform="translate(314 1104)"/>
  </g>
</svg>
