<svg xmlns="http://www.w3.org/2000/svg" width="24" height="24" viewBox="0 0 24 24">
  <g fill="none" fill-rule="evenodd" transform="translate(-312 -1104)">
    <path fill="#555" d="M3,1 L4.72915955,20.8004967 L12.4883253,23 L20.269219,20.7978478 L22,1.0003311 L3,1.0003311 L3,1 Z M18.3931522,5.69898412 L18.2848365,6.93001731 L18.2371646,7.47567161 L18.2297057,7.47567161 L12.5,7.47567161 L12.4918925,7.47567161 L9.13507886,7.47567161 L9.35235884,9.96257055 L12.4915682,9.96257055 L12.5,9.96257055 L17.3797194,9.96257055 L18.0208575,9.96257055 L17.9628081,10.6148393 L17.4037175,17.008729 L17.3680447,17.418632 L12.5,18.7960117 L12.4889739,18.7996538 L7.61671332,17.418632 L7.28365877,13.6053428 L8.38400355,13.6053428 L9.67114426,13.6053428 L9.84042807,15.5426142 L12.4892981,16.2726917 L12.4915682,16.2720295 L12.4915682,16.2716984 L15.1446542,15.5406276 L15.4206322,12.3911957 L12.5,12.3911957 L12.4918925,12.3911957 L7.17696457,12.3911957 L6.59257869,5.69898412 L6.53582645,5.04704643 L12.4918925,5.04704643 L12.5,5.04704643 L18.4502287,5.04704643 L18.3931522,5.69898412 L18.3931522,5.69898412 Z" transform="translate(312 1104)"/>
  </g>
</svg>
