<svg xmlns="http://www.w3.org/2000/svg" width="24" height="24" viewBox="0 0 24 24">
  <path fill="#555" fill-rule="evenodd" d="M4,2 L5.54714276,20.0004515 L12.4895542,22 L19.4514064,19.9980435 L21,2.000301 L4,2.000301 L4,2 Z M17.7728204,6.27180375 L17.6759063,7.39092483 L17.6332525,7.88697419 L17.6265788,7.88697419 L12.5,7.88697419 L12.492746,7.88697419 L9.48928108,7.88697419 L9.68368949,10.1477914 L12.4924558,10.1477914 L12.5,10.1477914 L16.8660647,10.1477914 L17.4397146,10.1477914 L17.3877757,10.740763 L16.8875367,16.55339 L16.8556189,16.926029 L12.5,18.1781925 L12.4901345,18.1815035 L8.1307435,16.926029 L7.83274732,13.4594025 L8.81726633,13.4594025 L9.96891855,13.4594025 L10.120383,15.2205584 L12.4904247,15.8842652 L12.4924558,15.8836632 L12.4924558,15.8833622 L14.8662695,15.2187524 L15.1131972,12.3556325 L12.5,12.3556325 L12.492746,12.3556325 L7.73728409,12.3556325 L7.21441251,6.27180375 L7.16363419,5.67913312 L12.492746,5.67913312 L12.5,5.67913312 L17.8238889,5.67913312 L17.7728204,6.27180375 L17.7728204,6.27180375 Z"/>
</svg>
