<svg xmlns="http://www.w3.org/2000/svg" width="24" height="24" viewBox="0 0 24 24">
  <g fill="none" fill-rule="evenodd" transform="translate(-216 -1152)">
    <path fill="#555" fill-rule="nonzero" d="M22,11.5126544 C22,11.9501301 21.9756429,12.3876058 21.9143571,12.8122851 L7.78407143,12.8122851 C7.78407143,15.2987787 9.93221429,17.0982675 12.2893571,17.0982675 C13.8851428,17.0982675 15.4196428,16.2984947 16.2422857,14.886096 L21.4350714,14.886096 C20.0311609,18.8982522 16.301469,21.579344 12.1172857,21.5841931 C10.6071428,21.5841931 9.097,21.2218961 7.74635714,20.5468878 C6.37135714,21.2594854 4.444,21.9968759 2.9095,21.9968759 C0.847,21.9968759 0,20.7100415 0,18.7106095 C0,17.5485396 0.245928568,16.3864698 0.552357137,15.2739858 C0.748785705,14.5493917 1.5345,13.0746106 1.89042857,12.4123988 C3.40057143,9.62599035 5.38921427,6.95155014 7.722,4.83935019 C5.84335714,5.66391594 3.806,7.73852657 2.47971429,9.26289349 C3.51189418,4.69161787 7.5092744,1.45201933 12.1172857,1.45231242 C12.3011428,1.45231242 12.4857857,1.45231242 12.6696429,1.46510879 C14.1915714,0.752511225 16.3161429,0.00312410934 17.9857857,0.00312410934 C19.9744286,0.00312410934 21.681,0.778103938 21.681,3.06465437 C21.681,4.26431356 21.2268571,5.56394433 20.7601429,6.63883897 C21.5717278,8.13056305 21.9983159,9.80745953 22,11.5126544 Z M21.1404286,3.51492644 C21.1404286,2.11532406 20.1582857,1.25316899 18.8076429,1.25316899 C17.776,1.25316899 16.61,1.67784835 15.6891429,2.12812042 C17.6877012,2.92589427 19.3799352,4.35893717 20.5142143,6.2141596 C20.8214286,5.38959385 21.1404286,4.38987786 21.1404286,3.51492644 Z M1.57142857,18.972935 C1.57142857,20.422923 2.41842857,21.2098995 3.81778571,21.2098995 C4.91071427,21.2098995 6.12621427,20.7100415 7.08321429,20.1725941 C5.0714722,18.9638553 3.54503085,17.0692621 2.77435714,14.8245135 C2.20942857,16.0241727 1.57142857,17.6237183 1.57142857,18.972935 Z M7.75892857,10.0626663 L16.6964286,10.0626663 C16.6107857,7.65055154 14.5231429,5.91424482 12.2272857,5.91424482 C9.91885714,5.91424482 7.84457141,7.65135133 7.75814286,10.0626663 L7.75892857,10.0626663 Z" transform="translate(217 1153)"/>
  </g>
</svg>
