<svg xmlns="http://www.w3.org/2000/svg" width="24" height="24" viewBox="0 0 24 24">
  <path fill="#555" d="M22,12.4661818 C22,12.864 21.9778571,13.2618182 21.9221429,13.648 L9.07642857,13.648 C9.07642857,15.9090909 11.0292857,17.5454545 13.1721429,17.5454545 C14.6228571,17.5454545 16.0178571,16.8181818 16.7657143,15.5338182 L21.4864286,15.5338182 C20.2101463,19.1822691 16.8195172,21.6203177 13.0157143,21.6247273 C11.6428571,21.6247273 10.27,21.2952727 9.04214285,20.6814545 C7.79214285,21.3294545 6.04,22 4.645,22 C2.77,22 2,20.8298182 2,19.0116364 C2,17.9549091 2.22357143,16.8981818 2.50214285,15.8865454 C2.68071428,15.2276364 3.395,13.8865454 3.71857143,13.2843636 C5.09142857,10.7505455 6.8992857,8.31854546 9.02,6.39781819 C7.31214285,7.14763637 5.46,9.03418183 4.25428572,10.4203636 C5.19263107,6.26347792 8.82661309,3.31755167 13.0157143,3.31781819 C13.1828571,3.31781819 13.3507143,3.31781819 13.5178571,3.32945456 C14.9014286,2.68145455 16.8328571,2 18.3507143,2 C20.1585714,2 21.71,2.70472727 21.71,4.78400001 C21.71,5.8749091 21.2971429,7.05672727 20.8728571,8.03418182 C21.6106616,9.39067988 21.998469,10.9155643 22,12.4661818 Z M21.2185714,5.19345455 C21.2185714,3.92072728 20.3257143,3.13672728 19.0978571,3.13672728 C18.16,3.13672728 17.1,3.5229091 16.2628571,3.93236364 C18.0797284,4.65781863 19.6181229,5.96095501 20.6492857,7.64799999 C20.9285714,6.89818181 21.2185714,5.98909089 21.2185714,5.19345455 Z M3.42857143,19.2501818 C3.42857143,20.5687273 4.19857143,21.2843636 5.47071428,21.2843636 C6.4642857,21.2843636 7.5692857,20.8298182 8.43928572,20.3410909 C6.61042927,19.2419252 5.22275532,17.5190784 4.52214285,15.4778182 C4.00857143,16.5687273 3.42857143,18.0232727 3.42857143,19.2501818 Z M9.05357143,11.1476364 L17.1785714,11.1476364 C17.1007143,8.95418182 15.2028571,7.37527273 13.1157143,7.37527273 C11.0171429,7.37527273 9.13142855,8.9549091 9.05285715,11.1476364 L9.05357143,11.1476364 Z"/>
</svg>
