<svg xmlns="http://www.w3.org/2000/svg" width="24" height="24" viewBox="0 0 24 24">
  <g fill="none" fill-rule="evenodd" transform="translate(-216 -1152)">
    <path fill="#555" fill-rule="nonzero" d="M23,12.5128 C23,12.9504 22.9756429,13.388 22.9143571,13.8128 L8.78407143,13.8128 C8.78407143,16.3 10.9322143,18.1 13.2893571,18.1 C14.8851428,18.1 16.4196428,17.3 17.2422857,15.8872 L22.4350714,15.8872 C21.0311609,19.9004961 17.301469,22.5823495 13.1172857,22.5872 C11.6071428,22.5872 10.097,22.2248 8.74635714,21.5496 C7.37135714,22.2624 5.444,23 3.9095,23 C1.847,23 1,21.7128 1,19.7128 C1,18.5504 1.24592857,17.388 1.55235714,16.2752 C1.74878571,15.5504 2.5345,14.0752 2.89042857,13.4128 C4.40057143,10.6256 6.38921427,7.95040001 8.722,5.83760001 C6.84335714,6.66240001 4.806,8.73760002 3.47971429,10.2624 C4.51189418,5.68982572 8.5092744,2.44930684 13.1172857,2.44960001 C13.3011428,2.44960001 13.4857857,2.44960001 13.6696429,2.46240001 C15.1915714,1.74960001 17.3161429,1 18.9857857,1 C20.9744286,1 22.681,1.77519999 22.681,4.06240001 C22.681,5.26240001 22.2268571,6.5624 21.7601429,7.6376 C22.5717278,9.12974787 22.9983159,10.8071207 23,12.5128 Z M22.1404286,4.5128 C22.1404286,3.1128 21.1582857,2.2504 19.8076429,2.2504 C18.776,2.2504 17.61,2.67520001 16.6891429,3.12560001 C18.6877012,3.92360049 20.3799352,5.35705051 21.5142143,7.21279999 C21.8214286,6.38799999 22.1404286,5.38799998 22.1404286,4.5128 Z M2.57142857,19.9752 C2.57142857,21.4256 3.41842857,22.2128 4.81778571,22.2128 C5.91071427,22.2128 7.12621427,21.7128 8.08321429,21.1752 C6.0714722,19.9661177 4.54503085,18.0709863 3.77435714,15.8256 C3.20942857,17.0256 2.57142857,18.6256 2.57142857,19.9752 Z M8.75892857,11.0624 L17.6964286,11.0624 C17.6107857,8.6496 15.5231429,6.91280001 13.2272857,6.91280001 C10.9188571,6.91280001 8.84457141,8.65040001 8.75814286,11.0624 L8.75892857,11.0624 Z" transform="translate(216 1152)"/>
  </g>
</svg>
