<svg xmlns="http://www.w3.org/2000/svg" width="24" height="24" viewBox="0 0 24 24">
  <g fill="none" fill-rule="evenodd" transform="translate(-312 -840)">
    <path fill="#555" fill-rule="nonzero" d="M2.88369706,9.10421312 L9.15432465,9.10421312 L9.32321086,9.64154096 C9.58644031,10.479031 9.94970227,11.0518424 10.3973395,11.3831061 C10.8337408,11.7060548 11.4768101,11.8634935 12.2482491,11.8404486 C13.0022711,11.7107025 13.5449796,11.45288 13.9002959,11.0802889 C14.2970471,10.6642485 14.576338,10.1888269 14.7433266,9.64600327 L14.9099973,9.10421312 L21.1022238,9.10421312 L18.3904651,2.53488372 L5.51074803,2.53488372 L2.88369706,9.10421312 Z M21.4641042,10.6390968 L16.0104351,10.6390968 C15.7705361,11.1919504 15.4366614,11.6932744 15.011067,12.1395602 C14.4089781,12.7709215 13.5668267,13.1709993 12.407932,13.3636483 C11.2127171,13.4096885 10.2307394,13.169277 9.484303,12.6168939 C8.87120591,12.1631855 8.39624372,11.4994484 8.05033647,10.6390968 L2.53487378,10.6390968 L2.53474398,21.0719429 C2.53822311,21.2541363 2.57451567,21.3757672 2.63359933,21.457163 C2.63675917,21.4615161 2.64483143,21.4651163 2.74028083,21.4651163 L21.2748465,21.4651328 C21.4025454,21.4642946 21.460279,21.4492406 21.4742148,21.4421549 C21.4594884,21.450625 21.4685219,21.4057539 21.4641042,21.2552907 L21.4641042,10.6390968 Z M1,9.82871187 C1,9.73110143 1.018621,9.63438707 1.05486452,9.5437548 L4.27853712,1.48248479 C4.39506667,1.19108542 4.67727899,1 4.99111453,1 L18.9039281,1 C19.2146688,1 19.4947418,1.18738503 19.6133083,1.47461629 L22.9409263,9.5358863 C22.979261,9.62875334 22.998988,9.7282438 22.998988,9.82871187 L22.9986032,21.2309902 C23.0158001,21.7738184 22.8750537,22.2322027 22.5292806,22.5577885 C22.2092996,22.859088 21.7829863,22.996714 21.2798841,23 L2.74028083,23 C2.17953179,23 1.70243719,22.7872182 1.39146173,22.3588073 C1.1364101,22.0074391 1.00931026,21.5814767 1,21.0865952 L1,9.82871187 Z" transform="translate(312 840)"/>
  </g>
</svg>
