<svg xmlns="http://www.w3.org/2000/svg" width="24" height="24" viewBox="0 0 24 24">
  <path fill="#555" d="M3.51978526,9.43797813 L10.0250662,9.43797813 C10.0085462,9.55406117 10,9.67271263 10,9.79336016 C10,11.174072 11.1192881,12.2933602 12.5,12.2933602 C13.8807119,12.2933602 15,11.174072 15,9.79336016 C15,9.67271263 14.9914538,9.55406117 14.9749338,9.43797813 L20.4802147,9.43797813 L17.9129821,3.4 L6.08701795,3.4 L3.51978526,9.43797813 Z M22,9.43797813 L22,20 C22,21.1045695 21.1045695,22 20,22 L4,22 C2.8954305,22 2,21.1045695 2,20 L2,9.43797813 L4.80766845,2.83081958 C5.00149751,2.37197059 5.46492571,2 5.84276431,2 L18.1572357,2 C18.5350743,2 18.9985025,2.37197059 19.1923315,2.83081958 L22,9.43797813 Z M8.74147814,10.8379781 L3.4,10.8379781 L3.4,20 C3.4,20.3313708 3.66862915,20.6 4,20.6 L20,20.6 C20.3313708,20.6 20.6,20.3313708 20.6,20 L20.6,10.8379781 L16.2585219,10.8379781 C15.8018503,12.4846378 14.2920812,13.6933602 12.5,13.6933602 C10.7079188,13.6933602 9.19814975,12.4846378 8.74147814,10.8379781 Z"/>
</svg>
