<svg xmlns="http://www.w3.org/2000/svg" width="24" height="24" viewBox="0 0 24 24">
  <g fill="none" fill-rule="evenodd" transform="translate(-384 -768)">
    <path fill="#555" fill-rule="nonzero" d="M23.9364585,9.90940943 L20.3494403,0.854067289 C20.2640351,0.600785175 20.1144052,0.395120098 19.9005506,0.237072059 C19.686696,0.0790240196 19.4410706,0 19.1636746,0 L4.59115679,0 C4.31376071,0 4.06813537,0.0844273714 3.85428076,0.253282114 C3.64042614,0.422136857 3.49079624,0.633205285 3.40539105,0.886487399 L0.0428176702,9.81518848 L0.0428176702,9.84659547 C-0.00022654852,10.0154502 -0.0108167928,10.173836 0.0110469373,10.3217527 L0.0110469373,22.067964 C0.0110469373,22.5954663 0.197913506,23.0493478 0.571646644,23.4296087 C0.945379781,23.8098696 1.39905218,24 1.93266385,24 L22.0455875,24 C22.5791992,24 23.0383375,23.8098696 23.4230025,23.4296087 C23.8076675,23.0493478 24,22.5954663 24,22.067964 L24,10.4798008 C24,10.4163114 23.9894098,10.3740977 23.9682293,10.3531597 C23.9894098,10.2052429 23.9788195,10.0573262 23.9364585,9.90940943 Z M14.4564818,8.54776479 L14.4564818,9.05432901 C14.4564818,9.77229938 14.2269126,10.3474186 13.7677743,10.7796868 C13.3086359,11.2119549 12.7162655,11.4284267 11.990663,11.4291021 C11.2650604,11.4297775 10.6778143,11.2133058 10.2289246,10.7796868 C9.78003487,10.3460678 9.55593164,9.77094854 9.55661488,9.05432901 L9.52484415,8.54776479 L2.95957592,8.54776479 L5.48996107,2.43758707 L18.2689697,2.43758707 L20.8956919,8.54776479 L14.4585315,8.54776479 L14.4564818,8.54776479 Z M2.44714475,10.9853519 L7.50791504,10.9853519 C7.89258004,11.8931149 8.47982617,12.6002786 9.26965342,13.1068428 C10.0594807,13.6134071 10.9668255,13.8666892 11.9916878,13.8666892 C13.1019554,13.8666892 14.0629346,13.5816624 14.8746256,13.0116088 C15.6009114,12.5050445 16.1454549,11.8296256 16.5082562,10.9853519 L21.5362309,10.9853519 L21.5362309,21.5603867 L2.44816961,21.5603867 L2.44816961,10.9853519 L2.44714475,10.9853519 Z" transform="translate(384 768)"/>
  </g>
</svg>
