<svg xmlns="http://www.w3.org/2000/svg" width="24" height="24" viewBox="0 0 24 24">
  <g fill="none" fill-rule="evenodd" transform="translate(-288 -624)">
    <path fill="#555" fill-rule="nonzero" d="M12,0 C18.627417,0 24,5.372583 24,12 C24,18.627417 18.627417,24 12,24 C5.372583,24 0,18.627417 0,12 C0,5.372583 5.372583,0 12,0 Z M12,8.57545605 C11.5088889,8.57545605 11.1111111,8.99104478 11.1111111,9.50414594 L11.1111111,18.0713101 C11.1111111,18.5844113 11.5088889,19 12,19 C12.4911111,19 12.8888889,18.5844113 12.8888889,18.0713101 L12.8888889,9.50414594 C12.8888889,8.99104478 12.4911111,8.57545605 12,8.57545605 Z M11,6.04477612 C11,6.62179004 11.4477153,7.08955224 12,7.08955224 C12.5522847,7.08955224 13,6.62179004 13,6.04477612 C13,5.4677622 12.5522847,5 12,5 C11.4477153,5 11,5.4677622 11,6.04477612 Z" transform="translate(288 624)"/>
  </g>
</svg>
