<svg xmlns="http://www.w3.org/2000/svg" width="24" height="24" viewBox="0 0 24 24">
  <g fill="none" fill-rule="evenodd" transform="translate(-168 -696)">
    <path fill="#555" fill-rule="nonzero" d="M12,23 C5.92486775,23 1,18.0751322 1,12 C1,5.92486775 5.92486775,1 12,1 C18.0751322,1 23,5.92486775 23,12 C23,18.0751322 18.0751322,23 12,23 Z M12,21.4651163 C17.2274394,21.4651163 21.4651163,17.2274394 21.4651163,12 C21.4651163,6.77256062 17.2274394,2.53488372 12,2.53488372 C6.77256062,2.53488372 2.53488372,6.77256062 2.53488372,12 C2.53488372,17.2274394 6.77256062,21.4651163 12,21.4651163 Z M11.8711919,7.90697674 C11.3060634,7.90697674 10.8479361,7.44884951 10.8479361,6.88372093 C10.8479361,6.31859235 11.3060634,5.86046512 11.8711919,5.86046512 C12.4363205,5.86046512 12.8944478,6.31859235 12.8944478,6.88372093 C12.8944478,7.44884951 12.4363205,7.90697674 11.8711919,7.90697674 Z M11.0728454,9.69767442 C11.0728454,9.27382798 11.4164408,8.93023256 11.8402872,8.93023256 C12.2641337,8.93023256 12.6077291,9.27382798 12.6077291,9.69767442 L12.6077291,18.0116477 C12.6077291,18.4354941 12.2641337,18.7790896 11.8402872,18.7790896 C11.4164408,18.7790896 11.0728454,18.4354941 11.0728454,18.0116477 L11.0728454,9.69767442 Z" transform="translate(168 696)"/>
  </g>
</svg>
