<svg xmlns="http://www.w3.org/2000/svg" width="24" height="24" viewBox="0 0 24 24">
  <path fill="#555" d="M12,22 C6.4771525,22 2,17.5228475 2,12 C2,6.4771525 6.4771525,2 12,2 C17.5228475,2 22,6.4771525 22,12 C22,17.5228475 17.5228475,22 12,22 Z M11.8829018,8.27906977 C12.396655,8.27906977 12.8131343,7.86259046 12.8131343,7.34883721 C12.8131343,6.83508395 12.396655,6.41860465 11.8829018,6.41860465 C11.3691485,6.41860465 10.9526692,6.83508395 10.9526692,7.34883721 C10.9526692,7.86259046 11.3691485,8.27906977 11.8829018,8.27906977 Z M11.1571322,9.90697674 L11.1571322,17.4651343 C11.1571322,17.8504492 11.4694916,18.1628087 11.8548066,18.1628087 C12.2401215,18.1628087 12.552481,17.8504492 12.552481,17.4651343 L12.552481,9.90697674 C12.552481,9.5216618 12.2401215,9.20930233 11.8548066,9.20930233 C11.4694916,9.20930233 11.1571322,9.5216618 11.1571322,9.90697674 Z"/>
</svg>
