<svg xmlns="http://www.w3.org/2000/svg" width="24" height="24" viewBox="0 0 24 24">
  <g fill="none" fill-rule="evenodd" transform="translate(-404 -836)">
    <path fill="#555" d="M22.4630542,21 L1.53694581,21 C0.690550828,21 0,20.2947864 0,19.4304194 L0,6.26460212 C0,5.4002352 0.690550828,4.69502156 1.53694581,4.69502156 L11.1240484,4.69502156 L11.1240484,1.73422187 L7.1661442,1.73422187 C6.69861173,1.73422187 6.31706225,1.34457076 6.31706225,0.867110937 C6.31706225,0.389651117 6.69861173,0 7.1661442,0 L16.7962382,0 C17.2637707,0 17.6453202,0.389651117 17.6453202,0.867110937 C17.6453202,1.34457076 17.2637707,1.73422187 16.7962382,1.73422187 L12.8222123,1.73422187 L12.8222123,4.69502156 L22.4630542,4.69502156 C23.3094492,4.69502156 24,5.4002352 24,6.26460212 L24,19.4304194 C24,20.2947864 23.3094492,21 22.4630542,21 Z M22.3018361,19.2657781 L22.3018361,6.42924343 L1.69816391,6.42924343 L1.69816391,19.2657781 L22.3018361,19.2657781 Z" transform="matrix(1 0 0 -1 404 859)"/>
  </g>
</svg>
