<svg xmlns="http://www.w3.org/2000/svg" width="24" height="24" viewBox="0 0 24 24">
  <path fill="#555" d="M3.36363636,4.34936676 L3.36363636,15.1443009 L20.6363636,15.1443009 L20.6363636,4.34936676 L3.36363636,4.34936676 Z M11.1972006,19.6506332 L11.1972006,16.4936676 L2.90909091,16.4936676 C2.40701386,16.4936676 2,16.0909129 2,15.5940898 L2,3.89957784 C2,3.40275472 2.40701386,3 2.90909091,3 L21.0909091,3 C21.5929861,3 22,3.40275472 22,3.89957784 L22,15.5940898 C22,16.0909129 21.5929861,16.4936676 21.0909091,16.4936676 L12.560837,16.4936676 L12.560837,19.6506332 L15.9973724,19.6506332 C16.3739302,19.6506332 16.6791906,19.9526993 16.6791906,20.3253166 C16.6791906,20.697934 16.3739302,21 15.9973724,21 L7.98120994,21 C7.60465216,21 7.29939176,20.697934 7.29939176,20.3253166 C7.29939176,19.9526993 7.60465216,19.6506332 7.98120994,19.6506332 L11.1972006,19.6506332 Z"/>
</svg>
