<svg xmlns="http://www.w3.org/2000/svg" width="24" height="24" viewBox="0 0 24 24">
  <g fill="none" fill-rule="evenodd" transform="translate(-408 -840)">
    <path fill="#555" fill-rule="nonzero" d="M2.5,3.06188435 L2.5,13.5569592 L21.5,13.5569592 L21.5,3.06188435 L2.5,3.06188435 Z M11.1169207,17.9381156 L11.1169207,14.8688435 L2,14.8688435 C1.44771525,14.8688435 1,14.4772765 1,13.994254 L1,2.62458957 C1,2.14156709 1.44771525,1.75 2,1.75 L22,1.75 C22.5522847,1.75 23,2.14156709 23,2.62458957 L23,13.994254 C23,14.4772765 22.5522847,14.8688435 22,14.8688435 L12.6169207,14.8688435 L12.6169207,17.9381156 L16.3971097,17.9381156 C16.8113232,17.9381156 17.1471097,18.231791 17.1471097,18.5940578 C17.1471097,18.9563247 16.8113232,19.25 16.3971097,19.25 L7.57933094,19.25 C7.16511737,19.25 6.82933094,18.9563247 6.82933094,18.5940578 C6.82933094,18.231791 7.16511737,17.9381156 7.57933094,17.9381156 L11.1169207,17.9381156 Z" transform="translate(408 842)"/>
  </g>
</svg>
