<svg xmlns="http://www.w3.org/2000/svg" width="24" height="24" viewBox="0 0 24 24">
  <g fill="none" fill-rule="evenodd" transform="translate(-288 -336)">
    <path fill="#555" d="M12,24 C5.372583,24 0,18.627417 0,12 C0,5.372583 5.372583,0 12,0 C18.627417,0 24,5.372583 24,12 C24,18.627417 18.627417,24 12,24 Z M13.8990188,8.04020203 C14.2114382,7.72778259 14.2114382,7.22125061 13.8990188,6.90883118 C13.5865993,6.59641174 13.0800673,6.59641174 12.7676479,6.90883118 L8.24216451,11.4343146 C7.92974508,11.746734 7.92974508,12.253266 8.24216451,12.5656854 L12.7676479,17.0911688 C13.0800673,17.4035883 13.5865993,17.4035883 13.8990188,17.0911688 C14.2114382,16.7787494 14.2114382,16.2722174 13.8990188,15.959798 L9.93922078,12 L13.8990188,8.04020203 Z" transform="translate(288 336)"/>
  </g>
</svg>
