<svg xmlns="http://www.w3.org/2000/svg" width="20" height="20" viewBox="0 0 20 20">
  <path fill="#555" d="M10,0 C15.5228475,0 20,4.4771525 20,10 C20,15.5228475 15.5228475,20 10,20 C4.4771525,20 0,15.5228475 0,10 C0,4.4771525 4.4771525,0 10,0 Z M10,1.39534884 C5.24778239,1.39534884 1.39534884,5.24778239 1.39534884,10 C1.39534884,14.7522176 5.24778239,18.6046512 10,18.6046512 C14.7522176,18.6046512 18.6046512,14.7522176 18.6046512,10 C18.6046512,5.24778239 14.7522176,1.39534884 10,1.39534884 Z M10.7879967,5.64577005 C11.0507993,5.37608399 11.4824666,5.37050382 11.7521527,5.6333064 C12.0218388,5.89610897 12.0274189,6.3277763 11.7646163,6.59746236 L11.7646163,6.59746236 L8.36270656,10.088477 L11.7599651,13.5075477 C12.0253782,13.7746649 12.0239968,14.2063661 11.7568796,14.4717792 C11.4897623,14.7371924 11.0580611,14.735811 10.792648,14.4686937 L10.792648,14.4686937 L6.92250445,10.5737019 C6.66011276,10.3096256 6.65804237,9.88389868 6.91785319,9.61728273 L6.91785319,9.61728273 Z"/>
</svg>
