<svg xmlns="http://www.w3.org/2000/svg" width="24" height="24" viewBox="0 0 24 24">
  <path fill="#555" d="M3.81818182,3.36363636 C3.5671433,3.36363636 3.36363636,3.5671433 3.36363636,3.81818182 L3.36363636,20.1818182 C3.36363636,20.4328567 3.5671433,20.6363636 3.81818182,20.6363636 L20.1818182,20.6363636 C20.4328567,20.6363636 20.6363636,20.4328567 20.6363636,20.1818182 L20.6363636,3.81818182 C20.6363636,3.5671433 20.4328567,3.36363636 20.1818182,3.36363636 L3.81818182,3.36363636 Z M3.81818182,2 L20.1818182,2 C21.1859723,2 22,2.81402773 22,3.81818182 L22,20.1818182 C22,21.1859723 21.1859723,22 20.1818182,22 L3.81818182,22 C2.81402773,22 2,21.1859723 2,20.1818182 L2,3.81818182 C2,2.81402773 2.81402773,2 3.81818182,2 Z M10.3627066,12.0694262 L13.7646163,8.57841155 C14.0274189,8.30872549 14.0218388,7.87705816 13.7521527,7.61425558 C13.4824666,7.35145301 13.0507993,7.35703317 12.7879967,7.62671923 L8.91785319,11.5982319 C8.65804237,11.8648479 8.66011276,12.2905747 8.92250445,12.5546511 L12.792648,16.4496429 C13.0580611,16.7167602 13.4897623,16.7181416 13.7568796,16.4527284 C14.0239968,16.1873153 14.0253782,15.7556141 13.7599651,15.4884968 L10.3627066,12.0694262 Z"/>
</svg>
