<svg xmlns="http://www.w3.org/2000/svg" width="24" height="24" viewBox="0 0 24 24">
  <g fill="none" fill-rule="evenodd" transform="translate(-672 -336)">
    <path fill="#555" fill-rule="nonzero" d="M2,0 L22,0 C23.1045695,0 24,0.8954305 24,2 L24,22 C24,23.1045695 23.1045695,24 22,24 L2,24 C0.8954305,24 0,23.1045695 0,22 L0,2 C0,0.8954305 0.8954305,0 2,0 Z M14.5656854,8.04020203 C14.8781049,7.72778259 14.8781049,7.22125061 14.5656854,6.90883118 C14.253266,6.59641174 13.746734,6.59641174 13.4343146,6.90883118 L8.90883118,11.4343146 C8.59641174,11.746734 8.59641174,12.253266 8.90883118,12.5656854 L13.4343146,17.0911688 C13.746734,17.4035883 14.253266,17.4035883 14.5656854,17.0911688 C14.8781049,16.7787494 14.8781049,16.2722174 14.5656854,15.959798 L10.6058875,12 L14.5656854,8.04020203 Z" transform="translate(672 336)"/>
  </g>
</svg>
