<svg xmlns="http://www.w3.org/2000/svg" width="24" height="24" viewBox="0 0 24 24">
  <g fill="none" fill-rule="evenodd" transform="translate(-216 -408)">
    <path fill="#555" fill-rule="nonzero" d="M12,23 C5.92486775,23 1,18.0751322 1,12 C1,5.92486775 5.92486775,1 12,1 C18.0751322,1 23,5.92486775 23,12 C23,18.0751322 18.0751322,23 12,23 Z M10.1989772,12.0973247 L13.941078,8.2572086 C14.2301608,7.96055393 14.2240226,7.48571987 13.927368,7.19663704 C13.6307133,6.90755421 13.1558792,6.91369239 12.8667964,7.21034706 L8.60963851,11.579011 C8.32384661,11.8722885 8.32612404,12.3405881 8.61475489,12.6310721 L12.8719128,16.9155631 C13.1638673,17.2093921 13.6387386,17.2109116 13.9325675,16.9189572 C14.2263965,16.6270027 14.2279161,16.1521314 13.9359616,15.8583024 L10.1989772,12.0973247 Z" transform="translate(216 408)"/>
  </g>
</svg>
