<svg xmlns="http://www.w3.org/2000/svg" width="24" height="24" viewBox="0 0 24 24">
  <path fill="#555" d="M12,22 C6.4771525,22 2,17.5228475 2,12 C2,6.4771525 6.4771525,2 12,2 C17.5228475,2 22,6.4771525 22,12 C22,17.5228475 17.5228475,22 12,22 Z M10.3627066,12.088477 L13.7646163,8.59746236 C14.0274189,8.3277763 14.0218388,7.89610897 13.7521527,7.6333064 C13.4824666,7.37050382 13.0507993,7.37608399 12.7879967,7.64577005 L8.91785319,11.6172827 C8.65804237,11.8838987 8.66011276,12.3096256 8.92250445,12.5737019 L12.792648,16.4686937 C13.0580611,16.735811 13.4897623,16.7371924 13.7568796,16.4717792 C14.0239968,16.2063661 14.0253782,15.7746649 13.7599651,15.5075477 L10.3627066,12.088477 Z"/>
</svg>
