<svg xmlns="http://www.w3.org/2000/svg" width="24" height="24" viewBox="0 0 24 24">
  <g fill="none" fill-rule="evenodd" transform="translate(-408 -408)">
    <path fill="#555" fill-rule="nonzero" d="M12,22.5 C17.7989899,22.5 22.5,17.7989899 22.5,12 C22.5,6.20101013 17.7989899,1.5 12,1.5 C6.20101013,1.5 1.5,6.20101013 1.5,12 C1.5,17.7989899 6.20101013,22.5 12,22.5 Z M12,24 C5.372583,24 0,18.627417 0,12 C0,5.372583 5.372583,0 12,0 C18.627417,0 24,5.372583 24,12 C24,18.627417 18.627417,24 12,24 Z M14.2225397,8.36372294 C14.5349591,8.05130351 14.5349591,7.54477153 14.2225397,7.23235209 C13.9101202,6.91993266 13.4035883,6.91993266 13.0911688,7.23235209 L8.56568542,11.7578355 C8.25326599,12.0702549 8.25326599,12.5767869 8.56568542,12.8892063 L13.0911688,17.4146897 C13.4035883,17.7271092 13.9101202,17.7271092 14.2225397,17.4146897 C14.5349591,17.1022703 14.5349591,16.5957383 14.2225397,16.2833189 L10.2627417,12.3235209 L14.2225397,8.36372294 Z" transform="translate(408 408)"/>
  </g>
</svg>
