<svg xmlns="http://www.w3.org/2000/svg" width="24" height="24" viewBox="0 0 24 24">
  <path fill="#555" d="M3.36088057,11.4946163 L3.36086471,18.6522169 L6.38924934,18.6522169 L6.54295141,18.669915 C9.35632613,19.3264467 11.219553,19.7987199 12.1492205,20.0919596 C13.3826979,20.4810282 13.8431033,20.575637 14.6802647,20.6322585 C15.3063982,20.674607 16.0169996,20.4335226 16.3413428,20.103732 C16.5196863,19.9223933 16.6542622,19.5483534 16.7069375,18.9681973 C16.7294857,18.7198551 16.8853604,18.5037105 17.1133359,18.4046624 C17.3618479,18.2966919 17.5685557,18.1212587 17.7419902,17.865589 C17.9011699,17.6309331 18.0058214,17.1954671 18.0246237,16.5640487 C18.0316554,16.3279089 18.1600195,16.1122725 18.363849,15.9941906 C18.9457511,15.6570847 19.2347296,15.2769776 19.2943246,14.8312056 C19.3602481,14.338096 19.1995661,13.7826785 18.7806277,13.1512656 C18.5760317,12.8429039 18.6543442,12.4269441 18.9569335,12.21481 C19.3582156,11.9334862 19.5779653,11.5409083 19.6332748,10.9851434 C19.7214317,10.0993197 19.156275,9.44351055 17.8773623,9.31252406 C16.7624423,9.19833374 15.6323013,9.29247162 14.4832786,9.59641559 C13.9250699,9.74407516 13.4496765,9.16931529 13.6968787,8.64564266 C14.1963307,7.58760445 14.4752151,6.71453762 14.5396762,6.03901467 C14.6253087,5.14162377 14.4181163,4.49152051 13.9338786,3.95581546 C13.5672119,3.55017735 12.9799973,3.31763269 12.7600333,3.36531558 C12.4696082,3.42827276 12.281031,3.59684713 12.0352097,4.18427466 C11.8897068,4.53197598 11.8199789,4.8282418 11.6997294,5.51866179 C11.5854712,6.17468235 11.521958,6.4707247 11.3910784,6.85968417 C10.9957402,8.03458495 10.02732,9.25370081 8.7256191,10.0954656 C7.82090012,10.680516 6.84158756,11.1369154 5.78933455,11.4642488 C5.7242644,11.4844908 5.65652971,11.4947847 5.58840697,11.4947847 L3.36088057,11.4946163 Z M3.31780294,20.0148644 C2.99539565,20.0236275 2.70468734,19.9522771 2.46234885,19.7821144 C2.15243269,19.5645007 2.00594373,19.2231922 2.00323507,18.8290895 L2.00584691,11.5061036 C1.97163689,11.1157451 2.08732047,10.7576235 2.35888938,10.4917457 C2.61359001,10.2423828 2.94664516,10.1237039 3.29943013,10.1318876 L5.48409667,10.1318876 C6.38260664,9.84342441 7.21754484,9.44949057 7.99039908,8.94971253 C9.03799965,8.27226556 9.80960035,7.30092001 10.1048319,6.42352493 C10.2063964,6.12168658 10.2598774,5.87240596 10.3623713,5.28393051 C10.4997237,4.49531346 10.5861607,4.1280525 10.7835247,3.65642103 C11.1946803,2.67390184 11.7315864,2.19394692 12.4734676,2.03312489 C13.2036464,1.87483966 14.2666223,2.29579198 14.9392897,3.03995414 C15.684139,3.86397017 16.0127105,4.89492167 15.8911352,6.16897582 C15.838872,6.71667099 15.6870452,7.3301477 15.4372676,8.01270565 C16.3022674,7.8881032 17.1619273,7.86927699 18.0151615,7.95666541 C20.0222793,8.1622348 21.148549,9.46916076 20.9841955,11.1206287 C20.913311,11.8328945 20.6548581,12.4377417 20.2162102,12.9127663 C20.5848501,13.624358 20.7315959,14.3266504 20.6399064,15.01249 C20.5342981,15.8024424 20.0938139,16.4606697 19.3615933,16.9717849 C19.3050365,17.6649876 19.1457321,18.2176207 18.8641529,18.6327126 C18.6297511,18.9782578 18.3448812,19.2576621 18.0130466,19.4656797 C17.9050245,20.1502334 17.6776602,20.6848483 17.3074649,21.061261 C16.6921032,21.6869577 15.5926808,22.0599567 14.589001,21.9920727 C13.6364602,21.9276476 13.0723519,21.8117289 11.7422529,21.3921834 C10.8645013,21.1153193 9.04881088,20.6545996 6.31132055,20.0151077 L3.31780294,20.0148644 Z M5.01948917,11.1835229 C5.01948917,10.8071692 5.32340849,10.5020743 5.69831198,10.5020743 C6.07321546,10.5020743 6.37713478,10.8071692 6.37713478,11.1835229 L6.37713478,18.8619216 C6.37713478,19.2382753 6.07321546,19.5433702 5.69831198,19.5433702 C5.32340849,19.5433702 5.01948917,19.2382753 5.01948917,18.8619216 L5.01948917,11.1835229 Z"/>
</svg>
