<svg xmlns="http://www.w3.org/2000/svg" width="24" height="24" viewBox="0 0 24 24">
  <g fill="none" fill-rule="evenodd" transform="translate(-360 -936)">
    <path fill="#555" fill-rule="nonzero" d="M2.39979236,11.444078 L2.39977555,19.3174386 L5.60747244,19.3174386 L5.77027529,19.3369065 C8.75023141,20.0590914 10.7237809,20.5785919 11.7084945,20.9011555 C13.0150068,21.3291311 13.502673,21.4332007 14.3894032,21.4954843 C15.0526103,21.5420677 15.8052868,21.2768749 16.1488346,20.9141052 C16.3377379,20.7146326 16.4802821,20.3031887 16.5360763,19.665017 C16.5599596,19.3918406 16.7250637,19.1540816 16.9665378,19.0451287 C17.2297643,18.9263611 17.4487114,18.7333846 17.632415,18.4521479 C17.8010199,18.1940264 17.9118679,17.7150139 17.9317834,17.0204536 C17.9392315,16.7606998 18.0751961,16.5234997 18.2910944,16.3936096 C18.9074513,16.0227932 19.2135403,15.6046753 19.276664,15.1143262 C19.3464909,14.5719056 19.1762948,13.9609464 18.7325508,13.2663922 C18.5158406,12.9271943 18.59879,12.4696385 18.9192958,12.236291 C19.344338,11.9268348 19.5770992,11.4949991 19.6356837,10.8836577 C19.7290604,9.90925165 19.1304404,9.1878616 17.7758026,9.04377647 C16.5948676,8.91816711 15.3978103,9.02171878 14.1807535,9.35605715 C13.5894929,9.51848267 13.0859512,8.88624682 13.3477904,8.31020692 C13.8768152,7.1463649 14.1722125,6.18599138 14.2404903,5.44291613 C14.3311933,4.45578614 14.1117328,3.74067256 13.5988232,3.15139701 C13.2104459,2.70519508 12.588462,2.44939595 12.3554739,2.50184714 C12.0478526,2.57110004 11.8481095,2.75653185 11.5877331,3.40270213 C11.4336149,3.78517357 11.3597584,4.11106598 11.2323888,4.87052797 C11.1113653,5.59215058 11.0440914,5.91779717 10.9054624,6.34565259 C10.486716,7.63804344 9.46095512,8.97907089 8.08217988,9.90501218 C7.12389202,10.5485676 6.08659384,11.050607 4.97203638,11.4106737 C4.90311339,11.4329398 4.8313681,11.4442632 4.75921176,11.4442632 L2.39979236,11.444078 Z M2.35416408,20.8163508 C2.01266688,20.8259903 1.70474558,20.7475048 1.4480581,20.5603258 C1.11979165,20.3209508 0.964628997,19.9455115 0.961759948,19.5119984 L0.964526438,11.456714 C0.92829083,11.0273196 1.0508241,10.6333858 1.33847274,10.3409203 C1.60825433,10.066621 1.96102985,9.93607433 2.33470341,9.94507639 L4.6487252,9.94507639 C5.60043641,9.62776685 6.48481175,9.19443962 7.30342709,8.64468378 C8.41305665,7.89949212 9.23034423,6.83101201 9.54305661,5.86587743 C9.65063482,5.53385524 9.70728239,5.25964655 9.81584509,4.61232356 C9.96133016,3.74484481 10.0528851,3.34085775 10.2619352,2.82206313 C10.6974355,1.74129203 11.266132,1.21334161 12.0519404,1.03643738 C12.8253535,0.862323626 13.9512687,1.32537118 14.6637651,2.14394955 C15.4527174,3.05036719 15.8007438,4.18441384 15.67197,5.58587341 C15.6166122,6.18833809 15.4557957,6.86316247 15.1912286,7.61397621 C16.1074455,7.47691352 17.0180063,7.45620469 17.921761,7.55233195 C20.0477213,7.77845828 21.240678,9.21607683 21.066593,11.0326915 C20.9915114,11.8161839 20.7177554,12.4815159 20.253135,13.004043 C20.6436022,13.7867939 20.7990369,14.5593155 20.7019184,15.313739 C20.590057,16.1826866 20.1234915,16.9067366 19.3479157,17.4689633 C19.2880102,18.2314863 19.1192733,18.8393827 18.8210216,19.2959839 C18.5727407,19.6760836 18.2710035,19.9834283 17.9195208,20.2122477 C17.8051028,20.9652567 17.5642761,21.5533331 17.1721613,21.9673871 C16.5203637,22.6556534 15.355844,23.0659523 14.2927357,22.99128 C13.2837944,22.9204124 12.6862851,22.7929018 11.2774301,22.3314018 C10.3477065,22.0268513 8.42450802,21.5200596 5.52492944,20.8166184 L2.35416408,20.8163508 Z M4.15660805,11.1018751 C4.15660805,10.6878861 4.47852259,10.3522817 4.87562431,10.3522817 C5.27272602,10.3522817 5.59464057,10.6878861 5.59464057,11.1018751 L5.59464057,19.5481138 C5.59464057,19.9621028 5.27272602,20.2977072 4.87562431,20.2977072 C4.47852259,20.2977072 4.15660805,19.9621028 4.15660805,19.5481138 L4.15660805,11.1018751 Z" transform="translate(361 936)"/>
  </g>
</svg>
