<svg xmlns="http://www.w3.org/2000/svg" width="24" height="24" viewBox="0 0 24 24">
  <g fill="none" fill-rule="evenodd" transform="translate(-360 -936)">
    <path fill="#555" fill-rule="nonzero" d="M22.4763212,8.876615 C23.2916387,10.4262146 23.1515552,11.8870845 22.0796802,13.0817655 C22.4117883,13.6680149 22.5723335,14.3889431 22.5723335,15.2255367 C22.5723335,16.3885286 22.0277391,17.3233586 21.0125271,17.9603106 C20.9117929,19.2944239 20.3923821,20.3148146 19.4558688,20.9390909 C19.3880448,21.3932254 19.2341525,21.8300066 19.0025648,22.2256705 C17.9952227,23.9574827 15.7822179,24.5231341 12.2706863,23.4678853 C8.60333134,22.3666872 6.11015958,21.7550866 4.85727781,21.6346678 L1.63850493,21.6346678 C1.2040912,21.6350883 0.787326934,21.4616631 0.480002325,21.1525884 C0.172677717,20.8435136 -2.00820093e-07,20.4241398 0,19.9868319 L0,11.3879803 C0,10.4769172 0.733470985,9.74014441 1.63850493,9.74014441 L4.35990263,9.74014441 C7.96587265,8.47099385 9.85463913,6.55221566 10.1489719,3.9521207 C10.422843,1.54057619 11.4364811,0.122486618 12.9711038,0.00682121139 C14.2491692,-0.0882462461 15.5618619,0.819647973 16.3016287,2.15217684 C17.0618572,3.51956377 17.0083422,5.26563607 16.2150603,7.37454917 C19.4904961,6.78829985 21.6059146,7.21927232 22.4763212,8.876615 Z M20.5796848,12.2562631 C21.4500914,11.4957235 21.5886009,10.7098325 21.0298408,9.64824586 C20.5277437,8.69281791 18.6688827,8.45990264 15.3383578,9.2394558 C14.9707188,9.32532025 14.5867223,9.19152952 14.350469,8.89525904 C14.1142157,8.59898856 14.0674983,8.19264784 14.2302815,7.84988646 C15.2801209,5.6348147 15.4579797,4.01233009 14.8724621,2.95866577 C14.4160102,2.1347478 13.6557817,1.61029233 13.0922997,1.65307268 C12.4910423,1.6974375 11.9700576,2.42787246 11.7748851,4.1390867 C11.4112975,7.34602893 9.19829278,9.69736405 5.27123246,11.1677407 L5.27123246,20.0216899 C6.75234018,20.2118249 9.21875442,20.8297633 12.738156,21.8897655 C15.5933413,22.7453726 17.0130641,22.3809473 17.5891379,21.3938302 C17.7890323,21.0500029 17.8567131,20.6887466 17.8519912,20.4621692 L17.8346775,19.9329603 L18.316313,19.700045 C19.0167306,19.3609711 19.3740222,18.69233 19.3929099,17.5483516 C19.3988439,17.1821686 19.6053683,16.8492845 19.9296344,16.6832377 C20.6331999,16.3219814 20.9354025,15.867242 20.9354025,15.2255367 C20.9354025,14.4966862 20.7764313,13.9880753 20.4868205,13.6600926 C20.3134534,13.4618778 20.2257705,13.2022473 20.2432021,12.9387343 C20.2606337,12.6752213 20.3817402,12.429587 20.5796848,12.2562631 L20.5796848,12.2562631 Z M1.63850493,19.9868319 L3.62643165,19.9868319 L3.62643165,11.3879803 L1.63850493,11.3879803 L1.63850493,19.9868319 Z" transform="translate(361 936)"/>
  </g>
</svg>
