<svg xmlns="http://www.w3.org/2000/svg" width="24" height="24" viewBox="0 0 24 24">
  <g fill="none" fill-rule="evenodd" transform="translate(-404 -884)">
    <path fill="#555" fill-rule="nonzero" d="M12.7668161,16.2053812 C13.1461883,15.8286996 13.7569507,15.8286996 14.1363229,16.2053812 C14.5156951,16.5820628 14.5156951,17.1955157 14.1363229,17.5748879 L9.32286996,22.3883408 C8.26008969,23.4538117 6.86098655,23.9865471 5.46188341,23.9865471 C4.06547085,23.9865471 2.66636771,23.4538117 1.60089686,22.3883408 C0.567713004,21.3578475 0,19.9856502 0,18.5273543 C0,17.0690583 0.567713004,15.696861 1.60089686,14.6636771 L6.41434978,9.8529148 C6.79103139,9.4735426 7.4044843,9.4735426 7.7838565,9.8529148 C8.1632287,10.2295964 8.1632287,10.8430493 7.7838565,11.2224215 L2.97040359,16.0358744 C2.30313901,16.7004484 1.93721973,17.5856502 1.93721973,18.5273543 C1.93721973,19.4690583 2.30852018,20.3515695 2.97309417,21.0188341 C3.63766816,21.6860987 4.52286996,22.0520179 5.46457399,22.0520179 C6.40627803,22.0520179 7.29147982,21.6834081 7.95605381,21.0188341 L12.7668161,16.2053812 Z M22.3910314,1.59820628 C24.5219731,3.7264574 24.5219731,7.19192825 22.393722,9.32017937 L17.5802691,14.1336323 C17.3892377,14.3219731 17.1443946,14.4161435 16.8941704,14.4161435 C16.6439462,14.4161435 16.3964126,14.3219731 16.2080717,14.1336323 C15.8286996,13.7569507 15.8286996,13.1434978 16.2080717,12.7641256 L21.0215247,7.95067265 C21.6887892,7.28609865 22.0547085,6.40089686 22.0547085,5.45919283 C22.0547085,4.51748879 21.6860987,3.632287 21.0215247,2.967713 C19.6466368,1.59282511 17.4107623,1.59282511 16.0358744,2.967713 L11.2224215,7.78116592 C10.8457399,8.16053812 10.232287,8.16053812 9.8529148,7.78116592 C9.4735426,7.4044843 9.4735426,6.79103139 9.8529148,6.41165919 L14.6663677,1.59820628 C16.7973094,-0.532735426 20.2600897,-0.532735426 22.3910314,1.59820628 Z M11.2816143,14.1282511 C11.090583,14.3165919 10.8484305,14.4107623 10.5982063,14.4107623 C10.3479821,14.4107623 10.1004484,14.3165919 9.91210762,14.1282511 C9.53273543,13.7515695 9.53273543,13.1381166 9.91210762,12.7587444 L12.6565022,10.0143498 C13.0331839,9.63497758 13.6466368,9.63497758 14.026009,10.0143498 C14.4053812,10.3910314 14.4053812,11.0044843 14.026009,11.3838565 L11.2816143,14.1282511 Z" transform="translate(404 884)"/>
  </g>
</svg>
