<svg xmlns="http://www.w3.org/2000/svg" width="24" height="24" viewBox="0 0 24 24">
  <g fill="none" fill-rule="evenodd" transform="translate(-744 -1152)">
    <path fill="#555" fill-rule="nonzero" d="M19.7430833,19.7476667 L16.48525,19.7476667 L16.48525,14.64275 C16.48525,13.4254167 16.4605,11.8588333 14.7875833,11.8588333 C13.089,11.8588333 12.8295833,13.1834167 12.8295833,14.5529167 L12.8295833,19.7476667 L9.57175,19.7476667 L9.57175,9.25 L12.70125,9.25 L12.70125,10.6809167 L12.7434167,10.6809167 C13.1806667,9.85591667 14.244,8.98508333 15.8325833,8.98508333 C19.1335,8.98508333 19.744,11.1575833 19.744,13.9855 L19.744,19.7476667 L19.7430833,19.7476667 Z M5.89225,7.81358333 C4.84358333,7.81358333 4.00116667,6.96475 4.00116667,5.92066667 C4.00116667,4.8775 4.8445,4.02958333 5.89225,4.02958333 C6.93725,4.02958333 7.78425,4.8775 7.78425,5.92066667 C7.78425,6.96475 6.93633333,7.81358333 5.89225,7.81358333 Z M7.52575,19.7476667 L4.25875,19.7476667 L4.25875,9.25 L7.52575,9.25 L7.52575,19.7476667 Z M21.3729167,1 L2.62341667,1 C1.726,1 1,1.7095 1,2.58491667 L1,21.4150833 C1,22.2914167 1.726,23 2.62341667,23 L21.3701667,23 C22.2666667,23 23,22.2914167 23,21.4150833 L23,2.58491667 C23,1.7095 22.2666667,1 21.3701667,1 L21.3729167,1 Z" transform="translate(744 1152)"/>
  </g>
</svg>
