<svg xmlns="http://www.w3.org/2000/svg" width="24" height="24" viewBox="0 0 24 24">
  <g fill="none" fill-rule="evenodd" transform="translate(-408 -888)">
    <path fill="#555" fill-rule="nonzero" d="M13.0989802,15.3782075 C13.4070948,15.0700929 13.9066472,15.0700929 14.2147618,15.3782075 C14.5228764,15.6863221 14.5228764,16.1858745 14.2147618,16.4939891 L9.80898462,20.8997663 L9.70756705,20.9853943 C8.6518052,21.7342877 7.56714438,22.0772623 6.47373102,21.9854151 C5.09518201,21.8696165 4.03254848,21.2876128 3.26611263,20.4176016 C2.44220208,19.4823488 2.02737579,18.5883337 2.00074121,17.1737052 C1.97872593,16.0044192 2.44719971,14.8972868 3.39718143,13.8465792 L7.48226667,9.76149392 C7.79038125,9.45337934 8.28993368,9.45337934 8.59804826,9.76149392 C8.90616283,10.0696085 8.90616283,10.5691609 8.59804826,10.8772755 L4.54069262,14.9331788 C3.87296517,15.6727821 3.56444289,16.4019051 3.57841505,17.1440008 C3.59723844,18.1437577 3.85468729,18.6985999 4.4501459,19.3745282 C4.95917162,19.952343 5.6543161,20.3330732 6.60581458,20.4129995 C7.28782629,20.4702887 7.99357124,20.2533909 8.74184089,19.7353468 L13.0989802,15.3782075 Z M15.3782075,13.0989802 L19.7353468,8.74184089 C20.2533909,7.99357124 20.4702887,7.28782629 20.4129995,6.60581458 C20.3330732,5.6543161 19.952343,4.95917162 19.3745282,4.4501459 C18.6985999,3.85468729 18.1437577,3.59723844 17.1440008,3.57841505 C16.4019051,3.56444289 15.6727821,3.87296517 14.9331788,4.54069262 L10.8772755,8.59804826 C10.5691609,8.90616283 10.0696085,8.90616283 9.76149392,8.59804826 C9.45337934,8.28993368 9.45337934,7.79038125 9.76149392,7.48226667 L13.8465792,3.39718143 C14.8972868,2.44719971 16.0044192,1.97872593 17.1737052,2.00074121 C18.5883337,2.02737579 19.4823488,2.44220208 20.4176016,3.26611263 C21.2876128,4.03254848 21.8696165,5.09518201 21.9854151,6.47373102 C22.0772623,7.56714438 21.7342877,8.6518052 20.9853943,9.70756705 L20.8997663,9.80898462 L16.4939891,14.2147618 C16.1858745,14.5228764 15.6863221,14.5228764 15.3782075,14.2147618 C15.0700929,13.9066472 15.0700929,13.4070948 15.3782075,13.0989802 Z M12.8355524,9.69783939 C13.143667,9.38972482 13.6432194,9.38972482 13.951334,9.69783939 C14.2594486,10.005954 14.2594486,10.5055064 13.951334,10.813621 L11.0265937,13.7383613 C10.7184791,14.0464759 10.2189267,14.0464759 9.9108121,13.7383613 C9.60269752,13.4302467 9.60269752,12.9306943 9.9108121,12.6225797 L12.8355524,9.69783939 Z" transform="translate(408 888)"/>
  </g>
</svg>
