<svg xmlns="http://www.w3.org/2000/svg" width="24" height="24" viewBox="0 0 24 24">
  <g fill="none" fill-rule="evenodd" transform="translate(-744 -1152)">
    <path fill="#555" fill-rule="nonzero" d="M18.7430833,18.7476667 L15.48525,18.7476667 L15.48525,13.64275 C15.48525,12.4254167 15.4605,10.8588333 13.7875833,10.8588333 C12.089,10.8588333 11.8295833,12.1834167 11.8295833,13.5529167 L11.8295833,18.7476667 L8.57175,18.7476667 L8.57175,8.25 L11.70125,8.25 L11.70125,9.68091667 L11.7434167,9.68091667 C12.1806667,8.85591667 13.244,7.98508333 14.8325833,7.98508333 C18.1335,7.98508333 18.744,10.1575833 18.744,12.9855 L18.744,18.7476667 L18.7430833,18.7476667 Z M4.89225,6.81358333 C3.84358333,6.81358333 3.00116667,5.96475 3.00116667,4.92066667 C3.00116667,3.8775 3.8445,3.02958333 4.89225,3.02958333 C5.93725,3.02958333 6.78425,3.8775 6.78425,4.92066667 C6.78425,5.96475 5.93633333,6.81358333 4.89225,6.81358333 Z M6.52575,18.7476667 L3.25875,18.7476667 L3.25875,8.25 L6.52575,8.25 L6.52575,18.7476667 Z M20.3729167,0 L1.62341667,0 C0.726,0 0,0.7095 0,1.58491667 L0,20.4150833 C0,21.2914167 0.726,22 1.62341667,22 L20.3701667,22 C21.2666667,22 22,21.2914167 22,20.4150833 L22,1.58491667 C22,0.7095 21.2666667,0 20.3701667,0 L20.3729167,0 Z" transform="translate(745 1153)"/>
  </g>
</svg>
