<svg xmlns="http://www.w3.org/2000/svg" width="24" height="24" viewBox="0 0 24 24">
  <path fill="#555" d="M10.7302782,6.70558792 C10.6988788,6.77629501 10.6690494,6.81164856 10.64079,6.81164856 C10.6058021,6.81902877 10.5883081,6.80045922 10.5883081,6.75593993 C10.5883081,6.66666328 10.6549197,6.61083562 10.7881427,6.58845694 L10.8931063,6.58845694 C10.8159536,6.59583717 10.7616775,6.63488082 10.7302782,6.70558792 Z M11.6867255,6.6720199 C11.6342437,6.61631128 11.5729027,6.59952726 11.5027027,6.62166787 C11.6709136,6.53977143 11.7830542,6.54727066 11.8391246,6.64416558 C11.860207,6.68892293 11.8496658,6.72237191 11.8075009,6.74451251 C11.7794658,6.75189273 11.7392073,6.72772853 11.6867255,6.6720199 Z M8.05437883,11.5433105 C8.04024912,11.5730694 8.02443729,11.6196123 8.00694335,11.6829392 C7.9894494,11.7462661 7.97016122,11.7964991 7.9490788,11.8336381 C7.92799637,11.8707772 7.8930085,11.9191057 7.84411518,11.9786234 C7.79499759,12.0529016 7.79152123,12.0975399 7.8336861,12.1125384 C7.86172126,12.1199186 7.90556824,12.0938498 7.96522704,12.034332 C8.02488584,11.9748143 8.06873282,11.9077973 8.09676797,11.833281 C8.1037207,11.8109024 8.11078555,11.7848336 8.11796255,11.7550747 C8.12513954,11.7253158 8.1322044,11.7029371 8.13915712,11.6879387 C8.14610984,11.6729402 8.15138045,11.6561562 8.15496895,11.6375866 C8.15855745,11.6190171 8.16035171,11.6041376 8.16035171,11.5929483 L8.16035171,11.5593803 C8.16035171,11.5593803 8.15687534,11.5500955 8.14992262,11.531526 C8.1429699,11.5129564 8.13242869,11.5054572 8.11829897,11.5090283 C8.08959098,11.5023623 8.06850855,11.5135516 8.05437883,11.5433105 Z M16.5278358,15.0472401 C16.555871,14.9355848 16.5821119,14.8333333 16.6065585,14.7404856 C16.6310052,14.6476379 16.6484991,14.550981 16.6590403,14.450515 C16.6695816,14.350049 16.6801228,14.2700572 16.690664,14.2105394 C16.7012052,14.1510217 16.7029995,14.0673397 16.6960467,13.9594935 C16.689094,13.8516473 16.6856177,13.7791547 16.6856177,13.7420156 C16.6856176,13.7048765 16.6733943,13.6230991 16.6489477,13.4966834 C16.624501,13.3702676 16.6104835,13.2939659 16.6068949,13.2677781 C16.6033064,13.2415903 16.5858125,13.1486235 16.5544131,12.9888779 C16.5230138,12.8291322 16.5037256,12.7305707 16.4965486,12.6931936 C16.4265728,12.3360871 16.2618383,11.9529117 16.0023449,11.5436676 C15.7428515,11.1344235 15.4905351,10.8554042 15.2453958,10.7066098 C15.4136067,10.8554042 15.6133291,11.1641824 15.8445631,11.6329443 C16.4543837,12.8380599 16.643565,13.8721214 16.4121067,14.735129 C16.334954,15.0327178 16.1597903,15.1890114 15.8866158,15.2040099 C15.6692873,15.2337688 15.5343821,15.1649662 15.4819003,14.9976023 C15.4294185,14.8302383 15.4013834,14.5196747 15.3977949,14.0659113 C15.3942064,13.6121479 15.3539479,13.2140931 15.2770194,12.8717469 C15.2139964,12.5815383 15.1457028,12.3248977 15.0721385,12.1018252 C14.9985743,11.8787526 14.9302806,11.7094841 14.8672576,11.5940196 C14.8042346,11.4785552 14.7499585,11.387374 14.7044294,11.320476 C14.6589003,11.2535781 14.6133713,11.1977504 14.5678422,11.152993 C14.5223131,11.1082357 14.4960722,11.0821669 14.4891195,11.0747867 C14.3908843,10.613405 14.28222,10.2302297 14.1631267,9.92526067 C14.0440334,9.62029167 13.9406397,9.4119795 13.8529458,9.30032418 C13.7652518,9.18866886 13.6829406,9.06594323 13.6060121,8.93214731 C13.5290837,8.79835138 13.4764897,8.64955698 13.4482303,8.48576411 C13.4201951,8.32958951 13.4412776,8.13056212 13.5114776,7.88868195 C13.5816776,7.64680178 13.5974894,7.46265383 13.5589131,7.33623809 C13.5203367,7.20982236 13.3643491,7.11685562 13.0909503,7.05733787 C12.9857624,7.03495919 12.8297748,6.96794219 12.6229875,6.85628686 C12.4162002,6.74463154 12.2918363,6.68511378 12.2498957,6.67773359 C12.1938254,6.67035339 12.155249,6.57369654 12.1341666,6.38776306 C12.1130841,6.20182957 12.1411193,6.01208695 12.218272,5.8185352 C12.2954248,5.62498345 12.421583,5.52451747 12.5967466,5.51713726 C12.8560157,5.49475859 13.0347678,5.6064139 13.133003,5.85210321 C13.2312382,6.09779253 13.2452558,6.31360392 13.1750558,6.49953741 C13.097903,6.6409516 13.0908382,6.73951301 13.1538612,6.79522164 C13.2168842,6.85093026 13.3220721,6.85283483 13.4694249,6.80093535 C13.5604831,6.77117646 13.6060121,6.6372615 13.6060121,6.39919046 L13.6060121,5.98637528 C13.5710243,5.76306464 13.5237009,5.57713116 13.4640421,5.42857482 C13.4043833,5.28001848 13.3308191,5.16657763 13.2433494,5.08825227 C13.1558797,5.00992691 13.0735685,4.95409925 12.9964158,4.92076929 C12.919263,4.88743933 12.8246164,4.85958501 12.7124757,4.83720635 C11.9624793,4.89672411 11.6506163,5.39512584 11.7768866,6.33241152 C11.7768866,6.44406684 11.7734102,6.4998945 11.7664575,6.4998945 C11.7034345,6.43299655 11.6000408,6.39395289 11.4562766,6.38276355 C11.3125123,6.3715742 11.1968953,6.37347877 11.1094256,6.38847726 C11.021956,6.40347574 10.9676799,6.3849062 10.9465975,6.33276863 C10.9535502,5.9087641 10.8974799,5.57391718 10.7783866,5.32822787 C10.6592932,5.08253856 10.5016235,4.9560038 10.3053774,4.94862359 C10.1160841,4.94124339 9.97063771,5.0434949 9.86903831,5.25537813 C9.76743891,5.46726135 9.70957435,5.68854839 9.69544464,5.91923923 C9.68849192,6.03089455 9.70071525,6.16849961 9.73211462,6.3320544 C9.76351399,6.4956092 9.80904308,6.63511883 9.86870188,6.75058329 C9.92836068,6.86604776 9.98263674,6.91628075 10.0315301,6.90128226 C10.1015058,6.87890358 10.1575761,6.82676602 10.199741,6.74486958 C10.2277761,6.67797163 10.2032173,6.64821274 10.1260646,6.65559294 C10.076947,6.65559294 10.0226709,6.60166984 9.96323641,6.49382366 C9.90380188,6.38597748 9.87049612,6.26134729 9.86331913,6.1199331 C9.85636641,5.95637829 9.88787792,5.81877323 9.95785366,5.70711792 C10.0278294,5.59546261 10.1470349,5.54332505 10.3154701,5.55070524 C10.4345634,5.55070524 10.5292101,5.62879254 10.5994101,5.78496714 C10.6696101,5.94114175 10.7029159,6.08624605 10.6993274,6.22028005 C10.6957389,6.35431405 10.6904683,6.43609145 10.6835156,6.46561226 C10.5294344,6.57726759 10.4207701,6.68511377 10.3575228,6.78915081 C10.3014525,6.87842746 10.2051237,6.96579953 10.0685364,7.05126702 C9.93194917,7.13673452 9.86006703,7.1832774 9.85289003,7.19089568 C9.76183185,7.2951708 9.70755579,7.39563678 9.69006185,7.49229362 C9.6725679,7.58895046 9.69880881,7.65596746 9.76878456,7.69334462 C9.86701974,7.75286239 9.95460156,7.82535501 10.03153,7.91082251 C10.1084585,7.99629 10.1645288,8.0669971 10.1997409,8.1229438 C10.2349531,8.1788905 10.2997704,8.22721892 10.3941928,8.26792905 C10.4886152,8.30863919 10.6129791,8.3328034 10.7672846,8.34042168 C11.0967537,8.35542016 11.454258,8.29959249 11.8397974,8.1729387 C11.8539271,8.16555849 11.9345562,8.13948971 12.0816847,8.09473236 C12.2288132,8.04997501 12.3497008,8.01093136 12.4443475,7.97760141 C12.5389942,7.94427146 12.6423878,7.89594304 12.7545284,7.83261615 C12.866669,7.76928926 12.9402333,7.70417683 12.9752211,7.63727886 C13.0382442,7.53300374 13.108332,7.50324486 13.1854848,7.54800221 C13.2204727,7.57038089 13.2432372,7.60204433 13.2537784,7.64299255 C13.2643196,7.68394076 13.2537784,7.72857909 13.2221548,7.77690752 C13.1905311,7.82523595 13.1326666,7.8605895 13.0485611,7.88296816 C12.9083853,7.92772552 12.710345,8.00771739 12.4544401,8.12294378 C12.1985352,8.23817017 12.0390713,8.3106628 11.9760482,8.34042166 C11.6676616,8.48183586 11.4222979,8.56742239 11.2399572,8.59718128 C11.0647936,8.63432036 10.7879184,8.62682113 10.4093317,8.57468357 C10.339356,8.5596851 10.3078445,8.56718433 10.3147972,8.59718128 C10.3217499,8.62717822 10.3812966,8.69788532 10.4934372,8.80930257 C10.6686008,8.98047564 10.9034233,9.06225304 11.1979045,9.05463478 C11.3169979,9.04725457 11.4431561,9.02118579 11.5763791,8.97642844 C11.7096022,8.93167109 11.8357604,8.87953353 11.9548537,8.82001576 C12.073947,8.760498 12.1913582,8.69538557 12.3070874,8.62467847 C12.4228165,8.55397137 12.5280044,8.49076351 12.622651,8.43505489 C12.7172977,8.37934626 12.8031974,8.33470794 12.8803502,8.30113992 C12.9575029,8.2675719 13.0188438,8.25828713 13.0643729,8.27328561 C13.109902,8.2882841 13.1397314,8.32923232 13.1538611,8.39613028 C13.1538611,8.41112875 13.1503848,8.42791276 13.1434321,8.44648231 C13.1364793,8.46505186 13.1224618,8.4836214 13.1013793,8.50219094 C13.0802969,8.52076048 13.0592145,8.53754449 13.038132,8.55254297 C13.0170496,8.56754146 12.9872202,8.586111 12.9486438,8.6082516 C12.9100674,8.63039221 12.8785559,8.64717622 12.8541093,8.65860364 C12.8296626,8.67003106 12.7946748,8.6886006 12.7491457,8.71431227 C12.7036166,8.74002394 12.6703108,8.75680795 12.6492284,8.7646643 C12.4529823,8.86893942 12.2164778,9.03261326 11.9397147,9.25568582 C11.6629517,9.47875838 11.4299235,9.63874211 11.2406301,9.73563703 C11.0513368,9.83253194 10.8796495,9.83622204 10.7255683,9.74670734 C10.5784398,9.66481089 10.3576349,9.39329087 10.0631537,8.93214727 C9.90907245,8.70145643 9.82149063,8.61967902 9.8004082,8.68681505 C9.79345547,8.70919373 9.78997911,8.74633281 9.78997911,8.7982323 C9.78997911,8.98416578 9.73738516,9.19438251 9.63219726,9.42888249 C9.52700936,9.66338247 9.42361572,9.86979007 9.32201633,10.0481053 C9.22041694,10.2264205 9.1468527,10.4422319 9.1013236,10.6955395 C9.0557945,10.9488471 9.09605298,11.183228 9.22209905,11.3986823 C9.06084085,11.4434396 8.84183023,11.7782866 8.56506719,12.4032231 C8.28830414,13.0281595 8.12188747,13.55263 8.06581718,13.9766346 C8.05168746,14.1106686 8.04641685,14.3673091 8.05000534,14.7465563 C8.05359383,15.1258035 8.03430565,15.345305 7.99214079,15.4050608 C7.93607048,15.5836141 7.83447108,15.5948034 7.68734259,15.4386288 C7.46306136,15.207938 7.33690317,14.8583307 7.30886801,14.3898068 C7.2947383,14.1814947 7.30875588,13.9731825 7.35092075,13.7648704 C7.3789559,13.6234562 7.37547954,13.5564392 7.34049166,13.5638194 L7.29843893,13.619528 C7.04612254,14.1030503 7.08111041,14.7204875 7.40340254,15.4718397 C7.43839042,15.5611164 7.52597224,15.6652725 7.666148,15.784308 C7.80632377,15.9033435 7.89042923,15.9777407 7.91846439,16.0074996 C8.05864015,16.1786726 8.42309715,16.5153051 9.01183538,17.0173969 C9.60057361,17.5194888 9.92645423,17.8041027 9.98947725,17.8712387 C10.1016179,17.982894 10.1629588,18.1241892 10.1735,18.2951242 C10.1840412,18.4660592 10.1349236,18.6260429 10.0261472,18.7750754 C9.91737083,18.9241079 9.75790687,19.0096944 9.54775537,19.031835 C9.60382568,19.1434903 9.70542508,19.3090688 9.85255356,19.5285703 C9.99968205,19.7480717 10.0978051,19.9488847 10.1469227,20.131009 C10.1960403,20.3131334 10.2205991,20.5753686 10.2205991,20.9177148 C10.5431155,20.7391615 10.5676743,20.3969344 10.2942755,19.8910334 C10.2662403,19.8315157 10.2294582,19.7719979 10.1839291,19.7124802 C10.1384,19.6529624 10.1050942,19.6083241 10.0840118,19.5785652 C10.0629294,19.5488063 10.0558645,19.5264276 10.0628172,19.5114292 C10.0838997,19.4742901 10.1294288,19.4389365 10.1994045,19.4053685 C10.2693802,19.3718005 10.3394681,19.3810853 10.4096681,19.4332228 C10.7321846,19.8200883 11.3138579,19.9540032 12.1546882,19.8349677 C13.086801,19.7233124 13.7070508,19.3996548 14.0154375,18.863995 C14.1766957,18.5814046 14.2959011,18.4697493 14.3730539,18.529029 C14.4571593,18.5737864 14.4921472,18.7672191 14.4780175,19.1093272 C14.4710648,19.2952607 14.3904357,19.6374878 14.2361302,20.1360085 C14.1731072,20.3071816 14.1520247,20.4466912 14.1728829,20.5545374 C14.193741,20.6623836 14.2778465,20.7199968 14.4251993,20.727377 C14.4462817,20.5859628 14.4970814,20.2995634 14.5775984,19.8681786 C14.6581153,19.4367939 14.7054387,19.101947 14.7195684,18.8636379 C14.7336981,18.7074633 14.7109336,18.4340387 14.6512748,18.0433641 C14.591616,17.6526895 14.565375,17.2918928 14.572552,16.9609741 C14.579729,16.6300553 14.6603581,16.3678201 14.8144393,16.1742683 C14.9196272,16.0402343 15.0983794,15.9732173 15.3506958,15.9732173 C15.3576485,15.6980072 15.4785361,15.5008844 15.7133585,15.3818489 C15.9481809,15.2628133 16.2022916,15.2237697 16.4756904,15.2647179 C16.7490892,15.3056661 16.9593529,15.3893481 17.1064814,15.5157638 C17.106145,15.382087 16.9133752,15.2257934 16.5278358,15.0472401 Z M10.4776254,5.95209308 C10.439049,5.85519816 10.3987905,5.7993705 10.3568499,5.78461009 C10.2938269,5.76961162 10.2623154,5.7956804 10.2623154,5.86281643 C10.2764451,5.89995552 10.293939,5.92233419 10.3147972,5.92995246 C10.3847729,5.92995246 10.4093317,5.98578012 10.3884736,6.09743545 C10.3673912,6.24622984 10.3954263,6.32062704 10.4725791,6.32062704 C10.4936615,6.32062704 10.5042027,6.30943771 10.5042027,6.28705903 C10.5249487,6.16064331 10.5162017,6.04898799 10.4776254,5.95209308 Z M14.8406803,8.35720576 C14.8092809,8.33125602 14.7637518,8.31268647 14.704093,8.30149713 C14.6444342,8.29030778 14.5936345,8.26983368 14.5516939,8.24007481 C14.516706,8.21769613 14.4834003,8.18793725 14.4517766,8.15079816 C14.420153,8.11365907 14.3955942,8.08390019 14.3781002,8.06152151 C14.3606063,8.03914284 14.3413181,8.01497863 14.3202357,7.98902889 C14.2991533,7.96307914 14.2851357,7.9481997 14.2781829,7.94439056 C14.2712302,7.94058142 14.2572126,7.9461761 14.2361302,7.96117458 C14.137895,8.0802101 14.1624538,8.24197937 14.3098066,8.44648241 C14.4571594,8.65098544 14.5938588,8.76811639 14.7199048,8.79787526 C14.7829279,8.80525547 14.8337276,8.77549659 14.8723039,8.70859862 C14.9108803,8.64170065 14.9231036,8.56730345 14.9089739,8.48540702 C14.8948442,8.42588926 14.8720796,8.3831555 14.8406803,8.35720576 Z M13.0377956,6.10850575 C13.0377956,6.02660931 13.0203017,5.95411668 12.9853138,5.89102787 C12.9503259,5.82793905 12.9117495,5.78139616 12.8695847,5.75139921 C12.8274198,5.72140225 12.7959083,5.71021291 12.7750501,5.71783119 C12.6768149,5.7252114 12.6522562,5.75128018 12.7013737,5.79603753 L12.7434265,5.81853524 C12.8416617,5.84829412 12.9047968,5.96363954 12.932832,6.1645715 C12.932832,6.18695017 12.9608671,6.17945094 13.0169374,6.14207379 L13.0377956,6.10850575 Z M13.5790984,3.45270424 C13.5616044,3.43056363 13.5300929,3.40449485 13.4845638,3.3744979 C13.4390347,3.34450096 13.405729,3.32212228 13.3846465,3.30736187 C13.2794586,3.19570655 13.1953532,3.13987889 13.1323302,3.13987889 C13.0693071,3.14725909 13.0290487,3.1751134 13.0115547,3.22344182 C12.9940608,3.27177024 12.9905844,3.32009866 13.0011256,3.36842708 C13.0116669,3.4167555 13.0098726,3.46329839 12.9957429,3.50805574 C12.9887902,3.53781462 12.9677077,3.57685827 12.9324956,3.62518669 C12.8972834,3.67351511 12.876201,3.70696409 12.8692483,3.72553363 C12.8622955,3.74410317 12.8728368,3.77576661 12.9008719,3.82052397 C12.9289071,3.84290264 12.9569422,3.84290264 12.9849774,3.82052397 C13.0130125,3.79814529 13.0515889,3.76469631 13.1007065,3.72017703 C13.1498241,3.67565775 13.202418,3.64220877 13.2584884,3.6198301 C13.2654411,3.61244989 13.2969526,3.60875979 13.3530229,3.60875979 C13.4090932,3.60875979 13.4616871,3.60126055 13.5108047,3.58626208 C13.5599223,3.57126361 13.5914338,3.54519483 13.6053393,3.50805574 C13.6053392,3.4934144 13.5965923,3.47484486 13.5790984,3.45270424 Z M19.8715325,18.7468641 C19.9486852,18.8399498 19.990738,18.9292265 19.9976907,19.014694 C20.0046434,19.1001615 19.9958965,19.1838435 19.9714498,19.2657399 C19.9470032,19.3476364 19.8927271,19.4294138 19.8086216,19.5110721 C19.7245162,19.5927305 19.6422049,19.6652231 19.561688,19.72855 C19.481171,19.7918769 19.3759832,19.8606794 19.2461243,19.9349576 C19.1162655,20.0092358 19.0059191,20.0706581 18.9150852,20.1192246 C18.8242513,20.1677911 18.7121107,20.2254043 18.5786634,20.2920642 C18.445216,20.3587241 18.3505693,20.4070525 18.2947233,20.4370494 C18.0285015,20.5784636 17.7288618,20.7867758 17.3958042,21.0619859 C17.0627465,21.3371961 16.7982068,21.5752671 16.602185,21.776199 C16.4830917,21.8952346 16.2447929,21.9677272 15.8872886,21.9936769 C15.5297844,22.0196267 15.2179213,21.9657036 14.9516995,21.8319077 C14.8254292,21.7650097 14.7220355,21.6776376 14.6415186,21.5697914 C14.5610016,21.4619453 14.5031371,21.3670739 14.4679249,21.2851775 C14.4327127,21.2032811 14.3556721,21.1307884 14.2368031,21.0676996 C14.117934,21.0046108 13.9531995,20.9692573 13.7425994,20.961639 C13.4342127,20.9542588 12.9785854,20.9505687 12.3757175,20.9505687 C12.2424944,20.9505687 12.042772,20.9561633 11.7765501,20.9673527 C11.5103283,20.978542 11.3070174,20.9878268 11.1666173,20.995207 C10.8582307,21.0025872 10.5796734,21.0584149 10.3309455,21.16269 C10.0822176,21.2669651 9.8947185,21.3786204 9.76844817,21.4976559 C9.64217785,21.6166914 9.48977875,21.7227521 9.31125088,21.8158379 C9.132723,21.9089237 8.9452239,21.9516574 8.74875356,21.9440391 C8.54555477,21.9366589 8.15653897,21.8213135 7.58170618,21.5980029 C7.0068734,21.3746922 6.49517577,21.2147085 6.04661331,21.1180517 C5.91339026,21.0882928 5.73463812,21.0529392 5.51035689,21.011991 C5.28607566,20.9710428 5.11091202,20.9375938 4.98486596,20.9116441 C4.85881991,20.8856943 4.72043839,20.8503408 4.5697214,20.8055834 C4.41900441,20.7608261 4.30159319,20.706903 4.21748774,20.6438142 C4.13338228,20.5807253 4.07383562,20.5082327 4.03884774,20.4263363 C3.968872,20.2551632 3.9934308,20.0078074 4.11252413,19.6842688 C4.23161746,19.3607303 4.29475263,19.1580128 4.30192963,19.0761164 C4.30888235,18.9570809 4.29486477,18.8082865 4.2598769,18.6297332 C4.22488902,18.4511799 4.18990115,18.2931007 4.15491329,18.1554957 C4.11992542,18.0178906 4.10411359,17.8820711 4.1074778,17.7480371 C4.11084201,17.6140031 4.14762413,17.5135371 4.21782416,17.4466391 C4.31605934,17.3573625 4.51578178,17.3052249 4.81699148,17.2902265 C5.11820117,17.275228 5.32846482,17.2305897 5.44778244,17.1563115 C5.65815823,17.0222775 5.80539886,16.8920526 5.88950433,16.7656369 C5.97360979,16.6392212 6.01566253,16.4494786 6.01566253,16.1964091 C6.16279101,16.7394491 6.0506504,17.1336947 5.67924068,17.379146 C5.45495944,17.5279404 5.16406669,17.583768 4.80656241,17.546629 C4.56815147,17.5242503 4.41743448,17.5613894 4.35441146,17.6580462 C4.26335329,17.7697015 4.28084723,17.9817038 4.40689328,18.294053 C4.42102299,18.3388104 4.44905815,18.4058274 4.49099875,18.495104 C4.53293934,18.5843807 4.56276874,18.6513977 4.58048695,18.696155 C4.59820515,18.7409124 4.61401698,18.8041202 4.62792244,18.8857786 C4.64182789,18.967437 4.64530425,19.0492144 4.63835152,19.1311108 C4.63835152,19.2427661 4.57880485,19.4250095 4.45971152,19.6778409 C4.34061819,19.9306724 4.2915006,20.1092257 4.31235875,20.2135008 C4.33344118,20.3399165 4.46307573,20.4365734 4.70126239,20.5034713 C4.84143816,20.5482287 5.13760152,20.6170312 5.58975247,20.7098789 C6.04190343,20.8027266 6.3905486,20.8790284 6.63568798,20.9387842 C6.8038989,20.9835416 7.06328014,21.065319 7.4138317,21.1841164 C7.76438325,21.3029139 8.05348176,21.3885004 8.28112721,21.4408761 C8.50877266,21.4932517 8.70322448,21.5081311 8.86448268,21.4855144 C9.16591665,21.440757 9.39199213,21.3366009 9.54270911,21.1730461 C9.6934261,21.0094913 9.7740552,20.830938 9.78459642,20.6373863 C9.79513763,20.4438345 9.76889672,20.2262376 9.7058737,19.9845955 C9.64285068,19.7429534 9.57623916,19.5495207 9.50603914,19.4042973 C9.43583911,19.259074 9.36575123,19.1232545 9.29577549,18.9968388 C8.44776816,17.583411 7.85555358,16.6831453 7.51913173,16.2960418 C7.04253413,15.7453835 6.64656562,15.5965891 6.33122621,15.8496586 C6.25407347,15.9165566 6.20147951,15.8607289 6.17344436,15.6821756 C6.15236192,15.5631401 6.14529707,15.421845 6.15224979,15.2582902 C6.15920251,15.0425978 6.19419038,14.8491651 6.2572134,14.677992 C6.32023642,14.5068189 6.40434188,14.3319557 6.50952978,14.1534025 C6.61471768,13.9748492 6.69175829,13.8185555 6.74065159,13.6845215 C6.7967219,13.5283469 6.88957433,13.260517 7.01920887,12.8810318 C7.14884341,12.5015465 7.25223706,12.211457 7.3293898,12.0107631 C7.40654255,11.8100692 7.51173044,11.5831875 7.64495349,11.330118 C7.77817653,11.0770485 7.91487595,10.8762356 8.05505172,10.7276792 C8.8259063,9.66373972 9.26045118,8.93833726 9.35868636,8.55147181 C9.2745809,7.71822316 9.21851059,6.56500704 9.19047545,5.09182345 C9.17634574,4.42212961 9.2604512,3.85861545 9.44279183,3.40128099 C9.62513247,2.94394653 9.99654218,2.55517651 10.557021,2.23497095 C10.8304198,2.07879635 11.1948768,2.00070905 11.650392,2.00070905 C12.0218017,1.99332884 12.3932114,2.04356183 12.7646211,2.15140802 C13.1360308,2.2592542 13.4478939,2.41364327 13.7002102,2.61457523 C14.0996551,2.92716251 14.4202651,3.37914038 14.6620403,3.97050885 C14.9038155,4.56187731 15.0072091,5.11051202 14.9722212,5.61641298 C14.9372334,6.3232459 15.0424213,7.11935546 15.2877849,8.00474167 C15.5261959,8.84537051 15.9922523,9.65624047 16.6859541,10.4373516 C17.0714935,10.8763546 17.4201387,11.4827215 17.7318896,12.2564524 C18.0436405,13.0301833 18.2521099,13.7407063 18.3572978,14.3880215 C18.4133681,14.7525082 18.4308621,15.066881 18.4097796,15.3311399 C18.3886972,15.5953987 18.3466445,15.8018063 18.2836214,15.9503627 C18.2205984,16.098919 18.1505105,16.1806964 18.0733578,16.1956949 C18.003382,16.2106933 17.9210708,16.2814004 17.8264242,16.4078162 C17.7317775,16.5342319 17.6371308,16.6662423 17.5424841,16.8038473 C17.4478374,16.9414524 17.3058674,17.0660826 17.1165741,17.1777379 C16.9272807,17.2893932 16.7135407,17.3415308 16.4753541,17.3341506 C16.3490837,17.3267704 16.2387373,17.3082008 16.144315,17.278442 C16.0498926,17.2486831 15.9710577,17.1984501 15.9078104,17.127743 C15.8445631,17.0570359 15.7972397,16.9994227 15.7658404,16.9549034 C15.734441,16.9103841 15.6941825,16.8340823 15.6450649,16.7259981 C15.5959473,16.6179139 15.5644358,16.5454212 15.5505304,16.5085202 C15.3964492,16.2333101 15.2527971,16.1216548 15.119574,16.1735543 C14.986351,16.2254537 14.8882279,16.4076971 14.8252049,16.7202844 C14.7621819,17.0328717 14.7867407,17.3936684 14.8988813,17.8026744 C15.0390571,18.3235738 15.0425334,19.0489763 14.9093104,19.9788818 C14.8393346,20.4624041 14.9024698,20.8362946 15.0987159,21.1005535 C15.294962,21.3648124 15.5507547,21.487538 15.8660941,21.4687304 C16.1814335,21.4499228 16.479279,21.3179124 16.7596305,21.0726992 C17.1732051,20.7082124 17.4868624,20.4608566 17.7006024,20.3306318 C17.9143424,20.2004069 18.2770052,20.0423277 18.7885906,19.8563942 C19.1600004,19.7223602 19.4298107,19.5865407 19.5980216,19.4489357 C19.7662325,19.3113306 19.8310498,19.1830103 19.7924734,19.0639748 C19.7538971,18.9449393 19.6663152,18.8388786 19.529728,18.7457928 C19.3931407,18.6527071 19.2127065,18.565335 18.9884252,18.4836766 C18.7571913,18.4017802 18.5837097,18.2232269 18.4679806,17.9480168 C18.3522515,17.6728067 18.2996576,17.4030722 18.3101988,17.1388133 C18.32074,16.8745545 18.3750161,16.6979057 18.473027,16.6088672 C18.4799797,16.839558 18.5080148,17.0497748 18.5571324,17.2395174 C18.60625,17.42926 18.6570497,17.579959 18.7095315,17.6916143 C18.7620133,17.8032696 18.8338955,17.9093302 18.9251779,18.0097962 C19.0164604,18.1102622 19.0900246,18.1809693 19.1458707,18.2219175 C19.2017167,18.2628657 19.2770752,18.3111941 19.3719461,18.3669028 C19.4668171,18.4226114 19.5246817,18.457965 19.5455398,18.4729634 C19.6857155,18.5625971 19.7943798,18.6537783 19.8715325,18.7468641 Z"/>
</svg>
