<svg xmlns="http://www.w3.org/2000/svg" width="20" height="20" viewBox="0 0 20 20">
  <path fill="#555" d="M8.73027816,4.70558792 C8.69887878,4.77629501 8.66904938,4.81164856 8.64078995,4.81164856 C8.60580208,4.81902877 8.58830814,4.80045922 8.58830814,4.75593993 C8.58830814,4.66666328 8.65491966,4.61083562 8.78814271,4.58845694 L8.89310634,4.58845694 C8.81595359,4.59583717 8.76167753,4.63488082 8.73027816,4.70558792 Z M9.68672546,4.6720199 C9.63424365,4.61631128 9.57290273,4.59952726 9.50270271,4.62166787 C9.67091363,4.53977143 9.78305425,4.54727066 9.83912456,4.64416558 C9.86020699,4.68892293 9.84966578,4.72237191 9.80750091,4.74451251 C9.77946575,4.75189273 9.73920727,4.72772853 9.68672546,4.6720199 Z M6.05437883,9.54331052 C6.04024912,9.5730694 6.02443729,9.61961228 6.00694335,9.68293918 C5.9894494,9.74626607 5.97016122,9.79649906 5.9490788,9.83363814 C5.92799637,9.87077723 5.8930085,9.91910565 5.84411518,9.9786234 C5.79499759,10.0529016 5.79152123,10.0975399 5.8336861,10.1125384 C5.86172126,10.1199186 5.90556824,10.0938498 5.96522704,10.034332 C6.02488584,9.97481427 6.06873282,9.90779727 6.09676797,9.83328103 C6.1037207,9.81090235 6.11078555,9.78483358 6.11796255,9.75507469 C6.12513954,9.72531581 6.1322044,9.70293713 6.13915712,9.68793866 C6.14610984,9.67294019 6.15138045,9.65615618 6.15496895,9.63758663 C6.15855745,9.61901708 6.16035171,9.60413764 6.16035171,9.59294831 L6.16035171,9.55938029 C6.16035171,9.55938029 6.15687534,9.55009552 6.14992262,9.53152598 C6.1429699,9.51295645 6.13242869,9.50545721 6.11829897,9.50902828 C6.08959098,9.50236229 6.06850855,9.51355163 6.05437883,9.54331052 Z M14.5278358,13.0472401 C14.555871,12.9355848 14.5821119,12.8333333 14.6065585,12.7404856 C14.6310052,12.6476379 14.6484991,12.550981 14.6590403,12.450515 C14.6695816,12.350049 14.6801228,12.2700572 14.690664,12.2105394 C14.7012052,12.1510217 14.7029995,12.0673397 14.6960467,11.9594935 C14.689094,11.8516473 14.6856177,11.7791547 14.6856177,11.7420156 C14.6856176,11.7048765 14.6733943,11.6230991 14.6489477,11.4966834 C14.624501,11.3702676 14.6104835,11.2939659 14.6068949,11.2677781 C14.6033064,11.2415903 14.5858125,11.1486235 14.5544131,10.9888779 C14.5230138,10.8291322 14.5037256,10.7305707 14.4965486,10.6931936 C14.4265728,10.3360871 14.2618383,9.95291173 14.0023449,9.54366761 C13.7428515,9.13442349 13.4905351,8.85540423 13.2453958,8.70660983 C13.4136067,8.85540423 13.6133291,9.16418237 13.8445631,9.63294425 C14.4543837,10.8380599 14.643565,11.8721214 14.4121067,12.735129 C14.334954,13.0327178 14.1597903,13.1890114 13.8866158,13.2040099 C13.6692873,13.2337688 13.5343821,13.1649662 13.4819003,12.9976023 C13.4294185,12.8302383 13.4013834,12.5196747 13.3977949,12.0659113 C13.3942064,11.6121479 13.3539479,11.2140931 13.2770194,10.8717469 C13.2139964,10.5815383 13.1457028,10.3248977 13.0721385,10.1018252 C12.9985743,9.87875262 12.9302806,9.7094841 12.8672576,9.59401964 C12.8042346,9.47855518 12.7499585,9.38737397 12.7044294,9.32047601 C12.6589003,9.25357805 12.6133713,9.19775039 12.5678422,9.15299303 C12.5223131,9.10823566 12.4960722,9.08216688 12.4891195,9.07478669 C12.3908843,8.61340501 12.28222,8.23022967 12.1631267,7.92526067 C12.0440334,7.62029167 11.9406397,7.4119795 11.8529458,7.30032418 C11.7652518,7.18866886 11.6829406,7.06594323 11.6060121,6.93214731 C11.5290837,6.79835138 11.4764897,6.64955698 11.4482303,6.48576411 C11.4201951,6.32958951 11.4412776,6.13056212 11.5114776,5.88868195 C11.5816776,5.64680178 11.5974894,5.46265383 11.5589131,5.33623809 C11.5203367,5.20982236 11.3643491,5.11685562 11.0909503,5.05733787 C10.9857624,5.03495919 10.8297748,4.96794219 10.6229875,4.85628686 C10.4162002,4.74463154 10.2918363,4.68511378 10.2498957,4.67773359 C10.1938254,4.67035339 10.155249,4.57369654 10.1341666,4.38776306 C10.1130841,4.20182957 10.1411193,4.01208695 10.218272,3.8185352 C10.2954248,3.62498345 10.421583,3.52451747 10.5967466,3.51713726 C10.8560157,3.49475859 11.0347678,3.6064139 11.133003,3.85210321 C11.2312382,4.09779253 11.2452558,4.31360392 11.1750558,4.49953741 C11.097903,4.6409516 11.0908382,4.73951301 11.1538612,4.79522164 C11.2168842,4.85093026 11.3220721,4.85283483 11.4694249,4.80093535 C11.5604831,4.77117646 11.6060121,4.6372615 11.6060121,4.39919046 L11.6060121,3.98637528 C11.5710243,3.76306464 11.5237009,3.57713116 11.4640421,3.42857482 C11.4043833,3.28001848 11.3308191,3.16657763 11.2433494,3.08825227 C11.1558797,3.00992691 11.0735685,2.95409925 10.9964158,2.92076929 C10.919263,2.88743933 10.8246164,2.85958501 10.7124757,2.83720635 C9.9624793,2.89672411 9.65061625,3.39512584 9.77688659,4.33241152 C9.77688659,4.44406684 9.77341023,4.4998945 9.76645751,4.4998945 C9.70343449,4.43299655 9.60004084,4.39395289 9.45627658,4.38276355 C9.31251231,4.3715742 9.19689533,4.37347877 9.10942565,4.38847726 C9.02195596,4.40347574 8.9676799,4.3849062 8.94659747,4.33276863 C8.95355019,3.9087641 8.89747988,3.57391718 8.77838655,3.32822787 C8.65929322,3.08253856 8.50162352,2.9560038 8.30537744,2.94862359 C8.11608408,2.94124339 7.97063771,3.0434949 7.86903831,3.25537813 C7.76743891,3.46726135 7.70957435,3.68854839 7.69544464,3.91923923 C7.68849192,4.03089455 7.70071525,4.16849961 7.73211462,4.3320544 C7.76351399,4.4956092 7.80904308,4.63511883 7.86870188,4.75058329 C7.92836068,4.86604776 7.98263674,4.91628075 8.03153006,4.90128226 C8.1015058,4.87890358 8.15757611,4.82676602 8.19974098,4.74486958 C8.22777613,4.67797163 8.20321734,4.64821274 8.12606459,4.65559294 C8.076947,4.65559294 8.02267094,4.60166984 7.96323641,4.49382366 C7.90380188,4.38597748 7.87049612,4.26134729 7.86331913,4.1199331 C7.85636641,3.95637829 7.88787792,3.81877323 7.95785366,3.70711792 C8.0278294,3.59546261 8.14703487,3.54332505 8.31547008,3.55070524 C8.43456341,3.55070524 8.52921009,3.62879254 8.59941011,3.78496714 C8.66961014,3.94114175 8.7029159,4.08624605 8.69932739,4.22028005 C8.69573889,4.35431405 8.69046828,4.43609145 8.68351556,4.46561226 C8.52943435,4.57726759 8.4207701,4.68511377 8.35752279,4.78915081 C8.30145248,4.87842746 8.20512369,4.96579953 8.06853643,5.05126702 C7.93194917,5.13673452 7.86006703,5.1832774 7.85289003,5.19089568 C7.76183185,5.2951708 7.70755579,5.39563678 7.69006185,5.49229362 C7.6725679,5.58895046 7.69880881,5.65596746 7.76878456,5.69334462 C7.86701974,5.75286239 7.95460156,5.82535501 8.03153002,5.91082251 C8.10845849,5.99629 8.16452879,6.0669971 8.19974094,6.1229438 C8.23495309,6.1788905 8.29977037,6.22721892 8.39419277,6.26792905 C8.48861518,6.30863919 8.61297912,6.3328034 8.7672846,6.34042168 C9.09675372,6.35542016 9.454258,6.29959249 9.83979743,6.1729387 C9.85392714,6.16555849 9.93455624,6.13948971 10.0816847,6.09473236 C10.2288132,6.04997501 10.3497008,6.01093136 10.4443475,5.97760141 C10.5389942,5.94427146 10.6423878,5.89594304 10.7545284,5.83261615 C10.866669,5.76928926 10.9402333,5.70417683 10.9752211,5.63727886 C11.0382442,5.53300374 11.108332,5.50324486 11.1854848,5.54800221 C11.2204727,5.57038089 11.2432372,5.60204433 11.2537784,5.64299255 C11.2643196,5.68394076 11.2537784,5.72857909 11.2221548,5.77690752 C11.1905311,5.82523595 11.1326666,5.8605895 11.0485611,5.88296816 C10.9083853,5.92772552 10.710345,6.00771739 10.4544401,6.12294378 C10.1985352,6.23817017 10.0390713,6.3106628 9.97604825,6.34042166 C9.66766156,6.48183586 9.42229789,6.56742239 9.23995725,6.59718128 C9.0647936,6.63432036 8.78791843,6.62682113 8.40933172,6.57468357 C8.33935598,6.5596851 8.30784447,6.56718433 8.31479719,6.59718128 C8.32174991,6.62717822 8.38129657,6.69788532 8.49343718,6.80930257 C8.66860082,6.98047564 8.90342327,7.06225304 9.19790453,7.05463478 C9.31699786,7.04725457 9.44315606,7.02118579 9.57637911,6.97642844 C9.70960217,6.93167109 9.83576036,6.87953353 9.9548537,6.82001576 C10.073947,6.760498 10.1913582,6.69538557 10.3070874,6.62467847 C10.4228165,6.55397137 10.5280044,6.49076351 10.622651,6.43505489 C10.7172977,6.37934626 10.8031974,6.33470794 10.8803502,6.30113992 C10.9575029,6.2675719 11.0188438,6.25828713 11.0643729,6.27328561 C11.109902,6.2882841 11.1397314,6.32923232 11.1538611,6.39613028 C11.1538611,6.41112875 11.1503848,6.42791276 11.1434321,6.44648231 C11.1364793,6.46505186 11.1224618,6.4836214 11.1013793,6.50219094 C11.0802969,6.52076048 11.0592145,6.53754449 11.038132,6.55254297 C11.0170496,6.56754146 10.9872202,6.586111 10.9486438,6.6082516 C10.9100674,6.63039221 10.8785559,6.64717622 10.8541093,6.65860364 C10.8296626,6.67003106 10.7946748,6.6886006 10.7491457,6.71431227 C10.7036166,6.74002394 10.6703108,6.75680795 10.6492284,6.7646643 C10.4529823,6.86893942 10.2164778,7.03261326 9.93971471,7.25568582 C9.66295167,7.47875838 9.42992347,7.63874211 9.24063012,7.73563703 C9.05133676,7.83253194 8.87964948,7.83622204 8.72556827,7.74670734 C8.57843979,7.66481089 8.35763492,7.39329087 8.06315366,6.93214727 C7.90907245,6.70145643 7.82149063,6.61967902 7.8004082,6.68681505 C7.79345547,6.70919373 7.78997911,6.74633281 7.78997911,6.7982323 C7.78997911,6.98416578 7.73738516,7.19438251 7.63219726,7.42888249 C7.52700936,7.66338247 7.42361572,7.86979007 7.32201633,8.04810527 C7.22041694,8.22642048 7.1468527,8.44223187 7.1013236,8.69553947 C7.0557945,8.94884706 7.09605298,9.183228 7.22209905,9.39868229 C7.06084085,9.44343965 6.84183023,9.77828657 6.56506719,10.4032231 C6.28830414,11.0281595 6.12188747,11.55263 6.06581718,11.9766346 C6.05168746,12.1106686 6.04641685,12.3673091 6.05000534,12.7465563 C6.05359383,13.1258035 6.03430565,13.345305 5.99214079,13.4050608 C5.93607048,13.5836141 5.83447108,13.5948034 5.68734259,13.4386288 C5.46306136,13.207938 5.33690317,12.8583307 5.30886801,12.3898068 C5.2947383,12.1814947 5.30875588,11.9731825 5.35092075,11.7648704 C5.3789559,11.6234562 5.37547954,11.5564392 5.34049166,11.5638194 L5.29843893,11.619528 C5.04612254,12.1030503 5.08111041,12.7204875 5.40340254,13.4718397 C5.43839042,13.5611164 5.52597224,13.6652725 5.666148,13.784308 C5.80632377,13.9033435 5.89042923,13.9777407 5.91846439,14.0074996 C6.05864015,14.1786726 6.42309715,14.5153051 7.01183538,15.0173969 C7.60057361,15.5194888 7.92645423,15.8041027 7.98947725,15.8712387 C8.10161786,15.982894 8.16295878,16.1241892 8.1735,16.2951242 C8.18404123,16.4660592 8.13492364,16.6260429 8.02614723,16.7750754 C7.91737083,16.9241079 7.75790687,17.0096944 7.54775537,17.031835 C7.60382568,17.1434903 7.70542508,17.3090688 7.85255356,17.5285703 C7.99968205,17.7480717 8.09780509,17.9488847 8.14692268,18.131009 C8.19604027,18.3131334 8.22059907,18.5753686 8.22059907,18.9177148 C8.54311548,18.7391615 8.56767427,18.3969344 8.29427545,17.8910334 C8.2662403,17.8315157 8.22945817,17.7719979 8.18392909,17.7124802 C8.1384,17.6529624 8.10509424,17.6083241 8.0840118,17.5785652 C8.06292937,17.5488063 8.05586451,17.5264276 8.06281723,17.5114292 C8.08389967,17.4742901 8.12942875,17.4389365 8.19940449,17.4053685 C8.26938024,17.3718005 8.33946812,17.3810853 8.40966814,17.4332228 C8.73218456,17.8200883 9.31385792,17.9540032 10.1546882,17.8349677 C11.086801,17.7233124 11.7070508,17.3996548 12.0154375,16.863995 C12.1766957,16.5814046 12.2959011,16.4697493 12.3730539,16.529029 C12.4571593,16.5737864 12.4921472,16.7672191 12.4780175,17.1093272 C12.4710648,17.2952607 12.3904357,17.6374878 12.2361302,18.1360085 C12.1731072,18.3071816 12.1520247,18.4466912 12.1728829,18.5545374 C12.193741,18.6623836 12.2778465,18.7199968 12.4251993,18.727377 C12.4462817,18.5859628 12.4970814,18.2995634 12.5775984,17.8681786 C12.6581153,17.4367939 12.7054387,17.101947 12.7195684,16.8636379 C12.7336981,16.7074633 12.7109336,16.4340387 12.6512748,16.0433641 C12.591616,15.6526895 12.565375,15.2918928 12.572552,14.9609741 C12.579729,14.6300553 12.6603581,14.3678201 12.8144393,14.1742683 C12.9196272,14.0402343 13.0983794,13.9732173 13.3506958,13.9732173 C13.3576485,13.6980072 13.4785361,13.5008844 13.7133585,13.3818489 C13.9481809,13.2628133 14.2022916,13.2237697 14.4756904,13.2647179 C14.7490892,13.3056661 14.9593529,13.3893481 15.1064814,13.5157638 C15.106145,13.382087 14.9133752,13.2257934 14.5278358,13.0472401 Z M8.47762537,3.95209308 C8.439049,3.85519816 8.39879052,3.7993705 8.35684992,3.78461009 C8.2938269,3.76961162 8.26231539,3.7956804 8.26231539,3.86281643 C8.2764451,3.89995552 8.29393904,3.92233419 8.31479721,3.92995246 C8.38477295,3.92995246 8.40933174,3.98578012 8.38847359,4.09743545 C8.36739116,4.24622984 8.39542631,4.32062704 8.47257906,4.32062704 C8.49366149,4.32062704 8.50420271,4.30943771 8.50420271,4.28705903 C8.5249487,4.16064331 8.51620173,4.04898799 8.47762537,3.95209308 Z M12.8406803,6.35720576 C12.8092809,6.33125602 12.7637518,6.31268647 12.704093,6.30149713 C12.6444342,6.29030778 12.5936345,6.26983368 12.5516939,6.24007481 C12.516706,6.21769613 12.4834003,6.18793725 12.4517766,6.15079816 C12.420153,6.11365907 12.3955942,6.08390019 12.3781002,6.06152151 C12.3606063,6.03914284 12.3413181,6.01497863 12.3202357,5.98902889 C12.2991533,5.96307914 12.2851357,5.9481997 12.2781829,5.94439056 C12.2712302,5.94058142 12.2572126,5.9461761 12.2361302,5.96117458 C12.137895,6.0802101 12.1624538,6.24197937 12.3098066,6.44648241 C12.4571594,6.65098544 12.5938588,6.76811639 12.7199048,6.79787526 C12.7829279,6.80525547 12.8337276,6.77549659 12.8723039,6.70859862 C12.9108803,6.64170065 12.9231036,6.56730345 12.9089739,6.48540702 C12.8948442,6.42588926 12.8720796,6.3831555 12.8406803,6.35720576 Z M11.0377956,4.10850575 C11.0377956,4.02660931 11.0203017,3.95411668 10.9853138,3.89102787 C10.9503259,3.82793905 10.9117495,3.78139616 10.8695847,3.75139921 C10.8274198,3.72140225 10.7959083,3.71021291 10.7750501,3.71783119 C10.6768149,3.7252114 10.6522562,3.75128018 10.7013737,3.79603753 L10.7434265,3.81853524 C10.8416617,3.84829412 10.9047968,3.96363954 10.932832,4.1645715 C10.932832,4.18695017 10.9608671,4.17945094 11.0169374,4.14207379 L11.0377956,4.10850575 Z M11.5790984,1.45270424 C11.5616044,1.43056363 11.5300929,1.40449485 11.4845638,1.3744979 C11.4390347,1.34450096 11.405729,1.32212228 11.3846465,1.30736187 C11.2794586,1.19570655 11.1953532,1.13987889 11.1323302,1.13987889 C11.0693071,1.14725909 11.0290487,1.1751134 11.0115547,1.22344182 C10.9940608,1.27177024 10.9905844,1.32009866 11.0011256,1.36842708 C11.0116669,1.4167555 11.0098726,1.46329839 10.9957429,1.50805574 C10.9887902,1.53781462 10.9677077,1.57685827 10.9324956,1.62518669 C10.8972834,1.67351511 10.876201,1.70696409 10.8692483,1.72553363 C10.8622955,1.74410317 10.8728368,1.77576661 10.9008719,1.82052397 C10.9289071,1.84290264 10.9569422,1.84290264 10.9849774,1.82052397 C11.0130125,1.79814529 11.0515889,1.76469631 11.1007065,1.72017703 C11.1498241,1.67565775 11.202418,1.64220877 11.2584884,1.6198301 C11.2654411,1.61244989 11.2969526,1.60875979 11.3530229,1.60875979 C11.4090932,1.60875979 11.4616871,1.60126055 11.5108047,1.58626208 C11.5599223,1.57126361 11.5914338,1.54519483 11.6053393,1.50805574 C11.6053392,1.4934144 11.5965923,1.47484486 11.5790984,1.45270424 Z M17.8715325,16.7468641 C17.9486852,16.8399498 17.990738,16.9292265 17.9976907,17.014694 C18.0046434,17.1001615 17.9958965,17.1838435 17.9714498,17.2657399 C17.9470032,17.3476364 17.8927271,17.4294138 17.8086216,17.5110721 C17.7245162,17.5927305 17.6422049,17.6652231 17.561688,17.72855 C17.481171,17.7918769 17.3759832,17.8606794 17.2461243,17.9349576 C17.1162655,18.0092358 17.0059191,18.0706581 16.9150852,18.1192246 C16.8242513,18.1677911 16.7121107,18.2254043 16.5786634,18.2920642 C16.445216,18.3587241 16.3505693,18.4070525 16.2947233,18.4370494 C16.0285015,18.5784636 15.7288618,18.7867758 15.3958042,19.0619859 C15.0627465,19.3371961 14.7982068,19.5752671 14.602185,19.776199 C14.4830917,19.8952346 14.2447929,19.9677272 13.8872886,19.9936769 C13.5297844,20.0196267 13.2179213,19.9657036 12.9516995,19.8319077 C12.8254292,19.7650097 12.7220355,19.6776376 12.6415186,19.5697914 C12.5610016,19.4619453 12.5031371,19.3670739 12.4679249,19.2851775 C12.4327127,19.2032811 12.3556721,19.1307884 12.2368031,19.0676996 C12.117934,19.0046108 11.9531995,18.9692573 11.7425994,18.961639 C11.4342127,18.9542588 10.9785854,18.9505687 10.3757175,18.9505687 C10.2424944,18.9505687 10.042772,18.9561633 9.77655014,18.9673527 C9.51032831,18.978542 9.30701738,18.9878268 9.16661734,18.995207 C8.85823066,19.0025872 8.57967337,19.0584149 8.33094549,19.16269 C8.0822176,19.2669651 7.8947185,19.3786204 7.76844817,19.4976559 C7.64217785,19.6166914 7.48977875,19.7227521 7.31125088,19.8158379 C7.132723,19.9089237 6.9452239,19.9516574 6.74875356,19.9440391 C6.54555477,19.9366589 6.15653897,19.8213135 5.58170618,19.5980029 C5.0068734,19.3746922 4.49517577,19.2147085 4.04661331,19.1180517 C3.91339026,19.0882928 3.73463812,19.0529392 3.51035689,19.011991 C3.28607566,18.9710428 3.11091202,18.9375938 2.98486596,18.9116441 C2.85881991,18.8856943 2.72043839,18.8503408 2.5697214,18.8055834 C2.41900441,18.7608261 2.30159319,18.706903 2.21748774,18.6438142 C2.13338228,18.5807253 2.07383562,18.5082327 2.03884774,18.4263363 C1.968872,18.2551632 1.9934308,18.0078074 2.11252413,17.6842688 C2.23161746,17.3607303 2.29475263,17.1580128 2.30192963,17.0761164 C2.30888235,16.9570809 2.29486477,16.8082865 2.2598769,16.6297332 C2.22488902,16.4511799 2.18990115,16.2931007 2.15491329,16.1554957 C2.11992542,16.0178906 2.10411359,15.8820711 2.1074778,15.7480371 C2.11084201,15.6140031 2.14762413,15.5135371 2.21782416,15.4466391 C2.31605934,15.3573625 2.51578178,15.3052249 2.81699148,15.2902265 C3.11820117,15.275228 3.32846482,15.2305897 3.44778244,15.1563115 C3.65815823,15.0222775 3.80539886,14.8920526 3.88950433,14.7656369 C3.97360979,14.6392212 4.01566253,14.4494786 4.01566253,14.1964091 C4.16279101,14.7394491 4.0506504,15.1336947 3.67924068,15.379146 C3.45495944,15.5279404 3.16406669,15.583768 2.80656241,15.546629 C2.56815147,15.5242503 2.41743448,15.5613894 2.35441146,15.6580462 C2.26335329,15.7697015 2.28084723,15.9817038 2.40689328,16.294053 C2.42102299,16.3388104 2.44905815,16.4058274 2.49099875,16.495104 C2.53293934,16.5843807 2.56276874,16.6513977 2.58048695,16.696155 C2.59820515,16.7409124 2.61401698,16.8041202 2.62792244,16.8857786 C2.64182789,16.967437 2.64530425,17.0492144 2.63835152,17.1311108 C2.63835152,17.2427661 2.57880485,17.4250095 2.45971152,17.6778409 C2.34061819,17.9306724 2.2915006,18.1092257 2.31235875,18.2135008 C2.33344118,18.3399165 2.46307573,18.4365734 2.70126239,18.5034713 C2.84143816,18.5482287 3.13760152,18.6170312 3.58975247,18.7098789 C4.04190343,18.8027266 4.3905486,18.8790284 4.63568798,18.9387842 C4.8038989,18.9835416 5.06328014,19.065319 5.4138317,19.1841164 C5.76438325,19.3029139 6.05348176,19.3885004 6.28112721,19.4408761 C6.50877266,19.4932517 6.70322448,19.5081311 6.86448268,19.4855144 C7.16591665,19.440757 7.39199213,19.3366009 7.54270911,19.1730461 C7.6934261,19.0094913 7.7740552,18.830938 7.78459642,18.6373863 C7.79513763,18.4438345 7.76889672,18.2262376 7.7058737,17.9845955 C7.64285068,17.7429534 7.57623916,17.5495207 7.50603914,17.4042973 C7.43583911,17.259074 7.36575123,17.1232545 7.29577549,16.9968388 C6.44776816,15.583411 5.85555358,14.6831453 5.51913173,14.2960418 C5.04253413,13.7453835 4.64656562,13.5965891 4.33122621,13.8496586 C4.25407347,13.9165566 4.20147951,13.8607289 4.17344436,13.6821756 C4.15236192,13.5631401 4.14529707,13.421845 4.15224979,13.2582902 C4.15920251,13.0425978 4.19419038,12.8491651 4.2572134,12.677992 C4.32023642,12.5068189 4.40434188,12.3319557 4.50952978,12.1534025 C4.61471768,11.9748492 4.69175829,11.8185555 4.74065159,11.6845215 C4.7967219,11.5283469 4.88957433,11.260517 5.01920887,10.8810318 C5.14884341,10.5015465 5.25223706,10.211457 5.3293898,10.0107631 C5.40654255,9.81006919 5.51173044,9.58318749 5.64495349,9.33011799 C5.77817653,9.07704849 5.91487595,8.87623556 6.05505172,8.72767921 C6.8259063,7.66373972 7.26045118,6.93833726 7.35868636,6.55147181 C7.2745809,5.71822316 7.21851059,4.56500704 7.19047545,3.09182345 C7.17634574,2.42212961 7.2604512,1.85861545 7.44279183,1.40128099 C7.62513247,0.943946526 7.99654218,0.555176514 8.55702097,0.234970954 C8.83041979,0.0787963504 9.19487679,0.000709048886 9.65039196,0.000709048886 C10.0218017,-0.00667115629 10.3932114,0.043561833 10.7646211,0.151408017 C11.1360308,0.2592542 11.4478939,0.413643271 11.7002102,0.614575228 C12.0996551,0.927162509 12.4202651,1.37914038 12.6620403,1.97050885 C12.9038155,2.56187731 13.0072091,3.11051202 12.9722212,3.61641298 C12.9372334,4.3232459 13.0424213,5.11935546 13.2877849,6.00474167 C13.5261959,6.84537051 13.9922523,7.65624047 14.6859541,8.43735156 C15.0714935,8.87635456 15.4201387,9.48272151 15.7318896,10.2564524 C16.0436405,11.0301833 16.2521099,11.7407063 16.3572978,12.3880215 C16.4133681,12.7525082 16.4308621,13.066881 16.4097796,13.3311399 C16.3886972,13.5953987 16.3466445,13.8018063 16.2836214,13.9503627 C16.2205984,14.098919 16.1505105,14.1806964 16.0733578,14.1956949 C16.003382,14.2106933 15.9210708,14.2814004 15.8264242,14.4078162 C15.7317775,14.5342319 15.6371308,14.6662423 15.5424841,14.8038473 C15.4478374,14.9414524 15.3058674,15.0660826 15.1165741,15.1777379 C14.9272807,15.2893932 14.7135407,15.3415308 14.4753541,15.3341506 C14.3490837,15.3267704 14.2387373,15.3082008 14.144315,15.278442 C14.0498926,15.2486831 13.9710577,15.1984501 13.9078104,15.127743 C13.8445631,15.0570359 13.7972397,14.9994227 13.7658404,14.9549034 C13.734441,14.9103841 13.6941825,14.8340823 13.6450649,14.7259981 C13.5959473,14.6179139 13.5644358,14.5454212 13.5505304,14.5085202 C13.3964492,14.2333101 13.2527971,14.1216548 13.119574,14.1735543 C12.986351,14.2254537 12.8882279,14.4076971 12.8252049,14.7202844 C12.7621819,15.0328717 12.7867407,15.3936684 12.8988813,15.8026744 C13.0390571,16.3235738 13.0425334,17.0489763 12.9093104,17.9788818 C12.8393346,18.4624041 12.9024698,18.8362946 13.0987159,19.1005535 C13.294962,19.3648124 13.5507547,19.487538 13.8660941,19.4687304 C14.1814335,19.4499228 14.479279,19.3179124 14.7596305,19.0726992 C15.1732051,18.7082124 15.4868624,18.4608566 15.7006024,18.3306318 C15.9143424,18.2004069 16.2770052,18.0423277 16.7885906,17.8563942 C17.1600004,17.7223602 17.4298107,17.5865407 17.5980216,17.4489357 C17.7662325,17.3113306 17.8310498,17.1830103 17.7924734,17.0639748 C17.7538971,16.9449393 17.6663152,16.8388786 17.529728,16.7457928 C17.3931407,16.6527071 17.2127065,16.565335 16.9884252,16.4836766 C16.7571913,16.4017802 16.5837097,16.2232269 16.4679806,15.9480168 C16.3522515,15.6728067 16.2996576,15.4030722 16.3101988,15.1388133 C16.32074,14.8745545 16.3750161,14.6979057 16.473027,14.6088672 C16.4799797,14.839558 16.5080148,15.0497748 16.5571324,15.2395174 C16.60625,15.42926 16.6570497,15.579959 16.7095315,15.6916143 C16.7620133,15.8032696 16.8338955,15.9093302 16.9251779,16.0097962 C17.0164604,16.1102622 17.0900246,16.1809693 17.1458707,16.2219175 C17.2017167,16.2628657 17.2770752,16.3111941 17.3719461,16.3669028 C17.4668171,16.4226114 17.5246817,16.457965 17.5455398,16.4729634 C17.6857155,16.5625971 17.7943798,16.6537783 17.8715325,16.7468641 Z"/>
</svg>
