<svg xmlns="http://www.w3.org/2000/svg" width="24" height="24" viewBox="0 0 24 24">
  <g fill="none" fill-rule="evenodd" transform="translate(-120 -1032)">
    <path fill="#555" fill-rule="nonzero" d="M10.5715629,6.17614671 C10.5362386,6.25392451 10.5026806,6.29281342 10.4708887,6.29281342 C10.4315273,6.30093164 10.4118467,6.28050514 10.4118467,6.23153392 C10.4118467,6.13332961 10.4867846,6.07191918 10.6366605,6.04730264 L10.7547446,6.04730264 C10.6679478,6.05542089 10.6068872,6.0983689 10.5715629,6.17614671 Z M11.6475661,6.13922189 C11.5885241,6.0779424 11.5195156,6.05947999 11.4405405,6.08383465 C11.6297778,5.99374857 11.755936,6.00199773 11.8190151,6.10858213 C11.8427329,6.15781522 11.830874,6.1946091 11.7834385,6.21896376 C11.751899,6.22708201 11.7066082,6.20050138 11.6475661,6.13922189 Z M7.56117619,11.4976416 C7.54528026,11.5303763 7.52749195,11.5815735 7.50781126,11.6512331 C7.48813058,11.7208927 7.46643137,11.776149 7.44271364,11.817002 C7.41899592,11.857855 7.37963457,11.9110162 7.32462958,11.9764857 C7.26937229,12.0581917 7.26546139,12.1072939 7.31289687,12.1237922 C7.34443642,12.1319104 7.39376427,12.1032348 7.46088042,12.0377652 C7.52799657,11.9722957 7.57732442,11.898577 7.60886397,11.8166091 C7.61668578,11.7919926 7.62463375,11.7633169 7.63270786,11.7305822 C7.64078198,11.6978474 7.64872994,11.6732308 7.65655176,11.6567325 C7.66437357,11.6402342 7.670303,11.6217718 7.67434007,11.6013453 C7.67837714,11.5809188 7.68039567,11.5645514 7.68039567,11.5522431 L7.68039567,11.5153183 C7.68039567,11.5153183 7.67648476,11.5051051 7.66866295,11.4846786 C7.66084114,11.4642521 7.64898227,11.4560029 7.63308634,11.4599311 C7.60078985,11.4525985 7.57707211,11.4649068 7.56117619,11.4976416 Z M17.0938153,15.3519641 C17.1253548,15.2291432 17.1548759,15.1166666 17.1823783,15.0145341 C17.2098808,14.9124016 17.2295615,14.8060791 17.2414204,14.6955665 C17.2532793,14.5850539 17.2651381,14.4970629 17.276997,14.4315933 C17.2888559,14.3661238 17.2908744,14.2740737 17.2830526,14.1554428 C17.2752308,14.036812 17.2713199,13.9570701 17.2713199,13.9162172 C17.2713199,13.8753642 17.2575686,13.785409 17.2300661,13.6463517 C17.2025637,13.5072944 17.1867939,13.4233625 17.1827568,13.3945559 C17.1787197,13.3657493 17.1590391,13.2634859 17.1237148,13.0877656 C17.0883905,12.9120454 17.0666913,12.8036278 17.0586172,12.762513 C16.9798944,12.3696958 16.7945681,11.9482029 16.502638,11.4980344 C16.210708,11.0478658 15.926852,10.7409447 15.6510702,10.5772708 C15.8403075,10.7409447 16.0649953,11.0806006 16.3251335,11.5962387 C17.0111817,12.9218658 17.2240106,14.0593336 16.9636201,15.0086419 C16.8768232,15.3359895 16.6797641,15.5079125 16.3724428,15.5244109 C16.1279482,15.5571456 15.9761799,15.4814629 15.9171379,15.2973625 C15.8580958,15.1132622 15.8265563,14.7716421 15.8225192,14.2725024 C15.8184821,13.7733627 15.7731914,13.3355024 15.6866468,12.9589216 C15.6157459,12.6396921 15.5389156,12.3573875 15.4561558,12.1120077 C15.3733961,11.8666279 15.2965657,11.6804325 15.2256648,11.5534216 C15.1547639,11.4264107 15.0937034,11.3261114 15.0424831,11.2525236 C14.9912629,11.1789359 14.9400427,11.1175254 14.8888225,11.0682923 C14.8376022,11.0190592 14.8080812,10.9903836 14.8002594,10.9822654 C14.6897448,10.4747455 14.5674975,10.0532526 14.4335175,9.71778673 C14.2995375,9.38232083 14.1832197,9.15317745 14.084564,9.0303566 C13.9859083,8.90753574 13.8933082,8.77253756 13.8067637,8.62536204 C13.7202191,8.47818652 13.6610509,8.31451268 13.6292591,8.13434052 C13.5977195,7.96254846 13.6214373,7.74361833 13.7004123,7.47755015 C13.7793873,7.21148196 13.7971756,7.00891921 13.7537772,6.8698619 C13.7103788,6.7308046 13.5348928,6.62854118 13.2273191,6.56307165 C13.1089827,6.53845511 12.9334966,6.46473641 12.7008609,6.34191555 C12.4682252,6.21909469 12.3283158,6.15362516 12.2811326,6.14550695 C12.2180535,6.13738872 12.1746551,6.03106619 12.1509374,5.82653936 C12.1272196,5.62201253 12.1587592,5.41329565 12.245556,5.20038872 C12.3323529,4.98748179 12.4742808,4.87696922 12.6713399,4.86885099 C12.9630177,4.84423445 13.1641138,4.96705529 13.2746284,5.23731354 C13.385143,5.50757178 13.4009128,5.74496432 13.3219377,5.94949115 C13.2351409,6.10504676 13.2271929,6.21346431 13.2980938,6.2747438 C13.3689947,6.33602329 13.4873311,6.33811831 13.653103,6.28102888 C13.7555434,6.24829411 13.8067637,6.10098765 13.8067637,5.8391095 L13.8067637,5.3850128 C13.7674023,5.13937111 13.7141635,4.93484427 13.6470474,4.7714323 C13.5799312,4.60802033 13.4971715,4.4832354 13.3987681,4.3970775 C13.3003647,4.3109196 13.2077646,4.24950917 13.1209677,4.21284622 C13.0341709,4.17618326 12.9276934,4.14554352 12.8015352,4.12092698 C11.9577892,4.18639653 11.6069433,4.73463842 11.7489974,5.76565267 C11.7489974,5.88847352 11.7450865,5.94988395 11.7372647,5.94988395 C11.6663638,5.8762962 11.5500459,5.83334818 11.3883111,5.8210399 C11.2265763,5.80873162 11.0965072,5.81082665 10.9981039,5.82732498 C10.8997005,5.84382332 10.8386399,5.82339682 10.8149222,5.76604549 C10.822744,5.29964051 10.7596649,4.9313089 10.6256849,4.66105065 C10.4917049,4.39079241 10.3143265,4.25160418 10.0935496,4.24348595 C9.8805946,4.23536773 9.71696742,4.34784439 9.6026681,4.58091594 C9.48836877,4.81398749 9.42327115,5.05740323 9.40737522,5.31116315 C9.39955341,5.433984 9.41330465,5.58534957 9.44862895,5.76525984 C9.48395324,5.94517012 9.53517347,6.09863071 9.60228962,6.22564162 C9.66940577,6.35265253 9.73046634,6.40790882 9.78547132,6.39141049 C9.86419403,6.36679394 9.92727312,6.30944263 9.9747086,6.21935654 C10.0062481,6.14576879 9.9786195,6.11303402 9.89182266,6.12115223 C9.83656538,6.12115223 9.77550481,6.06183683 9.70864096,5.94320603 C9.64177712,5.82457522 9.60430814,5.68748202 9.59623402,5.53192641 C9.58841221,5.35201612 9.62386266,5.20065055 9.70258536,5.07782971 C9.78130807,4.95500887 9.91541423,4.89765755 10.1049038,4.90577576 C10.2388838,4.90577576 10.3453613,4.9916718 10.4243364,5.16346386 C10.5033114,5.33525592 10.5407804,5.49487065 10.5367433,5.64230806 C10.5327063,5.78974546 10.5267768,5.8797006 10.518955,5.91217349 C10.3456136,6.03499434 10.2233664,6.15362515 10.1522131,6.2680659 C10.089134,6.36627021 9.98076416,6.46237948 9.82710348,6.55639373 C9.67344281,6.65040797 9.59257541,6.70160515 9.58450128,6.70998525 C9.48206083,6.82468788 9.42100027,6.93520046 9.40131958,7.04152298 C9.38163889,7.1478455 9.41115991,7.2215642 9.48988263,7.26267908 C9.60039721,7.32814862 9.69892676,7.40789052 9.78547128,7.50190476 C9.8720158,7.595919 9.93509489,7.67369681 9.97470856,7.73523818 C10.0143222,7.79677955 10.0872417,7.84994081 10.1934669,7.89472196 C10.2996921,7.93950311 10.4396015,7.96608374 10.6131952,7.97446385 C10.9838479,7.99096217 11.3860402,7.92955174 11.8197721,7.79023257 C11.835668,7.78211434 11.9263758,7.75343869 12.0918953,7.7042056 C12.2574149,7.65497251 12.3934134,7.61202449 12.4998909,7.57536155 C12.6063684,7.53869861 12.7226863,7.48553734 12.8488445,7.41587776 C12.9750026,7.34621818 13.0577624,7.27459451 13.0971238,7.20100674 C13.1680247,7.08630411 13.2468735,7.05356934 13.3336704,7.10280243 C13.3730317,7.12741898 13.3986419,7.16224877 13.4105007,7.2072918 C13.4223596,7.25233484 13.4105007,7.30143699 13.3749241,7.35459827 C13.3393475,7.40775955 13.2742499,7.44664845 13.1796312,7.47126498 C13.0219335,7.52049807 12.7991381,7.60848913 12.5112451,7.73523816 C12.2233521,7.86198718 12.0439552,7.94172907 11.9730543,7.97446383 C11.6261193,8.13001944 11.3500851,8.22416463 11.1449519,8.2568994 C10.9478928,8.2977524 10.6364082,8.28950324 10.2104982,8.23215193 C10.1317755,8.21565361 10.096325,8.22390277 10.1041468,8.2568994 C10.1119686,8.28989604 10.1789586,8.36767385 10.3051168,8.49023282 C10.5021759,8.6785232 10.7663512,8.76847835 11.0976426,8.76009826 C11.2316226,8.75198003 11.3735506,8.72330437 11.5234265,8.67407128 C11.6733024,8.62483819 11.8152304,8.56748688 11.9492104,8.50201734 C12.0831904,8.4365478 12.215278,8.36492412 12.3454733,8.28714632 C12.4756685,8.20936851 12.5940049,8.13983987 12.7004824,8.07856038 C12.8069599,8.01728089 12.9035971,7.96817874 12.990394,7.93125391 C13.0771908,7.89432909 13.1461993,7.88411584 13.1974195,7.90061418 C13.2486398,7.91711251 13.2821978,7.96215555 13.2980938,8.0357433 C13.2980938,8.05224162 13.2941829,8.07070403 13.2863611,8.09113054 C13.2785392,8.11155705 13.2627695,8.13198354 13.2390517,8.15241003 C13.215334,8.17283652 13.1916163,8.19129894 13.1678985,8.20779727 C13.1441808,8.2242956 13.1106227,8.2447221 13.0672243,8.26907676 C13.0238259,8.29343143 12.9883754,8.31189384 12.9608729,8.324464 C12.9333705,8.33703416 12.8940091,8.35746066 12.8427889,8.3857435 C12.7915687,8.41402633 12.7540997,8.43248874 12.7303819,8.44113073 C12.5096051,8.55583336 12.2435375,8.73587458 11.9321791,8.9812544 C11.6208206,9.22663422 11.3586639,9.40261633 11.1457089,9.50920073 C10.9327539,9.61578513 10.7396057,9.61984425 10.5662643,9.52137807 C10.4007448,9.43129198 10.1523393,9.13261996 9.82104787,8.62536199 C9.64770651,8.37160207 9.54917696,8.28164693 9.52545922,8.35549656 C9.51763741,8.3801131 9.5137265,8.42096609 9.5137265,8.47805553 C9.5137265,8.68258236 9.45455831,8.91382077 9.33622192,9.17177074 C9.21788553,9.42972072 9.10156768,9.65676907 8.98726837,9.8529158 C8.87296906,10.0490625 8.79020929,10.2864551 8.73898905,10.5650934 C8.68776881,10.8437318 8.73305961,11.1015508 8.87486143,11.3385505 C8.69344595,11.3877836 8.447059,11.7561152 8.13570058,12.4435454 C7.82434216,13.1309755 7.63712341,13.707893 7.57404432,14.174298 C7.55814839,14.3217354 7.55221896,14.6040401 7.55625601,15.0212119 C7.56029306,15.4383838 7.53859385,15.6798355 7.49115839,15.7455669 C7.42807929,15.9419755 7.31377997,15.9542838 7.14826042,15.7824917 C6.89594403,15.5287318 6.75401606,15.1441637 6.72247651,14.6287875 C6.70658059,14.3996442 6.72235036,14.1705008 6.76978584,13.9413574 C6.80132539,13.7858018 6.79741448,13.7120831 6.75805312,13.7202013 L6.7107438,13.7814808 C6.42688786,14.3133553 6.46624922,14.9925363 6.82882786,15.8190237 C6.86818922,15.917228 6.96671877,16.0317997 7.12441651,16.1627388 C7.28211424,16.2936778 7.37673288,16.3755148 7.40827243,16.4082495 C7.56597017,16.5965399 7.97598429,16.9668356 8.6383148,17.5191366 C9.30064531,18.0714376 9.66726101,18.384513 9.73816191,18.4583626 C9.8643201,18.5811834 9.93332863,18.7366081 9.94518751,18.9246366 C9.95704638,19.1126651 9.90178909,19.2886472 9.77941564,19.452583 C9.65704218,19.6165187 9.47764523,19.7106639 9.24122479,19.7350185 C9.30430389,19.8578394 9.41860321,20.0399756 9.58412276,20.2814273 C9.74964231,20.5228789 9.86003073,20.7437731 9.91528801,20.9441099 C9.9705453,21.1444467 9.99817395,21.4329055 9.99817395,21.8094863 C10.3610049,21.6130777 10.3886336,21.2366278 10.0810599,20.6801368 C10.0495203,20.6146672 10.0081404,20.5491977 9.95692022,20.4837282 C9.9057,20.4182587 9.86823102,20.3691565 9.84451328,20.3364217 C9.82079554,20.3036869 9.81284757,20.2790704 9.82066939,20.2625721 C9.84438712,20.2217191 9.89560735,20.1828302 9.97433006,20.1459054 C10.0530528,20.1089806 10.1319016,20.1191938 10.2108767,20.1765451 C10.5737076,20.6020971 11.2280902,20.7494036 12.1740243,20.6184645 C13.2226512,20.4956436 13.9204321,20.1396203 14.2673671,19.5503945 C14.4487826,19.2395451 14.5828888,19.1167243 14.6696856,19.1819319 C14.7643043,19.231165 14.8036656,19.443941 14.7877697,19.8202599 C14.7799479,20.0247867 14.6892401,20.4012366 14.5156465,20.9496094 C14.4447456,21.1378998 14.4210278,21.2913604 14.4444933,21.4099912 C14.4679587,21.528622 14.5625773,21.5919965 14.7283492,21.6001147 C14.7520669,21.4445591 14.8092166,21.1295197 14.8997982,20.6549965 C14.9903797,20.1804733 15.0436185,19.8121417 15.0595144,19.5500016 C15.0754104,19.3782096 15.0498003,19.0774425 14.9826841,18.6477005 C14.9155679,18.2179584 14.8860469,17.8210821 14.894121,17.4570715 C14.9021952,17.0930609 14.9929029,16.8046021 15.1662443,16.5916952 C15.2845806,16.4442578 15.4856768,16.3705391 15.7695327,16.3705391 C15.7773545,16.0678079 15.9133531,15.8509728 16.1775283,15.7200337 C16.4417036,15.5890947 16.727578,15.5461466 17.0351517,15.5911897 C17.3427254,15.6362327 17.579272,15.7282829 17.7447915,15.8673402 C17.7444131,15.7202957 17.5275471,15.5483727 17.0938153,15.3519641 Z M10.2873285,5.34730238 C10.2439301,5.24071798 10.1986393,5.17930755 10.1514562,5.1630711 C10.0805553,5.14657278 10.0451048,5.17524844 10.0451048,5.24909807 C10.0610007,5.28995107 10.0806814,5.31456761 10.1041469,5.32294771 C10.1828696,5.32294771 10.2104982,5.38435814 10.1870328,5.50717899 C10.1633151,5.67085283 10.1948546,5.75268975 10.2816514,5.75268975 C10.3053692,5.75268975 10.317228,5.74038148 10.317228,5.71576493 C10.3405673,5.57670764 10.3307269,5.45388679 10.2873285,5.34730238 Z M15.1957653,7.99292634 C15.160441,7.96438162 15.1092208,7.94395512 15.0421046,7.93164684 C14.9749885,7.91933856 14.9178388,7.89681704 14.8706556,7.86408229 C14.8312943,7.83946574 14.7938253,7.80673097 14.7582487,7.76587798 C14.7226721,7.72502498 14.6950434,7.69229021 14.6753628,7.66767367 C14.6556821,7.64305712 14.6339829,7.61647649 14.6102651,7.58793177 C14.5865474,7.55938706 14.5707776,7.54301967 14.5629558,7.53882962 C14.555134,7.53463956 14.5393642,7.5407937 14.5156465,7.55729204 C14.4051319,7.68823111 14.4327606,7.86617731 14.5985324,8.09113065 C14.7643043,8.31608399 14.9180911,8.44492803 15.0598929,8.47766279 C15.1307938,8.48578102 15.1879435,8.45304625 15.2313419,8.37945848 C15.2747403,8.30587071 15.2884916,8.22403379 15.2725956,8.13394772 C15.2566997,8.06847818 15.2310896,8.02147105 15.1957653,7.99292634 Z M13.16752,5.51935633 C13.16752,5.42927024 13.1478394,5.34952835 13.108478,5.28013065 C13.0691166,5.21073296 13.0257182,5.15953578 12.9782827,5.12653913 C12.9308473,5.09354248 12.8953968,5.0812342 12.8719314,5.08961431 C12.7614168,5.09773254 12.7337882,5.12640819 12.7890455,5.17564128 L12.8363548,5.20038876 C12.9468694,5.23312353 13.0178964,5.36000349 13.049436,5.58102865 C13.049436,5.60564519 13.0809755,5.59739603 13.1440546,5.55628117 L13.16752,5.51935633 Z M13.7764856,2.59797467 C13.756805,2.57361999 13.7213545,2.54494433 13.6701343,2.51194769 C13.6189141,2.47895105 13.5814451,2.45433451 13.5577274,2.43809806 C13.439391,2.3152772 13.3447723,2.25386677 13.2738714,2.25386677 C13.2029705,2.261985 13.1576797,2.29262474 13.137999,2.34578601 C13.1183184,2.39894727 13.1144075,2.45210853 13.1262663,2.50526979 C13.1381252,2.55843105 13.1361067,2.60962823 13.1202107,2.65886132 C13.1123889,2.69159609 13.0886712,2.7345441 13.0490575,2.78770536 C13.0094438,2.84086662 12.9857261,2.8776605 12.9779043,2.89808699 C12.9700825,2.91851348 12.9819414,2.95334327 13.0134809,3.00257636 C13.0450205,3.02719291 13.07656,3.02719291 13.1080996,3.00257636 C13.1396391,2.97795982 13.1830375,2.94116594 13.2382948,2.89219473 C13.2935521,2.84322353 13.3527203,2.80642965 13.4157994,2.78181311 C13.4236212,2.77369488 13.4590717,2.76963577 13.5221507,2.76963577 C13.5852298,2.76963577 13.644398,2.76138661 13.6996553,2.74488829 C13.7549126,2.72838997 13.7903631,2.69971431 13.8060067,2.65886132 C13.8060067,2.64275584 13.7961663,2.62232934 13.7764856,2.59797467 Z M20.8554741,19.4215505 C20.9422709,19.5239448 20.9895802,19.6221491 20.997402,19.7161634 C21.0052239,19.8101776 20.9953835,19.9022278 20.967881,19.9923139 C20.9403785,20.0824 20.879318,20.1723551 20.7846993,20.2621793 C20.6900807,20.3520035 20.5974806,20.4317454 20.506899,20.501405 C20.4163174,20.5710646 20.297981,20.6467474 20.1518899,20.7284534 C20.0057987,20.8101594 19.881659,20.8777239 19.7794709,20.9311471 C19.6772827,20.9845702 19.5511245,21.0479447 19.4009963,21.1212706 C19.250868,21.1945965 19.1443905,21.2477578 19.0815638,21.2807544 C18.7820642,21.43631 18.4449695,21.6654534 18.0702797,21.9681845 C17.6955899,22.2709157 17.3979827,22.5327938 17.1774582,22.7538189 C17.0434782,22.884758 16.775392,22.9644999 16.3731997,22.9930446 C15.9710074,23.0215893 15.6201615,22.9622739 15.3206619,22.8150984 C15.1786078,22.7415107 15.06229,22.6454014 14.9717084,22.5267706 C14.8811268,22.4081398 14.8160292,22.3037813 14.7764155,22.2136953 C14.7368018,22.1236092 14.6501311,22.0438673 14.5164035,21.9744696 C14.3826758,21.9050719 14.1973494,21.866183 13.9604243,21.8578029 C13.6134893,21.8496846 13.1009086,21.8456255 12.4226821,21.8456255 C12.2728062,21.8456255 12.0481185,21.8517797 11.7486189,21.8640879 C11.4491194,21.8763962 11.2203946,21.8866095 11.0624445,21.8947277 C10.7155095,21.9028459 10.4021325,21.9642563 10.1223137,22.078959 C9.8424948,22.1936616 9.63155831,22.3164824 9.48950419,22.4474215 C9.34745008,22.5783606 9.17600109,22.6950273 8.97515724,22.7974217 C8.77431338,22.899816 8.56337689,22.9468232 8.34234776,22.938443 C8.11374911,22.9303248 7.67610634,22.8034449 7.02941946,22.5578032 C6.38273257,22.3121615 5.80707274,22.1361794 5.30243997,22.0298568 C5.15256404,21.9971221 4.95146789,21.9582332 4.6991515,21.9131901 C4.44683511,21.8681471 4.24977602,21.8313532 4.10797421,21.8028085 C3.9661724,21.7742638 3.81049319,21.7353749 3.64093658,21.6861418 C3.47137997,21.6369087 3.33929234,21.5775933 3.2446737,21.5081956 C3.15005507,21.4387979 3.08306507,21.359056 3.04370371,21.2689699 C2.964981,21.0806795 2.99260965,20.8085881 3.12658964,20.4526957 C3.26056964,20.0968033 3.3315967,19.8738141 3.33967083,19.783728 C3.34749265,19.6527889 3.33172287,19.4891151 3.29236151,19.2927065 C3.25300015,19.0962979 3.21363879,18.9224108 3.17427745,18.7710452 C3.1349161,18.6196797 3.11712779,18.4702782 3.12091252,18.3228408 C3.12469726,18.1754034 3.16607714,18.0648908 3.24505218,17.9913031 C3.35556676,17.8930987 3.5802545,17.8357474 3.91911541,17.8192491 C4.25797632,17.8027508 4.49452293,17.7536486 4.62875524,17.6719426 C4.86542801,17.5245052 5.03107372,17.3812579 5.12569237,17.2422006 C5.22031102,17.1031433 5.26762034,16.8944264 5.26762034,16.61605 C5.43313989,17.213394 5.30698169,17.6470642 4.88914576,17.9170606 C4.63682938,18.0807344 4.30957503,18.1421448 3.90738271,18.1012919 C3.6391704,18.0766753 3.46961379,18.1175283 3.3987129,18.2238508 C3.29627245,18.3466717 3.31595313,18.5798742 3.45775494,18.9234583 C3.47365087,18.9726914 3.50519042,19.0464101 3.55237359,19.1446144 C3.59955676,19.2428187 3.63311484,19.3165374 3.65304782,19.3657705 C3.6729808,19.4150036 3.6907691,19.4845322 3.70641274,19.5743564 C3.72205638,19.6641806 3.72596728,19.7541358 3.71814546,19.8442219 C3.71814546,19.9670427 3.65115546,20.1675105 3.51717546,20.445625 C3.38319546,20.7237396 3.32793817,20.9201482 3.35140359,21.0348509 C3.37512133,21.1739082 3.5209602,21.2802307 3.78892019,21.3538185 C3.94661793,21.4030515 4.27980171,21.4787343 4.78847153,21.5808668 C5.29714136,21.6829993 5.68936717,21.7669312 5.96514898,21.8326627 C6.15438626,21.8818957 6.44619016,21.9718509 6.84056066,22.1025281 C7.23493116,22.2332053 7.56016698,22.3273505 7.81626811,22.3849637 C8.07236924,22.4425768 8.29112754,22.4589442 8.47254302,22.4340658 C8.81165623,22.3848327 9.06599114,22.270261 9.23554775,22.0903507 C9.40510437,21.9104405 9.4958121,21.7140319 9.50767097,21.5011249 C9.51952983,21.288218 9.49000881,21.0488614 9.41910792,20.7830551 C9.34820702,20.5172487 9.27326906,20.3044727 9.19429403,20.1447271 C9.115319,19.9849814 9.03647013,19.8355799 8.95774742,19.6965226 C8.00373918,18.1417521 7.33749777,17.1514599 6.9590232,16.725646 C6.42285089,16.1199219 5.97738632,15.956248 5.62262949,16.2346245 C5.53583265,16.3082123 5.47666445,16.2468018 5.4451249,16.0503932 C5.42140716,15.9194541 5.4134592,15.7640295 5.42128101,15.5841192 C5.42910282,15.3468576 5.46846418,15.1340816 5.53936507,14.9457912 C5.61026597,14.7575008 5.70488461,14.5651513 5.823221,14.3687427 C5.94155739,14.1723341 6.02822807,14.0004111 6.08323304,13.8529737 C6.14631214,13.6811816 6.25077112,13.3865687 6.39660998,12.969135 C6.54244884,12.5517012 6.65876669,12.2326027 6.74556353,12.0118394 C6.83236037,11.7910761 6.95069675,11.5415062 7.10057268,11.2631298 C7.2504486,10.9847533 7.40423544,10.7638591 7.56193319,10.6004471 C8.42914459,9.43011369 8.91800758,8.63217098 9.02852216,8.206619 C8.93390351,7.29004548 8.87082442,6.02150775 8.83928488,4.40100579 C8.82338895,3.66434257 8.9180076,3.044477 9.12314081,2.54140909 C9.32827402,2.03834118 9.74610995,1.61069417 10.3766486,1.25846805 C10.6842223,1.08667599 11.0942364,1.00077995 11.606691,1.00077995 C12.0245269,0.992661728 12.4423628,1.04791802 12.8601987,1.16654882 C13.2780347,1.28517962 13.6288806,1.4550076 13.9127365,1.67603275 C14.362112,2.01987876 14.7227983,2.51705442 14.9947953,3.16755973 C15.2667924,3.81806504 15.3831102,4.42156322 15.3437489,4.97805428 C15.3043875,5.75557049 15.4227239,6.631291 15.698758,7.60521583 C15.9669703,8.52990756 16.4912838,9.42186452 17.2716984,10.2810867 C17.7054302,10.76399 18.097656,11.4309937 18.4483758,12.2820976 C18.7990956,13.1332016 19.0336237,13.9147769 19.1519601,14.6268236 C19.2150392,15.0277591 19.2347198,15.3735691 19.2110021,15.6642539 C19.1872844,15.9549386 19.139975,16.181987 19.0690741,16.3453989 C18.9981732,16.5088109 18.9193243,16.598766 18.8325275,16.6152644 C18.7538048,16.6317627 18.6612047,16.7095405 18.5547272,16.8485978 C18.4482497,16.9876551 18.3417722,17.1328665 18.2352946,17.2842321 C18.1288171,17.4355977 17.9691009,17.5726909 17.7561458,17.6955117 C17.5431908,17.8183325 17.3027333,17.8756839 17.0347733,17.8675656 C16.8927192,17.8594474 16.7685795,17.8390209 16.6623543,17.8062862 C16.5561291,17.7735514 16.4674399,17.7182951 16.3962867,17.6405173 C16.3251335,17.5627395 16.2718947,17.499365 16.2365704,17.4503937 C16.2012461,17.4014225 16.1559553,17.3174906 16.100698,17.1985979 C16.0454407,17.0797052 16.0099903,16.9999633 15.9943467,16.9593722 C15.8210053,16.6566411 15.6593967,16.5338203 15.5095208,16.5909097 C15.3596448,16.6479991 15.2492564,16.8484668 15.1783555,17.1923128 C15.1074546,17.5361589 15.1350833,17.9330352 15.2612415,18.3829418 C15.4189392,18.9559312 15.4228501,19.7538739 15.2729742,20.77677 C15.1942515,21.3086445 15.2652785,21.7199241 15.4860554,22.0106089 C15.7068322,22.3012936 15.994599,22.4362918 16.3493559,22.4156034 C16.7041127,22.394915 17.0391889,22.2497036 17.3545843,21.9799691 C17.8198557,21.5790337 18.1727202,21.3069423 18.4131777,21.1636949 C18.6536352,21.0204476 19.0616308,20.8465605 19.6371645,20.6420337 C20.0550004,20.4945963 20.358537,20.3451948 20.5477743,20.1938292 C20.7370116,20.0424637 20.809931,19.9013113 20.7665326,19.7703723 C20.7231342,19.6394332 20.6246047,19.5227665 20.470944,19.4203721 C20.3172833,19.3179778 20.1142948,19.2218685 19.8619784,19.1320443 C19.6018402,19.0419582 19.4066735,18.8455496 19.2764782,18.5428185 C19.146283,18.2400873 19.0871148,17.9433794 19.0989736,17.6526946 C19.1108325,17.3620099 19.1718931,17.1676963 19.2821553,17.0697539 C19.2899771,17.3235138 19.3215167,17.5547522 19.376774,17.7634691 C19.4320313,17.972186 19.4891809,18.1379549 19.548223,18.2607757 C19.607265,18.3835966 19.6881324,18.5002633 19.7908252,18.6107759 C19.8935179,18.7212885 19.9762777,18.7990663 20.0391045,18.8441093 C20.1019313,18.8891523 20.1867096,18.9423136 20.2934394,19.0035931 C20.4001692,19.0648726 20.4652669,19.1037615 20.4887323,19.1202598 C20.6464299,19.2188568 20.7686772,19.3191561 20.8554741,19.4215505 Z" transform="translate(120 1032)"/>
  </g>
</svg>
