<svg xmlns="http://www.w3.org/2000/svg" width="24" height="24" viewBox="0 0 24 24">
  <g fill="none" fill-rule="evenodd" transform="translate(-120 -1200)">
    <path fill="#555" fill-rule="nonzero" d="M7.75878176,5.05837009 C7.67202384,5.06647288 7.61099066,5.10933924 7.5756822,5.18696916 C7.54037374,5.26459909 7.50683072,5.30341405 7.47505312,5.30341405 C7.43570941,5.31151684 7.41603755,5.29112918 7.41603755,5.24225107 C7.41603755,5.14423348 7.49094191,5.08293981 7.64075063,5.05837007 L7.75878174,5.05837007 L7.75878176,5.05837009 Z M8.78701436,5.22970483 C8.75548895,5.23780762 8.71021847,5.21127753 8.65120291,5.15011455 C8.59218735,5.08895158 8.52320977,5.07052427 8.44427015,5.09483263 C8.63342258,5.00491783 8.7595242,5.0131513 8.82257501,5.11953305 C8.84628212,5.16867253 8.83442857,5.20539645 8.78701436,5.22970481 L8.78701436,5.22970483 Z M4.6377667,10.4614914 C4.6062413,10.4533886 4.58253419,10.4656735 4.56664539,10.498346 C4.55075659,10.5310185 4.53297626,10.5821184 4.5133044,10.6516455 C4.49363254,10.7211726 4.47194306,10.7763239 4.44823597,10.8170992 C4.42452888,10.8578745 4.38518518,10.9109347 4.33020486,10.9762797 C4.27497235,11.0578304 4.2710632,11.1068392 4.31847741,11.1233061 C4.35000281,11.1314089 4.39930854,11.1027878 4.4663946,11.0374427 C4.53348066,10.9720977 4.58278639,10.8985191 4.61431179,10.8167071 C4.6221301,10.7921374 4.6300745,10.7635162 4.63814499,10.7308437 C4.64621549,10.6981712 4.65415989,10.6736014 4.66197819,10.6571345 C4.6697965,10.6406675 4.67572328,10.6222402 4.67975853,10.6018526 C4.68379379,10.5814649 4.68581141,10.5651286 4.68581141,10.5528438 L4.68581141,10.5159892 C4.68581141,10.5159892 4.68190226,10.5057953 4.67408396,10.4854077 C4.66626566,10.46502 4.6544121,10.4567865 4.6385233,10.4607072 L4.6377667,10.4614914 Z M14.7453159,14.8601285 C14.7453159,14.7129714 14.5285472,14.5413753 14.0950098,14.3453401 C14.1265352,14.2227528 14.156043,14.11049 14.1835332,14.0085517 C14.2110233,13.9066134 14.2306952,13.8004931 14.2425487,13.6901906 C14.2544023,13.5798881 14.2662558,13.4920644 14.2781094,13.4267193 C14.2899629,13.3613743 14.2919806,13.2694991 14.2841623,13.1510939 C14.276344,13.0326886 14.2724348,12.9530983 14.2724348,12.912323 C14.2724348,12.8715478 14.2586897,12.7817636 14.2311996,12.6429707 C14.2037094,12.5041778 14.1879467,12.4204054 14.1839115,12.3916536 C14.1798762,12.3629018 14.1602043,12.2608329 14.1248959,12.0854467 C14.0895875,11.9100605 14.067898,11.8018491 14.0598275,11.7608125 C13.9811401,11.3687421 13.7958968,10.9480507 13.5040976,10.4987381 C13.2122985,10.0494255 12.9285699,9.74308784 12.6529117,9.5797252 C12.8420642,9.74308784 13.0666511,10.082098 13.3266727,10.5967557 C14.0124133,11.9198623 14.2251467,13.0551673 13.964873,14.0026707 C13.8781151,14.3293959 13.6811443,14.5009921 13.3739608,14.517459 C13.1295759,14.5501316 12.9778756,14.4745927 12.91886,14.2908424 C12.8598445,14.1070921 12.8283191,13.7661216 12.8242838,13.2679309 C12.8202486,12.7697402 12.7749781,12.3327124 12.6884724,11.9568477 C12.6176033,11.6382252 12.5408074,11.3564573 12.4580847,11.111544 C12.3753621,10.8666307 12.2985662,10.6807894 12.2276971,10.55402 C12.156828,10.4272506 12.0957948,10.3271419 12.0445975,10.2536941 C11.9934003,10.1802463 11.942203,10.1189526 11.8910058,10.0698131 C11.8398085,10.0206736 11.8103007,9.99205248 11.8024824,9.98394971 C11.6920174,9.47739483 11.5698249,9.05670336 11.435905,8.7218753 C11.3019851,8.38704723 11.1857194,8.15833954 11.0871079,8.03575221 C10.9884965,7.91316488 10.8959379,7.77842337 10.8094322,7.63152768 C10.7229265,7.48463199 10.6637848,7.32126936 10.6320072,7.14143977 C10.6004818,6.96997434 10.6241889,6.75146048 10.7031285,6.48589818 C10.7820681,6.22033588 10.7998485,6.01815827 10.7564695,5.87936536 C10.7130906,5.74057245 10.5376832,5.63850347 10.2302474,5.57315843 C10.1119641,5.54858869 9.93655677,5.47501015 9.70402539,5.35242282 C9.47149401,5.22983549 9.33164732,5.16449044 9.2844853,5.15638766 C9.22143449,5.14828487 9.17805553,5.0421645 9.15434843,4.83802654 C9.13064132,4.63388858 9.16216673,4.42556855 9.24892465,4.21306643 C9.33568257,4.00056431 9.47754689,3.89026186 9.67451762,3.88215907 C9.96606456,3.85758933 10.1670705,3.98017665 10.2775356,4.24992104 C10.3880006,4.51966543 10.4037633,4.7566066 10.3248237,4.96074456 C10.2380658,5.1160044 10.2301214,5.22421581 10.3009905,5.28537879 C10.3718596,5.34654176 10.4901429,5.3486328 10.6558404,5.29165192 C10.7582349,5.25897939 10.8094322,5.11195301 10.8094322,4.85057278 L10.8094322,4.39733948 C10.7700885,4.15216483 10.7168736,3.94802688 10.6497875,3.78492561 C10.5827015,3.62182434 10.4999788,3.49727667 10.4016196,3.41128258 C10.3032603,3.3252885 10.2107017,3.26399483 10.1239438,3.22740159 C10.0371859,3.19080834 9.93075612,3.16022685 9.8046545,3.13565713 C8.96128687,3.20100219 8.61059827,3.74820168 8.7525887,4.77725561 C8.7525887,4.89984294 8.74867954,4.96113661 8.74086124,4.96113661 C8.66999214,4.88768877 8.55372645,4.84482242 8.39206417,4.83253754 C8.2304019,4.82025266 8.10039112,4.82234371 8.00203186,4.83881067 C7.90367259,4.85527763 7.8426394,4.83488997 7.8189323,4.77764769 C7.8267506,4.31212951 7.76369979,3.94449822 7.62977988,3.67475383 C7.49585996,3.40500945 7.31856108,3.26608586 7.09788325,3.25798307 C6.88502372,3.24988028 6.72146992,3.36214308 6.60722185,3.59477148 C6.49297378,3.82739988 6.42790534,4.0703528 6.41201654,4.32363024 C6.40419824,4.44621757 6.41794332,4.59729534 6.45325177,4.77686354 C6.48856023,4.95643174 6.53975748,5.10960055 6.60684354,5.23636997 C6.67392959,5.36313939 6.73496278,5.41829061 6.7899431,5.40182365 C6.8686305,5.37725391 6.93168131,5.32001164 6.97909552,5.23009684 C7.01062092,5.156649 6.98300467,5.12397647 6.89624675,5.13207925 C6.84101424,5.13207925 6.77998106,5.07287663 6.71314719,4.95447138 C6.64631333,4.83606614 6.60886115,4.69923359 6.60079066,4.54397375 C6.59297235,4.36440553 6.6284069,4.21332776 6.70709431,4.09074045 C6.78578172,3.96815313 6.91982774,3.91091086 7.10923237,3.91901364 C7.24315229,3.91901364 7.34958206,4.00474635 7.42852167,4.17621178 C7.50746128,4.3476772 7.54491346,4.50698845 7.54087821,4.65414552 C7.53684295,4.80130259 7.53091617,4.8910867 7.52309787,4.92349785 C7.34983424,5.04608518 7.22764177,5.16449042 7.15652046,5.27871358 C7.09346965,5.37673117 6.98514836,5.47265771 6.83155659,5.5664932 C6.67796483,5.66032869 6.59713369,5.71142852 6.58906318,5.71979269 C6.48666867,5.83427723 6.42563548,5.94457969 6.40596362,6.05070005 C6.38629176,6.15682042 6.41579954,6.23039896 6.49448696,6.27143566 C6.60495198,6.33678072 6.70343734,6.416371 6.78994306,6.51020649 C6.87644877,6.60404197 6.93949957,6.6816719 6.97909548,6.74309626 C7.01869138,6.80452061 7.09157812,6.8575808 7.19775569,6.90227681 C7.30393326,6.94697281 7.44377996,6.97350291 7.61729578,6.98186708 C7.98778233,6.99833403 8.38979429,6.93704036 8.82333166,6.79798608 C8.83922046,6.78988329 8.92988752,6.76126216 9.09533284,6.71212268 C9.26077817,6.6629832 9.39671571,6.62011684 9.50314548,6.58352361 C9.60957524,6.54693037 9.72584093,6.49387019 9.85194254,6.42434306 C9.97804416,6.35481593 10.0607668,6.28332843 10.1001105,6.20988058 C10.1709796,6.09539604 10.2497931,6.06272351 10.3365511,6.11186299 C10.3758948,6.13643273 10.4014934,6.1711963 10.4133469,6.21615369 C10.4252005,6.26111109 10.4133469,6.31011988 10.3777863,6.36318008 C10.3422256,6.41624028 10.2771572,6.45505524 10.182581,6.47962496 C10.024954,6.52876444 9.8022585,6.6165882 9.5144946,6.74309623 C9.2267307,6.86960427 9.04741419,6.94919454 8.97654509,6.98186706 C8.62976564,7.13712691 8.3538553,7.23109309 8.14881406,7.26376562 C7.95184332,7.30454094 7.64049843,7.29630747 7.21477937,7.2390652 C7.13609196,7.22259825 7.10065741,7.23083172 7.10847571,7.26376562 C7.11629401,7.29669952 7.18325397,7.37432945 7.30935559,7.49665539 C7.50632632,7.68458777 7.77038311,7.77437188 8.10152597,7.76600772 C8.23544588,7.75790493 8.37731021,7.72928379 8.52711894,7.68014431 C8.67692767,7.63100483 8.81879199,7.57376256 8.95271191,7.5084175 C9.08663183,7.44307244 9.21866022,7.37158495 9.34879709,7.29395503 C9.47893396,7.2163251 9.59721728,7.14692866 9.70364704,7.08576568 C9.81007681,7.02460271 9.90667065,6.97559391 9.99342857,6.9387393 C10.0801865,6.90188468 10.1491641,6.89169085 10.2003613,6.90815782 C10.2515586,6.92462478 10.2851016,6.96958218 10.3009904,7.04303002 C10.3009904,7.05949697 10.2970813,7.07792428 10.289263,7.09831194 C10.2814446,7.11869961 10.2656819,7.13908727 10.2419748,7.15947492 C10.2182677,7.17986258 10.1945606,7.19828989 10.1708535,7.21475685 C10.1471464,7.23122381 10.1136034,7.25161147 10.0702244,7.27591983 C10.0268455,7.30022819 9.99141094,7.3186555 9.96392079,7.33120176 C9.93643064,7.34374802 9.89708694,7.36413568 9.84588968,7.39236474 C9.79469243,7.4205938 9.75724025,7.4390211 9.73353314,7.44764666 C9.51285531,7.5621312 9.24690699,7.74183011 8.93568819,7.98674337 C8.62446939,8.23165663 8.36243023,8.40730414 8.1495707,8.51368589 C7.93671117,8.62006764 7.74364959,8.62411903 7.57038596,8.52584007 C7.40494063,8.43592527 7.15664654,8.13782113 6.82550369,7.63152764 C6.65224006,7.3782502 6.5537547,7.28846609 6.53004759,7.36217531 C6.52222929,7.38674505 6.51832014,7.42752037 6.51832014,7.48450125 C6.51832014,7.68863921 6.45917848,7.91943795 6.34089515,8.17689747 C6.22261183,8.434357 6.10634614,8.66097365 5.99209808,8.85674743 C5.87785003,9.05252122 5.79512737,9.28946239 5.7439301,9.56757095 C5.69273283,9.84567951 5.73800331,10.1030083 5.87974154,10.3395574 C5.69840742,10.3886969 5.45213096,10.7563282 5.14091216,11.4424513 C4.82969336,12.1285744 4.64255856,12.704395 4.57950776,13.1699132 C4.56361896,13.3170703 4.55769218,13.5988382 4.56172742,14.0152168 C4.56576266,14.4315955 4.54407319,14.6725881 4.49665899,14.7381945 C4.43360818,14.9342297 4.31936011,14.9465146 4.15391479,14.7750492 C3.90171154,14.5217717 3.75984722,14.1379349 3.72832181,13.6235386 C3.71243301,13.3948309 3.72819572,13.1661232 3.77560992,12.9374155 C3.80713533,12.7821556 3.80322618,12.7085771 3.76388247,12.7166799 L3.71659436,12.7778429 C3.43286571,13.3087061 3.47220941,13.9865957 3.83462547,14.8115117 C3.87396918,14.9095293 3.97245454,15.0238831 4.13008157,15.1545732 C4.28770859,15.2852633 4.3822848,15.3669447 4.41381021,15.3996172 C4.57143723,15.5875496 4.98126749,15.9571412 5.64330099,16.5083921 C6.3053345,17.059643 6.6717858,17.3721231 6.7426549,17.4458323 C6.86875652,17.5684196 6.9377341,17.7235488 6.94958766,17.9112198 C6.96144122,18.0988908 6.90620871,18.2745383 6.78389013,18.4381623 C6.66157155,18.6017863 6.48225505,18.6957525 6.24594062,18.7200608 C6.30899143,18.8426482 6.4232395,19.0244381 6.58868483,19.2654307 C6.75413015,19.5064232 6.86446907,19.7268975 6.91970158,19.9268534 C6.97493409,20.1268092 7.00255034,20.4147196 7.00255034,20.7905843 C7.36521861,20.5945491 7.39283486,20.2188151 7.08539911,19.6633821 C7.0538737,19.598037 7.01251237,19.532692 6.96131512,19.4673469 C6.91011786,19.4020019 6.87266568,19.3529931 6.84895858,19.3203206 C6.82525148,19.287648 6.81730708,19.2630783 6.82512538,19.2466113 C6.84883248,19.205836 6.90002974,19.1670211 6.97871714,19.1301665 C7.05740455,19.0933118 7.13621806,19.1035057 7.21515768,19.1607479 C7.57782594,19.5854908 8.23191503,19.7325172 9.17742497,19.6018271 C10.2255816,19.4792397 10.9230497,19.1238933 11.2698291,18.5357878 C11.4511633,18.2255295 11.5852093,18.1029422 11.6719672,18.1680258 C11.7665434,18.2171653 11.8058871,18.4295368 11.7899983,18.8051401 C11.78218,19.0092781 11.6915129,19.3850122 11.5179971,19.9323424 C11.447128,20.1202747 11.4234209,20.2734435 11.4468758,20.3918488 C11.4703307,20.510254 11.5649069,20.573508 11.7306044,20.5816108 C11.7543116,20.426351 11.8114356,20.1119106 11.9019766,19.6382896 C11.9925175,19.1646686 12.0457324,18.7970373 12.0616212,18.5353957 C12.07751,18.3639303 12.0519114,18.0637351 11.9848253,17.6348102 C11.9177393,17.2058852 11.8882315,16.8097635 11.896302,16.446445 C11.9043725,16.0831265 11.9950395,15.7952162 12.1683032,15.582714 C12.2865865,15.435557 12.4875925,15.3619784 12.7713211,15.3619784 C12.7791394,15.0598229 12.915077,14.8434001 13.1791337,14.7127099 C13.4431905,14.5820198 13.7289368,14.5391535 14.0363725,14.5841109 C14.3438083,14.6290683 14.5802488,14.7209434 14.7456942,14.8597363 L14.7453159,14.8601285 Z M7.32108304,4.72746273 C7.34479014,4.58866983 7.33495422,4.46608251 7.29157527,4.35970076 C7.24819632,4.25331901 7.20292583,4.19202534 7.15576382,4.17581976 C7.08489472,4.15935281 7.04946017,4.18797395 7.04946017,4.26168317 C7.06534897,4.30245849 7.08502082,4.32702823 7.10847573,4.33539239 C7.18716314,4.33539239 7.21477939,4.39668606 7.1913245,4.51927339 C7.16761739,4.68263602 7.1991428,4.76431734 7.28590072,4.76431734 C7.30960782,4.76431734 7.32146137,4.75203247 7.32146137,4.72746273 L7.32108304,4.72746273 Z M12.2746068,7.14104772 C12.258718,7.07570265 12.2331194,7.0287849 12.197811,7.00029446 C12.1625025,6.97180402 12.1113052,6.95141636 12.0442192,6.93913148 C11.9771331,6.9268466 11.9200091,6.90436791 11.8728471,6.87169539 C11.8335034,6.84712565 11.7960512,6.81445312 11.7604906,6.7736778 C11.7249299,6.73290248 11.6973136,6.70022995 11.6776418,6.67566021 C11.6579699,6.65109047 11.6362804,6.62456038 11.6125734,6.59606993 C11.5888663,6.56757949 11.5731036,6.55124323 11.5652852,6.54706114 C11.5574669,6.54287905 11.5417042,6.54902149 11.5179971,6.56548845 C11.4075321,6.69617856 11.4351484,6.87378643 11.6008459,7.09831205 C11.7665434,7.32283768 11.9202613,7.45143675 12.0619995,7.48410926 C12.1328686,7.49221205 12.1899927,7.45953952 12.2333716,7.38609167 C12.2767506,7.31264382 12.2904957,7.2309625 12.2746069,7.14104772 L12.2746068,7.14104772 Z M10.1704752,4.53142757 C10.1704752,4.44151277 10.1508034,4.3619225 10.1114597,4.29265675 C10.0721159,4.223391 10.028737,4.17229117 9.98132278,4.13935725 C9.93390857,4.10642334 9.89847402,4.09413847 9.87501912,4.10250264 C9.7645541,4.11060543 9.73693785,4.13922657 9.79217036,4.18836605 L9.83945847,4.21306647 C9.94992349,4.245739 10.0209187,4.37237772 10.0524441,4.59298263 C10.0524441,4.61755237 10.0839695,4.60931889 10.1470203,4.5682822 L10.1704752,4.53142757 Z M10.8086755,1.67676345 C10.8086755,1.6602965 10.7988396,1.63990884 10.7791678,1.61560047 C10.7594959,1.5912921 10.7240614,1.56267096 10.6728641,1.52973706 C10.6216668,1.49680316 10.5842147,1.47223342 10.5605076,1.45602784 C10.4422242,1.33344051 10.347648,1.27214685 10.2767789,1.27214685 C10.2059098,1.28024964 10.1606393,1.31083112 10.1409675,1.36389131 C10.1212956,1.41695149 10.1173865,1.47001167 10.12924,1.52307186 C10.1410936,1.57613204 10.1390759,1.62723187 10.1231871,1.67637135 C10.1153688,1.70904388 10.0916617,1.75191024 10.0520658,1.80497042 C10.0124699,1.85803061 9.98876281,1.89475452 9.98094451,1.91514218 C9.97312621,1.93552983 9.98497976,1.9702934 10.0165052,2.01943288 C10.0480306,2.04400262 10.079556,2.04400262 10.1110814,2.01943288 C10.1426068,1.99486314 10.1859858,1.95813922 10.2412183,1.90926112 C10.2964508,1.86038303 10.3555924,1.82365911 10.4186432,1.79908937 C10.4264616,1.79098658 10.4618961,1.78693518 10.5249469,1.78693518 C10.5879977,1.78693518 10.6471394,1.77870171 10.7023719,1.76223476 C10.7576044,1.74576781 10.793039,1.71714667 10.8086755,1.67637135 L10.8086755,1.67676345 Z M17.4884044,18.1068629 C17.6460314,18.2048805 17.7682239,18.3049891 17.8549818,18.4071888 C17.9417397,18.5093885 17.9890278,18.6074061 17.9968461,18.7012416 C18.0046644,18.7950771 17.9948285,18.8869522 17.9673383,18.976867 C17.9398482,19.0667818 17.878815,19.1565659 17.7842388,19.2462193 C17.6896626,19.3358728 17.597104,19.415463 17.506563,19.4849902 C17.4160221,19.5545173 17.2977388,19.6300562 17.1517131,19.7116068 C17.0056874,19.7931575 16.8816034,19.8605936 16.7794611,19.9139151 C16.6773188,19.9672367 16.5512172,20.0304907 16.4011562,20.1036772 C16.2510953,20.1768637 16.1446655,20.2299238 16.0818669,20.2628577 C15.7825017,20.4181176 15.4455582,20.6468253 15.0710364,20.9489808 C14.6965146,21.2511364 14.3990408,21.5125166 14.1786152,21.7331215 C14.0446953,21.8638116 13.7767294,21.9434019 13.3747174,21.9718923 C12.9727054,22.0003827 12.6220168,21.9411801 12.3226516,21.7942844 C12.1806612,21.7208366 12.0643955,21.6249101 11.9738545,21.5065048 C11.8833136,21.3880996 11.8182451,21.2839395 11.7786492,21.1940247 C11.7390533,21.1041099 11.6524215,21.0245197 11.5187538,20.9552539 C11.3850861,20.8859882 11.1998428,20.8471732 10.963024,20.838809 C10.6162445,20.8307062 10.1038936,20.8266549 9.42597132,20.8266549 C9.27616261,20.8266549 9.05157562,20.8327973 8.75221037,20.8450822 C8.45284511,20.857367 8.22422288,20.8675609 8.06634366,20.8756636 C7.71956421,20.8837664 7.40632779,20.9450601 7.1266344,21.0595446 C6.84694101,21.1740292 6.6360991,21.2966165 6.49410869,21.4273066 C6.35211828,21.5579967 6.18074617,21.6744416 5.97999238,21.7766413 C5.77923859,21.878841 5.56839668,21.9257587 5.34746667,21.9173945 C5.11897053,21.9092918 4.68152401,21.782653 4.03512712,21.5374784 C3.38873022,21.2923037 2.81332853,21.1166562 2.30892205,21.0105359 C2.15911333,20.9778633 1.95810735,20.9390484 1.70590411,20.894091 C1.45370087,20.8491336 1.25673014,20.8124097 1.11499192,20.7839192 C0.973253697,20.7554288 0.817644297,20.7166138 0.648163717,20.6674743 C0.478683138,20.6183349 0.346654745,20.5591322 0.252078538,20.4898665 C0.157502331,20.4206007 0.0905423724,20.3410104 0.0511986621,20.2510957 C-0.0274887448,20.0631633 0.000127510345,19.7915892 0.134047428,19.4363735 C0.267967345,19.0811578 0.338962559,18.8585925 0.347033069,18.7686777 C0.354851372,18.6379876 0.339088669,18.474625 0.299744959,18.2785898 C0.260401248,18.0825546 0.221057545,17.9089982 0.181713848,17.7579204 C0.142370152,17.6068426 0.124589821,17.4577252 0.128372855,17.3105682 C0.13215589,17.1634111 0.173517221,17.0531086 0.252456848,16.9796608 C0.362921869,16.8816432 0.587508855,16.8244009 0.926217807,16.807934 C1.26492676,16.791467 1.5013673,16.7424582 1.63553942,16.6609076 C1.87210606,16.5137505 2.03767748,16.3707755 2.1322537,16.2319826 C2.22682992,16.0931897 2.27411803,15.8848697 2.27411803,15.6070225 C2.43956336,16.2032308 2.31346174,16.6360765 1.89581317,16.9055595 C1.64360993,17.0689221 1.31650233,17.1302158 0.914490372,17.0894405 C0.646398331,17.0648707 0.476917759,17.105646 0.406048655,17.2117664 C0.303654145,17.3343537 0.323326,17.5671128 0.465064221,17.9100437 C0.480953021,17.9591832 0.512478428,18.0327617 0.559640441,18.1307793 C0.606802455,18.2287969 0.640345483,18.3023754 0.660269524,18.3515149 C0.680193566,18.4006544 0.697973897,18.4700508 0.713610517,18.5597042 C0.729247138,18.6493577 0.73315629,18.7391418 0.725337972,18.8290566 C0.725337972,18.9516439 0.658378014,19.1517305 0.524458097,19.4293163 C0.390538179,19.706902 0.335305669,19.9029372 0.358760566,20.0174218 C0.382467669,20.1562147 0.528241138,20.262335 0.796080972,20.3357829 C0.953707993,20.3849224 1.28674237,20.4604612 1.79518409,20.5623995 C2.30362581,20.6643378 2.69567574,20.7481102 2.97133388,20.8137166 C3.16048631,20.8628561 3.45215935,20.9526402 3.84635301,21.0830689 C4.24054666,21.2134977 4.56563663,21.3074639 4.82162292,21.3649675 C5.07760921,21.4224712 5.29626942,21.4388074 5.47760354,21.4139763 C5.81656469,21.3648368 6.07078555,21.250483 6.24026613,21.0709148 C6.40974671,20.8913465 6.50041377,20.6953114 6.51226732,20.4828093 C6.52412086,20.2703071 6.49461308,20.0314056 6.42374398,19.7661047 C6.35287488,19.5008038 6.27797052,19.2884323 6.1990309,19.1289904 C6.12009129,18.9695485 6.04127778,18.820431 5.96259037,18.6816381 C5.00900993,17.1298238 4.34306728,16.1414144 3.96476243,15.7164102 C3.42883055,15.1118377 2.98356574,14.9484751 2.62896799,15.2263223 C2.54221007,15.2997701 2.48306841,15.2384765 2.451543,15.0424413 C2.4278359,14.9117512 2.4198915,14.756622 2.4277098,14.5770538 C2.4355281,14.3402433 2.47487181,14.1278719 2.54574091,13.9399395 C2.61661001,13.7520071 2.71118623,13.5600234 2.82946955,13.3639882 C2.94775288,13.167953 3.03438469,12.9963569 3.08936499,12.8491998 C3.15241581,12.6777344 3.25682794,12.3836817 3.40260141,11.9670416 C3.54837487,11.5504015 3.66464056,11.2319097 3.75139848,11.0115662 C3.83815639,10.7912226 3.95643971,10.5421273 4.10624843,10.2642801 C4.25605714,9.98643295 4.40977502,9.76595873 4.56740206,9.60285745 C5.43422458,8.43474922 5.92286835,7.63832368 6.03333337,7.21358081 C5.93875715,6.29875003 5.87570634,5.03262422 5.84418095,3.41520341 C5.82829215,2.67994084 5.92286837,2.06125385 6.12790959,1.55914244 C6.33295082,1.05703104 6.75059938,0.630197133 7.38085527,0.278640721 C7.68829102,0.107175294 8.09812128,0.0214425809 8.61034606,0.0214425809 C9.02799462,0.0133397908 9.44564318,0.0684910175 9.86329173,0.186896261 C10.2809403,0.305301505 10.6316289,0.47480658 10.9153575,0.695411487 C11.3645315,1.03860373 11.725056,1.53483408 11.9969311,2.18410256 C12.2688062,2.83337103 12.3850719,3.43572175 12.3457282,3.99115472 C12.3063845,4.7671926 12.4246678,5.64124807 12.7005781,6.61332113 C12.9686702,7.53625469 13.4927485,8.42651573 14.2728131,9.28410425 C14.7063505,9.76608939 15.0984004,10.4318248 15.4489629,11.2813105 C15.7995254,12.1307963 16.0339483,12.9108856 16.1522317,13.6215784 C16.2152825,14.0217515 16.2349543,14.3669041 16.2112472,14.6570361 C16.1875401,14.9471682 16.140252,15.1737848 16.0693829,15.3368861 C15.9985138,15.4999874 15.9197003,15.5897715 15.8329424,15.6062384 C15.754255,15.6227054 15.6616964,15.7003353 15.5552666,15.8391282 C15.4488368,15.9779211 15.3424071,16.1228564 15.2359773,16.2739342 C15.1295475,16.425012 14.9699029,16.5618445 14.7570434,16.6844318 C14.5441838,16.8070191 14.3038342,16.8642614 14.0359943,16.8561586 C13.8940039,16.8480559 13.7699199,16.8276682 13.6637423,16.7949957 C13.5575648,16.7623231 13.4689153,16.7071719 13.397794,16.629542 C13.3266727,16.5519121 13.2734578,16.488658 13.2381494,16.4397799 C13.2028409,16.3909018 13.1575704,16.3071295 13.1023379,16.1884628 C13.0471054,16.0697962 13.0116708,15.990206 12.9960343,15.949692 C12.8227706,15.6475365 12.6612345,15.5249492 12.5114257,15.5819301 C12.361617,15.6389109 12.2512781,15.8389975 12.180409,16.1821897 C12.1095399,16.525382 12.1371561,16.9215037 12.2632578,17.3705549 C12.4208848,17.9424549 12.4247939,18.7388804 12.2749852,19.7598316 C12.1962978,20.2906948 12.267293,20.7011924 12.4879709,20.9913245 C12.7086487,21.2814565 12.9962865,21.4161981 13.3508842,21.395549 C13.705482,21.3749 14.0404079,21.2299646 14.3556619,20.960743 C14.8207247,20.5605699 15.1734309,20.2889958 15.4137806,20.1460208 C15.6541303,20.0030459 16.0619429,19.8294894 16.6372185,19.6253514 C17.0548671,19.4781944 17.3582676,19.3290769 17.54742,19.1779992 C17.7365724,19.0269214 17.8094592,18.8860375 17.7660802,18.7553474 C17.7227013,18.6246572 17.6242159,18.5082124 17.4706241,18.4060127 C17.3170323,18.303813 17.1141348,18.2078865 16.8619316,18.1182331 C16.6019101,18.0283183 16.4068309,17.8322831 16.276694,17.5301276 C16.1465571,17.227972 16.0874155,16.9318282 16.099269,16.6416962 C16.1111225,16.3515641 16.1721557,16.15762 16.2823686,16.0598638 C16.2901869,16.3131413 16.3217123,16.54394 16.3769448,16.75226 C16.4321773,16.9605801 16.4893013,17.1260338 16.5483169,17.2486211 C16.6073324,17.3712084 16.6881636,17.4876533 16.7908103,17.5979558 C16.893457,17.7082582 16.9761797,17.7858881 17.0389783,17.8308455 C17.1017769,17.8758029 17.1865172,17.9288631 17.2931992,17.9900261 C17.3998811,18.0511891 17.4649496,18.090004 17.4884045,18.106471 L17.4884044,18.1068629 Z" transform="translate(123 1201)"/>
  </g>
</svg>
