<svg xmlns="http://www.w3.org/2000/svg" width="24" height="24" viewBox="0 0 24 24">
  <g fill="none" fill-rule="evenodd" transform="translate(-264 -984)">
    <path fill="#555" fill-rule="nonzero" d="M5.50283813,4.17797632 L18.25,4.17797632 L18.25,2.48594924 L6.78827077,2.48594924 C6.1835582,2.48594924 5.75128259,2.57797031 5.59457823,3.13096001 C5.54742419,3.29736061 5.51684416,3.46663657 5.50283813,3.6387879 L5.50283813,4.17797632 Z M19.75,4.17797632 L20,4.17797632 C20.5522847,4.17797632 21,4.62149774 21,5.16860915 L21,22.0093672 C21,22.5564786 20.5522847,23 20,23 L6,23 C4.8954305,23 4,22.1129572 4,21.0187343 L4,5.16860915 C4,5.11985984 4.00355457,5.07193297 4.01042097,5.02506901 L4.01042097,3.24066182 C4.01227236,3.14379482 4.01501629,3.0720498 4.01865276,3.02542677 C4.12395543,1.67534492 5.40288363,1 6.78827077,1 L19,1 C19.4142136,1 19.75,1.33264107 19.75,1.74297462 L19.75,4.17797632 Z M5.50283813,5.66392556 L5.50283813,6.596189 L5.5,6.59625802 L5.5,21.0187343 C5.5,21.2922901 5.72385763,21.5140508 6,21.5140508 L19.5,21.5140508 L19.5,5.66392556 L5.50283813,5.66392556 Z M8.51521774,9.862746 C8.10100417,9.862746 7.76521774,9.53010493 7.76521774,9.11977138 C7.76521774,8.70943783 8.10100417,8.37679676 8.51521774,8.37679676 L16.5152177,8.37679676 C16.9294313,8.37679676 17.2652177,8.70943783 17.2652177,9.11977138 C17.2652177,9.53010493 16.9294313,9.862746 16.5152177,9.862746 L8.51521774,9.862746 Z M8.51521774,12.8346445 C8.10100417,12.8346445 7.76521774,12.5020034 7.76521774,12.0916699 C7.76521774,11.6813363 8.10100417,11.3486952 8.51521774,11.3486952 L12.352588,11.3486952 C12.7668016,11.3486952 13.102588,11.6813363 13.102588,12.0916699 C13.102588,12.5020034 12.7668016,12.8346445 12.352588,12.8346445 L8.51521774,12.8346445 Z" transform="translate(264 984)"/>
  </g>
</svg>
