<svg xmlns="http://www.w3.org/2000/svg" width="24" height="24" viewBox="0 0 24 24">
  <g fill="none" fill-rule="evenodd" transform="translate(-648 -744)">
    <path fill="#555" fill-rule="nonzero" d="M6.70870666,4.38132832 C6.70870666,2.51387226 8.2061197,1 10.0532723,1 C11.9004249,1 13.3978379,2.51387226 13.3978379,4.38132832 C13.3978379,6.24878439 11.9004249,7.76265664 10.0532723,7.76265664 C8.2061197,7.76265664 6.70870666,6.24878439 6.70870666,4.38132832 Z M2,10.9075815 C2,9.33741099 3.25903563,8.06453634 4.81213479,8.06453634 C6.36523395,8.06453634 7.62426958,9.33741099 7.62426958,10.9075815 C7.62426959,11.9233037 7.08827973,12.8618697 6.21820219,13.3697308 C5.34812466,13.8775919 4.27614492,13.8775919 3.40606738,13.3697308 C2.53598984,12.8618697 1.99999999,11.9233037 2,10.9075815 Z M4.55307752,18.2092105 C4.55307752,16.7935829 5.68819352,15.64599 7.08843007,15.64599 C8.48866662,15.64599 9.62378263,16.7935829 9.62378263,18.2092105 C9.62378264,19.124961 9.14054718,19.9711494 8.35610636,20.4290247 C7.57166555,20.8868999 6.6051946,20.8868999 5.82075379,20.4290247 C5.03631297,19.9711494 4.55307751,19.124961 4.55307752,18.2092105 Z M11.3710557,20.793797 C11.3710557,19.5753447 12.3480674,18.587594 13.5532723,18.587594 C14.7584772,18.587594 15.7354889,19.5753447 15.7354889,20.793797 C15.7354889,22.0122493 14.7584772,23 13.5532723,23 C12.3480674,23 11.3710557,22.0122493 11.3710557,20.793797 Z M17.0962213,18.1926692 C17.0962213,17.1397985 17.9404619,16.2862782 18.9818855,16.2862782 C20.0233091,16.2862782 20.8675497,17.1397985 20.8675497,18.1926692 C20.8675497,19.2455398 20.0233091,20.0990602 18.9818855,20.0990602 C17.9404619,20.0990602 17.0962213,19.2455398 17.0962213,18.1926692 Z M19.7645111,13.3619048 C19.7645111,12.4586285 20.4888,11.7263784 21.3822556,11.7263784 C22.2757111,11.7263784 23,12.4586285 23,13.3619048 C23,14.265181 22.2757111,14.9974311 21.3822556,14.9974311 C20.4888,14.9974311 19.7645111,14.265181 19.7645111,13.3619048 Z M19.5634009,8.8164787 C19.5634009,8.139307 20.1063886,7.59035088 20.7761979,7.59035088 C21.4460072,7.59035088 21.9889949,8.139307 21.9889949,8.8164787 C21.9889949,9.49365039 21.4460072,10.0426065 20.7761979,10.0426065 C20.1063886,10.0426065 19.5634009,9.49365039 19.5634009,8.8164787 Z M17.1712115,5.55507519 C17.1712115,5.04957546 17.5765447,4.63978697 18.0765485,4.63978697 C18.5765523,4.63978697 18.9818855,5.04957546 18.9818855,5.55507519 C18.9818855,6.06057491 18.5765523,6.47036341 18.0765485,6.47036341 C17.5765447,6.47036341 17.1712115,6.06057491 17.1712115,5.55507519 Z" transform="translate(648 744)"/>
  </g>
</svg>
