<svg xmlns="http://www.w3.org/2000/svg" width="24" height="24" viewBox="0 0 24 24">
  <path fill="#555" d="M7,5 C7,3.34314576 8.34314576,2 10,2 C11.6568543,2 13,3.34314576 13,5 C13,6.65685425 11.6568543,8 10,8 C8.34314576,8 7,6.65685425 7,5 Z M2,11.35 C2,9.83121692 3.23121694,8.6 4.75,8.6 C6.26878306,8.6 7.5,9.83121692 7.5,11.35 C7.50000001,12.3324804 6.97585297,13.2403297 6.125,13.7315699 C5.27414705,14.22281 4.22585295,14.22281 3.37499999,13.7315699 C2.52414702,13.2403297 1.99999999,12.3324804 2,11.35 Z M4.5,18.1 C4.5,16.7192881 5.61928812,15.6 7,15.6 C8.38071187,15.6 9.5,16.7192881 9.5,18.1 C9.50000001,18.9931639 9.02350271,19.8184815 8.25000001,20.2650635 C7.47649732,20.7116455 6.52350268,20.7116455 5.74999999,20.2650635 C4.97649729,19.8184815 4.49999999,18.9931639 4.5,18.1 Z M11,20 C11,18.8954305 11.8954305,18 13,18 C14.1045695,18 15,18.8954305 15,20 C15,21.1045695 14.1045695,22 13,22 C11.8954305,22 11,21.1045695 11,20 Z M16,18 C16,16.8954305 16.8954305,16 18,16 C19.1045695,16 20,16.8954305 20,18 C20,19.1045694 19.1045695,20 18,20 C16.8954305,20 16,19.1045694 16,18 Z M19,13.5 C19,12.6715729 19.6715729,12 20.5,12 C21.3284271,12 22,12.6715729 22,13.5 C22,14.3284271 21.3284271,15 20.5,15 C19.6715729,15 19,14.3284271 19,13.5 Z M19,9.00000001 C19,8.44771525 19.4477152,8 20,8 C20.5522848,8 21,8.44771525 21,9.00000001 C21,9.55228476 20.5522848,10 20,10 C19.4477152,10 19,9.55228476 19,9.00000001 Z M16,6 C16,5.44771525 16.4477153,5 17,5 C17.5522847,5 18,5.44771525 18,6 C18,6.55228474 17.5522847,7 17,7 C16.4477153,7 16,6.55228474 16,6 Z"/>
</svg>
