<svg xmlns="http://www.w3.org/2000/svg" width="24" height="24" viewBox="0 0 24 24">
  <g fill="none" fill-rule="evenodd" transform="translate(-644 -740)">
    <path fill="#555" fill-rule="nonzero" d="M5.15573225,3.68670059 C5.15573225,1.65059208 6.79530364,-1.19930158e-16 8.81781744,0 C10.8403312,1.25144513e-16 12.4799026,1.65059208 12.4799026,3.68670059 C12.4799026,5.7228091 10.8403312,7.37340117 8.81781744,7.37340117 C6.79530364,7.37340117 5.15573225,5.7228091 5.15573225,3.68670059 Z M5.8010842e-16,10.8023483 L0,10.8023483 C1.65745263e-16,9.09037369 1.37856339,7.70254403 3.07910751,7.70254403 C4.77965162,7.70254403 6.15821501,9.09037369 6.15821501,10.8023483 C6.15821503,11.9098018 5.57134046,12.9331309 4.61866127,13.4868577 C3.66598209,14.0405844 2.49223292,14.0405844 1.53955374,13.4868577 C0.586874555,12.9331309 -1.63921588e-08,11.9098018 5.8010842e-16,10.8023483 Z M2.79545639,18.7633973 L2.79545639,18.7633973 C2.79545639,17.2199224 4.03833572,15.9686888 5.57150507,15.9686888 C7.10467442,15.9686888 8.34755375,17.2199224 8.34755375,18.7633973 C8.34755377,19.7618504 7.81844188,20.6844592 6.95952942,21.1836858 C6.10061697,21.6829124 5.04239318,21.6829124 4.18348072,21.1836858 C3.32456826,20.6844592 2.79545637,19.7618504 2.79545639,18.7633973 Z M10.2607059,21.5814012 C10.2607059,20.2529088 11.3304711,19.175953 12.6500933,19.175953 C13.9697155,19.175953 15.0394807,20.2529088 15.0394807,21.5814012 C15.0394807,22.9098935 13.9697155,23.9868493 12.6500933,23.9868493 C11.3304711,23.9868493 10.2607059,22.9098935 10.2607059,21.5814012 Z M16.5293955,18.745362 C16.5293955,17.5974052 17.453785,16.6668023 18.5940771,16.6668023 C19.7343692,16.6668023 20.6587586,17.5974052 20.6587586,18.745362 C20.6587586,19.8933189 19.7343692,20.8239217 18.5940771,20.8239217 C17.453785,20.8239217 16.5293955,19.8933189 16.5293955,18.745362 Z M19.451002,13.4783249 C19.451002,12.4934725 20.2440519,11.695092 21.2223286,11.695092 C22.2006053,11.695092 22.9936552,12.4934725 22.9936552,13.4783249 C22.9936552,14.4631772 22.2006053,15.2615577 21.2223286,15.2615577 C20.2440519,15.2615577 19.451002,14.4631772 19.451002,13.4783249 Z M19.2307992,8.5223953 L19.2307992,8.5223953 C19.2307992,7.78406733 19.825336,7.18553425 20.5587343,7.18553425 C21.2921326,7.18553425 21.8866694,7.78406733 21.8866694,8.5223953 C21.8866694,9.26072328 21.2921326,9.85925636 20.5587343,9.85925636 C19.825336,9.85925636 19.2307992,9.26072328 19.2307992,8.5223953 Z M16.6115051,4.9664501 C16.6115051,4.41529802 17.0553189,3.96850098 17.6027911,3.96850098 C18.1502632,3.96850098 18.5940771,4.41529802 18.5940771,4.9664501 C18.5940771,5.51760218 18.1502632,5.96439922 17.6027911,5.96439922 C17.0553189,5.96439922 16.6115051,5.51760218 16.6115051,4.9664501 Z" transform="translate(645 740)"/>
  </g>
</svg>
