<svg xmlns="http://www.w3.org/2000/svg" width="24" height="24" viewBox="0 0 24 24">
  <path fill="#555" fill-rule="evenodd" d="M10,8 C8.34314575,8 7,6.65685425 7,5 C7,3.34314575 8.34314575,2 10,2 C11.6568542,2 13,3.34314575 13,5 C13,6.65685425 11.6568542,8 10,8 Z M4.5,13 C3.11928813,13 2,11.8807119 2,10.5 C2,9.11928813 3.11928813,8 4.5,8 C5.88071187,8 7,9.11928813 7,10.5 C7,11.8807119 5.88071187,13 4.5,13 Z M6.74123945,20 C5.36052758,20 4.24123945,18.8807119 4.24123945,17.5 C4.24123945,16.1192881 5.36052758,15 6.74123945,15 C8.12195133,15 9.24123945,16.1192881 9.24123945,17.5 C9.24123945,18.8807119 8.12195133,20 6.74123945,20 Z M13,22 C11.8954305,22 11,21.1045695 11,20 C11,18.8954305 11.8954305,18 13,18 C14.1045695,18 15,18.8954305 15,20 C15,21.1045695 14.1045695,22 13,22 Z M18.3193286,19.5 C17.2147591,19.5 16.3193286,18.6045695 16.3193286,17.5 C16.3193286,16.3954305 17.2147591,15.5 18.3193286,15.5 C19.4238981,15.5 20.3193286,16.3954305 20.3193286,17.5 C20.3193286,18.6045695 19.4238981,19.5 18.3193286,19.5 Z M20.5,14.318541 C19.6715729,14.318541 19,13.6469681 19,12.818541 C19,11.9901139 19.6715729,11.318541 20.5,11.318541 C21.3284271,11.318541 22,11.9901139 22,12.818541 C22,13.6469681 21.3284271,14.318541 20.5,14.318541 Z M19.7857894,9.20724734 C19.2335046,9.20724734 18.7857894,8.75953209 18.7857894,8.20724734 C18.7857894,7.65496259 19.2335046,7.20724734 19.7857894,7.20724734 C20.3380741,7.20724734 20.7857894,7.65496259 20.7857894,8.20724734 C20.7857894,8.75953209 20.3380741,9.20724734 19.7857894,9.20724734 Z M17.5,6 C17.2238576,6 17,5.77614237 17,5.5 C17,5.22385763 17.2238576,5 17.5,5 C17.7761424,5 18,5.22385763 18,5.5 C18,5.77614237 17.7761424,6 17.5,6 Z"/>
</svg>
