<svg xmlns="http://www.w3.org/2000/svg" width="24" height="24" viewBox="0 0 24 24">
  <g fill="none" fill-rule="evenodd" transform="translate(-696 -936)">
    <path fill="#555" d="M17.2919255,18.1523282 C16.8332537,19.2958729 16.1825131,20.3181326 15.3597707,21.1873421 C14.5398949,22.0652148 13.5766842,22.7582722 12.5016722,23.2463001 C11.3893932,23.745879 10.2111801,24 9.00143335,24 C7.78881988,24 6.61060678,23.745879 5.49832776,23.2434123 C4.42331581,22.7582722 3.46297181,22.0652148 2.64022934,21.1873421 C1.81175346,20.3065816 1.1610129,19.284322 0.708074534,18.1523282 C0.237935977,16.9799061 0,15.7324028 0,14.4444712 L0,1.86259175 C0,0.834556612 0.788342093,1.13686838e-13 1.76015289,1.13686838e-13 L16.2369804,1.13686838e-13 C17.2087912,1.13686838e-13 17.9971333,0.834556612 17.9942666,1.86259175 L17.9942666,12.9659487 L18,13.4770786 L18,14.4444712 C18,15.7266274 17.762064,16.9741307 17.2919255,18.1523282 L17.2919255,18.1523282 Z M6.20353559,21.5598604 L6.20926899,21.5598604 L6.24366937,21.5742991 C7.11227903,21.9728071 8.03822265,22.1749489 8.99856665,22.1749489 C9.95317726,22.1749489 10.8819876,21.9728071 11.7563306,21.5800746 C12.6048734,21.1960053 13.3731486,20.6415594 14.0410893,19.936951 C14.7118968,19.2236795 15.2365026,18.3948983 15.6063067,17.4737095 C15.9904443,16.5149801 16.1853798,15.498496 16.1853798,14.4444712 L16.1853798,13.6532307 L1.81175346,13.6532307 L1.81175346,13.6532307 L1.81175346,14.4473589 C1.81175346,15.4898328 2.00668896,16.5092047 2.39082656,17.4737095 C2.76349737,18.4035615 3.2909699,19.2294549 3.95604396,19.9340633 C4.61538462,20.6328962 5.36932633,21.1815666 6.20353559,21.5598604 L6.20353559,21.5598604 Z M16.1911132,11.8281795 L16.1911132,1.86259175 C16.1911132,1.84526531 16.1882465,1.83371435 16.1853798,1.82505114 L1.81748686,1.82505114 C1.81462016,1.83371435 1.81175346,1.84526531 1.81175346,1.86259175 L1.81175346,11.8281795 L16.1911132,11.8281795 L16.1911132,11.8281795 Z M8.16149068,7.71892672 L8.16149068,5.32499098 C8.16149068,4.85717723 8.53989489,4.47599567 9.00430005,4.47599567 C9.46870521,4.47599567 9.84710941,4.85717723 9.84710941,5.32499098 L9.84710941,7.7247022 C10.2943144,8.01347612 10.5609173,8.50150403 10.5609173,9.04151125 C10.5609173,9.90783299 9.8614429,10.6124413 9.00143335,10.6124413 C8.14142379,10.6124413 7.44194935,9.90783299 7.44194935,9.04151125 C7.44194935,8.50727951 7.71715241,8.0048129 8.16149068,7.71892672 L8.16149068,7.71892672 Z" transform="matrix(1 0 0 -1 699 960)"/>
  </g>
</svg>
