<svg xmlns="http://www.w3.org/2000/svg" width="24" height="24" viewBox="0 0 24 24">
  <path fill="#555" d="M18.6,12.2454545 L5.4,12.2454545 L5.4,20.6 L18.6,20.6 L18.6,12.2454545 Z M18.6,10.8454545 L18.6,10 C18.6,6.35492065 15.6450793,3.4 12,3.4 C8.35492065,3.4 5.4,6.35492065 5.4,10 L5.4,10.8454545 L18.6,10.8454545 Z M12,2 C16.418278,2 20,5.581722 20,10 L20,21 C20,21.5522847 19.5522847,22 19,22 L5,22 C4.44771525,22 4,21.5522847 4,21 L4,10 C4,5.581722 7.581722,2 12,2 Z M11.6554075,16.4473504 C11.182791,16.1948658 10.8612018,15.696708 10.8612018,15.1234389 C10.8612018,14.2950118 11.5327747,13.6234389 12.3612018,13.6234389 C13.1896289,13.6234389 13.8612018,14.2950118 13.8612018,15.1234389 C13.8612018,15.7013814 13.5343478,16.202983 13.0554075,16.4534763 L13.0554075,18.6220005 C13.0554075,19.0085998 12.7420068,19.3220005 12.3554075,19.3220005 C11.9688082,19.3220005 11.6554075,19.0085998 11.6554075,18.6220005 L11.6554075,16.4473504 Z"/>
</svg>
