<svg xmlns="http://www.w3.org/2000/svg" width="24" height="24" viewBox="0 0 24 24">
  <g fill="none" fill-rule="evenodd" transform="translate(-696 -936)">
    <path fill="#555" fill-rule="nonzero" d="M5.33429707,21.4650185 C5.33107596,21.463606 5.32828687,21.4625534 5.32596489,21.4618415 C5.33279692,21.463936 5.34025837,21.4659893 5.3483241,21.4679892 L5.33429707,21.4650185 Z M5.67257723,21.5 L19.34601,21.5 C19.4010937,21.4952199 19.4497743,21.4892445 19.4918627,21.4825278 C19.4946666,21.4589939 19.4977206,21.4311838 19.5,21.3997722 L19.5,9.5 C19.5,5.63400675 16.3659932,2.5 12.5,2.5 C8.63400675,2.5 5.5,5.63400675 5.5,9.5 L5.49948619,21.3605143 C5.50088677,21.4140109 5.50308138,21.4575313 5.50481262,21.491879 C5.55446255,21.4963528 5.61081845,21.4992694 5.67257723,21.5 Z M12.5,1 C17.1944204,1 21,4.80557963 21,9.5 L21,21.3997722 C20.9711363,21.9244979 20.8435257,22.3122111 20.6171683,22.5629115 C20.3908109,22.8136119 19.9863819,22.9593081 19.4038814,23 L5.67257723,23 C5.05403657,22.9930522 4.62421672,22.8612823 4.38311768,22.6046906 C4.14201864,22.3480988 4.01431274,21.9464593 4,21.3997722 L4,9.5 C4,4.80557963 7.80557963,1 12.5,1 Z M4.21435955,12.25 L4.21435955,10.75 L20.6892853,10.75 L20.6892853,12.25 L4.21435955,12.25 Z M11.6795668,18.9867461 L11.6795668,16.792305 C11.259914,16.5302426 11,16.0696482 11,15.5799358 C11,14.7858076 11.6606147,14.1399166 12.472846,14.1399166 C13.2850772,14.1399166 13.945692,14.7858076 13.945692,15.5799358 C13.945692,16.0749424 13.6939003,16.5223014 13.2715401,16.7870108 L13.2715401,18.9867461 C13.2715401,19.4155753 12.9141583,19.7649918 12.4755534,19.7649918 C12.0369486,19.7649918 11.6795668,19.4155753 11.6795668,18.9867461 Z" transform="translate(696 936)"/>
  </g>
</svg>
