<svg xmlns="http://www.w3.org/2000/svg" width="24" height="24" viewBox="0 0 24 24">
  <g fill="none" fill-rule="evenodd" transform="translate(-216 -360)">
    <path fill="#555" fill-rule="nonzero" d="M12.454748,10.7674419 L10.9371097,9.24980361 C10.651028,8.96372186 10.6525171,8.49840256 10.9404358,8.21048387 C11.2283545,7.92256517 11.6936738,7.92107603 11.9797555,8.20715778 L14.7424053,10.9698075 C15.028487,11.2558893 15.0269979,11.7212086 14.7390792,12.0091273 L11.9586903,14.7895161 C11.6707716,15.0774348 11.2054523,15.078924 10.9193706,14.7928422 C10.6332888,14.5067605 10.634778,14.0414412 10.9226967,13.7535225 L12.443661,12.2325581 L1.73726193,12.2325581 C1.33008341,12.2325581 1,11.9045807 1,11.5 C1,11.0954193 1.33008341,10.7674419 1.73726193,10.7674419 L12.454748,10.7674419 Z M3.99910216,18.1182106 C3.74041334,17.8057737 3.78561109,17.3441228 4.10005415,17.0870844 C4.41449722,16.830046 4.87911242,16.8749554 5.13780124,17.1873923 C6.878743,19.2900516 9.48589401,20.5348837 12.3036307,20.5348837 C17.3988506,20.5348837 21.5254761,16.4876761 21.5254761,11.5 C21.5254761,6.51232393 17.3988506,2.46511628 12.3036307,2.46511628 C9.52114361,2.46511628 6.94326665,3.67876364 5.20140636,5.73663088 C4.93932254,6.04626175 4.47424448,6.08616176 4.16262546,5.82575005 C3.85100643,5.56533835 3.81085022,5.10322753 4.07293404,4.79359666 C6.09266167,2.40745162 9.08219322,1 12.3036307,1 C18.2089371,1 23,5.6988577 23,11.5 C23,17.3011423 18.2089371,22 12.3036307,22 C9.04131315,22 6.01784448,20.5563893 3.99910216,18.1182106 Z" transform="translate(216 360)"/>
  </g>
</svg>
