<svg xmlns="http://www.w3.org/2000/svg" width="24" height="24" viewBox="0 0 24 24">
  <g fill="none" fill-rule="evenodd" transform="translate(-288 -288)">
    <path fill="#555" fill-rule="nonzero" d="M10.2053571,15.1292699 L10.2053571,15.1292699 L11.8928571,12.9725385 L0.964285714,12.9725385 C0.43125,12.9725385 0,12.5411922 0,12.0080375 L0,11.9973208 C0,11.4641661 0.43125,11.0328198 0.964285714,11.0328198 L11.8928571,11.0328198 L10.2080357,8.87340924 C9.87857143,8.45545881 9.95357143,7.84996651 10.3714286,7.52042867 C10.7892857,7.19089082 11.3946429,7.26590757 11.7241071,7.683858 L14.6357143,11.4025452 C14.7642857,11.5686537 14.8339286,11.7695914 14.8392857,11.9732083 L14.8392857,12 L14.8392857,12.0294709 C14.8339286,12.2330877 14.7669643,12.4340255 14.6357143,12.600134 L11.7241071,16.3188212 C11.5339286,16.5626256 11.25,16.6885466 10.9633929,16.6885466 C10.7544643,16.6885466 10.5455357,16.6215673 10.36875,16.4822505 C9.95089286,16.1553918 9.87589286,15.5472204 10.2053571,15.1292699 Z M23.0517857,7.33020764 C23.6839286,8.81178835 24,10.3817816 24,12.0026792 C24,13.6235767 23.68125,15.19357 23.0491071,16.6697924 C22.44375,18.0977897 21.5758929,19.383791 20.4696429,20.4849297 C19.3633929,21.5887475 18.075,22.4514401 16.6419643,23.0569324 C15.1580357,23.6811788 13.5776786,24 11.9517857,24 C10.2857143,24 8.67053571,23.6704622 7.15446429,23.0113865 C5.68928571,22.3791025 4.38214286,21.4735432 3.27053571,20.3241795 C2.90089286,19.9410583 2.91160714,19.3328868 3.29732143,18.9631614 C3.68303571,18.593436 4.29642857,18.6041527 4.66607143,18.9872739 C5.60089286,19.9544541 6.69642857,20.7126591 7.92589286,21.2458138 C9.19821429,21.7977227 10.5535714,22.0763563 11.9544643,22.0763563 C14.6544643,22.0763563 17.1964286,21.0288011 19.1035714,19.1265908 C21.0160714,17.2243804 22.0660714,14.6925653 22.0660714,12.0026792 C22.0660714,9.31279303 21.01875,6.77829873 19.1089286,4.87608841 C17.1991071,2.9738781 14.6598214,1.92632284 11.9571429,1.92632284 C9.25446429,1.92632284 6.71517857,2.9738781 4.80535714,4.87608841 C4.42767857,5.25385131 3.81428571,5.25385131 3.43928571,4.87608841 C3.06160714,4.49832552 3.06160714,3.89015405 3.43928571,3.51507033 C4.54285714,2.41125251 5.83125,1.54855995 7.26428571,0.943067649 C8.74821429,0.318821165 10.3285714,0 11.9544643,0 C13.5803571,0 15.1580357,0.318821165 16.6446429,0.943067649 C18.0776786,1.54855995 19.3660714,2.41393168 20.4723214,3.51507033 C21.5785714,4.61888814 22.44375,5.90221031 23.0517857,7.33020764 Z" transform="translate(288 290)"/>
  </g>
</svg>
