<svg xmlns="http://www.w3.org/2000/svg" width="24" height="24" viewBox="0 0 24 24">
  <path fill="#555" d="M3.68988581,18.1544725 C3.46202241,17.8698333 3.51356853,17.4586837 3.80501731,17.2361442 C4.09646608,17.0136047 4.51745178,17.0639465 4.74531518,17.3485857 C6.4225344,19.443711 8.98554674,20.6915888 11.7607656,20.6915888 C16.6758356,20.6915888 20.6602871,16.8002319 20.6602871,12 C20.6602871,7.19976806 16.6758356,3.30841121 11.7607656,3.30841121 C9.02601512,3.30841121 6.49642844,4.51988396 4.81675903,6.5633425 C4.58516542,6.84509553 4.16355149,6.89014431 3.87505796,6.66396176 C3.58656443,6.43777922 3.54043793,6.02601608 3.77203154,5.74426305 C5.70333647,3.39466883 8.61544133,2 11.7607656,2 C17.4157386,2 22,6.4771525 22,12 C22,17.5228475 17.4157386,22 11.7607656,22 C8.56885647,22 5.61836948,20.5634688 3.68988581,18.1544725 Z M12.9383521,11.3457944 L11.3801416,9.78758389 C11.1185464,9.52598867 11.1135916,9.1068138 11.3690748,8.85133062 C11.624558,8.59584744 12.0437328,8.60080223 12.3053281,8.86239745 L15.0119569,11.5690263 C15.2735521,11.8306215 15.2785069,12.2497964 15.0230237,12.5052795 L12.3796339,15.1486694 C12.1241507,15.4041526 11.7049758,15.3991978 11.4433806,15.1376026 C11.1817854,14.8760073 11.1768306,14.4568325 11.4323138,14.2013493 L12.9794575,12.6542056 L2.66985646,12.6542056 C2.29990495,12.6542056 2,12.3613078 2,12 C2,11.6386922 2.29990495,11.3457944 2.66985646,11.3457944 L12.9383521,11.3457944 Z"/>
</svg>
