<svg xmlns="http://www.w3.org/2000/svg" width="24" height="24" viewBox="0 0 24 24">
  <g fill="none" fill-rule="evenodd" transform="translate(-264 -360)">
    <g fill="#555" fill-rule="nonzero" transform="translate(120 312)">
      <path d="M20.4619153,11.2325581 L18.8906654,9.66130821 C18.5909607,9.36160352 18.587509,8.87913793 18.8829557,8.58369115 C19.1784025,8.28824436 19.6608681,8.29169608 19.9605728,8.59140077 L22.8547773,11.4856053 C23.154482,11.78531 23.1579337,12.2677756 22.8624869,12.5632223 L20.0094004,15.4163089 C19.7139536,15.7117556 19.231488,15.7083039 18.9317833,15.4085992 C18.6320787,15.1088945 18.6286269,14.6264289 18.9240737,14.3309822 L20.487614,12.7674419 L8.66501318,12.7674419 C8.24718833,12.7674419 7.90847437,12.4238464 7.90847437,12 C7.90847437,11.5761536 8.24718833,11.2325581 8.66501318,11.2325581 L20.4619153,11.2325581 Z M20.4977063,18.9333635 C18.4261808,21.4876459 15.3236588,23 11.9760427,23 C5.9163328,23 1,18.0773872 1,12 C1,5.92261283 5.9163328,1 11.9760427,1 C15.2817098,1 18.3494074,2.47447312 20.421944,4.97424412 C20.6908804,5.29861932 20.6496742,5.78273541 20.3299074,6.05554768 C20.0101406,6.32835994 19.5329024,6.28655993 19.263966,5.96218473 C17.476562,3.80632382 14.8312824,2.53488372 11.9760427,2.53488372 C6.74760034,2.53488372 2.51307762,6.77481554 2.51307762,12 C2.51307762,17.2251845 6.74760034,21.4651163 11.9760427,21.4651163 C14.8674536,21.4651163 17.5427727,20.1610064 19.3292342,17.9582205 C19.5946868,17.6309057 20.0714501,17.5838577 20.3941148,17.853136 C20.7167795,18.1224143 20.763159,18.6060486 20.4977063,18.9333635 Z" transform="translate(144 48)"/>
      <path d="M20.4619153,11.2325581 L18.8906654,9.66130821 C18.5909607,9.36160352 18.587509,8.87913793 18.8829557,8.58369115 C19.1784025,8.28824436 19.6608681,8.29169608 19.9605728,8.59140077 L22.8547773,11.4856053 C23.154482,11.78531 23.1579337,12.2677756 22.8624869,12.5632223 L20.0094004,15.4163089 C19.7139536,15.7117556 19.231488,15.7083039 18.9317833,15.4085992 C18.6320787,15.1088945 18.6286269,14.6264289 18.9240737,14.3309822 L20.487614,12.7674419 L8.66501318,12.7674419 C8.24718833,12.7674419 7.90847437,12.4238464 7.90847437,12 C7.90847437,11.5761536 8.24718833,11.2325581 8.66501318,11.2325581 L20.4619153,11.2325581 Z M20.4977063,18.9333635 C18.4261808,21.4876459 15.3236588,23 11.9760427,23 C5.9163328,23 1,18.0773872 1,12 C1,5.92261283 5.9163328,1 11.9760427,1 C15.2817098,1 18.3494074,2.47447312 20.421944,4.97424412 C20.6908804,5.29861932 20.6496742,5.78273541 20.3299074,6.05554768 C20.0101406,6.32835994 19.5329024,6.28655993 19.263966,5.96218473 C17.476562,3.80632382 14.8312824,2.53488372 11.9760427,2.53488372 C6.74760034,2.53488372 2.51307762,6.77481554 2.51307762,12 C2.51307762,17.2251845 6.74760034,21.4651163 11.9760427,21.4651163 C14.8674536,21.4651163 17.5427727,20.1610064 19.3292342,17.9582205 C19.5946868,17.6309057 20.0714501,17.5838577 20.3941148,17.853136 C20.7167795,18.1224143 20.763159,18.6060486 20.4977063,18.9333635 Z" transform="translate(144 48)"/>
    </g>
  </g>
</svg>
