<svg xmlns="http://www.w3.org/2000/svg" width="24" height="24" viewBox="0 0 24 24">
  <g fill="#555" transform="translate(-144 -48)">
    <path d="M20.3101142,18.1544725 C18.3816305,20.5634688 15.4311435,22 12.2392344,22 C6.58426141,22 2,17.5228475 2,12 C2,6.4771525 6.58426141,2 12.2392344,2 C15.3845587,2 18.2966635,3.39466883 20.2279685,5.74426305 C20.4595621,6.02601608 20.4134356,6.43777922 20.124942,6.66396176 C19.8364485,6.89014431 19.4148346,6.84509553 19.183241,6.5633425 C17.5035716,4.51988396 14.9739849,3.30841121 12.2392344,3.30841121 C7.32416443,3.30841121 3.33971292,7.19976806 3.33971292,12 C3.33971292,16.8002319 7.32416443,20.6915888 12.2392344,20.6915888 C15.0144533,20.6915888 17.5774656,19.443711 19.2546848,17.3485857 C19.4825482,17.0639465 19.9035339,17.0136047 20.1949827,17.2361442 C20.4864315,17.4586837 20.5379776,17.8698333 20.3101142,18.1544725 Z M19.7308883,11.6433898 L18.1726778,10.0851793 C17.9110825,9.82358411 17.9061278,9.40440925 18.1616109,9.14892607 C18.4170941,8.89344289 18.836269,8.89839767 19.0978642,9.15999289 L21.804493,11.8666217 C22.0660882,12.1282169 22.071043,12.5473918 21.8155599,12.802875 L19.17217,15.4462648 C18.9166868,15.701748 18.497512,15.6967932 18.2359168,15.435198 C17.9743215,15.1736028 17.9693667,14.7544279 18.2248499,14.4989447 L19.7719936,12.9518011 L9.46239261,12.9518011 C9.0924411,12.9518011 8.79253615,12.6589032 8.79253615,12.2975954 C8.79253615,11.9362877 9.0924411,11.6433898 9.46239261,11.6433898 L19.7308883,11.6433898 Z" transform="translate(144 48)"/>
    <path d="M20.3101142,18.1544725 C18.3816305,20.5634688 15.4311435,22 12.2392344,22 C6.58426141,22 2,17.5228475 2,12 C2,6.4771525 6.58426141,2 12.2392344,2 C15.3845587,2 18.2966635,3.39466883 20.2279685,5.74426305 C20.4595621,6.02601608 20.4134356,6.43777922 20.124942,6.66396176 C19.8364485,6.89014431 19.4148346,6.84509553 19.183241,6.5633425 C17.5035716,4.51988396 14.9739849,3.30841121 12.2392344,3.30841121 C7.32416443,3.30841121 3.33971292,7.19976806 3.33971292,12 C3.33971292,16.8002319 7.32416443,20.6915888 12.2392344,20.6915888 C15.0144533,20.6915888 17.5774656,19.443711 19.2546848,17.3485857 C19.4825482,17.0639465 19.9035339,17.0136047 20.1949827,17.2361442 C20.4864315,17.4586837 20.5379776,17.8698333 20.3101142,18.1544725 Z M19.7308883,11.6433898 L18.1726778,10.0851793 C17.9110825,9.82358411 17.9061278,9.40440925 18.1616109,9.14892607 C18.4170941,8.89344289 18.836269,8.89839767 19.0978642,9.15999289 L21.804493,11.8666217 C22.0660882,12.1282169 22.071043,12.5473918 21.8155599,12.802875 L19.17217,15.4462648 C18.9166868,15.701748 18.497512,15.6967932 18.2359168,15.435198 C17.9743215,15.1736028 17.9693667,14.7544279 18.2248499,14.4989447 L19.7719936,12.9518011 L9.46239261,12.9518011 C9.0924411,12.9518011 8.79253615,12.6589032 8.79253615,12.2975954 C8.79253615,11.9362877 9.0924411,11.6433898 9.46239261,11.6433898 L19.7308883,11.6433898 Z" transform="translate(144 48)"/>
  </g>
</svg>
