<svg xmlns="http://www.w3.org/2000/svg" width="24" height="24" viewBox="0 0 24 24">
  <g fill="none" fill-rule="evenodd" transform="translate(-260 -356)">
    <path fill="#555" fill-rule="nonzero" d="M19.2053571,15.1292699 L19.2053571,15.1292699 L20.8928571,12.9725385 L9.96428571,12.9725385 C9.43125,12.9725385 9,12.5411922 9,12.0080375 L9,11.9973208 C9,11.4641661 9.43125,11.0328198 9.96428571,11.0328198 L20.8928571,11.0328198 L19.2080357,8.87340924 C18.8785714,8.45545881 18.9535714,7.84996651 19.3714286,7.52042867 C19.7892857,7.19089082 20.3946429,7.26590757 20.7241071,7.683858 L23.6357143,11.4025452 C23.7642857,11.5686537 23.8339286,11.7695914 23.8392857,11.9732083 L23.8392857,12 L23.8392857,12.0294709 C23.8339286,12.2330877 23.7669643,12.4340255 23.6357143,12.600134 L20.7241071,16.3188212 C20.5339286,16.5626256 20.25,16.6885466 19.9633929,16.6885466 C19.7544643,16.6885466 19.5455357,16.6215673 19.36875,16.4822505 C18.9508929,16.1553918 18.8758929,15.5472204 19.2053571,15.1292699 Z M0.948214286,7.33020764 C1.55625,5.90221031 2.42142857,4.61888814 3.52767857,3.51507033 C4.63392857,2.41393168 5.92232143,1.54855995 7.35535714,0.943067649 C8.84196429,0.318821165 10.4196429,0 12.0455357,0 C13.6714286,0 15.2517857,0.318821165 16.7357143,0.943067649 C18.16875,1.54855995 19.4571429,2.41125251 20.5607143,3.51507033 C20.9383929,3.89015405 20.9383929,4.49832552 20.5607143,4.87608841 C20.1857143,5.25385131 19.5723214,5.25385131 19.1946429,4.87608841 C17.2848214,2.9738781 14.7455357,1.92632284 12.0428571,1.92632284 C9.34017857,1.92632284 6.80089286,2.9738781 4.89107143,4.87608841 C2.98125,6.77829873 1.93392857,9.31279303 1.93392857,12.0026792 C1.93392857,14.6925653 2.98392857,17.2243804 4.89642857,19.1265908 C6.80357143,21.0288011 9.34553571,22.0763563 12.0455357,22.0763563 C13.4464286,22.0763563 14.8017857,21.7977227 16.0741071,21.2458138 C17.3035714,20.7126591 18.3991071,19.9544541 19.3339286,18.9872739 C19.7035714,18.6041527 20.3169643,18.593436 20.7026786,18.9631614 C21.0883929,19.3328868 21.0991071,19.9410583 20.7294643,20.3241795 C19.6178571,21.4735432 18.3107143,22.3791025 16.8455357,23.0113865 C15.3294643,23.6704622 13.7142857,24 12.0482143,24 C10.4223214,24 8.84196429,23.6811788 7.35803571,23.0569324 C5.925,22.4514401 4.63660714,21.5887475 3.53035714,20.4849297 C2.42410714,19.383791 1.55625,18.0977897 0.950892857,16.6697924 C0.31875,15.19357 0,13.6235767 0,12.0026792 C0,10.3817816 0.316071429,8.81178835 0.948214286,7.33020764 Z" transform="translate(260 356)"/>
  </g>
</svg>
