<svg xmlns="http://www.w3.org/2000/svg" width="20" height="20" viewBox="0 0 20 20">
  <path fill="#555" fill-rule="evenodd" d="M7.172,11.334 L10.0016129,13.2687863 L12.73,11.387 L18.844647,17.4201015 C18.6835279,17.47198 18.5117028,17.5 18.3333333,17.5 L1.66666667,17.5 C1.44656147,17.5 1.23642159,17.4573334 1.04406658,17.3798199 L7.172,11.334 Z M20,6.376 L20,15.8333333 C20,16.0799316 19.9464441,16.3140212 19.8503291,16.5246054 L13.856,10.611 L20,6.376 Z M0,6.429 L6.042,10.561 L0.105700422,16.4187119 C0.0373700357,16.2365871 1.90096522e-15,16.0393243 1.77635684e-15,15.8333333 L0,6.429 Z M18.3333333,2.5 C19.2538079,2.5 20,3.24619208 20,4.16666667 L20,4.753 L9.99838709,11.6476481 L0,4.81 L1.77635684e-15,4.16666667 C1.66363121e-15,3.24619208 0.746192084,2.5 1.66666667,2.5 L18.3333333,2.5 Z"/>
</svg>
