<svg xmlns="http://www.w3.org/2000/svg" width="20" height="20" viewBox="0 0 20 20">
  <path fill="#555" fill-rule="evenodd" d="M18.8452134,17.419919 C18.6839306,17.4719143 18.5119119,17.5 18.3333333,17.5 L1.66666667,17.5 C1.44652335,17.5 1.2363488,17.4573187 1.04396664,17.3797796 L7.17227657,11.3343737 L10.0016129,13.2687863 L12.7303663,11.3877937 L18.8452134,17.419919 Z M19.8504232,16.5243992 L13.8564773,10.6115395 L20,6.37666789 L20,15.8333333 C20,16.0798511 19.9464791,16.3138683 19.8504232,16.5243992 Z M0.105566261,16.4183542 C0.037321122,16.2363288 1.80156695e-15,16.0391895 1.77635684e-15,15.8333333 L1.77635684e-15,6.43069991 L6.04237321,10.5618606 L0.105566261,16.4183542 Z M20,4.75330605 L9.99838709,11.6476481 L1.88737914e-15,4.8117672 L1.77635684e-15,4.16666667 C1.66363121e-15,3.24619208 0.746192084,2.5 1.66666667,2.5 L18.3333333,2.5 C19.2538079,2.5 20,3.24619208 20,4.16666667 L20,4.75330605 Z"/>
</svg>
