<svg xmlns="http://www.w3.org/2000/svg" width="24" height="24" viewBox="0 0 24 24">
  <g fill="none" fill-rule="evenodd" transform="translate(-504 -984)">
    <path fill="#555" fill-rule="nonzero" d="M20.9,0 L15.4,0 C14.96,0 14.52,0.33 14.52,0.88 C14.52,1.43 14.85,1.76 15.4,1.76 L19.25,1.76 L14.08,7.04 C12.54,5.83 10.67,5.06 8.58,5.06 C3.85,4.95 0,8.8 0,13.42 C0,18.04 3.85,22 8.58,22 C13.31,22 17.16,18.15 17.16,13.42 C17.16,11.44 16.5,9.57 15.29,8.03 L20.46,2.75 L20.46,6.38 C20.46,6.82 20.68,7.26 21.23,7.26 C21.78,7.26 22,6.93 22,6.38 L22,0.99 C22,0.44 21.45,0 20.9,0 Z M15.4,13.42 C15.4,17.27 12.32,20.35 8.58,20.35 C4.73,20.35 1.65,17.27 1.65,13.42 C1.65,9.57 4.73,6.6 8.58,6.6 C10.45,6.6 12.21,7.37 13.42,8.58 C13.42,8.58 15.4,10.45 15.4,13.42 Z" transform="translate(505 985)"/>
  </g>
</svg>
