<svg xmlns="http://www.w3.org/2000/svg" width="24" height="24" viewBox="0 0 24 24">
  <path fill="#555" d="M19.6396202,3.38904994 L15.8926043,3.38904994 C15.5107244,3.38904994 15.2011495,3.07810052 15.2011495,2.69452497 C15.2011495,2.31094942 15.5107244,2 15.8926043,2 L21.3085452,2 C21.6904251,2 22,2.31094942 22,2.69452497 L22,7.85751807 C22,8.24109362 21.6904251,8.55204304 21.3085452,8.55204304 C20.9266653,8.55204304 20.6170904,8.24109362 20.6170904,7.85751807 L20.6170904,4.37195464 L15.5692265,9.6174113 C16.597765,10.9203619 17.2120055,12.5682433 17.2120055,14.3602253 C17.2120055,18.5795564 13.8066821,22 9.60600274,22 C5.40532342,22 2,18.5795564 2,14.3602253 C2,10.1408943 5.40532342,6.72045062 9.60600274,6.72045062 C11.5242784,6.72045062 13.276693,7.43373945 14.6146989,8.6106659 L19.6396202,3.38904994 Z M9.60600274,20.6109501 C13.0429222,20.6109501 15.8290959,17.8124053 15.8290959,14.3602253 C15.8290959,10.9080454 13.0429222,8.10950057 9.60600274,8.10950057 C6.1690833,8.10950057 3.38290959,10.9080454 3.38290959,14.3602253 C3.38290959,17.8124053 6.1690833,20.6109501 9.60600274,20.6109501 Z"/>
</svg>
