<svg xmlns="http://www.w3.org/2000/svg" width="24" height="24" viewBox="0 0 24 24">
  <path fill="#555" d="M18.7032837,2.31729203 L14.9250427,2.31729203 C14.5399804,2.31729203 14.2278258,2.00375136 14.2278258,1.61697935 C14.2278258,1.23020733 14.5399804,0.916666667 14.9250427,0.916666667 L20.3861164,0.916666667 C20.7711787,0.916666667 21.0833333,1.23020733 21.0833333,1.61697935 L21.0833333,6.82299738 C21.0833333,7.2097694 20.7711787,7.52331006 20.3861164,7.52331006 C20.0010541,7.52331006 19.6888995,7.2097694 19.6888995,6.82299738 L19.6888995,3.30838759 L14.5989701,8.5975564 C15.6360797,9.91136488 16.2554389,11.5729787 16.2554389,13.3798939 C16.2554389,17.634386 12.8217377,21.0833333 8.58605277,21.0833333 C4.35036778,21.0833333 0.916666667,17.634386 0.916666667,13.3798939 C0.916666667,9.12540171 4.35036778,5.67645438 8.58605277,5.67645438 C10.5203141,5.67645438 12.2873321,6.39568727 13.6364881,7.58242145 L18.7032837,2.31729203 Z M8.58605277,19.682708 C12.0516132,19.682708 14.861005,16.860842 14.861005,13.3798939 C14.861005,9.89894574 12.0516132,7.07707974 8.58605277,7.07707974 C5.12049233,7.07707974 2.3111005,9.89894574 2.3111005,13.3798939 C2.3111005,16.860842 5.12049233,19.682708 8.58605277,19.682708 Z" transform="translate(1 1)"/>
</svg>
