<svg xmlns="http://www.w3.org/2000/svg" width="24" height="24" viewBox="0 0 24 24">
  <g fill="none" fill-rule="evenodd" transform="translate(-264 -1032)">
    <path fill="#555" fill-rule="nonzero" d="M20.3017907,7.13080382 C20.2809598,7.2523779 20.2541979,7.37161776 20.2213373,7.48779709 C19.9786252,8.34591075 19.5859845,9.12695333 19.0399034,9.83330712 L16.3149996,13.2704385 C16.0081333,13.6575126 15.4135543,13.636504 15.1348348,13.2287389 L12.5884787,9.50324059 C12.168077,8.91044045 11.8738337,8.38204868 11.7072421,7.90789829 C11.6011537,7.60595077 11.5323631,7.30732875 11.4956108,6.9937589 L9.28985116,7.67575517 L9.28985116,20.2091654 L14.8614505,18.6586268 L14.8614505,14.998035 C14.8614505,14.593599 15.1896735,14.2657388 15.5945571,14.2657388 C15.9994406,14.2657388 16.3276636,14.593599 16.3276636,14.998035 L16.3276636,18.5285732 L21.5337869,20.0116828 L21.5337869,7.70653622 L20.3017907,7.13080382 Z M20.2561593,5.49700437 C20.2803772,5.50536705 20.3043942,5.51507565 20.3281197,5.52616296 L22.5775498,6.57735926 C22.8353124,6.697816 23,6.95639535 23,7.24065675 L23,20.9820235 C23,21.4683988 22.5340767,21.8196329 22.0658333,21.6862407 L15.8294081,19.9096208 L8.41451995,21.9731343 C8.28085201,22.0103332 8.13936001,22.008875 8.00648885,21.9689293 L1.52182674,20.0194124 C1.21204759,19.9262819 1,19.6413345 1,19.3181869 L1,5.33277162 C1,4.84376636 1.47063816,4.49214899 1.94023828,4.6303124 L8.21250871,6.4757087 L11.4008484,5.48990964 C11.4445,5.47641306 11.4884549,5.46719418 11.5322609,5.46201473 C11.6575783,4.73281204 12.0025755,4.03261228 12.5799192,3.35033219 C13.2650819,2.54063618 14.466844,2.06490608 15.6389757,2.00795766 C16.8545861,1.94889682 17.7822806,2.21103671 18.8407483,3.04817932 C19.5588393,3.61611774 20.054257,4.5346836 20.2561593,5.49700437 Z M7.82363805,7.88809808 L2.4662131,6.31186309 L2.4662131,18.7738408 L7.82363805,20.3844707 L7.82363805,7.88809808 Z M17.8849223,8.93113407 C18.3106377,8.3804025 18.6184409,7.76811913 18.810358,7.08959218 C19.074115,6.1570739 18.6756664,4.78570833 17.9305885,4.19642597 C17.1658173,3.59156808 16.5876357,3.4281905 15.7102068,3.47082068 C14.9110313,3.50964889 14.089858,3.83471892 13.6996984,4.29579287 C13.2295774,4.85136181 12.998594,5.37116924 12.9531342,5.89778137 C12.8983488,6.53242286 12.9349868,6.97962816 13.0907254,7.422889 C13.2062001,7.75155149 13.437097,8.16618789 13.7921372,8.66701196 L15.7840091,11.5811094 L17.8849223,8.93113407 Z M15.8608129,8.63898592 C14.6461622,8.63898592 13.6614933,7.6554054 13.6614933,6.44209735 C13.6614933,5.22878929 14.6461622,4.24520877 15.8608129,4.24520877 C17.0754636,4.24520877 18.0601326,5.22878929 18.0601326,6.44209735 C18.0601326,7.6554054 17.0754636,8.63898592 15.8608129,8.63898592 Z M15.8608129,7.17439354 C16.2656965,7.17439354 16.5939195,6.84653336 16.5939195,6.44209735 C16.5939195,6.03766133 16.2656965,5.70980115 15.8608129,5.70980115 C15.4559294,5.70980115 15.1277064,6.03766133 15.1277064,6.44209735 C15.1277064,6.84653336 15.4559294,7.17439354 15.8608129,7.17439354 Z" transform="translate(264 1032)"/>
  </g>
</svg>
