<svg xmlns="http://www.w3.org/2000/svg" width="20" height="20" viewBox="0 0 20 20">
  <path fill="#555" d="M17.5470825,5.61772344 C17.5281453,5.72714011 17.5038163,5.83445598 17.473943,5.93901738 C17.2532957,6.71131967 16.8963495,7.414258 16.3999122,8.04997641 L13.9227269,11.1433946 C13.6437575,11.4917614 13.1032312,11.4728536 12.8498498,11.105865 L10.5349807,7.75291653 C10.1527973,7.21939641 9.88530334,6.74384381 9.73385649,6.31710846 C9.63741241,6.0453557 9.57487556,5.77659588 9.54146436,5.49438301 L7.53622832,6.10817965 L7.53622832,17.3882489 L12.6013187,15.9927641 L12.6013187,12.6982315 C12.6013187,12.3342391 12.8997032,12.0391649 13.2677792,12.0391649 C13.6358551,12.0391649 13.9342397,12.3342391 13.9342397,12.6982315 L13.9342397,15.8757159 L18.667079,17.2105145 L18.667079,6.13588259 L17.5470825,5.61772344 Z M17.5055994,4.14730393 C17.5276157,4.15483035 17.5494493,4.16356809 17.5710179,4.17354667 L19.6159544,5.11962334 C19.850284,5.2280344 20,5.46075582 20,5.71659107 L20,18.0838211 C20,18.5215589 19.5764334,18.8376696 19.1507575,18.7176166 L13.4812801,17.1186587 L6.74047268,18.9758209 C6.61895637,19.0092999 6.49032728,19.0079875 6.36953532,18.9720364 L0.474387945,17.2174711 C0.192770539,17.1336537 0,16.877201 0,16.5863682 L0,3.99949446 C0,3.55938972 0.427852876,3.24293409 0.854762077,3.36728116 L6.5568261,5.02813783 L9.45531671,4.14091868 C9.49499996,4.12877175 9.53495904,4.12047476 9.57478267,4.11581325 C9.68870751,3.45953084 10.0023414,2.82935105 10.5271993,2.21529897 C11.1500745,1.48657256 12.2425855,1.05841547 13.3081598,1.0071619 C14.4132601,0.95400714 15.2566187,1.18993304 16.2188621,1.94336139 C16.8716721,2.45450597 17.3220518,3.28121524 17.5055994,4.14730393 Z M6.20330732,6.29928828 L1.332921,4.88067678 L1.332921,16.0964567 L6.20330732,17.5460236 L6.20330732,6.29928828 Z M15.3499293,7.23802066 C15.7369434,6.74236225 16.0167645,6.19130722 16.1912346,5.58063296 C16.4310136,4.74136651 16.0687876,3.5071375 15.3914441,2.97678337 C14.6961976,2.43241127 14.1705779,2.28537145 13.3729153,2.32373861 C12.6463921,2.358684 11.8998709,2.65124703 11.5451804,3.06621358 C11.1177976,3.56622563 10.9078128,4.03405231 10.8664857,4.50800323 C10.8166808,5.07918058 10.849988,5.48166535 10.9915686,5.8806001 C11.0965456,6.17639634 11.3064518,6.5495691 11.6292157,7.00031076 L13.4400083,9.62299842 L15.3499293,7.23802066 Z M13.5098299,6.97508733 C12.405602,6.97508733 11.5104484,6.08986486 11.5104484,4.99788761 C11.5104484,3.90591036 12.405602,3.02068789 13.5098299,3.02068789 C14.6140579,3.02068789 15.5092114,3.90591036 15.5092114,4.99788761 C15.5092114,6.08986486 14.6140579,6.97508733 13.5098299,6.97508733 Z M13.5098299,5.65695418 C13.8779059,5.65695418 14.1762904,5.36188003 14.1762904,4.99788761 C14.1762904,4.63389519 13.8779059,4.33882104 13.5098299,4.33882104 C13.141754,4.33882104 12.8433694,4.63389519 12.8433694,4.99788761 C12.8433694,5.36188003 13.141754,5.65695418 13.5098299,5.65695418 Z"/>
</svg>
