<svg xmlns="http://www.w3.org/2000/svg" width="24" height="24" viewBox="0 0 24 24">
  <path fill="#555" d="M19.5470825,7.61772344 C19.5281453,7.72714011 19.5038163,7.83445598 19.473943,7.93901738 C19.2532957,8.71131967 18.8963495,9.414258 18.3999122,10.0499764 L15.9227269,13.1433946 C15.6437575,13.4917614 15.1032312,13.4728536 14.8498498,13.105865 L12.5349807,9.75291653 C12.1527973,9.21939641 11.8853033,8.74384381 11.7338565,8.31710846 C11.6374124,8.0453557 11.5748756,7.77659588 11.5414644,7.49438301 L9.53622832,8.10817965 L9.53622832,19.3882489 L14.6013187,17.9927641 L14.6013187,14.6982315 C14.6013187,14.3342391 14.8997032,14.0391649 15.2677792,14.0391649 C15.6358551,14.0391649 15.9342397,14.3342391 15.9342397,14.6982315 L15.9342397,17.8757159 L20.667079,19.2105145 L20.667079,8.13588259 L19.5470825,7.61772344 Z M19.5055994,6.14730393 C19.5276157,6.15483035 19.5494493,6.16356809 19.5710179,6.17354667 L21.6159544,7.11962334 C21.850284,7.2280344 22,7.46075582 22,7.71659107 L22,20.0838211 C22,20.5215589 21.5764334,20.8376696 21.1507575,20.7176166 L15.4812801,19.1186587 L8.74047268,20.9758209 C8.61895637,21.0092999 8.49032728,21.0079875 8.36953532,20.9720364 L2.47438795,19.2174711 C2.19277054,19.1336537 2,18.877201 2,18.5863682 L2,5.99949446 C2,5.55938972 2.42785288,5.24293409 2.85476208,5.36728116 L8.5568261,7.02813783 L11.4553167,6.14091868 C11.495,6.12877175 11.534959,6.12047476 11.5747827,6.11581325 C11.6887075,5.45953084 12.0023414,4.82935105 12.5271993,4.21529897 C13.1500745,3.48657256 14.2425855,3.05841547 15.3081598,3.0071619 C16.4132601,2.95400714 17.2566187,3.18993304 18.2188621,3.94336139 C18.8716721,4.45450597 19.3220518,5.28121524 19.5055994,6.14730393 Z M8.20330732,8.29928828 L3.332921,6.88067678 L3.332921,18.0964567 L8.20330732,19.5460236 L8.20330732,8.29928828 Z M17.3499293,9.23802066 C17.7369434,8.74236225 18.0167645,8.19130722 18.1912346,7.58063296 C18.4310136,6.74136651 18.0687876,5.5071375 17.3914441,4.97678337 C16.6961976,4.43241127 16.1705779,4.28537145 15.3729153,4.32373861 C14.6463921,4.358684 13.8998709,4.65124703 13.5451804,5.06621358 C13.1177976,5.56622563 12.9078128,6.03405231 12.8664857,6.50800323 C12.8166808,7.07918058 12.849988,7.48166535 12.9915686,7.8806001 C13.0965456,8.17639634 13.3064518,8.5495691 13.6292157,9.00031076 L15.4400083,11.6229984 L17.3499293,9.23802066 Z M15.5098299,8.97508733 C14.405602,8.97508733 13.5104484,8.08986486 13.5104484,6.99788761 C13.5104484,5.90591036 14.405602,5.02068789 15.5098299,5.02068789 C16.6140579,5.02068789 17.5092114,5.90591036 17.5092114,6.99788761 C17.5092114,8.08986486 16.6140579,8.97508733 15.5098299,8.97508733 Z M15.5098299,7.65695418 C15.8779059,7.65695418 16.1762904,7.36188003 16.1762904,6.99788761 C16.1762904,6.63389519 15.8779059,6.33882104 15.5098299,6.33882104 C15.141754,6.33882104 14.8433694,6.63389519 14.8433694,6.99788761 C14.8433694,7.36188003 15.141754,7.65695418 15.5098299,7.65695418 Z"/>
</svg>
