<svg xmlns="http://www.w3.org/2000/svg" width="24" height="24" viewBox="0 0 24 24">
  <g fill="none" fill-rule="evenodd" transform="translate(-168 -1032)">
    <path fill="#555" fill-rule="nonzero" d="M14.8681319,3.90444444 C15.1978022,3.90444444 15.4197802,4.12666667 15.4197802,4.46222222 C15.4197802,4.79555556 15.2,5.02 14.8681319,5.02 C14.5384615,5.02 14.3164835,4.79777778 14.3164835,4.46222222 C14.3164835,4.12666667 14.5384615,3.90444444 14.8681319,3.90444444 L14.8681319,3.90444444 Z M14.8681319,6.12888889 C15.8043956,6.12888889 16.5208791,5.40444444 16.5208791,4.45777778 C16.5208791,3.51111111 15.8043956,2.78666667 14.8681319,2.78666667 C13.9318681,2.78666667 13.2153846,3.51111111 13.2153846,4.45777778 C13.2153846,5.40444444 13.9318681,6.12888889 14.8681319,6.12888889 Z M20.9252747,18.5488889 L15.5296703,16.8777778 L15.4197802,16.8777778 L15.4197802,13.4266667 C15.4197802,13.0933333 15.2,12.8688889 14.8681319,12.8688889 C14.5384615,12.8688889 14.3164835,13.0911111 14.3164835,13.4266667 L14.3164835,16.88 L14.2065934,16.88 L8.25934066,18.5511111 L8.25934066,5.57555556 C8.25934066,5.46444444 8.2043956,5.40888889 8.2043956,5.29777778 L10.5186813,4.62888889 C10.5736264,5.63111111 11.0153846,6.46666667 11.5098901,7.24666667 C12.1714286,8.19333333 13.2175824,9.75333333 13.989011,10.8644444 C14.2087912,11.1977778 14.5406593,11.3666667 14.9252747,11.3666667 C15.3098901,11.3666667 15.6417582,11.2 15.8615385,10.8644444 C16.578022,9.75111111 17.6241758,8.19111111 18.3406593,7.24666667 C18.8373626,6.52222222 19.2769231,5.68666667 19.3318681,4.74 L20.9846154,5.24222222 L20.9846154,18.5533333 L20.9296703,18.5533333 L20.9296703,18.5488889 L20.9252747,18.5488889 Z M14.8681319,1.11777778 C16.7406593,1.11777778 18.1736264,2.51111111 18.1736264,4.34888889 C18.1736264,5.07333333 17.8989011,5.85333333 17.3472527,6.63333333 C16.6307692,7.63555556 15.6395604,9.14 14.8681319,10.3066667 C14.0967033,9.19333333 13.1054945,7.63333333 12.389011,6.63333333 C11.8373626,5.85333333 11.5626374,5.07333333 11.5626374,4.34888889 C11.5626374,2.51111111 12.9956044,1.11777778 14.8681319,1.11777778 Z M7.15824176,5.57555556 L7.15824176,18.8866667 L1.1010989,16.9933333 L1.1010989,3.84888889 L6.55604396,5.46444444 C6.77142857,5.52 6.93626374,5.52 7.15824176,5.57555556 C7.15824176,5.52 7.15824176,5.52 7.15824176,5.57555556 C7.15824176,5.52 7.15824176,5.57555556 7.15824176,5.57555556 Z M21.2571429,4.23777778 L19.2197802,3.62444444 C18.8351648,1.45111111 17.0703297,0.00666666667 14.8703297,0.00666666667 C12.7208791,0.00666666667 10.9582418,1.4 10.5208791,3.46 L7.43296703,4.35111111 C7.32307692,4.40666667 7.21318681,4.40666667 7.15824176,4.40666667 C7.04835165,4.40666667 6.93846154,4.40666667 6.82857143,4.35111111 L1.43076923,2.78888889 C1.32087912,2.73333333 1.21098901,2.73333333 1.1010989,2.73333333 C0.494505495,2.73333333 0,3.23555556 0,3.84666667 L0,16.9911111 C0,17.4933333 0.32967033,17.9377778 0.771428571,18.0488889 L6.82857143,19.9422222 C6.93846154,19.9977778 7.04835165,19.9977778 7.15824176,19.9977778 C7.26813187,19.9977778 7.37802198,19.9977778 7.43296703,19.9422222 L14.5384615,17.8822222 C14.6483516,17.8266667 14.7582418,17.8266667 14.8131868,17.8266667 C14.9230769,17.8266667 15.032967,17.8266667 15.1428571,17.8822222 L20.5428571,19.5533333 C20.6527473,19.6088889 20.7626374,19.6088889 20.8725275,19.6088889 C21.4791209,19.6088889 21.9736264,19.1066667 21.9736264,18.4955556 L21.9736264,5.29555556 C22.0285714,4.79555556 21.6967033,4.34888889 21.2571429,4.23777778 Z" transform="translate(169 1034)"/>
  </g>
</svg>
