<svg xmlns="http://www.w3.org/2000/svg" width="24" height="24" viewBox="0 0 24 24">
  <g fill="none" fill-rule="evenodd" transform="translate(-500 -692)">
    <path fill="#555" fill-rule="nonzero" d="M12,22.5 C17.7989899,22.5 22.5,17.7989899 22.5,12 C22.5,6.20101013 17.7989899,1.5 12,1.5 C6.20101013,1.5 1.5,6.20101013 1.5,12 C1.5,17.7989899 6.20101013,22.5 12,22.5 Z M12,24 C5.372583,24 0,18.627417 0,12 C0,5.372583 5.372583,0 12,0 C18.627417,0 24,5.372583 24,12 C24,18.627417 18.627417,24 12,24 Z M4.5515625,8.9625 C4.5515625,9.73915043 5.18116207,10.36875 5.9578125,10.36875 C6.73446293,10.36875 7.3640625,9.73915043 7.3640625,8.9625 C7.3640625,8.18584957 6.73446293,7.55625 5.9578125,7.55625 C5.18116207,7.55625 4.5515625,8.18584957 4.5515625,8.9625 Z M16.6289062,8.9625 C16.6289062,9.73915043 17.2585058,10.36875 18.0351562,10.36875 C18.8118067,10.36875 19.4414062,9.73915043 19.4414062,8.9625 C19.4414062,8.18584957 18.8118067,7.55625 18.0351562,7.55625 C17.2585058,7.55625 16.6289062,8.18584957 16.6289062,8.9625 Z M15.065625,16.5421875 L8.878125,16.5421875 C8.41171875,16.5421875 8.034375,16.9195313 8.034375,17.3859375 C8.034375,17.8523438 8.41171875,18.2296875 8.878125,18.2296875 L15.065625,18.2296875 C15.5320312,18.2296875 15.909375,17.8523438 15.909375,17.3859375 C15.909375,16.9195313 15.5320312,16.5421875 15.065625,16.5421875 Z" transform="translate(500 692)"/>
  </g>
</svg>
