<svg xmlns="http://www.w3.org/2000/svg" width="24" height="24" viewBox="0 0 24 24">
  <g fill="none" fill-rule="evenodd" transform="translate(-456 -696)">
    <path fill="#555" fill-rule="nonzero" d="M12,23 C5.92486775,23 1,18.0751322 1,12 C1,5.92486775 5.92486775,1 12,1 C18.0751322,1 23,5.92486775 23,12 C23,18.0751322 18.0751322,23 12,23 Z M7.39534884,10.9767442 C8.24304171,10.9767442 8.93023256,10.2895533 8.93023256,9.44186047 C8.93023256,8.59416759 8.24304171,7.90697674 7.39534884,7.90697674 C6.54765597,7.90697674 5.86046512,8.59416759 5.86046512,9.44186047 C5.86046512,10.2895533 6.54765597,10.9767442 7.39534884,10.9767442 Z M16.6046512,10.9767442 C17.452344,10.9767442 18.1395349,10.2895533 18.1395349,9.44186047 C18.1395349,8.59416759 17.452344,7.90697674 16.6046512,7.90697674 C15.7569583,7.90697674 15.0697674,8.59416759 15.0697674,9.44186047 C15.0697674,10.2895533 15.7569583,10.9767442 16.6046512,10.9767442 Z M8.64194584,17.5766616 L14.7814807,17.5766616 C15.2053272,17.5766616 15.5489226,17.2330662 15.5489226,16.8092197 C15.5489226,16.3853733 15.2053272,16.0417779 14.7814807,16.0417779 L8.64194584,16.0417779 C8.2180994,16.0417779 7.87450398,16.3853733 7.87450398,16.8092197 C7.87450398,17.2330662 8.2180994,17.5766616 8.64194584,17.5766616 Z" transform="translate(456 696)"/>
  </g>
</svg>
