<svg xmlns="http://www.w3.org/2000/svg" width="24" height="24" viewBox="0 0 24 24">
  <path fill="#555" d="M12,22 C6.4771525,22 2,17.5228475 2,12 C2,6.4771525 6.4771525,2 12,2 C17.5228475,2 22,6.4771525 22,12 C22,17.5228475 17.5228475,22 12,22 Z M7.81395349,11.0697674 C8.58458337,11.0697674 9.20930233,10.4450485 9.20930233,9.6744186 C9.20930233,8.90378872 8.58458337,8.27906977 7.81395349,8.27906977 C7.0433236,8.27906977 6.41860465,8.90378872 6.41860465,9.6744186 C6.41860465,10.4450485 7.0433236,11.0697674 7.81395349,11.0697674 Z M16.1860465,11.0697674 C16.9566764,11.0697674 17.5813953,10.4450485 17.5813953,9.6744186 C17.5813953,8.90378872 16.9566764,8.27906977 16.1860465,8.27906977 C15.4154166,8.27906977 14.7906977,8.90378872 14.7906977,9.6744186 C14.7906977,10.4450485 15.4154166,11.0697674 16.1860465,11.0697674 Z M8.94722349,17.0696924 L14.5286188,17.0696924 C14.9139338,17.0696924 15.2262933,16.7573329 15.2262933,16.3720179 C15.2262933,15.986703 14.9139338,15.6743435 14.5286188,15.6743435 L8.94722349,15.6743435 C8.56190855,15.6743435 8.24954907,15.986703 8.24954907,16.3720179 C8.24954907,16.7573329 8.56190855,17.0696924 8.94722349,17.0696924 Z"/>
</svg>
