<svg xmlns="http://www.w3.org/2000/svg" width="24" height="24" viewBox="0 0 24 24">
  <path fill="#555" d="M2.69973118,5.3916782 C2.31328032,5.3916782 2,5.08014043 2,4.6958391 C2,4.31153778 2.31328032,4 2.69973118,4 L21.2956043,4 C21.6820552,4 21.9953355,4.31153778 21.9953355,4.6958391 C21.9953355,5.08014043 21.6820552,5.3916782 21.2956043,5.3916782 L2.69973118,5.3916782 Z M2.69973118,20 C2.31328032,20 2,19.6884622 2,19.3041609 C2,18.9198596 2.31328032,18.6083218 2.69973118,18.6083218 L21.2956043,18.6083218 C21.6820552,18.6083218 21.9953355,18.9198596 21.9953355,19.3041609 C21.9953355,19.6884622 21.6820552,20 21.2956043,20 L2.69973118,20 Z M20.3125016,11.811406 L17.9799453,9.47884976 C17.7066833,9.20558773 17.7054511,8.76377462 17.9771932,8.49203255 C18.2489352,8.22029048 18.6907484,8.22152264 18.9640104,8.49478466 L21.7913513,11.3221256 C22.0646133,11.5953876 22.0658455,12.0372007 21.7941034,12.3089428 L18.9824889,15.1205574 C18.7107468,15.3922994 18.2689337,15.3910673 17.9956717,15.1178052 C17.7224096,14.8445432 17.7211775,14.4027301 17.9929196,14.130988 L20.3125016,11.811406 Z M2.69616699,12.5226814 C2.30971613,12.5226814 1.99643581,12.2111436 1.99643581,11.8268423 C1.99643581,11.4425409 2.30971613,11.1310032 2.69616699,11.1310032 L16.8137559,11.1310032 C17.2002067,11.1310032 17.5134871,11.4425409 17.5134871,11.8268423 C17.5134871,12.2111436 17.2002067,12.5226814 16.8137559,12.5226814 L2.69616699,12.5226814 Z"/>
</svg>
