<svg xmlns="http://www.w3.org/2000/svg" width="20" height="20" viewBox="0 0 20 20">
  <path fill="#555" d="M0.700449443,17 C0.31382776,17 0.000408959195,16.6869769 0.000408959195,16.3008433 C0.000408959195,15.9147098 0.31382776,15.6016867 0.700449443,15.6016867 L3.49700541,15.6016867 C3.88362709,15.6016867 4.19704589,15.9147098 4.19704589,16.3008433 C4.19704589,16.6869769 3.88362709,17 3.49700541,17 L0.700449443,17 Z M5.52869781,17 C5.14207613,17 4.82865733,16.6869769 4.82865733,16.3008433 C4.82865733,15.9147098 5.14207613,15.6016867 5.52869781,15.6016867 L19.2999595,15.6016867 C19.6865812,15.6016867 20,15.9147098 20,16.3008433 C20,16.6869769 19.6865812,17 19.2999595,17 L5.52869781,17 Z M0.700040484,10.7326218 C0.3134188,10.7326218 -1.79412041e-12,10.4195986 -1.79412041e-12,10.0334651 C-1.79412041e-12,9.64733151 0.3134188,9.3343084 0.700040484,9.3343084 L3.49659645,9.3343084 C3.88321813,9.3343084 4.19663693,9.64733151 4.19663693,10.0334651 C4.19663693,10.4195986 3.88321813,10.7326218 3.49659645,10.7326218 L0.700040484,10.7326218 Z M5.52828885,10.7326218 C5.14166717,10.7326218 4.82824837,10.4195986 4.82824837,10.0334651 C4.82824837,9.64733151 5.14166717,9.3343084 5.52828885,9.3343084 L19.2995506,9.3343084 C19.6861722,9.3343084 19.999591,9.64733151 19.999591,10.0334651 C19.999591,10.4195986 19.6861722,10.7326218 19.2995506,10.7326218 L5.52828885,10.7326218 Z M0.700040484,4.39831335 C0.3134188,4.39831335 -1.79412041e-12,4.08529024 -1.79412041e-12,3.69915667 C-1.79412041e-12,3.31302311 0.3134188,3 0.700040484,3 L3.49659645,3 C3.88321813,3 4.19663693,3.31302311 4.19663693,3.69915667 C4.19663693,4.08529024 3.88321813,4.39831335 3.49659645,4.39831335 L0.700040484,4.39831335 Z M5.52828885,4.39831335 C5.14166717,4.39831335 4.82824837,4.08529024 4.82824837,3.69915667 C4.82824837,3.31302311 5.14166717,3 5.52828885,3 L19.2995506,3 C19.6861722,3 19.999591,3.31302311 19.999591,3.69915667 C19.999591,4.08529024 19.6861722,4.39831335 19.2995506,4.39831335 L5.52828885,4.39831335 Z"/>
</svg>
