<svg xmlns="http://www.w3.org/2000/svg" width="24" height="24" viewBox="0 0 24 24">
  <g fill="none" fill-rule="evenodd" transform="translate(-168 -792)">
    <path fill="#555" fill-rule="nonzero" d="M7.15968143,20 C6.74583261,20 6.41034185,19.6723141 6.41034185,19.2680931 C6.41034185,18.863872 6.74583261,18.5361861 7.15968143,18.5361861 L22.2506604,18.5361861 C22.6645092,18.5361861 23,18.863872 23,19.2680931 C23,19.6723141 22.6645092,20 22.2506604,20 L7.15968143,20 Z M1.74933957,20 C1.33549075,20 1,19.6723141 1,19.2680931 C1,18.863872 1.33549075,18.5361861 1.74933957,18.5361861 L4.84857185,18.5361861 C5.26242067,18.5361861 5.59791142,18.863872 5.59791142,19.2680931 C5.59791142,19.6723141 5.26242067,20 4.84857185,20 L1.74933957,20 Z M7.15968143,13.2949452 C6.74583261,13.2949452 6.41034185,12.9672593 6.41034185,12.5630383 C6.41034185,12.1588173 6.74583261,11.8311314 7.15968143,11.8311314 L22.2506604,11.8311314 C22.6645092,11.8311314 23,12.1588173 23,12.5630383 C23,12.9672593 22.6645092,13.2949452 22.2506604,13.2949452 L7.15968143,13.2949452 Z M1.74933957,13.2949452 C1.33549075,13.2949452 1,12.9672593 1,12.5630383 C1,12.1588173 1.33549075,11.8311314 1.74933957,11.8311314 L4.84857185,11.8311314 C5.26242067,11.8311314 5.59791142,12.1588173 5.59791142,12.5630383 C5.59791142,12.9672593 5.26242067,13.2949452 4.84857185,13.2949452 L1.74933957,13.2949452 Z M7.15968143,6.46381386 C6.74583261,6.46381386 6.41034185,6.13612797 6.41034185,5.73190693 C6.41034185,5.32768589 6.74583261,5 7.15968143,5 L22.2506604,5 C22.6645092,5 23,5.32768589 23,5.73190693 C23,6.13612797 22.6645092,6.46381386 22.2506604,6.46381386 L7.15968143,6.46381386 Z M1.74933957,6.46381386 C1.33549075,6.46381386 1,6.13612797 1,5.73190693 C1,5.32768589 1.33549075,5 1.74933957,5 L4.84857185,5 C5.26242067,5 5.59791142,5.32768589 5.59791142,5.73190693 C5.59791142,6.13612797 5.26242067,6.46381386 4.84857185,6.46381386 L1.74933957,6.46381386 Z" transform="translate(168 792)"/>
  </g>
</svg>
