<svg xmlns="http://www.w3.org/2000/svg" width="24" height="24" viewBox="0 0 24 24">
  <path fill="#555" d="M2.70044944,19 C2.31382776,19 2.00040896,18.6869769 2.00040896,18.3008433 C2.00040896,17.9147098 2.31382776,17.6016867 2.70044944,17.6016867 L5.49700541,17.6016867 C5.88362709,17.6016867 6.19704589,17.9147098 6.19704589,18.3008433 C6.19704589,18.6869769 5.88362709,19 5.49700541,19 L2.70044944,19 Z M7.52869781,19 C7.14207613,19 6.82865733,18.6869769 6.82865733,18.3008433 C6.82865733,17.9147098 7.14207613,17.6016867 7.52869781,17.6016867 L21.2999595,17.6016867 C21.6865812,17.6016867 22,17.9147098 22,18.3008433 C22,18.6869769 21.6865812,19 21.2999595,19 L7.52869781,19 Z M2.70004048,12.7326218 C2.3134188,12.7326218 2,12.4195986 2,12.0334651 C2,11.6473315 2.3134188,11.3343084 2.70004048,11.3343084 L5.49659645,11.3343084 C5.88321813,11.3343084 6.19663693,11.6473315 6.19663693,12.0334651 C6.19663693,12.4195986 5.88321813,12.7326218 5.49659645,12.7326218 L2.70004048,12.7326218 Z M7.52828885,12.7326218 C7.14166717,12.7326218 6.82824837,12.4195986 6.82824837,12.0334651 C6.82824837,11.6473315 7.14166717,11.3343084 7.52828885,11.3343084 L21.2995506,11.3343084 C21.6861722,11.3343084 21.999591,11.6473315 21.999591,12.0334651 C21.999591,12.4195986 21.6861722,12.7326218 21.2995506,12.7326218 L7.52828885,12.7326218 Z M2.70004048,6.39831335 C2.3134188,6.39831335 2,6.08529024 2,5.69915667 C2,5.31302311 2.3134188,5 2.70004048,5 L5.49659645,5 C5.88321813,5 6.19663693,5.31302311 6.19663693,5.69915667 C6.19663693,6.08529024 5.88321813,6.39831335 5.49659645,6.39831335 L2.70004048,6.39831335 Z M7.52828885,6.39831335 C7.14166717,6.39831335 6.82824837,6.08529024 6.82824837,5.69915667 C6.82824837,5.31302311 7.14166717,5 7.52828885,5 L21.2995506,5 C21.6861722,5 21.999591,5.31302311 21.999591,5.69915667 C21.999591,6.08529024 21.6861722,6.39831335 21.2995506,6.39831335 L7.52828885,6.39831335 Z"/>
</svg>
