<svg xmlns="http://www.w3.org/2000/svg" width="24" height="24" viewBox="0 0 24 24">
  <g fill="none" fill-rule="evenodd" transform="translate(-168 -792)">
    <path fill="#555" fill-rule="nonzero" d="M6.42391376,1.79402824 L23.0912641,1.79402824 C23.5706712,1.79402824 23.9593161,1.39237605 23.9593161,0.896998954 C23.9593161,0.401621854 23.5706712,0 23.0912641,0 L6.42391376,0 C5.94444798,0 5.55580302,0.401621854 5.55580302,0.896998954 C5.55580302,1.39237605 5.94444798,1.79402824 6.42391376,1.79402824 Z M2.95152953,0 L0.86811074,0 C0.388703671,0 0,0.401621854 0,0.896998954 C0,1.39237605 0.388703671,1.79402824 0.86811074,1.79402824 L2.95152953,1.79402824 C3.43096596,1.79402824 3.81964027,1.39237605 3.81964027,0.896998954 C3.81964027,0.401621854 3.43099531,0 2.95152953,0 Z M23.0912935,8.58635433 L6.42391376,8.58635433 C5.94444798,8.58635433 5.55580302,8.98797618 5.55580302,9.48332295 C5.55580302,9.97876071 5.94444798,10.3803522 6.42391376,10.3803522 L23.0912641,10.3803522 C23.5706712,10.3803522 23.9593161,9.97870005 23.9593161,9.48332295 C23.9593455,8.98800651 23.5707005,8.58638466 23.0912935,8.58635433 Z M2.95152953,8.58635433 L0.86811074,8.58635433 C0.388703671,8.58635433 0,8.98797618 0,9.48332295 C0,9.97876071 0.388703671,10.3803522 0.86811074,10.3803522 L2.95152953,10.3803522 C3.43096596,10.3803522 3.81964027,9.97870005 3.81964027,9.48332295 C3.81964027,8.98800651 3.43099531,8.58638466 2.95152953,8.58635433 Z M23.0912935,17.1727087 L6.42391376,17.1727087 C5.94444798,17.1727087 5.55580302,17.5743608 5.55580302,18.0697379 C5.55580302,18.565115 5.94444798,18.9667672 6.42391376,18.9667672 L23.0912641,18.9667672 C23.5706712,18.9667672 23.9593161,18.565115 23.9593161,18.0697379 C23.9593161,17.5743608 23.5707005,17.1727087 23.0912935,17.1727087 Z M2.95152953,17.1727087 L0.86811074,17.1727087 C0.388703671,17.1727087 0,17.5743608 0,18.0697379 C0,18.565115 0.388703671,18.9667672 0.86811074,18.9667672 L2.95152953,18.9667672 C3.43096596,18.9667672 3.81964027,18.565115 3.81964027,18.0697379 C3.81964027,17.5743608 3.43099531,17.1727087 2.95152953,17.1727087 Z" transform="translate(168 795)"/>
  </g>
</svg>
