<svg xmlns="http://www.w3.org/2000/svg" width="24" height="24" viewBox="0 0 24 24">
  <g fill="none" fill-rule="evenodd" transform="translate(-312 -456)">
    <path fill="#555" fill-rule="nonzero" d="M1.95275385,4.47934588 C1.53595427,4.47934588 1.19807146,4.14818302 1.19807146,3.73967294 C1.19807146,3.33116285 1.53595427,3 1.95275385,3 L22.2453176,3 C22.6621172,3 23,3.33116285 23,3.73967294 C23,4.14818302 22.6621172,4.47934588 22.2453176,4.47934588 L1.95275385,4.47934588 Z M1.75468239,21 C1.33788282,21 1,20.6688371 1,20.2603271 C1,19.851817 1.33788282,19.5206541 1.75468239,19.5206541 L22.0472462,19.5206541 C22.4640457,19.5206541 22.8019285,19.851817 22.8019285,20.2603271 C22.8019285,20.6688371 22.4640457,21 22.0472462,21 L1.75468239,21 Z M1.75468239,12.5112832 C1.33788282,12.5112832 1,12.1801203 1,11.7716102 C1,11.3631002 1.33788282,11.0319373 1.75468239,11.0319373 L17.0526066,11.0319373 C17.4694062,11.0319373 17.807289,11.3631002 17.807289,11.7716102 C17.807289,12.1801203 17.4694062,12.5112832 17.0526066,12.5112832 L1.75468239,12.5112832 Z M18.3832411,9.32877636 C18.0925598,9.03600961 18.0990663,8.56771803 18.3977738,8.28281784 C18.6964814,7.99791764 19.1742756,8.00429474 19.464957,8.29706149 L22.6386622,11.493535 C22.9263847,11.7833216 22.9233604,12.245853 22.6318721,12.5320016 L19.3948844,15.7096907 C19.1003984,15.9987819 18.6225601,15.9991566 18.3276026,15.7105275 C18.0326452,15.4218984 18.0322629,14.9535636 18.3267488,14.6644723 L21.038155,12.0027366 L18.3832411,9.32877636 Z" transform="translate(312 456)"/>
  </g>
</svg>
