<svg xmlns="http://www.w3.org/2000/svg" width="24" height="24" viewBox="0 0 24 24">
  <g fill="none" fill-rule="evenodd" transform="translate(-312 -456)">
    <path fill="#555" d="M19.2000889,15.4041721 L0.799911121,15.4041721 C0.357738029,15.4041721 0,15.7610169 0,16.202086 C0,16.6431551 0.357738029,17 0.799911121,17 L19.2000889,17 C19.642262,17 20,16.6431551 20,16.202086 C20,15.7610169 19.64004,15.4041721 19.2000889,15.4041721 Z M0.844350628,9.97392438 L13.4007333,9.97392438 C13.8429063,9.97392438 14.2006444,9.61707953 14.2006444,9.17601043 C14.2006444,8.73494133 13.8429063,8.37809648 13.4007333,8.37809648 L0.844350628,8.37809648 C0.402177536,8.37809648 0.0444395067,8.73494133 0.0444395067,9.17601043 C0.0444395067,9.61707953 0.402177536,9.97392438 0.844350628,9.97392438 Z M0.799911121,1.5958279 L19.1334296,1.5958279 C19.5756027,1.5958279 19.9333407,1.23898305 19.9333407,0.79791395 C19.9333407,0.35684485 19.5756027,6.27485895e-17 19.1334296,6.27485895e-17 L0.799911121,0 C0.357738029,0 0,0.35684485 0,0.79791395 C0,1.23898305 0.357738029,1.5958279 0.799911121,1.5958279 Z M17.0158871,6.22372881 C16.8603489,6.07079531 16.6581491,5.99543677 16.4559493,5.99543677 C16.2493056,5.99543677 16.0426619,6.07522816 15.8849017,6.23481095 C15.5760471,6.54954368 15.5782691,7.05488918 15.8937896,7.36297262 L18.013554,9.44198175 L15.9315632,11.3990874 C15.6093767,11.7005215 15.5938229,12.205867 15.8982335,12.527249 C16.2004222,12.848631 16.7070326,12.8619296 17.029219,12.5604954 L19.7133652,10.0337679 C19.8711254,9.88526728 19.9622264,9.6791395 19.9644484,9.4619296 C19.9666704,9.24471969 19.8800133,9.03637549 19.7244751,8.88344198 L17.0158871,6.22372881 Z" transform="matrix(1 0 0 -1 314 477)"/>
  </g>
</svg>
