<svg xmlns="http://www.w3.org/2000/svg" width="24" height="24" viewBox="0 0 24 24">
  <path fill="#555" fill-rule="evenodd" d="M3.66666667,4 L20.3333333,4 C21.2538079,4 22,4.74619208 22,5.66666667 L22,17.3333333 C22,18.2538079 21.2538079,19 20.3333333,19 L3.66666667,19 C2.74619208,19 2,18.2538079 2,17.3333333 L2,5.66666667 C2,4.74619208 2.74619208,4 3.66666667,4 Z M3.36267922,7.2485199 L12,13.1557985 L20.6439881,7.19051298 L20.6439881,5.69917622 C20.645478,5.56518753 20.6147031,5.46780126 20.5516635,5.40701743 C20.4886239,5.34623359 20.4106065,5.31766344 20.3176115,5.32130698 L3.69800793,5.32130698 C3.59345552,5.32130698 3.50986643,5.34987713 3.44724066,5.40701743 C3.38461489,5.46415772 3.35642774,5.53810002 3.36267922,5.62884432 L3.36267922,7.2485199 Z M8.04751587,12.0577581 L3.36233243,8.85321045 L3.36233243,16.6889532 L8.04751587,12.0577581 Z M15.8450345,12.1082871 L20.641191,16.8441081 L20.641191,8.79207207 L15.8450345,12.1082871 Z M4.25878629,17.6802269 L19.5826888,17.6802269 L14.7258856,12.8778956 L12,14.7651744 L9.16778842,12.8283763 L4.25878629,17.6802269 Z"/>
</svg>
