<svg xmlns="http://www.w3.org/2000/svg" width="24" height="24" viewBox="0 0 24 24">
  <g fill="none" fill-rule="evenodd" transform="translate(-456 -792)">
    <path fill="#555" fill-rule="nonzero" d="M22.5016812,0 L1.4983188,0 C0.672222175,0 0,0.67165022 0,1.49841709 L0,16.5015829 C0,17.3300953 0.672863853,18 1.4983188,18 L22.5016812,18 C23.3277778,18 24,17.3283498 24,16.5015829 L24,1.49841709 C24,0.66990474 23.3271361,1.45910322e-15 22.5016812,0 Z M8.51825361,10.540822 L11.998537,12.9075124 L15.4628297,10.5234442 L21.4334665,16.5018909 L2.55952636,16.5018909 L8.51717559,10.541284 L8.51825361,10.540822 Z M1.49721512,15.4412042 L1.49721512,5.76601164 L7.25892147,9.6833552 L1.49721512,15.4407935 L1.49721512,15.4412042 Z M16.7251136,9.66140836 L22.4999615,5.6834864 L22.4999615,15.4432577 L16.7251136,9.66551537 L16.7251136,9.66140836 Z M22.5016812,1.49959786 L22.5016812,3.92658434 L22.471317,3.88184359 L11.998691,11.0949347 L1.49777979,3.95602647 L1.49777979,1.49887913 L22.5011422,1.49887913 L22.5016812,1.49959786 Z" transform="translate(456 795)"/>
  </g>
</svg>
