<svg xmlns="http://www.w3.org/2000/svg" width="24" height="24" viewBox="0 0 24 24">
  <path fill="#555" fill-rule="evenodd" d="M20.8452134,18.919919 C20.6839306,18.9719143 20.5119119,19 20.3333333,19 L3.66666667,19 C3.44652335,19 3.2363488,18.9573187 3.04396664,18.8797796 L9.17227657,12.8343737 L12.0016129,14.7687863 L14.7303663,12.8877937 L20.8452134,18.919919 Z M21.8504232,18.0243992 L15.8564773,12.1115395 L22,7.87666789 L22,17.3333333 C22,17.5798511 21.9464791,17.8138683 21.8504232,18.0243992 Z M2.10556626,17.9183542 C2.03732112,17.7363288 2,17.5391895 2,17.3333333 L2,7.93069991 L8.04237321,12.0618606 L2.10556626,17.9183542 Z M22,6.25330605 L11.9983871,13.1476481 L2,6.3117672 L2,5.66666667 C2,4.74619208 2.74619208,4 3.66666667,4 L20.3333333,4 C21.2538079,4 22,4.74619208 22,5.66666667 L22,6.25330605 Z"/>
</svg>
