<svg xmlns="http://www.w3.org/2000/svg" width="24" height="24" viewBox="0 0 24 24">
  <g fill="none" fill-rule="evenodd" transform="translate(-456 -792)">
    <path fill="#555" d="M2.83333333,-1.11022302e-15 L21.1666667,-1.11022302e-15 C22.1791887,-1.29622031e-15 23,0.820811292 23,1.83333333 L23,15.1666667 C23,16.1791887 22.1791887,17 21.1666667,17 L2.83333333,17 C1.82081129,17 1,16.1791887 1,15.1666667 L1,1.83333333 C1,0.820811292 1.82081129,-2.03444877e-15 2.83333333,-2.22044605e-15 Z M2.49894714,3.68165588 L12,10.3765717 L21.508387,3.61591471 L21.508387,1.92573305 C21.5100258,1.7738792 21.4761734,1.6635081 21.4068298,1.59461975 C21.3374862,1.5257314 21.2516672,1.4933519 21.1493727,1.49748124 L2.86780873,1.49748124 C2.75280107,1.49748124 2.66085307,1.52986075 2.59196472,1.59461975 C2.52307638,1.65937875 2.49207052,1.74318002 2.49894714,1.84602356 L2.49894714,3.68165588 Z M7.65226746,9.13212585 L2.49856567,5.50030518 L2.49856567,14.3808136 L7.65226746,9.13212585 Z M16.229538,9.18939209 L21.5053101,14.5566559 L21.5053101,5.43101501 L16.229538,9.18939209 Z M3.48466492,15.5042572 L20.3409576,15.5042572 L14.9984741,10.061615 L12,12.200531 L8.88456726,10.0054932 L3.48466492,15.5042572 Z" transform="translate(456 795)"/>
  </g>
</svg>
