<svg xmlns="http://www.w3.org/2000/svg" width="24" height="24" viewBox="0 0 24 24">
  <path fill="#555" d="M23.9522909,3.99488178 L23.9507394,3.99488178 L23.9507394,14.8582364 L23.9507394,14.8597497 L20.2891636,6.52346036 C20.220897,6.37062587 20.2860606,6.17390821 20.431903,6.08765508 L23.9522909,3.99488178 Z M0.184630303,2.87964395 C0.127224242,2.84484006 0.0636121212,2.84484006 0,2.84786648 L0,2.11849791 C0,0.953324061 0.977454545,0 2.17212121,0 L21.7786182,0 C22.9732848,0 23.9507394,0.953324061 23.9507394,2.11849791 L23.9507394,2.63299026 C23.9088485,2.6375299 23.8638545,2.62845063 23.8266182,2.65114882 L11.8985697,9.74811683 C11.7527273,9.83739638 11.5153455,9.83436996 11.3710545,9.7450904 L0.184630303,2.87964395 Z M19.2201697,7.16052295 L23.2727273,16.3865814 C22.8817455,16.7512656 22.3573333,16.9767344 21.7786182,16.9767344 L2.17212121,16.9767344 C1.61357576,16.9767344 1.10933333,16.7633713 0.723006061,16.4228985 L4.67781818,7.41928234 C4.74453333,7.26644784 4.91675152,7.2134854 5.06259394,7.30276495 L11.3058909,11.1327065 C11.4501818,11.2219861 11.5758545,11.3036996 11.5836121,11.3188317 C11.5913697,11.3309374 11.6037818,11.3400167 11.6099879,11.3369903 C11.6177455,11.3309374 11.6270545,11.3309374 11.6317091,11.3339638 C11.6348121,11.3369903 11.6441212,11.3309374 11.6503273,11.3218581 C11.6565333,11.3127789 11.779103,11.2371182 11.926497,11.1478387 L18.8322909,7.03946592 C18.9781333,6.9532128 19.151903,7.00768846 19.2201697,7.16052295 Z M3.47229091,6.3267427 C3.61658182,6.41602225 3.68019394,6.61273992 3.61347879,6.76708762 L0.0108606061,14.9671878 C0.00930909091,14.9308707 0,14.8945535 0,14.8582364 L0,4.19613908 L3.47229091,6.3267427 Z" transform="translate(0 4)"/>
</svg>
