<svg xmlns="http://www.w3.org/2000/svg" width="24" height="24" viewBox="0 0 24 24">
  <path fill="#555" fill-rule="evenodd" d="M21.7278835,15.9680622 C21.5510076,16.0248758 21.36242,16.0555556 21.1666667,16.0555556 L2.83333333,16.0555556 C2.59217285,16.0555556 2.36188788,16.0089919 2.15097854,15.9243648 L8.88950423,9.4560518 L12.0017742,11.5265898 L15.0034029,9.51323108 L21.7278835,15.9680622 Z M22.8261918,15.0023995 L16.242125,8.68235159 L23,4.14947045 L23,14.2222222 C23,14.5012252 22.9376765,14.7656717 22.8261918,15.0023995 Z M1.1250946,14.889182 C1.04433018,14.6824799 1,14.457528 1,14.2222222 L1,4.20730472 L7.64661053,8.62917669 L1.1250946,14.889182 Z M23,2.41187203 L11.9982258,9.79137146 L1,2.47444711 L1,1.83333333 C1,0.820811292 1.82081129,-9.24225743e-16 2.83333333,-1.11022302e-15 L21.1666667,-1.11022302e-15 C22.1791887,-1.29622031e-15 23,0.820811292 23,1.83333333 L23,2.41187203 Z" transform="translate(0 4)"/>
</svg>
