<svg xmlns="http://www.w3.org/2000/svg" width="24" height="24" viewBox="0 0 24 24">
  <g fill="none" fill-rule="evenodd" transform="translate(-600 -600)">
    <path fill="#555" fill-rule="nonzero" d="M12,23 C5.92486775,23 1,18.0751322 1,12 C1,5.92486775 5.92486775,1 12,1 C18.0751322,1 23,5.92486775 23,12 C23,18.0751322 18.0751322,23 12,23 Z M7.9,12.8 L16.9,12.8 C17.3970563,12.8 17.8,12.3970563 17.8,11.9 C17.8,11.4029437 17.3970563,11 16.9,11 L7.9,11 C7.40294373,11 7,11.4029437 7,11.9 C7,12.3970563 7.40294373,12.8 7.9,12.8 Z" transform="translate(600 600)"/>
  </g>
</svg>
