<svg xmlns="http://www.w3.org/2000/svg" width="24" height="24" viewBox="0 0 24 24">
  <g fill="none" fill-rule="evenodd" transform="translate(-596 -596)">
    <path fill="#555" fill-rule="nonzero" d="M12,24 C5.372583,24 0,18.627417 0,12 C0,5.372583 5.372583,0 12,0 C18.627417,0 24,5.372583 24,12 C24,18.627417 18.627417,24 12,24 Z M16.0978261,11.25 L7.40217391,11.25 C7.04198821,11.25 6.75,11.5857864 6.75,12 C6.75,12.4142136 7.04198821,12.75 7.40217391,12.75 L16.0978261,12.75 C16.4580118,12.75 16.75,12.4142136 16.75,12 C16.75,11.5857864 16.4580118,11.25 16.0978261,11.25 Z" transform="translate(596 596)"/>
  </g>
</svg>
