<svg xmlns="http://www.w3.org/2000/svg" width="24" height="24" viewBox="0 0 24 24">
  <g fill="none" fill-rule="evenodd" transform="translate(-552 -600)">
    <path fill="#555" fill-rule="nonzero" d="M12,23 C5.92486775,23 1,18.0751322 1,12 C1,5.92486775 5.92486775,1 12,1 C18.0751322,1 23,5.92486775 23,12 C23,18.0751322 18.0751322,23 12,23 Z M12,21.4651163 C17.2274394,21.4651163 21.4651163,17.2274394 21.4651163,12 C21.4651163,6.77256062 17.2274394,2.53488372 12,2.53488372 C6.77256062,2.53488372 2.53488372,6.77256062 2.53488372,12 C2.53488372,17.2274394 6.77256062,21.4651163 12,21.4651163 Z M7.75693397,12.75 C7.3427204,12.75 7.00693397,12.4142136 7.00693397,12 C7.00693397,11.5857864 7.3427204,11.25 7.75693397,11.25 L17.0463253,11.25 C17.4605389,11.25 17.7963253,11.5857864 17.7963253,12 C17.7963253,12.4142136 17.4605389,12.75 17.0463253,12.75 L7.75693397,12.75 Z" transform="translate(552 600)"/>
  </g>
</svg>
