<svg xmlns="http://www.w3.org/2000/svg" width="24" height="24" viewBox="0 0 24 24">
  <g fill="none" fill-rule="evenodd" transform="translate(-744 -600)">
    <path fill="#555" fill-rule="nonzero" d="M2,1.5 C1.72385763,1.5 1.5,1.72385763 1.5,2 L1.5,22 C1.5,22.2761424 1.72385763,22.5 2,22.5 L22,22.5 C22.2761424,22.5 22.5,22.2761424 22.5,22 L22.5,2 C22.5,1.72385763 22.2761424,1.5 22,1.5 L2,1.5 Z M2,0 L22,0 C23.1045695,0 24,0.8954305 24,2 L24,22 C24,23.1045695 23.1045695,24 22,24 L2,24 C0.8954305,24 0,23.1045695 0,22 L0,2 C0,0.8954305 0.8954305,0 2,0 Z M7.65217391,12.5 L16.3478261,12.5 C16.7080118,12.5 17,12.1642136 17,11.75 C17,11.3357864 16.7080118,11 16.3478261,11 L7.65217391,11 C7.29198821,11 7,11.3357864 7,11.75 C7,12.1642136 7.29198821,12.5 7.65217391,12.5 Z" transform="translate(744 600)"/>
  </g>
</svg>
