<svg xmlns="http://www.w3.org/2000/svg" width="24" height="24" viewBox="0 0 24 24">
  <g fill="none" fill-rule="evenodd" transform="translate(-552 -600)">
    <path fill="#555" fill-rule="nonzero" d="M12,22.5 C17.7989899,22.5 22.5,17.7989899 22.5,12 C22.5,6.20101013 17.7989899,1.5 12,1.5 C6.20101013,1.5 1.5,6.20101013 1.5,12 C1.5,17.7989899 6.20101013,22.5 12,22.5 Z M12,24 C5.372583,24 0,18.627417 0,12 C0,5.372583 5.372583,0 12,0 C18.627417,0 24,5.372583 24,12 C24,18.627417 18.627417,24 12,24 Z M7.65217391,12.5 L16.3478261,12.5 C16.7080118,12.5 17,12.1642136 17,11.75 C17,11.3357864 16.7080118,11 16.3478261,11 L7.65217391,11 C7.29198821,11 7,11.3357864 7,11.75 C7,12.1642136 7.29198821,12.5 7.65217391,12.5 Z" transform="translate(552 600)"/>
  </g>
</svg>
