<svg xmlns="http://www.w3.org/2000/svg" width="24" height="24" viewBox="0 0 24 24">
  <path fill="#555" d="M12,22 C6.4771525,22 2,17.5228475 2,12 C2,6.4771525 6.4771525,2 12,2 C17.5228475,2 22,6.4771525 22,12 C22,17.5228475 17.5228475,22 12,22 Z M12,20.6046512 C16.7522176,20.6046512 20.6046512,16.7522176 20.6046512,12 C20.6046512,7.24778239 16.7522176,3.39534884 12,3.39534884 C7.24778239,3.39534884 3.39534884,7.24778239 3.39534884,12 C3.39534884,16.7522176 7.24778239,20.6046512 12,20.6046512 Z M8.14266724,12.6818182 C7.76610946,12.6818182 7.46084906,12.3765578 7.46084906,12 C7.46084906,11.6234422 7.76610946,11.3181818 8.14266724,11.3181818 L16.5875685,11.3181818 C16.9641263,11.3181818 17.2693867,11.6234422 17.2693867,12 C17.2693867,12.3765578 16.9641263,12.6818182 16.5875685,12.6818182 L8.14266724,12.6818182 Z"/>
</svg>
