<svg xmlns="http://www.w3.org/2000/svg" width="20" height="20" viewBox="0 0 20 20">
  <path fill="#555" d="M10,0 C15.5228475,0 20,4.4771525 20,10 C20,15.5228475 15.5228475,20 10,20 C4.4771525,20 0,15.5228475 0,10 C0,4.4771525 4.4771525,0 10,0 Z M14.4545455,9.09090909 L6.27272727,9.09090909 C5.82085793,9.09090909 5.45454545,9.45722157 5.45454545,9.90909091 C5.45454545,10.3609602 5.82085793,10.7272727 6.27272727,10.7272727 L6.27272727,10.7272727 L14.4545455,10.7272727 C14.9064148,10.7272727 15.2727273,10.3609602 15.2727273,9.90909091 C15.2727273,9.45722157 14.9064148,9.09090909 14.4545455,9.09090909 L14.4545455,9.09090909 Z"/>
</svg>
