<svg xmlns="http://www.w3.org/2000/svg" width="24" height="24" viewBox="0 0 24 24">
  <g fill="none" fill-rule="evenodd" transform="translate(-116 -644)">
    <path fill="#555" fill-rule="nonzero" d="M2,0 L22,0 C23.1045695,0 24,0.8954305 24,2 L24,22 C24,23.1045695 23.1045695,24 22,24 L2,24 C0.8954305,24 0,23.1045695 0,22 L0,2 C0,0.8954305 0.8954305,0 2,0 Z M7.65217391,13.5 L16.3478261,13.5 C16.7080118,13.5 17,13.1642136 17,12.75 C17,12.3357864 16.7080118,12 16.3478261,12 L7.65217391,12 C7.29198821,12 7,12.3357864 7,12.75 C7,13.1642136 7.29198821,13.5 7.65217391,13.5 Z" transform="translate(116 644)"/>
  </g>
</svg>
