<svg xmlns="http://www.w3.org/2000/svg" width="24" height="24" viewBox="0 0 24 24">
  <g fill="none" fill-rule="evenodd" transform="translate(-744 -600)">
    <path fill="#555" fill-rule="nonzero" d="M3,2.5209559 C2.72385763,2.5209559 2.5,2.74481353 2.5,3.0209559 L2.5,21.0209559 C2.5,21.2970983 2.72385763,21.5209559 3,21.5209559 L21,21.5209559 C21.2761424,21.5209559 21.5,21.2970983 21.5,21.0209559 L21.5,3.0209559 C21.5,2.74481353 21.2761424,2.5209559 21,2.5209559 L3,2.5209559 Z M3,1.0209559 L21,1.0209559 C22.1045695,1.0209559 23,1.9163864 23,3.0209559 L23,21.0209559 C23,22.1255254 22.1045695,23.0209559 21,23.0209559 L3,23.0209559 C1.8954305,23.0209559 1,22.1255254 1,21.0209559 L1,3.0209559 C1,1.9163864 1.8954305,1.0209559 3,1.0209559 Z M7.5,12.75 L17.1547067,12.75 C17.5689202,12.75 17.9047067,12.4142136 17.9047067,12 C17.9047067,11.5857864 17.5689202,11.25 17.1547067,11.25 L7.5,11.25 C7.08578644,11.25 6.75,11.5857864 6.75,12 C6.75,12.4142136 7.08578644,12.75 7.5,12.75 Z" transform="translate(744 600)"/>
  </g>
</svg>
