<svg xmlns="http://www.w3.org/2000/svg" width="24" height="24" viewBox="0 0 24 24">
  <path fill="#555" d="M6.4,15.9889532 L17.6,15.9889532 L17.6,4 C17.6,3.66862915 17.3313708,3.4 17,3.4 L7,3.4 C6.66862915,3.4 6.4,3.66862915 6.4,4 L6.4,15.9889532 Z M6.4,17.3889532 L6.4,20 C6.4,20.3313708 6.66862915,20.6 7,20.6 L17,20.6 C17.3313708,20.6 17.6,20.3313708 17.6,20 L17.6,17.3889532 L6.4,17.3889532 Z M7,2 L17,2 C18.1045695,2 19,2.8954305 19,4 L19,20 C19,21.1045695 18.1045695,22 17,22 L7,22 C5.8954305,22 5,21.1045695 5,20 L5,4 C5,2.8954305 5.8954305,2 7,2 Z M12,20 C11.4477153,20 11,19.5522847 11,19 C11,18.4477153 11.4477153,18 12,18 C12.5522847,18 13,18.4477153 13,19 C13,19.5522847 12.5522847,20 12,20 Z"/>
</svg>
