<svg xmlns="http://www.w3.org/2000/svg" width="24" height="24" viewBox="0 0 24 24">
  <g fill="none" fill-rule="evenodd" transform="translate(-308 -884)">
    <path fill="#555" fill-rule="nonzero" d="M7.39574609,20.5202931 C7.39574609,20.2406776 7.51304315,19.9621012 7.71442633,19.7644504 C7.91511259,19.5664988 8.19808909,19.4514145 8.48288828,19.4514145 C8.76776789,19.4514145 9.05069077,19.5664988 9.25140385,19.7644504 C9.45278706,19.9621012 9.5700305,20.2406775 9.5700305,20.5202931 C9.5700305,20.8001822 9.45278703,21.0785123 9.25140385,21.2764366 C9.05069077,21.4743882 8.76776789,21.5895273 8.48288828,21.5895273 C8.19808909,21.5895273 7.91511262,21.4743882 7.71442633,21.2764366 C7.51304315,21.0785123 7.39574609,20.8001822 7.39574609,20.5202931 Z M15.6607128,18.6418858 L1.30503706,18.6418858 C0.839869493,18.6418858 0.442866109,18.2267836 0.442866109,17.7697281 C0.442866109,17.3126179 0.839869493,17.3103479 1.30503706,17.3103479 L15.6607128,17.3103479 C16.1259071,17.3103479 16.5229105,17.3126179 16.5229105,17.7697281 C16.5229105,18.2267836 16.1463054,18.5976899 15.6811647,18.5976899 L15.6607128,18.6418858 Z M15.1299275,23.9681741 L1.83590279,23.9681741 C0.823304263,23.9681741 2.61941455e-08,23.1583993 2.61941455e-08,22.1626244 L0,1.80554972 C0,0.809802147 0.823277441,0 1.83590277,0 L15.1299274,0 C16.1424724,0 16.9658034,0.809802147 16.9658034,1.80554972 L16.9658034,22.1626517 C16.9658034,23.1583993 16.1424724,23.9681741 15.1299275,23.9681741 L15.1299275,23.9681741 Z M1.95756899,1.33159259 C1.87342926,1.33159259 1.30503706,1.91478139 1.30503706,1.99734786 L1.30503706,21.9708536 C1.30503706,22.05342 1.87345606,22.6366635 1.95756899,22.6366635 L15.0082344,22.6366635 C15.0923474,22.6366635 15.6607396,22.05342 15.6607396,21.9708536 L15.6607396,1.99734786 C15.6607396,1.91475405 15.0923474,1.33159259 15.0082344,1.33159259 L1.95756899,1.33159259 L1.95756899,1.33159259 Z" transform="translate(312 884)"/>
  </g>
</svg>
