<svg xmlns="http://www.w3.org/2000/svg" width="24" height="24" viewBox="0 0 24 24">
  <g fill="none" fill-rule="evenodd" transform="translate(-312 -888)">
    <path fill="#555" d="M6,1 L18,1 C19.1045695,1 20,1.8954305 20,3 L20,21 C20,22.1045695 19.1045695,23 18,23 L6,23 C4.8954305,23 4,22.1045695 4,21 L4,3 C4,1.8954305 4.8954305,1 6,1 Z M6.50104713,2.4823153 C6.50055567,2.48231457 6.50006421,2.48231421 6.49957275,2.48231421 C5.947288,2.48231421 5.49957275,2.93002946 5.49957275,3.48231421 L5.49957275,16.8740082 L18.4983368,16.8931732 L18.4983368,3.4985305 C18.4983368,2.94682144 18.0515196,2.49934501 17.4998112,2.49853159 L6.50104713,2.4823153 Z M6.49786993,21.4681267 L17.500389,21.4843439 C18.0526732,21.4851579 18.5010479,21.0381031 18.5018619,20.4858189 C18.5018626,20.4853276 18.501863,20.4848363 18.501863,20.484345 L18.501863,18.1020966 L5.49934387,18.0829315 L5.49934387,20.4681278 C5.49934387,21.019837 5.9461613,21.4673135 6.49786993,21.4681267 Z M12,20.8199525 C11.4477153,20.8199525 11,20.3722373 11,19.8199525 C11,19.2676678 11.4477153,18.8199525 12,18.8199525 C12.5522847,18.8199525 13,19.2676678 13,19.8199525 C13,20.3722373 12.5522847,20.8199525 12,20.8199525 Z" transform="translate(312 888)"/>
  </g>
</svg>
