<svg xmlns="http://www.w3.org/2000/svg" width="24" height="24" viewBox="0 0 24 24">
  <g fill="none" fill-rule="evenodd" transform="translate(-744 -744)">
    <path fill="#4A4A4A" d="M3.99904443,15 C2.34271793,15 1,13.6568542 1,12 C1,10.3431458 2.34271793,9 3.99904443,9 C5.65537094,9 6.99808886,10.3431458 6.99808886,12 C6.99808886,13.6568542 5.65537094,15 3.99904443,15 Z M12,15 C10.3436735,15 9.00095557,13.6568542 9.00095557,12 C9.00095557,10.3431458 10.3436735,9 12,9 C13.6563265,9 14.9990444,10.3431458 14.9990444,12 C14.9990444,13.6568542 13.6563265,15 12,15 Z M20.0009556,15 C18.3446291,15 17.0019111,13.6568542 17.0019111,12 C17.0019111,10.3431458 18.3446291,9 20.0009556,9 C21.6572821,9 23,10.3431458 23,12 C23,13.6568542 21.6572821,15 20.0009556,15 Z" transform="translate(744 744)"/>
  </g>
</svg>
