<svg xmlns="http://www.w3.org/2000/svg" width="24" height="24" viewBox="0 0 24 24">
  <g fill="none" fill-rule="evenodd" transform="translate(-816 -672)">
    <path fill="#555" fill-rule="nonzero" d="M2.91770114,0.000247760433 C1.87972921,-0.0136152452 0.914864954,0.555146145 0.392047922,1.48905205 C-0.13076911,2.42295795 -0.130676741,3.57756458 0.392289711,4.51137975 C0.915256163,5.44519492 1.88021141,6.01378888 2.91818111,5.99974576 C4.49454522,5.97841849 5.76164821,4.64150162 5.76151687,2.99975005 C5.76138553,1.35799848 4.49406865,0.0213015008 2.91770114,0.000247760433 L2.91770114,0.000247760433 Z M21.156425,0.000247760433 C19.5800595,0.0214387052 18.31285,1.3582455 18.31285,2.99999676 C18.31285,4.64174803 19.5800595,5.97855482 21.156425,5.99974576 C22.7327905,5.97855482 24,4.64174803 24,2.99999676 C24,1.3582455 22.7327905,0.0214387052 21.156425,0.000247760433 L21.156425,0.000247760433 Z M12.0370631,0.000247760433 C10.9990911,-0.0136152452 10.0342269,0.555146145 9.51140986,1.48905205 C8.98859283,2.42295795 8.9886852,3.57756458 9.51165165,4.51137975 C10.0346181,5.44519492 10.9995733,6.01378888 12.037543,5.99974576 C13.6139072,5.97841849 14.8810102,4.64150162 14.8808788,2.99975005 C14.8807475,1.35799848 13.6134306,0.0213015008 12.0370631,0.000247760433 L12.0370631,0.000247760433 Z" transform="translate(816 681)"/>
  </g>
</svg>
