<svg xmlns="http://www.w3.org/2000/svg" width="24" height="24" viewBox="0 0 24 24">
  <path fill="#4A4A4A" fill-rule="evenodd" d="M4.5,14 C3.11928813,14 2,12.8807119 2,11.5 C2,10.1192881 3.11928813,9 4.5,9 C5.88071187,9 7,10.1192881 7,11.5 C7,12.8807119 5.88071187,14 4.5,14 Z M12.226404,14 C10.8456922,14 9.72640403,12.8807119 9.72640403,11.5 C9.72640403,10.1192881 10.8456922,9 12.226404,9 C13.6071159,9 14.726404,10.1192881 14.726404,11.5 C14.726404,12.8807119 13.6071159,14 12.226404,14 Z M19.5,14 C18.1192881,14 17,12.8807119 17,11.5 C17,10.1192881 18.1192881,9 19.5,9 C20.8807119,9 22,10.1192881 22,11.5 C22,12.8807119 20.8807119,14 19.5,14 Z"/>
</svg>
