<svg xmlns="http://www.w3.org/2000/svg" width="24" height="24" viewBox="0 0 24 24">
  <g fill="none" fill-rule="evenodd" transform="translate(-432 -816)">
    <path fill="#555" fill-rule="nonzero" d="M16.4328889,17.5640824 C16.2533333,17.5640824 16.072,17.509663 15.9146667,17.3963636 C15.5164444,17.1091006 15.4248889,16.5515248 15.7111111,16.1509624 L16.0631111,15.6674327 C16.9831111,14.4157867 17.7777778,13.3336436 17.7777778,11.4762473 C17.7777778,9.55194182 17.0737778,8.61789091 16.1822222,7.4358303 C16.0248889,7.22796606 15.8675556,7.01742545 15.712,6.80064 C15.4257778,6.4009697 15.5164444,5.84339394 15.9155556,5.55523879 C16.3146667,5.26619152 16.8693333,5.35897212 17.1564444,5.75953455 C17.3022222,5.9638303 17.4524444,6.16277333 17.6,6.35904 C18.5617778,7.63477333 19.5555556,8.95332848 19.5555556,11.4762473 C19.5555556,13.9197673 18.4613333,15.4105018 17.496,16.7263806 L17.1564444,17.19296 C16.9822222,17.435617 16.7102222,17.5640824 16.4328889,17.5640824 Z M19.4568889,20.5928339 C19.2488889,20.5928339 19.0391111,20.51968 18.8711111,20.3715879 C18.5022222,20.0468558 18.4648889,19.4830352 18.7884444,19.1128048 C20.5724444,17.0707394 22.2222222,14.7342739 22.2222222,11.4762473 C22.2222222,8.21822061 20.5724444,5.88086303 18.7884444,3.84058182 C18.4648889,3.46945939 18.5022222,2.90653091 18.8711111,2.58090667 C19.2382222,2.25617455 19.8,2.29275152 20.1253333,2.66298182 C22.0408889,4.85670788 24,7.61782303 24,11.4762473 C24,15.3346715 22.0408889,18.0966788 20.1253333,20.2886206 C19.9484444,20.49024 19.7031111,20.5928339 19.4568889,20.5928339 Z M11.9564444,22.9640921 C11.3742222,22.9640921 10.7297778,22.6134885 10.0408889,21.9229867 L4.96533333,16.8289745 L2.66666667,16.8289745 C1.19644444,16.8289745 0,15.6281794 0,14.1526109 L0,8.79988364 C0,7.32431515 1.19644444,6.12352 2.66666667,6.12352 L4.96533333,6.12352 L10.0382222,1.03218424 C10.7208889,0.347035152 11.3644444,0 11.9511111,0 C12.5884444,0 13.3333333,0.436247273 13.3333333,1.66291394 L13.3333333,21.2895806 C13.3333333,22.5260606 12.5911111,22.9640921 11.9564444,22.9640921 Z M2.66666667,7.90776242 C2.17688889,7.90776242 1.77777778,8.30832485 1.77777778,8.79988364 L1.77777778,14.1526109 C1.77777778,14.6450618 2.17688889,15.0447321 2.66666667,15.0447321 L5.33333333,15.0447321 C5.56888889,15.0447321 5.79555556,15.1384048 5.96177778,15.3061236 L11.2968889,20.6615273 C11.3911111,20.7552 11.4773333,20.8345988 11.5555556,20.9006158 L11.5555556,2.05366303 C11.4782222,2.11878788 11.3902222,2.19818667 11.2951111,2.29364364 L5.96177778,7.64637091 C5.79555556,7.8140897 5.56888889,7.90776242 5.33333333,7.90776242 L2.66666667,7.90776242 Z" transform="translate(432 817)"/>
  </g>
</svg>
