<svg xmlns="http://www.w3.org/2000/svg" width="24" height="24" viewBox="0 0 24 24">
  <g fill="none" fill-rule="evenodd" transform="translate(-360 -888)">
    <path fill="#555" fill-rule="nonzero" d="M12.0287962,19.6401928 C12.0352349,19.6407044 12.0414061,19.6407227 12.0473667,19.6403263 C12.0451604,19.640473 12.0429587,19.640655 12.0407623,19.640871 L12.0287962,19.6401928 Z M11.8123401,19.5089671 L11.8148624,2.52429322 C11.7919219,2.54538598 11.7662512,2.56992736 11.7376942,2.59844484 L6.43512292,7.64809374 C6.29243058,7.78397993 6.09856257,7.86036472 5.89636964,7.86036472 L3.16510624,7.86036472 C3.01525558,7.89235573 2.88774108,7.9714027 2.76287036,8.11669089 C2.62121213,8.28151148 2.53547997,8.52774996 2.52085545,8.84729279 L2.51969067,13.517018 C2.531434,13.7180478 2.60203621,13.8707472 2.74403541,14.0071665 C2.87829661,14.1361519 3.12053581,14.2283863 3.427992,14.2590976 L5.96165423,14.2590976 C6.16327937,14.2590976 6.35665092,14.3350552 6.49925001,14.4702687 L11.8123401,19.5089671 Z M5.58053315,6.41770029 L10.6471072,1.59309016 C11.1178353,1.12211879 11.6507709,0.885646917 12.2272804,0.978089651 C12.8694171,1.08105564 13.2761408,1.53161006 13.3331446,2.21239741 L13.3331446,19.8517379 L13.3271886,19.9418424 C13.2424102,20.5806001 12.8200331,21.0351571 12.1537051,21.07946 C11.6575235,21.1124502 11.1958626,20.9341243 10.777321,20.5665929 L5.64635718,15.7013763 L3.3565822,15.6985744 C2.64814103,15.6351868 2.07367238,15.4164535 1.66182501,15.0207898 C1.25771564,14.63256 1.0333162,14.1472258 1,13.5569276 L1.00065314,8.81740237 C1.02872515,8.17533464 1.21837115,7.63063656 1.58411957,7.20508505 C1.95385826,6.77489084 2.42822818,6.50665083 2.9808408,6.42607395 L3.09637195,6.41770029 L5.58053315,6.41770029 Z M16.2816492,16.4197771 C15.9299983,16.637578 15.4587969,16.5437274 15.2291914,16.2101558 C14.9995859,15.8765842 15.0985232,15.4296085 15.450174,15.2118076 C16.6240314,14.484759 17.42353,12.868225 17.42353,11.0347313 C17.42353,9.29402588 16.7031577,7.74318051 15.6138126,6.96657078 C15.2780851,6.72722578 15.2104676,6.27502982 15.4627849,5.95656284 C15.7151022,5.63809587 16.1918067,5.57395484 16.5275343,5.81329984 C18.0227449,6.87925689 18.9443855,8.86340043 18.9443855,11.0347313 C18.9443855,13.3280043 17.9158705,15.4075943 16.2816492,16.4197771 Z M19.059507,19.1013518 C18.7054077,19.3155535 18.2352973,19.2169024 18.009486,18.8810082 C17.7836748,18.5451141 17.8876727,18.0991733 18.241772,17.8849716 C20.1712012,16.7178211 21.4791445,14.0522013 21.4791445,11.0347313 C21.4791445,8.01714862 20.1711034,5.35145023 18.2415713,4.18436954 C17.8874605,3.97018502 17.7834384,3.52424927 18.0092315,3.18834417 C18.2350247,2.85243907 18.7051297,2.75376504 19.0592405,2.96794956 C21.4622097,4.42138943 23,7.55530095 23,11.0347313 C23,14.5140266 21.4623293,17.6478363 19.059507,19.1013518 Z" transform="translate(360 889)"/>
  </g>
</svg>
