<svg xmlns="http://www.w3.org/2000/svg" width="24" height="24" viewBox="0 0 24 24">
  <path fill="#555" d="M12.0261783,20.639914 C12.0320317,20.6403969 12.0376419,20.6404142 12.0430606,20.64004 C12.0410549,20.6401785 12.0390534,20.6403504 12.0370566,20.6405542 L12.0261783,20.639914 Z M11.8294001,20.5160239 L11.8316931,3.47842176 C11.8108381,3.49833542 11.7875011,3.52150492 11.7615402,3.54842825 L6.94102084,8.31579864 C6.81130053,8.44408871 6.63505688,8.51620354 6.45124512,8.51620354 L3.9682784,8.51620354 C3.83205053,8.54640624 3.71612826,8.62103443 3.60260942,8.75820092 C3.47382921,8.91380794 3.39589088,9.14628154 3.38259587,9.44796173 L3.38153697,14.8590284 C3.39221272,15.0488205 3.45639655,15.192984 3.58548673,15.3217773 C3.70754237,15.4435523 3.92775983,15.5306308 4.20726545,15.5596254 L6.51059475,15.5596254 C6.69389034,15.5596254 6.86968266,15.6313369 6.99931819,15.7589918 L11.8294001,20.5160239 Z M6.16412104,7.15418495 L10.7700975,2.59927353 C11.1980321,2.15462975 11.682519,1.9313768 12.2066185,2.01865193 C12.7903792,2.11586205 13.160128,2.5412302 13.2119496,3.18396112 L13.2119496,20.8396335 L13.2065351,20.9247012 C13.1294638,21.5277519 12.7454846,21.9568989 12.1397319,21.9987252 C11.6886577,22.0298712 11.268966,21.8615139 10.8884736,21.5145278 L6.22396107,16.9212797 L4.14234745,16.9186345 C3.49831003,16.8587903 2.9760658,16.6522843 2.6016591,16.2787385 C2.23428695,15.912211 2.03028746,15.4540072 2,14.8967071 L2.00059377,9.41974219 C2.02611377,8.81356645 2.19851923,8.29931734 2.53101779,7.89755442 C2.86714387,7.49140833 3.29838925,7.2381631 3.80076436,7.16209052 L3.90579268,7.15418495 L6.16412104,7.15418495 Z M15.8924083,16.9457447 C15.5727258,17.1513704 15.1443609,17.062766 14.9356286,16.7478413 C14.7268963,16.4329166 14.8168392,16.0109271 15.1365218,15.8053013 C16.2036649,15.1188953 16.9304818,13.5927265 16.9304818,11.8617262 C16.9304818,10.2183273 16.2755979,8.75417519 15.2852842,8.02097843 C14.9800773,7.79501296 14.918607,7.36809504 15.1479863,7.06743056 C15.3773656,6.76676609 15.8107334,6.70621058 16.1159403,6.93217605 C17.4752226,7.93854544 18.3130777,9.81177412 18.3130777,11.8617262 C18.3130777,14.0268039 17.3780641,15.9901435 15.8924083,16.9457447 Z M18.4177336,19.4774176 C18.0958252,19.6796454 17.6684521,19.5865089 17.4631691,19.2693914 C17.2578862,18.952274 17.3524298,18.5312616 17.6743382,18.3290338 C19.4283648,17.2271278 20.6174041,14.7105178 20.6174041,11.8617262 C20.6174041,9.01282831 19.4282758,6.49614412 17.6741557,5.39430397 C17.3522368,5.19209249 17.2576713,4.77108483 17.4629378,4.45395703 C17.6682042,4.13682923 18.0955724,4.04367115 18.4174914,4.24588262 C20.6020088,5.6180743 22,8.57679822 22,11.8617262 C22,15.1465267 20.6021175,18.1051546 18.4177336,19.4774176 Z"/>
</svg>
