<svg xmlns="http://www.w3.org/2000/svg" width="24" height="24" viewBox="0 0 24 24">
  <path fill="#555" d="M8.70916667,6.365 C7.6025,7.67 6.8875,9.60083333 6.8375,11.765 L6.8375,12.235 C6.88833333,14.4 7.6025,16.3283333 8.70916667,17.6341667 C10.1433333,19.4975 12.275,20.6791667 14.6583333,20.6791667 C16.1216667,20.6791667 17.4916667,20.2316667 18.6641667,19.4533333 C16.8991667,21.0383333 14.5616667,22 12,22 C11.84,22 11.6808333,21.9966667 11.525,21.9883333 C6.22,21.7408333 2,17.3633333 2,12 C2,6.47583333 6.4775,2 12,2 L12.0375,2 C14.5833333,2.01 16.9041667,2.97166667 18.665,4.54583333 C17.4916667,3.77083333 16.1225,3.32 14.6566667,3.32 C12.275,3.32 10.1425,4.50333333 8.70666667,6.365 L8.70916667,6.365 Z M22,12 C22,14.9633333 20.7125,17.6233333 18.665,19.4541667 C16.1,20.7041667 13.71,19.83 12.9183333,19.2833333 C15.4375,18.73 17.3408333,15.6833333 17.3408333,12 C17.3408333,8.315 15.4383333,5.27083333 12.9183333,4.71666667 C13.7091667,4.17166667 16.1,3.2975 18.665,4.54583333 C20.7125,6.375 22,9.0375 22,12 Z"/>
</svg>
