<svg xmlns="http://www.w3.org/2000/svg" width="24" height="24" viewBox="0 0 24 24">
  <g fill="none" fill-rule="evenodd" transform="translate(-120 -1152)">
    <path fill="#555" fill-rule="nonzero" d="M8.38008333,5.8015 C7.16275,7.237 6.37625,9.36091667 6.32125,11.7415 L6.32125,12.2585 C6.37716667,14.64 7.16275,16.7611667 8.38008333,18.1975833 C9.95766667,20.24725 12.3025,21.5470833 14.9241667,21.5470833 C16.5338333,21.5470833 18.0408333,21.0548333 19.3305833,20.1986667 C17.3890833,21.9421667 14.8178333,23 12,23 C11.824,23 11.6489167,22.9963333 11.4775,22.9871667 C5.642,22.7149167 1,17.8996667 1,12 C1,5.92341667 5.92525,1 12,1 L12.04125,1 C14.8416667,1.011 17.3945833,2.06883333 19.3315,3.80041667 C18.0408333,2.94791667 16.53475,2.452 14.9223333,2.452 C12.3025,2.452 9.95675,3.75366667 8.37733333,5.8015 L8.38008333,5.8015 Z M23,12 C23,15.2596667 21.58375,18.1856667 19.3315,20.1995833 C16.51,21.5745833 13.881,20.613 13.0101667,20.0116667 C15.78125,19.403 17.8749167,16.0516667 17.8749167,12 C17.8749167,7.9465 15.7821667,4.59791667 13.0101667,3.98833333 C13.8800833,3.38883333 16.51,2.42725 19.3315,3.80041667 C21.58375,5.8125 23,8.74125 23,12 Z" transform="translate(120 1152)"/>
  </g>
</svg>
