<svg xmlns="http://www.w3.org/2000/svg" width="24" height="24" viewBox="0 0 24 24">
  <g fill="none" fill-rule="evenodd" transform="translate(-120 -1152)">
    <path fill="#555" fill-rule="nonzero" d="M8.051,5.238 C6.723,6.804 5.865,9.121 5.805,11.718 L5.805,12.282 C5.866,14.88 6.723,17.194 8.051,18.761 C9.772,20.997 12.33,22.415 15.19,22.415 C16.946,22.415 18.59,21.878 19.997,20.944 C17.879,22.846 15.074,24 12,24 C11.808,24 11.617,23.996 11.43,23.986 C5.064,23.689 0,18.436 0,12 C0,5.371 5.373,0 12,0 L12.045,0 C15.1,0.012 17.885,1.166 19.998,3.055 C18.59,2.125 16.947,1.584 15.188,1.584 C12.33,1.584 9.771,3.004 8.048,5.238 L8.051,5.238 Z M24,12 C24,15.556 22.455,18.748 19.998,20.945 C16.92,22.445 14.052,21.396 13.102,20.74 C16.125,20.076 18.409,16.42 18.409,12 C18.409,7.578 16.126,3.925 13.102,3.26 C14.051,2.606 16.92,1.557 19.998,3.055 C22.455,5.25 24,8.445 24,12 Z" transform="translate(120 1152)"/>
  </g>
</svg>
