<svg xmlns="http://www.w3.org/2000/svg" width="24" height="24" viewBox="0 0 24 24">
  <g fill="none" fill-rule="evenodd" transform="translate(-552 -792)">
    <path fill="#555" fill-rule="nonzero" d="M4.97119774,10.4369161 C4.67035725,10.7365892 4.18264909,10.7365388 3.88187108,10.4368034 C3.58109307,10.1370681 3.58114373,9.65115153 3.88198422,9.35147844 L10.6205849,2.64856895 C12.1440243,1.48849444 13.672877,0.93023147 15.1937918,1.00696108 C17.1112227,1.10369478 18.6050569,1.82300514 19.8714697,3.0029197 C21.1636798,4.20686955 22,5.92380427 22,8.00464912 C22,9.60222702 21.5280798,11.0080796 20.5329074,12.2554526 L11.0288386,21.8916059 C10.0669546,22.6668817 8.99952979,23.0422149 7.85577952,22.9962327 C6.40264524,22.9378123 5.32123806,22.4747504 4.51721777,21.6932605 C3.57632931,20.7787379 3,19.6554948 3,18.1454898 C3,16.9442797 3.42105536,15.8358294 4.29048565,14.7956141 L12.6553679,6.38875454 C13.3267698,5.68522 13.9822822,5.26643123 14.6526763,5.16620265 C15.5838604,5.02698414 16.4822564,5.3427916 17.1106563,5.99607598 C17.706324,6.61533202 17.9612473,7.38735198 17.8715803,8.26694754 C17.8104799,8.8663173 17.5609384,9.4183175 17.1024718,9.94699219 L9.41393329,17.7000101 C9.11493906,18.0015118 8.62723972,18.0044349 8.32462634,17.7065391 C8.02201295,17.4086432 8.01907905,16.9227354 8.31807328,16.6212337 L15.9703608,8.90740366 C16.1930649,8.64921626 16.3106639,8.38908056 16.3389248,8.11185279 C16.3837266,7.67236538 16.2762692,7.34693701 15.9984274,7.0580927 C15.7121492,6.76047796 15.3117586,6.61973119 14.8812875,6.68408961 C14.6087421,6.72483705 14.2286561,6.96766345 13.7606157,7.45786182 L5.43052725,15.8256854 C4.83098295,16.5462738 4.54054054,17.3108787 4.54054054,18.1454898 C4.54054054,19.1948666 4.92618991,19.946482 5.59298671,20.5945937 C6.12433275,21.1110502 6.84454569,21.4194476 7.91789171,21.4625994 C8.67679172,21.4931095 9.38106762,21.2454685 9.99478327,20.7572591 L19.378993,11.2418878 C20.1004292,10.3324477 20.4594595,9.26289501 20.4594595,8.00464912 C20.4594595,6.37440605 19.8153397,5.05205178 18.8192488,4.12399561 C17.8020998,3.17631971 16.6400547,2.61677227 15.1158853,2.53987847 C13.9901295,2.48308449 12.8079736,2.91475057 11.6329323,3.80103219 L4.97119774,10.4369161 Z" transform="translate(552 792)"/>
  </g>
</svg>
