<svg xmlns="http://www.w3.org/2000/svg" width="24" height="24" viewBox="0 0 24 24">
  <g fill="none" fill-rule="evenodd" transform="translate(-552 -792)">
    <path fill="#555" fill-rule="nonzero" d="M13.0008476,0 C17.2056128,0.0337600354 20.3679944,2.74347487 20.8975919,6.54209614 C21.2275716,8.90903055 20.570938,11.0344647 18.8888784,12.7555027 C16.4743509,15.2259993 13.992943,17.6323084 11.5398588,20.0657849 C10.7713558,20.8281752 10.0152056,21.6033522 9.2305125,22.3490074 C7.6546575,23.8464394 5.79132658,24.3144073 3.72095883,23.6458714 C1.677928,22.986174 0.449960576,21.5275008 0.0862848617,19.4360803 C-0.224325103,17.6499129 0.309036683,16.0714133 1.599572,14.7798016 C3.82471479,12.5527976 6.06849636,10.3440862 8.30453004,8.12773175 C9.220718,7.21961543 10.1319722,6.30650028 11.0547385,5.40497657 C11.9578794,4.52265119 13.0402449,4.23072818 14.2507065,4.59401094 C15.4644208,4.95827172 16.2044904,5.80176581 16.4334552,7.0380646 C16.6055169,7.96715419 16.3781967,8.8198852 15.7694757,9.55949108 C15.6780725,9.6705515 15.5772769,9.77469327 15.4749462,9.87622697 C12.9001251,12.4298921 10.3274602,14.9857307 7.74251565,17.5292895 C7.56826122,17.7007341 7.31280015,17.8359916 7.07320029,17.8869215 C6.69819511,17.9666488 6.34840711,17.7460131 6.17795354,17.4165628 C6.00446658,17.0812806 6.05903075,16.6782248 6.31935254,16.3897792 C6.37969108,16.3229474 6.44573086,16.2611143 6.50979715,16.197615 C9.06601604,13.6635829 11.6210289,11.1283915 14.1801349,8.59725724 C14.514281,8.2667565 14.7027886,7.89191855 14.6422673,7.41663356 C14.5775066,6.90813189 14.2976324,6.55068106 13.8258517,6.36083512 C13.341901,6.16609904 12.8847024,6.24799975 12.4754895,6.57219766 C12.4190981,6.61686092 12.368554,6.66913101 12.3173522,6.71987975 C9.17788533,9.83156372 6.03662765,12.941509 2.90041343,16.0563806 C1.72587718,17.2229497 1.49830122,18.9867673 2.32831218,20.3662203 C3.53383997,22.369727 6.25254525,22.719571 7.92842843,21.0730441 C9.78174561,19.2522111 11.6209923,17.4173235 13.4663058,15.5884489 C14.7797924,14.2866585 16.0952525,12.986788 17.4058884,11.6822084 C18.5909135,10.5026352 19.1656096,9.07627317 19.1432796,7.4123954 C19.1062579,4.65367055 16.9213164,2.2236715 14.1553563,1.87433469 C12.2231349,1.6302988 10.5564249,2.18907834 9.17598486,3.54846365 C7.09980622,5.59297508 5.03371447,7.64752039 2.9665994,9.7010514 C2.7135504,9.9524406 2.43257975,10.0958121 2.0676249,10.0294512 C1.42509825,9.9126675 1.11079704,9.19544758 1.46822329,8.65412765 C1.52709993,8.56498227 1.60322661,8.48536361 1.67964565,8.40954842 C3.75469133,6.35119972 5.82681329,4.28988067 7.908145,2.23779858 C9.41203972,0.755000743 11.2366678,0.0230379823 13.0008476,0 Z" transform="translate(554 792)"/>
  </g>
</svg>
