<svg xmlns="http://www.w3.org/2000/svg" width="24" height="24" viewBox="0 0 24 24">
  <path fill="#555" d="M5.76370324,10.5790147 C5.49453017,10.8514448 5.05815971,10.8513989 4.78904255,10.5789122 C4.51992538,10.3064255 4.5199707,9.86468321 4.78914377,9.59225313 L10.818418,3.49869904 C12.1814954,2.44408585 13.5494163,1.93657406 14.9102348,2.00632825 C16.6258309,2.09426799 17.9624193,2.74818649 19.0955255,3.82083609 C20.2517135,4.91533596 21,6.4761857 21,8.36786284 C21,9.82020638 20.5777556,11.0982542 19.6873382,12.2322297 L11.1836977,20.992369 C10.3230646,21.6971651 9.36800034,22.0383772 8.34464483,21.9965751 C7.04447205,21.9434657 6.07689721,21.5225003 5.35751064,20.812055 C4.51566307,19.9806708 4,18.9595407 4,17.586809 C4,16.4947997 4.37673374,15.4871176 5.15464506,14.5414674 L12.6390133,6.89886776 C13.2397414,6.25929091 13.8262525,5.87857385 14.4260788,5.78745695 C15.2592435,5.66089468 16.0630715,5.94799237 16.625324,6.54188726 C17.1582899,7.10484729 17.3863791,7.80668361 17.3061508,8.60631594 C17.2514821,9.15119754 17.0282081,9.65301591 16.6180011,10.1336293 L9.73878241,17.1818274 C9.47126126,17.4559198 9.0348987,17.4585772 8.76413935,17.1877628 C8.49338001,16.9169484 8.49075494,16.475214 8.75827609,16.2011216 L15.6050596,9.18854878 C15.8043212,8.95383296 15.9095414,8.71734597 15.9348274,8.46532072 C15.9749133,8.06578671 15.8787672,7.76994273 15.6301718,7.507357 C15.3740282,7.23679814 15.015784,7.10884654 14.6306257,7.16735419 C14.3867692,7.20439732 14.0466923,7.42514859 13.6279193,7.87078347 L6.17468228,15.4778958 C5.63824791,16.1329762 5.37837838,16.8280715 5.37837838,17.586809 C5.37837838,18.5407878 5.72343307,19.2240746 6.32004074,19.813267 C6.79545562,20.2827729 7.43985667,20.5631342 8.4002189,20.6023631 C9.07923469,20.6300995 9.70937629,20.4049713 10.2584903,19.9611447 L18.6548885,11.3108071 C19.300384,10.4840434 19.6216216,9.51172274 19.6216216,8.36786284 C19.6216216,6.88582368 19.045304,5.68368344 18.1540647,4.83999601 C17.243984,3.97847246 16.2042594,3.46979297 14.840529,3.39988952 C13.8332737,3.34825863 12.7755553,3.74068233 11.7242026,4.5463929 L5.76370324,10.5790147 Z"/>
</svg>
