<svg xmlns="http://www.w3.org/2000/svg" width="24" height="24" viewBox="0 0 24 24">
  <g fill="none" fill-rule="evenodd" transform="translate(-408 -600)">
    <path fill="#555" fill-rule="nonzero" d="M12,23 C5.92486775,23 1,18.0751322 1,12 C1,5.92486775 5.92486775,1 12,1 C18.0751322,1 23,5.92486775 23,12 C23,18.0751322 18.0751322,23 12,23 Z M12,21.4651163 C17.2274394,21.4651163 21.4651163,17.2274394 21.4651163,12 C21.4651163,6.77256062 17.2274394,2.53488372 12,2.53488372 C6.77256062,2.53488372 2.53488372,6.77256062 2.53488372,12 C2.53488372,17.2274394 6.77256062,21.4651163 12,21.4651163 Z M9.11172563,7.75 C9.11172563,7.33578644 9.44751207,7 9.86172563,7 C10.2759392,7 10.6117256,7.33578644 10.6117256,7.75 L10.6117256,15.749304 C10.6117256,16.1635175 10.2759392,16.499304 9.86172563,16.499304 C9.44751207,16.499304 9.11172563,16.1635175 9.11172563,15.749304 L9.11172563,7.75 Z M14.1117256,7.75 C14.1117256,7.33578644 14.4475121,7 14.8617256,7 C15.2759392,7 15.6117256,7.33578644 15.6117256,7.75 L15.6117256,15.749304 C15.6117256,16.1635175 15.2759392,16.499304 14.8617256,16.499304 C14.4475121,16.499304 14.1117256,16.1635175 14.1117256,15.749304 L14.1117256,7.75 Z" transform="translate(408 600)"/>
  </g>
</svg>
