<svg xmlns="http://www.w3.org/2000/svg" width="24" height="24" viewBox="0 0 24 24">
  <g fill="none" fill-rule="evenodd" transform="translate(-452 -596)">
    <path fill="#555" fill-rule="nonzero" d="M12,24 C5.372583,24 0,18.627417 0,12 C0,5.372583 5.372583,0 12,0 C18.627417,0 24,5.372583 24,12 C24,18.627417 18.627417,24 12,24 Z M9,7.65217391 L9,16.3478261 C9,16.7080118 9.33578644,17 9.75,17 C10.1642136,17 10.5,16.7080118 10.5,16.3478261 L10.5,7.65217391 C10.5,7.29198821 10.1642136,7 9.75,7 C9.33578644,7 9,7.29198821 9,7.65217391 Z M14,7.65217391 L14,16.3478261 C14,16.7080118 14.3357864,17 14.75,17 C15.1642136,17 15.5,16.7080118 15.5,16.3478261 L15.5,7.65217391 C15.5,7.29198821 15.1642136,7 14.75,7 C14.3357864,7 14,7.29198821 14,7.65217391 Z" transform="translate(452 596)"/>
  </g>
</svg>
