<svg xmlns="http://www.w3.org/2000/svg" width="24" height="24" viewBox="0 0 24 24">
  <g fill="none" fill-rule="evenodd" transform="translate(-360 -600)">
    <path fill="#555" fill-rule="nonzero" d="M0,0.95 C0,0.425329488 0.44771525,0 1,0 C1.55228475,0 2,0.425329488 2,0.95 L2,18.05 C2,18.5746705 1.55228475,19 1,19 C0.44771525,19 0,18.5746705 0,18.05 L0,0.95 Z M10,0.95 C10,0.425329488 10.4477153,0 11,0 C11.5522847,0 12,0.425329488 12,0.95 L12,18.05 C12,18.5746705 11.5522847,19 11,19 C10.4477153,19 10,18.5746705 10,18.05 L10,0.95 Z" transform="translate(366 603)"/>
  </g>
</svg>
