<svg xmlns="http://www.w3.org/2000/svg" width="24" height="24" viewBox="0 0 24 24">
  <path fill="#555" d="M12,22 C6.4771525,22 2,17.5228475 2,12 C2,6.4771525 6.4771525,2 12,2 C17.5228475,2 22,6.4771525 22,12 C22,17.5228475 17.5228475,22 12,22 Z M12,20.6046512 C16.7522176,20.6046512 20.6046512,16.7522176 20.6046512,12 C20.6046512,7.24778239 16.7522176,3.39534884 12,3.39534884 C7.24778239,3.39534884 3.39534884,7.24778239 3.39534884,12 C3.39534884,16.7522176 7.24778239,20.6046512 12,20.6046512 Z M9.37429603,8.13636364 C9.37429603,7.75980585 9.67955643,7.45454545 10.0561142,7.45454545 C10.432672,7.45454545 10.7379324,7.75980585 10.7379324,8.13636364 L10.7379324,15.4084582 C10.7379324,15.7850159 10.432672,16.0902763 10.0561142,16.0902763 C9.67955643,16.0902763 9.37429603,15.7850159 9.37429603,15.4084582 L9.37429603,8.13636364 Z M13.9197506,8.13636364 C13.9197506,7.75980585 14.225011,7.45454545 14.6015688,7.45454545 C14.9781265,7.45454545 15.2833869,7.75980585 15.2833869,8.13636364 L15.2833869,15.4084582 C15.2833869,15.7850159 14.9781265,16.0902763 14.6015688,16.0902763 C14.225011,16.0902763 13.9197506,15.7850159 13.9197506,15.4084582 L13.9197506,8.13636364 Z"/>
</svg>
