<svg xmlns="http://www.w3.org/2000/svg" width="24" height="24" viewBox="0 0 24 24">
  <g fill="none" fill-rule="evenodd" transform="translate(-360 -600)">
    <path fill="#555" fill-rule="nonzero" d="M6,4.74159135 C6,4.33202176 6.32244282,4 6.72019619,4 C7.11794957,4 7.44039239,4.33202176 7.44039239,4.74159135 L7.44039239,19.214695 C7.44039239,19.6242646 7.11794957,19.9562863 6.72019619,19.9562863 C6.32244282,19.9562863 6,19.6242646 6,19.214695 L6,4.74159135 Z M15.5596076,4.78530501 C15.5596076,4.37573542 15.8820504,4.04371366 16.2798038,4.04371366 C16.6775572,4.04371366 17,4.37573542 17,4.78530501 L17,19.2584086 C17,19.6679782 16.6775572,20 16.2798038,20 C15.8820504,20 15.5596076,19.6679782 15.5596076,19.2584086 L15.5596076,4.78530501 Z" transform="translate(360 600)"/>
  </g>
</svg>
