<svg xmlns="http://www.w3.org/2000/svg" width="24" height="24" viewBox="0 0 24 24">
  <g fill="none" fill-rule="evenodd" transform="translate(-504 -936)">
    <path fill="#555" fill-rule="nonzero" d="M12,0 C9.828,0 7.82025,0.53525 5.97675,1.60575 C4.13325,2.67625 2.67625,4.13325 1.60575,5.97675 C0.53525,7.82025 0,9.828 0,12 C0,14.172 0.53525,16.17975 1.60575,18.02325 C2.67625,19.86675 4.13325,21.32375 5.97675,22.39425 C7.82025,23.46475 9.828,24 12,24 C14.172,24 16.17975,23.46475 18.02325,22.39425 C19.86675,21.32375 21.32375,19.86675 22.39425,18.02325 C23.46475,16.17975 24,14.172 24,12 C24,9.828 23.46475,7.82025 22.39425,5.97675 C21.32375,4.13325 19.86675,2.67625 18.02325,1.60575 C16.17975,0.53525 14.172,-8.8817842e-16 12,0 Z M19.28925,19.28925 C18.33625,20.24225 17.2425,20.97675 16.008,21.49275 C14.7425,22.03975 13.4065,22.31325 12,22.31325 C10.5935,22.31325 9.2575,22.03975 7.992,21.49275 C6.7575,20.97725 5.66375,20.24275 4.71075,19.28925 C3.75775,18.33575 3.02325,17.242 2.50725,16.008 C1.96025,14.7425 1.68675,13.4065 1.68675,12 C1.68675,10.5935 1.96025,9.2575 2.50725,7.992 C3.02275,6.7575 3.75725,5.66375 4.71075,4.71075 C5.66425,3.75775 6.758,3.02325 7.992,2.50725 C9.2575,1.96025 10.5935,1.68675 12,1.68675 C13.4065,1.68675 14.7425,1.96025 16.008,2.50725 C17.2425,3.02275 18.33625,3.75725 19.28925,4.71075 C20.24225,5.66425 20.97675,6.758 21.49275,7.992 C22.03975,9.2575 22.31325,10.5935 22.31325,12 C22.31325,13.4065 22.03975,14.7425 21.49275,16.008 C20.97725,17.2425 20.24275,18.33625 19.28925,19.28925 Z M16.4535,10.242 L12.53925,10.242 C12.55475,10.242 12.5705,10.23425 12.5865,10.21875 L15.3525,7.45275 C15.5245,7.29625 15.6105,7.101 15.6105,6.867 C15.6105,6.633 15.5285,6.43375 15.3645,6.26925 C15.2005,6.10475 15.00125,6.02275 14.76675,6.02325 C14.53225,6.02375 14.329,6.10975 14.157,6.28125 L12.00075,8.4375 L9.82125,6.258 C9.64925,6.1015 9.446,6.02325 9.2115,6.02325 C8.977,6.02325 8.77775,6.10525 8.61375,6.26925 C8.44975,6.43325 8.36775,6.6325 8.36775,6.867 C8.36775,7.1015 8.45375,7.30475 8.62575,7.47675 L11.39175,10.24275 L11.439,10.266 L7.548,10.266 C7.329,10.266 7.1375,10.348 6.9735,10.512 C6.8095,10.676 6.7275,10.8675 6.7275,11.0865 L6.7275,11.157 C6.7275,11.376 6.80575,11.5635 6.96225,11.7195 C7.11875,11.8755 7.314,11.95375 7.548,11.95425 L11.15775,11.95425 L11.15775,13.45425 L8.27475,13.45425 C8.07175,13.45425 7.892,13.53625 7.7355,13.70025 C7.579,13.86425 7.50075,14.05575 7.50075,14.27475 L7.50075,14.3685 C7.50075,14.5875 7.575,14.771 7.7235,14.919 C7.872,15.067 8.0555,15.14125 8.274,15.14175 L11.157,15.14175 L11.157,18.63375 C11.157,18.86825 11.239,19.0675 11.403,19.2315 C11.567,19.3955 11.76625,19.4775 12.00075,19.4775 C12.23525,19.4775 12.4345,19.3955 12.5985,19.2315 C12.7625,19.0675 12.8445,18.86825 12.8445,18.63375 L12.8445,15.14175 L15.70425,15.14175 C15.92325,15.14175 16.11475,15.0675 16.27875,14.919 C16.44275,14.7705 16.52475,14.587 16.52475,14.3685 L16.52475,14.27475 C16.52475,14.05575 16.44275,13.86425 16.27875,13.70025 C16.11475,13.53625 15.92325,13.45425 15.70425,13.45425 L12.8445,13.45425 L12.8445,11.95425 L16.45425,11.95425 C16.67325,11.95425 16.86475,11.88 17.02875,11.7315 C17.19275,11.583 17.27475,11.3995 17.27475,11.181 L17.27475,11.08725 C17.27475,10.86825 17.19275,10.673 17.02875,10.5015 C16.86475,10.33 16.67325,10.244 16.45425,10.2435 L16.4535,10.242 Z" transform="translate(504 936)"/>
  </g>
</svg>
