<svg xmlns="http://www.w3.org/2000/svg" width="20" height="20" viewBox="0 0 20 20">
  <path fill="#555" d="M10,20 C4.4771525,20 0,15.5228475 0,10 C0,4.4771525 4.4771525,0 10,0 C15.5228475,0 20,4.4771525 20,10 C20,15.5228475 15.5228475,20 10,20 Z M10,18.6046512 C14.7522176,18.6046512 18.6046512,14.7522176 18.6046512,10 C18.6046512,5.24778239 14.7522176,1.39534884 10,1.39534884 C5.24778239,1.39534884 1.39534884,5.24778239 1.39534884,10 C1.39534884,14.7522176 5.24778239,18.6046512 10,18.6046512 Z M11.9734818,5.10759883 C12.2476054,4.83681502 12.6893401,4.83952243 12.9601239,5.113646 C13.2309077,5.38776957 13.2282003,5.82950428 12.9540768,6.10028809 L10.4902975,8.53405014 C10.2161506,8.80485699 9.77437023,8.80212272 9.50359637,8.52794323 L7.10006446,6.09418119 C6.82931364,5.82002503 6.83207421,5.37829065 7.10623036,5.10753983 C7.38038652,4.83678901 7.8221209,4.83954958 8.09287172,5.11370573 L10.0061069,7.05100441 L11.9734818,5.10759883 Z M6.20216288,9.9367431 C5.81684794,9.9367431 5.50448846,9.62438362 5.50448846,9.23906868 C5.50448846,8.85375374 5.81684794,8.54139426 6.20216288,8.54139426 L13.8431216,8.54139426 C14.2284365,8.54139426 14.540796,8.85375374 14.540796,9.23906868 C14.540796,9.62438362 14.2284365,9.9367431 13.8431216,9.9367431 L6.20216288,9.9367431 Z M6.78622957,12.7274408 C6.40091462,12.7274408 6.08855515,12.4150813 6.08855515,12.0297664 C6.08855515,11.6444514 6.40091462,11.3320919 6.78622957,11.3320919 L13.1680539,11.3320919 C13.5533689,11.3320919 13.8657284,11.6444514 13.8657284,12.0297664 C13.8657284,12.4150813 13.5533689,12.7274408 13.1680539,12.7274408 L6.78622957,12.7274408 Z M9.33432981,8.00757457 C9.33432981,7.62225963 9.64668929,7.30990015 10.0320042,7.30990015 C10.4173192,7.30990015 10.7296787,7.62225963 10.7296787,8.00757457 L10.7296787,15.6288062 C10.7296787,16.0141211 10.4173192,16.3264806 10.0320042,16.3264806 C9.64668929,16.3264806 9.33432981,16.0141211 9.33432981,15.6288062 L9.33432981,8.00757457 Z"/>
</svg>
