<svg xmlns="http://www.w3.org/2000/svg" width="24" height="24" viewBox="0 0 24 24">
  <g fill="none" fill-rule="evenodd" transform="translate(-504 -936)">
    <path fill="#555" fill-rule="nonzero" d="M12,23 C5.92486775,23 1,18.0751322 1,12 C1,5.92486775 5.92486775,1 12,1 C18.0751322,1 23,5.92486775 23,12 C23,18.0751322 18.0751322,23 12,23 Z M12,21.4651163 C17.2274394,21.4651163 21.4651163,17.2274394 21.4651163,12 C21.4651163,6.77256062 17.2274394,2.53488372 12,2.53488372 C6.77256062,2.53488372 2.53488372,6.77256062 2.53488372,12 C2.53488372,17.2274394 6.77256062,21.4651163 12,21.4651163 Z M14.17083,6.61835871 C14.472366,6.32049652 14.9582741,6.32347467 15.2561363,6.6250106 C15.5539985,6.92654653 15.5510204,7.41245471 15.2494844,7.7103169 L12.5393272,10.3874552 C12.2377656,10.6853427 11.7518072,10.682335 11.453956,10.3807376 L8.8100709,7.7035993 C8.512245,7.40202753 8.51528163,6.91611971 8.8168534,6.61829381 C9.11842517,6.32046791 9.60433299,6.32350454 9.90215889,6.62507631 L12.0067176,8.75610485 L14.17083,6.61835871 Z M7.82237916,11.9304174 C7.39853273,11.9304174 7.0549373,11.586822 7.0549373,11.1629755 C7.0549373,10.7391291 7.39853273,10.3955337 7.82237916,10.3955337 L16.2274337,10.3955337 C16.6512802,10.3955337 16.9948756,10.7391291 16.9948756,11.1629755 C16.9948756,11.586822 16.6512802,11.9304174 16.2274337,11.9304174 L7.82237916,11.9304174 Z M8.46485252,15.0001848 C8.04100609,15.0001848 7.69741066,14.6565894 7.69741066,14.232743 C7.69741066,13.8088966 8.04100609,13.4653011 8.46485252,13.4653011 L15.4848593,13.4653011 C15.9087058,13.4653011 16.2523012,13.8088966 16.2523012,14.232743 C16.2523012,14.6565894 15.9087058,15.0001848 15.4848593,15.0001848 L8.46485252,15.0001848 Z M11.2677628,9.80833203 C11.2677628,9.38448559 11.6113582,9.04089017 12.0352047,9.04089017 C12.4590511,9.04089017 12.8026465,9.38448559 12.8026465,9.80833203 L12.8026465,18.1916868 C12.8026465,18.6155332 12.4590511,18.9591287 12.0352047,18.9591287 C11.6113582,18.9591287 11.2677628,18.6155332 11.2677628,18.1916868 L11.2677628,9.80833203 Z" transform="translate(504 936)"/>
  </g>
</svg>
