<svg xmlns="http://www.w3.org/2000/svg" width="24" height="24" viewBox="0 0 24 24">
  <path fill="#555" d="M12,22 C6.4771525,22 2,17.5228475 2,12 C2,6.4771525 6.4771525,2 12,2 C17.5228475,2 22,6.4771525 22,12 C22,17.5228475 17.5228475,22 12,22 Z M12,20.6046512 C16.7522176,20.6046512 20.6046512,16.7522176 20.6046512,12 C20.6046512,7.24778239 16.7522176,3.39534884 12,3.39534884 C7.24778239,3.39534884 3.39534884,7.24778239 3.39534884,12 C3.39534884,16.7522176 7.24778239,20.6046512 12,20.6046512 Z M13.9734818,7.10759883 C14.2476054,6.83681502 14.6893401,6.83952243 14.9601239,7.113646 C15.2309077,7.38776957 15.2282003,7.82950428 14.9540768,8.10028809 L12.4902975,10.5340501 C12.2161506,10.804857 11.7743702,10.8021227 11.5035964,10.5279432 L9.10006446,8.09418119 C8.82931364,7.82002503 8.83207421,7.37829065 9.10623036,7.10753983 C9.38038652,6.83678901 9.8221209,6.83954958 10.0928717,7.11370573 L12.0061069,9.05100441 L13.9734818,7.10759883 Z M8.20216288,11.9367431 C7.81684794,11.9367431 7.50448846,11.6243836 7.50448846,11.2390687 C7.50448846,10.8537537 7.81684794,10.5413943 8.20216288,10.5413943 L15.8431216,10.5413943 C16.2284365,10.5413943 16.540796,10.8537537 16.540796,11.2390687 C16.540796,11.6243836 16.2284365,11.9367431 15.8431216,11.9367431 L8.20216288,11.9367431 Z M8.78622957,14.7274408 C8.40091462,14.7274408 8.08855515,14.4150813 8.08855515,14.0297664 C8.08855515,13.6444514 8.40091462,13.3320919 8.78622957,13.3320919 L15.1680539,13.3320919 C15.5533689,13.3320919 15.8657284,13.6444514 15.8657284,14.0297664 C15.8657284,14.4150813 15.5533689,14.7274408 15.1680539,14.7274408 L8.78622957,14.7274408 Z M11.3343298,10.0075746 C11.3343298,9.62225963 11.6466893,9.30990015 12.0320042,9.30990015 C12.4173192,9.30990015 12.7296787,9.62225963 12.7296787,10.0075746 L12.7296787,17.6288062 C12.7296787,18.0141211 12.4173192,18.3264806 12.0320042,18.3264806 C11.6466893,18.3264806 11.3343298,18.0141211 11.3343298,17.6288062 L11.3343298,10.0075746 Z"/>
</svg>
