<svg xmlns="http://www.w3.org/2000/svg" width="24" height="24" viewBox="0 0 24 24">
  <g fill="none" fill-rule="evenodd" transform="translate(-432 -720)">
    <path fill="#555" fill-rule="nonzero" d="M19.7008785,21 L2.57124491,21 C1.15363188,21 1.90310353e-16,19.8260653 1.90310353e-16,18.3835036 L0,2.61649639 C0,1.17393471 1.15363188,0 2.57124491,0 L19.77973,0 C21.197343,0 22.3509749,1.17393471 22.3509749,2.61649639 L22.3509749,5.17979068 C22.3509749,5.66122602 21.9678594,6.05195614 21.4938933,6.05195614 C21.0199271,6.05195614 20.6368117,5.66122602 20.6368117,5.17979068 L20.6368117,2.61649639 C20.6368117,2.13593322 20.2528391,1.74433092 19.77973,1.74433092 L2.57124491,1.74433092 C2.09899293,1.74433092 1.71416327,2.13593322 1.71416327,2.61649639 L1.71416327,18.3835036 C1.71416327,18.8649389 2.09899293,19.2556691 2.57124491,19.2556691 L19.7008785,19.2556691 C20.1739876,19.2556691 20.5579601,18.8649389 20.5579601,18.3835036 L20.5579601,15.686768 C20.5579601,15.2044605 20.9410756,14.8146025 21.4150418,14.8146025 C21.8890079,14.8146025 22.2721234,15.2044605 22.2721234,15.686768 L22.2721234,18.3835036 C22.2721234,19.8260653 21.1193486,21 19.7008785,21 Z M15.1652025,10.4703464 C15.1652025,10.9419147 15.5408727,11.3241964 16.0042854,11.3241964 C16.4676981,11.3241964 16.8433683,10.9419147 16.8433683,10.4703464 C16.8433683,9.99877805 16.4676981,9.61649639 16.0042854,9.61649639 C15.5408727,9.61649639 15.1652025,9.99877805 15.1652025,10.4703464 L15.1652025,10.4703464 Z M22.2858367,13.9014453 L13.7150204,13.9014453 C12.7696593,13.9014453 12.0008571,13.1191129 12.0008571,12.1571144 L12.0008571,8.66845253 C12.0008571,7.70645402 12.7696593,6.9241216 13.7150204,6.9241216 L22.2858367,6.9241216 C23.2311978,6.9241216 24,7.70645402 24,8.66845253 L24,12.1571144 C24,13.1191129 23.2311978,13.9014453 22.2858367,13.9014453 Z M13.7150204,8.66845253 L13.7150204,12.1571144 L22.2875509,12.1571144 L22.2858367,8.66845253 L13.7150204,8.66845253 Z" transform="translate(432 722)"/>
  </g>
</svg>
