<svg xmlns="http://www.w3.org/2000/svg" width="24" height="24" viewBox="0 0 24 24">
  <path fill="#555" d="M13.6708039,11.0371684 C13.503528,11.0371684 13.367924,11.1696975 13.367924,11.3331805 L13.367924,13.5445245 C13.367924,13.7080074 13.503528,13.8405366 13.6708039,13.8405366 L20.3341608,13.8405366 C20.5014367,13.8405366 20.6370406,13.7080074 20.6370406,13.5445245 L20.6370406,11.3331805 C20.6370406,11.1696975 20.5014367,11.0371684 20.3341608,11.0371684 L13.6708039,11.0371684 Z M13.6708039,9.70511411 L20.3341608,9.70511411 C21.2541784,9.70511411 22,10.4340242 22,11.3331805 L22,13.5445245 C22,14.4436807 21.2541784,15.1725908 20.3341608,15.1725908 L13.6708039,15.1725908 C12.7507863,15.1725908 12.0049647,14.4436807 12.0049647,13.5445245 L12.0049647,11.3331805 C12.0049647,10.4340242 12.7507863,9.70511411 13.6708039,9.70511411 Z M15.3366431,13.2513449 C15.7966519,13.2513449 16.1695627,12.891623 16.1695627,12.4478835 C16.1695627,12.0041441 15.7966519,11.6444222 15.3366431,11.6444222 C14.8766343,11.6444222 14.5037235,12.0041441 14.5037235,12.4478835 C14.5037235,12.891623 14.8766343,13.2513449 15.3366431,13.2513449 Z M19.0681464,16.3333741 C19.0681464,15.9655375 19.3732552,15.667347 19.7496261,15.667347 C20.1259969,15.667347 20.4311058,15.9655375 20.4311058,16.3333741 L20.4311058,18.3775168 C20.4311058,19.2789214 20.2469047,19.9513334 19.8161279,20.388207 C19.3720469,20.8385731 18.6660308,21.0176989 17.7229752,20.9986323 L4.54049252,20.9939853 C3.64331868,20.8898604 2.99906044,20.6434145 2.61705831,20.191125 C2.27004855,19.7802664 2.0762555,19.1962788 2,18.3775168 L2.00000141,6.54368747 C2.0018237,5.66803158 2.2117168,5.00922393 2.69354044,4.59666765 C3.13629026,4.2175679 3.77311668,4.0316328 4.62085458,4 L17.7560704,4.00078586 C18.6780043,4.04459492 19.3414965,4.22693705 19.7606859,4.61278254 C20.1758315,4.99490586 20.389343,5.54833287 20.4311058,6.280032 L20.4311058,8.37677957 C20.4311058,8.7446162 20.1259969,9.04280671 19.7496261,9.04280671 C19.3732552,9.04280671 19.0681464,8.7446162 19.0681464,8.37677957 L19.0692614,6.31811561 C19.0469311,5.93707152 18.9563297,5.70223037 18.8262275,5.58247698 C18.7001691,5.46644576 18.3166736,5.36105282 17.7229752,5.33205429 L4.64726556,5.33155392 C4.1095373,5.35193653 3.76087307,5.45373651 3.59169679,5.59859187 C3.46159434,5.7099907 3.36406148,6.01612459 3.36295936,6.54504207 L3.35992655,18.3147515 C3.40976422,18.8293067 3.52339713,19.1717349 3.66817892,19.3431562 C3.77796835,19.4731466 4.11920075,19.603677 4.62085458,19.6665781 L17.7369661,19.6667184 C18.3509087,19.6790396 18.7131902,19.5871239 18.8347153,19.4638789 C18.9695445,19.3271414 19.0681464,18.9672026 19.0681464,18.3775168 L19.0681464,16.3333741 Z"/>
</svg>
