<svg xmlns="http://www.w3.org/2000/svg" width="24" height="24" viewBox="0 0 24 24">
  <g fill="none" fill-rule="evenodd" transform="translate(-360 -792)">
    <path fill="#555" fill-rule="nonzero" d="M13.8378843,8.86507056 C13.6538808,8.86507056 13.5047164,9.01319134 13.5047164,9.19590758 L13.5047164,11.6674097 C13.5047164,11.850126 13.6538808,11.9982467 13.8378843,11.9982467 L21.1675769,11.9982467 C21.3515804,11.9982467 21.5007447,11.850126 21.5007447,11.6674097 L21.5007447,9.19590758 C21.5007447,9.01319134 21.3515804,8.86507056 21.1675769,8.86507056 L13.8378843,8.86507056 Z M13.8378843,7.37630401 L21.1675769,7.37630401 C22.1795962,7.37630401 23,8.19096828 23,9.19590758 L23,11.6674097 C23,12.672349 22.1795962,13.4870133 21.1675769,13.4870133 L13.8378843,13.4870133 C12.8258649,13.4870133 12.0054611,12.672349 12.0054611,11.6674097 L12.0054611,9.19590758 C12.0054611,8.19096828 12.8258649,7.37630401 13.8378843,7.37630401 Z M15.6703074,11.3397384 C16.1763171,11.3397384 16.586519,10.9376963 16.586519,10.4417522 C16.586519,9.94580812 16.1763171,9.54376602 15.6703074,9.54376602 C15.1642977,9.54376602 14.7540959,9.94580812 14.7540959,10.4417522 C14.7540959,10.9376963 15.1642977,11.3397384 15.6703074,11.3397384 Z M19.774961,14.7843593 C19.774961,14.3732477 20.1105808,14.039976 20.5245887,14.039976 C20.9385966,14.039976 21.2742163,14.3732477 21.2742163,14.7843593 L21.2742163,17.0689894 C21.2742163,18.0764416 21.0715952,18.8279608 20.5977407,19.3162313 C20.1092516,19.8195817 19.3326339,20.0197811 18.2952727,19.9984714 L3.79454177,19.9932777 C2.80765054,19.8769028 2.09896649,19.6014632 1.67876414,19.0959632 C1.29705341,18.6367683 1.08388105,17.9840763 1,17.0689894 L1.00000155,3.84294481 C1.00200607,2.86427059 1.23288848,2.12795616 1.76289449,1.66686384 C2.24991929,1.24316413 2.95042835,1.03535431 3.88294004,1 L18.3316774,1.00087831 C19.3458047,1.04984138 20.0756461,1.25363553 20.5367545,1.68487461 C20.9934146,2.11195361 21.2282773,2.73048968 21.2742163,3.54827106 L21.2742163,5.89169481 C21.2742163,6.30280634 20.9385966,6.63607809 20.5245887,6.63607809 C20.1105808,6.63607809 19.774961,6.30280634 19.774961,5.89169481 L19.7761875,3.5908351 C19.7516243,3.16496229 19.6519627,2.90249276 19.5088502,2.76865074 C19.370186,2.6389688 18.9483409,2.52117668 18.2952727,2.48876655 L3.91199212,2.48820732 C3.32049103,2.51098789 2.93696038,2.62476434 2.75086647,2.78666151 C2.60775377,2.91116607 2.50046763,3.25331572 2.4992553,3.84445879 L2.4959192,16.9988399 C2.55074065,17.573931 2.67573685,17.9566449 2.83499682,18.1482334 C2.95576518,18.2935167 3.33112083,18.4394037 3.88294004,18.5097049 L18.3106627,18.5098618 C18.9859995,18.5236325 19.3845092,18.4209032 19.5181868,18.2831588 C19.6664989,18.1303345 19.774961,17.72805 19.774961,17.0689894 L19.774961,14.7843593 Z" transform="translate(360 794)"/>
  </g>
</svg>
