<svg xmlns="http://www.w3.org/2000/svg" width="24" height="24" viewBox="0 0 24 24">
  <g fill="none" fill-rule="evenodd" transform="translate(-596 -1100)">
    <path fill="#555" d="M16.9470769,1.07538462 L16.9470769,9.07723077 C16.5372308,8.70461538 8.12584615,1.07015385 7.80861538,0.782153846 C9.16215385,0.275076923 10.5686154,0 11.9993846,0 C13.7178462,0 15.3818462,0.364 16.9470769,1.07538462 Z M5.82276923,22.2483077 C3.58215385,20.8938462 1.82646154,18.8483077 0.864615385,16.4363077 C1.00276923,16.3116923 5.42184615,12.2963077 5.82276923,11.9310769 L5.82276923,22.2483077 Z M0,12 C0,7.47538462 2.50276923,3.39846154 6.53107692,1.33107692 C6.668,1.45507692 10.8695385,5.26892308 11.0723077,5.45353846 C10.8646154,5.64276923 0.761230769,14.8224615 0.435692308,15.1175385 C0.155384615,14.0790769 0,13.0307692 0,12 Z M7.08276923,17.216 C7.34061538,17.216 22.3458462,17.216 22.7790769,17.2156923 C20.9403077,21.0076923 17.2396923,23.5630769 13.0947692,23.9495385 L10.8913846,23.9495385 C9.57846154,23.8283077 8.30276923,23.4870769 7.08276923,22.9406154 L7.08276923,17.216 Z M18.212,1.76338462 C21.7827692,3.93661538 24,7.82984615 24,12 C24,13.3433846 23.7661538,14.6723077 23.3190769,15.9513846 L18.212,15.9513846 L18.212,1.76338462 Z" transform="translate(596 1100)"/>
  </g>
</svg>
