<svg xmlns="http://www.w3.org/2000/svg" width="24" height="24" viewBox="0 0 24 24">
  <path fill="#555" fill-rule="evenodd" d="M16.1225641,2.89804204 L16.1225641,9.58029703 C15.7810256,9.26912997 8.77153846,2.89367388 8.50717949,2.6531682 C9.63512821,2.22971376 10.8071795,2 11.9994872,2 C13.4315385,2 14.8182051,2.30397245 16.1225641,2.89804204 Z M6.85230769,20.5793206 C4.98512821,19.4482245 3.52205128,17.7400175 2.72051282,15.7257824 C2.83564103,15.6217175 6.51820513,12.2685133 6.85230769,11.963513 L6.85230769,20.5793206 Z M2,12.0210699 C2,8.24261267 4.08564103,4.8380184 7.4425641,3.11156791 C7.55666667,3.21511897 11.0579487,6.40002056 11.2269231,6.55419086 C11.0538462,6.71221543 2.63435897,14.378077 2.36307692,14.6244925 C2.12948718,13.7572845 2,12.8818542 2,12.0210699 Z M7.90230769,16.376895 C8.11717949,16.376895 20.6215385,16.376895 20.9825641,16.3766381 C19.4502564,19.5432962 16.3664103,21.6772702 12.9123077,22 L11.0761538,22 C9.98205128,21.8987615 8.91897436,21.6138034 7.90230769,21.1574593 L7.90230769,16.376895 Z M17.1766667,3.47258338 C20.1523077,5.28742484 22,8.53861966 22,12.0210699 C22,13.1429159 21.8051282,14.2526851 21.4325641,15.3208284 L17.1766667,15.3208284 L17.1766667,3.47258338 Z"/>
</svg>
