<svg xmlns="http://www.w3.org/2000/svg" width="24" height="24" viewBox="0 0 24 24">
  <g fill="none" fill-rule="evenodd" transform="translate(-600 -1104)">
    <path fill="#555" d="M16.5348205,1.98784624 L16.5348205,9.33832674 C16.1591282,8.99604296 8.44869231,1.98304127 8.15789744,1.71848502 C9.39864103,1.25268513 10.6878974,1 11.9994359,1 C13.5746923,1 15.1000256,1.3343697 16.5348205,1.98784624 Z M6.33753846,21.4372527 C4.28364103,20.1930469 2.67425641,18.3140192 1.7925641,16.0983607 C1.91920513,15.9838892 5.97002564,12.2953646 6.33753846,11.9598643 L6.33753846,21.4372527 Z M1,12.0231769 C1,7.86687394 3.29420513,4.12182024 6.98682051,2.2227247 C7.11233333,2.33663086 10.9637436,5.84002261 11.1496154,6.00960995 C10.9592308,6.18343697 1.69779487,14.6158847 1.39938462,14.8869418 C1.1424359,13.933013 1,12.9700396 1,12.0231769 Z M7.49253846,16.8145845 C7.72889744,16.8145845 21.4836923,16.8145845 21.8808205,16.8143019 C20.1952821,20.2976258 16.8030513,22.6449972 13.0035385,23 L10.9837692,23 C9.78025641,22.8886376 8.61087179,22.5751837 7.49253846,22.0732052 L7.49253846,16.8145845 Z M17.6943333,2.61984172 C20.9675385,4.61616733 23,8.19248163 23,12.0231769 C23,13.2572075 22.785641,14.4779536 22.3758205,15.6529112 L17.6943333,15.6529112 L17.6943333,2.61984172 Z" transform="translate(600 1104)"/>
  </g>
</svg>
