<svg xmlns="http://www.w3.org/2000/svg" width="24" height="24" viewBox="0 0 24 24">
  <path fill="#555" d="M2.90909091,4 L21.0909091,4 C21.5929861,4 22,4.39796911 22,4.88888889 L22,19.1111111 C22,19.6020309 21.5929861,20 21.0909091,20 L2.90909091,20 C2.40701386,20 2,19.6020309 2,19.1111111 L2,4.88888889 C2,4.39796911 2.40701386,4 2.90909091,4 Z M3.36244722,12.5609045 L6.96842818,8.9698622 C7.10609945,8.86625615 7.2524821,8.81445312 7.40757613,8.81445312 C7.56267016,8.81445312 7.69937041,8.86096747 7.81767689,8.95399616 L14.2491594,15.0423991 L17.0544045,12.6911214 C17.1877478,12.594062 17.3280547,12.5455322 17.4753252,12.5455322 C17.6225956,12.5455322 17.761728,12.594062 17.8927224,12.6911214 L20.634732,15.3555356 L20.634732,5.33114963 L3.36244722,5.33114963 L3.36244722,12.5609045 Z M3.35528564,14.4593235 L3.35528564,18.6760254 L20.6397145,18.6760254 L20.6397145,17.243208 L17.4396522,14.1229367 L14.6626905,16.4561124 C14.4973565,16.5726194 14.3372165,16.6241229 14.1822704,16.6106228 C14.0273243,16.5971228 13.8813994,16.5342746 13.7444957,16.4220785 L7.41498358,10.4165039 L3.35528564,14.4593235 Z M17.2726045,9.8952501 C16.5194889,9.8952501 15.9089681,9.29829643 15.9089681,8.56191676 C15.9089681,7.8255371 16.5194889,7.22858343 17.2726045,7.22858343 C18.0257201,7.22858343 18.6362408,7.8255371 18.6362408,8.56191676 C18.6362408,9.29829643 18.0257201,9.8952501 17.2726045,9.8952501 Z"/>
</svg>
