<svg xmlns="http://www.w3.org/2000/svg" width="24" height="24" viewBox="0 0 24 24">
  <g fill="none" fill-rule="evenodd" transform="translate(-192 -720)">
    <path fill="#555" fill-rule="nonzero" d="M1.4992,19.9850174 L22.4878353,19.9850174 C23.3120706,19.9850174 23.9870353,19.318676 23.9870353,18.504971 L23.9870353,1.48004646 C23.9870353,0.666318235 23.3120706,0 22.4878353,0 L1.4992,0 C0.674894118,0 0,0.666318235 0,1.48004646 L0,18.504971 C0,19.3186992 0.674941176,19.9850174 1.4992,19.9850174 Z M1.4992,18.5049942 L1.4992,14.1443438 L7.51567059,8.388223 L13.7181412,14.5049245 C13.9736235,14.8113821 14.4289176,14.7723577 14.7517647,14.530964 L17.4895294,12.0839954 L22.4277647,17.0878281 C22.4470353,17.1066202 22.4671294,17.1241347 22.4878353,17.140511 L22.4878353,18.504971 L1.49922353,18.504971 L1.4992,18.5049942 Z M22.4878118,1.48004646 L22.4878118,15.0294077 L18.0831765,10.5794193 C17.816,10.3192334 17.3972941,10.2925436 17.1008235,10.515842 L14.2766588,12.9447387 L8.07056471,6.88369338 C7.93807059,6.72541231 7.74625882,6.62861789 7.53912941,6.61558653 C7.33270588,6.60836237 7.12917647,6.67481998 6.97767059,6.81505226 L1.4992,12.0782346 L1.4992,1.48009292 L22.4878353,1.48009292 L22.4878118,1.48004646 Z M17.2407059,7.40545877 C18.0671294,7.40545877 18.7361882,6.74383275 18.7361882,5.92905923 C18.7361882,5.11461092 18.0671059,4.4529849 17.2407059,4.4529849 C16.4142118,4.4529849 15.7451294,5.11458769 15.7451294,5.92905923 C15.7451294,6.74385598 16.4142118,7.40545877 17.2407059,7.40545877 Z" transform="translate(192 722)"/>
  </g>
</svg>
