<svg xmlns="http://www.w3.org/2000/svg" width="24" height="24" viewBox="0 0 24 24">
  <g fill="none" fill-rule="evenodd" transform="translate(-120 -792)">
    <path fill="#555" fill-rule="nonzero" d="M2,3 L22,3 C22.5522847,3 23,3.44771525 23,4 L23,20 C23,20.5522847 22.5522847,21 22,21 L2,21 C1.44771525,21 1,20.5522847 1,20 L1,4 C1,3.44771525 1.44771525,3 2,3 Z M2.49869194,12.6310176 L6.465271,8.59109497 C6.61670939,8.47453817 6.77773031,8.41625977 6.94833374,8.41625977 C7.11893717,8.41625977 7.26930745,8.4685884 7.39944458,8.57324568 L14.4740753,15.422699 L17.559845,12.7775116 C17.7065226,12.6683197 17.8608602,12.6137238 18.0228577,12.6137238 C18.1848551,12.6137238 18.3379008,12.6683197 18.4819946,12.7775116 L21.4982051,15.7749776 L21.4982051,4.49754333 L2.49869194,4.49754333 L2.49869194,12.6310176 Z M2.49081421,14.7667389 L2.49081421,19.5105286 L21.503686,19.5105286 L21.503686,17.8986091 L17.9836174,14.3883038 L14.9289595,17.0131264 C14.7470921,17.1441968 14.5709381,17.2021383 14.4004974,17.1869507 C14.2300568,17.1717631 14.0695394,17.101059 13.9189453,16.9748383 L6.95648193,10.2185669 L2.49081421,14.7667389 Z M17.7998649,9.63215636 C16.9714378,9.63215636 16.2998649,8.96058348 16.2998649,8.13215636 C16.2998649,7.30372924 16.9714378,6.63215636 17.7998649,6.63215636 C18.6282921,6.63215636 19.2998649,7.30372924 19.2998649,8.13215636 C19.2998649,8.96058348 18.6282921,9.63215636 17.7998649,9.63215636 Z" transform="translate(120 792)"/>
  </g>
</svg>
