<svg xmlns="http://www.w3.org/2000/svg" width="24" height="24" viewBox="0 0 24 24">
  <g fill="none" fill-rule="evenodd" transform="translate(-216 -840)">
    <path fill="#555" d="M13.0553684,-8.8817842e-16 C18.7774737,0.0596842105 23.4031579,4.68536842 23.4625263,10.4074737 C23.4625263,10.6386316 23.2749474,10.8262105 23.0441053,10.8262105 C23.0223158,10.8262105 23.0036842,10.8170526 22.9828421,10.8138947 L22.9828421,10.8262105 L13.0553684,10.8262105 C12.8245263,10.8262105 12.6369474,10.6386316 12.6369474,10.4074737 L12.6369474,0.479684211 L12.6492632,0.479684211 C12.6461053,0.458842105 12.6369474,0.440210526 12.6369474,0.418736842 C12.6369474,0.187578947 12.8245263,-8.8817842e-16 13.0553684,-8.8817842e-16 Z M21.0423158,12.8178947 C21.0423158,12.8216842 21.0401053,12.8248421 21.0401053,12.8289474 C21.0407368,12.8627368 21.0423158,12.8958947 21.0423158,12.9293684 C21.0423158,18.7398947 16.3316842,23.4505263 10.5211579,23.4505263 C4.71063158,23.4505263 0,18.7398947 0,12.9293684 C0,7.11884211 4.71063158,2.40821053 10.5211579,2.40821053 C10.5584211,2.40821053 10.5953684,2.41073684 10.6326316,2.41105263 L10.6326316,2.41389474 C10.6424211,2.41326316 10.6506316,2.40821053 10.6607368,2.40821053 C10.8918947,2.40821053 11.0794737,2.59547368 11.0794737,2.82694737 C11.0794737,2.84842105 11.0703158,2.86705263 11.0671579,2.88789474 L11.0794737,2.88789474 L11.0794737,11.9804211 C11.0794737,12.2115789 11.2667368,12.3991579 11.4978947,12.3991579 L20.6238947,12.3991579 C20.8550526,12.3991579 21.0423158,12.5867368 21.0423158,12.8178947 Z" transform="translate(216 840)"/>
  </g>
</svg>
