<svg xmlns="http://www.w3.org/2000/svg" width="24" height="24" viewBox="0 0 24 24">
  <path fill="#555" fill-rule="evenodd" d="M13.1286979,2 C18.0063528,2.05090224 21.949393,5.99596014 22,10.876111 C22,11.0732561 21.8401034,11.2332346 21.6433282,11.2332346 C21.6247544,11.2332346 21.6088724,11.2254242 21.5911061,11.2227309 L21.5911061,11.2332346 L13.1286979,11.2332346 C12.9319228,11.2332346 12.7720262,11.0732561 12.7720262,10.876111 L12.7720262,2.40910315 L12.7825244,2.40910315 C12.7798326,2.39132777 12.7720262,2.37543765 12.7720262,2.35712362 C12.7720262,2.15997845 12.9319228,2 13.1286979,2 Z M19.9369566,12.931861 C19.9369566,12.9350929 19.9350723,12.9377862 19.9350723,12.9412874 C19.9356106,12.970105 19.9369566,12.9983841 19.9369566,13.0269324 C19.9369566,17.9824939 15.9215053,22 10.9684783,22 C6.01545129,22 2,17.9824939 2,13.0269324 C2,8.07137086 6.01545129,4.0538648 10.9684783,4.0538648 C11.0002423,4.0538648 11.0317371,4.05601939 11.063501,4.05628872 L11.063501,4.05871263 C11.0718458,4.05817398 11.0788447,4.0538648 11.0874586,4.0538648 C11.2845029,4.0538648 11.4443996,4.21357393 11.4443996,4.41098842 C11.4443996,4.42930245 11.4365932,4.44519257 11.4339013,4.46296795 L11.4443996,4.46296795 L11.4443996,12.2176138 C11.4443996,12.414759 11.604027,12.5747374 11.8010714,12.5747374 L19.5802848,12.5747374 C19.7773291,12.5747374 19.9369566,12.7347159 19.9369566,12.931861 Z"/>
</svg>
