<svg xmlns="http://www.w3.org/2000/svg" width="24" height="24" viewBox="0 0 24 24">
  <g fill="none" fill-rule="evenodd" transform="translate(-216 -840)">
    <path fill="#555" d="M13.2415677,1 C18.6069881,1.05599246 22.9443323,5.39555615 23,10.7637221 C23,10.9805817 22.8241137,11.156558 22.607661,11.156558 C22.5872298,11.156558 22.5697596,11.1479666 22.5502167,11.145004 L22.5502167,11.156558 L13.2415677,11.156558 C13.0251151,11.156558 12.8492288,10.9805817 12.8492288,10.7637221 L12.8492288,1.45001347 L12.8607769,1.45001347 C12.8578158,1.43046054 12.8492288,1.41298142 12.8492288,1.39283598 C12.8492288,1.1759763 13.0251151,1 13.2415677,1 Z M20.7306522,13.0250471 C20.7306522,13.0286022 20.7285795,13.0315648 20.7285795,13.0354161 C20.7291717,13.0671155 20.7306522,13.0982225 20.7306522,13.1296256 C20.7306522,18.5807433 16.3136558,23 10.8653261,23 C5.41699642,23 1,18.5807433 1,13.1296256 C1,7.67850795 5.41699642,3.25925128 10.8653261,3.25925128 C10.9002665,3.25925128 10.9349108,3.26162133 10.9698511,3.26191759 L10.9698511,3.26458389 C10.9790304,3.26399138 10.9867291,3.25925128 10.9962045,3.25925128 C11.2129532,3.25925128 11.3888395,3.43493132 11.3888395,3.65208726 C11.3888395,3.6722327 11.3802525,3.68971182 11.3772914,3.70926475 L11.3888395,3.70926475 L11.3888395,12.2393752 C11.3888395,12.4562349 11.5644297,12.6322112 11.7811785,12.6322112 L20.3383133,12.6322112 C20.555062,12.6322112 20.7306522,12.8081874 20.7306522,13.0250471 Z" transform="translate(216 840)"/>
  </g>
</svg>
