<svg xmlns="http://www.w3.org/2000/svg" width="24" height="24" viewBox="0 0 24 24">
  <path fill="#555" d="M12.0146193,2 C6.48352199,2 2,6.4725 2,11.9891667 C2,16.2216667 4.63815212,19.8366667 8.36397811,21.2908333 C8.27626248,20.5 8.1977361,19.2883333 8.39822898,18.425 C8.58117873,17.6441667 9.57278309,13.4608333 9.57278309,13.4608333 C9.57278309,13.4608333 9.27287916,12.8608333 9.27287916,11.9766667 C9.27287916,10.5908333 10.0806984,9.55083333 11.0839982,9.55083333 C11.9394344,9.55083333 12.3521156,10.1916667 12.3521156,10.9575 C12.3521156,11.815 11.8066079,13.0966667 11.5234117,14.2841667 C11.2853264,15.2783333 12.0246439,16.0883333 13.0062236,16.0883333 C14.7839272,16.0883333 16.1539618,14.2175 16.1539618,11.5158333 C16.1539618,9.13166667 14.4305585,7.45833333 11.9703438,7.45833333 C9.12167412,7.45833333 7.45173552,9.59333333 7.45173552,11.7908333 C7.45173552,12.6516667 7.78087799,13.5766667 8.19439455,14.075 C8.27709787,14.175 8.2879579,14.2625 8.26540245,14.3625 C8.19021762,14.675 8.02063406,15.3616667 7.98638319,15.4983333 C7.94210768,15.6858333 7.84269663,15.7241667 7.65139301,15.6358333 C6.40248945,15.0608333 5.61889645,13.2375 5.61889645,11.7641667 C5.61889645,8.6175 7.91453991,5.72083333 12.2351614,5.72083333 C15.7087006,5.72083333 18.4103421,8.19333333 18.4103421,11.49 C18.4103421,14.9358333 16.2324882,17.7083333 13.203375,17.7083333 C12.1892152,17.7083333 11.236874,17.1841667 10.8993776,16.5591667 L10.2736728,18.9325 C10.0489537,19.8033333 9.43494424,20.8925 9.02226306,21.5541667 C9.96040266,21.8416667 10.9486655,22 11.9878869,22 C17.5072888,22 22,17.5291667 22,12.0108333 C22,6.49166667 17.5072888,2.02166667 11.9878869,2.02166667 L12.0146193,2 Z"/>
</svg>
