<svg xmlns="http://www.w3.org/2000/svg" width="24" height="24" viewBox="0 0 24 24">
  <g fill="none" fill-rule="evenodd" transform="translate(-600 -1152)">
    <path fill="#555" fill-rule="nonzero" d="M12.017,0 C5.396,0 0.029,5.367 0.029,11.987 C0.029,17.066 3.187,21.404 7.647,23.149 C7.542,22.2 7.448,20.746 7.688,19.71 C7.907,18.773 9.094,13.753 9.094,13.753 C9.094,13.753 8.735,13.033 8.735,11.972 C8.735,10.309 9.702,9.061 10.903,9.061 C11.927,9.061 12.421,9.83 12.421,10.749 C12.421,11.778 11.768,13.316 11.429,14.741 C11.144,15.934 12.029,16.906 13.204,16.906 C15.332,16.906 16.972,14.661 16.972,11.419 C16.972,8.558 14.909,6.55 11.964,6.55 C8.554,6.55 6.555,9.112 6.555,11.749 C6.555,12.782 6.949,13.892 7.444,14.49 C7.543,14.61 7.556,14.715 7.529,14.835 C7.439,15.21 7.236,16.034 7.195,16.198 C7.142,16.423 7.023,16.469 6.794,16.363 C5.299,15.673 4.361,13.485 4.361,11.717 C4.361,7.941 7.109,4.465 12.281,4.465 C16.439,4.465 19.673,7.432 19.673,11.388 C19.673,15.523 17.066,18.85 13.44,18.85 C12.226,18.85 11.086,18.221 10.682,17.471 L9.933,20.319 C9.664,21.364 8.929,22.671 8.435,23.465 C9.558,23.81 10.741,24 11.985,24 C18.592,24 23.97,18.635 23.97,12.013 C23.97,5.39 18.592,0.026 11.985,0.026 L12.017,0 Z" transform="translate(600 1152)"/>
  </g>
</svg>
