<svg xmlns="http://www.w3.org/2000/svg" width="24" height="24" viewBox="0 0 24 24">
  <g fill="none" fill-rule="evenodd" transform="translate(-600 -1152)">
    <path fill="#555" fill-rule="nonzero" d="M12.0160812,1 C5.93187419,1 1,5.91975 1,11.9880833 C1,16.6438333 3.90196734,20.6203333 8.00037592,22.2199167 C7.90388873,21.35 7.81750971,20.0171667 8.03805188,19.0675 C8.2392966,18.2085833 9.3300614,13.6069167 9.3300614,13.6069167 C9.3300614,13.6069167 9.00016708,12.9469167 9.00016708,11.9743333 C9.00016708,10.4499167 9.88876822,9.30591667 10.992398,9.30591667 C11.9333779,9.30591667 12.3873272,10.0108333 12.3873272,10.85325 C12.3873272,11.7965 11.7872687,13.2063333 11.4757529,14.5125833 C11.2138591,15.6061667 12.0271083,16.4971667 13.106846,16.4971667 C15.0623199,16.4971667 16.569358,14.43925 16.569358,11.4674167 C16.569358,8.84483333 14.6736143,7.00416667 11.9673781,7.00416667 C8.83384153,7.00416667 6.99690907,9.35266667 6.99690907,11.7699167 C6.99690907,12.7168333 7.35896579,13.7343333 7.81383401,14.2825 C7.90480765,14.3925 7.91675369,14.48875 7.89194269,14.59875 C7.80923938,14.9425 7.62269746,15.6978333 7.58502151,15.8481667 C7.53631845,16.0544167 7.42696629,16.0965833 7.21653231,15.9994167 C5.8427384,15.3669167 4.9807861,13.36125 4.9807861,11.7405833 C4.9807861,8.27925 7.5059939,5.09291667 12.2586776,5.09291667 C16.0795706,5.09291667 19.0513763,7.81266667 19.0513763,11.439 C19.0513763,15.2294167 16.655737,18.2791667 13.3237125,18.2791667 C12.2081367,18.2791667 11.1605614,17.7025833 10.7893154,17.0150833 L10.1010401,19.62575 C9.85384905,20.5836667 9.17843866,21.78175 8.72448937,22.5095833 C9.75644292,22.8258333 10.843532,23 11.9866756,23 C18.0580176,23 23,18.0820833 23,12.0119167 C23,5.94083333 18.0580176,1.02383333 11.9866756,1.02383333 L12.0160812,1 Z" transform="translate(600 1152)"/>
  </g>
</svg>
