<svg xmlns="http://www.w3.org/2000/svg" width="24" height="24" viewBox="0 0 24 24">
  <path fill="#555" d="M12,22 C6.4771525,22 2,17.5228475 2,12 C2,6.4771525 6.4771525,2 12,2 C17.5228475,2 22,6.4771525 22,12 C22,17.5228475 17.5228475,22 12,22 Z M12,20.6046512 C16.7522176,20.6046512 20.6046512,16.7522176 20.6046512,12 C20.6046512,7.24778239 16.7522176,3.39534884 12,3.39534884 C7.24778239,3.39534884 3.39534884,7.24778239 3.39534884,12 C3.39534884,16.7522176 7.24778239,20.6046512 12,20.6046512 Z M10.9001026,16.3772594 C10.6182442,16.6817984 10.1818182,16.563619 10.1818182,16.0969623 L10.1818182,7.90395401 C10.1818182,7.43578211 10.6182442,7.31836036 10.9001026,7.62289936 L14.575303,11.5849366 C14.7779293,11.8031138 14.7779293,12.1978024 14.575303,12.4159796 L10.9001026,16.3772594 Z"/>
</svg>
