<svg xmlns="http://www.w3.org/2000/svg" width="24" height="24" viewBox="0 0 24 24">
  <g fill="none" fill-rule="evenodd" transform="translate(-264 -456)">
    <path fill="#555" fill-rule="nonzero" d="M12,23 C5.92486775,23 1,18.0751322 1,12 C1,5.92486775 5.92486775,1 12,1 C18.0751322,1 23,5.92486775 23,12 C23,18.0751322 18.0751322,23 12,23 Z M12,21.4651163 C17.2274394,21.4651163 21.4651163,17.2274394 21.4651163,12 C21.4651163,6.77256062 17.2274394,2.53488372 12,2.53488372 C6.77256062,2.53488372 2.53488372,6.77256062 2.53488372,12 C2.53488372,17.2274394 6.77256062,21.4651163 12,21.4651163 Z M10.7901129,16.8149853 C10.4800686,17.1499782 10,17.0199809 10,16.5066585 L10,7.49434941 C10,6.97936032 10.4800686,6.85019639 10.7901129,7.1851893 L14.8328333,11.5434303 C15.0557222,11.7834252 15.0557222,12.2175827 14.8328333,12.4575776 L10.7901129,16.8149853 Z" transform="translate(264 456)"/>
  </g>
</svg>
