<svg xmlns="http://www.w3.org/2000/svg" width="24" height="24" viewBox="0 0 24 24">
  <g fill="none" fill-rule="evenodd" transform="translate(-336 -384)">
    <path fill="#555" fill-rule="nonzero" d="M12,22.6666667 C17.8910373,22.6666667 22.6666667,17.8910373 22.6666667,12 C22.6666667,6.10896267 17.8910373,1.33333333 12,1.33333333 C6.10896267,1.33333333 1.33333333,6.10896267 1.33333333,12 C1.33333333,17.8910373 6.10896267,22.6666667 12,22.6666667 Z M12,24 C5.372583,24 0,18.627417 0,12 C0,5.372583 5.372583,0 12,0 C18.627417,0 24,5.372583 24,12 C24,18.627417 18.627417,24 12,24 Z M10.9481354,17.7964838 L15.7993999,13.0033354 C16.0668667,12.739341 16.0668667,12.2617677 15.7993999,11.9977733 L10.9481354,7.20370823 C10.5760823,6.83521603 10,6.97729636 10,7.54378436 L10,17.4573243 C10,18.021979 10.5760823,18.164976 10.9481354,17.7964838 Z" transform="translate(336 384)"/>
  </g>
</svg>
