<svg xmlns="http://www.w3.org/2000/svg" width="24" height="24" viewBox="0 0 24 24">
  <g fill="none" fill-rule="evenodd" transform="translate(-216 -600)">
    <path fill="#555" fill-rule="nonzero" d="M9.36143612,9.36143612 L9.36143612,2.30523055 C9.36143612,1.95256145 9.64733091,1.66666667 10,1.66666667 C10.3526691,1.66666667 10.6385639,1.95256145 10.6385639,2.30523055 L10.6385639,9.36143612 L17.6947695,9.36143612 C18.0474385,9.36143612 18.3333333,9.64733091 18.3333333,10 C18.3333333,10.3526691 18.0474385,10.6385639 17.6947695,10.6385639 L10.6385639,10.6385639 L10.6385639,17.6947695 C10.6385639,18.0474385 10.3526691,18.3333333 10,18.3333333 C9.64733091,18.3333333 9.36143612,18.0474385 9.36143612,17.6947695 L9.36143612,10.6385639 L2.30523055,10.6385639 C1.95256145,10.6385639 1.66666667,10.3526691 1.66666667,10 C1.66666667,9.64733091 1.95256145,9.36143612 2.30523055,9.36143612 L9.36143612,9.36143612 Z" transform="translate(218 602)"/>
  </g>
</svg>
