<svg xmlns="http://www.w3.org/2000/svg" width="24" height="24" viewBox="0 0 24 24">
  <g fill="none" fill-rule="evenodd" transform="translate(-216 -600)">
    <path fill="#555" fill-rule="nonzero" d="M10.9090909,9.09090909 L10.9090909,0.909090909 C10.9090909,0.407013864 10.502077,0 10,0 C9.49792295,0 9.09090909,0.407013864 9.09090909,0.909090909 L9.09090909,9.09090909 L0.909090909,9.09090909 C0.407013864,9.09090909 0,9.49792295 0,10 C0,10.502077 0.407013864,10.9090909 0.909090909,10.9090909 L9.09090909,10.9090909 L9.09090909,19.0909091 C9.09090909,19.5929861 9.49792295,20 10,20 C10.502077,20 10.9090909,19.5929861 10.9090909,19.0909091 L10.9090909,10.9090909 L19.0909091,10.9090909 C19.5929861,10.9090909 20,10.502077 20,10 C20,9.49792295 19.5929861,9.09090909 19.0909091,9.09090909 L10.9090909,9.09090909 Z" transform="translate(218 602)"/>
  </g>
</svg>
