<svg xmlns="http://www.w3.org/2000/svg" width="24" height="24" viewBox="0 0 24 24">
  <g fill="none" fill-rule="evenodd" transform="translate(-312 -600)">
    <path fill="#555" fill-rule="nonzero" d="M12.75,11.2075512 L12.75,7.77201432 C12.75,7.35780076 12.4142136,7.02201432 12,7.02201432 C11.5857864,7.02201432 11.25,7.35780076 11.25,7.77201432 L11.25,11.2075512 L7.81446314,11.2075512 C7.40024958,11.2075512 7.06446314,11.5433376 7.06446314,11.9575512 C7.06446314,12.3717647 7.40024958,12.7075512 7.81446314,12.7075512 L11.25,12.7075512 L11.25,16.143088 C11.25,16.5573016 11.5857864,16.893088 12,16.893088 C12.4142136,16.893088 12.75,16.5573016 12.75,16.143088 L12.75,12.7075512 L16.1855369,12.7075512 C16.5997504,12.7075512 16.9355369,12.3717647 16.9355369,11.9575512 C16.9355369,11.5433376 16.5997504,11.2075512 16.1855369,11.2075512 L12.75,11.2075512 Z M12,23 C5.92486775,23 1,18.0751322 1,12 C1,5.92486775 5.92486775,1 12,1 C18.0751322,1 23,5.92486775 23,12 C23,18.0751322 18.0751322,23 12,23 Z" transform="translate(312 600)"/>
  </g>
</svg>
