<svg xmlns="http://www.w3.org/2000/svg" width="24" height="24" viewBox="0 0 24 24">
  <g fill="none" fill-rule="evenodd" transform="translate(-696 -600)">
    <path fill="#555" fill-rule="nonzero" d="M11.5773533,11.25 L7.5,11.25 C7.08578644,11.25 6.75,11.5857864 6.75,12 C6.75,12.4142136 7.08578644,12.75 7.5,12.75 L11.5773533,12.75 L11.5773533,16.8273533 C11.5773533,17.2415669 11.9131398,17.5773533 12.3273533,17.5773533 C12.7415669,17.5773533 13.0773533,17.2415669 13.0773533,16.8273533 L13.0773533,12.75 L17.1547067,12.75 C17.5689202,12.75 17.9047067,12.4142136 17.9047067,12 C17.9047067,11.5857864 17.5689202,11.25 17.1547067,11.25 L13.0773533,11.25 L13.0773533,7.17264666 C13.0773533,6.7584331 12.7415669,6.42264666 12.3273533,6.42264666 C11.9131398,6.42264666 11.5773533,6.7584331 11.5773533,7.17264666 L11.5773533,11.25 Z M3,1.0209559 L21,1.0209559 C22.1045695,1.0209559 23,1.9163864 23,3.0209559 L23,21.0209559 C23,22.1255254 22.1045695,23.0209559 21,23.0209559 L3,23.0209559 C1.8954305,23.0209559 1,22.1255254 1,21.0209559 L1,3.0209559 C1,1.9163864 1.8954305,1.0209559 3,1.0209559 Z" transform="translate(696 600)"/>
  </g>
</svg>
