<svg xmlns="http://www.w3.org/2000/svg" width="24" height="24" viewBox="0 0 24 24">
  <path fill="#555" d="M12.6818182,11.279592 L15.8050335,11.279592 C16.1815913,11.279592 16.4868517,11.5848524 16.4868517,11.9614102 C16.4868517,12.3379679 16.1815913,12.6432283 15.8050335,12.6432283 L12.6818182,12.6432283 L12.6818182,15.7664437 C12.6818182,16.1430015 12.3765578,16.4482619 12,16.4482619 C11.6234422,16.4482619 11.3181818,16.1430015 11.3181818,15.7664437 L11.3181818,12.6432283 L8.19496649,12.6432283 C7.81840871,12.6432283 7.51314831,12.3379679 7.51314831,11.9614102 C7.51314831,11.5848524 7.81840871,11.279592 8.19496649,11.279592 L11.3181818,11.279592 L11.3181818,8.15637666 C11.3181818,7.77981887 11.6234422,7.47455848 12,7.47455848 C12.3765578,7.47455848 12.6818182,7.77981887 12.6818182,8.15637666 L12.6818182,11.279592 Z M12,22 C6.4771525,22 2,17.5228475 2,12 C2,6.4771525 6.4771525,2 12,2 C17.5228475,2 22,6.4771525 22,12 C22,17.5228475 17.5228475,22 12,22 Z M12,20.6046512 C16.7522176,20.6046512 20.6046512,16.7522176 20.6046512,12 C20.6046512,7.24778239 16.7522176,3.39534884 12,3.39534884 C7.24778239,3.39534884 3.39534884,7.24778239 3.39534884,12 C3.39534884,16.7522176 7.24778239,20.6046512 12,20.6046512 Z"/>
</svg>
