<svg xmlns="http://www.w3.org/2000/svg" width="20" height="20" viewBox="0 0 20 20">
  <path fill="#555" d="M9.61577577,9.299131 L5.90909091,9.299131 C5.53253313,9.299131 5.22727273,9.6043914 5.22727273,9.98094918 C5.22727273,10.357507 5.53253313,10.6627674 5.90909091,10.6627674 L9.61577577,10.6627674 L9.61577577,14.3694522 C9.61577577,14.74601 9.92103616,15.0512704 10.2975939,15.0512704 C10.6741517,15.0512704 10.9794121,14.74601 10.9794121,14.3694522 L10.9794121,10.6627674 L14.686097,10.6627674 C15.0626548,10.6627674 15.3679152,10.357507 15.3679152,9.98094918 C15.3679152,9.6043914 15.0626548,9.299131 14.686097,9.299131 L10.9794121,9.299131 L10.9794121,5.59244614 C10.9794121,5.21588836 10.6741517,4.91062796 10.2975939,4.91062796 C9.92103616,4.91062796 9.61577577,5.21588836 9.61577577,5.59244614 L9.61577577,9.299131 Z M1.81818182,0 L18.1818182,0 C19.1859723,-2.01858732e-16 20,0.814027728 20,1.81818182 L20,18.1818182 C20,19.1859723 19.1859723,20 18.1818182,20 L1.81818182,20 C0.814027728,20 2.01858732e-16,19.1859723 0,18.1818182 L0,1.81818182 C-1.00929366e-16,0.814027728 0.814027728,2.01858732e-16 1.81818182,0 Z"/>
</svg>
