<svg xmlns="http://www.w3.org/2000/svg" width="24" height="24" viewBox="0 0 24 24">
  <g fill="none" fill-rule="evenodd" transform="translate(-384 -528)">
    <path fill="#555" fill-rule="nonzero" d="M12.6666667,11.3333333 L12.6666667,6.66666667 C12.6666667,6.29847683 12.3681898,6 12,6 C11.6318102,6 11.3333333,6.29847683 11.3333333,6.66666667 L11.3333333,11.3333333 L6.66666667,11.3333333 C6.29847683,11.3333333 6,11.6318102 6,12 C6,12.3681898 6.29847683,12.6666667 6.66666667,12.6666667 L11.3333333,12.6666667 L11.3333333,17.3333333 C11.3333333,17.7015232 11.6318102,18 12,18 C12.3681898,18 12.6666667,17.7015232 12.6666667,17.3333333 L12.6666667,12.6666667 L17.3333333,12.6666667 C17.7015232,12.6666667 18,12.3681898 18,12 C18,11.6318102 17.7015232,11.3333333 17.3333333,11.3333333 L12.6666667,11.3333333 Z M12,24 C5.372583,24 0,18.627417 0,12 C0,5.372583 5.372583,0 12,0 C18.627417,0 24,5.372583 24,12 C24,18.627417 18.627417,24 12,24 Z" transform="translate(384 528)"/>
  </g>
</svg>
