<svg xmlns="http://www.w3.org/2000/svg" width="24" height="24" viewBox="0 0 24 24">
  <path fill="#555" d="M3.81818182,3.36363636 C3.5671433,3.36363636 3.36363636,3.5671433 3.36363636,3.81818182 L3.36363636,20.1818182 C3.36363636,20.4328567 3.5671433,20.6363636 3.81818182,20.6363636 L20.1818182,20.6363636 C20.4328567,20.6363636 20.6363636,20.4328567 20.6363636,20.1818182 L20.6363636,3.81818182 C20.6363636,3.5671433 20.4328567,3.36363636 20.1818182,3.36363636 L3.81818182,3.36363636 Z M11.6157758,11.299131 L7.90909091,11.299131 C7.53253313,11.299131 7.22727273,11.6043914 7.22727273,11.9809492 C7.22727273,12.357507 7.53253313,12.6627674 7.90909091,12.6627674 L11.6157758,12.6627674 L11.6157758,16.3694522 C11.6157758,16.74601 11.9210362,17.0512704 12.2975939,17.0512704 C12.6741517,17.0512704 12.9794121,16.74601 12.9794121,16.3694522 L12.9794121,12.6627674 L16.686097,12.6627674 C17.0626548,12.6627674 17.3679152,12.357507 17.3679152,11.9809492 C17.3679152,11.6043914 17.0626548,11.299131 16.686097,11.299131 L12.9794121,11.299131 L12.9794121,7.59244614 C12.9794121,7.21588836 12.6741517,6.91062796 12.2975939,6.91062796 C11.9210362,6.91062796 11.6157758,7.21588836 11.6157758,7.59244614 L11.6157758,11.299131 Z M3.81818182,2 L20.1818182,2 C21.1859723,2 22,2.81402773 22,3.81818182 L22,20.1818182 C22,21.1859723 21.1859723,22 20.1818182,22 L3.81818182,22 C2.81402773,22 2,21.1859723 2,20.1818182 L2,3.81818182 C2,2.81402773 2.81402773,2 3.81818182,2 Z"/>
</svg>
