<svg xmlns="http://www.w3.org/2000/svg" width="24" height="24" viewBox="0 0 24 24">
  <path fill="#555" d="M11.2337233,11.2337233 L11.2337233,2.76627666 C11.2337233,2.34307375 11.5767971,2 12,2 C12.4232029,2 12.7662767,2.34307375 12.7662767,2.76627666 L12.7662767,11.2337233 L21.2337233,11.2337233 C21.6569263,11.2337233 22,11.5767971 22,12 C22,12.4232029 21.6569263,12.7662767 21.2337233,12.7662767 L12.7662767,12.7662767 L12.7662767,21.2337233 C12.7662767,21.6569263 12.4232029,22 12,22 C11.5767971,22 11.2337233,21.6569263 11.2337233,21.2337233 L11.2337233,12.7662767 L2.76627666,12.7662767 C2.34307375,12.7662767 2,12.4232029 2,12 C2,11.5767971 2.34307375,11.2337233 2.76627666,11.2337233 L11.2337233,11.2337233 Z"/>
</svg>
