<svg xmlns="http://www.w3.org/2000/svg" width="22" height="22" viewBox="0 0 22 22">
  <g fill="none" fill-rule="evenodd" transform="translate(-457 -889)">
    <path fill="#555" fill-rule="nonzero" d="M5.40666918,3.49667334 C5.74576751,3.2462765 6.22679538,3.31398572 6.48107499,3.64790612 C6.73535461,3.98182653 6.66659545,4.45550924 6.32749712,4.70590609 C3.95711534,6.45624237 2.53488372,9.19497893 2.53488372,12.1679667 C2.53488372,17.3155846 6.77256062,21.4885535 12,21.4885535 C17.2274394,21.4885535 21.4651163,17.3155846 21.4651163,12.1679667 C21.4651163,9.19493058 20.042838,6.45615449 17.6723914,4.7058238 C17.3332894,4.45543185 17.2645232,3.98175012 17.5187978,3.64782605 C17.7730725,3.31390198 18.2540993,3.24618581 18.5932014,3.49657776 C21.346186,5.52937336 23,8.71400082 23,12.1679667 C23,18.1503335 18.0751322,23 12,23 C5.92486775,23 1,18.1503335 1,12.1679667 C1,8.71405704 2.65375989,5.52947542 5.40666918,3.49667334 Z M11.2325581,1.75572325 C11.2325581,1.33834883 11.5761536,1 12,1 C12.4238464,1 12.7674419,1.33834883 12.7674419,1.75572325 L12.7674419,10.5213515 C12.7674419,10.9387259 12.4238464,11.2770747 12,11.2770747 C11.5761536,11.2770747 11.2325581,10.9387259 11.2325581,10.5213515 L11.2325581,1.75572325 Z" transform="translate(456 888)"/>
  </g>
</svg>
