<svg xmlns="http://www.w3.org/2000/svg" width="24" height="24" viewBox="0 0 24 24">
  <g fill="none" fill-rule="evenodd" transform="translate(-452 -884)">
    <path fill="#555" fill-rule="nonzero" d="M11.9882583,24 C10.3702544,24 8.79921722,23.6835938 7.31976517,23.0601563 C5.89197652,22.4578125 4.60978474,21.5953125 3.50841487,20.4960938 C2.40939335,19.396875 1.54520548,18.1171875 0.941682975,16.6921875 C0.31702544,15.215625 0,13.65 0,12.0328125 C0,10.1507813 0.425048924,8.3484375 1.26575342,6.675 C2.0665362,5.08125 3.23835616,3.6609375 4.65440313,2.56640625 C5.07475538,2.24296875 5.67827789,2.31796875 6.00234834,2.7375 C6.32641879,3.15703125 6.25127202,3.759375 5.83091977,4.0828125 C4.64031311,5.0015625 3.65636008,6.196875 2.98473581,7.53515625 C2.28023483,8.93671875 1.92328767,10.4507813 1.92328767,12.0328125 C1.92328767,13.3898438 2.18864971,14.7046875 2.7146771,15.9445313 C3.22191781,17.1398438 3.94755382,18.215625 4.87279843,19.1390625 C5.79804305,20.0625 6.87358121,20.7867188 8.07358121,21.2929688 C9.31350294,21.815625 10.6332681,22.0828125 11.992955,22.0828125 C13.3526419,22.0828125 14.6700587,21.8179688 15.9123288,21.2929688 C17.1099804,20.7867188 18.1878669,20.0625 19.1131115,19.1390625 C20.0383562,18.215625 20.7639922,17.1421875 21.2712329,15.9445313 C21.7949119,14.7070313 22.0626223,13.3898438 22.0626223,12.0328125 C22.0626223,10.4507813 21.7056751,8.9390625 21.0011742,7.53515625 C20.3295499,6.196875 19.3432485,5.00390625 18.1549902,4.0828125 C17.734638,3.759375 17.6594912,3.1546875 17.9835616,2.7375 C18.3076321,2.31796875 18.9135029,2.24296875 19.3315068,2.56640625 C20.7475538,3.6609375 21.9193738,5.08125 22.7201566,6.675 C23.5608611,8.34609375 23.98591,10.1484375 23.98591,12.0328125 C23.98591,13.6476563 23.6688845,15.215625 23.044227,16.6921875 C22.4313112,18.1171875 21.5671233,19.396875 20.4657534,20.4960938 C19.3643836,21.5953125 18.0821918,22.4578125 16.6544031,23.0601563 C15.1772994,23.6835938 13.6062622,24 11.9882583,24 Z M11.9835616,11.1023438 C11.4528376,11.1023438 11.023092,10.6734375 11.023092,10.14375 L11.023092,0.95859375 C11.023092,0.42890625 11.4528376,0 11.9835616,0 C12.5142857,0 12.9440313,0.42890625 12.9440313,0.95859375 L12.9440313,10.1414063 C12.9440313,10.6734375 12.5142857,11.1023438 11.9835616,11.1023438 Z" transform="translate(452 884)"/>
  </g>
</svg>
