<svg xmlns="http://www.w3.org/2000/svg" width="20" height="20" viewBox="0 0 20 20">
  <path fill="#555" d="M6.14579799,4.18595352 C6.4413694,3.96933514 6.8567675,4.03308536 7.07361562,4.32834363 C7.29046374,4.6236019 7.2266459,5.03855991 6.9310745,5.25517829 C4.69142126,6.89657541 3.32752667,9.52434665 3.32752667,12.2844939 C3.32752667,16.8308253 7.3391503,20.6738798 12.0069185,20.6738798 C16.6717829,20.6738798 20.6724733,16.8335479 20.6724733,12.2844939 C20.6724733,9.5536591 19.342534,6.9527074 17.1488571,5.30771433 C16.8556829,5.0878691 16.7964271,4.67223654 17.0165055,4.37937301 C17.2365839,4.08650949 17.6526573,4.02731646 17.9458314,4.24716169 C20.4701166,6.14007108 22,9.13205178 22,12.2844939 C22,17.5780272 17.3933813,22 12.0069185,22 C6.61812407,22 2,17.5759303 2,12.2844939 C2,9.09730095 3.56893509,6.07448486 6.14579799,4.18595352 Z M11.2993609,2.69989679 C11.2993609,2.31335447 11.6130477,2 12,2 C12.3869523,2 12.7006391,2.31335447 12.7006391,2.69989679 L12.7006391,10.5007179 C12.7006391,10.8872602 12.3869523,11.2006147 12,11.2006147 C11.6130477,11.2006147 11.2993609,10.8872602 11.2993609,10.5007179 L11.2993609,2.69989679 Z" transform="translate(-2 -2)"/>
</svg>
