<svg xmlns="http://www.w3.org/2000/svg" width="24" height="24" viewBox="0 0 24 24">
  <g fill="none" fill-rule="evenodd" transform="translate(-360 -1032)">
    <path fill="#555" fill-rule="nonzero" d="M18.5,4 L17,4 L17,1.5 C17,0.673 16.327,0 15.5,0 L4.5,0 C3.673,0 3,0.673 3,1.5 L3,4 L1.5,4 C0.673,4 5.68434189e-14,4.673 5.68434189e-14,5.5 L5.68434189e-14,14.5 C5.68434189e-14,15.327 0.673,16 1.5,16 L3,16 L3,18.5 C3,19.327 3.673,20 4.5,20 L15.5,20 C16.327,20 17,19.327 17,18.5 L17,16 L18.5,16 C19.327,16 20,15.327 20,14.5 L20,5.5 C20,4.673 19.327,4 18.5,4 Z M4,1.5 C4,1.224 4.224,1 4.5,1 L15.5,1 C15.776,1 16,1.224 16,1.5 L16,4 L4,4 L4,1.5 Z M15.5,19 L4.5,19 C4.224,19 4,18.776 4,18.5 L4,12 L16,12 L16,18.5 C16,18.776 15.776,19 15.5,19 L15.5,19 Z M19,14.5 C19,14.776 18.776,15 18.5,15 L17,15 L17,12 L17.5,12 C17.776,12 18,11.776 18,11.5 C18,11.224 17.776,11 17.5,11 L2.5,11 C2.224,11 2,11.224 2,11.5 C2,11.776 2.224,12 2.5,12 L3,12 L3,15 L1.5,15 C1.224,15 1,14.776 1,14.5 L1,5.5 C1,5.224 1.224,5 1.5,5 L18.5,5 C18.776,5 19,5.224 19,5.5 L19,14.5 Z M14.5,14 L5.5,14 C5.224,14 5,13.776 5,13.5 C5,13.224 5.224,13 5.5,13 L14.5,13 C14.776,13 15,13.224 15,13.5 C15,13.776 14.776,14 14.5,14 Z M14.5,16 L5.5,16 C5.224,16 5,15.776 5,15.5 C5,15.224 5.224,15 5.5,15 L14.5,15 C14.776,15 15,15.224 15,15.5 C15,15.776 14.776,16 14.5,16 Z M14.5,18 L5.5,18 C5.224,18 5,17.776 5,17.5 C5,17.224 5.224,17 5.5,17 L14.5,17 C14.776,17 15,17.224 15,17.5 C15,17.776 14.776,18 14.5,18 Z M16.5,9 C17.327,9 18,8.327 18,7.5 C18,6.673 17.327,6 16.5,6 C15.673,6 15,6.673 15,7.5 C15,8.327 15.673,9 16.5,9 Z M16.5,7 C16.776,7 17,7.224 17,7.5 C17,7.776 16.776,8 16.5,8 C16.224,8 16,7.776 16,7.5 C16,7.224 16.224,7 16.5,7 Z" transform="translate(362 1034)"/>
  </g>
</svg>
