<svg xmlns="http://www.w3.org/2000/svg" width="24" height="24" viewBox="0 0 24 24">
  <path fill="#555" d="M19.0164211,18.1187993 L19.0164211,20.0668032 C19.0164211,20.5244038 18.9340883,20.9258347 18.7591414,21.2664921 C18.5133781,21.7450435 18.0437057,21.9857313 17.4421305,22 L6.72478658,22 C6.13097303,22 5.64259551,21.7831749 5.33894863,21.3379195 C5.09561414,20.9811037 4.96902664,20.559141 4.95441204,20.0668032 L4.95441204,18.1187993 L3.9348091,18.1187993 C3.19681947,18.1187993 2.63480658,17.898114 2.33535897,17.3860307 C2.11176328,17.0036612 2.00779657,16.5145062 2.00195847,15.9103171 L2.00235647,8.02450226 C1.98044709,7.38888452 2.11048595,6.8682898 2.42722745,6.48164692 C2.81018805,6.0141711 3.47442024,5.88827603 4.38283066,5.96388893 L5.01688581,5.96390471 L5.01720314,4.08104795 C4.99529377,3.44543021 5.12533263,2.92483549 5.44207412,2.53819261 C5.82503472,2.07071679 6.48926692,1.94482173 7.39767734,2.02043462 L17.2292883,2.02082856 C17.85694,2.0423764 18.3416881,2.22401294 18.6358869,2.6294025 C18.870019,2.95202331 18.9906983,3.35829622 19.0155732,3.87113493 L19.0155732,5.96425305 L20.2137151,5.96428287 C20.8413668,5.98583071 21.3261148,6.16746725 21.6203137,6.57285681 C21.8544457,6.89547762 21.975125,7.30175053 22,7.81458924 L21.999997,15.9123389 C21.9981107,16.5379231 21.9541484,17.0061831 21.7812289,17.3295666 C21.5131341,17.8309411 21.017303,18.0527552 20.1907591,18.1187993 L19.0164211,18.1187993 Z M19.0164211,16.779153 L20.1356389,16.7809659 C20.3438556,16.7637536 20.4634113,16.7864401 20.5712667,16.6727059 C20.6791221,16.5589718 20.659757,16.2835733 20.660885,15.9103171 L20.6617266,7.84817342 C20.6497819,7.60998355 20.6281393,7.53006637 20.5538712,7.44262892 C20.479603,7.35519146 20.424012,7.31239868 20.1907591,7.30399674 L4.32892323,7.3018215 C3.7603088,7.30399674 3.62881388,7.30399674 3.50850277,7.44262892 C3.38819165,7.5812611 3.32901854,7.64012118 3.34107346,8.00140251 L3.34104182,15.9038029 C3.34477103,16.287661 3.35671079,16.4718479 3.44396087,16.6122468 C3.53121094,16.7526456 3.6234678,16.7786915 3.9348091,16.7786915 L4.95441204,16.7786915 L4.95441204,14.1518143 L4.81983679,14.1518143 C4.45005039,14.1518143 4.15027929,13.8518209 4.15027929,13.4817604 C4.15027929,13.1116998 4.45005039,12.8117065 4.81983679,12.8117065 L19.2241403,12.8117065 C19.5939267,12.8117065 19.8936978,13.1116998 19.8936978,13.4817604 C19.8936978,13.8518209 19.5939267,14.1518143 19.2241403,14.1518143 L19.0164211,14.1518143 L19.0164211,16.779153 Z M17.6773061,14.1518143 L6.29351088,14.1518143 L6.29321924,20.0464885 C6.30007527,20.2726889 6.35216699,20.4463297 6.44502808,20.5824974 C6.47757678,20.6302255 6.54439807,20.6598922 6.72478658,20.6598922 L17.4260508,20.6600854 C17.5582371,20.6569077 17.5695629,20.6511037 17.5681141,20.6539248 C17.6374816,20.518852 17.6773061,20.3246794 17.6773061,20.0668032 L17.6773061,14.1518143 Z M17.6766169,5.96421973 L17.6772998,3.90471911 C17.6653552,3.66652924 17.6181107,3.50747817 17.552373,3.41689544 C17.5467023,3.40908146 17.4395852,3.36894437 17.2063324,3.36054243 L7.34376991,3.35836719 C6.78724844,3.31338126 6.49294099,3.36916274 6.47766164,3.38781408 C6.39616318,3.48729836 6.34386521,3.69666687 6.35592014,4.0579482 L6.35592014,5.96393803 L17.6766169,5.96421973 Z M18.0839483,11.9345948 C16.9745891,11.9345948 16.0752758,11.0346147 16.0752758,9.92443307 C16.0752758,8.81425141 16.9745891,7.91427136 18.0839483,7.91427136 C19.1933075,7.91427136 20.0926208,8.81425141 20.0926208,9.92443307 C20.0926208,11.0346147 19.1933075,11.9345948 18.0839483,11.9345948 Z M18.0839483,10.594487 C18.4537347,10.594487 18.7535058,10.2944936 18.7535058,9.92443307 C18.7535058,9.55437252 18.4537347,9.25437917 18.0839483,9.25437917 C17.7141619,9.25437917 17.4143908,9.55437252 17.4143908,9.92443307 C17.4143908,10.2944936 17.7141619,10.594487 18.0839483,10.594487 Z M7.71990267,16.2321872 C7.35011628,16.2321872 7.05034517,15.9321938 7.05034517,15.5621333 C7.05034517,15.1920727 7.35011628,14.8920794 7.71990267,14.8920794 L16.2989067,14.8920794 C16.6686931,14.8920794 16.9684642,15.1920727 16.9684642,15.5621333 C16.9684642,15.9321938 16.6686931,16.2321872 16.2989067,16.2321872 L7.71990267,16.2321872 Z M7.71990267,18.1284939 C7.35011628,18.1284939 7.05034517,17.8285005 7.05034517,17.45844 C7.05034517,17.0883794 7.35011628,16.788386 7.71990267,16.788386 L16.2989067,16.788386 C16.6686931,16.788386 16.9684642,17.0883794 16.9684642,17.45844 C16.9684642,17.8285005 16.6686931,18.1284939 16.2989067,18.1284939 L7.71990267,18.1284939 Z M7.71990267,20.0248005 C7.35011628,20.0248005 7.05034517,19.7248072 7.05034517,19.3547466 C7.05034517,18.9846861 7.35011628,18.6846927 7.71990267,18.6846927 L16.2989067,18.6846927 C16.6686931,18.6846927 16.9684642,18.9846861 16.9684642,19.3547466 C16.9684642,19.7248072 16.6686931,20.0248005 16.2989067,20.0248005 L7.71990267,20.0248005 Z"/>
</svg>
