<svg xmlns="http://www.w3.org/2000/svg" width="24" height="24" viewBox="0 0 24 24">
  <g fill="none" fill-rule="evenodd" transform="translate(-456 -1032)">
    <path fill="#555" fill-rule="nonzero" d="M19.7180632,18.7306792 L19.7180632,20.8734836 C19.7180632,21.3768441 19.6274971,21.8184181 19.4350555,22.1931414 C19.1647159,22.7195479 18.6480763,22.9843044 17.9863436,23 L6.19726524,23 C5.54407034,23 5.00685506,22.7614924 4.67284349,22.2717114 C4.40517555,21.879214 4.26592931,21.4150551 4.24985324,20.8734836 L4.24985324,18.7306792 L3.12829001,18.7306792 C2.31650141,18.7306792 1.69828724,18.4879254 1.36889487,17.9246338 C1.12293961,17.5040274 1.00857623,16.9659568 1.00215431,16.3013488 L1.00259211,7.62695249 C0.978491798,6.92777297 1.12153455,6.35511878 1.46995019,5.92981161 C1.89120685,5.41558821 2.62186227,5.27710364 3.62111373,5.36027782 L4.31857439,5.36029518 L4.31892346,3.28915275 C4.29482314,2.58997323 4.43786589,2.01731904 4.78628154,1.59201187 C5.2075382,1.07778847 5.93819361,0.939303898 6.93744508,1.02247809 L17.7522172,1.02291141 C18.442634,1.04661404 18.9758569,1.24641423 19.2994756,1.69234275 C19.5570209,2.04722564 19.6897681,2.49412584 19.7171306,3.05824843 L19.7171306,5.36067836 L21.0350866,5.36071115 C21.7255035,5.38441378 22.2587263,5.58421397 22.5823451,6.03014249 C22.8398903,6.38502538 22.9726375,6.83192558 23,7.39604817 L22.9999966,16.3035728 C22.9979218,16.9917154 22.9495632,17.5068014 22.7593517,17.8625233 C22.4644475,18.4140352 21.9190333,18.6580307 21.009835,18.7306792 L19.7180632,18.7306792 Z M19.7180632,17.2570683 L20.9492028,17.2590624 C21.1782412,17.240129 21.3097524,17.2650841 21.4283934,17.1399765 C21.5470343,17.014869 21.5257327,16.7119306 21.5269735,16.3013488 L21.5278992,7.43299076 C21.5147601,7.1709819 21.4909532,7.08307301 21.4092583,6.98689181 C21.3275633,6.89071061 21.2664132,6.84363855 21.009835,6.83439641 L3.56181555,6.83200365 C2.93633968,6.83439641 2.79169527,6.83439641 2.65935304,6.98689181 C2.52701082,7.13938721 2.46192039,7.2041333 2.4751808,7.60154276 L2.475146,16.2941832 C2.47924814,16.7164271 2.49238187,16.9190327 2.58835695,17.0734715 C2.68433204,17.2279102 2.78581458,17.2565606 3.12829001,17.2565606 L4.24985324,17.2565606 L4.24985324,14.3669957 L4.10182046,14.3669957 C3.69505543,14.3669957 3.36530722,14.037003 3.36530722,13.6299364 C3.36530722,13.2228698 3.69505543,12.8928771 4.10182046,12.8928771 L19.9465544,12.8928771 C20.3533194,12.8928771 20.6830676,13.2228698 20.6830676,13.6299364 C20.6830676,14.037003 20.3533194,14.3669957 19.9465544,14.3669957 L19.7180632,14.3669957 L19.7180632,17.2570683 Z M18.2450367,14.3669957 L5.72286197,14.3669957 L5.72254116,20.8511373 C5.7300828,21.0999578 5.78738368,21.2909627 5.88953089,21.4407472 C5.92533446,21.4932481 5.99883788,21.5258814 6.19726524,21.5258814 L17.9686558,21.526094 C18.1140608,21.5225984 18.1265192,21.516214 18.1249255,21.5193172 C18.2012298,21.3707372 18.2450367,21.1571473 18.2450367,20.8734836 L18.2450367,14.3669957 Z M18.2442785,5.36064171 L18.2450298,3.09519102 C18.2318907,2.83318216 18.1799217,2.65822599 18.1076104,2.55858498 C18.1013725,2.54998961 17.9835437,2.50583881 17.7269656,2.49659667 L6.8781469,2.49420391 C6.26597328,2.44471938 5.94223509,2.50607901 5.9254278,2.52659548 C5.8357795,2.63602819 5.77825174,2.86633356 5.79151215,3.26374302 L5.79151215,5.36033183 L18.2442785,5.36064171 Z M18.6923431,11.9280543 C17.472048,11.9280543 16.4828034,10.9380762 16.4828034,9.71687638 C16.4828034,8.49567655 17.472048,7.5056985 18.6923431,7.5056985 C19.9126382,7.5056985 20.9018829,8.49567655 20.9018829,9.71687638 C20.9018829,10.9380762 19.9126382,11.9280543 18.6923431,11.9280543 Z M18.6923431,10.4539357 C19.0991082,10.4539357 19.4288564,10.123943 19.4288564,9.71687638 C19.4288564,9.30980977 19.0991082,8.97981708 18.6923431,8.97981708 C18.2855781,8.97981708 17.9558299,9.30980977 17.9558299,9.71687638 C17.9558299,10.123943 18.2855781,10.4539357 18.6923431,10.4539357 Z M7.29189294,16.6554059 C6.8851279,16.6554059 6.55537969,16.3254132 6.55537969,15.9183466 C6.55537969,15.51128 6.8851279,15.1812873 7.29189294,15.1812873 L16.7287974,15.1812873 C17.1355624,15.1812873 17.4653106,15.51128 17.4653106,15.9183466 C17.4653106,16.3254132 17.1355624,16.6554059 16.7287974,16.6554059 L7.29189294,16.6554059 Z M7.29189294,18.7413432 C6.8851279,18.7413432 6.55537969,18.4113506 6.55537969,18.0042839 C6.55537969,17.5972173 6.8851279,17.2672247 7.29189294,17.2672247 L16.7287974,17.2672247 C17.1355624,17.2672247 17.4653106,17.5972173 17.4653106,18.0042839 C17.4653106,18.4113506 17.1355624,18.7413432 16.7287974,18.7413432 L7.29189294,18.7413432 Z M7.29189294,20.8272806 C6.8851279,20.8272806 6.55537969,20.4972879 6.55537969,20.0902213 C6.55537969,19.6831547 6.8851279,19.353162 7.29189294,19.353162 L16.7287974,19.353162 C17.1355624,19.353162 17.4653106,19.6831547 17.4653106,20.0902213 C17.4653106,20.4972879 17.1355624,20.8272806 16.7287974,20.8272806 L7.29189294,20.8272806 Z" transform="translate(456 1032)"/>
  </g>
</svg>
