<svg xmlns="http://www.w3.org/2000/svg" width="24" height="24" viewBox="0 0 24 24">
  <g fill="none" fill-rule="evenodd" transform="translate(-408 -1152)">
    <path fill="#555" fill-rule="nonzero" d="M18.9951045,14.9674996 C18.8456349,12.8434494 17.4617749,11.0632385 16.6618596,10.1423083 C16.772695,9.87473639 17.0431336,8.3239636 15.9993801,7.26575183 C16.0012802,7.24032933 16.0012802,7.21490683 16.0012802,7.19075545 C16.0012802,3.01765129 13.117658,0.013346815 9.4999883,0 C5.88231864,0.0139823788 2.99869645,3.01765131 2.99869645,7.19075545 C2.99869645,7.21554239 2.99869645,7.24096489 3.00059649,7.26575183 C1.95684304,8.3239636 2.22791494,9.87473639 2.33811704,10.1423083 C1.53883498,11.0632385 0.154975001,12.8434494 0.00487212888,14.9681352 C-0.0223617301,15.5267947 0.061873234,16.3403149 0.325978316,16.70195 C0.648984544,17.1430305 1.53503493,16.6129713 2.16838045,15.2045645 C2.34445051,15.8572873 2.75105833,16.8538495 3.67194274,18.1179835 C2.13101307,18.4802542 1.69210462,20.045645 2.21018126,20.9017478 C2.57562164,21.5042612 3.41227108,22 4.85439884,22 C7.42008158,22 8.55313673,21.2900766 9.05917981,20.7949733 C9.16178178,20.6869276 9.31061799,20.6354471 9.4999883,20.6348115 C9.68935862,20.6348115 9.83819483,20.6869276 9.9407968,20.7949733 C10.4468399,21.2900766 11.579895,22 14.1449444,22 C15.5877056,22 16.4237216,21.5042612 16.789162,20.9011123 C17.307872,20.045645 16.8683302,18.4802542 15.3286672,18.1179835 C16.2489183,16.8532139 16.6561594,15.8572873 16.8322295,15.2045645 C17.465575,16.6136068 18.3509921,17.1430305 18.6739983,16.70195 C18.9387367,16.3396793 19.0223383,15.5261592 18.9951045,14.9681352 L18.9951045,14.9674996 Z" transform="translate(411 1153)"/>
  </g>
</svg>
