<svg xmlns="http://www.w3.org/2000/svg" width="24" height="24" viewBox="0 0 24 24">
  <path fill="#555" d="M20.9956198,15.6068179 C20.8618839,13.6758631 19.6236934,12.0574895 18.9079796,11.2202802 C19.0071482,10.9770331 19.2491195,9.56723963 18.3152348,8.60522894 C18.3169349,8.58211757 18.3169349,8.55900621 18.3169349,8.53705041 C18.3169349,4.74331935 15.7368519,2.01213347 12.4999895,2 C9.2631272,2.01271125 6.68304419,4.74331937 6.68304419,8.53705041 C6.68304419,8.55958399 6.68304419,8.58269536 6.68474423,8.60522894 C5.75085957,9.56723963 5.99339758,10.9770331 6.09199946,11.2202802 C5.37685235,12.0574895 4.13866184,13.6758631 4.00435927,15.6073956 C3.97999214,16.1152679 4.05536026,16.8548317 4.29166481,17.1835909 C4.58067038,17.5845732 5.37345231,17.1027011 5.94012988,15.8223314 C6.09766625,16.4157157 6.46147324,17.3216813 7.28542245,18.4708941 C5.9066959,18.8002311 5.51398834,20.2233136 5.9775306,21.0015889 C6.30450357,21.5493283 7.05308465,22 8.34340949,22 C10.6390204,22 11.6528066,21.354615 12.1055819,20.9045212 C12.1973837,20.8062978 12.3305529,20.7594973 12.4999895,20.7589195 C12.6694261,20.7589195 12.8025954,20.8062978 12.8943971,20.9045212 C13.3471725,21.354615 14.3609587,22 16.6560029,22 C17.9468944,22 18.6949088,21.5493283 19.0218818,21.0010111 C19.4859907,20.2233136 19.0927165,18.8002311 17.7151233,18.4708941 C18.5385058,17.3211036 18.9028795,16.4157157 19.0604159,15.8223314 C19.6270934,17.1032789 20.4193087,17.5845732 20.7083143,17.1835909 C20.9451855,16.8542539 21.0199869,16.1146902 20.9956198,15.6073956 L20.9956198,15.6068179 Z"/>
</svg>
