<svg xmlns="http://www.w3.org/2000/svg" width="24" height="24" viewBox="0 0 24 24">
  <g fill="none" fill-rule="evenodd" transform="translate(-408 -1152)">
    <path fill="#555" fill-rule="nonzero" d="M21.9951045,15.9674996 C21.8456349,13.8434494 20.4617749,12.0632385 19.6618596,11.1423083 C19.772695,10.8747364 20.0431336,9.3239636 18.9993801,8.26575183 C19.0012802,8.24032933 19.0012802,8.21490683 19.0012802,8.19075545 C19.0012802,4.01765129 16.117658,1.01334681 12.4999883,1 C8.88231864,1.01398238 5.99869645,4.01765131 5.99869645,8.19075545 C5.99869645,8.21554239 5.99869645,8.24096489 6.00059649,8.26575183 C4.95684304,9.3239636 5.22791494,10.8747364 5.33811704,11.1423083 C4.53883498,12.0632385 3.154975,13.8434494 3.00487213,15.9681352 C2.97763827,16.5267947 3.06187323,17.3403149 3.32597832,17.70195 C3.64898454,18.1430305 4.53503493,17.6129713 5.16838045,16.2045645 C5.34445051,16.8572873 5.75105833,17.8538495 6.67194274,19.1179835 C5.13101307,19.4802542 4.69210462,21.045645 5.21018126,21.9017478 C5.57562164,22.5042612 6.41227108,23 7.85439884,23 C10.4200816,23 11.5531367,22.2900766 12.0591798,21.7949733 C12.1617818,21.6869276 12.310618,21.6354471 12.4999883,21.6348115 C12.6893586,21.6348115 12.8381948,21.6869276 12.9407968,21.7949733 C13.4468399,22.2900766 14.579895,23 17.1449444,23 C18.5877056,23 19.4237216,22.5042612 19.789162,21.9011123 C20.307872,21.045645 19.8683302,19.4802542 18.3286672,19.1179835 C19.2489183,17.8532139 19.6561594,16.8572873 19.8322295,16.2045645 C20.465575,17.6136068 21.3509921,18.1430305 21.6739983,17.70195 C21.9387367,17.3396793 22.0223383,16.5261592 21.9951045,15.9681352 L21.9951045,15.9674996 Z" transform="translate(408 1152)"/>
  </g>
</svg>
