<svg xmlns="http://www.w3.org/2000/svg" width="24" height="24" viewBox="0 0 24 24">
  <g fill="none" fill-rule="evenodd" transform="translate(-312 -1032)">
    <path fill="#555" fill-rule="nonzero" d="M20,3.61701517e-16 L10.7692719,3.61701517e-16 L10.7692719,9.23080056 L20,9.23080056 L20,3.61701517e-16 Z M18.4614817,7.69229986 L12.3076884,7.69229986 L12.3076884,1.53839889 L18.4614817,1.53839889 L18.4614817,7.69229986 L18.4614817,7.69229986 Z M7.23399351e-16,9.23080056 L9.23075357,9.23080056 L9.23075357,0 L0,0 L7.23399351e-16,9.23080056 Z M1.53851832,1.53839889 L7.69233706,1.53839889 L7.69233706,7.69227441 L1.53851832,7.69227441 L1.53851832,1.53839889 Z M18.4614817,18.4615757 L15.3845978,18.4615757 L15.3845978,20 L20,20 L20,16.9231004 L18.4614817,16.9231004 L18.4614817,18.4615757 Z M13.8460794,13.8461499 L13.8460794,13.8461499 L15.3845978,13.8461499 L15.3845978,15.3846761 L16.9230652,15.3846761 L16.9230652,16.9231004 L13.8460794,16.9231004 L13.8460794,13.8461499 Z M3.07693482,3.07695049 L6.15386965,3.07695049 L6.15386965,6.15390097 L3.07693482,6.15390097 L3.07693482,3.07695049 L3.07693482,3.07695049 Z M7.23399351e-16,20 L9.23075357,20 L9.23075357,10.7691994 L0,10.7691994 L7.23399351e-16,20 Z M1.53851832,18.4615757 L1.53851832,12.307751 L7.69233706,12.307751 L7.69233706,18.4615502 L1.53851832,18.4615502 L1.53851832,18.4615757 Z M10.7692719,18.4615757 L13.8462067,18.4615757 L13.8462067,20 L10.7692719,20 L10.7692719,18.4615502 L10.7692719,18.4615757 Z M18.4614817,13.8461499 L20,13.8461499 L20,15.3846761 L18.4614817,15.3846761 L18.4614817,13.8461499 Z M15.3845978,10.7691994 L20,10.7691994 L20,12.3077256 L15.3845978,12.3077256 L15.3845978,10.7691994 Z M13.8460794,3.07695049 L16.9230652,3.07695049 L16.9230652,6.15390097 L13.8460794,6.15390097 L13.8460794,3.07695049 L13.8460794,3.07695049 Z M3.07693482,13.8461499 L6.15386965,13.8461499 L6.15386965,16.9231004 L3.07693482,16.9231004 L3.07693482,13.8461499 L3.07693482,13.8461499 Z M10.7692719,10.7691994 L12.3076629,10.7691994 L12.3076629,16.923075 L10.7692719,16.923075 L10.7692719,10.7691994 Z" transform="translate(314 1034)"/>
  </g>
</svg>
