<svg xmlns="http://www.w3.org/2000/svg" width="24" height="24" viewBox="0 0 24 24">
  <g fill="none" fill-rule="evenodd" transform="translate(-408 -1032)">
    <path fill="#555" fill-rule="nonzero" d="M2.5,2.5 L2.5,9.5 L9.5,9.5 L9.5,2.5 L2.5,2.5 Z M1,1 L11,1 L11,11 L1,11 L1,1 Z M4.59438414,4.5607551 L4.59438414,7.5607551 L7.59438414,7.5607551 L7.59438414,4.5607551 L4.59438414,4.5607551 Z M1,13 L11,13 L11,23 L1,23 L1,13 Z M2.5,14.5 L2.5,21.5 L9.5,21.5 L9.5,14.5 L2.5,14.5 Z M4.59438414,16.5607551 L7.59438414,16.5607551 L7.59438414,19.5607551 L4.59438414,19.5607551 L4.59438414,16.5607551 Z M13,1 L23,1 L23,11 L13,11 L13,1 Z M14.5,2.5 L14.5,9.5 L21.5,9.5 L21.5,2.5 L14.5,2.5 Z M16.5943841,4.5607551 L19.5943841,4.5607551 L19.5943841,7.5607551 L16.5943841,7.5607551 L16.5943841,4.5607551 Z M12.9975281,12.9932709 L14.4975281,12.9932709 L14.4975281,19.5921098 L12.9975281,19.5921098 L12.9975281,12.9932709 Z M16.2296704,21.4966888 L16.2296704,22.9966888 L12.9986011,22.9966888 L12.9986011,21.4966888 L16.2296704,21.4966888 Z M21.4957886,19.6247711 L22.9957886,19.6247711 L22.9957886,22.9987746 L17.9246751,22.9987746 L17.9246751,21.4987746 L21.4957886,21.4987746 L21.4957886,19.6247711 Z M22.9929504,13.0388184 L22.9929504,14.5388184 L17.9272614,14.5388184 L17.9272614,13.0388184 L22.9929504,13.0388184 Z M21.5039671,16.2359281 L23.0039671,16.2359281 L23.0039671,17.9177794 L21.5039671,17.9177794 L21.5039671,16.2359281 Z M18.0953369,18.0583191 L19.59758,18.0583191 L19.59758,19.5583191 L16.5953369,19.5583191 L16.5953369,16.5601501 L18.0953369,16.5601501 L18.0953369,18.0583191 Z" transform="translate(408 1032)"/>
  </g>
</svg>
