<svg xmlns="http://www.w3.org/2000/svg" width="24" height="24" viewBox="0 0 24 24">
  <path fill="#555" d="M3.36339052,3.36363636 L3.36339052,9.72727273 L9.72587959,9.72727273 L9.72587959,3.36363636 L3.36339052,3.36363636 Z M2,2 L11.0892701,2 L11.0892701,11.0909091 L2,11.0909091 L2,2 Z M5.26703283,5.23705009 L5.26703283,7.96432282 L7.99381387,7.96432282 L7.99381387,5.23705009 L5.26703283,5.23705009 Z M2,12.9090909 L11.0892701,12.9090909 L11.0892701,22 L2,22 L2,12.9090909 Z M3.36339052,14.2727273 L3.36339052,20.6363636 L9.72587959,20.6363636 L9.72587959,14.2727273 L3.36339052,14.2727273 Z M5.26703283,16.146141 L7.99381387,16.146141 L7.99381387,18.8734137 L5.26703283,18.8734137 L5.26703283,16.146141 Z M12.9071241,2 L21.9963942,2 L21.9963942,11.0909091 L12.9071241,11.0909091 L12.9071241,2 Z M14.2705146,3.36363636 L14.2705146,9.72727273 L20.6330037,9.72727273 L20.6330037,3.36363636 L14.2705146,3.36363636 Z M16.174157,5.23705009 L18.900938,5.23705009 L18.900938,7.96432282 L16.174157,7.96432282 L16.174157,5.23705009 Z M12.9048773,12.9029735 L14.2682678,12.9029735 L14.2682678,18.901918 L12.9048773,18.901918 L12.9048773,12.9029735 Z M15.8426588,20.6333535 L15.8426588,21.9969899 L12.9058526,21.9969899 L12.9058526,20.6333535 L15.8426588,20.6333535 Z M20.6291758,18.9316101 L21.9925664,18.9316101 L21.9925664,21.998886 L17.3832944,21.998886 L17.3832944,20.6352497 L20.6291758,20.6352497 L20.6291758,18.9316101 Z M21.9899867,12.9443803 L21.9899867,14.3080167 L17.3856451,14.3080167 L17.3856451,12.9443803 L21.9899867,12.9443803 Z M20.6366095,15.8508437 L22,15.8508437 L22,17.3797994 L20.6366095,17.3797994 L20.6366095,15.8508437 Z M17.5384135,17.5075628 L18.9038428,17.5075628 L18.9038428,18.8711992 L16.175023,18.8711992 L16.175023,16.145591 L17.5384135,16.145591 L17.5384135,17.5075628 Z"/>
</svg>
