<svg xmlns="http://www.w3.org/2000/svg" width="24" height="24" viewBox="0 0 24 24">
  <g fill="none" fill-rule="evenodd" transform="translate(-168 -600)">
    <path fill="#555" fill-rule="nonzero" d="M12,23 C5.92486775,23 1,18.0751322 1,12 C1,5.92486775 5.92486775,1 12,1 C18.0751322,1 23,5.92486775 23,12 C23,18.0751322 18.0751322,23 12,23 Z M14.3846342,9.33509236 C14.3314195,9.7169737 14.0617456,10.1974528 13.7175634,10.5070961 C13.5945257,10.6132805 13.0978722,11.0435118 12.971001,11.1566338 C12.6973851,11.4005977 12.4821553,11.6065799 12.294977,11.8086851 C11.8862235,12.2500352 11.6018665,12.7476869 11.3934461,13.3258028 C11.2680358,13.6736657 11.176816,14.1144998 11.1133858,14.6561536 C11.0652086,15.0675559 11.3596607,15.4401186 11.771063,15.4882958 C12.1824652,15.536473 12.555028,15.2420209 12.6032052,14.8306186 C12.6543791,14.3936263 12.723626,14.0589797 12.8045448,13.8345272 C12.9487316,13.4345823 13.1340996,13.1101707 13.3954987,12.8279259 C13.6582816,12.544187 13.6126732,12.5848528 14.6771034,11.6608452 C15.2988046,11.1211605 15.7642477,10.3030232 15.8702794,9.54211539 C16.0039451,8.58289922 15.7468535,7.66636754 14.9482177,6.86317705 C14.1330171,6.04332738 12.9210518,5.67218259 11.9036331,5.80400262 C10.8014689,5.94680253 10.1948594,6.16714818 9.3603402,6.90019818 C8.66398709,7.51188169 8.22831839,8.3712087 8.04651618,9.44784042 C7.97754763,9.85627183 8.25273664,10.243281 8.66116805,10.3122495 C9.06959945,10.3812181 9.45660859,10.1060291 9.52557714,9.69759765 C9.65302417,8.94285703 9.93019502,8.39615629 10.3502718,8.02715667 C10.9247561,7.52252396 11.2635012,7.39947772 12.0963669,7.29156897 C12.667522,7.2175683 13.4119663,7.44554235 13.8845459,7.92081706 C14.3318838,8.37070617 14.45691,8.81642465 14.3846342,9.33509236 Z M12,18 C12.5522847,18 13,17.5522847 13,17 C13,16.4477153 12.5522847,16 12,16 C11.4477153,16 11,16.4477153 11,17 C11,17.5522847 11.4477153,18 12,18 Z" transform="translate(168 600)"/>
  </g>
</svg>
