<svg xmlns="http://www.w3.org/2000/svg" width="24" height="24" viewBox="0 0 24 24">
  <g fill="none" fill-rule="evenodd" transform="translate(-164 -596)">
    <path fill="#555" fill-rule="nonzero" d="M12,24 C5.372583,24 0,18.627417 0,12 C0,5.372583 5.372583,0 12,0 C18.627417,0 24,5.372583 24,12 C24,18.627417 18.627417,24 12,24 Z M13.5894945,17.8584327 C13.5894945,17.1980925 13.0490794,16.6733484 12.3906263,16.6733757 C11.7321732,16.6733757 11.2064992,17.1981198 11.2064992,17.8584327 C11.2064992,18.5168858 11.7321732,19.0554685 12.3906263,19.0554685 C13.049052,19.0554685 13.5894945,18.5168858 13.5894945,17.8584327 Z M15.5990126,6.09373882 L15.5990126,6.09373882 C14.8022285,5.35963858 13.7398316,5 12.4192606,5 C11.1613461,5 10.1422972,5.34396763 9.3787148,6.01904887 C8.61513237,6.69224307 8.1493799,7.66613883 8,8.92495588 L8.01474108,8.92495588 L8,9.03008521 C8.00000003,9.51055139 8.38917545,9.8849584 8.85487321,9.8849584 C9.30309497,9.88495837 9.66276089,9.55389946 9.70794135,9.13518717 L9.72363964,9.13518717 C9.87394943,8.18992576 10.187505,7.48719473 10.6532301,7.03714055 C11.1327938,6.60278465 11.7331304,6.37775758 12.4358614,6.37775758 C13.1847028,6.37775758 13.798878,6.61752573 14.308881,7.11276036 C14.8197592,7.60616259 15.0742958,8.17515729 15.0742958,8.83544278 C15.0742958,9.19327634 14.9857673,9.52436262 14.8197592,9.82314979 C14.6399126,10.1247265 14.2655056,10.5277132 13.6799101,11.0377162 C13.1127477,11.5467894 12.7060417,11.9525383 12.4828743,12.2070749 C12.1813249,12.5824118 11.9424592,12.9402453 11.8225615,13.3008411 C11.5514514,14.1114637 11.5367103,14.8888847 11.5514514,15.053033 L11.5367103,15.1443511 C11.5360539,15.3593003 11.6211535,15.5656346 11.7731488,15.7176248 C11.9251441,15.8696149 12.1314813,15.9547076 12.3464304,15.9540439 C12.7807863,15.9540439 13.1265863,15.6100763 13.1551933,15.1886291 C13.1690319,14.5154075 13.2151422,14.3503293 13.2898321,14.0506123 C13.3792631,13.7518251 13.5000908,13.4981911 13.6642391,13.2575204 C13.8293173,13.0324933 14.1889832,12.6728274 14.7441667,12.1923338 C15.5519998,11.4739318 16.0924148,10.8606592 16.3773908,10.3663544 C16.647571,9.85547624 16.7960484,9.31503382 16.7960484,8.71652959 C16.7960484,7.68178242 16.3921319,6.81216816 15.5990126,6.09373882 Z" transform="translate(164 596)"/>
  </g>
</svg>
