<svg xmlns="http://www.w3.org/2000/svg" width="24" height="24" viewBox="0 0 24 24">
  <g fill="none" fill-rule="evenodd" transform="translate(-120 -600)">
    <path fill="#555" fill-rule="nonzero" d="M12,23 C5.92486775,23 1,18.0751322 1,12 C1,5.92486775 5.92486775,1 12,1 C18.0751322,1 23,5.92486775 23,12 C23,18.0751322 18.0751322,23 12,23 Z M12,21.4651163 C17.2274394,21.4651163 21.4651163,17.2274394 21.4651163,12 C21.4651163,6.77256062 17.2274394,2.53488372 12,2.53488372 C6.77256062,2.53488372 2.53488372,6.77256062 2.53488372,12 C2.53488372,17.2274394 6.77256062,21.4651163 12,21.4651163 Z M14.3846342,9.33509236 C14.45691,8.81642465 14.3318838,8.37070617 13.8845459,7.92081706 C13.4119663,7.44554235 12.667522,7.2175683 12.0963669,7.29156897 C11.2635012,7.39947772 10.9247561,7.52252396 10.3502718,8.02715667 C9.93019502,8.39615629 9.65302417,8.94285703 9.52557714,9.69759765 C9.45660859,10.1060291 9.06959945,10.3812181 8.66116805,10.3122495 C8.25273664,10.243281 7.97754763,9.85627183 8.04651618,9.44784042 C8.22831839,8.3712087 8.66398709,7.51188169 9.3603402,6.90019818 C10.1948594,6.16714818 10.8014689,5.94680253 11.9036331,5.80400262 C12.9210518,5.67218259 14.1330171,6.04332738 14.9482177,6.86317705 C15.7468535,7.66636754 16.0039451,8.58289922 15.8702794,9.54211539 C15.7642477,10.3030232 15.2988046,11.1211605 14.6771034,11.6608452 C13.6126732,12.5848528 13.6582816,12.544187 13.3954987,12.8279259 C13.1340996,13.1101707 12.9487316,13.4345823 12.8045448,13.8345272 C12.723626,14.0589797 12.6543791,14.3936263 12.6032052,14.8306186 C12.555028,15.2420209 12.1824652,15.536473 11.771063,15.4882958 C11.3596607,15.4401186 11.0652086,15.0675559 11.1133858,14.6561536 C11.176816,14.1144998 11.2680358,13.6736657 11.3934461,13.3258028 C11.6018665,12.7476869 11.8862235,12.2500352 12.294977,11.8086851 C12.4821553,11.6065799 12.6973851,11.4005977 12.971001,11.1566338 C13.0978722,11.0435118 13.5945257,10.6132805 13.7175634,10.5070961 C14.0617456,10.1974528 14.3314195,9.7169737 14.3846342,9.33509236 Z M12,18 C11.4477153,18 11,17.5522847 11,17 C11,16.4477153 11.4477153,16 12,16 C12.5522847,16 13,16.4477153 13,17 C13,17.5522847 12.5522847,18 12,18 Z" transform="translate(120 600)"/>
  </g>
</svg>
