<svg xmlns="http://www.w3.org/2000/svg" width="24" height="24" viewBox="0 0 24 24">
  <path fill="#555" d="M12,22 C6.4771525,22 2,17.5228475 2,12 C2,6.4771525 6.4771525,2 12,2 C17.5228475,2 22,6.4771525 22,12 C22,17.5228475 17.5228475,22 12,22 Z M12,20.6046512 C16.7522176,20.6046512 20.6046512,16.7522176 20.6046512,12 C20.6046512,7.24778239 16.7522176,3.39534884 12,3.39534884 C7.24778239,3.39534884 3.39534884,7.24778239 3.39534884,12 C3.39534884,16.7522176 7.24778239,20.6046512 12,20.6046512 Z M14.1678493,9.57735669 C14.2335546,9.10584059 14.1198944,8.70064197 13.7132235,8.29165187 C13.2836057,7.85958395 12.6068382,7.65233482 12.0876063,7.71960816 C11.3304556,7.81770702 11.0225055,7.92956724 10.5002471,8.38832425 C10.1183591,8.72377845 9.86638561,9.22077912 9.75052467,9.90690695 C9.68782599,10.2782082 9.3359995,10.5283801 8.96469822,10.4656814 C8.59339695,10.4029827 8.34322511,10.0511562 8.4059238,9.67985493 C8.57119854,8.70109882 8.96726099,7.91989245 9.60030927,7.36381652 C10.3589631,6.69740744 10.9104263,6.49709321 11.9123937,6.36727511 C12.8373198,6.24743872 13.9391065,6.58484308 14.6801979,7.33016096 C15.4062304,8.06033413 15.6399501,8.89354474 15.5184358,9.76555944 C15.4220434,10.4572938 14.9989132,11.201055 14.4337304,11.6916774 C13.4660666,12.5316843 13.5075287,12.4947155 13.2686352,12.7526599 C13.0309996,13.0092461 12.8624832,13.3041657 12.7314044,13.667752 C12.6578418,13.8717997 12.5948901,14.1760239 12.5483684,14.5732897 C12.5045709,14.9472917 12.1658775,15.2149755 11.7918754,15.171178 C11.4178733,15.1273806 11.1501896,14.7886872 11.193987,14.4146851 C11.2516509,13.9222726 11.334578,13.5215143 11.4485874,13.2052753 C11.6380604,12.6797153 11.8965668,12.2273047 12.2681609,11.8260773 C12.438323,11.6423454 12.6339865,11.4550888 12.8827282,11.2333034 C12.9980656,11.1304652 13.4495688,10.7393459 13.5614212,10.6428146 C13.8743142,10.3613207 14.1194723,9.92452154 14.1678493,9.57735669 Z M12,17.4545455 C11.497923,17.4545455 11.0909091,17.0475316 11.0909091,16.5454545 C11.0909091,16.0433775 11.497923,15.6363636 12,15.6363636 C12.502077,15.6363636 12.9090909,16.0433775 12.9090909,16.5454545 C12.9090909,17.0475316 12.502077,17.4545455 12,17.4545455 Z"/>
</svg>
