<svg xmlns="http://www.w3.org/2000/svg" width="24" height="24" viewBox="0 0 24 24">
  <g fill="none" fill-rule="evenodd" transform="translate(-720 -1032)">
    <path fill="#555" d="M23.8728,9.67578947 C23.8728,8.17894737 22.6381333,6.96157895 21.1221333,6.96157895 C20.4653333,6.96157895 19.8509333,7.19868421 19.3552,7.61342105 C19.3392,7.62315789 19.3226667,7.63236842 19.3069333,7.64236842 C17.5184,6.51315789 15.1466667,5.79210526 12.5232,5.69421053 L14.0890667,1.3 L17.9973333,2.22210526 C18.0005333,3.44131579 19.0056,4.43263158 20.2426667,4.43263158 C21.4805333,4.43263158 22.4885333,3.43868421 22.4885333,2.21657895 C22.4885333,0.993947368 21.4805333,0 20.2426667,0 C19.3016,0 18.4976,0.574210526 18.1642667,1.38421053 L13.5338667,0.292105263 L11.6109333,5.68421053 C8.8752,5.735 6.396,6.46552632 4.5408,7.63263158 C4.04133333,7.205 3.41813333,6.96131579 2.74933333,6.96131579 C1.2328,6.96131579 -1.687539e-13,8.17894737 -1.687539e-13,9.67552632 C-1.687539e-13,10.6013158 0.484,11.4565789 1.26826667,11.9544737 C1.22053333,12.2242105 1.19013333,12.4976316 1.19013333,12.7763158 C1.19013333,16.6936842 6.0016,19.8807895 11.9152,19.8807895 C17.8298667,19.8807895 22.6416,16.6936842 22.6416,12.7763158 C22.6416,12.5060526 22.6141333,12.2402632 22.5690667,11.9776316 C23.3744,11.4834211 23.8728,10.6157895 23.8728,9.67578947 L23.8728,9.67578947 Z M15.5624,13.1897368 C14.6290667,13.1897368 13.8733333,12.4439474 13.8733333,11.5218421 C13.8733333,10.6013158 14.6290667,9.855 15.5624,9.855 C16.4957333,9.855 17.2528,10.6013158 17.2528,11.5218421 C17.2528,12.4439474 16.4954667,13.1897368 15.5624,13.1897368 L15.5624,13.1897368 Z M15.8986667,16.0334211 C15.848,16.0844737 14.6365333,17.3021053 11.8962667,17.3021053 C9.1408,17.3021053 8.03946667,16.0681579 7.99333333,16.015 C7.83893333,15.8368421 7.86,15.5668421 8.0408,15.4142105 C8.22133333,15.2628947 8.492,15.2823684 8.64826667,15.4578947 C8.6728,15.4852632 9.59226667,16.4502632 11.8962667,16.4502632 C14.2386667,16.4502632 15.2666667,15.4507895 15.2776,15.4410526 C15.4429333,15.2736842 15.7165333,15.2705263 15.8866667,15.4339474 C16.0565333,15.5968421 16.0626667,15.8631579 15.8986667,16.0334211 L15.8986667,16.0334211 Z M6.81866667,11.5218421 C6.81866667,10.6013158 7.57413333,9.855 8.50906667,9.855 C9.4408,9.855 10.1981333,10.6013158 10.1981333,11.5218421 C10.1981333,12.4439474 9.4408,13.1897368 8.50906667,13.1897368 C7.5744,13.1897368 6.81866667,12.4439474 6.81866667,11.5218421 L6.81866667,11.5218421 Z" transform="translate(720 1034)"/>
  </g>
</svg>
