<svg xmlns="http://www.w3.org/2000/svg" width="20" height="20" viewBox="0 0 20 20">
  <path fill="#555" fill-rule="evenodd" d="M20,9.78704647 C20,8.58239242 18.9656289,7.60265795 17.6955643,7.60265795 C17.1453146,7.60265795 16.6305866,7.79347956 16.2152743,8.12725853 C16.2018699,8.13509471 16.1880187,8.14250731 16.1748378,8.15055528 C14.6764519,7.24177002 12.6894764,6.66146902 10.4916055,6.58268363 L11.8034472,3.04623612 L15.0776895,3.78834368 C15.0803704,4.76956067 15.9223887,5.56736866 16.9587704,5.56736866 C17.9958223,5.56736866 18.840298,4.76744278 18.840298,3.78389612 C18.840298,2.79992587 17.9958223,2 16.9587704,2 C16.1703696,2 15.4967997,2.46212292 15.2175419,3.1140085 L11.3383153,2.23508544 L9.72733264,6.57463566 C7.43540766,6.61551087 5.35839952,7.20343627 3.80416206,8.1427191 C3.3857221,7.79856248 2.86362164,7.60244616 2.3033187,7.60244616 C1.03280721,7.60244616 -1.687539e-13,8.58239242 -1.687539e-13,9.78683469 C-1.687539e-13,10.5319073 0.40548239,11.2202205 1.06252025,11.6209247 C1.02253052,11.8380081 0.997062207,12.0580566 0.997062207,12.2823408 C0.997062207,15.4350272 5.02798164,18 9.9822392,18 C14.9373904,18 18.9685332,15.4350272 18.9685332,12.2823408 C18.9685332,12.0648338 18.9455224,11.8509272 18.9077667,11.6395621 C19.5824537,11.241823 20,10.5435557 20,9.78704647 L20,9.78704647 Z M13.0377668,12.6150608 C12.2558449,12.6150608 11.6227115,12.0148517 11.6227115,11.2727441 C11.6227115,10.5319073 12.2558449,9.93127457 13.0377668,9.93127457 C13.8196888,9.93127457 14.4539392,10.5319073 14.4539392,11.2727441 C14.4539392,12.0148517 13.8194654,12.6150608 13.0377668,12.6150608 L13.0377668,12.6150608 Z M13.3194821,14.9036494 C13.277035,14.9447364 12.2621002,15.9246826 9.96637736,15.9246826 C7.65792031,15.9246826 6.73525239,14.9316055 6.69660311,14.8888242 C6.56725087,14.7454432 6.58489997,14.528148 6.73636942,14.4053106 C6.88761547,14.2835321 7.11437284,14.2992045 7.24528892,14.4404675 C7.2658423,14.4624935 8.03614714,15.2391227 9.96637736,15.2391227 C11.9287781,15.2391227 12.7900093,14.4347492 12.7991689,14.426913 C12.9376808,14.2922154 13.1668957,14.289674 13.3094289,14.4211948 C13.4517387,14.552292 13.456877,14.7666221 13.3194821,14.9036494 L13.3194821,14.9036494 Z M5.71249846,11.2727441 C5.71249846,10.5319073 6.34540844,9.93127457 7.12867084,9.93127457 C7.90925237,9.93127457 8.54372619,10.5319073 8.54372619,11.2727441 C8.54372619,12.0148517 7.90925237,12.6150608 7.12867084,12.6150608 C6.34563185,12.6150608 5.71249846,12.0148517 5.71249846,11.2727441 L5.71249846,11.2727441 Z"/>
</svg>
