<svg xmlns="http://www.w3.org/2000/svg" width="24" height="24" viewBox="0 0 24 24">
  <g fill="none" fill-rule="evenodd" transform="translate(-648 -1104)">
    <path fill="#555" d="M23,11.7604273 C23,10.4051915 21.8621918,9.30299019 20.4651207,9.30299019 C19.8598461,9.30299019 19.2936452,9.5176645 18.8368017,9.89316584 C18.8220569,9.90198155 18.8068206,9.91032073 18.7923215,9.91937469 C17.144097,8.89699128 14.9584241,8.24415265 12.5407661,8.15551908 L13.9837919,4.17701563 L17.5854585,5.01188664 C17.5884074,6.11575575 18.5146275,7.01328974 19.6546474,7.01328974 C20.7954045,7.01328974 21.7243278,6.11337313 21.7243278,5.00688313 C21.7243278,3.89991661 20.7954045,3 19.6546474,3 C18.7874066,3 18.0464797,3.51988828 17.739296,4.25325956 L13.4721468,3.26447112 L11.7000659,8.14646511 C9.17894843,8.19244973 6.89423947,8.85386581 5.18457826,9.91055899 C4.72429432,9.52338279 4.1499838,9.30275193 3.53365057,9.30275193 C2.13608793,9.30275193 1,10.4051915 1,11.760189 C1,12.5983957 1.44603063,13.3727481 2.16877227,13.8235403 C2.12478358,14.0677591 2.09676843,14.3153136 2.09676843,14.5676334 C2.09676843,18.1144056 6.5307798,21 11.9804631,21 C17.4311294,21 21.8653865,18.1144056 21.8653865,14.5676334 C21.8653865,14.322938 21.8400746,14.0822931 21.7985434,13.8445074 C22.540699,13.3970508 23,12.6115001 23,11.7604273 L23,11.7604273 Z M15.3415435,14.9419434 C14.4814294,14.9419434 13.7849826,14.2667081 13.7849826,13.4318371 C13.7849826,12.5983957 14.4814294,11.9226839 15.3415435,11.9226839 C16.2016577,11.9226839 16.8993331,12.5983957 16.8993331,13.4318371 C16.8993331,14.2667081 16.2014119,14.9419434 15.3415435,14.9419434 L15.3415435,14.9419434 Z M15.6514304,17.5166056 C15.6047384,17.5628284 14.4883103,18.665268 11.9630151,18.665268 C9.42371234,18.665268 8.40877763,17.5480562 8.36626342,17.4999272 C8.22397596,17.3386236 8.24338997,17.0941665 8.41000637,16.9559744 C8.57637702,16.8189736 8.82581013,16.836605 8.96981781,16.995526 C8.99242653,17.0203052 9.83976185,17.894013 11.9630151,17.894013 C14.1216559,17.894013 15.0690102,16.9890929 15.0790858,16.9802772 C15.2314489,16.8287424 15.4835852,16.8258832 15.6403717,16.9738441 C15.7969125,17.1213284 15.8025647,17.3624499 15.6514304,17.5166056 L15.6514304,17.5166056 Z M7.28374831,13.4318371 C7.28374831,12.5983957 7.97994929,11.9226839 8.84153793,11.9226839 C9.70017761,11.9226839 10.3980988,12.5983957 10.3980988,13.4318371 C10.3980988,14.2667081 9.70017761,14.9419434 8.84153793,14.9419434 C7.98019503,14.9419434 7.28374831,14.2667081 7.28374831,13.4318371 L7.28374831,13.4318371 Z" transform="translate(648 1104)"/>
  </g>
</svg>
