<svg xmlns="http://www.w3.org/2000/svg" width="24" height="24" viewBox="0 0 24 24">
  <path fill="#555" fill-rule="evenodd" d="M22,11.7870465 C22,10.5823924 20.9656289,9.60265795 19.6955643,9.60265795 C19.1453146,9.60265795 18.6305866,9.79347956 18.2152743,10.1272585 C18.2018699,10.1350947 18.1880187,10.1425073 18.1748378,10.1505553 C16.6764519,9.24177002 14.6894764,8.66146902 12.4916055,8.58268363 L13.8034472,5.04623612 L17.0776895,5.78834368 C17.0803704,6.76956067 17.9223887,7.56736866 18.9587704,7.56736866 C19.9958223,7.56736866 20.840298,6.76744278 20.840298,5.78389612 C20.840298,4.79992587 19.9958223,4 18.9587704,4 C18.1703696,4 17.4967997,4.46212292 17.2175419,5.1140085 L13.3383153,4.23508544 L11.7273326,8.57463566 C9.43540766,8.61551087 7.35839952,9.20343627 5.80416206,10.1427191 C5.3857221,9.79856248 4.86362164,9.60244616 4.3033187,9.60244616 C3.03280721,9.60244616 2,10.5823924 2,11.7868347 C2,12.5319073 2.40548239,13.2202205 3.06252025,13.6209247 C3.02253052,13.8380081 2.99706221,14.0580566 2.99706221,14.2823408 C2.99706221,17.4350272 7.02798164,20 11.9822392,20 C16.9373904,20 20.9685332,17.4350272 20.9685332,14.2823408 C20.9685332,14.0648338 20.9455224,13.8509272 20.9077667,13.6395621 C21.5824537,13.241823 22,12.5435557 22,11.7870465 L22,11.7870465 Z M15.0377668,14.6150608 C14.2558449,14.6150608 13.6227115,14.0148517 13.6227115,13.2727441 C13.6227115,12.5319073 14.2558449,11.9312746 15.0377668,11.9312746 C15.8196888,11.9312746 16.4539392,12.5319073 16.4539392,13.2727441 C16.4539392,14.0148517 15.8194654,14.6150608 15.0377668,14.6150608 L15.0377668,14.6150608 Z M15.3194821,16.9036494 C15.277035,16.9447364 14.2621002,17.9246826 11.9663774,17.9246826 C9.65792031,17.9246826 8.73525239,16.9316055 8.69660311,16.8888242 C8.56725087,16.7454432 8.58489997,16.528148 8.73636942,16.4053106 C8.88761547,16.2835321 9.11437284,16.2992045 9.24528892,16.4404675 C9.2658423,16.4624935 10.0361471,17.2391227 11.9663774,17.2391227 C13.9287781,17.2391227 14.7900093,16.4347492 14.7991689,16.426913 C14.9376808,16.2922154 15.1668957,16.289674 15.3094289,16.4211948 C15.4517387,16.552292 15.456877,16.7666221 15.3194821,16.9036494 L15.3194821,16.9036494 Z M7.71249846,13.2727441 C7.71249846,12.5319073 8.34540844,11.9312746 9.12867084,11.9312746 C9.90925237,11.9312746 10.5437262,12.5319073 10.5437262,13.2727441 C10.5437262,14.0148517 9.90925237,14.6150608 9.12867084,14.6150608 C8.34563185,14.6150608 7.71249846,14.0148517 7.71249846,13.2727441 L7.71249846,13.2727441 Z"/>
</svg>
