<svg xmlns="http://www.w3.org/2000/svg" width="21" height="21" viewBox="0 0 21 21">
  <g fill="none" fill-rule="evenodd" transform="translate(-505 -889)">
    <path fill="#555" fill-rule="nonzero" d="M3.51826323,7.78890286 L4.90438952,7.78890286 C5.31541956,7.78890286 5.64862524,8.11942559 5.64862524,8.52714603 C5.64862524,8.93486648 5.31541956,9.26538921 4.90438952,9.26538921 L1.74423572,9.26538921 C1.33320568,9.26538921 1,8.93486648 1,8.52714603 L1,5.25296173 C1,4.84524128 1.33320568,4.51471855 1.74423572,4.51471855 C2.15526576,4.51471855 2.48847144,4.84524128 2.48847144,5.25296173 L2.48847144,6.532399 C4.32953628,3.17003393 7.89681931,1 11.8656488,1 C16.460052,1 20.4942703,3.9075468 21.9596313,8.15070508 C22.0928371,8.53642102 21.885599,8.95622068 21.4967521,9.08835387 C21.1079051,9.22048706 20.6846978,9.01491763 20.5514921,8.62920169 C19.2907677,4.97859735 15.8190911,2.47648636 11.8656488,2.47648636 C8.23785302,2.47648636 5.00022336,4.58322247 3.51826323,7.78890286 Z M19.4817368,15.2110971 L18.0956105,15.2110971 C17.6845804,15.2110971 17.3513748,14.8805744 17.3513748,14.472854 C17.3513748,14.0651335 17.6845804,13.7346108 18.0956105,13.7346108 L21.2557643,13.7346108 C21.6667943,13.7346108 22,14.0651335 22,14.472854 L22,17.7470383 C22,18.1547587 21.6667943,18.4852815 21.2557643,18.4852815 C20.8447342,18.4852815 20.5115286,18.1547587 20.5115286,17.7470383 L20.5115286,16.467601 C18.6704637,19.8299661 15.1031807,22 11.1343512,22 C6.53994803,22 2.50572968,19.0924532 1.04036868,14.8492949 C0.907162927,14.463579 1.11440103,14.0437793 1.50324794,13.9116461 C1.89209485,13.7795129 2.31530215,13.9850824 2.44850791,14.3707983 C3.70923232,18.0214027 7.18090887,20.5235136 11.1343512,20.5235136 C14.762147,20.5235136 17.9997766,18.4167775 19.4817368,15.2110971 Z" transform="translate(504 888)"/>
  </g>
</svg>
