<svg xmlns="http://www.w3.org/2000/svg" width="24" height="24" viewBox="0 0 24 24">
  <g fill="none" fill-rule="evenodd" transform="translate(-504 -888)">
    <path fill="#555" fill-rule="nonzero" d="M4.28571429,9.42857143 L0.857142857,9.42857143 C0.342857143,9.42857143 0,9.08571429 0,8.57142857 L0,5.14285714 C0,4.62857143 0.342857143,4.28571429 0.857142857,4.28571429 C1.37142857,4.28571429 1.71428571,4.62857143 1.71428571,5.14285714 L1.71428571,5.82857143 C3.85714286,2.22857143 7.71428571,0 12,0 C17.2285714,0 21.7714286,3.34285714 23.4,8.22857143 C23.5714286,8.74285714 23.3142857,9.17142857 22.8857143,9.34285714 C22.3714286,9.51428571 21.9428571,9.25714286 21.7714286,8.82857143 C20.4,4.54285714 16.4571429,1.71428571 12,1.71428571 C7.88571429,1.71428571 4.28571429,4.11428571 2.65714286,7.71428571 L4.28571429,7.71428571 C4.8,7.71428571 5.14285714,8.05714286 5.14285714,8.57142857 C5.14285714,9.08571429 4.8,9.42857143 4.28571429,9.42857143 Z M23.1428571,14.5714286 C23.6571429,14.5714286 24,14.9142857 24,15.4285714 L24,18.8571429 C24,19.3714286 23.6571429,19.7142857 23.1428571,19.7142857 C22.6285714,19.7142857 22.2857143,19.3714286 22.2857143,18.8571429 L22.2857143,18.1714286 C20.1428571,21.6857143 16.2857143,24 12,24 C6.77142857,24 2.14285714,20.6571429 0.6,15.7714286 C0.428571429,15.2571429 0.685714286,14.8285714 1.11428571,14.6571429 C1.62857143,14.4857143 2.05714286,14.7428571 2.22857143,15.1714286 C3.6,19.4571429 7.54285714,22.2857143 12,22.2857143 C16.0285714,22.2857143 19.7142857,19.8857143 21.3428571,16.2857143 L19.7142857,16.2857143 C19.2,16.2857143 18.8571429,15.9428571 18.8571429,15.4285714 C18.8571429,14.9142857 19.2,14.5714286 19.7142857,14.5714286 L23.1428571,14.5714286 Z" transform="translate(504 888)"/>
  </g>
</svg>
