<svg xmlns="http://www.w3.org/2000/svg" width="24" height="24" viewBox="0 0 24 24">
  <path d="M21,3 C20.45,3 20,3.45 20,4 L20,6.06 C18.18,3.61 15.29,2 12,2 C6.48,2 2,6.48 2,12 C2,12.55 2.45,13 3,13 C3.55,13 4,12.55 4,12 C4,7.58 7.58,4 12,4 C14.52,4 16.76,5.18 18.22,7 L17,7 C16.45,7 16,7.45 16,8 C16,8.55 16.45,9 17,9 L21,9 C21.55,9 22,8.55 22,8 L22,4 C22,3.45 21.55,3 21,3 Z M21,11 C20.45,11 20,11.45 20,12 C20,16.42 16.42,20 12,20 C9.48,20 7.24,18.82 5.78,17 L7,17 C7.55,17 8,16.55 8,16 C8,15.45 7.55,15 7,15 L3,15 C2.45,15 2,15.45 2,16 L2,20 C2,20.55 2.45,21 3,21 C3.55,21 4,20.55 4,20 L4,17.94 C5.82,20.39 8.71,22 12,22 C17.52,22 22,17.52 22,12 C22,11.45 21.55,11 21,11 Z"/>
</svg>
