<svg xmlns="http://www.w3.org/2000/svg" width="20" height="20" viewBox="0 0 20 20">
  <path fill="#555" d="M4.25648756,8.5716155 L5.72849164,8.56139765 C6.11500304,8.5587147 6.43048002,8.87386439 6.43312919,9.26530419 C6.43577836,9.65674399 6.12459654,9.97624361 5.73808514,9.97892656 L2.70465399,9.99998299 C2.31626804,10.002679 2,9.68456603 2,9.29121854 L2,6.0867806 C2,5.69533161 2.31333676,5.3779995 2.69985724,5.3779995 C3.08637772,5.3779995 3.39971448,5.69533161 3.39971448,6.0867806 L3.39971448,7.2113571 C5.22215139,4.15553534 8.60212922,2 12.2444138,2 C16.6533054,2 20.3499492,4.72097676 21.9526423,8.9152086 C22.0921407,9.28027447 21.9130082,9.69074656 21.5525386,9.83202368 C21.1920691,9.9733008 20.786765,9.79188418 20.6472666,9.4268183 C19.2478959,5.76467906 16.0591678,3.4175622 12.2444138,3.4175622 C8.87262731,3.4175622 5.72301755,5.59941114 4.25648756,8.5716155 Z M19.7435124,15.4283845 L18.2715084,15.4386023 C17.884997,15.4412853 17.56952,15.1261356 17.5668708,14.7346958 C17.5642216,14.343256 17.8754035,14.0237564 18.2619149,14.0210734 L21.295346,14.000017 C21.683732,13.997321 22,14.315434 22,14.7087815 L22,17.9132194 C22,18.3046684 21.6866632,18.6220005 21.3001428,18.6220005 C20.9136223,18.6220005 20.6002855,18.3046684 20.6002855,17.9132194 L20.6002855,16.7886429 C18.7778486,19.8444647 15.3978708,22 11.7555862,22 C7.34669464,22 3.65005079,19.2790232 2.04735771,15.0847914 C1.90785933,14.7197255 2.08699184,14.3092534 2.44746138,14.1679763 C2.80793091,14.0266992 3.21323498,14.2081158 3.35273336,14.5731817 C4.75210409,18.2353209 7.94083219,20.5824378 11.7555862,20.5824378 C15.1273727,20.5824378 18.2769824,18.4005889 19.7435124,15.4283845 Z" transform="translate(-2 -2)"/>
</svg>
