<svg xmlns="http://www.w3.org/2000/svg" width="24" height="24" viewBox="0 0 24 24">
  <g fill="none" fill-rule="evenodd" transform="translate(-528 -336)">
    <path fill="#555" fill-rule="nonzero" d="M12,22.5 C17.7989899,22.5 22.5,17.7989899 22.5,12 C22.5,6.20101013 17.7989899,1.5 12,1.5 C6.20101013,1.5 1.5,6.20101013 1.5,12 C1.5,17.7989899 6.20101013,22.5 12,22.5 Z M12,24 C5.372583,24 0,18.627417 0,12 C0,5.372583 5.372583,0 12,0 C18.627417,0 24,5.372583 24,12 C24,18.627417 18.627417,24 12,24 Z M10.4245022,8.36372294 L14.3843001,12.3235209 L10.4245022,16.2833189 C10.1120827,16.5957383 10.1120827,17.1022703 10.4245022,17.4146897 C10.7369216,17.7271092 11.2434536,17.7271092 11.555873,17.4146897 L16.0813564,12.8892063 C16.3937758,12.5767869 16.3937758,12.0702549 16.0813564,11.7578355 L11.555873,7.23235209 C11.2434536,6.91993266 10.7369216,6.91993266 10.4245022,7.23235209 C10.1120827,7.54477153 10.1120827,8.05130351 10.4245022,8.36372294 Z" transform="translate(528 336)"/>
  </g>
</svg>
