<svg xmlns="http://www.w3.org/2000/svg" width="24" height="24" viewBox="0 0 24 24">
  <path fill="#555" d="M3.81818182,2 L20.1818182,2 C21.1859723,2 22,2.81402773 22,3.81818182 L22,20.1818182 C22,21.1859723 21.1859723,22 20.1818182,22 L3.81818182,22 C2.81402773,22 2,21.1859723 2,20.1818182 L2,3.81818182 C2,2.81402773 2.81402773,2 3.81818182,2 Z M13.1738765,12.0694262 L9.776618,15.4884968 C9.51120484,15.7556141 9.51258627,16.1873153 9.77970352,16.4527284 C10.0468208,16.7181416 10.4785219,16.7167602 10.7439351,16.4496429 L14.6140786,12.5546511 C14.8764703,12.2905747 14.8785407,11.8648479 14.6187299,11.5982319 L10.7485864,7.62671923 C10.4857838,7.35703317 10.0541165,7.35145301 9.78443039,7.61425558 C9.51474433,7.87705816 9.50916416,8.30872549 9.77196674,8.57841155 L13.1738765,12.0694262 Z"/>
</svg>
