<svg xmlns="http://www.w3.org/2000/svg" width="24" height="24" viewBox="0 0 24 24">
  <g fill="none" fill-rule="evenodd" transform="translate(-336 -336)">
    <path fill="#555" d="M12,24 C5.372583,24 0,18.627417 0,12 C0,5.372583 5.372583,0 12,0 C18.627417,0 24,5.372583 24,12 C24,18.627417 18.627417,24 12,24 Z M10.1009812,8.04020203 L14.0607792,12 L10.1009812,15.959798 C9.78856181,16.2722174 9.78856181,16.7787494 10.1009812,17.0911688 C10.4134007,17.4035883 10.9199327,17.4035883 11.2323521,17.0911688 L15.7578355,12.5656854 C16.0702549,12.253266 16.0702549,11.746734 15.7578355,11.4343146 L11.2323521,6.90883118 C10.9199327,6.59641174 10.4134007,6.59641174 10.1009812,6.90883118 C9.78856181,7.22125061 9.78856181,7.72778259 10.1009812,8.04020203 Z" transform="translate(336 336)"/>
  </g>
</svg>
