<svg xmlns="http://www.w3.org/2000/svg" width="24" height="24" viewBox="0 0 24 24">
  <g fill="none" fill-rule="evenodd" transform="translate(-648 -408)">
    <path fill="#555" fill-rule="nonzero" d="M3,1.0209559 L21,1.0209559 C22.1045695,1.0209559 23,1.9163864 23,3.0209559 L23,21.0209559 C23,22.1255254 22.1045695,23.0209559 21,23.0209559 L3,23.0209559 C1.8954305,23.0209559 1,22.1255254 1,21.0209559 L1,3.0209559 C1,1.9163864 1.8954305,1.0209559 3,1.0209559 Z M13.2912642,12.0973247 L9.55427979,15.8583024 C9.26232532,16.1521314 9.2638449,16.6270027 9.55767387,16.9189572 C9.85150283,17.2109116 10.3263741,17.2093921 10.6183286,16.9155631 L14.8754865,12.6310721 C15.1641173,12.3405881 15.1663948,11.8722885 14.8806029,11.579011 L10.623445,7.21034706 C10.3343622,6.91369239 9.8595281,6.90755421 9.56287343,7.19663704 C9.26621876,7.48571987 9.26008058,7.96055393 9.54916341,8.2572086 L13.2912642,12.0973247 Z" transform="translate(648 408)"/>
  </g>
</svg>
