<svg xmlns="http://www.w3.org/2000/svg" width="24" height="24" viewBox="0 0 24 24">
  <g fill="none" fill-rule="evenodd" transform="translate(-264 -408)">
    <path fill="#555" fill-rule="nonzero" d="M12,23 C5.92486775,23 1,18.0751322 1,12 C1,5.92486775 5.92486775,1 12,1 C18.0751322,1 23,5.92486775 23,12 C23,18.0751322 18.0751322,23 12,23 Z M13.2912642,12.0973247 L9.55427979,15.8583024 C9.26232532,16.1521314 9.2638449,16.6270027 9.55767387,16.9189572 C9.85150283,17.2109116 10.3263741,17.2093921 10.6183286,16.9155631 L14.8754865,12.6310721 C15.1641173,12.3405881 15.1663948,11.8722885 14.8806029,11.579011 L10.623445,7.21034706 C10.3343622,6.91369239 9.8595281,6.90755421 9.56287343,7.19663704 C9.26621876,7.48571987 9.26008058,7.96055393 9.54916341,8.2572086 L13.2912642,12.0973247 Z" transform="translate(264 408)"/>
  </g>
</svg>
