<svg xmlns="http://www.w3.org/2000/svg" width="24" height="24" viewBox="0 0 24 24">
  <path fill="#555" d="M12,22 C6.4771525,22 2,17.5228475 2,12 C2,6.4771525 6.4771525,2 12,2 C17.5228475,2 22,6.4771525 22,12 C22,17.5228475 17.5228475,22 12,22 Z M13.1738765,12.088477 L9.776618,15.5075477 C9.51120484,15.7746649 9.51258627,16.2063661 9.77970352,16.4717792 C10.0468208,16.7371924 10.4785219,16.735811 10.7439351,16.4686937 L14.6140786,12.5737019 C14.8764703,12.3096256 14.8785407,11.8838987 14.6187299,11.6172827 L10.7485864,7.64577005 C10.4857838,7.37608399 10.0541165,7.37050382 9.78443039,7.6333064 C9.51474433,7.89610897 9.50916416,8.3277763 9.77196674,8.59746236 L13.1738765,12.088477 Z"/>
</svg>
