<svg xmlns="http://www.w3.org/2000/svg" width="24" height="24" viewBox="0 0 24 24">
  <g fill="none" fill-rule="evenodd" transform="translate(-648 -408)">
    <path fill="#555" fill-rule="nonzero" d="M2,0 L22,0 C23.1045695,0 24,0.8954305 24,2 L24,22 C24,23.1045695 23.1045695,24 22,24 L2,24 C0.8954305,24 0,23.1045695 0,22 L0,2 C0,0.8954305 0.8954305,0 2,0 Z M10.4343146,8.04020203 L14.3941125,12 L10.4343146,15.959798 C10.1218951,16.2722174 10.1218951,16.7787494 10.4343146,17.0911688 C10.746734,17.4035883 11.253266,17.4035883 11.5656854,17.0911688 L16.0911688,12.5656854 C16.4035883,12.253266 16.4035883,11.746734 16.0911688,11.4343146 L11.5656854,6.90883118 C11.253266,6.59641174 10.746734,6.59641174 10.4343146,6.90883118 C10.1218951,7.22125061 10.1218951,7.72778259 10.4343146,8.04020203 Z" transform="translate(648 408)"/>
  </g>
</svg>
