<svg xmlns="http://www.w3.org/2000/svg" width="20" height="20" viewBox="0 0 20 20">
  <path fill="#555" d="M10,20 C4.4771525,20 0,15.5228475 0,10 C0,4.4771525 4.4771525,0 10,0 C15.5228475,0 20,4.4771525 20,10 C20,15.5228475 15.5228475,20 10,20 Z M10,18.6046512 C14.7522176,18.6046512 18.6046512,14.7522176 18.6046512,10 C18.6046512,5.24778239 14.7522176,1.39534884 10,1.39534884 C5.24778239,1.39534884 1.39534884,5.24778239 1.39534884,10 C1.39534884,14.7522176 5.24778239,18.6046512 10,18.6046512 Z M11.1738765,10.088477 L7.77196674,6.59746236 C7.50916416,6.3277763 7.51474433,5.89610897 7.78443039,5.6333064 C8.05411645,5.37050382 8.48578378,5.37608399 8.74858635,5.64577005 L12.6187299,9.61728273 C12.8785407,9.88389868 12.8764703,10.3096256 12.6140786,10.5737019 L8.7439351,14.4686937 C8.47852194,14.735811 8.04682076,14.7371924 7.77970352,14.4717792 C7.51258627,14.2063661 7.51120484,13.7746649 7.776618,13.5075477 L11.1738765,10.088477 Z"/>
</svg>
