<svg xmlns="http://www.w3.org/2000/svg" width="24" height="24" viewBox="0 0 24 24">
  <g fill="none" fill-rule="evenodd" transform="translate(-456 -408)">
    <path fill="#555" fill-rule="nonzero" d="M12,23 C5.92486775,23 1,18.0751322 1,12 C1,5.92486775 5.92486775,1 12,1 C18.0751322,1 23,5.92486775 23,12 C23,18.0751322 18.0751322,23 12,23 Z M12,21.4651163 C17.2274394,21.4651163 21.4651163,17.2274394 21.4651163,12 C21.4651163,6.77256062 17.2274394,2.53488372 12,2.53488372 C6.77256062,2.53488372 2.53488372,6.77256062 2.53488372,12 C2.53488372,17.2274394 6.77256062,21.4651163 12,21.4651163 Z M13.2912642,12.0973247 L9.54916341,8.2572086 C9.26008058,7.96055393 9.26621876,7.48571987 9.56287343,7.19663704 C9.8595281,6.90755421 10.3343622,6.91369239 10.623445,7.21034706 L14.8806029,11.579011 C15.1663948,11.8722885 15.1641173,12.3405881 14.8754865,12.6310721 L10.6183286,16.9155631 C10.3263741,17.2093921 9.85150283,17.2109116 9.55767387,16.9189572 C9.2638449,16.6270027 9.26232532,16.1521314 9.55427979,15.8583024 L13.2912642,12.0973247 Z" transform="translate(456 408)"/>
  </g>
</svg>
