<svg xmlns="http://www.w3.org/2000/svg" width="24" height="24" viewBox="0 0 24 24">
  <path fill="#555" d="M4.30635456,17.6756934 L7.43624386,20.8055827 C7.70952379,21.0788626 7.7094997,21.521961 7.43619005,21.7952707 C7.16288041,22.0685803 6.71978201,22.0686044 6.44650209,21.7953245 L2.20521284,17.5540352 C1.93193291,17.2807553 1.931957,16.8376569 2.20526664,16.5643472 L6.4470171,12.3225968 C6.72032674,12.0492871 7.16342514,12.0492631 7.43670506,12.322543 C7.70998499,12.5958229 7.7099609,13.0389213 7.43665126,13.3122309 L4.47274286,16.2761393 L15.3014059,16.2761393 C18.2279008,16.2761393 20.6002938,13.9040044 20.6002938,10.9778276 L20.6002938,2.69977702 C20.6002938,2.31330085 20.9136287,2 21.3001469,2 C21.6866651,2 22,2.31330085 22,2.69977702 L22,10.9778276 C22,14.6769567 19.0009372,17.6756934 15.3014059,17.6756934 L4.30635456,17.6756934 Z" transform="matrix(1 0 0 -1 0 24)"/>
</svg>
