<svg xmlns="http://www.w3.org/2000/svg" width="24" height="24" viewBox="0 0 24 24">
  <g fill="none" fill-rule="evenodd" transform="translate(-504 -360)">
    <path fill="#555" fill-rule="nonzero" d="M4.63902441,6.63045179 L14.1762271,6.63045179 C17.9448928,6.63045179 21,9.6817323 21,13.4456776 L21,21.2427527 C21,21.6609688 20.6605436,22 20.241803,22 C19.8230624,22 19.483606,21.6609688 19.483606,21.2427527 L19.483606,13.4456776 C19.483606,10.5181646 17.1074115,8.14494641 14.1762271,8.14494641 L4.53400634,8.14494641 L7.82091291,11.358815 C8.12013159,11.6513847 8.12522415,12.1308202 7.83228746,12.4296641 C7.53935078,12.728508 7.05931401,12.7335942 6.76009533,12.4410244 L2.22778848,8.00942951 C1.92869139,7.71697863 1.92346348,7.23778189 2.2161092,6.93889141 L6.82875725,2.22781423 C7.12152194,1.92880226 7.6015557,1.92344055 7.90094268,2.21583853 C8.20032965,2.50823651 8.20569808,2.987669 7.9129334,3.28668098 L4.63902441,6.63045179 Z" transform="translate(504 360)"/>
  </g>
</svg>
