<svg xmlns="http://www.w3.org/2000/svg" width="20" height="20" viewBox="0 0 20 20">
  <path fill="#555" fill-rule="evenodd" d="M2.31002808,4.32430661 L13.4291382,4.32430661 C14.9323222,4.3332202 16.3186188,4.84469604 17.588028,5.85873413 C19.4921417,7.37979126 20,9.77059937 20,10.6442261 C20,11.2266439 20,14.1119762 20,19.300223 C19.9151291,19.766741 19.6818447,20 19.3001469,20 C18.918449,20 18.6851647,19.766741 18.6002938,19.300223 C18.6002938,16.1679861 18.592187,13.2826538 18.5759735,10.6442261 C18.5759735,9.34576416 17.2865601,5.89025879 13.4291382,5.72167969 C9.59417725,5.72167969 5.94228109,5.72167969 2.47344971,5.72167969 C3.41463216,6.66485596 4.40236601,7.65355241 5.43665126,8.68776905 C5.59403992,8.84109497 5.7913208,9.24526978 5.49713135,9.60702515 C5.20294189,9.96878052 4.71875649,9.95317983 4.4470171,9.67740321 C4.26585751,9.49355213 2.83951314,8.06792704 0.167984009,5.40052795 C0.0559946696,5.29048603 -1.42108547e-14,5.13733214 -1.42108547e-14,4.94106628 C-1.42108547e-14,4.74480041 0.0684042783,4.57976658 0.205212835,4.44596479 L4.49057007,0.157913208 C4.80293532,-0.0733969681 5.11829572,-0.0577915898 5.43665126,0.204729343 C5.7550068,0.467250276 5.754871,0.797146264 5.43624386,1.19441731 L2.31002808,4.32430661 Z"/>
</svg>
