<svg xmlns="http://www.w3.org/2000/svg" width="24" height="24" viewBox="0 0 24 24">
  <g fill="none" fill-rule="evenodd" transform="translate(-264 -1152)">
    <path fill="#555" fill-rule="nonzero" d="M12.7094998,11.9594963 C12.7094998,12.1914962 12.6357498,12.3924961 12.4882499,12.5624961 C12.3407499,12.732496 12.1555,12.817246 11.9325,12.816746 C11.7005001,12.816746 11.4995002,12.742996 11.3295002,12.5954961 C11.1595003,12.4479961 11.0747503,12.2627462 11.0752503,12.0397462 C11.0752503,11.8077463 11.1512503,11.6067464 11.3032502,11.4367464 C11.4552502,11.2667465 11.6427501,11.1819965 11.86575,11.1824965 C12.08875,11.1829965 12.2852499,11.2567465 12.4552499,11.4037464 C12.6252498,11.5507464 12.7099998,11.7359963 12.7094998,11.9594963 Z M12.9104997,12.736496 L17.5979983,4.95524845 C17.5174983,5.02674844 17.2162484,5.30574835 16.6942485,5.7922482 C16.1722487,6.27874804 15.6119989,6.79874787 15.0134991,7.3522477 C14.4149993,7.90574753 13.8054994,8.47274735 13.1849996,9.05324716 C12.5644998,9.63374698 12.04225,10.1269968 11.6182501,10.5329967 C11.1942503,10.9389966 10.9687503,11.1689965 10.9417503,11.2229965 L6.26775178,18.990744 C6.33025177,18.9282441 6.62925167,18.6514941 7.1647515,18.1604943 C7.70025133,17.6694945 8.26275116,17.1494946 8.85225098,16.6004948 C9.44175081,16.051495 10.0490006,15.4844951 10.6740004,14.8994953 C11.2990002,14.3144955 11.8212501,13.8189957 12.2407499,13.4129958 C12.6602498,13.0069959 12.8834997,12.781496 12.9104997,12.736496 L12.9104997,12.736496 Z M21.575997,11.9999962 C21.575997,13.7944957 21.1117471,15.4507452 20.1832474,16.9687447 C20.1562475,16.9507447 20.0802475,16.9017447 19.9552475,16.8217447 C19.8302475,16.7417448 19.7119976,16.6679948 19.6004976,16.6004948 C19.4889977,16.5329948 19.4152477,16.4994948 19.3792477,16.4999948 C19.2632477,16.4999948 19.2052478,16.5579948 19.2052478,16.6739948 C19.2052478,16.7634948 19.4687477,16.9599947 19.9957475,17.2634946 C19.3352477,18.2634943 18.511498,19.113994 17.5244983,19.8149938 C16.5374986,20.5159936 15.4592489,21.0092434 14.2897493,21.2947433 L14.0752493,20.3977436 C14.0662493,20.3082437 13.9992494,20.2634937 13.8742494,20.2634937 C13.8297494,20.2634937 13.7939994,20.2879937 13.7669994,20.3369936 C13.7399994,20.3859936 13.7309994,20.4284936 13.7399994,20.4644936 L13.9544994,21.3749933 C13.3114996,21.5089933 12.6597498,21.5759932 11.99925,21.5759932 C10.2222505,21.5759932 8.56150105,21.1072434 7.01700152,20.1697437 C7.02600152,20.1517437 7.08400151,20.0602437 7.19100148,19.8952438 C7.29800145,19.7302439 7.39400141,19.5807439 7.47900138,19.4467439 C7.56400135,19.312744 7.60650134,19.227994 7.60650134,19.192494 C7.60650134,19.076494 7.54850135,19.018494 7.43250138,19.018494 C7.3790014,19.018494 7.30300142,19.083244 7.20450145,19.212744 C7.10600148,19.3422439 7.00550152,19.4962439 6.90300155,19.6747438 C6.80050158,19.8532438 6.74025159,19.9559938 6.72225159,19.9829937 C5.71325191,19.3134939 4.85600217,18.4764942 4.15050239,17.4719945 C3.44500261,16.4674948 2.95400277,15.3759952 2.67750286,14.1974955 L3.60150258,13.9964956 C3.69100255,13.9694956 3.73575253,13.9024957 3.73575253,13.7954957 C3.73575253,13.7509957 3.71125254,13.7152457 3.66225255,13.6882457 C3.61325257,13.6612457 3.56625259,13.6522457 3.5212526,13.6612457 L2.61075288,13.8622456 C2.48575291,13.2192458 2.42325293,12.598746 2.42325293,12.0007462 C2.42325293,10.1612468 2.90975278,8.46924734 3.88275248,6.92474782 C3.90075248,6.93374782 3.98325246,6.9872478 4.13025241,7.08524777 C4.27725237,7.18324774 4.41125233,7.26799772 4.5322523,7.3394977 C4.65325227,7.41099769 4.73150224,7.44674768 4.76700223,7.44674768 C4.8830022,7.44674768 4.94100218,7.3932477 4.94100218,7.28624773 C4.94100218,7.23274774 4.8852522,7.16349777 4.77375223,7.0784978 C4.66225226,6.99349783 4.5172523,6.89749786 4.33875237,6.79049789 L4.07100246,6.62999794 C4.75850224,5.62999825 5.60225198,4.78624852 6.60225166,4.09874873 C7.60225135,3.41124895 8.69150101,2.9334991 9.87000063,2.66549918 L10.0710006,3.5624989 C10.0890006,3.65199887 10.1560005,3.69674885 10.2720005,3.69674885 C10.3165005,3.69674885 10.3522505,3.67224886 10.3792505,3.62324887 C10.4062505,3.57424889 10.4152505,3.52724891 10.4062505,3.48224892 L10.2052505,2.5979992 C10.8392503,2.48199923 11.4375001,2.42399925 12,2.42399925 C13.8214994,2.42399925 15.5134989,2.9104991 17.0759984,3.8834988 C16.7279985,4.38349865 16.5539985,4.67374855 16.5539985,4.75424852 C16.5539985,4.87024849 16.6074985,4.92824848 16.7144985,4.92824848 C16.8124985,4.92824848 17.0267484,4.64249856 17.3572483,4.07099873 C18.348248,4.74049853 19.1852477,5.57074827 19.8682475,6.56174796 C20.5512473,7.55274765 21.0312472,8.62874731 21.3082471,9.78974695 L20.5582473,9.95024691 C20.4687473,9.96824691 20.4239974,10.0397469 20.4239974,10.1647468 C20.4239974,10.2092468 20.4484973,10.2449968 20.4974973,10.2719968 C20.5464973,10.2989968 20.5889973,10.3079968 20.6249973,10.2989968 L21.388497,10.1249969 C21.513497,10.7679967 21.575997,11.3929965 21.575997,11.9999963 L21.575997,11.9999962 Z M22.7144966,11.9999962 C22.7144966,10.5444967 22.4309967,9.15599714 21.8639969,7.83449756 C21.2969971,6.51299798 20.5357473,5.37449834 19.5802476,4.41899864 C18.6247479,3.46349894 17.4862483,2.70224917 16.1647487,2.13524934 C14.8432491,1.56824952 13.4547495,1.2847496 11.99925,1.2847496 C10.5437505,1.2847496 9.15525089,1.56824952 7.83375131,2.13524934 C6.51225173,2.70224917 5.37375209,3.46349894 4.41825239,4.41899864 C3.46275269,5.37449834 2.70150292,6.51299798 2.13450309,7.83449756 C1.56750327,9.15599714 1.28400335,10.5444967 1.28400335,11.9999962 C1.28400335,13.4554958 1.56750327,14.8439954 2.13450309,16.1654949 C2.70150292,17.4869945 3.46275269,18.6254942 4.41825239,19.5809939 C5.37375209,20.5364936 6.51225173,21.2977433 7.83375131,21.8647432 C9.15525089,22.431743 10.5437505,22.7152429 11.99925,22.7152429 C13.4547495,22.7152429 14.8432491,22.431743 16.1647487,21.8647432 C17.4862483,21.2977433 18.6247479,20.5364936 19.5802476,19.5809939 C20.5357473,18.6254942 21.2969971,17.4869945 21.8639969,16.1654949 C22.4309967,14.8439954 22.7144966,13.4554958 22.7144966,11.9999962 Z M23.9999963,11.9999962 C23.9999963,13.6249957 23.6829964,15.1784953 23.0489966,16.6604948 C22.4149968,18.1424943 21.562247,19.4192439 20.4907474,20.4907436 C19.4192477,21.5622433 18.1424981,22.414993 16.6604985,23.0489928 C15.178499,23.6829926 13.6249995,23.9999925 12,23.9999925 C10.3750005,23.9999925 8.82150098,23.6829926 7.33950145,23.0489928 C5.85750192,22.414993 4.58075232,21.5622433 3.50925265,20.4907436 C2.43775298,19.4192439 1.58500324,18.1424943 0.951003445,16.6604948 C0.317003648,15.1784953 3.75000002e-06,13.6249958 3.75000002e-06,11.9999963 C3.75000002e-06,10.3749967 0.317003648,8.82149723 0.951003445,7.3394977 C1.58500324,5.85749817 2.43775298,4.58074857 3.50925265,3.5092489 C4.58075232,2.43774923 5.85750192,1.58499949 7.33950145,0.950999695 C8.82150098,0.316999898 10.3750005,1.11022302e-15 12,0 C13.6249995,-1.11022302e-15 15.178499,0.316999898 16.6604985,0.950999695 C18.1424981,1.58499949 19.4192477,2.43774923 20.4907474,3.5092489 C21.562247,4.58074857 22.4149968,5.85749817 23.0489966,7.3394977 C23.6829964,8.82149723 23.9999963,10.3749968 23.9999963,11.9999963 L23.9999963,11.9999962 Z" transform="translate(264 1152)"/>
  </g>
</svg>
