<svg xmlns="http://www.w3.org/2000/svg" width="20" height="20" viewBox="0 0 20 20">
  <path fill="#555" d="M10.5912518,9.96625001 C10.5912518,10.1595833 10.5297917,10.3270833 10.406875,10.46875 C10.2839583,10.6104167 10.1295833,10.6810417 9.94375,10.6806269 C9.75041667,10.6806269 9.58291667,10.6191667 9.44125,10.49625 C9.29958333,10.3733334 9.22895833,10.2189583 9.22937316,10.033125 C9.22937316,9.83979168 9.29270833,9.67229168 9.41937499,9.53062501 C9.54604166,9.38895834 9.70229166,9.31833334 9.888125,9.31874817 C10.0739583,9.31916667 10.2377083,9.380625 10.379375,9.503125 C10.5210417,9.625625 10.5916667,9.78 10.5912518,9.96625001 Z M10.75875,10.61375 L14.665,4.129375 C14.5979167,4.18895834 14.346875,4.42145834 13.911875,4.826875 C13.476875,5.23229167 13.01,5.665625 12.51125,6.126875 C12.0125,6.588125 11.5045833,7.060625 10.9875,7.54437499 C10.4704167,8.02812499 10.0352083,8.43916665 9.681875,8.77749999 C9.32854167,9.11583332 9.140625,9.30749999 9.118125,9.35249999 L5.22312499,15.825625 C5.27520833,15.7735416 5.52437499,15.5429166 5.97062499,15.13375 C6.41687499,14.7245833 6.88562499,14.29125 7.376875,13.83375 C7.86812501,13.37625 8.37416668,12.90375 8.89500001,12.41625 C9.41583333,11.92875 9.85104167,11.5158333 10.200625,11.1775 C10.5502083,10.8391667 10.73625,10.65125 10.75875,10.61375 L10.75875,10.61375 Z M17.98,10 C17.98,11.4954167 17.593125,12.875625 16.819375,14.140625 C16.796875,14.125625 16.7335417,14.0847917 16.629375,14.018125 C16.5252083,13.9514583 16.4266667,13.89 16.33375,13.83375 C16.2408334,13.7775 16.179375,13.7495833 16.149375,13.75 C16.0527083,13.75 16.004375,13.7983333 16.004375,13.895 C16.004375,13.9695833 16.2239583,14.1333333 16.663125,14.38625 C16.1127083,15.2195833 15.42625,15.9283333 14.60375,16.5125 C13.78125,17.0966667 12.8827083,17.5077083 11.908125,17.745625 L11.729375,16.998125 C11.721875,16.9235417 11.6660417,16.88625 11.561875,16.88625 C11.5247917,16.88625 11.495,16.9066667 11.4725,16.9475 C11.45,16.9883333 11.4425,17.02375 11.45,17.05375 L11.62875,17.8125 C11.0929167,17.9241667 10.5497916,17.98 9.99937498,17.98 C8.51854165,17.98 7.13458332,17.589375 5.84749997,16.808125 C5.85499997,16.793125 5.90333331,16.716875 5.99249998,16.579375 C6.08166665,16.441875 6.16166665,16.3172917 6.23249997,16.205625 C6.3033333,16.0939583 6.33874997,16.0233333 6.33874997,15.99375 C6.33874997,15.8970833 6.29041663,15.84875 6.19374996,15.84875 C6.14916663,15.84875 6.0858333,15.9027083 6.00374996,16.010625 C5.92166663,16.1185416 5.83791663,16.246875 5.75249996,16.395625 C5.66708329,16.544375 5.61687496,16.63 5.60187495,16.6525 C4.76104162,16.0945833 4.04666662,15.3970833 3.45874995,14.56 C2.87083328,13.7229166 2.46166662,12.8133333 2.23124996,11.83125 L3.00124996,11.66375 C3.07583329,11.64125 3.11312496,11.5854167 3.11312496,11.49625 C3.11312496,11.4591667 3.09270829,11.429375 3.05187496,11.406875 C3.01104162,11.384375 2.97187496,11.376875 2.93437496,11.384375 L2.17562496,11.551875 C2.07145828,11.0160416 2.01937495,10.4989583 2.01937495,10.000625 C2.01937495,8.46770832 2.42479162,7.05770832 3.23562496,5.77062499 C3.25062496,5.77812499 3.31937496,5.82270832 3.44187496,5.90437499 C3.56437496,5.98604166 3.67604163,6.05666666 3.77687497,6.11625 C3.87770831,6.17583334 3.94291664,6.20562501 3.97249997,6.20562501 C4.06916664,6.20562501 4.11749998,6.16104167 4.11749998,6.071875 C4.11749998,6.02729167 4.07104164,5.96958334 3.97812497,5.89875001 C3.8852083,5.82791668 3.76437497,5.74791668 3.61562498,5.65875001 L3.39249999,5.52500001 C3.96541665,4.69166667 4.66854165,3.98854168 5.50187498,3.41562501 C6.33520831,2.84270835 7.24291664,2.44458335 8.22499997,2.22125001 L8.39249997,2.96875001 C8.40749997,3.04333334 8.4633333,3.08062501 8.55999996,3.08062501 C8.59708329,3.08062501 8.62687496,3.06020834 8.64937497,3.01937501 C8.67187498,2.97854167 8.67937498,2.93937501 8.67187498,2.90187501 L8.50437498,2.16500001 C9.03270831,2.06833334 9.53124998,2.02000001 9.99999998,2.02000001 C11.5179167,2.02000001 12.9279167,2.42541668 14.23,3.23625002 C13.94,3.65291668 13.795,3.89479168 13.795,3.96187501 C13.795,4.05854168 13.8395833,4.10687501 13.92875,4.10687501 C14.0104166,4.10687501 14.1889583,3.86875001 14.464375,3.39250001 C15.2902083,3.95041668 15.9877083,4.64229168 16.556875,5.46812501 C17.1260417,6.29395834 17.5260417,7.19062501 17.756875,8.15812501 L17.131875,8.29187501 C17.0572917,8.30687502 17.02,8.36645835 17.02,8.47062501 C17.02,8.50770834 17.0404167,8.53750001 17.08125,8.56000002 C17.1220833,8.58250003 17.1575,8.59000003 17.1875,8.58250003 L17.82375,8.43750002 C17.9279167,8.97333335 17.98,9.49416668 17.98,10 L17.98,10 Z M18.92875,10 C18.92875,8.78708333 18.6925,7.63 18.22,6.52875001 C17.7475,5.42750002 17.113125,4.47875002 16.316875,3.68250002 C15.520625,2.88625002 14.571875,2.25187501 13.470625,1.77937501 C12.369375,1.306875 11.2122917,1.070625 9.999375,1.070625 C8.78645833,1.070625 7.629375,1.306875 6.52812501,1.77937501 C5.42687502,2.25187501 4.47812502,2.88625002 3.68187502,3.68250002 C2.88562502,4.47875002 2.25125001,5.42750002 1.77875001,6.52875001 C1.30625,7.63 1.07,8.78708333 1.07,10 C1.07,11.2129167 1.30625,12.37 1.77875001,13.47125 C2.25125001,14.5725 2.88562502,15.52125 3.68187502,16.3175 C4.47812502,17.11375 5.42687502,17.748125 6.52812501,18.220625 C7.629375,18.693125 8.78645833,18.929375 9.999375,18.929375 C11.2122917,18.929375 12.369375,18.693125 13.470625,18.220625 C14.571875,17.748125 15.520625,17.11375 16.316875,16.3175 C17.113125,15.52125 17.7475,14.5725 18.22,13.47125 C18.6925,12.37 18.92875,11.2129167 18.92875,10 Z M20,10 C20,11.3541667 19.7358333,12.64875 19.2075,13.88375 C18.6791667,15.11875 17.9685417,16.1827083 17.075625,17.075625 C16.1827083,17.9685417 15.11875,18.6791667 13.88375,19.2075 C12.64875,19.7358333 11.3541667,20 10,20 C8.64583333,20 7.35124999,19.7358333 6.11625,19.2075 C4.88125,18.6791667 3.81729167,17.9685417 2.924375,17.075625 C2.03145832,16.1827083 1.32083332,15.11875 0.792499994,13.88375 C0.264166665,12.64875 0,11.3541667 0,10 C0,8.64583333 0.264166665,7.35124999 0.792499994,6.11625 C1.32083332,4.88125 2.03145832,3.81729167 2.924375,2.924375 C3.81729167,2.03145832 4.88125,1.32083332 6.11625,0.792499994 C7.35124999,0.264166665 8.64583333,0 10,0 C11.3541667,0 12.64875,0.264166665 13.88375,0.792499994 C15.11875,1.32083332 16.1827083,2.03145832 17.075625,2.924375 C17.9685417,3.81729167 18.6791667,4.88125 19.2075,6.11625 C19.7358333,7.35124999 20,8.64583333 20,10 L20,10 Z"/>
</svg>
