<svg xmlns="http://www.w3.org/2000/svg" width="24" height="24" viewBox="0 0 24 24">
  <g fill="none" fill-rule="evenodd" transform="translate(-264 -1152)">
    <path fill="#555" fill-rule="nonzero" d="M12.650375,11.962875 C12.650375,12.1755417 12.5827708,12.3597917 12.4475625,12.515625 C12.3123542,12.6714583 12.1425417,12.7491459 11.938125,12.7486875 C11.7254583,12.7486875 11.5412083,12.6810834 11.385375,12.545875 C11.2295417,12.4106667 11.1518542,12.2408542 11.1523125,12.0364375 C11.1523125,11.8237708 11.2219792,11.6395208 11.3613125,11.4836875 C11.5006458,11.3278542 11.6725208,11.2501667 11.8769375,11.250625 C12.0813542,11.2510833 12.2614792,11.3186875 12.4173125,11.4534375 C12.5731458,11.5881875 12.6508333,11.758 12.650375,11.962875 Z M12.834625,12.675125 L17.1315,5.5423125 C17.0577084,5.60785417 16.7815625,5.86360418 16.3030625,6.3095625 C15.8245625,6.75552083 15.311,7.2321875 14.762375,7.7395625 C14.21375,8.2469375 13.6550417,8.7666875 13.08625,9.29881249 C12.5174583,9.83093749 12.0387292,10.2830833 11.6500625,10.65525 C11.2613958,11.0274167 11.0546875,11.23825 11.0299375,11.28775 L6.74543749,18.4081875 C6.80272916,18.3508958 7.07681249,18.0972083 7.56768749,17.647125 C8.05856249,17.1970417 8.57418749,16.720375 9.1145625,16.217125 C9.65493751,15.713875 10.2115833,15.194125 10.7845,14.657875 C11.3574167,14.121625 11.8361458,13.6674167 12.2206875,13.29525 C12.6052292,12.9230833 12.809875,12.716375 12.834625,12.675125 Z M20.778,12 C20.778,13.6449583 20.3524375,15.1631875 19.5013125,16.5546875 C19.4765625,16.5381875 19.4068958,16.4932708 19.2923125,16.4199375 C19.1777292,16.3466042 19.0693333,16.279 18.967125,16.217125 C18.8649167,16.15525 18.7973125,16.1245417 18.7643125,16.125 C18.6579792,16.125 18.6048125,16.1781667 18.6048125,16.2845 C18.6048125,16.3665417 18.8463542,16.5466667 19.3294375,16.824875 C18.7239792,17.7415417 17.968875,18.5211667 17.064125,19.16375 C16.159375,19.8063333 15.1709792,20.2584792 14.0989375,20.5201875 L13.9023125,19.6979375 C13.8940625,19.6158958 13.8326458,19.574875 13.7180625,19.574875 C13.6772708,19.574875 13.6445,19.5973333 13.61975,19.64225 C13.595,19.6871667 13.58675,19.726125 13.595,19.759125 L13.791625,20.59375 C13.2022083,20.7165833 12.6047708,20.778 11.9993125,20.778 C10.3703958,20.778 8.84804165,20.3483125 7.43224997,19.4889375 C7.44049997,19.4724375 7.49366664,19.3885625 7.59174998,19.2373125 C7.68983331,19.0860625 7.77783331,18.9490208 7.85574997,18.8261875 C7.93366663,18.7033542 7.97262497,18.6256667 7.97262497,18.593125 C7.97262497,18.4867917 7.9194583,18.433625 7.81312496,18.433625 C7.76408329,18.433625 7.69441662,18.4929792 7.60412496,18.6116875 C7.51383329,18.7303958 7.42170829,18.8715625 7.32774996,19.0351875 C7.23379162,19.1988125 7.17856245,19.293 7.16206245,19.31775 C6.23714578,18.7040416 5.45133328,17.9367916 4.80462494,17.016 C4.15791661,16.0952083 3.70783328,15.0946666 3.45437495,14.014375 L4.30137496,13.830125 C4.38341662,13.805375 4.42443745,13.7439583 4.42443745,13.645875 C4.42443745,13.6050833 4.40197912,13.5723125 4.35706245,13.5475625 C4.31214579,13.5228125 4.26906245,13.5145625 4.22781246,13.5228125 L3.39318745,13.7070625 C3.27860411,13.1176458 3.22131244,12.5488541 3.22131244,12.0006875 C3.22131244,10.3144791 3.66727078,8.76347915 4.55918745,7.34768749 C4.57568746,7.35593749 4.65131246,7.40497916 4.78606246,7.49481249 C4.92081246,7.58464582 5.04364579,7.66233332 5.15456247,7.727875 C5.26547914,7.79341667 5.33720831,7.82618751 5.36974997,7.82618751 C5.47608331,7.82618751 5.52924998,7.77714584 5.52924998,7.6790625 C5.52924998,7.63002084 5.47814581,7.56654167 5.37593747,7.48862501 C5.27372913,7.41070835 5.14081247,7.32270835 4.97718748,7.22462501 L4.73174998,7.07750001 C5.36195831,6.16083334 6.13539581,5.38739584 7.05206248,4.75718751 C7.96872915,4.12697918 8.96720831,3.68904168 10.0475,3.44337501 L10.23175,4.26562501 C10.24825,4.34766667 10.3096666,4.38868751 10.416,4.38868751 C10.4567916,4.38868751 10.4895625,4.36622917 10.5143125,4.32131251 C10.5390625,4.27639584 10.5473125,4.23331251 10.5390625,4.19206251 L10.3548125,3.38150001 C10.9359791,3.27516668 11.484375,3.22200001 12,3.22200001 C13.6697083,3.22200001 15.2207083,3.66795834 16.653,4.55987502 C16.334,5.01820835 16.1745,5.28427085 16.1745,5.35806251 C16.1745,5.46439585 16.2235416,5.51756252 16.321625,5.51756252 C16.4114583,5.51756252 16.6078541,5.25562501 16.9108125,4.73175001 C17.8192291,5.34545834 18.5864791,6.10652085 19.2125625,7.01493751 C19.8386458,7.92335417 20.2786458,8.90968751 20.5325625,9.97393751 L19.8450625,10.1210625 C19.7630208,10.1375625 19.722,10.2031042 19.722,10.3176875 C19.722,10.3584792 19.7444583,10.39125 19.789375,10.416 C19.8342917,10.44075 19.87325,10.449 19.90625,10.44075 L20.606125,10.28125 C20.7207083,10.8706667 20.778,11.4435834 20.778,12 Z M21.821625,12 C21.821625,10.6657917 21.56175,9.393 21.042,8.18162501 C20.52225,6.97025002 19.8244375,5.92662502 18.9485625,5.05075002 C18.0726875,4.17487502 17.0290625,3.47706251 15.8176875,2.95731251 C14.6063125,2.43756251 13.3335208,2.1776875 11.9993125,2.1776875 C10.6651042,2.1776875 9.3923125,2.43756251 8.18093751,2.95731251 C6.96956252,3.47706251 5.92593752,4.17487502 5.05006252,5.05075002 C4.17418752,5.92662502 3.47637501,6.97025002 2.95662501,8.18162501 C2.43687501,9.393 2.177,10.6657917 2.177,12 C2.177,13.3342083 2.43687501,14.607 2.95662501,15.818375 C3.47637501,17.02975 4.17418752,18.073375 5.05006252,18.94925 C5.92593752,19.825125 6.96956252,20.5229375 8.18093751,21.0426875 C9.3923125,21.5624375 10.6651042,21.8223125 11.9993125,21.8223125 C13.3335208,21.8223125 14.6063125,21.5624375 15.8176875,21.0426875 C17.0290625,20.5229375 18.0726875,19.825125 18.9485625,18.94925 C19.8244375,18.073375 20.52225,17.02975 21.042,15.818375 C21.56175,14.607 21.821625,13.3342083 21.821625,12 Z M23,12 C23,13.4895833 22.7094167,14.913625 22.12825,16.272125 C21.5470833,17.630625 20.7653958,18.8009792 19.7831875,19.7831875 C18.8009792,20.7653958 17.630625,21.5470833 16.272125,22.12825 C14.913625,22.7094167 13.4895833,23 12,23 C10.5104167,23 9.08637499,22.7094167 7.727875,22.12825 C6.369375,21.5470833 5.19902083,20.7653958 4.2168125,19.7831875 C3.23460416,18.8009792 2.45291666,17.630625 1.87174999,16.272125 C1.29058333,14.913625 1,13.4895833 1,12 C1,10.5104167 1.29058333,9.08637499 1.87174999,7.727875 C2.45291666,6.369375 3.23460416,5.19902083 4.2168125,4.2168125 C5.19902083,3.23460416 6.369375,2.45291666 7.727875,1.87174999 C9.08637499,1.29058333 10.5104167,1 12,1 C13.4895833,1 14.913625,1.29058333 16.272125,1.87174999 C17.630625,2.45291666 18.8009792,3.23460416 19.7831875,4.2168125 C20.7653958,5.19902083 21.5470833,6.369375 22.12825,7.727875 C22.7094167,9.08637499 23,10.5104167 23,12 Z" transform="translate(264 1152)"/>
  </g>
</svg>
