<svg xmlns="http://www.w3.org/2000/svg" width="24" height="24" viewBox="0 0 24 24">
  <path fill="#555" d="M12.59125,11.96625 C12.59125,12.1595833 12.5297917,12.3270833 12.406875,12.46875 C12.2839583,12.6104167 12.1295833,12.6810417 11.94375,12.680625 C11.7504167,12.680625 11.5829167,12.6191667 11.44125,12.49625 C11.2995833,12.3733334 11.2289583,12.2189583 11.229375,12.033125 C11.229375,11.8397917 11.2927083,11.6722917 11.419375,11.530625 C11.5460417,11.3889583 11.7022917,11.3183333 11.888125,11.31875 C12.0739583,11.3191667 12.2377083,11.380625 12.379375,11.503125 C12.5210417,11.625625 12.5916667,11.78 12.59125,11.96625 Z M12.75875,12.61375 L16.665,6.129375 C16.5979167,6.18895834 16.346875,6.42145834 15.911875,6.826875 C15.476875,7.23229167 15.01,7.665625 14.51125,8.126875 C14.0125,8.588125 13.5045833,9.060625 12.9875,9.54437499 C12.4704167,10.028125 12.0352083,10.4391667 11.681875,10.7775 C11.3285417,11.1158333 11.140625,11.3075 11.118125,11.3525 L7.22312499,17.825625 C7.27520833,17.7735416 7.52437499,17.5429166 7.97062499,17.13375 C8.41687499,16.7245833 8.88562499,16.29125 9.376875,15.83375 C9.86812501,15.37625 10.3741667,14.90375 10.895,14.41625 C11.4158333,13.92875 11.8510417,13.5158333 12.200625,13.1775 C12.5502083,12.8391667 12.73625,12.65125 12.75875,12.61375 Z M19.98,12 C19.98,13.4954167 19.593125,14.875625 18.819375,16.140625 C18.796875,16.125625 18.7335417,16.0847917 18.629375,16.018125 C18.5252083,15.9514583 18.4266667,15.89 18.33375,15.83375 C18.2408334,15.7775 18.179375,15.7495833 18.149375,15.75 C18.0527083,15.75 18.004375,15.7983333 18.004375,15.895 C18.004375,15.9695833 18.2239583,16.1333333 18.663125,16.38625 C18.1127083,17.2195833 17.42625,17.9283333 16.60375,18.5125 C15.78125,19.0966667 14.8827083,19.5077083 13.908125,19.745625 L13.729375,18.998125 C13.721875,18.9235417 13.6660417,18.88625 13.561875,18.88625 C13.5247917,18.88625 13.495,18.9066667 13.4725,18.9475 C13.45,18.9883333 13.4425,19.02375 13.45,19.05375 L13.62875,19.8125 C13.0929167,19.9241667 12.5497916,19.98 11.999375,19.98 C10.5185417,19.98 9.13458332,19.589375 7.84749997,18.808125 C7.85499997,18.793125 7.90333331,18.716875 7.99249998,18.579375 C8.08166665,18.441875 8.16166665,18.3172917 8.23249997,18.205625 C8.3033333,18.0939583 8.33874997,18.0233333 8.33874997,17.99375 C8.33874997,17.8970833 8.29041663,17.84875 8.19374996,17.84875 C8.14916663,17.84875 8.0858333,17.9027083 8.00374996,18.010625 C7.92166663,18.1185416 7.83791663,18.246875 7.75249996,18.395625 C7.66708329,18.544375 7.61687496,18.63 7.60187495,18.6525 C6.76104162,18.0945833 6.04666662,17.3970833 5.45874995,16.56 C4.87083328,15.7229166 4.46166662,14.8133333 4.23124996,13.83125 L5.00124996,13.66375 C5.07583329,13.64125 5.11312496,13.5854167 5.11312496,13.49625 C5.11312496,13.4591667 5.09270829,13.429375 5.05187496,13.406875 C5.01104162,13.384375 4.97187496,13.376875 4.93437496,13.384375 L4.17562496,13.551875 C4.07145828,13.0160416 4.01937495,12.4989583 4.01937495,12.000625 C4.01937495,10.4677083 4.42479162,9.05770832 5.23562496,7.77062499 C5.25062496,7.77812499 5.31937496,7.82270832 5.44187496,7.90437499 C5.56437496,7.98604166 5.67604163,8.05666666 5.77687497,8.11625 C5.87770831,8.17583334 5.94291664,8.20562501 5.97249997,8.20562501 C6.06916664,8.20562501 6.11749998,8.16104167 6.11749998,8.071875 C6.11749998,8.02729167 6.07104164,7.96958334 5.97812497,7.89875001 C5.8852083,7.82791668 5.76437497,7.74791668 5.61562498,7.65875001 L5.39249999,7.52500001 C5.96541665,6.69166667 6.66854165,5.98854168 7.50187498,5.41562501 C8.33520831,4.84270835 9.24291664,4.44458335 10.225,4.22125001 L10.3925,4.96875001 C10.4075,5.04333334 10.4633333,5.08062501 10.56,5.08062501 C10.5970833,5.08062501 10.626875,5.06020834 10.649375,5.01937501 C10.671875,4.97854167 10.679375,4.93937501 10.671875,4.90187501 L10.504375,4.16500001 C11.0327083,4.06833334 11.53125,4.02000001 12,4.02000001 C13.5179167,4.02000001 14.9279167,4.42541668 16.23,5.23625002 C15.94,5.65291668 15.795,5.89479168 15.795,5.96187501 C15.795,6.05854168 15.8395833,6.10687501 15.92875,6.10687501 C16.0104166,6.10687501 16.1889583,5.86875001 16.464375,5.39250001 C17.2902083,5.95041668 17.9877083,6.64229168 18.556875,7.46812501 C19.1260417,8.29395834 19.5260417,9.19062501 19.756875,10.158125 L19.131875,10.291875 C19.0572917,10.306875 19.02,10.3664584 19.02,10.470625 C19.02,10.5077083 19.0404167,10.5375 19.08125,10.56 C19.1220833,10.5825 19.1575,10.59 19.1875,10.5825 L19.82375,10.4375 C19.9279167,10.9733334 19.98,11.4941667 19.98,12 Z M20.92875,12 C20.92875,10.7870833 20.6925,9.63 20.22,8.52875001 C19.7475,7.42750002 19.113125,6.47875002 18.316875,5.68250002 C17.520625,4.88625002 16.571875,4.25187501 15.470625,3.77937501 C14.369375,3.306875 13.2122917,3.070625 11.999375,3.070625 C10.7864583,3.070625 9.629375,3.306875 8.52812501,3.77937501 C7.42687502,4.25187501 6.47812502,4.88625002 5.68187502,5.68250002 C4.88562502,6.47875002 4.25125001,7.42750002 3.77875001,8.52875001 C3.30625,9.63 3.07,10.7870833 3.07,12 C3.07,13.2129167 3.30625,14.37 3.77875001,15.47125 C4.25125001,16.5725 4.88562502,17.52125 5.68187502,18.3175 C6.47812502,19.11375 7.42687502,19.748125 8.52812501,20.220625 C9.629375,20.693125 10.7864583,20.929375 11.999375,20.929375 C13.2122917,20.929375 14.369375,20.693125 15.470625,20.220625 C16.571875,19.748125 17.520625,19.11375 18.316875,18.3175 C19.113125,17.52125 19.7475,16.5725 20.22,15.47125 C20.6925,14.37 20.92875,13.2129167 20.92875,12 Z M22,12 C22,13.3541667 21.7358333,14.64875 21.2075,15.88375 C20.6791667,17.11875 19.9685417,18.1827083 19.075625,19.075625 C18.1827083,19.9685417 17.11875,20.6791667 15.88375,21.2075 C14.64875,21.7358333 13.3541667,22 12,22 C10.6458333,22 9.35124999,21.7358333 8.11625,21.2075 C6.88125,20.6791667 5.81729167,19.9685417 4.924375,19.075625 C4.03145832,18.1827083 3.32083332,17.11875 2.79249999,15.88375 C2.26416666,14.64875 2,13.3541667 2,12 C2,10.6458333 2.26416666,9.35124999 2.79249999,8.11625 C3.32083332,6.88125 4.03145832,5.81729167 4.924375,4.924375 C5.81729167,4.03145832 6.88125,3.32083332 8.11625,2.79249999 C9.35124999,2.26416666 10.6458333,2 12,2 C13.3541667,2 14.64875,2.26416666 15.88375,2.79249999 C17.11875,3.32083332 18.1827083,4.03145832 19.075625,4.924375 C19.9685417,5.81729167 20.6791667,6.88125 21.2075,8.11625 C21.7358333,9.35124999 22,10.6458333 22,12 Z"/>
</svg>
