<svg xmlns="http://www.w3.org/2000/svg" width="24" height="24" viewBox="0 0 24 24">
  <g fill="none" fill-rule="evenodd" transform="translate(-456 -744)">
    <path fill="#555" fill-rule="nonzero" d="M4.5,5.25154449 L4.5,13.4286859 C4.5,17.8801308 8.081722,21.4887399 12.5,21.4887399 C16.918278,21.4887399 20.5,17.8801308 20.5,13.4286859 L20.5,5.25521101 L12.4516809,2.59154334 L4.5,5.25154449 Z M3,4.16094001 L12.4491637,1 L22,4.16094001 L22,13.4286859 C22,18.7147767 17.7467051,23 12.5,23 C7.25329488,23 3,18.7147767 3,13.4286859 L3,4.16094001 Z M16.329413,8.19654219 L11.5058282,13.6617607 L8.38942121,10.2684613 C8.10810457,9.96214968 7.63358792,9.94359919 7.32955861,10.2270276 C7.02552929,10.510456 7.00711702,10.9885347 7.28843366,11.2948463 L10.9663783,15.2995759 C11.2672614,15.6271925 11.7829458,15.6220522 12.0773362,15.2885019 L17.4503414,9.20077911 C17.7255876,8.88891968 17.6977903,8.41130157 17.3882545,8.1339892 C17.0787187,7.85667683 16.6046592,7.88468276 16.329413,8.19654219 Z" transform="translate(456 744)"/>
  </g>
</svg>
