<svg xmlns="http://www.w3.org/2000/svg" width="24" height="24" viewBox="0 0 24 24">
  <g fill="none" fill-rule="evenodd" transform="translate(-456 -744)">
    <path fill="#555" fill-rule="nonzero" d="M10.5,0 L0,3.42857143 L0,13.7142857 C0,16.5537143 1.0255,18.9777143 3.0765,20.9862857 C5.1275,22.9948571 7.602,23.9994286 10.5,24 C13.398,24.0005714 15.8725,22.996 17.9235,20.9862857 C19.9745,18.9765714 21,16.5525714 21,13.7142857 L21,3.42857143 L10.5,0 Z M19.03125,13.7142857 C19.03125,16.0177143 18.197375,17.9865714 16.529625,19.6208571 C14.861875,21.2551429 12.852,22.072 10.5,22.0714286 C8.148,22.0708571 6.138125,21.254 4.470375,19.6208571 C2.802625,17.9877143 1.96875,16.0188571 1.96875,13.7142857 L1.96875,4.87457143 L10.5,1.92771429 L19.03125,4.87457143 L19.03125,13.7142857 Z M6.836375,11.0091429 C6.65379167,10.8302857 6.426,10.7408571 6.153,10.7408571 C5.88,10.7408571 5.64754167,10.8345714 5.455625,11.022 C5.26370833,11.2094286 5.16804167,11.4371429 5.168625,11.7051429 C5.16920833,11.9731429 5.26954167,12.1962857 5.469625,12.3745714 L8.99675,15.8297143 L9.051875,15.9102857 C9.23445833,16.0708571 9.45320833,16.1511429 9.708125,16.1511429 C9.96304167,16.1511429 10.1817917,16.0708571 10.364375,15.9102857 L16.489375,9.91028571 C16.6719583,9.73142857 16.76325,9.51714286 16.76325,9.26742857 C16.76325,9.01771429 16.6719583,8.80342857 16.489375,8.62457143 L16.407125,8.544 C16.2245417,8.36514286 16.0057917,8.27571429 15.750875,8.27571429 C15.4959583,8.27571429 15.2772083,8.36514286 15.094625,8.544 L9.708125,13.8205714 L6.836375,11.0091429 Z" transform="translate(457 744)"/>
  </g>
</svg>
