<svg xmlns="http://www.w3.org/2000/svg" width="24" height="24" viewBox="0 0 24 24">
  <path fill="#555" d="M5.34210526,5.86504044 L5.34210526,13.2988054 C5.34210526,17.3455734 8.5468039,20.6261272 12.5,20.6261272 C16.4531961,20.6261272 19.6578947,17.3455734 19.6578947,13.2988054 L19.6578947,5.86837364 L12.4567671,3.44685758 L5.34210526,5.86504044 Z M4,4.87358183 L12.4545149,2 L21,4.87358183 L21,13.2988054 C21,18.1043425 17.1944204,22 12.5,22 C7.80557963,22 4,18.1043425 4,13.2988054 L4,4.87358183 Z M15.9263169,8.54231108 L11.6104778,13.5106915 L8.82211371,10.4258739 C8.57040936,10.1474088 8.14584183,10.1305447 7.87381559,10.3882069 C7.60178936,10.6458691 7.58531523,11.0804861 7.83701959,11.3589512 L11.1278121,14.9996145 C11.3970234,15.2974478 11.8584252,15.2927747 12.1218271,14.9895471 L16.9292528,9.45525373 C17.1755257,9.17174516 17.1506545,8.73754688 16.8737014,8.48544473 C16.5967483,8.23334258 16.1725898,8.25880251 15.9263169,8.54231108 Z"/>
</svg>
