<svg xmlns="http://www.w3.org/2000/svg" width="24" height="24" viewBox="0 0 24 24">
  <path fill="#555" d="M4.72727273,3.36363636 C3.97415716,3.36363636 3.36363636,3.97415716 3.36363636,4.72727273 L3.36363636,19.2727273 C3.36363636,20.0258428 3.97415716,20.6363636 4.72727273,20.6363636 L19.2727273,20.6363636 C20.0258428,20.6363636 20.6363636,20.0258428 20.6363636,19.2727273 L20.6363636,4.72727273 C20.6363636,3.97415716 20.0258428,3.36363636 19.2727273,3.36363636 L4.72727273,3.36363636 Z M4.72727273,2 L19.2727273,2 C20.7789584,2 22,3.22104159 22,4.72727273 L22,19.2727273 C22,20.7789584 20.7789584,22 19.2727273,22 L4.72727273,22 C3.22104159,22 2,20.7789584 2,19.2727273 L2,4.72727273 C2,3.22104159 3.22104159,2 4.72727273,2 Z M15.2732939,5.1171372 L15.2732939,7 C15.2732939,7.37655778 15.5785543,7.68181818 15.9551121,7.68181818 C16.3316699,7.68181818 16.6369303,7.37655778 16.6369303,7 L16.6369303,5.1171372 C16.6369303,4.74057941 16.3316699,4.43531901 15.9551121,4.43531901 C15.5785543,4.43531901 15.2732939,4.74057941 15.2732939,5.1171372 Z M4.74352037,2.93895244 L6.10714316,2.94503725 L6.08570734,7.39140486 C6.05609642,7.79699746 6.18569012,8.12543845 6.50077186,8.42819766 C6.81430953,8.72947317 7.24532108,8.86648432 7.88464139,8.82809445 L16.5095222,8.83246994 C16.992486,8.77748966 17.3312375,8.61903949 17.5594272,8.36310688 C17.7883676,8.10633222 17.9058504,7.76031939 17.9048323,7.29028972 L17.9049552,2.94197558 L19.2685916,2.94201411 L19.2684671,7.28882981 C19.2701781,8.07752771 19.0421196,8.74921064 18.57725,9.27059836 C18.1116296,9.79282813 17.4625833,10.096418 16.5866418,10.1917308 L7.9269026,10.1904198 C6.96826314,10.2499537 6.16175588,9.99357897 5.55595447,9.41146986 C4.95169713,8.83084443 4.66618136,8.10723611 4.72388756,7.33871738 L4.74352037,2.93895244 Z"/>
</svg>
