<svg xmlns="http://www.w3.org/2000/svg" width="24" height="24" viewBox="0 0 24 24">
  <g fill="none" fill-rule="evenodd" transform="translate(-384 -864)">
    <path fill="#555" fill-rule="nonzero" d="M16.8,6.75 C16.3857864,6.75 16.05,6.41421356 16.05,6 L16.05,3.6 C16.05,3.18578644 16.3857864,2.85 16.8,2.85 C17.2142136,2.85 17.55,3.18578644 17.55,3.6 L17.55,6 C17.55,6.41421356 17.2142136,6.75 16.8,6.75 Z M18.9,1.5 L18.9,6.6 C18.9,7.42842712 18.2284271,8.1 17.4,8.1 L6.6,8.1 C5.77157288,8.1 5.1,7.42842712 5.1,6.6 L5.1,1.5 L18.9,1.5 L18.9,1.5 Z M20.4,0 L3.6,0 L3.6,6.6 C3.6,8.25685425 4.94314575,9.6 6.6,9.6 L17.4,9.6 C19.0568542,9.6 20.4,8.25685425 20.4,6.6 L20.4,0 Z M21,1.5 C21.8284271,1.5 22.5,2.17157288 22.5,3 L22.5,21 C22.5,21.8284271 21.8284271,22.5 21,22.5 L3,22.5 C2.17157288,22.5 1.5,21.8284271 1.5,21 L1.5,3 C1.5,2.17157288 2.17157288,1.5 3,1.5 L21,1.5 L21,1.5 Z M21,0 L3,0 C1.34314575,-1.01453063e-16 2.02906125e-16,1.34314575 0,3 L0,21 C2.02906125e-16,22.6568542 1.34314575,24 3,24 L21,24 C22.6568542,24 24,22.6568542 24,21 L24,3 C24,1.34314575 22.6568542,1.01453063e-16 21,0 Z" transform="translate(384 864)"/>
  </g>
</svg>
