<svg xmlns="http://www.w3.org/2000/svg" width="24" height="24" viewBox="0 0 24 24">
  <g fill="none" fill-rule="evenodd" transform="translate(-312 -936)">
    <path fill="#555" fill-rule="nonzero" d="M4,2.5 C3.17157288,2.5 2.5,3.17157288 2.5,4 L2.5,20 C2.5,20.8284271 3.17157288,21.5 4,21.5 L20,21.5 C20.8284271,21.5 21.5,20.8284271 21.5,20 L21.5,4 C21.5,3.17157288 20.8284271,2.5 20,2.5 L4,2.5 Z M4,1 L20,1 C21.6568542,1 23,2.34314575 23,4 L23,20 C23,21.6568542 21.6568542,23 20,23 L4,23 C2.34314575,23 1,21.6568542 1,20 L1,4 C1,2.34314575 2.34314575,1 4,1 Z M15.6006233,4.42885092 L15.6006233,6.5 C15.6006233,6.91421356 15.9364097,7.25 16.3506233,7.25 C16.7648369,7.25 17.1006233,6.91421356 17.1006233,6.5 L17.1006233,4.42885092 C17.1006233,4.01463735 16.7648369,3.67885092 16.3506233,3.67885092 C15.9364097,3.67885092 15.6006233,4.01463735 15.6006233,4.42885092 Z M4.0178724,2.03284768 L5.51785747,2.03954098 L5.49427807,6.93054535 C5.46170606,7.37669721 5.60425913,7.7379823 5.95084905,8.07101742 C6.29574048,8.40242049 6.76985319,8.55313275 7.47310553,8.51090389 L16.9604744,8.51571693 C17.4917346,8.45523862 17.8643613,8.28094344 18.1153699,7.99941757 C18.3672044,7.71696544 18.4964354,7.33635133 18.4953156,6.81931869 L18.4954507,2.03617313 L19.9954507,2.03621553 L19.9953138,6.81771279 C19.997196,7.68528048 19.7463316,8.4241317 19.234975,8.99765819 C18.7227926,9.57211095 18.0088416,9.90605977 17.045306,10.0109039 L7.51959286,10.0094618 C6.46508945,10.0749491 5.57793146,9.79293687 4.91154991,9.15261684 C4.24686684,8.51392887 3.9327995,7.71795972 3.99627632,6.87258912 L4.0178724,2.03284768 Z" transform="translate(312 936)"/>
  </g>
</svg>
