<svg xmlns="http://www.w3.org/2000/svg" width="20" height="20" viewBox="0 0 20 20">
  <path fill="#555" d="M2.72727273,1.36363636 C1.97415716,1.36363636 1.36363636,1.97415716 1.36363636,2.72727273 L1.36363636,17.2727273 C1.36363636,18.0258428 1.97415716,18.6363636 2.72727273,18.6363636 L17.2727273,18.6363636 C18.0258428,18.6363636 18.6363636,18.0258428 18.6363636,17.2727273 L18.6363636,2.72727273 C18.6363636,1.97415716 18.0258428,1.36363636 17.2727273,1.36363636 L2.72727273,1.36363636 Z M2.72727273,0 L17.2727273,0 C18.7789584,-3.02788098e-16 20,1.22104159 20,2.72727273 L20,17.2727273 C20,18.7789584 18.7789584,20 17.2727273,20 L2.72727273,20 C1.22104159,20 2.01858732e-16,18.7789584 0,17.2727273 L0,2.72727273 C-2.01858732e-16,1.22104159 1.22104159,2.01858732e-16 2.72727273,0 Z M13.2732939,3.1171372 L13.2732939,5 C13.2732939,5.37655778 13.5785543,5.68181818 13.9551121,5.68181818 C14.3316699,5.68181818 14.6369303,5.37655778 14.6369303,5 L14.6369303,3.1171372 C14.6369303,2.74057941 14.3316699,2.43531901 13.9551121,2.43531901 C13.5785543,2.43531901 13.2732939,2.74057941 13.2732939,3.1171372 Z M2.74352037,0.93895244 L4.10714316,0.945037251 L4.08570734,5.39140486 C4.05609642,5.79699746 4.18569012,6.12543845 4.50077186,6.42819766 C4.81430953,6.72947317 5.24532108,6.86648432 5.88464139,6.82809445 L14.5095222,6.83246994 C14.992486,6.77748966 15.3312375,6.61903949 15.5594272,6.36310688 C15.7883676,6.10633222 15.9058504,5.76031939 15.9048323,5.29028972 L15.9049552,0.941975576 L17.2685916,0.942014114 L17.2684671,5.28882981 C17.2701781,6.07752771 17.0421196,6.74921064 16.57725,7.27059836 C16.1116296,7.79282813 15.4625833,8.09641797 14.5866418,8.19173081 L5.9269026,8.19041981 C4.96826314,8.24995374 4.16175588,7.99357897 3.55595447,7.41146986 C2.95169713,6.83084443 2.66618136,6.10723611 2.72388756,5.33871738 L2.74352037,0.93895244 Z"/>
</svg>
