<svg xmlns="http://www.w3.org/2000/svg" width="24" height="24" viewBox="0 0 24 24">
  <g fill="none" fill-rule="evenodd" transform="translate(-312 -744)">
    <path fill="#555" fill-rule="nonzero" d="M16.8551968,15.6856302 L22.7816734,21.7067771 C23.0789552,22.0088078 23.0717413,22.4913801 22.7655607,22.7846326 C22.45938,23.0778851 21.970177,23.0707689 21.6728952,22.7687383 L15.7517647,16.7530228 C14.1930951,18.0227934 12.1943632,18.7856413 10.0150104,18.7856413 C5.03615763,18.7856413 1,14.8041898 1,9.89282063 C1,4.98145141 5.03615763,1 10.0150104,1 C14.9938631,1 19.0300207,4.98145141 19.0300207,9.89282063 C19.0300207,12.1055224 18.2107853,14.1294749 16.8551968,15.6856302 Z M10.0150104,17.2611577 C14.1403455,17.2611577 17.4845904,13.9622408 17.4845904,9.89282063 C17.4845904,5.82340042 14.1403455,2.52448354 10.0150104,2.52448354 C5.88967524,2.52448354 2.54543035,5.82340042 2.54543035,9.89282063 C2.54543035,13.9622408 5.88967524,17.2611577 10.0150104,17.2611577 Z" transform="translate(312 744)"/>
  </g>
</svg>
