<svg xmlns="http://www.w3.org/2000/svg" width="24" height="24" viewBox="0 0 24 24">
  <g fill="none" fill-rule="evenodd" transform="translate(-308 -740)">
    <path fill="#555" d="M23.6877919,1.81846462 L18.2201468,7.2791912 C19.658439,9.04432841 20.5203469,11.294745 20.5203469,13.7478058 C20.5203469,19.4111765 15.927952,24 10.2601734,24 C4.59239493,24 0,19.4111765 0,13.7478058 C0,8.08443506 4.59239493,3.4956116 10.2601734,3.4956116 C12.7044696,3.4956116 14.9486324,4.34885013 16.7098065,5.77535829 L22.1774516,0.311965337 C22.3855904,0.103988446 22.6577718,0 22.9326217,0 C23.2048032,0 23.4796531,0.103988446 23.6877919,0.311965337 C24.1040694,0.72791912 24.1040694,1.40251083 23.6877919,1.81846462 L23.6877919,1.81846462 Z M13.5050033,6.06865904 C12.4776518,5.63404066 11.3862575,5.41539829 10.2601734,5.41539829 C9.13408939,5.41539829 8.04269513,5.63670703 7.01534356,6.06865904 C6.02268179,6.48727919 5.13142095,7.0898789 4.36290861,7.85512721 C3.59706471,8.62037551 2.993996,9.5136096 2.57505003,10.5054994 C2.1400934,11.532052 1.92128085,12.6225975 1.92128085,13.7478058 C1.92128085,14.8730141 2.14276184,15.9635596 2.57505003,16.9901122 C2.993996,17.982002 3.59706471,18.8725697 4.36290861,19.6404844 C5.1287525,20.4057327 6.02268179,21.0083324 7.01534356,21.4269526 C8.04269513,21.8615709 9.13408939,22.0802133 10.2601734,22.0802133 C11.3862575,22.0802133 12.4776518,21.8589046 13.5050033,21.4269526 C14.4976651,21.0083324 15.388926,20.4057327 16.1574383,19.6404844 C16.9232822,18.8752361 17.5263509,17.9846684 17.9452969,16.9901122 C18.3802535,15.9635596 18.599066,14.8730141 18.599066,13.7478058 C18.599066,12.6225975 18.3775851,11.532052 17.9452969,10.5054994 C17.5263509,9.5136096 16.9232822,8.62304188 16.1574383,7.85512721 C15.388926,7.0898789 14.4976651,6.48994556 13.5050033,6.06865904 L13.5050033,6.06865904 Z" transform="matrix(1 0 0 -1 308 764)"/>
  </g>
</svg>
