<svg xmlns="http://www.w3.org/2000/svg" width="24" height="24" viewBox="0 0 24 24">
  <path fill="#555" d="M13.6499659,21.5002547 C13.5529743,21.7689756 13.2984077,21.9507082 13.0099151,21.9571805 L11.1092768,21.9998215 C10.8130003,22.0064684 10.5449271,21.8269822 10.4411827,21.5525044 L9.6751041,19.5256808 C9.3232066,19.4026533 9.06612795,19.3070148 8.89898146,19.2366139 C8.74058527,19.1698987 8.53544077,19.0722593 8.28058727,18.9426265 L6.38190658,19.7549437 C6.12577479,19.8645252 5.82821583,19.812324 5.62584584,19.6223069 L4.22106797,18.3032781 C4.00593124,18.1012735 3.94386481,17.7866753 4.0664447,17.519534 L4.88322205,15.7395109 C4.76017205,15.4979963 4.65957084,15.2838441 4.58116863,15.0959926 C4.49857708,14.8981035 4.39862152,14.628586 4.28009144,14.2848943 L2.49171037,13.7412063 C2.19047176,13.6496264 1.98899142,13.3694211 2.00046594,13.0580168 L2.07124949,11.1370397 C2.08062732,10.8825369 2.2313194,10.6539373 2.46302665,10.5427144 L4.34096885,9.64127468 C4.42759746,9.32228988 4.50386559,9.07419005 4.57165467,8.89274074 C4.63878533,8.7130538 4.74293335,8.47740464 4.8854431,8.18143219 L4.06997455,6.45996626 C3.94312228,6.19217928 4.00336838,5.87420996 4.21965377,5.66998322 L5.62443163,4.34352648 C5.82439931,4.15470767 6.11840992,4.10075785 6.37358276,4.20606012 L8.27210909,4.98952564 C8.4823493,4.85093927 8.67247185,4.73658268 8.84371422,4.6461118 C9.04934485,4.53747289 9.3225817,4.42318736 9.66837893,4.29976859 L10.3278968,2.45865285 C10.426374,2.18374308 10.6893393,2 10.9843014,2 L13.078035,2 C13.3724371,2 13.6350302,2.18305668 13.7339285,2.4572308 L14.4396543,4.41370379 C14.6930786,4.47650967 14.9108093,4.54030436 15.0942558,4.60592238 C15.2952001,4.67779926 15.5540423,4.78741449 15.8746747,4.93586046 L17.5184936,4.06596774 C17.794148,3.92009416 18.1343396,3.97375545 18.3504064,4.19719235 L19.7960017,5.69209722 C19.98787,5.8905102 20.0422042,6.18265582 19.9342767,6.43557836 L19.162857,8.24336136 C19.2913496,8.47797752 19.3939318,8.67854463 19.4711247,8.84658462 C19.5553742,9.02998593 19.6588292,9.28241713 19.7829588,9.60671302 L21.580333,10.3762321 C21.8497082,10.4915611 22.0170118,10.7615273 21.9986241,11.0511992 L21.8669066,13.126215 C21.8494975,13.4004703 21.668825,13.6382294 21.4072566,13.7310995 L19.7049419,14.3355083 C19.6562729,14.5705675 19.6053791,14.772402 19.551477,14.9424906 C19.4883274,15.1417599 19.389065,15.3979932 19.2526724,15.7155635 L20.1084613,17.6068822 C20.2316885,17.879218 20.1635045,18.1990386 19.9395819,18.3990196 L18.3138559,19.8509252 C18.0957241,20.0457347 17.7773686,20.084139 17.5182641,19.9469002 L15.8421792,19.0591354 C15.5477413,19.2124998 15.2783109,19.3348831 15.0324612,19.4263047 C14.8127426,19.5080092 14.5685018,19.5992352 14.2997543,19.6999771 L13.6499659,21.5002547 Z M12.0237083,14.9857826 C13.6902629,14.9857826 15.0412723,13.6499713 15.0412723,12.0021646 C15.0412723,10.3543579 13.6902629,9.01854658 12.0237083,9.01854658 C10.3571537,9.01854658 9.00614429,10.3543579 9.00614429,12.0021646 C9.00614429,13.6499713 10.3571537,14.9857826 12.0237083,14.9857826 Z"/>
</svg>
