<svg xmlns="http://www.w3.org/2000/svg" width="24" height="24" viewBox="0 0 24 24">
  <g fill="none" fill-rule="evenodd" transform="translate(-552 -744)">
    <path fill="#555" fill-rule="nonzero" d="M13.8149625,22.4502801 C13.7082718,22.7458732 13.4282485,22.945779 13.1109066,22.9528986 L11.0202045,22.9998036 C10.6943003,23.0071153 10.3994198,22.8096804 10.285301,22.5077549 L9.44261451,20.2782489 C9.05552726,20.1429186 8.77274074,20.0377163 8.58887961,19.9602753 C8.4146438,19.8868885 8.18898485,19.7794852 7.908646,19.6368891 L5.82009723,20.5304381 C5.53835227,20.6509778 5.21103741,20.5935564 4.98843042,20.3845376 L3.44317477,18.9336059 C3.20652436,18.7114008 3.13825129,18.3653429 3.27308917,18.0714873 L4.17154425,16.113462 C4.03618926,15.847796 3.92552792,15.6122285 3.83928549,15.4055919 C3.74843479,15.1879138 3.63848367,14.8914446 3.50810059,14.5133837 L1.54088141,13.915327 C1.20951894,13.814589 0.987890558,13.5063633 1.00051254,13.1638184 L1.07837444,11.0507436 C1.08869006,10.7707906 1.25445134,10.519331 1.50932932,10.3969858 L3.57506574,9.40540215 C3.6703572,9.05451886 3.75425215,8.78160905 3.82882013,8.58201482 C3.90266386,8.38435918 4.01722669,8.12514511 4.17398741,7.79957541 L3.27697201,5.90596289 C3.13743451,5.61139721 3.20370522,5.26163096 3.44161914,5.03698154 L4.9868748,3.57787913 C5.20683924,3.37017844 5.53025092,3.31083364 5.81094104,3.42666613 L7.89932,4.2884782 C8.13058423,4.1360332 8.33971904,4.01024095 8.52808564,3.91072298 C8.75427933,3.79122018 9.05483987,3.66550609 9.43521682,3.52974544 L10.1606865,1.50451814 C10.2690114,1.20211739 10.5582733,1 10.8827316,1 L13.1858385,1 C13.5096808,1 13.7985332,1.20136235 13.9073213,1.50295388 L14.6836198,3.65507417 C14.9623864,3.72416063 15.2018903,3.7943348 15.4036814,3.86651461 C15.6247201,3.94557919 15.9094465,4.06615594 16.2621422,4.22944651 L18.0703429,3.27256451 C18.3735628,3.11210358 18.7477735,3.171131 18.985447,3.41691159 L20.5756018,5.06130694 C20.786657,5.27956121 20.8464246,5.6009214 20.7277044,5.8791362 L19.8791427,7.86769749 C20.0204846,8.12577527 20.1333249,8.34639909 20.2182372,8.53124308 C20.3109116,8.73298453 20.4247121,9.01065884 20.5612547,9.36738433 L22.5383663,10.2138553 C22.834679,10.3407172 23.018713,10.63768 22.9984865,10.9563191 L22.8535972,13.2388365 C22.8344472,13.5405173 22.6357075,13.8020523 22.3479822,13.9042095 L20.475436,14.5690592 C20.4219002,14.8276243 20.365917,15.0496422 20.3066247,15.2367397 C20.2371602,15.4559359 20.1279715,15.7377925 19.9779396,16.0871199 L20.9193074,18.1675704 C21.0548573,18.4671398 20.9798549,18.8189424 20.7335401,19.0389216 L18.9452415,20.6360178 C18.7052965,20.8503082 18.3551055,20.8925529 18.0700905,20.7415902 L16.2263972,19.7650489 C15.9025155,19.9337498 15.6061419,20.0683714 15.3357073,20.1689351 C15.0940169,20.2588101 14.825352,20.3591587 14.5297298,20.4699748 L13.8149625,22.4502801 Z M12.5492456,21.4503497 L13.2057623,19.631431 C13.2811672,19.4225173 13.4454083,19.2567893 13.6551228,19.1780022 C14.0853812,19.0163597 14.4657984,18.8740742 14.7964175,18.7511302 C15.0843886,18.6440454 15.4345338,18.4754728 15.8427839,18.2454679 C16.0716663,18.1165173 16.3515057,18.1129025 16.5837171,18.2358969 L18.3183643,19.1546802 L19.2935528,18.2837576 L18.4417476,16.4012431 C18.3532361,16.2056299 18.3526781,15.9820981 18.440212,15.7860553 C18.6407667,15.3368888 18.7763861,14.9994381 18.8447174,14.7838177 C18.9115401,14.5729579 18.9802488,14.2684412 19.0477792,13.8760526 C19.0941605,13.6065525 19.2838275,13.3826803 19.5440436,13.2902903 L21.3561638,12.6468949 L21.4357919,11.3924719 L19.6532625,10.6293084 C19.4610596,10.5470196 19.3113187,10.3905021 19.2388925,10.196186 C19.0618285,9.72113116 18.9222245,9.37283398 18.8233821,9.15766562 C18.7257576,8.94514847 18.5712175,8.65236185 18.3613324,8.28389229 C18.2450135,8.07968524 18.2308613,7.83373745 18.3230049,7.61780358 L19.1206364,5.7485946 L18.2802561,4.8795487 L16.6432383,5.74584234 C16.4267038,5.86043028 16.16773,5.86540934 15.9468538,5.7592311 C15.4701376,5.53006698 15.1121068,5.37305422 14.8825145,5.29093002 C14.6583651,5.21075278 14.3421921,5.12563047 13.9389015,5.0384685 C13.6806708,4.98265788 13.4697882,4.79915104 13.3809927,4.55298475 L12.6457779,2.51475991 L11.42405,2.51475991 L10.7564369,4.37847437 C10.6778153,4.5979551 10.5014603,4.76948125 10.2782192,4.8435977 C9.79906507,5.00267776 9.45242107,5.13981749 9.25007396,5.24672165 C9.0352765,5.36020359 8.76214602,5.5328475 8.43515679,5.76340935 C8.2195328,5.91544698 7.93977668,5.9465708 7.69537333,5.84571278 L5.6828805,5.01521667 L4.89786467,5.7564652 L5.71624461,7.48407713 C5.81497193,7.69249193 5.8125011,7.93398556 5.70952966,8.14038286 C5.48948208,8.58144914 5.34048112,8.90726875 5.26590159,9.10689388 C5.19138258,9.30635701 5.09109167,9.64773888 4.96962414,10.120697 C4.91406123,10.3370423 4.7648089,10.5181372 4.5617248,10.6156205 L2.59258925,11.5608344 L2.55288919,12.6382444 L4.33443254,13.1798536 C4.57168512,13.2519811 4.75888342,13.4333046 4.83669628,13.6663549 C5.01315058,14.1948374 5.15372298,14.5840618 5.25543623,14.8277665 C5.35527427,15.0669782 5.50359279,15.3713715 5.69963913,15.7377476 C5.8105366,15.9449954 5.81810237,16.1913421 5.72012745,16.4048613 L4.89346834,18.2064199 L5.67630674,18.9414731 L7.63576299,18.103154 C7.84947499,18.0117211 8.09364729,18.0213729 8.29929519,18.1293825 C8.70112565,18.3404305 9.00054223,18.4871945 9.18927999,18.5666894 C9.3814844,18.6476445 9.75033258,18.7819175 10.2847159,18.964618 C10.500626,19.0384356 10.6719444,19.2036877 10.7519191,19.4152778 L11.5297603,21.4732219 L12.5492456,21.4503497 Z M12.0260792,16.7991207 C9.34677215,16.7991207 7.17476468,14.6515472 7.17476468,12.002381 C7.17476468,9.35321485 9.34677215,7.20564134 12.0260792,7.20564134 C14.7053861,7.20564134 16.8773936,9.35321485 16.8773936,12.002381 C16.8773936,14.6515472 14.7053861,16.7991207 12.0260792,16.7991207 Z M12.0260792,15.2843608 C13.8592892,15.2843608 15.3453996,13.8149684 15.3453996,12.002381 C15.3453996,10.1897936 13.8592892,8.72040124 12.0260792,8.72040124 C10.1928691,8.72040124 8.70675872,10.1897936 8.70675872,12.002381 C8.70675872,13.8149684 10.1928691,15.2843608 12.0260792,15.2843608 Z" transform="translate(552 744)"/>
  </g>
</svg>
