<svg xmlns="http://www.w3.org/2000/svg" width="24" height="24" viewBox="0 0 24 24">
  <g fill="none" fill-rule="evenodd" transform="translate(-552 -744)">
    <path fill="#555" d="M13.6925515,24 L10.3074485,24 L9.33058637,21.0713154 C8.68462758,20.881775 8.06212361,20.6237718 7.47194929,20.3017433 L4.7118859,21.681775 L2.31759113,19.2881141 L3.69825674,16.5274168 C3.37622821,15.9385103 3.11885895,15.3160063 2.92868463,14.6687797 L0,13.6925515 L0,10.3074485 L2.92868463,9.33122029 C3.11885895,8.68399366 3.37622821,8.0614897 3.69825674,7.4725832 L2.31759113,4.7118859 L4.7118859,2.31759113 L7.47194929,3.69825674 C8.06212361,3.37622821 8.68462758,3.11822504 9.33058637,2.92868463 L10.3074485,0 L13.6925515,0 L14.6694136,2.92868463 C15.3147385,3.11822504 15.9378764,3.37622821 16.5280507,3.69825674 L19.2881141,2.31759113 L21.6824089,4.7118859 L20.3017433,7.4725832 C20.6237718,8.0614897 20.881141,8.68399366 21.0713154,9.33122029 L24,10.3074485 L24,13.6925515 L21.0713154,14.6687797 C20.881141,15.3160063 20.6237718,15.9385103 20.3017433,16.5274168 L21.6824089,19.2881141 L19.2881141,21.681775 L16.5280507,20.3017433 C15.9378764,20.6237718 15.3147385,20.881775 14.6694136,21.0713154 L13.6925515,24 L13.6925515,24 Z M11.1568938,22.8209192 L12.8431062,22.8209192 L13.7521395,20.0950872 L14.0627575,20.0152139 C14.8177496,19.8212361 15.540412,19.5226624 16.2098257,19.1264659 L16.4862124,18.962916 L19.0554675,20.2478605 L20.2478605,19.0554675 L18.9622821,16.4862124 L19.1264659,16.2091918 C19.5213946,15.5416799 19.8206022,14.8196513 20.0158479,14.0621236 L20.0950872,13.7515055 L22.8209192,12.8431062 L22.8209192,11.1568938 L20.0950872,10.2484945 L20.0158479,9.93787639 C19.8206022,9.18034865 19.5213946,8.45832013 19.1264659,7.79080824 L18.9622821,7.51378764 L20.2478605,4.94453249 L19.0554675,3.75213946 L16.4862124,5.03708399 L16.2098257,4.87353407 C15.540412,4.47733756 14.8177496,4.17876387 14.0627575,3.98478605 L13.7521395,3.90491284 L12.8431062,1.17908082 L11.1568938,1.17908082 L10.2478605,3.90491284 L9.93724247,3.98478605 C9.1822504,4.17876387 8.45958796,4.47733756 7.79017433,4.87353407 L7.51378764,5.03708399 L4.94453249,3.75213946 L3.75213946,4.94453249 L5.03771791,7.51378764 L4.87353407,7.79080824 C4.47860539,8.45832013 4.17939778,9.18034865 3.98415214,9.93787639 L3.90427892,10.2484945 L1.17908082,11.1568938 L1.17908082,12.8431062 L3.90427892,13.7515055 L3.98415214,14.0621236 C4.17939778,14.8196513 4.47860539,15.5416799 4.87353407,16.2091918 L5.03771791,16.4862124 L3.75213946,19.0554675 L4.94453249,20.2478605 L7.51378764,18.962916 L7.79017433,19.1264659 C8.45958796,19.5226624 9.1822504,19.8212361 9.93724247,20.0152139 L10.2478605,20.0950872 L11.1568938,22.8209192 L11.1568938,22.8209192 Z M12,17.28 C9.08860918,17.28 6.72,14.9113908 6.72,12 C6.72,9.08860918 9.08860918,6.72 12,6.72 C14.9113908,6.72 17.28,9.08860918 17.28,12 C17.28,14.9113908 14.9113908,17.28 12,17.28 L12,17.28 Z M12,7.81975364 C9.69524748,7.81975364 7.81975364,9.69524748 7.81975364,12 C7.81975364,14.3047525 9.69524748,16.1802464 12,16.1802464 C14.3047525,16.1802464 16.1802464,14.3047525 16.1802464,12 C16.1802464,9.69524748 14.3047525,7.81975364 12,7.81975364 L12,7.81975364 Z" transform="translate(552 744)"/>
  </g>
</svg>
