<svg xmlns="http://www.w3.org/2000/svg" width="24" height="24" viewBox="0 0 24 24">
  <g fill="none" fill-rule="evenodd" transform="translate(-600 -744)">
    <path fill="#555" fill-rule="nonzero" d="M23.9998906,11.0648715 C23.9993185,11.5616176 24.0016068,12.3792326 23.9973163,12.9517633 C23.9930259,13.523722 23.704708,13.9892963 23.1031876,14.0933928 C22.5016672,14.1966314 20.9531027,14.4628781 20.7076892,14.5112087 C20.4622758,14.5592532 20.2817911,14.6807944 20.1876873,14.880122 C20.0938696,15.0797356 19.9279724,15.4294883 19.8524605,15.6013619 C19.7766627,15.7732355 19.7534943,16.0975361 19.9025157,16.3057291 C20.0518232,16.513922 21.1021241,17.9744186 21.3243692,18.314162 C21.5463282,18.6536195 21.7030724,19.2882077 21.1985161,19.7858118 C20.6936738,20.2831299 20.223441,20.7481323 19.789248,21.1693799 C19.355341,21.5906275 18.7704103,21.624945 18.3047541,21.2952108 C17.8393838,20.9654766 16.732163,20.1821792 16.4804569,19.9994384 C16.2290368,19.8169835 16.0459778,19.6814293 15.6881547,19.8358582 C15.3300456,19.990573 15.140694,20.0686454 14.9204511,20.1756016 C14.7004943,20.2825579 14.581506,20.3960917 14.5305927,20.7038055 C14.4799655,21.0120912 14.2265432,22.5615274 14.1238585,23.0980246 C14.0211739,23.6348079 13.6330316,23.9917101 12.8238537,23.9954278 C12.0143898,23.9988596 11.6834535,24.0037212 11.0627691,23.9954278 C10.4417987,23.9871344 10.0081778,23.6522526 9.90091665,23.0311054 C9.79394156,22.4093863 9.57598696,21.1336325 9.50247733,20.7835937 C9.42925374,20.433269 9.34001249,20.2410909 9.03310266,20.1129722 C8.72562078,19.9842815 8.57373903,19.9199361 8.40383741,19.852731 C8.2339358,19.7858118 7.91329655,19.7186066 7.60724481,19.9368089 C7.30090705,20.1550111 6.24860393,20.9054209 5.72831598,21.2700446 C5.20860009,21.6349543 4.58791573,21.5505904 4.20206172,21.1693799 C3.81592168,20.7881694 3.12859241,20.1129722 2.80137448,19.768939 C2.47444258,19.4251918 2.32313289,18.8123381 2.65893171,18.3433319 C2.99415847,17.8743258 3.6483083,16.9597638 3.97552623,16.4984792 C4.30274416,16.0374804 4.23981764,15.9493988 4.117969,15.5927826 C3.99669243,15.2367383 3.95664827,15.2029927 3.84995921,14.9473272 C3.74298412,14.6916616 3.5836656,14.5586812 3.23756971,14.5029153 C2.89118779,14.4471493 1.82029275,14.2764196 1.09892595,14.1422953 C0.37755915,14.008171 0,13.6392576 0,12.9431839 L0,11.0940414 C0,10.5112155 0.333796612,9.99473678 0.876966935,9.89836174 C1.41985123,9.80141474 2.59428901,9.6095226 3.0908365,9.51772322 C3.61055239,9.42134818 3.75013486,9.34956737 3.88771513,9.03127235 C4.02472333,8.71269135 4.14342564,8.44844644 4.21464703,8.23853759 C4.28558238,8.02920071 4.23323895,7.83702259 3.97552623,7.47154098 C3.71781351,7.10605937 3.17035274,6.32676564 2.79279359,5.80685518 C2.41552047,5.2872307 2.34858953,4.63290995 2.77620387,4.21366422 C3.20410424,3.79441849 3.91689015,3.09863074 4.23552719,2.77147036 C4.55416423,2.44430998 5.12107502,2.30446608 5.64450929,2.67080563 C6.16794357,3.0368592 7.02002592,3.635128 7.44764026,3.92425312 C7.87554063,4.21366422 8.01998561,4.25999288 8.31574028,4.13816567 C8.61178098,4.01662445 9.17125499,3.78612509 9.17125499,3.78612509 C9.17125499,3.78612509 9.42639344,3.69518366 9.49847292,3.25763525 C9.57026636,2.82037283 9.82969526,1.23690517 9.90091665,0.842539644 C9.97213803,0.4484601 10.425209,4.44794991e-05 10.8948697,4.44794991e-05 C11.3645304,4.44794991e-05 12.5301013,0.0040481904 13.0209282,4.44794991e-05 C13.5117551,-0.0045311901 14.0180276,0.344363617 14.1029784,0.842539644 C14.1876431,1.34071567 14.4339147,2.79663654 14.5054221,3.20758887 C14.5766435,3.61825521 14.7822988,3.773542 14.7822988,3.773542 C14.7822988,3.773542 15.4324442,4.0546597 15.738496,4.17591495 C16.0445477,4.29745617 16.3297193,4.1004164 16.3297193,4.1004164 C16.3297193,4.1004164 18.0490435,2.8761388 18.3802659,2.64163573 C18.7117743,2.40684669 19.3436138,2.40341494 19.6007544,2.65393285 C19.8576091,2.90473674 20.8378327,3.85733395 21.2234007,4.2514135 C21.6092547,4.64549304 21.6046782,5.29581008 21.3618391,5.63526757 C21.1192859,5.9741531 20.1582263,7.31654017 19.9780276,7.57191973 C19.7975429,7.82758527 19.7680818,8.09383204 19.8524605,8.30173903 C19.9362672,8.50936004 20.1542218,9.04785915 20.1919778,9.14423419 C20.2294476,9.24089521 20.4336728,9.43879292 20.6324634,9.47168055 C20.830968,9.50399622 22.557443,9.78825969 23.0920325,9.87605535 C23.6269079,9.96413699 24.0004627,10.4400066 23.9998906,11.0648715 Z M12,7.68 C9.791,7.68 8,9.399168 8,11.52 C8,13.640832 9.791,15.36 12,15.36 C14.2092,15.36 16,13.640832 16,11.52 C16,9.399168 14.2092,7.68 12,7.68 Z" transform="translate(600 744)"/>
  </g>
</svg>
