<svg xmlns="http://www.w3.org/2000/svg" width="24" height="24" viewBox="0 0 24 24">
  <g fill="none" fill-rule="evenodd" transform="translate(-600 -744)">
    <path fill="#555" fill-rule="nonzero" d="M13.8149625,22.4502801 C13.7082718,22.7458732 13.4282485,22.945779 13.1109066,22.9528986 L11.0202045,22.9998036 C10.6943003,23.0071153 10.3994198,22.8096804 10.285301,22.5077549 L9.44261451,20.2782489 C9.05552726,20.1429186 8.77274074,20.0377163 8.58887961,19.9602753 C8.4146438,19.8868885 8.18898485,19.7794852 7.908646,19.6368891 L5.82009723,20.5304381 C5.53835227,20.6509778 5.21103741,20.5935564 4.98843042,20.3845376 L3.44317477,18.9336059 C3.20652436,18.7114008 3.13825129,18.3653429 3.27308917,18.0714873 L4.17154425,16.113462 C4.03618926,15.847796 3.92552792,15.6122285 3.83928549,15.4055919 C3.74843479,15.1879138 3.63848367,14.8914446 3.50810059,14.5133837 L1.54088141,13.915327 C1.20951894,13.814589 0.987890558,13.5063633 1.00051254,13.1638184 L1.07837444,11.0507436 C1.08869006,10.7707906 1.25445134,10.519331 1.50932932,10.3969858 L3.57506574,9.40540215 C3.6703572,9.05451886 3.75425215,8.78160905 3.82882013,8.58201482 C3.90266386,8.38435918 4.01722669,8.12514511 4.17398741,7.79957541 L3.27697201,5.90596289 C3.13743451,5.61139721 3.20370522,5.26163096 3.44161914,5.03698154 L4.9868748,3.57787913 C5.20683924,3.37017844 5.53025092,3.31083364 5.81094104,3.42666613 L7.89932,4.2884782 C8.13058423,4.1360332 8.33971904,4.01024095 8.52808564,3.91072298 C8.75427933,3.79122018 9.05483987,3.66550609 9.43521682,3.52974544 L10.1606865,1.50451814 C10.2690114,1.20211739 10.5582733,1 10.8827316,1 L13.1858385,1 C13.5096808,1 13.7985332,1.20136235 13.9073213,1.50295388 L14.6836198,3.65507417 C14.9623864,3.72416063 15.2018903,3.7943348 15.4036814,3.86651461 C15.6247201,3.94557919 15.9094465,4.06615594 16.2621422,4.22944651 L18.0703429,3.27256451 C18.3735628,3.11210358 18.7477735,3.171131 18.985447,3.41691159 L20.5756018,5.06130694 C20.786657,5.27956121 20.8464246,5.6009214 20.7277044,5.8791362 L19.8791427,7.86769749 C20.0204846,8.12577527 20.1333249,8.34639909 20.2182372,8.53124308 C20.3109116,8.73298453 20.4247121,9.01065884 20.5612547,9.36738433 L22.5383663,10.2138553 C22.834679,10.3407172 23.018713,10.63768 22.9984865,10.9563191 L22.8535972,13.2388365 C22.8344472,13.5405173 22.6357075,13.8020523 22.3479822,13.9042095 L20.475436,14.5690592 C20.4219002,14.8276243 20.365917,15.0496422 20.3066247,15.2367397 C20.2371602,15.4559359 20.1279715,15.7377925 19.9779396,16.0871199 L20.9193074,18.1675704 C21.0548573,18.4671398 20.9798549,18.8189424 20.7335401,19.0389216 L18.9452415,20.6360178 C18.7052965,20.8503082 18.3551055,20.8925529 18.0700905,20.7415902 L16.2263972,19.7650489 C15.9025155,19.9337498 15.6061419,20.0683714 15.3357073,20.1689351 C15.0940169,20.2588101 14.825352,20.3591587 14.5297298,20.4699748 L13.8149625,22.4502801 Z M12.0260792,15.2843608 C13.8592892,15.2843608 15.3453996,13.8149684 15.3453996,12.002381 C15.3453996,10.1897936 13.8592892,8.72040124 12.0260792,8.72040124 C10.1928691,8.72040124 8.70675872,10.1897936 8.70675872,12.002381 C8.70675872,13.8149684 10.1928691,15.2843608 12.0260792,15.2843608 Z" transform="translate(600 744)"/>
  </g>
</svg>
