<svg xmlns="http://www.w3.org/2000/svg" width="24" height="24" viewBox="0 0 24 24">
  <g fill="none" fill-rule="evenodd" transform="translate(-600 -792)">
    <path fill="#555" fill-rule="nonzero" d="M18.03736,15.9815029 C16.50616,15.9815029 15.19232,16.8684763 14.53408,18.1523237 L7.46064,13.8160092 C7.74488,13.2646474 7.92088,12.6484717 7.92088,11.9843514 C7.92088,11.5306543 7.82936,11.1027052 7.69208,10.6960647 L15.10344,6.65629595 C15.82856,7.46957688 16.86872,7.99075145 18.03736,7.99075145 C20.22504,7.99075145 21.99736,6.20171098 21.99736,3.99537572 C21.99736,1.78904046 20.22504,0 18.03736,0 C15.85144,0 14.07736,1.78904046 14.07736,3.99537572 C14.07736,4.38248324 14.14864,4.74916994 14.25072,5.10253873 L6.77512,9.1769341 C6.05792,8.44444855 5.06264,7.98897572 3.96,7.98897572 C1.7732,7.98897572 0,9.77801618 0,11.9843514 C0,14.1906867 1.7732,15.9797272 3.96,15.9797272 C4.84176,15.9797272 5.64872,15.6787422 6.30696,15.1868671 L14.08,19.9520185 C14.08,19.9608971 14.07736,19.9688879 14.07736,19.9759908 C14.07736,22.182326 15.85144,23.9713665 18.03736,23.9713665 C20.22504,23.9713665 21.99736,22.182326 21.99736,19.9759908 C21.99736,17.7696555 20.22504,15.9815029 18.03736,15.9815029 Z M18.03736,1.77572254 C19.25088,1.77572254 20.23736,2.77190289 20.23736,3.99537572 C20.23736,5.21884855 19.25088,6.2150289 18.03736,6.2150289 C16.82384,6.2150289 15.83736,5.21884855 15.83736,3.99537572 C15.83736,2.77190289 16.82384,1.77572254 18.03736,1.77572254 Z M3.96,14.2040046 C2.74736,14.2040046 1.76,13.2078243 1.76,11.9843514 C1.76,10.7608786 2.74736,9.76469827 3.96,9.76469827 C5.17264,9.76469827 6.16,10.7608786 6.16,11.9843514 C6.16,13.2078243 5.17352,14.2040046 3.96,14.2040046 Z M18.03736,22.1965318 C16.82384,22.1965318 15.83736,21.2012393 15.83736,19.9768786 C15.83736,18.7525179 16.82384,17.7572254 18.03736,17.7572254 C19.25088,17.7572254 20.23736,18.7525179 20.23736,19.9768786 C20.23736,21.2012393 19.25088,22.1965318 18.03736,22.1965318 Z" transform="translate(601 792)"/>
  </g>
</svg>
