<svg xmlns="http://www.w3.org/2000/svg" width="20" height="20" viewBox="0 0 20 20">
  <path fill="#555" d="M7.15264622,8.82522741 C7.29250046,9.18947111 7.36923077,9.58570813 7.36923077,10 C7.36923077,10.5414211 7.23818456,11.0520067 7.00646101,11.5006466 L13.0141039,15.2255223 C13.5528114,14.2165068 14.6045869,13.5306554 15.8153846,13.5306554 C17.5757653,13.5306554 19,14.9804284 19,16.7653277 C19,18.550227 17.5757653,20 15.8153846,20 C14.0550039,20 12.6307692,18.550227 12.6307692,16.7653277 C12.6307692,16.7192863 12.6317169,16.673468 12.6335935,16.6278917 L6.10546545,12.5803033 C5.57169819,12.9909373 4.90641312,13.2346723 4.18461538,13.2346723 C2.42423469,13.2346723 1,11.7848993 1,10 C1,8.21510069 2.42423469,6.7653277 4.18461538,6.7653277 C5.03719635,6.7653277 5.81093017,7.10538968 6.38220745,7.65888722 L12.7644384,4.16481124 C12.6774799,3.87016971 12.6307692,3.55791658 12.6307692,3.2346723 C12.6307692,1.449773 14.0550039,0 15.8153846,0 C17.5757653,0 19,1.449773 19,3.2346723 C19,5.01957161 17.5757653,6.46934461 15.8153846,6.46934461 C14.8687961,6.46934461 14.019401,6.05015617 13.4363714,5.38508033 L7.15264622,8.82522741 Z M4.18461538,11.8393235 C5.17716175,11.8393235 5.98461538,11.0173912 5.98461538,10 C5.98461538,8.98260882 5.17716175,8.16067653 4.18461538,8.16067653 C3.19206902,8.16067653 2.38461538,8.98260882 2.38461538,10 C2.38461538,11.0173912 3.19206902,11.8393235 4.18461538,11.8393235 Z M15.8153846,5.07399577 C16.807931,5.07399577 17.6153846,4.25206348 17.6153846,3.2346723 C17.6153846,2.21728112 16.807931,1.39534884 15.8153846,1.39534884 C14.8228382,1.39534884 14.0153846,2.21728112 14.0153846,3.2346723 C14.0153846,4.25206348 14.8228382,5.07399577 15.8153846,5.07399577 Z M15.8153846,18.6046512 C16.807931,18.6046512 17.6153846,17.7827189 17.6153846,16.7653277 C17.6153846,15.7479365 16.807931,14.9260042 15.8153846,14.9260042 C14.8228382,14.9260042 14.0153846,15.7479365 14.0153846,16.7653277 C14.0153846,17.7827189 14.8228382,18.6046512 15.8153846,18.6046512 Z"/>
</svg>
