<svg xmlns="http://www.w3.org/2000/svg" width="24" height="24" viewBox="0 0 24 24">
  <g fill="none" fill-rule="evenodd" transform="translate(-600 -792)">
    <path fill="#555" fill-rule="nonzero" d="M7.83627357,10.7077502 C7.99166718,11.1084182 8.07692308,11.5442789 8.07692308,12 C8.07692308,12.5955632 7.93131618,13.1572073 7.67384557,13.6507112 L14.3490043,17.7480746 C14.9475682,16.6381575 16.1162076,15.8837209 17.4615385,15.8837209 C19.417517,15.8837209 21,17.4784712 21,19.4418605 C21,21.4052497 19.417517,23 17.4615385,23 C15.5055599,23 13.9230769,21.4052497 13.9230769,19.4418605 C13.9230769,19.391215 13.9241299,19.3408148 13.926215,19.2906809 L6.67273939,14.8383336 C6.07966466,15.2900311 5.34045902,15.5581395 4.53846154,15.5581395 C2.58248299,15.5581395 1,13.9633892 1,12 C1,10.0366108 2.58248299,8.44186047 4.53846154,8.44186047 C5.48577373,8.44186047 6.34547797,8.81592865 6.9802305,9.42477594 L14.0715982,5.58129237 C13.9749776,5.25718669 13.9230769,4.91370824 13.9230769,4.55813953 C13.9230769,2.5947503 15.5055599,1 17.4615385,1 C19.417517,1 21,2.5947503 21,4.55813953 C21,6.52152877 19.417517,8.11627907 17.4615385,8.11627907 C16.4097734,8.11627907 15.4660012,7.65517179 14.8181905,6.92358836 L7.83627357,10.7077502 Z M4.53846154,14.0232558 C5.64129083,14.0232558 6.53846154,13.1191303 6.53846154,12 C6.53846154,10.8808697 5.64129083,9.97674419 4.53846154,9.97674419 C3.43563224,9.97674419 2.53846154,10.8808697 2.53846154,12 C2.53846154,13.1191303 3.43563224,14.0232558 4.53846154,14.0232558 Z M17.4615385,6.58139535 C18.5643678,6.58139535 19.4615385,5.67726983 19.4615385,4.55813953 C19.4615385,3.43900924 18.5643678,2.53488372 17.4615385,2.53488372 C16.3587092,2.53488372 15.4615385,3.43900924 15.4615385,4.55813953 C15.4615385,5.67726983 16.3587092,6.58139535 17.4615385,6.58139535 Z M17.4615385,21.4651163 C18.5643678,21.4651163 19.4615385,20.5609908 19.4615385,19.4418605 C19.4615385,18.3227302 18.5643678,17.4186047 17.4615385,17.4186047 C16.3587092,17.4186047 15.4615385,18.3227302 15.4615385,19.4418605 C15.4615385,20.5609908 16.3587092,21.4651163 17.4615385,21.4651163 Z" transform="translate(601 792)"/>
  </g>
</svg>
