<svg xmlns="http://www.w3.org/2000/svg" width="24" height="24" viewBox="0 0 24 24">
  <path fill="#555" d="M9.15264622,10.8252274 C9.29250046,11.1894711 9.36923077,11.5857081 9.36923077,12 C9.36923077,12.5414211 9.23818456,13.0520067 9.00646101,13.5006466 L15.0141039,17.2255223 C15.5528114,16.2165068 16.6045869,15.5306554 17.8153846,15.5306554 C19.5757653,15.5306554 21,16.9804284 21,18.7653277 C21,20.550227 19.5757653,22 17.8153846,22 C16.0550039,22 14.6307692,20.550227 14.6307692,18.7653277 C14.6307692,18.7192863 14.6317169,18.673468 14.6335935,18.6278917 L8.10546545,14.5803033 C7.57169819,14.9909373 6.90641312,15.2346723 6.18461538,15.2346723 C4.42423469,15.2346723 3,13.7848993 3,12 C3,10.2151007 4.42423469,8.7653277 6.18461538,8.7653277 C7.03719635,8.7653277 7.81093017,9.10538968 8.38220745,9.65888722 L14.7644384,6.16481124 C14.6774799,5.87016971 14.6307692,5.55791658 14.6307692,5.2346723 C14.6307692,3.449773 16.0550039,2 17.8153846,2 C19.5757653,2 21,3.449773 21,5.2346723 C21,7.01957161 19.5757653,8.46934461 17.8153846,8.46934461 C16.8687961,8.46934461 16.019401,8.05015617 15.4363714,7.38508033 L9.15264622,10.8252274 Z M6.18461538,13.8393235 C7.17716175,13.8393235 7.98461538,13.0173912 7.98461538,12 C7.98461538,10.9826088 7.17716175,10.1606765 6.18461538,10.1606765 C5.19206902,10.1606765 4.38461538,10.9826088 4.38461538,12 C4.38461538,13.0173912 5.19206902,13.8393235 6.18461538,13.8393235 Z M17.8153846,7.07399577 C18.807931,7.07399577 19.6153846,6.25206348 19.6153846,5.2346723 C19.6153846,4.21728112 18.807931,3.39534884 17.8153846,3.39534884 C16.8228382,3.39534884 16.0153846,4.21728112 16.0153846,5.2346723 C16.0153846,6.25206348 16.8228382,7.07399577 17.8153846,7.07399577 Z M17.8153846,20.6046512 C18.807931,20.6046512 19.6153846,19.7827189 19.6153846,18.7653277 C19.6153846,17.7479365 18.807931,16.9260042 17.8153846,16.9260042 C16.8228382,16.9260042 16.0153846,17.7479365 16.0153846,18.7653277 C16.0153846,19.7827189 16.8228382,20.6046512 17.8153846,20.6046512 Z"/>
</svg>
