<svg xmlns="http://www.w3.org/2000/svg" width="24" height="24" viewBox="0 0 24 24">
  <g fill="none" fill-rule="evenodd" transform="translate(-552 -888)">
    <path fill="#555" fill-rule="nonzero" d="M16.9154172,18.27855 L4.66371829,18.27855 C2.29055323,18.27855 0.35988381,16.3542568 0.35988381,13.9888942 L0.35988381,7.96363446 C0.35988381,5.59851731 2.29055323,3.6743643 4.66371829,3.6743643 L15.8331282,3.6743643 C16.2178413,3.6743643 16.5297897,3.98521246 16.5297897,4.36865499 C16.5297897,4.75206244 16.2178764,5.06291064 15.8331282,5.06291064 L4.66371829,5.06291061 C3.05867811,5.06291061 1.75299595,6.36410535 1.75299595,7.96363446 L1.75299595,13.9888943 C1.75299595,15.5886337 3.05867811,16.8900037 4.66371829,16.8900037 L16.9154172,16.8900037 C18.5204222,16.8900037 19.8261044,15.5886336 19.8261044,13.9888943 C19.8261044,13.9892448 19.8220951,6.71904996 19.8220951,3.98286394 C19.8220951,2.62554965 20.2048387,1.58027536 20.9600214,0.875819355 C21.9804483,-0.0758990642 23.2936214,-0.00116650106 23.3494697,0.00289963928 C23.7334091,0.0283129149 24.0239397,0.359036025 23.9984422,0.741602223 C23.9730151,1.12430862 23.6435875,1.41331892 23.2574678,1.38839638 C23.2551818,1.38839638 22.4720398,1.35790046 21.9006851,1.90027231 C21.4457045,2.33233304 21.2151721,3.03300335 21.2151721,3.98289899 C21.2151721,6.71869943 21.2192165,13.9885788 21.2192165,13.9885788 C21.2192165,16.3542568 19.2885823,18.27855 16.9154172,18.27855 Z M15.8481102,9.45558653 L5.75272457,9.45558653 C5.36804669,9.45558653 5.05616849,9.14473837 5.05616849,8.76136596 C5.05616849,8.37792343 5.36804665,8.06707527 5.75272457,8.06707527 L15.8481101,8.06707527 C16.232788,8.06707527 16.5446662,8.37792343 16.5446662,8.76136596 C16.5446662,9.14473834 16.2328232,9.45558653 15.8481102,9.45558653 Z M15.8481102,13.8509615 L5.75272457,13.8509615 C5.36804669,13.8509615 5.05616849,13.5400783 5.05616849,13.1567059 C5.05616849,12.7732633 5.36804665,12.4624152 5.75272457,12.4624152 L15.8481101,12.4624152 C16.232788,12.4624152 16.5446662,12.7732283 16.5446662,13.1567059 C16.5446662,13.5400432 16.2328232,13.8509615 15.8481102,13.8509615 Z M19.1036992,20.6114887 L19.1036992,20.6114887 C19.1036992,19.8446351 19.7274167,19.2229774 20.4968113,19.2229774 C21.2662059,19.2229774 21.8899234,19.8446351 21.8899234,20.6114887 C21.8899235,21.107556 21.6243978,21.5659411 21.1933674,21.8139748 C20.762337,22.0620084 20.2312856,22.0620084 19.8002552,21.8139748 C19.3692248,21.5659411 19.1036991,21.107556 19.1036992,20.6114887 Z M3.53696111e-16,20.6114887 C-7.41647239e-09,20.1154214 0.265525665,19.6570363 0.696556064,19.4090026 C1.12758646,19.160969 1.65863782,19.160969 2.08966822,19.4090026 C2.52069862,19.6570363 2.78622429,20.1154214 2.78622428,20.6114887 C2.78622428,21.3783423 2.16250673,21.9999999 1.39311214,21.9999999 C0.62371755,21.9999999 3.53696111e-16,21.3783423 3.53696111e-16,20.6114887 Z" transform="translate(552 889)"/>
  </g>
</svg>
