<svg xmlns="http://www.w3.org/2000/svg" width="24" height="24" viewBox="0 0 24 24">
  <g fill="none" fill-rule="evenodd" transform="translate(-552 -888)">
    <path fill="#555" fill-rule="nonzero" d="M3.47492421,17.1891901 C3.85488584,17.5179777 4.4010655,17.6914269 5.14329093,17.6914269 L16.8677843,17.6950968 C17.638989,17.6175719 18.1496757,17.3807483 18.4452265,17.0077513 C18.7643006,16.605067 18.9555255,15.9473028 18.9880414,15.0482265 L18.9890068,5.57690054 C19.0300122,4.75182881 19.2788554,4.02726939 19.736601,3.42513315 C20.2081689,2.80481454 20.9803486,2.35156654 22.0393511,2.03156337 C22.4357697,1.91177592 22.8520533,2.14342398 22.9691465,2.5489638 C23.0862398,2.95450361 22.8598018,3.38036551 22.4633833,3.50015296 C21.6781266,3.7374372 21.1676651,4.03706389 20.9182097,4.36520721 C20.6549319,4.7115329 20.5098239,5.13404562 20.4849155,5.61577838 L20.4844193,15.0761032 C20.4405743,16.3072354 20.1585732,17.2772458 19.6080522,17.9720253 C19.0340079,18.6964923 18.1542523,19.1044663 16.9409759,19.2227427 L5.14329093,19.2227427 C4.06945784,19.2227427 3.18116121,18.940648 2.50822879,18.3583477 C1.8348403,17.7756527 1.41844067,16.9316753 1.24834952,15.8606339 L1.23866361,15.7378525 L1.23939921,9.41039008 C1.28880706,8.27119148 1.64411747,7.33191232 2.3138408,6.62978211 C2.9942243,5.9164759 3.9445491,5.55167933 5.14329093,5.5183499 L15.374742,5.5183499 C15.7880924,5.5183499 16.1231791,5.86114661 16.1231791,6.28400779 C16.1231791,6.70686897 15.7880924,7.04966569 15.374742,7.04966569 L5.16380003,7.04937817 C4.35019494,7.0721946 3.77133228,7.2943998 3.38517868,7.69923878 C2.98836491,8.11525375 2.76873594,8.69585289 2.73553773,9.44432789 L2.73553773,15.6737154 C2.85588698,16.3749847 3.10562956,16.8696329 3.47492421,17.1891901 Z M6.23520898,11.0911941 C5.8218586,11.0911941 5.48677192,10.7483973 5.48677192,10.3255362 C5.48677192,9.90267498 5.8218586,9.55987826 6.23520898,9.55987826 L15.374742,9.55987826 C15.7880924,9.55987826 16.1231791,9.90267498 16.1231791,10.3255362 C16.1231791,10.7483973 15.7880924,11.0911941 15.374742,11.0911941 L6.23520898,11.0911941 Z M6.23520898,15.1747028 C5.8218586,15.1747028 5.48677192,14.8319061 5.48677192,14.4090449 C5.48677192,13.9861838 5.8218586,13.643387 6.23520898,13.643387 L15.374742,13.643387 C15.7880924,13.643387 16.1231791,13.9861838 16.1231791,14.4090449 C16.1231791,14.8319061 15.7880924,15.1747028 15.374742,15.1747028 L6.23520898,15.1747028 Z M2.49687412,23 C1.67017337,23 1,22.3144066 1,21.4686842 C1,20.6229619 1.67017337,19.9373684 2.49687412,19.9373684 C3.32357486,19.9373684 3.99374823,20.6229619 3.99374823,21.4686842 C3.99374823,22.3144066 3.32357486,23 2.49687412,23 Z M19.4614474,23 C18.6347467,23 17.9645733,22.3144066 17.9645733,21.4686842 C17.9645733,20.6229619 18.6347467,19.9373684 19.4614474,19.9373684 C20.2881482,19.9373684 20.9583216,20.6229619 20.9583216,21.4686842 C20.9583216,22.3144066 20.2881482,23 19.4614474,23 Z" transform="translate(552 888)"/>
  </g>
</svg>
