<svg xmlns="http://www.w3.org/2000/svg" width="24" height="24" viewBox="0 0 24 24">
  <path fill="#555" d="M4.03296418,16.7426006 C4.37838384,17.040075 4.8749108,17.1970053 5.54966119,17.1970053 L16.4252585,17.2003257 C17.1263537,17.1301841 17.5906142,16.9159151 17.8592968,16.5784417 C18.1493642,16.2141082 18.323205,15.6189883 18.3527649,14.8055382 L18.3536426,5.23464082 C18.3909201,4.48814735 18.6171412,3.83259359 19.0332736,3.28780365 C19.4619717,2.72656301 20.1639533,2.31648149 21.1266828,2.02695481 C21.4870634,1.91857568 21.865503,2.12816203 21.9719514,2.495079 C22.0783998,2.86199598 21.8725471,3.2472996 21.5121666,3.35567872 C20.7982969,3.57036447 20.334241,3.84145528 20.1074633,4.13834686 C19.86812,4.45168915 19.7362035,4.83396256 19.7135595,5.26981601 L19.7131084,14.83076 C19.6732494,15.9446415 19.4168848,16.82227 18.9164111,17.4508801 C18.3945527,18.1063501 17.5947748,18.4754695 16.4917963,18.5824815 L5.54966119,18.5824815 C4.57344929,18.5824815 3.76590691,18.327253 3.15415016,17.8004098 C2.5419788,17.2732096 2.16343368,16.509611 2.00880537,15.5405735 L2,15.4294856 L2.00066872,9.49134883 C2.04558495,8.46064533 2.36859441,7.61082133 2.9774338,6.97556066 C3.59596426,6.33018837 4.45989589,6.00013434 5.54966119,5.96997914 L15.0679473,5.96997914 C15.4437204,5.96997914 15.7483446,6.28012855 15.7483446,6.66271723 C15.7483446,7.04530592 15.4437204,7.35545533 15.0679473,7.35545533 L5.56830584,7.35519519 C4.82866484,7.37583863 4.30242606,7.57688143 3.95137733,7.94316431 C3.59063754,8.31955881 3.39097484,8.84486279 3.36079465,9.52205446 L3.36079465,15.3714568 C3.47020306,16.0059385 3.69724177,16.4534774 4.03296418,16.7426006 Z M6.75928089,11.225366 C6.38350782,11.225366 6.07888356,10.9152166 6.07888356,10.5326279 C6.07888356,10.1500393 6.38350782,9.83988985 6.75928089,9.83988985 L15.0679473,9.83988985 C15.4437204,9.83988985 15.7483446,10.1500393 15.7483446,10.5326279 C15.7483446,10.9152166 15.4437204,11.225366 15.0679473,11.225366 L6.75928089,11.225366 Z M6.75928089,14.9199692 C6.38350782,14.9199692 6.07888356,14.6098198 6.07888356,14.2272311 C6.07888356,13.8446424 6.38350782,13.534493 6.75928089,13.534493 L15.0679473,13.534493 C15.4437204,13.534493 15.7483446,13.8446424 15.7483446,14.2272311 C15.7483446,14.6098198 15.4437204,14.9199692 15.0679473,14.9199692 L6.75928089,14.9199692 Z M3.36079465,22 C2.60924852,22 2,21.3797012 2,20.6145238 C2,19.8493464 2.60924852,19.2290476 3.36079465,19.2290476 C4.11234079,19.2290476 4.7215893,19.8493464 4.7215893,20.6145238 C4.7215893,21.3797012 4.11234079,22 3.36079465,22 Z M18.783134,22 C18.0315879,22 17.4223394,21.3797012 17.4223394,20.6145238 C17.4223394,19.8493464 18.0315879,19.2290476 18.783134,19.2290476 C19.5346802,19.2290476 20.1439287,19.8493464 20.1439287,20.6145238 C20.1439287,21.3797012 19.5346802,22 18.783134,22 Z"/>
</svg>
