<svg xmlns="http://www.w3.org/2000/svg" width="24" height="24" viewBox="0 0 24 24">
  <g fill="none" fill-rule="evenodd" transform="translate(-116 -356)">
    <path fill="#555" d="M0.983240223,6.96283067 L5.7027933,6.96283067 L0.516201117,1.78368121 C0.131843575,1.39970979 0.131843575,0.779104811 0.516201117,0.395133385 C0.900558659,0.01116196 1.52178771,0.01116196 1.90614525,0.395133385 L7.17318436,5.65688135 L7.17318436,0.982252484 C7.17318436,0.439781226 7.61340782,0 8.15642458,0 C8.69944134,0 9.1396648,0.439781226 9.1396648,0.982252484 L9.1396648,7.94731555 C9.1396648,8.48978681 8.69944134,8.92956803 8.15642458,8.92956803 L0.983240223,8.92956803 C0.440223464,8.92956803 0,8.48978681 0,7.94731555 C0,7.40484429 0.440223464,6.96283067 0.983240223,6.96283067 L0.983240223,6.96283067 Z M11.8435754,11.070432 L19.0167598,11.070432 C19.5597765,11.070432 20,11.5102132 20,12.0526845 C20,12.5951557 19.5597765,13.0349369 19.0167598,13.0349369 L14.2994413,13.0349369 L19.4860335,18.2163188 C19.8703911,18.6002902 19.8703911,19.2208952 19.4860335,19.6048666 C19.2938547,19.7968523 19.0413408,19.8928452 18.7910615,19.8928452 C18.5385475,19.8928452 18.2882682,19.7968523 18.0960894,19.6048666 L12.8268156,14.3431187 L12.8268156,19.0177475 C12.8268156,19.5602188 12.3865922,20 11.8435754,20 C11.3005587,20 10.8603352,19.5602188 10.8603352,19.0177475 L10.8603352,12.0526845 C10.8603352,11.5102132 11.3005587,11.070432 11.8435754,11.070432 L11.8435754,11.070432 Z" transform="matrix(1 0 0 -1 118 378)"/>
  </g>
</svg>
