<svg xmlns="http://www.w3.org/2000/svg" width="24" height="24" viewBox="0 0 24 24">
  <g fill="none" fill-rule="evenodd" transform="translate(-120 -360)">
    <path fill="#555" fill-rule="nonzero" d="M16.2085353,8.9205337 L20.9916071,8.9205337 C21.4122537,8.9205337 21.7532552,9.26134756 21.7532552,9.68176276 C21.7532552,10.102178 21.4122537,10.4429918 20.9916071,10.4429918 L14.346941,10.4429918 C13.9262944,10.4429918 13.5852929,10.102178 13.5852929,9.68176276 L13.5852929,3.11211729 C13.5852929,2.69170209 13.9262944,2.35088822 14.346941,2.35088822 C14.7675877,2.35088822 15.1085891,2.69170209 15.1085891,3.11211729 L15.1085891,7.86696938 L21.6974925,1.22526021 C21.9936629,0.926716186 22.4759074,0.924659888 22.7746158,1.22066734 C23.0733242,1.51667479 23.0753816,1.99865399 22.7792112,2.29719801 L16.2085353,8.9205337 Z M7.79146474,15.0794663 L3.00839292,15.0794663 C2.58774627,15.0794663 2.24674479,14.7386524 2.24674479,14.3182372 C2.24674479,13.897822 2.58774627,13.5570082 3.00839292,13.5570082 L9.65305899,13.5570082 C10.0737056,13.5570082 10.4147071,13.897822 10.4147071,14.3182372 L10.4147071,20.8878827 C10.4147071,21.3082979 10.0737056,21.6491118 9.65305899,21.6491118 C9.23241234,21.6491118 8.89141086,21.3082979 8.89141086,20.8878827 L8.89141086,16.1330306 L2.30250753,22.7747398 C2.00633713,23.0732838 1.52409259,23.0753401 1.22538422,22.7793327 C0.926675843,22.4833252 0.924618413,22.001346 1.22078882,21.702802 L7.79146474,15.0794663 Z" transform="translate(120 360)"/>
  </g>
</svg>
