<svg xmlns="http://www.w3.org/2000/svg" width="24" height="24" viewBox="0 0 24 24">
  <path fill="#555" d="M9.97039349,14.9072199 L3.19755767,21.7956288 C2.92651302,22.0712986 2.4833134,22.0750481 2.2076436,21.8040034 C1.93197379,21.5329588 1.92822436,21.0897591 2.199269,20.8140893 L8.93706371,13.9613195 L4.67039349,13.9613195 C4.28379417,13.9613195 3.97039349,13.6479189 3.97039349,13.2613195 C3.97039349,12.8747202 4.28379417,12.5613195 4.67039349,12.5613195 L10.6703935,12.5613195 C11.0569928,12.5613195 11.3703935,12.8747202 11.3703935,13.2613195 L11.3703935,19.2613195 C11.3703935,19.6479189 11.0569928,19.9613195 10.6703935,19.9613195 C10.2837942,19.9613195 9.97039349,19.6479189 9.97039349,19.2613195 L9.97039349,14.9072199 Z M14.0283292,9.0976393 L20.8011651,2.20923042 C21.0722097,1.93356062 21.5154093,1.92981118 21.7910791,2.20085582 C22.0667489,2.47190047 22.0704984,2.91510009 21.7994537,3.19076989 L15.061659,10.0435397 L19.3283292,10.0435397 C19.7149286,10.0435397 20.0283292,10.3569404 20.0283292,10.7435397 C20.0283292,11.130139 19.7149286,11.4435397 19.3283292,11.4435397 L13.3283292,11.4435397 C12.9417299,11.4435397 12.6283292,11.130139 12.6283292,10.7435397 L12.6283292,4.74353971 C12.6283292,4.35694038 12.9417299,4.04353971 13.3283292,4.04353971 C13.7149286,4.04353971 14.0283292,4.35694038 14.0283292,4.74353971 L14.0283292,9.0976393 Z"/>
</svg>
