<svg xmlns="http://www.w3.org/2000/svg" width="24" height="24" viewBox="0 0 24 24">
  <g fill="none" fill-rule="evenodd" transform="translate(-356 -692)">
    <path fill="#555" fill-rule="nonzero" d="M12,24 C5.372583,24 0,18.627417 0,12 C0,5.372583 5.372583,0 12,0 C18.627417,0 24,5.372583 24,12 C24,18.627417 18.627417,24 12,24 Z M15.0070312,13.246875 C14.540625,13.246875 14.1632812,13.6242188 14.1632812,14.090625 C14.1632812,15.2835938 13.1929687,16.2539063 12,16.2539063 C10.8070312,16.2539063 9.83671875,15.2835938 9.83671875,14.090625 C9.83671875,13.6242188 9.459375,13.246875 8.99296875,13.246875 C8.5265625,13.246875 8.14921875,13.6242188 8.14921875,14.090625 C8.14921875,16.2140625 9.8765625,17.9414063 12,17.9414063 C14.1234375,17.9414063 15.8507812,16.2140625 15.8507812,14.090625 C15.8507812,13.6242188 15.4734375,13.246875 15.0070312,13.246875 Z M4.5515625,8.9625 C4.5515625,9.73915043 5.18116207,10.36875 5.9578125,10.36875 C6.73446293,10.36875 7.3640625,9.73915043 7.3640625,8.9625 C7.3640625,8.18584957 6.73446293,7.55625 5.9578125,7.55625 C5.18116207,7.55625 4.5515625,8.18584957 4.5515625,8.9625 Z M16.6289062,8.9625 C16.6289062,9.73915043 17.2585058,10.36875 18.0351562,10.36875 C18.8118067,10.36875 19.4414062,9.73915043 19.4414062,8.9625 C19.4414062,8.18584957 18.8118067,7.55625 18.0351562,7.55625 C17.2585058,7.55625 16.6289062,8.18584957 16.6289062,8.9625 Z" transform="translate(356 692)"/>
  </g>
</svg>
