<svg xmlns="http://www.w3.org/2000/svg" width="24" height="24" viewBox="0 0 24 24">
  <g fill="none" fill-rule="evenodd" transform="translate(-408 -696)">
    <path fill="#555" fill-rule="nonzero" d="M12,23 C5.92486775,23 1,18.0751322 1,12 C1,5.92486775 5.92486775,1 12,1 C18.0751322,1 23,5.92486775 23,12 C23,18.0751322 18.0751322,23 12,23 Z M12,21.4651163 C17.2274394,21.4651163 21.4651163,17.2274394 21.4651163,12 C21.4651163,6.77256062 17.2274394,2.53488372 12,2.53488372 C6.77256062,2.53488372 2.53488372,6.77256062 2.53488372,12 C2.53488372,17.2274394 6.77256062,21.4651163 12,21.4651163 Z M7.39534884,10.9767442 C6.54765597,10.9767442 5.86046512,10.2895533 5.86046512,9.44186047 C5.86046512,8.59416759 6.54765597,7.90697674 7.39534884,7.90697674 C8.24304171,7.90697674 8.93023256,8.59416759 8.93023256,9.44186047 C8.93023256,10.2895533 8.24304171,10.9767442 7.39534884,10.9767442 Z M16.6046512,10.9767442 C15.7569583,10.9767442 15.0697674,10.2895533 15.0697674,9.44186047 C15.0697674,8.59416759 15.7569583,7.90697674 16.6046512,7.90697674 C17.452344,7.90697674 18.1395349,8.59416759 18.1395349,9.44186047 C18.1395349,10.2895533 17.452344,10.9767442 16.6046512,10.9767442 Z M8.02861067,14.3777834 C7.97929952,13.9665155 8.27272344,13.5931424 8.68399134,13.5438313 C9.09525924,13.4945201 9.46863234,13.7879441 9.51794349,14.199212 C9.66756836,15.4471226 10.731402,16.3975158 12,16.3975158 C13.2624037,16.3975158 14.3228614,15.4561614 14.4800055,14.2158467 C14.5320689,13.8049181 14.907398,13.5140004 15.3183266,13.5660638 C15.7292551,13.6181272 16.0201728,13.9934563 15.9681095,14.4043848 C15.7162895,16.3919622 14.0202481,17.8975158 12,17.8975158 C9.96984164,17.8975158 8.26837526,16.3774829 8.02861067,14.3777834 Z" transform="translate(408 696)"/>
  </g>
</svg>
