<svg xmlns="http://www.w3.org/2000/svg" width="24" height="24" viewBox="0 0 24 24">
  <path fill="#555" d="M12,22 C6.4771525,22 2,17.5228475 2,12 C2,6.4771525 6.4771525,2 12,2 C17.5228475,2 22,6.4771525 22,12 C22,17.5228475 17.5228475,22 12,22 Z M12,20.6046512 C16.7522176,20.6046512 20.6046512,16.7522176 20.6046512,12 C20.6046512,7.24778239 16.7522176,3.39534884 12,3.39534884 C7.24778239,3.39534884 3.39534884,7.24778239 3.39534884,12 C3.39534884,16.7522176 7.24778239,20.6046512 12,20.6046512 Z M7.81395349,11.0697674 C7.0433236,11.0697674 6.41860465,10.4450485 6.41860465,9.6744186 C6.41860465,8.90378872 7.0433236,8.27906977 7.81395349,8.27906977 C8.58458337,8.27906977 9.20930233,8.90378872 9.20930233,9.6744186 C9.20930233,10.4450485 8.58458337,11.0697674 7.81395349,11.0697674 Z M16.1860465,11.0697674 C15.4154166,11.0697674 14.7906977,10.4450485 14.7906977,9.6744186 C14.7906977,8.90378872 15.4154166,8.27906977 16.1860465,8.27906977 C16.9566764,8.27906977 17.5813953,8.90378872 17.5813953,9.6744186 C17.5813953,10.4450485 16.9566764,11.0697674 16.1860465,11.0697674 Z M8.38964607,14.1616213 C8.34481775,13.7877414 8.61156677,13.4483113 8.98544668,13.403483 C9.35932659,13.3586547 9.69875667,13.6254037 9.74358499,13.9992836 C9.8796076,15.1337478 10.8467291,15.9977416 12,15.9977416 C13.1476397,15.9977416 14.1116922,15.1419649 14.2545505,14.014406 C14.3018808,13.6408346 14.6430891,13.376364 15.0166605,13.4236943 C15.3902319,13.4710247 15.6547026,13.812233 15.6073722,14.1858044 C15.378445,15.9926929 13.8365892,17.361378 12,17.361378 C10.1544015,17.361378 8.60761388,15.9795299 8.38964607,14.1616213 Z"/>
</svg>
