<svg xmlns="http://www.w3.org/2000/svg" width="20" height="20" viewBox="0 0 20 20">
  <path fill="#555" d="M10,0 C15.5228475,0 20,4.4771525 20,10 C20,15.5228475 15.5228475,20 10,20 C4.4771525,20 0,15.5228475 0,10 C0,4.4771525 4.4771525,0 10,0 Z M7.08636434,11.3988285 L6.98544668,11.403483 C6.61156677,11.4483113 6.34481775,11.7877414 6.38964607,12.1616213 C6.60761388,13.9795299 8.15440149,15.361378 10,15.361378 C11.8365892,15.361378 13.378445,13.9926929 13.6073722,12.1858044 C13.6547026,11.812233 13.3902319,11.4710247 13.0166605,11.4236943 C12.6430891,11.376364 12.3018808,11.6408346 12.2545505,12.014406 C12.1116922,13.1419649 11.1476397,13.9977416 10,13.9977416 C8.84672907,13.9977416 7.8796076,13.1337478 7.74358499,11.9992836 C7.69875667,11.6254037 7.35932659,11.3586547 6.98544668,11.403483 Z M5.81395349,6.27906977 C5.0433236,6.27906977 4.41860465,6.90378872 4.41860465,7.6744186 C4.41860465,8.44504849 5.0433236,9.06976744 5.81395349,9.06976744 C6.58458337,9.06976744 7.20930233,8.44504849 7.20930233,7.6744186 C7.20930233,6.90378872 6.58458337,6.27906977 5.81395349,6.27906977 Z M14.1860465,6.27906977 C13.4154166,6.27906977 12.7906977,6.90378872 12.7906977,7.6744186 C12.7906977,8.44504849 13.4154166,9.06976744 14.1860465,9.06976744 C14.9566764,9.06976744 15.5813953,8.44504849 15.5813953,7.6744186 C15.5813953,6.90378872 14.9566764,6.27906977 14.1860465,6.27906977 Z"/>
</svg>
