<svg xmlns="http://www.w3.org/2000/svg" width="24" height="24" viewBox="0 0 24 24">
  <path fill="#555" d="M5.90171373,14.9368 L2.42919518,11.1268653 L2.37050523,11.0528079 C1.99963515,10.5120907 1.89277492,9.94317829 2.11568324,9.40642547 C2.34237544,8.86056122 2.85256009,8.53650198 3.58774642,8.3916391 L8.13074565,7.67712689 L10.6745836,2.75173853 C10.9642952,2.27852043 11.3902634,2 11.9081171,2 C12.417911,2 12.8438669,2.26937239 13.1500547,2.73042302 L13.1994253,2.81811379 L15.4845909,7.68075027 L20.6528488,8.50816993 C21.3576818,8.63471961 21.8512788,9.01613004 21.9733041,9.64640299 C22.0822157,10.2089424 21.854545,10.7588348 21.3513925,11.3128568 L17.758473,14.9501655 L18.6181218,20.2268966 C18.7042376,20.8654222 18.534251,21.4082818 18.0693177,21.7497377 C17.5917078,22.1005035 16.9818552,22.068472 16.205838,21.7415478 L11.8263118,19.3865013 L7.50818399,21.7023838 C6.90128557,22.0345087 6.28802767,22.0564483 5.76804244,21.706455 C5.2475308,21.3561074 5.03763767,20.7807328 5.1241912,20.0792974 L5.90171373,14.9368 Z M7.35594273,14.4960062 L7.30712816,14.8188636 L6.48336519,20.26544 C6.4580919,20.4708831 6.48068131,20.5328069 6.53438741,20.5689556 C6.58861993,20.6054586 6.66037893,20.6028914 6.85439264,20.4967453 L11.8271707,17.8297334 L12.1517549,18.0042753 L16.7947827,20.5048029 C17.1119905,20.6369613 17.2569894,20.6445771 17.2569383,20.6446146 C17.2695637,20.6353423 17.2830046,20.5924182 17.2611903,20.4287346 L16.2922183,14.4826546 L16.5371948,14.2346515 L20.3549114,10.3706615 C20.5758781,10.1269443 20.639249,9.97388468 20.6262903,9.90695163 C20.6264453,9.9077521 20.6078868,9.89341164 20.4230841,9.86010626 L14.5512243,8.9201747 L11.9806774,3.45027142 C11.9321319,3.38118077 11.9155694,3.3713654 11.9081171,3.3713654 C11.9075139,3.3713654 11.9012195,3.37548103 11.8693897,3.42398249 L9.03104437,8.92376864 L8.68746017,8.97780675 L3.82753342,9.74162935 C3.52543813,9.80137641 3.40555001,9.87752697 3.38285339,9.93217939 C3.35814682,9.99167165 3.37201649,10.0783093 3.47787101,10.2411119 L7.35594273,14.4960062 Z"/>
</svg>
