<svg xmlns="http://www.w3.org/2000/svg" width="24" height="24" viewBox="0 0 24 24">
  <g fill="none" fill-rule="evenodd" transform="translate(-600 -696)">
    <path fill="#555" fill-rule="nonzero" d="M18.0683815,23.9895879 C17.7085377,23.9895879 17.375349,23.896295 17.0554878,23.7230369 L12.177605,21.0441996 C12.057657,20.9775618 11.9243815,20.9775618 11.8044336,21.0441996 L6.92655073,23.7230369 C6.60668955,23.896295 6.26017329,23.9895879 5.91365702,23.9895879 C5.28726222,23.9895879 4.70085008,23.7097093 4.28769606,23.21659 C3.8612145,22.7234707 3.68795637,22.0570933 3.79457676,21.3907158 L4.72750517,15.71318 C4.75416027,15.5532495 4.70085008,15.3799913 4.59422969,15.2600434 L0.635947689,11.2617787 C0.0495355419,10.662039 -0.15037769,9.78242082 0.116173286,8.96944035 C0.382724262,8.18311497 1.03577415,7.62335792 1.83542708,7.49008243 L7.28639454,6.6637744 C7.41967003,6.63711931 7.53961797,6.54382646 7.60625572,6.41055098 L10.0585247,1.25278959 C10.4183685,0.479791757 11.1647112,0 12.0043468,0 C12.8439824,0 13.5769976,0.479791757 13.9501689,1.25278959 L16.3891104,6.41055098 C16.4557481,6.54382646 16.5756961,6.63711931 16.7089716,6.6637744 L22.159939,7.49008243 C22.9595919,7.61003037 23.6259694,8.18311497 23.8791928,8.96944035 C24.1457438,9.78242082 23.9458306,10.662039 23.3594184,11.2617787 L19.414464,15.2866985 C19.3078436,15.3933189 19.2545334,15.566577 19.2811885,15.7398351 L20.2141169,21.4173709 C20.3207373,22.0704208 20.1474791,22.7367983 19.7209976,23.2432451 C19.294516,23.7097093 18.6947763,23.9895879 18.0683815,23.9895879 Z" transform="translate(600 696)"/>
  </g>
</svg>
