<svg xmlns="http://www.w3.org/2000/svg" width="24" height="24" viewBox="0 0 24 24">
  <g fill="none" fill-rule="evenodd" transform="translate(-552 -696)">
    <path fill="#555" fill-rule="nonzero" d="M5.2918851,15.23048 L1.4721147,11.0395519 L1.40755575,10.9580887 C0.999598661,10.3632997 0.882052409,9.73749612 1.12725156,9.14706801 C1.37661299,8.54661734 1.9378161,8.19015218 2.74652106,8.03080301 L7.74382022,7.24483957 L10.5420419,1.82691238 C10.8607247,1.30637247 11.3292898,1 11.8989288,1 C12.4597021,1 12.9282536,1.29630963 13.2650602,1.80346532 L13.3193678,1.89992517 L15.83305,7.2488253 L21.5181336,8.15898692 C22.29345,8.29819157 22.8364067,8.71774304 22.9706345,9.41104329 C23.0904372,10.0298367 22.8399995,10.6347182 22.2865318,11.2441425 L18.3343203,15.2451821 L19.279934,21.0495862 C19.3746613,21.7519645 19.1876761,22.34911 18.6762494,22.7247115 C18.1508786,23.1105538 17.4800408,23.0753192 16.6264218,22.7157026 L11.808943,20.1251514 L7.05900239,22.6726222 C6.39141413,23.0379596 5.71683044,23.0620932 5.14484669,22.6771005 C4.57228388,22.2917181 4.34140144,21.6588061 4.43661032,20.8872272 L5.2918851,15.23048 Z M6.89153701,14.7456069 L6.83784097,15.1007499 L5.93170171,21.091984 C5.90390109,21.3179715 5.92874944,21.3860876 5.98782615,21.4258511 C6.04748192,21.4660044 6.12641682,21.4631805 6.33983191,21.3464199 L11.8098878,18.4127067 L12.1669304,18.6047028 L17.274261,21.3552832 C17.6231895,21.5006574 17.7826884,21.5090348 17.7826321,21.5090761 C17.79652,21.4988765 17.811305,21.45166 17.7873093,21.271608 L16.7214402,14.7309201 L16.9909143,14.4581167 L21.1904025,10.2077276 C21.4334659,9.93963877 21.5031739,9.77127315 21.4889194,9.6976468 C21.4890898,9.6985273 21.4686755,9.68275281 21.2653925,9.64611689 L14.8063468,8.61219216 L11.9787452,2.59529856 C11.9253451,2.51929885 11.9071264,2.50850194 11.8989288,2.50850194 C11.8982653,2.50850194 11.8913415,2.51302913 11.8563287,2.56638074 L8.7341488,8.61614551 L8.35620619,8.67558743 L3.01028676,9.51579229 C2.67798194,9.58151405 2.54610501,9.66527967 2.52113872,9.72539733 C2.4939615,9.79083882 2.50921814,9.88614025 2.62565811,10.065223 L6.89153701,14.7456069 Z" transform="translate(552 696)"/>
  </g>
</svg>
