<svg xmlns="http://www.w3.org/2000/svg" width="24" height="24" viewBox="0 0 24 24">
  <g fill="none" fill-rule="evenodd" transform="translate(-600 -696)">
    <path fill="#555" fill-rule="nonzero" d="M11.8789254,20.2657907 L7.24718065,22.7477296 L7.13951145,22.7966867 C6.35283776,23.0942232 5.61093361,23.03403 5.04576415,22.5305779 C4.51534291,22.0580795 4.32326409,21.3799894 4.43316861,20.6000686 L5.20743861,15.2541083 L1.7094381,11.5779916 C1.10370042,10.9611744 0.867965471,10.2046894 1.07176085,9.41227925 C1.29754992,8.53435188 2.03905076,8.02879211 3.10789529,7.85953451 L7.75727723,7.1580473 L10.1917346,2.11431939 C10.569865,1.40270713 11.1603,0.980841223 11.9024431,1.0006693 C12.6288817,1.0200778 13.2033454,1.46479694 13.6544048,2.25792438 L16.009225,7.19262231 L21.2221013,7.91689721 C22.0504632,8.05987301 22.6610084,8.49127568 22.9050201,9.21070018 C23.1484444,9.92839287 22.9167931,10.6546988 22.2924474,11.3957215 L18.5081412,15.2567451 L19.3574805,20.5987606 C19.492628,21.5224111 19.3309362,22.2544963 18.7130661,22.6897121 C18.1568486,23.0815009 17.4608455,23.0815009 16.6601369,22.8060045 L16.5278076,22.7483435 L11.8789254,20.2657907 Z" transform="translate(600 696)"/>
  </g>
</svg>
