<svg xmlns="http://www.w3.org/2000/svg" width="24" height="24" viewBox="0 0 24 24">
  <g fill="none" fill-rule="evenodd" transform="translate(-552 -696)">
    <path fill="#555" fill-rule="nonzero" d="M18.0683815,23.9895879 C17.7085377,23.9895879 17.375349,23.896295 17.0554878,23.7230369 L12.177605,21.0441996 C12.057657,20.9775618 11.9243815,20.9775618 11.8044336,21.0441996 L6.92655073,23.7230369 C6.60668955,23.896295 6.26017329,23.9895879 5.91365702,23.9895879 C5.28726222,23.9895879 4.70085008,23.7097093 4.28769606,23.21659 C3.8612145,22.7234707 3.68795637,22.0570933 3.79457676,21.3907158 L4.72750517,15.71318 C4.75416027,15.5532495 4.70085008,15.3799913 4.59422969,15.2600434 L0.635947689,11.2617787 C0.0495355419,10.662039 -0.15037769,9.78242082 0.116173286,8.96944035 C0.382724262,8.18311497 1.03577415,7.62335792 1.83542708,7.49008243 L7.28639454,6.6637744 C7.41967003,6.63711931 7.53961797,6.54382646 7.60625572,6.41055098 L10.0585247,1.25278959 C10.4183685,0.479791757 11.1647112,0 12.0043468,0 C12.8439824,0 13.5769976,0.479791757 13.9501689,1.25278959 L16.3891104,6.41055098 C16.4557481,6.54382646 16.5756961,6.63711931 16.7089716,6.6637744 L22.159939,7.49008243 C22.9595919,7.61003037 23.6259694,8.18311497 23.8791928,8.96944035 C24.1457438,9.78242082 23.9458306,10.662039 23.3594184,11.2617787 L19.414464,15.2866985 C19.3078436,15.3933189 19.2545334,15.566577 19.2811885,15.7398351 L20.2141169,21.4173709 C20.3207373,22.0704208 20.1474791,22.7367983 19.7209976,23.2432451 C19.294516,23.7097093 18.6947763,23.9895879 18.0683815,23.9895879 Z M11.9910193,19.2716356 C12.3460185,19.2714107 12.6950088,19.3632503 13.003913,19.5381866 L17.8817958,22.2170239 C17.9484336,22.2570065 18.0017438,22.2703341 18.0683815,22.2703341 C18.1750019,22.2703341 18.2949499,22.2170239 18.3749152,22.1104035 C18.4415529,22.0304382 18.5215182,21.8971627 18.4815355,21.6972495 L17.5486071,16.0197137 C17.4286592,15.3133536 17.6552275,14.5803384 18.1616744,14.0738915 L22.1199564,10.0489718 C22.3198696,9.84905857 22.2532319,9.59583514 22.2399043,9.51586985 C22.2132492,9.43590456 22.1199564,9.23599132 21.893388,9.20933623 L16.4424206,8.3830282 C15.7360605,8.27640781 15.1229932,7.82327115 14.8164596,7.15689371 L12.3775182,1.98580477 C12.2708978,1.75923644 12.0976397,1.73258134 12.0043468,1.73258134 C11.911054,1.73258134 11.7377958,1.77256399 11.6311755,1.98580477 L9.17890647,7.14356616 C8.87237285,7.8099436 8.25930561,8.26308026 7.55294552,8.36970065 L2.10197806,9.19600868 C1.87540973,9.23599132 1.78211689,9.42257701 1.75546179,9.5025423 C1.72880669,9.56918004 1.66216895,9.83573102 1.87540973,10.0356443 L5.82036418,14.060564 C6.31348348,14.5670108 6.54005181,15.2866985 6.43343142,16.0063861 L5.500503,21.6839219 C5.46052036,21.8838351 5.54048565,22.0304382 5.60712339,22.1104035 C5.68708869,22.2036963 5.80703663,22.2703341 5.91365702,22.2703341 C5.98029476,22.2703341 6.03360496,22.2570065 6.1002427,22.2170239 L10.9781256,19.5381866 C11.2846592,19.3649284 11.644503,19.2716356 11.9910193,19.2716356 Z" transform="translate(552 696)"/>
  </g>
</svg>
