<svg xmlns="http://www.w3.org/2000/svg" width="24" height="24" viewBox="0 0 24 24">
  <path fill="#555" d="M11.8899321,19.5143551 L7.67925514,21.7706633 L7.58137404,21.8151697 C6.86621614,22.0856574 6.19175783,22.0309364 5.67796741,21.5732527 C5.19576628,21.1437087 5.02114918,20.5272631 5.12106237,19.8182442 L5.82494419,14.9582802 L2.64494373,11.616356 C2.09427311,11.0556131 1.87996861,10.3678994 2.06523714,9.6475266 C2.27049993,8.8494108 2.9445916,8.38981101 3.91626844,8.23594046 L8.1429793,7.59822482 L10.3561223,3.01301762 C10.6998772,2.36609739 11.2366364,1.98258293 11.9113119,2.00060846 C12.5717106,2.01825255 13.0939504,2.42254267 13.5040044,3.14356762 L15.64475,7.62965664 L20.3837285,8.28808837 C21.1367847,8.41806637 21.6918258,8.81025062 21.9136547,9.46427289 C22.1349495,10.1167208 21.9243574,10.776999 21.3567704,11.4506559 L17.916492,14.9606774 L18.6886186,19.8170551 C18.81148,20.6567374 18.6644875,21.3222694 18.1027873,21.7179201 C17.5971351,22.0740917 16.964405,22.0740917 16.2364881,21.8236405 L16.1161887,21.7712214 L11.8899321,19.5143551 Z"/>
</svg>
