<svg xmlns="http://www.w3.org/2000/svg" width="24" height="24" viewBox="0 0 24 24">
  <g fill="none" fill-rule="evenodd" transform="translate(-552 -360)">
    <path fill="#555" fill-rule="nonzero" d="M4.6406503,7.41731521 L21.2310723,7.41731521 C21.6557393,7.41731521 22,7.77161127 22,8.20865761 C22,8.64570394 21.6557393,9 21.2310723,9 L2.77047099,9 C2.08348802,9 1.74130392,8.1434821 2.22960926,7.64617392 L7.54885399,2.22885877 C7.850706,1.92144154 8.33755745,1.92406316 8.63626714,2.23471432 C8.93497682,2.54536548 8.93242946,3.04640892 8.63057745,3.35382615 L4.6406503,7.41731521 Z M19.3593497,16.5826848 L2.76892774,16.5826848 C2.34426068,16.5826848 2,16.2283887 2,15.7913424 C2,15.3542961 2.34426068,15 2.76892774,15 L21.229529,15 C21.916512,15 22.2586961,15.8565179 21.7703907,16.3538261 L16.451146,21.7711412 C16.149294,22.0785585 15.6624425,22.0759368 15.3637329,21.7652857 C15.0650232,21.4546345 15.0675705,20.9535911 15.3694226,20.6461739 L19.3593497,16.5826848 Z" transform="translate(552 360)"/>
  </g>
</svg>
