<svg xmlns="http://www.w3.org/2000/svg" width="24" height="24" viewBox="0 0 24 24">
  <path fill="#555" d="M21.2965178,7.50240698 C21.6829292,7.50240698 21.9961775,7.81581617 21.9961775,8.20242599 C21.9961775,8.58903581 21.6829292,8.902445 21.2965178,8.902445 L2.70106001,8.902445 C2.07996211,8.902445 1.76679582,8.15303716 2.20305927,7.7107278 L7.63025404,2.20832092 C7.90167207,1.93314147 8.34466238,1.93020523 8.61970059,2.20176264 C8.89473881,2.47332005 8.89767354,2.91653784 8.62625551,3.19171729 L4.37448841,7.50240698 L21.2965178,7.50240698 Z M2.7034822,16.497593 C2.3170708,16.497593 2.00382247,16.1841838 2.00382247,15.797574 C2.00382247,15.4109642 2.3170708,15.097555 2.7034822,15.097555 L21.29894,15.097555 C21.9200379,15.097555 22.2332042,15.8469628 21.7969407,16.2892722 L16.369746,21.7916791 C16.0983279,22.0668585 15.6553376,22.0697948 15.3802994,21.7982374 C15.1052612,21.52668 15.1023265,21.0834622 15.3737445,20.8082827 L19.6255116,16.497593 L2.7034822,16.497593 Z"/>
</svg>
