<svg xmlns="http://www.w3.org/2000/svg" width="24" height="24" viewBox="0 0 24 24">
  <g fill="none" fill-rule="evenodd" transform="translate(-600 -360)">
    <path fill="#555" d="M19.0531745,6.99719411 C19.0617108,6.99719411 19.0702472,6.99719411 19.0787836,6.99438822 C19.0901654,6.99438822 19.0987018,6.99158232 19.1100836,6.99158232 C19.1157745,6.99158232 19.1243109,6.98877643 19.1300018,6.98877643 C19.1413836,6.98597054 19.1527654,6.98597054 19.1613018,6.98316465 C19.1669927,6.98316465 19.1726836,6.98035875 19.1783745,6.98035875 C19.1897564,6.97755286 19.2011382,6.97474697 19.2096746,6.97194108 C19.2153655,6.97194108 19.2210564,6.96913518 19.2267473,6.96913518 C19.2381291,6.96632929 19.2466655,6.9635234 19.2580473,6.96071751 C19.2637382,6.95791161 19.2694291,6.95791161 19.27512,6.95510572 C19.2836564,6.95229983 19.2950382,6.94949394 19.3035746,6.94668804 C19.3092655,6.94388215 19.3178019,6.94107626 19.3234928,6.94107626 C19.3320292,6.93827037 19.3405655,6.93546448 19.3491019,6.93265858 C19.3576383,6.92985269 19.3633292,6.9270468 19.3718656,6.92424091 C19.3804019,6.92143501 19.3860928,6.91862912 19.3946292,6.91582323 C19.4031656,6.91301734 19.4117019,6.90740555 19.4202383,6.90459966 C19.4259292,6.90179377 19.4316201,6.89898787 19.4401565,6.89618198 C19.4486929,6.8905702 19.4572292,6.88776431 19.4657656,6.88215252 C19.4714565,6.87934663 19.4771474,6.87654074 19.4828383,6.87373484 C19.4913747,6.86812306 19.5027565,6.86251127 19.5112929,6.85689949 C19.5169838,6.8540936 19.5198293,6.8512877 19.5255202,6.84848181 C19.5340566,6.84287003 19.5454384,6.83725824 19.5539747,6.83164646 C19.5596657,6.82884057 19.5625111,6.82603467 19.568202,6.82322878 C19.5767384,6.817617 19.5852748,6.81200521 19.5938111,6.80358753 C19.599502,6.80078164 19.605193,6.79516986 19.6080384,6.79236396 C19.6165748,6.78675218 19.6251112,6.78114039 19.6308021,6.77272272 C19.636493,6.76711093 19.6450293,6.76149915 19.6507203,6.75588736 C19.6564112,6.75027558 19.6621021,6.74466379 19.667793,6.7418579 C19.6934021,6.71941076 19.7161657,6.69696362 19.7389294,6.67171059 C19.7446203,6.66609881 19.7503112,6.66048702 19.7531567,6.65487524 C19.7588476,6.64926345 19.7645385,6.64084578 19.7702294,6.63523399 C19.7759203,6.62681631 19.7816112,6.61839864 19.7901476,6.61278685 C19.7929931,6.60717507 19.798684,6.60156328 19.8015294,6.59875739 C19.8072203,6.59033971 19.8129113,6.58192204 19.8214476,6.57350436 C19.8242931,6.56789257 19.8271385,6.56508668 19.829984,6.5594749 C19.8356749,6.55105722 19.8413658,6.53983365 19.8470567,6.53141597 C19.8499022,6.52580419 19.8527476,6.5229983 19.8555931,6.51738651 C19.861284,6.50896883 19.8669749,6.49774527 19.8726658,6.48932759 C19.8755113,6.4837158 19.8783567,6.47810402 19.8812022,6.47249223 C19.8868931,6.46407456 19.8897386,6.45565688 19.8954295,6.4472392 C19.8982749,6.44162742 19.9011204,6.43601563 19.9039659,6.43040385 C19.9068113,6.42198617 19.9125022,6.41356849 19.9153477,6.40515082 C19.9181931,6.39673314 19.9210386,6.39112135 19.923884,6.38270368 C19.9267295,6.374286 19.929575,6.36867422 19.9324204,6.36025654 C19.9352659,6.35183886 19.9381113,6.34342118 19.9409568,6.33500351 C19.9438022,6.32939172 19.9466477,6.32097405 19.9466477,6.31536226 C19.9494932,6.30694458 19.9523386,6.29572101 19.9551841,6.28730334 C19.9580295,6.28169155 19.9580295,6.27607977 19.960875,6.27046798 C19.9637204,6.25924441 19.9665659,6.25082674 19.9694113,6.23960317 C19.9694113,6.23399138 19.9722568,6.2283796 19.9722568,6.22276781 C19.9751023,6.21154424 19.9779477,6.20032067 19.9779477,6.191903 C19.9779477,6.18629121 19.9807932,6.18067943 19.9807932,6.17506764 C19.9836386,6.16384407 19.9836386,6.1526205 19.9864841,6.14420283 C19.9864841,6.13859104 19.9893295,6.13017336 19.9893295,6.12456158 C19.9893295,6.11333801 19.992175,6.10492033 19.992175,6.09369676 C19.992175,6.08527909 19.992175,6.07686141 19.9950205,6.06844373 C19.9950205,6.06002605 19.9950205,6.05160838 19.9978659,6.04599659 C20.0007114,6.01232588 20.0007114,5.97865518 19.9978659,5.94498447 C19.9978659,5.93656679 19.9978659,5.92814911 19.9950205,5.92253733 C19.9950205,5.91411965 19.9950205,5.90570197 19.992175,5.8972843 C19.992175,5.88606073 19.9893295,5.87764305 19.9893295,5.86641948 C19.9893295,5.8608077 19.9864841,5.85239002 19.9864841,5.84677823 C19.9836386,5.83555466 19.9836386,5.8243311 19.9807932,5.81591342 C19.9807932,5.81030163 19.9779477,5.80468985 19.9779477,5.79907806 C19.9751023,5.78785449 19.9722568,5.77663092 19.9722568,5.76821325 C19.9722568,5.76260146 19.9694113,5.75698968 19.9694113,5.75137789 C19.9665659,5.74015432 19.9637204,5.73173665 19.960875,5.72051308 C19.9580295,5.71490129 19.9580295,5.70928951 19.9551841,5.70367772 C19.9523386,5.69526005 19.9494932,5.68403648 19.9466477,5.6756188 C19.9438022,5.67000701 19.9409568,5.66158934 19.9409568,5.65597755 C19.9381113,5.64755988 19.9352659,5.6391422 19.9324204,5.63072452 C19.929575,5.62230684 19.9267295,5.61669506 19.923884,5.60827738 C19.9210386,5.59985971 19.9181931,5.59424792 19.9153477,5.58583024 C19.9125022,5.57741257 19.9068113,5.56899489 19.9039659,5.56057721 C19.9011204,5.55496543 19.8982749,5.54935364 19.8954295,5.54374186 C19.8897386,5.53532418 19.8868931,5.5269065 19.8812022,5.51848883 C19.8783567,5.51287704 19.8755113,5.50726526 19.8726658,5.50165347 C19.8669749,5.4932358 19.861284,5.48201223 19.8555931,5.47359455 C19.8527476,5.46798276 19.8499022,5.46517687 19.8470567,5.45956509 C19.8413658,5.45114741 19.8356749,5.43992384 19.829984,5.43150616 C19.8271385,5.42589438 19.8242931,5.42308849 19.8214476,5.4174767 C19.8157567,5.40905902 19.8100658,5.40064135 19.8015294,5.39222367 C19.798684,5.38661188 19.7929931,5.3810001 19.7901476,5.37819421 C19.7844567,5.36977653 19.7787658,5.36135885 19.7702294,5.35574707 C19.7645385,5.35013528 19.7588476,5.34171761 19.7531567,5.33610582 C19.7474658,5.33049404 19.7417749,5.32488225 19.7360839,5.31927047 C19.7247021,5.3080469 19.7133203,5.29401744 19.7019385,5.28279387 L14.6540992,0.296723119 C14.2528899,-0.0989077062 13.6041259,-0.0989077062 13.205762,0.296723119 L13.205762,0.296723119 C12.8045527,0.692353943 12.8045527,1.3320974 13.205762,1.72492234 L16.5064912,4.97975749 L1.02436422,4.97975749 C0.458118442,4.97975749 0,5.43150616 0,5.98987875 L0,5.98987875 C0,6.54825133 0.458118442,7 1.02436422,7 L18.9791926,7 L18.9791926,7 L19.0304108,7 C19.0389472,7 19.0474835,7 19.0531745,6.99719411 L19.0531745,6.99719411 Z" transform="translate(602 368)"/>
  </g>
</svg>
