<svg xmlns="http://www.w3.org/2000/svg" width="20" height="20" viewBox="0 0 20 20">
  <path fill="#555" d="M19.29894,13.097555 C19.9200379,13.097555 20.2332042,13.8469628 19.7969407,14.2892722 L14.369746,19.7916791 C14.0983279,20.0668585 13.6553376,20.0697948 13.3802994,19.7982374 C13.1052612,19.52668 13.1023265,19.0834622 13.3737445,18.8082827 L17.6255116,14.497593 L0.703482198,14.497593 C0.317070803,14.497593 0.00382247492,14.1841838 0.00382247492,13.797574 C0.00382247492,13.4109642 0.317070803,13.097555 0.703482198,13.097555 L19.29894,13.097555 Z M6.61970059,0.201762638 C6.89473881,0.473320047 6.89767354,0.91653784 6.62625551,1.19171729 L2.37448841,5.50240698 L19.2965178,5.50240698 C19.6829292,5.50240698 19.9961775,5.81581617 19.9961775,6.20242599 C19.9961775,6.58903581 19.6829292,6.902445 19.2965178,6.902445 L0.701060011,6.902445 C0.0799621139,6.902445 -0.233204177,6.15303716 0.203059275,5.7107278 L5.63025404,0.208320918 C5.90167207,-0.0668585286 6.34466238,-0.0697947706 6.61970059,0.201762638 Z"/>
</svg>
