<svg xmlns="http://www.w3.org/2000/svg" width="24" height="24" viewBox="0 0 24 24">
  <g fill="none" fill-rule="evenodd" transform="translate(-624 -288)">
    <path fill="#555" d="M0.950078225,12.8124324 C0.941544588,12.8124324 0.933010952,12.8124324 0.924477315,12.8153169 C0.913099132,12.8153169 0.904565496,12.8182015 0.893187313,12.8182015 C0.887498222,12.8182015 0.878964585,12.821086 0.873275494,12.821086 C0.861897312,12.8239706 0.85051913,12.8239706 0.841985493,12.8268551 C0.836296402,12.8268551 0.83060731,12.8297397 0.824918219,12.8297397 C0.813540037,12.8326242 0.802161855,12.8355088 0.793628218,12.8383933 C0.787939127,12.8383933 0.782250036,12.8412779 0.776560944,12.8412779 C0.765182762,12.8441624 0.756649125,12.8470469 0.745270943,12.8499315 C0.739581852,12.852816 0.733892761,12.852816 0.728203669,12.8557006 C0.719670033,12.8585851 0.70829185,12.8614697 0.699758214,12.8643542 C0.694069122,12.8672388 0.685535486,12.8701233 0.679846395,12.8701233 C0.671312758,12.8730079 0.662779121,12.8758924 0.654245484,12.878777 C0.645711848,12.8816615 0.640022756,12.884546 0.63148912,12.8874306 C0.622955483,12.8903151 0.617266392,12.8931997 0.608732755,12.8960842 C0.600199118,12.8989688 0.591665481,12.9047379 0.583131845,12.9076224 C0.577442754,12.910507 0.571753662,12.9133915 0.563220026,12.9162761 C0.554686389,12.9220451 0.546152752,12.9249297 0.537619115,12.9306988 C0.531930024,12.9335833 0.526240933,12.9364679 0.520551842,12.9393524 C0.512018205,12.9451215 0.500640023,12.9508906 0.492106386,12.9566597 C0.486417295,12.9595442 0.483572749,12.9624288 0.477883658,12.9653133 C0.469350021,12.9710824 0.457971839,12.9768515 0.449438202,12.9826206 C0.443749111,12.9855052 0.440904565,12.9883897 0.435215474,12.9912742 C0.426681838,12.9970433 0.418148201,13.0028124 0.409614564,13.0114661 C0.403925473,13.0143506 0.398236382,13.0201197 0.395391836,13.0230043 C0.386858199,13.0287733 0.378324563,13.0345424 0.372635471,13.0431961 C0.36694638,13.0489652 0.358412744,13.0547343 0.352723652,13.0605034 C0.347034561,13.0662724 0.34134547,13.0720415 0.335656379,13.0749261 C0.310055469,13.0980025 0.287299104,13.1210788 0.264542739,13.1470397 C0.258853648,13.1528088 0.253164557,13.1585779 0.250320011,13.164347 C0.24463092,13.1701161 0.238941829,13.1787697 0.233252738,13.1845388 C0.227563647,13.1931925 0.221874556,13.2018461 0.213340919,13.2076152 C0.210496373,13.2133843 0.204807282,13.2191534 0.201962736,13.2220379 C0.196273645,13.2306916 0.190584554,13.2393452 0.182050917,13.2479988 C0.179206372,13.2537679 0.176361826,13.2566525 0.173517281,13.2624216 C0.167828189,13.2710752 0.162139098,13.2826134 0.156450007,13.291267 C0.153605462,13.2970361 0.150760916,13.2999207 0.14791637,13.3056898 C0.142227279,13.3143434 0.136538188,13.3258816 0.130849097,13.3345352 C0.128004551,13.3403043 0.125160006,13.3460734 0.12231546,13.3518425 C0.116626369,13.3604961 0.113781823,13.3691498 0.108092732,13.3778034 C0.105248187,13.3835725 0.102403641,13.3893416 0.0995590954,13.3951107 C0.0967145499,13.4037643 0.0910254587,13.412418 0.0881809131,13.4210716 C0.0853363675,13.4297252 0.0824918219,13.4354943 0.0796472763,13.444148 C0.0768027308,13.4528016 0.0739581852,13.4585707 0.0711136396,13.4672243 C0.068269094,13.475878 0.0654245484,13.4845316 0.0625800028,13.4931853 C0.0597354573,13.4989544 0.0568909117,13.507608 0.0568909117,13.5133771 C0.0540463661,13.5220307 0.0512018205,13.5335689 0.0483572749,13.5422225 C0.0455127293,13.5479916 0.0455127293,13.5537607 0.0426681838,13.5595298 C0.0398236382,13.571068 0.0369790926,13.5797216 0.034134547,13.5912598 C0.034134547,13.5970289 0.0312900014,13.602798 0.0312900014,13.6085671 C0.0284454558,13.6201053 0.0256009103,13.6316435 0.0256009103,13.6402971 C0.0256009103,13.6460662 0.0227563647,13.6518353 0.0227563647,13.6576044 C0.0199118191,13.6691426 0.0199118191,13.6806808 0.0170672735,13.6893344 C0.0170672735,13.6951035 0.0142227279,13.7037571 0.0142227279,13.7095262 C0.0142227279,13.7210644 0.0113781823,13.729718 0.0113781823,13.7412562 C0.0113781823,13.7499099 0.0113781823,13.7585635 0.00853363675,13.7672171 C0.00853363675,13.7758708 0.00853363675,13.7845244 0.00568909117,13.7902935 C0.00284454558,13.8249081 0.00284454558,13.8595226 0.00568909117,13.8941372 C0.00568909117,13.9027908 0.00568909117,13.9114444 0.00853363675,13.9172135 C0.00853363675,13.9258672 0.00853363675,13.9345208 0.0113781823,13.9431744 C0.0113781823,13.9547126 0.0142227279,13.9633663 0.0142227279,13.9749044 C0.0142227279,13.9806735 0.0170672735,13.9893272 0.0170672735,13.9950963 C0.0199118191,14.0066345 0.0199118191,14.0181726 0.0227563647,14.0268263 C0.0227563647,14.0325954 0.0256009103,14.0383645 0.0256009103,14.0441336 C0.0284454558,14.0556717 0.0312900014,14.0672099 0.0312900014,14.0758636 C0.0312900014,14.0816327 0.034134547,14.0874017 0.034134547,14.0931708 C0.0369790926,14.104709 0.0398236382,14.1133627 0.0426681838,14.1249008 C0.0455127293,14.1306699 0.0455127293,14.136439 0.0483572749,14.1422081 C0.0512018205,14.1508618 0.0540463661,14.1623999 0.0568909117,14.1710536 C0.0597354573,14.1768227 0.0625800028,14.1854763 0.0625800028,14.1912454 C0.0654245484,14.199899 0.068269094,14.2085527 0.0711136396,14.2172063 C0.0739581852,14.22586 0.0768027308,14.231629 0.0796472763,14.2402827 C0.0824918219,14.2489363 0.0853363675,14.2547054 0.0881809131,14.2633591 C0.0910254587,14.2720127 0.0967145499,14.2806663 0.0995590954,14.28932 C0.102403641,14.2950891 0.105248187,14.3008582 0.108092732,14.3066272 C0.113781823,14.3152809 0.116626369,14.3239345 0.12231546,14.3325882 C0.125160006,14.3383573 0.128004551,14.3441263 0.130849097,14.3498954 C0.136538188,14.3585491 0.142227279,14.3700873 0.14791637,14.3787409 C0.150760916,14.38451 0.153605462,14.3873945 0.156450007,14.3931636 C0.162139098,14.4018173 0.167828189,14.4133554 0.173517281,14.4220091 C0.176361826,14.4277782 0.179206372,14.4306627 0.182050917,14.4364318 C0.187740009,14.4450855 0.1934291,14.4537391 0.201962736,14.4623927 C0.204807282,14.4681618 0.210496373,14.4739309 0.213340919,14.4768155 C0.21903001,14.4854691 0.224719101,14.4941227 0.233252738,14.4998918 C0.238941829,14.5056609 0.24463092,14.5143146 0.250320011,14.5200837 C0.256009103,14.5258527 0.261698194,14.5316218 0.267387285,14.5373909 C0.278765467,14.5489291 0.29014365,14.5633518 0.301521832,14.57489 L5.35059024,19.6949593 C5.75167117,20.1016802 6.40022756,20.1016802 6.79846395,19.6949593 L6.79846395,19.6949593 C7.19954487,19.2882383 7.19954487,18.6305618 6.79846395,18.2267253 L3.49879107,14.8806519 L18.9759636,14.8806519 C19.5420282,14.8806519 20,14.41624 20,13.8422153 L20,13.8422153 C20,13.2681907 19.5420282,12.8037788 18.9759636,12.8037788 L1.02688096,12.8037788 L1.02688096,12.8037788 L0.975679135,12.8037788 C0.964300953,12.8095478 0.955767316,12.8095478 0.950078225,12.8124324 L0.950078225,12.8124324 Z M19.0470772,7.1933367 C19.0556109,7.1933367 19.0641445,7.1933367 19.0726781,7.19045215 C19.0840563,7.19045215 19.09259,7.18756761 19.1039681,7.18756761 C19.1096572,7.18756761 19.1181909,7.18468306 19.12388,7.18468306 C19.1352581,7.18179851 19.1466363,7.18179851 19.15517,7.17891397 C19.1608591,7.17891397 19.1665481,7.17602942 19.1722372,7.17602942 C19.1836154,7.17314488 19.1949936,7.17026033 19.2035272,7.16737578 C19.2092163,7.16737578 19.2149054,7.16449124 19.2205945,7.16449124 C19.2319727,7.16160669 19.2405063,7.15872215 19.2518845,7.1558376 C19.2575736,7.15295305 19.2632627,7.15295305 19.2689518,7.15006851 C19.2774854,7.14718396 19.2888636,7.14429942 19.2973972,7.14141487 C19.3030863,7.13853032 19.31162,7.13564578 19.3173091,7.13564578 C19.3258427,7.13276123 19.3343763,7.12987669 19.34291,7.12699214 C19.3514436,7.12410759 19.3571327,7.12122305 19.3656663,7.1183385 C19.3742,7.11545396 19.3798891,7.11256941 19.3884227,7.10968486 C19.3969563,7.10680032 19.40549,7.10103123 19.4140236,7.09814668 C19.4197127,7.09526213 19.4254018,7.09237759 19.4339354,7.08949304 C19.4424691,7.08372395 19.4510027,7.0808394 19.4595363,7.07507031 C19.4652254,7.07218576 19.4709145,7.06930122 19.4766036,7.06641667 C19.4851372,7.06064758 19.4965154,7.05487849 19.5050491,7.0491094 C19.5107382,7.04622485 19.5135827,7.0433403 19.5192718,7.04045576 C19.5278054,7.03468667 19.5391836,7.02891757 19.5477173,7.02314848 C19.5534063,7.02026394 19.5562509,7.01737939 19.56194,7.01449484 C19.5704736,7.00872575 19.5790073,7.00295666 19.5875409,6.99430302 C19.59323,6.99141848 19.5989191,6.98564938 19.6017636,6.98276484 C19.6102973,6.97699575 19.6188309,6.97122665 19.62452,6.96257302 C19.6302091,6.95680392 19.6387427,6.95103483 19.6444318,6.94526574 C19.6501209,6.93949665 19.65581,6.93372755 19.6614991,6.93084301 C19.6871,6.90776664 19.7098564,6.88469027 19.7326127,6.85872936 C19.7383018,6.85296027 19.7439909,6.84719117 19.7468354,6.84142208 C19.7525245,6.83565299 19.7582136,6.82699935 19.7639027,6.82123026 C19.7695918,6.81257662 19.7752809,6.80392298 19.7838145,6.79815389 C19.7866591,6.7923848 19.7923482,6.78661571 19.7951927,6.78373116 C19.8008818,6.77507752 19.8065709,6.76642388 19.8151045,6.75777025 C19.8179491,6.75200115 19.8207936,6.74911661 19.8236382,6.74334752 C19.8293273,6.73469388 19.8350164,6.72315569 19.8407054,6.71450206 C19.84355,6.70873296 19.8463945,6.70584842 19.8492391,6.70007933 C19.8549282,6.69142569 19.8606173,6.6798875 19.8663064,6.67123386 C19.8691509,6.66546477 19.8719954,6.65969568 19.87484,6.65392659 C19.8805291,6.64527295 19.8833736,6.63661931 19.8890627,6.62796567 C19.8919073,6.62219658 19.8947518,6.61642749 19.8975964,6.6106584 C19.9004409,6.60200476 19.90613,6.59335112 19.9089745,6.58469748 C19.9118191,6.57604385 19.9146636,6.57027475 19.9175082,6.56162111 C19.9203527,6.55296748 19.9231973,6.54719838 19.9260418,6.53854475 C19.9288864,6.52989111 19.9317309,6.52123747 19.9345755,6.51258383 C19.93742,6.50681474 19.9402645,6.4981611 19.9402645,6.49239201 C19.9431091,6.48373837 19.9459536,6.47220019 19.9487982,6.46354655 C19.9516427,6.45777746 19.9516427,6.45200837 19.9544873,6.44623927 C19.9573318,6.43470109 19.9601764,6.42604745 19.9630209,6.41450927 C19.9630209,6.40874017 19.9658655,6.40297108 19.9658655,6.39720199 C19.96871,6.38566381 19.9715545,6.37412562 19.9715545,6.36547198 C19.9715545,6.35970289 19.9743991,6.3539338 19.9743991,6.34816471 C19.9772436,6.33662652 19.9772436,6.32508834 19.9800882,6.3164347 C19.9800882,6.31066561 19.9829327,6.30201197 19.9829327,6.29624288 C19.9829327,6.28470469 19.9857773,6.27605106 19.9857773,6.26451287 C19.9857773,6.25585923 19.9857773,6.2472056 19.9886218,6.23855196 C19.9886218,6.22989832 19.9886218,6.22124468 19.9914664,6.21547559 C19.9943109,6.18086104 19.9943109,6.14624648 19.9914664,6.11163193 C19.9914664,6.10297829 19.9914664,6.09432466 19.9886218,6.08855556 C19.9886218,6.07990193 19.9886218,6.07124829 19.9857773,6.06259465 C19.9857773,6.05105646 19.9829327,6.04240283 19.9829327,6.03086464 C19.9829327,6.02509555 19.9800882,6.01644191 19.9800882,6.01067282 C19.9772436,5.99913464 19.9772436,5.98759645 19.9743991,5.97894281 C19.9743991,5.97317372 19.9715545,5.96740463 19.9715545,5.96163554 C19.96871,5.95009735 19.9658655,5.93855917 19.9658655,5.92990553 C19.9658655,5.92413644 19.9630209,5.91836735 19.9630209,5.91259825 C19.9601764,5.90106007 19.9573318,5.89240643 19.9544873,5.88086825 C19.9516427,5.87509916 19.9516427,5.86933006 19.9487982,5.86356097 C19.9459536,5.85490733 19.9431091,5.84336915 19.9402645,5.83471551 C19.93742,5.82894642 19.9345755,5.82029278 19.9345755,5.81452369 C19.9317309,5.80587005 19.9288864,5.79721641 19.9260418,5.78856277 C19.9231973,5.77990914 19.9203527,5.77414004 19.9175082,5.76548641 C19.9146636,5.75683277 19.9118191,5.75106368 19.9089745,5.74241004 C19.90613,5.7337564 19.9004409,5.72510276 19.8975964,5.71644912 C19.8947518,5.71068003 19.8919073,5.70491094 19.8890627,5.69914185 C19.8833736,5.69048821 19.8805291,5.68183457 19.87484,5.67318093 C19.8719954,5.66741184 19.8691509,5.66164275 19.8663064,5.65587366 C19.8606173,5.64722002 19.8549282,5.63568183 19.8492391,5.6270282 C19.8463945,5.6212591 19.84355,5.61837456 19.8407054,5.61260547 C19.8350164,5.60395183 19.8293273,5.59241364 19.8236382,5.58376001 C19.8207936,5.57799091 19.8179491,5.57510637 19.8151045,5.56933728 C19.8094154,5.56068364 19.8037264,5.55203 19.7951927,5.54337636 C19.7923482,5.53760727 19.7866591,5.53183818 19.7838145,5.52895363 C19.7781254,5.52029999 19.7724364,5.51164635 19.7639027,5.50587726 C19.7582136,5.50010817 19.7525245,5.49145453 19.7468354,5.48568544 C19.7411464,5.47991635 19.7354573,5.47414726 19.7297682,5.46837816 C19.71839,5.45683998 19.7070118,5.44241725 19.6956336,5.43087907 L14.6494098,0.305040744 C14.2483288,-0.101680248 13.5997724,-0.101680248 13.2015361,0.305040744 L13.2015361,0.305040744 C12.8004551,0.711761736 12.8004551,1.36943823 13.2015361,1.77327468 L16.5012089,5.11934809 L1.02403641,5.11934809 C0.457971839,5.11934809 0,5.58376001 0,6.15778467 L0,6.15778467 C0,6.73180933 0.457971839,7.19622124 1.02403641,7.19622124 L18.973119,7.19622124 L18.973119,7.19622124 L19.0243209,7.19622124 C19.0328545,7.19622124 19.0413881,7.19622124 19.0470772,7.1933367 L19.0470772,7.1933367 Z" transform="matrix(1 0 0 -1 626 311)"/>
  </g>
</svg>
