<svg xmlns="http://www.w3.org/2000/svg" width="24" height="24" viewBox="0 0 24 24">
  <g fill="none" fill-rule="evenodd" transform="translate(-360 -1032)">
    <path fill="#555" fill-rule="nonzero" d="M2.5,7.06641963 L2.5,20.5 L21.5,20.5 L21.5,7.06641963 L2.5,7.06641963 Z M2,3 L22,3 C22.5522847,3 23,3.44771525 23,4 L23,21 C23,21.5522847 22.5522847,22 22,22 L2,22 C1.44771525,22 1,21.5522847 1,21 L1,4 C1,3.44771525 1.44771525,3 2,3 Z M7.75,4.96596095 C7.75,4.55174738 8.08578644,4.21596095 8.5,4.21596095 C8.91421356,4.21596095 9.25,4.55174738 9.25,4.96596095 L9.25,20.5 C9.25,20.9142136 8.91421356,21.25 8.5,21.25 C8.08578644,21.25 7.75,20.9142136 7.75,20.5 L7.75,4.96596095 Z M16.1561119,12.0830764 L16.1561119,15.5044607 L21.6585268,15.5044607 C22.0727404,15.5044607 22.4085268,15.8402471 22.4085268,16.2544607 C22.4085268,16.6686743 22.0727404,17.0044607 21.6585268,17.0044607 L16.1561119,17.0044607 L16.1561119,20.5340391 C16.1561119,20.9482526 15.8203254,21.2840391 15.4061119,21.2840391 C14.9918983,21.2840391 14.6561119,20.9482526 14.6561119,20.5340391 L14.6561119,17.0044607 L2.10082792,17.0044607 C1.68661436,17.0044607 1.35082792,16.6686743 1.35082792,16.2544607 C1.35082792,15.8402471 1.68661436,15.5044607 2.10082792,15.5044607 L14.6561119,15.5044607 L14.6561119,12.0830764 L2,12.0830764 C1.58578644,12.0830764 1.25,11.74729 1.25,11.3330764 C1.25,10.9188628 1.58578644,10.5830764 2,10.5830764 L14.6561119,10.5830764 L14.6561119,5 C14.6561119,4.58578644 14.9918983,4.25 15.4061119,4.25 C15.8203254,4.25 16.1561119,4.58578644 16.1561119,5 L16.1561119,10.5830764 L21.5576989,10.5830764 C21.9719125,10.5830764 22.3076989,10.9188628 22.3076989,11.3330764 C22.3076989,11.74729 21.9719125,12.0830764 21.5576989,12.0830764 L16.1561119,12.0830764 Z" transform="translate(360 1032)"/>
  </g>
</svg>
