<svg xmlns="http://www.w3.org/2000/svg" width="24" height="24" viewBox="0 0 24 24">
  <g fill="none" fill-rule="evenodd" transform="translate(-264 -1032)">
    <path fill="#555" fill-rule="nonzero" d="M11.0504269,0.0124375116 L20.5384255,0.0124375116 C21.634564,0.0124375116 22,0.373069573 22,1.44236093 L22,17.557667 C22,18.6395074 21.634564,19 20.5510569,19 L1.41121828,19 C0.403132558,19 0,18.6146045 0,17.6197987 L0,1.34300027 C0,0.385507085 0.403132558,0.0124375116 1.38598364,0 C4.6117223,0.0124375116 7.82480126,0.0124375116 11.0504269,0.0124375116 Z M6.90493788,13.9391319 L1.43645292,13.9391319 L1.43645292,17.5950074 L6.90493788,17.5950074 L6.90493788,13.9391319 L6.90493788,13.9391319 Z M13.7216817,17.6198266 L13.7216817,13.9516252 L8.29094977,13.9516252 L8.29094977,17.6198266 L13.7216817,17.6198266 Z M15.0950339,17.5825699 L20.5636601,17.5825699 L20.5636601,13.9391319 L15.0950339,13.9391319 L15.0950339,17.5825699 L15.0950339,17.5825699 Z M1.44905611,9.02756977 L1.44905611,12.6584308 L6.89233469,12.6584308 L6.89233469,9.02756977 L1.44905611,9.02756977 L1.44905611,9.02756977 Z M15.0950339,12.6957712 C16.8716882,12.6957712 18.597958,12.6957712 20.3115115,12.6833337 C20.3997339,12.6833337 20.576122,12.5217018 20.576122,12.4346671 C20.5887252,11.3031045 20.5887252,10.1715699 20.5887252,9.03992362 L15.0825437,9.03992362 C15.0950339,10.2709305 15.0950339,11.4398335 15.0950339,12.6957712 Z M8.26579991,12.6584308 L13.7342849,12.6584308 L13.7342849,9.03992362 L8.26579991,9.03992362 L8.26579991,12.6584308 L8.26579991,12.6584308 Z M6.89233469,7.77163208 L6.89233469,4.12833357 L1.41121828,4.12833357 C1.41121828,5.25986826 1.39861509,6.35406252 1.42382147,7.43593082 C1.42382147,7.54786842 1.65056587,7.75919457 1.77662604,7.75919457 C3.45245481,7.78406959 5.15351822,7.77163208 6.89233469,7.77163208 L6.89233469,7.77163208 Z M8.27829007,7.7219657 L13.7216817,7.7219657 L13.7216817,4.11586817 L8.27829007,4.11586817 L8.27829007,7.7219657 L8.27829007,7.7219657 Z M20.5510569,7.74672917 L20.5510569,4.11586817 L15.1076653,4.11586817 L15.1076653,7.74672917 L20.5510569,7.74672917 Z" transform="translate(265 1035)"/>
  </g>
</svg>
