<svg xmlns="http://www.w3.org/2000/svg" width="24" height="24" viewBox="0 0 24 24">
  <path fill="#555" d="M3.36363636,7.63837546 L3.36363636,19.6578947 L20.6363636,19.6578947 L20.6363636,7.63837546 L3.36363636,7.63837546 Z M2.90909091,4 L21.0909091,4 C21.5929861,4 22,4.40058733 22,4.89473684 L22,20.1052632 C22,20.5994127 21.5929861,21 21.0909091,21 L2.90909091,21 C2.40701386,21 2,20.5994127 2,20.1052632 L2,4.89473684 C2,4.40058733 2.40701386,4 2.90909091,4 Z M8.13636364,5.75901769 C8.13636364,5.38840555 8.44162403,5.08796506 8.81818182,5.08796506 C9.1947396,5.08796506 9.5,5.38840555 9.5,5.75901769 L9.5,19.6578947 C9.5,20.0285069 9.1947396,20.3289474 8.81818182,20.3289474 C8.44162403,20.3289474 8.13636364,20.0285069 8.13636364,19.6578947 L8.13636364,5.75901769 Z M15.7782835,12.1269631 L15.7782835,15.1882017 L20.7804789,15.1882017 C21.1570367,15.1882017 21.4622971,15.4886422 21.4622971,15.8592543 C21.4622971,16.2298664 21.1570367,16.5303069 20.7804789,16.5303069 L15.7782835,16.5303069 L15.7782835,19.6883507 C15.7782835,20.0589629 15.4730231,20.3594034 15.0964653,20.3594034 C14.7199075,20.3594034 14.4146471,20.0589629 14.4146471,19.6883507 L14.4146471,16.5303069 L3.00075266,16.5303069 C2.62419487,16.5303069 2.31893447,16.2298664 2.31893447,15.8592543 C2.31893447,15.4886422 2.62419487,15.1882017 3.00075266,15.1882017 L14.4146471,15.1882017 L14.4146471,12.1269631 L2.90909091,12.1269631 C2.53253313,12.1269631 2.22727273,11.8265226 2.22727273,11.4559105 C2.22727273,11.0852983 2.53253313,10.7848578 2.90909091,10.7848578 L14.4146471,10.7848578 L14.4146471,5.78947368 C14.4146471,5.41886155 14.7199075,5.11842105 15.0964653,5.11842105 C15.4730231,5.11842105 15.7782835,5.41886155 15.7782835,5.78947368 L15.7782835,10.7848578 L20.6888172,10.7848578 C21.065375,10.7848578 21.3706354,11.0852983 21.3706354,11.4559105 C21.3706354,11.8265226 21.065375,12.1269631 20.6888172,12.1269631 L15.7782835,12.1269631 Z"/>
</svg>
