<svg xmlns="http://www.w3.org/2000/svg" width="24" height="24" viewBox="0 0 24 24">
  <g fill="none" fill-rule="evenodd" transform="translate(-600 -888)">
    <path fill="#555" fill-rule="nonzero" d="M22.9714286,10.2857143 L14.2285714,1.37142857 L13.8857143,1.02857143 C13.3714286,0.514285714 13.0285714,0.171428571 12.1714286,0 L1.54285714,0 C1.2,0 0.685714286,0.171428571 0.514285714,0.514285714 C0.171428571,0.685714286 0,1.2 0,1.54285714 L0.171428571,12.1714286 C0.171428571,12.8571429 0.342857143,13.0285714 0.857142857,13.3714286 L10.2857143,22.9714286 C10.9714286,23.6571429 11.8285714,24 12.6857143,24 C13.5428571,24 14.4,23.6571429 15.0857143,22.9714286 L23.1428571,14.9142857 C23.6571429,14.4 24,13.5428571 24,12.6857143 C24,11.6571429 23.6571429,10.8 22.9714286,10.2857143 Z M21.9428571,13.7142857 L13.7142857,21.7714286 C13.3714286,22.1142857 13.0285714,22.2857143 12.6857143,22.2857143 C12.3428571,22.2857143 11.8285714,22.1142857 11.4857143,21.7714286 L2.4,12.5142857 C1.88571429,12.1714286 1.88571429,11.8285714 1.88571429,11.4857143 L1.71428571,2.4 C1.71428571,2.22857143 1.71428571,2.05714286 1.88571429,1.88571429 C2.05714286,1.71428571 2.22857143,1.71428571 2.4,1.71428571 L11.4857143,1.88571429 C11.8285714,1.88571429 12.1714286,1.88571429 12.6857143,2.22857143 L21.9428571,11.4857143 C22.4571429,12.1714286 22.4571429,13.0285714 21.9428571,13.7142857 Z M5.31428571,5.31428571 C4.62857143,5.82857143 4.28571429,6.68571429 4.45714286,7.71428571 C4.45714286,8.57142857 4.8,9.42857143 5.48571429,10.1142857 C6.17142857,10.8 7.02857143,11.1428571 7.88571429,11.1428571 C8.74285714,11.1428571 9.6,10.8 10.2857143,10.1142857 C11.6571429,8.74285714 11.4857143,6.68571429 10.2857143,5.31428571 C8.74285714,3.94285714 6.68571429,3.94285714 5.31428571,5.31428571 L5.31428571,5.31428571 Z M9.25714286,7.71428571 C9.25714286,8.05714286 9.08571429,8.57142857 8.74285714,8.74285714 C8.22857143,9.42857143 7.37142857,9.42857143 6.68571429,8.74285714 C6,8.05714286 6,7.2 6.68571429,6.51428571 C7.02857143,6.17142857 7.37142857,6 7.71428571,6 C8.05714286,6 8.57142857,6.17142857 8.91428571,6.51428571 C9.08571429,6.85714286 9.25714286,7.37142857 9.25714286,7.71428571 Z" transform="translate(600 888)"/>
  </g>
</svg>
