<svg xmlns="http://www.w3.org/2000/svg" width="24" height="24" viewBox="0 0 24 24">
  <path fill="#555" d="M2.31211539,12.7551198 C2.18756156,12.6296724 2.11666351,12.4608505 2.11436548,12.2842393 L2,3.4733236 C2.00673232,3.04433781 2.1263729,2.68084662 2.39249746,2.41318463 C2.66603478,2.13806705 3.05459295,2.02236816 3.58823307,2 L12.3680419,2 C12.5498787,2 12.7242015,2.07241862 12.8523536,2.2011968 L21.2012145,10.5910645 C21.7601918,11.1773 22.0381116,11.8395088 21.9957947,12.5491487 C21.9561893,13.2133202 21.692122,13.8233895 21.1886089,14.3950955 L14.1151532,21.4315469 L14.0000892,21.5235714 C13.3616982,21.9295813 12.7409201,22.0881735 12.1508458,21.9524881 C11.6353684,21.833956 11.0956098,21.5157043 10.4725696,20.9741189 L2.31211539,12.7551198 Z M3.47600132,11.9912845 L11.4045125,19.9793885 C11.8360043,20.3526757 12.1940156,20.5637658 12.4573204,20.6243117 C12.6352857,20.6652342 12.881419,20.6072716 13.2067005,20.4111199 L20.1931122,13.4634648 C20.4708327,13.1468117 20.6118304,12.8210676 20.6328749,12.4681584 C20.651208,12.1607175 20.5240629,11.8577645 20.2224257,11.5411927 L12.0839283,3.3629367 L3.61768408,3.36232283 C3.42444424,3.37065267 3.3388621,3.39613601 3.36154772,3.37331934 C3.37682057,3.35795825 3.36683442,3.38829809 3.36519119,3.47514745 L3.47600132,11.9912845 Z M8.47348527,11.1175663 C6.83970521,11.1175663 5.51526478,9.79542998 5.51526478,8.16449217 C5.51526478,6.53355435 6.83970521,5.21141802 8.47348527,5.21141802 C10.1072653,5.21141802 11.4317058,6.53355435 11.4317058,8.16449217 C11.4317058,9.79542998 10.1072653,11.1175663 8.47348527,11.1175663 Z M8.47348527,9.75460901 C9.35321299,9.75460901 10.0663732,9.04268945 10.0663732,8.16449217 C10.0663732,7.28629488 9.35321299,6.57437532 8.47348527,6.57437532 C7.59375754,6.57437532 6.88059731,7.28629488 6.88059731,8.16449217 C6.88059731,9.04268945 7.59375754,9.75460901 8.47348527,9.75460901 Z"/>
</svg>
