<svg xmlns="http://www.w3.org/2000/svg" width="24" height="24" viewBox="0 0 24 24">
  <path fill="#555" d="M2.31211539,12.7551198 C2.18756156,12.6296724 2.11666351,12.4608505 2.11436548,12.2842393 L2,3.4733236 C2.00673232,3.04433781 2.1263729,2.68084662 2.39249746,2.41318463 C2.66603478,2.13806705 3.05459295,2.02236816 3.58823307,2 L12.3680419,2 C12.5498787,2 12.7242015,2.07241862 12.8523536,2.2011968 L21.2012145,10.5910645 C21.7601918,11.1773 22.0381116,11.8395088 21.9957947,12.5491487 C21.9561893,13.2133202 21.692122,13.8233895 21.1886089,14.3950955 L14.1151532,21.4315469 L14.0000892,21.5235714 C13.3616982,21.9295813 12.7409201,22.0881735 12.1508458,21.9524881 C11.6353684,21.833956 11.0956098,21.5157043 10.4725696,20.9741189 L2.31211539,12.7551198 Z M8.47348527,9.75460901 C9.35321299,9.75460901 10.0663732,9.04268945 10.0663732,8.16449217 C10.0663732,7.28629488 9.35321299,6.57437532 8.47348527,6.57437532 C7.59375754,6.57437532 6.88059731,7.28629488 6.88059731,8.16449217 C6.88059731,9.04268945 7.59375754,9.75460901 8.47348527,9.75460901 Z"/>
</svg>
