<svg xmlns="http://www.w3.org/2000/svg" width="24" height="24" viewBox="0 0 24 24">
  <g fill="none" fill-rule="evenodd" transform="translate(-720 -816)">
    <path fill="#555" fill-rule="nonzero" d="M23.1987481,11.6221276 L13.6184892,1.87855573 C12.6027481,0.845485499 10.6040785,0.00706409413 9.15440883,0.00591359246 L1.74049811,5.48983054e-07 C0.793730257,-0.000748614897 0.0237213281,0.76535172 0.0209891853,1.71114436 L1.59709826e-05,8.94565941 C-0.00418938616,10.3937397 0.822632042,12.398636 1.84678383,13.4236795 L11.6110606,23.196442 C12.6353195,24.2215925 14.2964356,24.2223417 15.3215249,23.1983684 L23.1818463,15.3468099 C24.2068553,14.3228902 24.214516,12.6552514 23.1987481,11.6221276 Z M7.53864097,7.54204737 C6.59723026,8.48243533 5.07081954,8.48243533 4.12938204,7.54204737 C3.18794454,6.60165941 3.18794454,5.07697714 4.12938204,4.13658918 C5.07081954,3.19620122 6.59720347,3.19620122 7.53864097,4.13658918 C8.48007847,5.07697714 8.48007847,6.60165941 7.53864097,7.54204737 Z" transform="translate(720 816)"/>
  </g>
</svg>
