<svg xmlns="http://www.w3.org/2000/svg" width="24" height="24" viewBox="0 0 24 24">
  <g fill="none" fill-rule="evenodd" transform="translate(-648 -888)">
    <path fill="#555" fill-rule="nonzero" d="M1.34332693,12.8306318 C1.20631772,12.6926396 1.12832986,12.5069356 1.12580203,12.3126633 L1,2.62065596 C1.00740556,2.14877159 1.13901019,1.74893128 1.4317472,1.45450309 C1.73263826,1.15187375 2.16005225,1.02460498 2.74705637,1 L12.404846,1 C12.6048666,1 12.7966217,1.07966049 12.937589,1.22131648 L22.121336,10.450171 C22.736211,11.09503 23.0419227,11.8234597 22.9953742,12.6040635 C22.9518082,13.3346522 22.6613342,14.0057285 22.1074698,14.634605 L14.3266685,22.3747016 L14.2000982,22.4759285 C13.497868,22.9225394 12.8150121,23.0969908 12.1659304,22.9477369 C11.5989052,22.8173516 11.0051708,22.4672748 10.3198266,21.8715308 L1.34332693,12.8306318 Z M8.12083379,9.53006991 C9.08853429,9.53006991 9.87301054,8.7469584 9.87301054,7.78094138 C9.87301054,6.81492437 9.08853429,6.03181285 8.12083379,6.03181285 C7.1531333,6.03181285 6.36865705,6.81492437 6.36865705,7.78094138 C6.36865705,8.7469584 7.1531333,9.53006991 8.12083379,9.53006991 Z" transform="translate(648 888)"/>
  </g>
</svg>
