<svg xmlns="http://www.w3.org/2000/svg" width="24" height="24" viewBox="0 0 24 24">
  <g fill="none" fill-rule="evenodd" transform="translate(-740 -884)">
    <path fill="#555" fill-rule="nonzero" d="M23.53125,11.0545024 L13.0148438,0.319905213 C12.815625,0.116113744 12.54375,0 12.2554688,0 L8.0296875,3.36750112e-16 L5.86640625,3.36750112e-16 L1.640625,3.36750112e-16 C0.7359375,3.36750112e-16 0,0.734597156 0,1.63981043 L0,8.26540284 C0,8.54739336 0.11015625,8.81516588 0.309375,9.01658768 L10.8140625,19.5118483 C11.1351563,19.8317536 11.5546875,19.992891 11.9742188,19.992891 C12.39375,19.992891 12.8132812,19.8317536 13.134375,19.5118483 L14.0859375,18.5592417 L15.0375,19.5118483 C15.3585938,19.8317536 15.778125,19.992891 16.1976563,19.992891 C16.6171875,19.992891 17.0367188,19.8317536 17.3578125,19.5118483 L23.5195312,13.3601896 C24.1546875,12.7251185 24.159375,11.6966825 23.53125,11.0545024 Z M13.021875,17.4952607 L12.0820313,18.4336493 C12.0539063,18.4620853 12.01875,18.4763033 11.9765625,18.4763033 C11.934375,18.4763033 11.8992188,18.4620853 11.8710938,18.4336493 L1.5,8.07345972 L1.5,1.63744076 C1.5,1.57109005 1.565625,1.51421801 1.640625,1.51421801 L4.23046875,1.51421801 L5.86640625,1.51421801 L7.8515625,1.51421801 L18.2414063,12.1208531 C18.2507813,12.1303318 18.2742188,12.1563981 18.2742188,12.2014218 C18.2742188,12.2417062 18.2554688,12.2654028 18.2390625,12.2796209 L14.0882812,16.4265403 L13.021875,17.4952607 Z M22.4648438,12.2819905 L16.3054687,18.4336493 C16.2773438,18.4620853 16.2421875,18.4763033 16.2,18.4763033 C16.1578125,18.4763033 16.1226563,18.4620853 16.0945312,18.4336493 L15.1546875,17.4952607 L19.29375,13.3601896 C19.9289063,12.7251185 19.9335938,11.6990521 19.3054687,11.0545024 L9.9609375,1.51421801 L12.075,1.51421801 L22.4648438,12.1208531 C22.4742187,12.1303318 22.4976562,12.1563981 22.4976562,12.2014218 C22.5,12.2417062 22.48125,12.2654028 22.4648438,12.2819905 Z M5.26171875,4.51658768 C5.68125,4.51658768 6.0234375,4.86255924 6.0234375,5.28672986 C6.0234375,5.71090047 5.68125,6.05687204 5.26171875,6.05687204 C4.8421875,6.05687204 4.5,5.71090047 4.5,5.28672986 C4.5,4.86255924 4.8421875,4.51658768 5.26171875,4.51658768 L5.26171875,4.51658768 Z M5.26171875,3 C4.0125,3 3,4.02369668 3,5.28672986 C3,6.54976303 4.0125,7.57345972 5.26171875,7.57345972 C6.5109375,7.57345972 7.52109375,6.54739336 7.52109375,5.28436019 C7.52109375,4.02132701 6.5109375,3 5.26171875,3 L5.26171875,3 Z" transform="translate(740 886)"/>
  </g>
</svg>
