<svg xmlns="http://www.w3.org/2000/svg" width="20" height="20" viewBox="0 0 20 20">
  <path fill="#555" d="M0.204617964,9.16550767 C0.0740980033,9.04184986 0.000507565033,8.87232643 0.000507565033,8.69531758 L0.000803337996,3.35893737 C-0.00937532279,3.02485784 0.0769825179,2.72037321 0.270699622,2.46921136 C0.500257217,2.17158091 0.848238294,2.02412739 1.29861129,2 L6.81654766,2 C6.9967639,2 7.16954708,2.06970455 7.29664674,2.19368258 L16.3117527,10.9916608 C16.4982181,11.2123211 16.5845208,11.4830627 16.5517579,11.7661803 C16.5246563,12.0003757 16.4280412,12.2152729 16.2297605,12.439356 L10.78727,17.6753432 C10.5727684,17.8788135 10.302315,17.9935318 10.0051286,17.9935318 C9.72974264,17.9935318 9.47346105,17.8962597 9.18698361,17.6756211 L0.204617964,9.16550767 Z M9.62658497,3.01503224 C9.23058093,2.64479482 8.82205848,2.38384332 8.40101762,2.23217773 C7.76945634,2.00467936 7.27581193,2.00646816 7.64981942,2.00646816 L10.2579783,2.00646816 C10.4381945,2.00646816 10.6109777,2.07617271 10.7380774,2.20015073 L19.7531833,10.998129 C19.9396487,11.2187892 20.0259514,11.4895309 19.9931885,11.7726484 C19.9660869,12.0068439 19.8694718,12.221741 19.6711911,12.4458242 L14.2287007,17.6818114 C14.014199,17.8852817 13.7437457,18 13.4465592,18 C13.1711732,18 12.939837,17.90245 12.6533596,17.6818114 L12.4833001,17.5471465 L13.4243922,16.6050097 L17.8611492,12.3395885 C18.0286813,12.1459284 18.1124474,11.9138855 18.1124474,11.6434597 C18.1124474,11.373034 18.0204901,11.1554326 17.8365755,10.9906557 L9.62658497,3.01503224 Z M4.48982737,7.75745752 C5.3695551,7.75745752 6.08271533,7.0613584 6.08271533,6.20267661 C6.08271533,5.34399482 5.3695551,4.64789569 4.48982737,4.64789569 C3.61009965,4.64789569 2.89693942,5.34399482 2.89693942,6.20267661 C2.89693942,7.0613584 3.61009965,7.75745752 4.48982737,7.75745752 Z"/>
</svg>
