<svg xmlns="http://www.w3.org/2000/svg" width="24" height="24" viewBox="0 0 24 24">
  <path fill="#555" d="M2.20461796,11.1655077 C2.074098,11.0418499 2.00050757,10.8723264 2.00050757,10.6953176 L2.00080334,5.35893737 C1.99062468,5.02485784 2.07698252,4.72037321 2.27069962,4.46921136 C2.50025722,4.17158091 2.84823829,4.02412739 3.29861129,4 L8.81654766,4 C8.9967639,4 9.16954708,4.06970455 9.29664674,4.19368258 L18.3117527,12.9916608 C18.4982181,13.2123211 18.5845208,13.4830627 18.5517579,13.7661803 C18.5246563,14.0003757 18.4280412,14.2152729 18.2297605,14.439356 L12.78727,19.6753432 C12.5727684,19.8788135 12.302315,19.9935318 12.0051286,19.9935318 C11.7297426,19.9935318 11.4734611,19.8962597 11.1869836,19.6756211 L2.20461796,11.1655077 Z M11.626585,5.01503224 C11.2305809,4.64479482 10.8220585,4.38384332 10.4010176,4.23217773 C9.76945634,4.00467936 9.27581193,4.00646816 9.64981942,4.00646816 L12.2579783,4.00646816 C12.4381945,4.00646816 12.6109777,4.07617271 12.7380774,4.20015073 L21.7531833,12.998129 C21.9396487,13.2187892 22.0259514,13.4895309 21.9931885,13.7726484 C21.9660869,14.0068439 21.8694718,14.221741 21.6711911,14.4458242 L16.2287007,19.6818114 C16.014199,19.8852817 15.7437457,20 15.4465592,20 C15.1711732,20 14.939837,19.90245 14.6533596,19.6818114 L14.4833001,19.5471465 L15.4243922,18.6050097 L19.8611492,14.3395885 C20.0286813,14.1459284 20.1124474,13.9138855 20.1124474,13.6434597 C20.1124474,13.373034 20.0204901,13.1554326 19.8365755,12.9906557 L11.626585,5.01503224 Z M6.48982737,9.75745752 C7.3695551,9.75745752 8.08271533,9.0613584 8.08271533,8.20267661 C8.08271533,7.34399482 7.3695551,6.64789569 6.48982737,6.64789569 C5.61009965,6.64789569 4.89693942,7.34399482 4.89693942,8.20267661 C4.89693942,9.0613584 5.61009965,9.75745752 6.48982737,9.75745752 Z"/>
</svg>
