<svg xmlns="http://www.w3.org/2000/svg" width="24" height="24" viewBox="0 0 24 24">
  <g fill="none" fill-rule="evenodd" transform="translate(-744 -888)">
    <path fill="#555" fill-rule="nonzero" d="M1.22507976,11.0611961 C1.0815078,10.9220811 1.00055832,10.7313672 1.00055832,10.5322323 L1.00088367,4.52880454 C0.989687145,4.15296507 1.08468077,3.81041986 1.29776958,3.52786278 C1.55028294,3.19302852 1.93306212,3.02714331 2.42847242,3 L8.49820242,3 C8.69644029,3 8.88650179,3.07841762 9.02631142,3.2178929 L18.942928,13.1156184 C19.1480399,13.3638612 19.2429729,13.6684456 19.2069337,13.9869528 C19.177122,14.2504227 19.0708453,14.492182 18.8527365,14.7442755 L12.865997,20.6347611 C12.6300453,20.8636652 12.3325465,20.9927233 12.0056414,20.9927233 C11.7027169,20.9927233 11.4208072,20.8832922 11.105682,20.6350737 L1.22507976,11.0611961 Z M2.49039931,10.2209754 L11.9810451,19.4235683 L17.6157981,13.8832973 L8.18844539,4.47848988 L2.48986165,4.47732877 C2.48991743,4.48314303 2.49009665,6.3976919 2.49039931,10.2209754 Z M2.48686455,4.41861822 C2.48807548,4.41705222 2.48930131,4.41544808 2.49054041,4.41380503 C2.49072588,4.41355909 2.4895006,4.41516349 2.48686455,4.41861822 Z M11.9740823,4.48582967 L8.68523322,4.48582967 C8.27382499,4.48582967 7.94031273,4.15484431 7.94031273,3.74655317 C7.94031273,3.33826204 8.27382499,3.00727668 8.68523322,3.00727668 L12.2837761,3.00727668 C12.482014,3.00727668 12.6720755,3.0856943 12.8118851,3.22516958 L22.7285017,13.1228951 C22.9336136,13.3711379 23.0285465,13.6757223 22.9925073,13.9942295 C22.9626956,14.2576994 22.856419,14.4994586 22.6383102,14.7515522 L16.6515707,20.6420378 C16.4156189,20.8709419 16.1181202,21 15.7912151,21 C15.4882906,21 15.2063808,20.8905689 14.8912556,20.6423504 L13.4151942,19.2121105 C13.1208252,18.9268797 13.1151826,18.4588292 13.4025911,18.1666905 C13.6899995,17.8745518 14.1616233,17.868952 14.4559923,18.1541828 L15.7668314,19.4306359 L21.4013718,13.890574 L11.9740823,4.48582967 Z M5.94509007,9.93730979 C4.71086538,9.93730979 3.71032858,8.94435371 3.71032858,7.71948031 C3.71032858,6.49460691 4.71086538,5.50165082 5.94509007,5.50165082 C7.17931476,5.50165082 8.17985156,6.49460691 8.17985156,7.71948031 C8.17985156,8.94435371 7.17931476,9.93730979 5.94509007,9.93730979 Z M5.94509007,8.4587568 C6.3564983,8.4587568 6.69001057,8.12777144 6.69001057,7.71948031 C6.69001057,7.31118917 6.3564983,6.98020381 5.94509007,6.98020381 C5.53368184,6.98020381 5.20016957,7.31118917 5.20016957,7.71948031 C5.20016957,8.12777144 5.53368184,8.4587568 5.94509007,8.4587568 Z" transform="translate(744 888)"/>
  </g>
</svg>
