<svg xmlns="http://www.w3.org/2000/svg" width="24" height="24" viewBox="0 0 24 24">
  <g fill="none" fill-rule="evenodd" transform="translate(-696 -888)">
    <path fill="#555" fill-rule="nonzero" d="M5.66192733,4.01320132 C5.66192733,3.57007701 5.50394945,3.19174918 5.18799369,2.87821782 C4.87203793,2.56468646 4.49078464,2.40792078 4.04423381,2.4079208 C3.59768298,2.40792081 3.21642969,2.56468649 2.90047393,2.87821782 C2.58451817,3.19174915 2.42654029,3.57007698 2.42654029,4.01320132 C2.42654029,4.45632566 2.58451817,4.83465349 2.90047393,5.14818483 C3.21642969,5.46171616 3.59768298,5.61848183 4.04423381,5.61848185 C4.49078464,5.61848186 4.87203793,5.46171619 5.18799369,5.14818483 C5.50394945,4.83465346 5.66192733,4.45632563 5.66192733,4.01320132 Z M19.1469194,11.2369637 C19.1469194,11.680088 18.9910479,12.0563256 18.6793049,12.3656766 L12.4739337,18.5359736 C12.1453397,18.8453245 11.76198,19 11.3238547,19 C10.8773038,19 10.4981569,18.8453245 10.1864139,18.5359736 L1.15007899,9.55643565 C0.829910475,9.24708472 0.558188515,8.8248625 0.334913109,8.28976898 C0.111637703,7.75467546 0,7.26556655 0,6.82244225 L0,1.60528052 C0,1.17051704 0.160084257,0.794279424 0.480252771,0.476567663 C0.800421285,0.158855902 1.1795682,1.46314631e-08 1.61769352,0 L6.87519748,0 C7.32174829,0 7.81463928,0.110781077 8.35387047,0.332343231 C8.89310165,0.553905385 9.32280149,0.82354235 9.64296999,1.14125413 L18.6793049,10.0957096 C18.9910479,10.4217822 19.1469194,10.8022002 19.1469194,11.2369637 Z M24,11.2369637 C24,11.680088 23.8441285,12.0563256 23.5323855,12.3656766 L17.3270142,18.5359736 C16.9984202,18.8453245 16.6150606,19 16.1769352,19 C15.8736177,19 15.6250658,18.9414741 15.4312796,18.8244224 C15.2374934,18.7073707 15.014218,18.5192519 14.7614534,18.260066 L20.7014218,12.3656766 C21.0131648,12.0563256 21.1690363,11.680088 21.1690363,11.2369637 C21.1690363,10.8022002 21.0131648,10.4217822 20.7014218,10.0957096 L11.6650869,1.14125413 C11.3449184,0.82354235 10.9152185,0.553905385 10.3759874,0.332343231 C9.83675619,0.110781077 9.3438652,3.11888395e-16 8.89731437,0 L11.728278,0 C12.1748288,0 12.6677198,0.110781077 13.206951,0.332343231 C13.7461822,0.553905385 14.175882,0.82354235 14.4960505,1.14125413 L23.5323855,10.0957096 C23.8441285,10.4217822 24,10.8022002 24,11.2369637 Z" transform="translate(696 891)"/>
  </g>
</svg>
