<svg xmlns="http://www.w3.org/2000/svg" width="24" height="24" viewBox="0 0 24 24">
  <g fill="none" fill-rule="evenodd" transform="translate(-696 -888)">
    <path fill="#555" fill-rule="nonzero" d="M1.22507976,11.0611961 C1.0815078,10.9220811 1.00055832,10.7313672 1.00055832,10.5322323 L1.00088367,4.52880454 C0.989687145,4.15296507 1.08468077,3.81041986 1.29776958,3.52786278 C1.55028294,3.19302852 1.93306212,3.02714331 2.42847242,3 L8.49820242,3 C8.69644029,3 8.88650179,3.07841762 9.02631142,3.2178929 L18.942928,13.1156184 C19.1480399,13.3638612 19.2429729,13.6684456 19.2069337,13.9869528 C19.177122,14.2504227 19.0708453,14.492182 18.8527365,14.7442755 L12.865997,20.6347611 C12.6300453,20.8636652 12.3325465,20.9927233 12.0056414,20.9927233 C11.7027169,20.9927233 11.4208072,20.8832922 11.105682,20.6350737 L1.22507976,11.0611961 Z M11.5892435,4.14191127 C11.153639,3.72539417 10.7042643,3.43182373 10.2411194,3.26119995 C9.54640198,3.00526428 9.00339313,3.00727668 9.41480136,3.00727668 L12.2837761,3.00727668 C12.482014,3.00727668 12.6720755,3.0856943 12.8118851,3.22516958 L22.7285017,13.1228951 C22.9336136,13.3711379 23.0285465,13.6757223 22.9925073,13.9942295 C22.9626956,14.2576994 22.856419,14.4994586 22.6383102,14.7515522 L16.6515707,20.6420378 C16.4156189,20.8709419 16.1181202,21 15.7912151,21 C15.4882906,21 15.2338207,20.8902563 14.9186956,20.6420378 L14.7316302,20.4905398 L15.7668314,19.4306359 L20.6472641,14.6320371 C20.8315495,14.4141695 20.9236922,14.1531212 20.9236922,13.8488922 C20.9236922,13.5446632 20.8225391,13.2998617 20.620233,13.1144876 L11.5892435,4.14191127 Z M5.93881011,9.47713971 C6.90651061,9.47713971 7.69098686,8.6940282 7.69098686,7.72801118 C7.69098686,6.76199417 6.90651061,5.97888265 5.93881011,5.97888265 C4.97110961,5.97888265 4.18663336,6.76199417 4.18663336,7.72801118 C4.18663336,8.6940282 4.97110961,9.47713971 5.93881011,9.47713971 Z" transform="translate(696 888)"/>
  </g>
</svg>
