<svg xmlns="http://www.w3.org/2000/svg" width="24" height="24" viewBox="0 0 24 24">
  <path fill="#555" d="M2.20461796,11.1655077 C2.074098,11.0418499 2.00050757,10.8723264 2.00050757,10.6953176 L2.00080334,5.35893737 C1.99062468,5.02485784 2.07698252,4.72037321 2.27069962,4.46921136 C2.50025722,4.17158091 2.84823829,4.02412739 3.29861129,4 L8.81654766,4 C8.9967639,4 9.16954708,4.06970455 9.29664674,4.19368258 L18.3117527,12.9916608 C18.4982181,13.2123211 18.5845208,13.4830627 18.5517579,13.7661803 C18.5246563,14.0003757 18.4280412,14.2152729 18.2297605,14.439356 L12.78727,19.6753432 C12.5727684,19.8788135 12.302315,19.9935318 12.0051286,19.9935318 C11.7297426,19.9935318 11.4734611,19.8962597 11.1869836,19.6756211 L2.20461796,11.1655077 Z M3.35490847,10.4186448 L11.9827683,18.5987274 L17.105271,13.6740421 L8.53495036,5.31421322 L3.35441968,5.31318113 C3.35447039,5.31834936 3.35463332,7.02017058 3.35490847,10.4186448 Z M11.9764385,5.32073748 L8.98657566,5.32073748 C8.61256818,5.32073748 8.30937521,5.02652827 8.30937521,4.66360282 C8.30937521,4.30067737 8.61256818,4.00646816 8.98657566,4.00646816 L12.2579783,4.00646816 C12.4381945,4.00646816 12.6109777,4.07617271 12.7380774,4.20015073 L21.7531833,12.998129 C21.9396487,13.2187892 22.0259514,13.4895309 21.9931885,13.7726484 C21.9660869,14.0068439 21.8694718,14.221741 21.6711911,14.4458242 L16.2287007,19.6818114 C16.014199,19.8852817 15.7437457,20 15.4465592,20 C15.1711732,20 14.9148917,19.9027279 14.6284142,19.6820893 L13.2865402,18.4107649 C13.018932,18.1572264 13.0138024,17.7411815 13.2750828,17.4815027 C13.5363632,17.2218239 13.9651121,17.2168462 14.2327203,17.4703847 L15.4243922,18.6050097 L20.5467017,13.6805102 L11.9764385,5.32073748 Z M6.49553643,10.1664976 C5.37351398,10.1664976 4.46393507,9.28386996 4.46393507,8.19509361 C4.46393507,7.10631725 5.37351398,6.22368962 6.49553643,6.22368962 C7.61755887,6.22368962 8.52713778,7.10631725 8.52713778,8.19509361 C8.52713778,9.28386996 7.61755887,10.1664976 6.49553643,10.1664976 Z M6.49553643,8.85222827 C6.86954391,8.85222827 7.17273688,8.55801906 7.17273688,8.19509361 C7.17273688,7.83216815 6.86954391,7.53795894 6.49553643,7.53795894 C6.12152895,7.53795894 5.81833598,7.83216815 5.81833598,8.19509361 C5.81833598,8.55801906 6.12152895,8.85222827 6.49553643,8.85222827 Z"/>
</svg>
