<svg xmlns="http://www.w3.org/2000/svg" width="24" height="24" viewBox="0 0 24 24">
  <g fill="none" fill-rule="evenodd" transform="translate(-648 -1152)">
    <path fill="#555" fill-rule="nonzero" d="M3.17028285,8.592817 L1.92287305,10.5184222 L4.22380846,11.9510519 C4.22380846,11.9510519 5.75354343,12.7390043 5.02026726,14.2179798 C4.3417951,15.616879 1,18.6801859 1,18.6801859 L3.992049,20.5594452 C6.06538976,16.0382536 5.92633408,16.6407983 6.44465702,15.0143588 C6.97985969,13.3626153 7.09787082,12.0943271 6.19182851,11.1715504 C5.02871938,9.99595389 4.89806682,9.88638473 3.17028285,8.592817 Z M4.80536303,7.8680879 C3.70969933,7.8680879 2.83734298,7.07170893 2.83312918,6.0983732 C2.83312918,5.11658646 3.70967483,4.32023199 4.80536303,4.32023199 C5.89262361,4.32023199 6.77335857,5.1123732 6.77335857,6.0983732 C6.77335857,7.07589769 5.89262361,7.8680879 4.80536303,7.8680879 Z M22.5806771,8.08717723 C22.5806771,8.08717723 23.3055011,11.6097536 22.7281604,17.129585 C22.1466058,22.6493919 15.0204677,20.5931513 15.0204677,20.5931513 L15.4039488,19.0130576 L17.0559087,19.3712089 C20.106951,19.56083 19.8119599,16.8809784 19.8119599,16.8809784 L19.8119599,9.06896398 C19.833029,6.10258646 17.0390535,5.79078098 12.0242049,7.60262824 L13.1957416,7.92286023 C13.0946102,8.2641585 12.7195323,8.80771758 12.2349198,9.40183573 L18.9354143,9.40183573 L18.9354143,10.7670288 L15.1679755,10.7670288 L15.1679755,12.4777579 L18.9227728,12.4777579 L18.9227728,13.8471888 L15.1679755,13.8471888 L15.1679755,16.7082104 C15.728461,16.5185893 16.2552116,16.2657939 16.7019243,15.9202824 L16.3732227,14.6772493 L18.1431693,14.1168372 L19.6223385,17.7574092 L17.4393898,18.6801859 L17.0516949,17.2222767 C16.0740178,17.9764986 14.0427906,19.0720432 10.5028976,18.9751383 C6.71436526,19.0720432 7.69206682,14.6772493 7.69206682,14.6772493 L7.78898441,14.6224769 L10.448118,14.6224769 C10.4354766,15.1913156 10.2036927,16.1056657 10.515539,16.6113055 C10.7768196,17.0242291 11.4342227,17.0958545 11.8598664,17.1169452 L12.0073497,17.1211585 L12.0073497,13.8471888 L8.15561024,13.8471888 L8.15561024,12.4819712 L12.0073497,12.4819712 L12.0073497,10.7712421 L11.021245,10.7712421 C10.1573408,11.6940187 9.36085746,12.4651182 9.36085746,12.4651182 L8.19774833,11.4369856 C9.02372829,10.5605793 9.84549443,9.17008213 10.3596281,8.24309222 C9.92956037,8.41852118 9.50246043,8.60113756 9.0785078,8.79086455 C8.65710245,9.33861239 8.15982405,9.90323775 7.60776615,10.4594366 C7.62883519,10.4931427 5.69876392,9.37234294 5.69876392,9.37234294 C7.68785301,7.66582709 8.80458575,4 8.80458575,4 L11.5648753,4.7837147 C11.5648753,4.7837147 11.3415189,5.31884726 10.8653096,6.14893228 C21.9274633,2.99714697 22.5806771,8.08717723 22.5806771,8.08717723 Z" transform="translate(648 1152)"/>
  </g>
</svg>
