<svg xmlns="http://www.w3.org/2000/svg" width="24" height="24" viewBox="0 0 24 24">
  <path fill="#555" d="M3.97735213,9.06013503 L2.84083279,10.7624056 L4.93722292,12.0288767 C4.93722292,12.0288767 6.33096968,12.7254412 5.66287926,14.0328828 C5.04472095,15.2695355 2,17.9775554 2,17.9775554 L4.72606608,19.6388553 C6.61509394,15.6420385 6.48839983,16.1746991 6.96064564,14.7368965 C7.44827062,13.2767248 7.55579097,12.1555346 6.73029272,11.339783 C5.67058001,10.3005339 5.55154201,10.2036728 3.97735213,9.06013503 Z M5.46707928,8.41946112 C4.46881633,8.41946112 3.67400948,7.71544741 3.67017026,6.85500065 C3.67017026,5.98708304 4.46879401,5.28309099 5.46707928,5.28309099 C6.45768611,5.28309099 7.26012675,5.98335845 7.26012675,6.85500065 C7.26012675,7.71915035 6.45768611,8.41946112 5.46707928,8.41946112 Z M21.6622287,8.61314014 C21.6622287,8.61314014 22.3226184,11.7271627 21.7966012,16.6067956 C21.2667449,21.4864068 14.7740961,19.6686521 14.7740961,19.6686521 L15.123487,18.2718201 L16.6285933,18.5884325 C19.4084084,18.756061 19.139641,16.3870227 19.139641,16.3870227 L19.139641,9.48105775 C19.1588371,6.85872525 16.6132365,6.58308345 12.0441908,8.18478988 L13.1115819,8.46788087 C13.0194408,8.76959485 12.677706,9.25011111 12.2361739,9.77532253 L18.3410173,9.77532253 L18.3410173,10.9821784 L14.908491,10.9821784 L14.908491,12.4944945 L18.3294996,12.4944945 L18.3294996,13.7050967 L14.908491,13.7050967 L14.908491,16.2342926 C15.4191512,16.0666641 15.8990755,15.8431883 16.3060769,15.5377498 L16.0065958,14.4388855 L17.6192002,13.9434709 L18.9668764,17.1618038 L16.9779843,17.9775554 L16.6247541,16.6887367 C15.7339892,17.3554828 13.8833312,18.3239645 10.6581225,18.2382988 C7.20637774,18.3239645 8.09716497,14.4388855 8.09716497,14.4388855 L8.18546692,14.3904657 L10.6082127,14.3904657 C10.596695,14.8933296 10.3855159,15.701632 10.6696401,16.1486269 C10.9076938,16.513659 11.506656,16.5769771 11.8944614,16.5956218 L12.0288339,16.5993464 L12.0288339,13.7050967 L8.51950098,13.7050967 L8.51950098,12.4982191 L12.0288339,12.4982191 L12.0288339,10.985903 L11.1303906,10.985903 C10.3432845,11.8016546 9.61760584,12.4833207 9.61760584,12.4833207 L8.55789313,11.5744326 C9.31044629,10.7996732 10.0591602,9.57044806 10.5275892,8.75097186 C10.135753,8.90605431 9.74662079,9.06749055 9.36035609,9.23521272 C8.97641224,9.71943192 8.52334019,10.2185712 8.02035835,10.7102612 C8.03955442,10.740058 6.28105988,9.74925035 6.28105988,9.74925035 C8.09332576,8.24065883 9.11078478,5 9.11078478,5 L11.625694,5.69281826 C11.625694,5.69281826 11.4221933,6.16588533 10.9883173,6.89969581 C21.0670834,4.11345941 21.6622287,8.61314014 21.6622287,8.61314014 Z"/>
</svg>
