<svg xmlns="http://www.w3.org/2000/svg" width="24" height="24" viewBox="0 0 24 24">
  <g fill="none" fill-rule="evenodd" transform="translate(-648 -1152)">
    <path fill="#555" fill-rule="nonzero" d="M2.19453675,4.60873919 L0.947126949,6.53434438 L3.24806236,7.96697406 C3.24806236,7.96697406 4.77779733,8.75492651 4.04452116,10.233902 C3.366049,11.6328012 0.0242538976,14.6961081 0.0242538976,14.6961081 L3.0163029,16.5753674 C5.08964365,12.0541758 4.95058797,12.6567205 5.46891091,11.030281 C6.00411359,9.37853746 6.12212472,8.11024928 5.21608241,7.18747262 C4.05297327,6.01187608 3.92232071,5.90230692 2.19453675,4.60873919 Z M3.82961693,3.88401009 L3.82961693,3.88401009 C2.73395323,3.88401009 1.86159688,3.08763112 1.85738307,2.11429539 C1.85738307,1.13250865 2.73392873,0.336154179 3.82961693,0.336154179 C4.91687751,0.336154179 5.79761247,1.12829539 5.79761247,2.11429539 C5.79761247,3.09181988 4.91687751,3.88401009 3.82961693,3.88401009 Z M21.604931,4.10309942 C21.604931,4.10309942 22.329755,7.62567579 21.7524143,13.1455072 C21.1708597,18.6653141 14.0447216,16.6090735 14.0447216,16.6090735 L14.4282027,15.0289798 L16.0801626,15.3871311 C19.1312049,15.5767522 18.8362138,12.8969006 18.8362138,12.8969006 L18.8362138,5.08488617 C18.8572829,2.11850865 16.0633073,1.80670317 11.0484588,3.61855043 L12.2199955,3.93878242 C12.1188641,4.28008069 11.7437862,4.82363977 11.2591737,5.41775793 L17.9596682,5.41775793 L17.9596682,6.78295101 L14.1922294,6.78295101 L14.1922294,8.49368012 L17.9470267,8.49368012 L17.9470267,9.86311095 L14.1922294,9.86311095 L14.1922294,12.7241326 C14.7527149,12.5345115 15.2794655,12.2817161 15.7261782,11.9362046 L15.3974766,10.6931715 L17.1674232,10.1327594 L18.6465924,13.7733314 L16.4636437,14.6961081 L16.0759488,13.2381988 C15.0982717,13.9924207 13.0670445,15.0879654 9.52715145,14.9910605 C5.73861915,15.0879654 6.71632071,10.6931715 6.71632071,10.6931715 L6.81323831,10.6383991 L9.47237194,10.6383991 C9.45973051,11.2072378 9.22794655,12.1215879 9.53979287,12.6272277 C9.8010735,13.0401513 10.4584766,13.1117767 10.8841203,13.1328674 L11.0316036,13.1370807 L11.0316036,9.86311095 L7.17986414,9.86311095 L7.17986414,8.49789337 L11.0316036,8.49789337 L11.0316036,6.78716427 L10.0454989,6.78716427 C9.18159465,7.70994092 8.38511136,8.48104035 8.38511136,8.48104035 L7.22200223,7.45290778 C8.04798218,6.57650144 8.86974833,5.18600432 9.38388196,4.25901441 C8.95381427,4.43444337 8.52671433,4.61705975 8.10276169,4.80678674 C7.68135635,5.35453458 7.18407795,5.91915994 6.63202004,6.47535879 C6.65308909,6.50906484 4.72301782,5.38826513 4.72301782,5.38826513 C6.7121069,3.68174928 7.82883964,0.0159221902 7.82883964,0.0159221902 L10.5891292,0.799636888 C10.5891292,0.799636888 10.3657728,1.33476945 9.88956347,2.16485447 C20.9517171,-0.986930836 21.604931,4.10309942 21.604931,4.10309942 Z" transform="translate(649 1156)"/>
  </g>
</svg>
