<svg xmlns="http://www.w3.org/2000/svg" width="20" height="20" viewBox="0 0 20 20">
  <path fill="#555" d="M1.97735213,6.56013503 L0.840832795,8.26240557 L2.93722292,9.52887666 C2.93722292,9.52887666 4.33096968,10.2254412 3.66287926,11.5328828 C3.04472095,12.7695355 0,15.4775554 0,15.4775554 L2.72606608,17.1388553 C4.61509394,13.1420385 4.48839983,13.6746991 4.96064564,12.2368965 C5.44827062,10.7767248 5.55579097,9.6555346 4.73029272,8.83978299 C3.67058001,7.80053395 3.55154201,7.70367278 1.97735213,6.56013503 Z M3.46707928,5.91946112 C2.46881633,5.91946112 1.67400948,5.21544741 1.67017026,4.35500065 C1.67017026,3.48708304 2.46879401,2.78309099 3.46707928,2.78309099 C4.45768611,2.78309099 5.26012675,3.48335845 5.26012675,4.35500065 C5.26012675,5.21915035 4.45768611,5.91946112 3.46707928,5.91946112 Z M19.6622287,6.11314014 C19.6622287,6.11314014 20.3226184,9.22716269 19.7966012,14.1067956 C19.2667449,18.9864068 12.7740961,17.1686521 12.7740961,17.1686521 L13.123487,15.7718201 L14.6285933,16.0884325 C17.4084084,16.256061 17.139641,13.8870227 17.139641,13.8870227 L17.139641,6.98105775 C17.1588371,4.35872525 14.6132365,4.08308345 10.0441908,5.68478988 L11.1115819,5.96788087 C11.0194408,6.26959485 10.677706,6.75011111 10.2361739,7.27532253 L16.3410173,7.27532253 L16.3410173,8.48217842 L12.908491,8.48217842 L12.908491,9.99449454 L16.3294996,9.99449454 L16.3294996,11.2050967 L12.908491,11.2050967 L12.908491,13.7342926 C13.4191512,13.5666641 13.8990755,13.3431883 14.3060769,13.0377498 L14.0065958,11.9388855 L15.6192002,11.4434709 L16.9668764,14.6618038 L14.9779843,15.4775554 L14.6247541,14.1887367 C13.7339892,14.8554828 11.8833312,15.8239645 8.65812247,15.7382988 C5.20637774,15.8239645 6.09716497,11.9388855 6.09716497,11.9388855 L6.18546692,11.8904657 L8.60821267,11.8904657 C8.59669503,12.3933296 8.38551586,13.201632 8.66964012,13.6486269 C8.90769379,14.013659 9.50665602,14.0769771 9.89446141,14.0956218 L10.0288339,14.0993464 L10.0288339,11.2050967 L6.51950098,11.2050967 L6.51950098,9.99821913 L10.0288339,9.99821913 L10.0288339,8.48590302 L9.1303906,8.48590302 C8.3432845,9.30165462 7.61760584,9.98332075 7.61760584,9.98332075 L6.55789313,9.07443258 C7.31044629,8.29967319 8.05916024,7.07044806 8.52758915,6.25097186 C8.13575301,6.40605431 7.74662079,6.56749055 7.36035609,6.73521272 C6.97641224,7.21943192 6.52334019,7.71857117 6.02035835,8.21026122 C6.03955442,8.24005799 4.28105988,7.24925035 4.28105988,7.24925035 C6.09332576,5.74065883 7.11078478,2.5 7.11078478,2.5 L9.62569401,3.19281826 C9.62569401,3.19281826 9.42219328,3.66588533 8.98831731,4.39969581 C19.0670834,1.61345941 19.6622287,6.11314014 19.6622287,6.11314014 Z"/>
</svg>
