<svg xmlns="http://www.w3.org/2000/svg" width="24" height="24" viewBox="0 0 24 24">
  <path fill="#555" d="M12,22 C6.4771525,22 2,17.5228475 2,12 C2,6.4771525 6.4771525,2 12,2 C17.5228475,2 22,6.4771525 22,12 C22,17.5228475 17.5228475,22 12,22 Z M11.7674419,13.1627907 L11.7674419,8.27906977 C11.7674419,7.89375483 11.4550824,7.58139535 11.0697674,7.58139535 C10.6844525,7.58139535 10.372093,7.89375483 10.372093,8.27906977 L10.372093,13.8604651 C10.372093,14.2457801 10.6844525,14.5581395 11.0697674,14.5581395 L16.6511628,14.5581395 C17.0364777,14.5581395 17.3488372,14.2457801 17.3488372,13.8604651 C17.3488372,13.4751502 17.0364777,13.1627907 16.6511628,13.1627907 L11.7674419,13.1627907 Z"/>
</svg>
