<svg xmlns="http://www.w3.org/2000/svg" width="24" height="24" viewBox="0 0 24 24">
  <g fill="none" fill-rule="evenodd" transform="translate(-120 -696)">
    <path fill="#555" fill-rule="nonzero" d="M12,24 C5.372583,24 0,18.627417 0,12 C0,5.372583 5.372583,0 12,0 C18.627417,0 24,5.372583 24,12 C24,18.627417 18.627417,24 12,24 Z M12.5078527,5.79537606 C12.5078527,5.35610199 12.1703084,5 11.7539264,5 C11.3375443,5 11,5.35610199 11,5.79537606 L11,13.2046239 C11,13.643898 11.3375443,14 11.7539264,14 L18.2460736,14 C18.6624557,14 19,13.643898 19,13.2046239 C19,12.7653499 18.6624557,12.4092479 18.2460736,12.4092479 L12.5078527,12.4092479 L12.5078527,5.79537606 Z" transform="translate(120 696)"/>
  </g>
</svg>
