<svg xmlns="http://www.w3.org/2000/svg" width="24" height="24" viewBox="0 0 24 24">
  <g fill="none" fill-rule="evenodd" transform="translate(-744 -648)">
    <path fill="#555" fill-rule="nonzero" d="M12,23 C5.92486775,23 1,18.0751322 1,12 C1,5.92486775 5.92486775,1 12,1 C18.0751322,1 23,5.92486775 23,12 C23,18.0751322 18.0751322,23 12,23 Z M12,21.4651163 C17.2274394,21.4651163 21.4651163,17.2274394 21.4651163,12 C21.4651163,6.77256062 17.2274394,2.53488372 12,2.53488372 C6.77256062,2.53488372 2.53488372,6.77256062 2.53488372,12 C2.53488372,17.2274394 6.77256062,21.4651163 12,21.4651163 Z M11.744186,13.2790698 L17.1162791,13.2790698 C17.5401255,13.2790698 17.8837209,13.6226652 17.8837209,14.0465116 C17.8837209,14.4703581 17.5401255,14.8139535 17.1162791,14.8139535 L10.9767442,14.8139535 C10.5528978,14.8139535 10.2093023,14.4703581 10.2093023,14.0465116 L10.2093023,7.90697674 C10.2093023,7.48313031 10.5528978,7.13953488 10.9767442,7.13953488 C11.4005906,7.13953488 11.744186,7.48313031 11.744186,7.90697674 L11.744186,13.2790698 Z" transform="translate(744 648)"/>
  </g>
</svg>
