<svg xmlns="http://www.w3.org/2000/svg" width="24" height="24" viewBox="0 0 24 24">
  <g fill="none" fill-rule="evenodd" transform="translate(-528 -1032)">
    <path fill="#555" d="M24,2.3676809 C23.1170214,2.76911276 22.1682792,3.0404628 21.1721621,3.16223472 C22.1885381,2.53739453 22.9695986,1.54787778 23.3367531,0.369470724 C22.3855174,0.947967272 21.3314286,1.36857581 20.2103295,1.59422143 C19.3123904,0.613653797 18.0326481,0 16.6163916,0 C13.8973287,0 11.6925315,2.26029149 11.6925315,5.04922015 C11.6925315,5.44457939 11.7361661,5.83035029 11.8203187,6.20014063 C7.7280106,5.98951675 4.1001,3.97916134 1.67151929,0.92399642 C1.2476397,1.66996932 1.00484397,2.53771414 1.00484397,3.46266939 C1.00484397,5.21445922 1.8741088,6.7594605 3.19530408,7.66523907 C2.38837448,7.63871133 1.62913133,7.41146766 0.965261094,7.03368704 C0.964637741,7.05478139 0.964637741,7.07555612 0.964637741,7.0972897 C0.964637741,9.54295577 2.66171448,11.5836743 4.91388647,12.0480695 C4.50091555,12.16281 4.06612729,12.2248146 3.61700193,12.2248146 C3.29940392,12.2248146 2.99115619,12.1934927 2.69038869,12.1343646 C3.31685778,14.1399259 5.13517655,15.6002301 7.2897939,15.6411404 C5.60456086,16.9950141 3.48173448,17.802672 1.17470748,17.802672 C0.777320364,17.802672 0.38554342,17.7790207 1.52766688e-13,17.7320378 C2.17892809,19.1645359 4.767087,20 7.5475501,20 C16.6042362,20 21.5567705,12.3066351 21.5567705,5.63506776 C21.5567705,5.41645359 21.5517837,5.19815904 21.5424334,4.98114293 C22.5052011,4.26968806 23.3401816,3.38020967 24,2.3676809 L24,2.3676809 Z" transform="translate(528 1034)"/>
  </g>
</svg>
