<svg xmlns="http://www.w3.org/2000/svg" width="24" height="24" viewBox="0 0 24 24">
  <g fill="none" fill-rule="evenodd" transform="translate(-456 -1104)">
    <path fill="#555" d="M23,5.13091281 C22.190603,5.49220148 21.3209226,5.73641652 20.4078153,5.84601125 C21.3394933,5.28365508 22.0554654,4.39309 22.3920237,3.33252365 C21.5200577,3.85317054 20.5538096,4.23171823 19.5261353,4.43479928 C18.7030246,3.55228842 17.5299274,3 16.2316923,3 C13.739218,3 11.7181538,5.03426234 11.7181538,7.54429813 C11.7181538,7.90012145 11.7581523,8.24731526 11.8352921,8.58012657 C8.08400971,8.39056507 4.758425,6.58124521 2.53222602,3.83159678 C2.14366973,4.50297239 1.92110697,5.28394273 1.92110697,6.11640245 C1.92110697,7.6930133 2.71793307,9.08351445 3.92902874,9.89871516 C3.18934327,9.87484019 2.49337039,9.67032089 1.88482267,9.33031833 C1.88425126,9.34930325 1.88425126,9.36800051 1.88425126,9.38756073 C1.88425126,11.5886602 3.43990494,13.4253068 5.50439593,13.8432626 C5.12583925,13.946529 4.72728335,14.0023332 4.31558511,14.0023332 C4.02445359,14.0023332 3.74189317,13.9741434 3.46618963,13.9209282 C4.04045297,15.7259333 5.70724517,17.0402071 7.68231108,17.0770263 C6.13751412,18.2955127 4.19158994,19.0224048 2.07681519,19.0224048 C1.71254367,19.0224048 1.3534148,19.0011186 1,18.9588341 C2.99735075,20.2480823 5.36982975,21 7.91858759,21 C16.2205498,21 20.760373,14.0759716 20.760373,8.07156098 C20.760373,7.87480823 20.7558017,7.67834313 20.7472306,7.48302864 C21.6297677,6.84271925 22.3951664,6.0421887 23,5.13091281 L23,5.13091281 Z" transform="translate(456 1104)"/>
  </g>
</svg>
