<svg xmlns="http://www.w3.org/2000/svg" width="24" height="24" viewBox="0 0 24 24">
  <path fill="#555" fill-rule="evenodd" d="M22,5.89414472 C21.2641845,6.21529021 20.473566,6.43237024 19.6434684,6.52978778 C20.4904484,6.02991562 21.1413322,5.23830222 21.4472943,4.29557658 C20.6545979,4.75837382 19.7761905,5.09486065 18.8419412,5.27537714 C18.0936587,4.49092304 17.0272067,4 15.846993,4 C13.5811072,4 11.7437762,5.80823319 11.7437762,8.03937612 C11.7437762,8.35566351 11.7801384,8.66428024 11.8502656,8.9601125 C8.44000883,8.7916134 5.41675,7.18332907 3.39293274,4.73919714 C3.03969975,5.33597545 2.83736997,6.03017131 2.83736997,6.77013552 C2.83736997,8.17156737 3.56175733,9.4075684 4.6627534,10.1321913 C3.99031207,10.1109691 3.35760944,9.92917412 2.80438424,9.62694963 C2.80386478,9.64382511 2.80386478,9.6604449 2.80386478,9.67783176 C2.80386478,11.6343646 4.2180954,13.2669394 6.09490539,13.6384556 C5.75076296,13.730248 5.38843941,13.7798517 5.01416828,13.7798517 C4.74950327,13.7798517 4.49263016,13.7547942 4.24199057,13.7074917 C4.76404815,15.3119407 6.27931379,16.4801841 8.07482825,16.5129123 C6.67046738,17.5960113 4.9014454,18.2421376 2.9789229,18.2421376 C2.64776697,18.2421376 2.32128618,18.2232166 2,18.1856303 C3.81577341,19.3316287 5.9725725,20 8.28962508,20 C15.8368635,20 19.9639754,13.8453081 19.9639754,8.50805421 C19.9639754,8.33316287 19.9598197,8.15852723 19.9520278,7.98491434 C20.7543342,7.41575045 21.4501513,6.70416773 22,5.89414472 L22,5.89414472 Z"/>
</svg>
