<svg xmlns="http://www.w3.org/2000/svg" width="24" height="24" viewBox="0 0 24 24">
  <g fill="none" fill-rule="evenodd" transform="translate(-744 -936)">
    <path fill="#555" fill-rule="nonzero" d="M19.5,11.988991 L5.49940018,11.988991 L5.4971313,21.4037506 C5.49934655,21.4395178 5.50179072,21.4699113 5.50399119,21.4953199 C5.52756072,21.497461 5.55191873,21.4990738 5.57634763,21.5 L19.1980712,21.5 C19.3130184,21.5 19.4091849,21.4939068 19.4857353,21.4838124 C19.4974461,21.3879621 19.5031658,21.2609049 19.5,21.095647 L19.5,11.988991 Z M19.5,10.488991 L19.5,10.4888458 C19.5005347,10.488894 19.5010693,10.4889424 19.5016037,10.488991 L19.5429822,10.488991 C19.6504591,10.488991 19.7526557,10.5115981 19.8450764,10.5523164 C20.1221199,10.631899 20.3635397,10.7773778 20.5693359,10.9887527 C20.8564453,11.2836451 21,11.6021678 21,11.9443207 L21,21.095647 C21.0143571,21.7996219 20.8838063,22.2930078 20.6083476,22.5758047 C20.332889,22.8586016 19.8627968,23 19.1980712,23 L5.57634763,23 C5.0096216,22.9825277 4.61280907,22.850178 4.38591003,22.602951 C4.159011,22.3557241 4.03037432,21.9868988 4,21.4964752 L4,9.5 C4,4.80557963 7.80557963,1 12.5,1 C15.7536477,1 18.5803217,2.82809138 20.0089238,5.51317586 C20.0238117,5.54115796 20.0385426,5.56923763 20.053131,5.59740029 C20.1504364,5.7852478 20.2687225,6.05499268 20.3668671,6.31365967 C20.4650116,6.57232666 20.3906708,6.91127014 20.0961914,7.12606812 C19.801712,7.34086609 19.1750031,7.34547424 19.0874939,7.12606812 C19.0406295,7.00856791 19.0437751,7.00448607 18.9960724,6.88607231 C18.9139216,6.68214675 18.8221466,6.48227595 18.7210733,6.28705407 C17.5262101,3.97919079 15.1451567,2.5 12.5,2.5 C8.63400675,2.5 5.5,5.63400675 5.5,9.5 L5.49976166,10.488991 L19.5,10.488991 Z M11.7133579,16.9560331 L11.7133579,14.7606936 C11.7133579,14.3314373 12.0696679,13.9831264 12.5087823,13.9831264 C12.9478967,13.9831264 13.3042066,14.3314373 13.3042066,14.7606936 L13.3042066,16.9609389 C13.7257565,17.2258514 13.9791882,17.6722779 13.9791882,18.1677624 C13.9791882,18.9624998 13.319262,19.6076108 12.5062731,19.6076108 C11.6932841,19.6076108 11.0333579,18.9624998 11.0333579,18.1677624 C11.0358672,17.6796366 11.2943173,17.2184927 11.7133579,16.9560331 Z" transform="translate(744 936)"/>
  </g>
</svg>
