<svg xmlns="http://www.w3.org/2000/svg" width="24" height="24" viewBox="0 0 24 24">
  <path fill="#555" d="M5.39310384,11 L20,11 L20,21 C20,21.5522847 19.5522847,22 19,22 L5,22 C4.44771525,22 4,21.5522847 4,21 L4,11.7536458 C3.995424,11.7213049 3.99305823,11.6882533 3.99306046,11.6546488 L3.9931987,9.75876354 C3.98176685,7.83263677 4.6793356,6.12259375 6.0661398,4.66264382 C7.85802402,2.7762483 9.62383471,2.11390915 12.1788532,2.002783 C14.2032145,1.91473686 16.0393348,2.62532483 17.6083941,4.0410355 C18.6011955,4.93680767 19.3765227,5.96353099 19.9303213,7.11798612 C20.0975314,7.46655435 19.9505116,7.88467532 19.6019434,8.05188546 C19.2533752,8.21909559 18.8352542,8.07207581 18.6680441,7.72350758 C18.1941083,6.73553549 17.5296258,5.85559764 16.6705422,5.0804747 C15.3659414,3.90337623 13.8842016,3.32993532 12.2396863,3.4014607 C10.0196932,3.49801551 8.59615132,4.03197282 7.08119047,5.62683889 C5.9400047,6.82821548 5.38392093,8.19141756 5.39318637,9.7546554 L5.39310384,11 Z M5.4,12.4 L5.4,20.6 L18.6,20.6 L18.6,12.4 L5.4,12.4 Z M11.6554075,16.498089 L11.6554075,14.3234389 C11.6554075,13.9368396 11.9688082,13.6234389 12.3554075,13.6234389 C12.7420068,13.6234389 13.0554075,13.9368396 13.0554075,14.3234389 L13.0554075,16.4919631 C13.5343478,16.7424564 13.8612018,17.244058 13.8612018,17.8220005 C13.8612018,18.6504276 13.1896289,19.3220005 12.3612018,19.3220005 C11.5327747,19.3220005 10.8612018,18.6504276 10.8612018,17.8220005 C10.8612018,17.2487314 11.182791,16.7505736 11.6554075,16.498089 Z"/>
</svg>
