<svg xmlns="http://www.w3.org/2000/svg" width="24" height="24" viewBox="0 0 24 24">
  <g fill="none" fill-rule="evenodd" transform="translate(-816 -864)">
    <path fill="#555" d="M1.81726937,13.655034 L1.81726937,14.4497714 C1.81726937,15.493366 2.01121771,16.5102018 2.39645756,17.4761958 C2.76841328,18.4047274 3.29712177,19.2315754 3.96132841,19.9353328 C4.6202214,20.6337384 5.37476015,21.1822946 6.20900369,21.56227 L6.21431734,21.56227 L6.24885609,21.5756495 C7.11763838,21.9743561 8.04487085,22.1750474 9.00398524,22.1750474 C9.95778598,22.1750474 10.8876753,21.9716802 11.7617712,21.5810012 C12.6092989,21.195674 13.3797786,20.6417661 14.0466421,19.9380087 C14.5115867,19.4429702 15.12,18.3592374 15.457417,17.7143494 C15.6221402,17.3985952 15.9462731,17.2032557 16.299631,17.2032557 L16.6636162,17.2032557 C17.1445018,17.2032557 17.479262,17.6929424 17.2985978,18.1451667 C17.2985978,18.1478426 17.295941,18.1505185 17.295941,18.1531943 C16.83631,19.2957966 16.1853875,20.3179842 15.364428,21.1876463 C14.5434686,22.0653362 13.5816974,22.75839 12.5056827,23.2454008 C11.3924723,23.7457911 10.2154982,24 9.00398524,24 C7.79247232,24 6.61284133,23.7457911 5.499631,23.2427249 C4.42361624,22.75839 3.46450185,22.0653362 2.64088561,21.1876463 C1.81195572,20.3072806 1.16103321,19.2850931 0.709372694,18.1531943 C0.239114391,16.9811573 0,15.7341956 0,14.4444197 L0,1.86241498 C0,0.834875683 0.789077491,0 1.76147601,0 L16.238524,0 C17.2109225,0 18,0.834875683 17.9946863,1.86241498 L18,11.9397926 C18,12.8870554 17.2401476,13.6523581 16.299631,13.6523581 L1.81726937,13.6523581 L1.81726937,13.655034 Z M16.1986716,1.86509087 C16.1986716,1.84903557 16.1960148,1.83565615 16.1933579,1.8276285 L1.82258303,1.8276285 C1.8199262,1.83565615 1.81726937,1.84903557 1.81726937,1.86509087 L1.81726937,11.8300814 L16.1986716,11.8300814 L16.1986716,1.86509087 Z M8.16708487,7.71992418 L8.16708487,5.32500836 C8.16708487,4.85672873 8.54435424,4.47675326 9.00929889,4.47675326 C9.47424354,4.47675326 9.85151292,4.85672873 9.85151292,5.32500836 L9.85151292,7.72527595 C10.2978598,8.01427138 10.5661993,8.50128219 10.5661993,9.04181068 C10.5661993,9.90879697 9.86745387,10.6125544 9.00664207,10.6125544 C8.14583026,10.6125544 7.44708487,9.90879697 7.44708487,9.04181068 C7.4497417,8.50930985 7.72339483,8.00624373 8.16708487,7.71992418 Z" transform="matrix(1 0 0 -1 820 888)"/>
  </g>
</svg>
