<svg xmlns="http://www.w3.org/2000/svg" width="24" height="24" viewBox="0 0 24 24">
  <g fill="none" fill-rule="evenodd" transform="translate(-360 -408)">
    <path fill="#555" fill-rule="nonzero" d="M12,23 C5.92486775,23 1,18.0751322 1,12 C1,5.92486775 5.92486775,1 12,1 C18.0751322,1 23,5.92486775 23,12 C23,18.0751322 18.0751322,23 12,23 Z M12,21.4651163 C17.2274394,21.4651163 21.4651163,17.2274394 21.4651163,12 C21.4651163,6.77256062 17.2274394,2.53488372 12,2.53488372 C6.77256062,2.53488372 2.53488372,6.77256062 2.53488372,12 C2.53488372,17.2274394 6.77256062,21.4651163 12,21.4651163 Z M12.005117,10.9839739 L8.24413935,14.7209583 C7.95031038,15.0129128 7.47543908,15.0113932 7.18348461,14.7175642 C6.89153013,14.4237353 6.89304971,13.948864 7.18687868,13.6569095 L11.4713697,9.39975159 C11.7618537,9.11112074 12.2301532,9.10884331 12.5234308,9.39463521 L16.8920947,13.6517931 C17.1887494,13.9408759 17.1948876,14.41571 16.9058047,14.7123647 C16.6167219,15.0090193 16.1418878,15.0151575 15.8452332,14.7260747 L12.005117,10.9839739 Z" transform="translate(360 408)"/>
  </g>
</svg>
