<svg xmlns="http://www.w3.org/2000/svg" width="24" height="24" viewBox="0 0 24 24">
  <g fill="none" fill-rule="evenodd" transform="translate(-360 -408)">
    <path fill="#555" fill-rule="nonzero" d="M12,22.5 C17.7989899,22.5 22.5,17.7989899 22.5,12 C22.5,6.20101013 17.7989899,1.5 12,1.5 C6.20101013,1.5 1.5,6.20101013 1.5,12 C1.5,17.7989899 6.20101013,22.5 12,22.5 Z M12,24 C5.372583,24 0,18.627417 0,12 C0,5.372583 5.372583,0 12,0 C18.627417,0 24,5.372583 24,12 C24,18.627417 18.627417,24 12,24 Z M8.36372294,14.2225397 L12.3235209,10.2627417 L16.2833189,14.2225397 C16.5957383,14.5349591 17.1022703,14.5349591 17.4146897,14.2225397 C17.7271092,13.9101202 17.7271092,13.4035883 17.4146897,13.0911688 L12.8892063,8.56568542 C12.5767869,8.25326599 12.0702549,8.25326599 11.7578355,8.56568542 L7.23235209,13.0911688 C6.91993266,13.4035883 6.91993266,13.9101202 7.23235209,14.2225397 C7.54477153,14.5349591 8.05130351,14.5349591 8.36372294,14.2225397 Z" transform="translate(360 408)"/>
  </g>
</svg>
