<svg xmlns="http://www.w3.org/2000/svg" width="24" height="24" viewBox="0 0 24 24">
  <path fill="#555" d="M12,22 C6.4771525,22 2,17.5228475 2,12 C2,6.4771525 6.4771525,2 12,2 C17.5228475,2 22,6.4771525 22,12 C22,17.5228475 17.5228475,22 12,22 Z M12.0046519,11.0763399 L15.4956665,14.4782497 C15.7653526,14.7410523 16.1970199,14.7354721 16.4598225,14.4657861 C16.7226251,14.1961 16.7170449,13.7644327 16.4473588,13.5016301 L12.4758462,9.63148655 C12.2092302,9.37167573 11.7835033,9.37374613 11.519427,9.63613781 L7.62443516,13.5062813 C7.35731792,13.7716945 7.35593648,14.2033957 7.62134964,14.4705129 C7.8867628,14.7376302 8.31846398,14.7390116 8.58558122,14.4735984 L12.0046519,11.0763399 Z"/>
</svg>
