<svg xmlns="http://www.w3.org/2000/svg" width="24" height="24" viewBox="0 0 24 24">
  <path fill="#555" d="M12,22 C6.4771525,22 2,17.5228475 2,12 C2,6.4771525 6.4771525,2 12,2 C17.5228475,2 22,6.4771525 22,12 C22,17.5228475 17.5228475,22 12,22 Z M12,20.6046512 C16.7522176,20.6046512 20.6046512,16.7522176 20.6046512,12 C20.6046512,7.24778239 16.7522176,3.39534884 12,3.39534884 C7.24778239,3.39534884 3.39534884,7.24778239 3.39534884,12 C3.39534884,16.7522176 7.24778239,20.6046512 12,20.6046512 Z M12.0046519,11.0763399 L8.58558122,14.4735984 C8.31846398,14.7390116 7.8867628,14.7376302 7.62134964,14.4705129 C7.35593648,14.2033957 7.35731792,13.7716945 7.62443516,13.5062813 L11.519427,9.63613781 C11.7835033,9.37374613 12.2092302,9.37167573 12.4758462,9.63148655 L16.4473588,13.5016301 C16.7170449,13.7644327 16.7226251,14.1961 16.4598225,14.4657861 C16.1970199,14.7354721 15.7653526,14.7410523 15.4956665,14.4782497 L12.0046519,11.0763399 Z"/>
</svg>
