<svg xmlns="http://www.w3.org/2000/svg" width="24" height="24" viewBox="0 0 24 24">
  <path fill="#555" d="M3.81818182,3.36363636 C3.5671433,3.36363636 3.36363636,3.5671433 3.36363636,3.81818182 L3.36363636,20.1818182 C3.36363636,20.4328567 3.5671433,20.6363636 3.81818182,20.6363636 L20.1818182,20.6363636 C20.4328567,20.6363636 20.6363636,20.4328567 20.6363636,20.1818182 L20.6363636,3.81818182 C20.6363636,3.5671433 20.4328567,3.36363636 20.1818182,3.36363636 L3.81818182,3.36363636 Z M3.81818182,2 L20.1818182,2 C21.1859723,2 22,2.81402773 22,3.81818182 L22,20.1818182 C22,21.1859723 21.1859723,22 20.1818182,22 L3.81818182,22 C2.81402773,22 2,21.1859723 2,20.1818182 L2,3.81818182 C2,2.81402773 2.81402773,2 3.81818182,2 Z M12.0046519,11.0572891 L15.4956665,14.4591989 C15.7653526,14.7220015 16.1970199,14.7164213 16.4598225,14.4467352 C16.7226251,14.1770492 16.7170449,13.7453818 16.4473588,13.4825793 L12.4758462,9.61243574 C12.2092302,9.35262491 11.7835033,9.35469531 11.519427,9.61708699 L7.62443516,13.4872305 C7.35731792,13.7526437 7.35593648,14.1843449 7.62134964,14.4514621 C7.8867628,14.7185794 8.31846398,14.7199608 8.58558122,14.4545476 L12.0046519,11.0572891 Z"/>
</svg>
