<svg xmlns="http://www.w3.org/2000/svg" width="24" height="24" viewBox="0 0 24 24">
  <g fill="none" fill-rule="evenodd" transform="translate(-744 -408)">
    <path fill="#555" fill-rule="nonzero" d="M2,1.5 C1.72385763,1.5 1.5,1.72385763 1.5,2 L1.5,22 C1.5,22.2761424 1.72385763,22.5 2,22.5 L22,22.5 C22.2761424,22.5 22.5,22.2761424 22.5,22 L22.5,2 C22.5,1.72385763 22.2761424,1.5 22,1.5 L2,1.5 Z M2,0 L22,0 C23.1045695,0 24,0.8954305 24,2 L24,22 C24,23.1045695 23.1045695,24 22,24 L2,24 C0.8954305,24 0,23.1045695 0,22 L0,2 C0,0.8954305 0.8954305,0 2,0 Z M7.69705627,14.2225397 L11.6568542,10.2627417 L15.6166522,14.2225397 C15.9290717,14.5349591 16.4356036,14.5349591 16.7480231,14.2225397 C17.0604425,13.9101202 17.0604425,13.4035883 16.7480231,13.0911688 L12.2225397,8.56568542 C11.9101202,8.25326599 11.4035883,8.25326599 11.0911688,8.56568542 L6.56568542,13.0911688 C6.25326599,13.4035883 6.25326599,13.9101202 6.56568542,14.2225397 C6.87810486,14.5349591 7.38463684,14.5349591 7.69705627,14.2225397 Z" transform="translate(744 408)"/>
  </g>
</svg>
