<svg xmlns="http://www.w3.org/2000/svg" width="24" height="24" viewBox="0 0 24 24">
  <g fill="none" fill-rule="evenodd" transform="translate(-744 -408)">
    <path fill="#555" fill-rule="nonzero" d="M3,2.5209559 C2.72385763,2.5209559 2.5,2.74481353 2.5,3.0209559 L2.5,21.0209559 C2.5,21.2970983 2.72385763,21.5209559 3,21.5209559 L21,21.5209559 C21.2761424,21.5209559 21.5,21.2970983 21.5,21.0209559 L21.5,3.0209559 C21.5,2.74481353 21.2761424,2.5209559 21,2.5209559 L3,2.5209559 Z M3,1.0209559 L21,1.0209559 C22.1045695,1.0209559 23,1.9163864 23,3.0209559 L23,21.0209559 C23,22.1255254 22.1045695,23.0209559 21,23.0209559 L3,23.0209559 C1.8954305,23.0209559 1,22.1255254 1,21.0209559 L1,3.0209559 C1,1.9163864 1.8954305,1.0209559 3,1.0209559 Z M12.005117,10.9839739 L15.8452332,14.7260747 C16.1418878,15.0151575 16.6167219,15.0090193 16.9058047,14.7123647 C17.1948876,14.41571 17.1887494,13.9408759 16.8920947,13.6517931 L12.5234308,9.39463521 C12.2301532,9.10884331 11.7618537,9.11112074 11.4713697,9.39975159 L7.18687868,13.6569095 C6.89304971,13.948864 6.89153013,14.4237353 7.18348461,14.7175642 C7.47543908,15.0113932 7.95031038,15.0129128 8.24413935,14.7209583 L12.005117,10.9839739 Z" transform="translate(744 408)"/>
  </g>
</svg>
