<svg xmlns="http://www.w3.org/2000/svg" width="20" height="20" viewBox="0 0 20 20">
  <path fill="#555" d="M9.98471002,2.04996414e-05 C9.98648598,6.84138296e-06 9.98826354,0 9.99004267,0 C10.2159273,0 10.4164323,0.110281019 10.5421361,0.280685722 L14.8199853,4.58384481 C15.0903403,4.85579935 15.0922778,5.2986911 14.8243128,5.57307121 C14.5563478,5.84745133 14.1199533,5.84941764 13.8495983,5.5774631 L10.6792767,2.38838435 L10.6792767,12.0312282 C10.6792767,12.4175489 10.3706961,12.7307237 9.99004267,12.7307237 C9.60938921,12.7307237 9.30080862,12.4175489 9.30080862,12.0312282 L9.30080862,2.3831907 L6.17196801,5.5740698 C5.9034596,5.84790219 5.46706202,5.84897739 5.19724674,5.57647134 C4.92743145,5.3039653 4.92637202,4.86107049 5.19488043,4.58723811 L9.49085833,0.206079767 C9.62686828,0.0673730246 9.80598176,-0.00136391474 9.98471002,2.04996414e-05 Z M2.64228681e-06,12.7509492 C1.68184154e-06,12.3646285 0.3085815,12.0514528 0.689234956,12.0514519 C1.06988841,12.0514509 1.37846979,12.3646249 1.37847075,12.7509457 L1.37848021,17.6644834 C1.37755618,17.9967232 1.44266621,18.235573 1.56028228,18.400218 C1.64140402,18.5137764 1.78414309,18.5838993 1.99909415,18.6010088 L17.8165968,18.6020475 C18.2362406,18.5788121 18.4438468,18.5018725 18.4715409,18.4616506 C18.5561601,18.3387527 18.6177678,18.0692372 18.6215319,17.662509 L18.6215319,12.7509475 C18.6215319,12.3646267 18.9301125,12.0514519 19.3107659,12.0514519 C19.6914194,12.0514519 20,12.3646267 20,12.7509475 L19.9999701,17.6690264 C19.9938202,18.3388667 19.8725879,18.8692232 19.6014711,19.2629832 C19.2734293,19.7394192 18.692794,19.9546046 17.8541437,20 L1.95063965,19.9982693 C1.30493215,19.9520847 0.783122117,19.6957368 0.444258688,19.2213785 C0.141889579,18.7981068 -0.00168144063,18.2714304 1.48530884e-05,17.6625107 L2.64228681e-06,12.7509492 Z"/>
</svg>
