<svg xmlns="http://www.w3.org/2000/svg" width="24" height="24" viewBox="0 0 24 24">
  <g fill="none" fill-rule="evenodd" transform="translate(-740 -692)">
    <path fill="#555" d="M6.35519042,5.31018136 C6.13150082,5.31018136 5.90781122,5.22507256 5.73761261,5.05242327 C5.39478399,4.71198806 5.39478399,4.15756501 5.73761261,3.81469812 L9.29719492,0.257150168 C9.63759214,-0.0857167226 10.1919533,-0.0857167226 10.5347819,0.257150168 L14.0943643,3.81469812 C14.4371929,4.15513333 14.4371929,4.70955638 14.0943643,5.05242327 C13.9217342,5.22264088 13.700476,5.30774968 13.474355,5.30774968 C13.248234,5.30774968 13.0245444,5.22264088 12.8543458,5.05242327 L10.7900799,2.98792689 L10.7900799,13.9061704 C10.7900799,14.3900748 10.3986231,14.7815753 9.91477273,14.7815753 C9.4309224,14.7815753 9.0394656,14.3900748 9.0394656,13.9061704 L9.0394656,2.98792689 L6.97519963,5.05485495 C6.80256962,5.22507256 6.57888002,5.31018136 6.35519042,5.31018136 Z M19.2276786,12.8675075 C19.6540179,12.8675075 20,13.2135283 20,13.6376828 L20,18.6136846 C20,19.3771626 19.3794643,20 18.6138393,20 L1.38616071,20 C0.622767857,20 0,19.379395 0,18.6136846 L0,13.6376828 C0,13.2135283 0.34375,12.8652751 0.770089286,12.8652751 C1.19642857,12.8652751 1.54241071,13.2112959 1.54241071,13.6376828 L1.54241071,18.0020092 C1.54241071,18.2565018 1.75,18.4618819 2.00223214,18.4618819 L17.9955357,18.4618819 C18.25,18.4618819 18.4553571,18.2542694 18.4553571,18.0020092 L18.4553571,13.6399152 C18.4553571,13.2135283 18.8013393,12.8675075 19.2276786,12.8675075 Z" transform="translate(742 694)"/>
  </g>
</svg>
