<svg xmlns="http://www.w3.org/2000/svg" width="24" height="24" viewBox="0 0 24 24">
  <g fill="none" fill-rule="evenodd" transform="translate(-744 -696)">
    <path fill="#555" fill-rule="nonzero" d="M11.983181,1.00002255 C11.9851346,1.00000753 11.9870899,1 11.9890469,1 C12.2375201,1 12.4580756,1.12130912 12.5963498,1.30875429 L17.3019839,6.0422293 C17.5993744,6.34137929 17.6015056,6.82856021 17.3067441,7.13037833 C17.0119826,7.43219646 16.5319486,7.43435941 16.2345581,7.13520941 L12.7472044,3.62722278 L12.7472044,14.234351 C12.7472044,14.6593038 12.4077657,15.0037961 11.9890469,15.0037961 C11.5703281,15.0037961 11.2308895,14.6593038 11.2308895,14.234351 L11.2308895,3.62150977 L7.78916481,7.13147678 C7.49380556,7.4326924 7.01376823,7.43387513 6.71697141,7.13411848 C6.4201746,6.83436183 6.41900922,6.34717754 6.71436847,6.04596192 L11.4399442,1.22668774 C11.5895551,1.07411033 11.7865799,0.998499694 11.983181,1.00002255 Z M1.00000291,15.0260441 C1.00000185,14.6010913 1.33943965,14.2565981 1.75815845,14.2565971 C2.17687725,14.256596 2.51631677,14.6010874 2.51631782,15.0260403 L2.51632823,20.4309317 C2.5153118,20.7963955 2.58693283,21.0591303 2.7163105,21.2402398 C2.80554442,21.365154 2.9625574,21.4422892 3.19900356,21.4611097 L20.5982565,21.4622523 C21.0598647,21.4366933 21.2882315,21.3520597 21.318695,21.3078156 C21.4117762,21.172628 21.4795445,20.8761609 21.4836851,20.4287598 L21.4836851,15.0260422 C21.4836851,14.6010894 21.8231237,14.2565971 22.2418425,14.2565971 C22.6605613,14.2565971 23,14.6010894 23,15.0260422 L22.9999671,20.4359291 C22.9932022,21.1727534 22.8598467,21.7561455 22.5616183,22.1892815 C22.2007722,22.7133611 21.5620734,22.9500651 20.6395581,23 L3.14570362,22.9980962 C2.43542537,22.9472931 1.86143433,22.6653105 1.48868456,22.1435163 C1.15607854,21.6779174 0.998150415,21.0985734 1.00001634,20.4287618 L1.00000291,15.0260441 Z" transform="translate(744 696)"/>
  </g>
</svg>
