<svg xmlns="http://www.w3.org/2000/svg" width="24" height="24" viewBox="0 0 24 24">
  <path fill="#555" d="M11.98471,2.0000205 C11.986486,2.00000684 11.9882635,2 11.9900427,2 C12.2159273,2 12.4164323,2.11028102 12.5421361,2.28068572 L16.8199853,6.58384481 C17.0903403,6.85579935 17.0922778,7.2986911 16.8243128,7.57307121 C16.5563478,7.84745133 16.1199533,7.84941764 15.8495983,7.5774631 L12.6792767,4.38838435 L12.6792767,14.0312282 C12.6792767,14.4175489 12.3706961,14.7307237 11.9900427,14.7307237 C11.6093892,14.7307237 11.3008086,14.4175489 11.3008086,14.0312282 L11.3008086,4.3831907 L8.17196801,7.5740698 C7.9034596,7.84790219 7.46706202,7.84897739 7.19724674,7.57647134 C6.92743145,7.3039653 6.92637202,6.86107049 7.19488043,6.58723811 L11.4908583,2.20607977 C11.6268683,2.06737302 11.8059818,1.99863609 11.98471,2.0000205 Z M2.00000264,14.7509492 C2.00000168,14.3646285 2.3085815,14.0514528 2.68923496,14.0514519 C3.06988841,14.0514509 3.37846979,14.3646249 3.37847075,14.7509457 L3.37848021,19.6644834 C3.37755618,19.9967232 3.44266621,20.235573 3.56028228,20.400218 C3.64140402,20.5137764 3.78414309,20.5838993 3.99909415,20.6010088 L19.8165968,20.6020475 C20.2362406,20.5788121 20.4438468,20.5018725 20.4715409,20.4616506 C20.5561601,20.3387527 20.6177678,20.0692372 20.6215319,19.662509 L20.6215319,14.7509475 C20.6215319,14.3646267 20.9301125,14.0514519 21.3107659,14.0514519 C21.6914194,14.0514519 22,14.3646267 22,14.7509475 L21.9999701,19.6690264 C21.9938202,20.3388667 21.8725879,20.8692232 21.6014711,21.2629832 C21.2734293,21.7394192 20.692794,21.9546046 19.8541437,22 L3.95063965,21.9982693 C3.30493215,21.9520847 2.78312212,21.6957368 2.44425869,21.2213785 C2.14188958,20.7981068 1.99831856,20.2714304 2.00001485,19.6625107 L2.00000264,14.7509492 Z"/>
</svg>
