<svg xmlns="http://www.w3.org/2000/svg" width="24" height="24" viewBox="0 0 24 24">
  <g fill="none" fill-rule="evenodd" transform="translate(-480 -720)">
    <path fill="#555" d="M0.017791256,22.8075425 C0.461630545,18.128485 3.4896652,14.2389601 7.59724677,12.7038018 C5.88546468,11.4346829 4.76923025,9.35291093 4.76923025,7 C4.76923025,3.13400675 7.78269851,0 11.5,0 C15.2173015,0 18.2307697,3.13400675 18.2307697,7 C18.2307697,9.35291093 17.1145353,11.4346829 15.4027532,12.7038018 C19.5103348,14.2389601 22.5383695,18.128485 22.9822087,22.8075425 C22.9938833,22.8698218 23,22.934168 23,23 C23,23.5522847 22.5695045,24 22.0384615,24 C21.5074184,24 21.0769229,23.5522847 21.0769229,23 L21.0679092,23 C20.5854818,17.9466773 16.485912,14 11.5,14 C6.51408798,14 2.41451822,17.9466773 1.93209085,23 L1.92307707,23 C1.92307707,23.5522847 1.4925816,24 0.961538535,24 C0.430495466,24 0,23.5522847 0,23 C0,22.934168 0.00611668992,22.8698218 0.0177912559,22.8075425 Z M11.5,12 C14.1552153,12 16.3076927,9.76142375 16.3076927,7 C16.3076927,4.23857625 14.1552153,2 11.5,2 C8.84478465,2 6.69230732,4.23857625 6.69230732,7 C6.69230732,9.76142375 8.84478465,12 11.5,12 Z" transform="translate(481 720)"/>
  </g>
</svg>
