<svg xmlns="http://www.w3.org/2000/svg" width="24" height="24" viewBox="0 0 24 24">
  <path fill="#555" d="M11.9929626,12.5729355 C14.478244,12.5729355 16.4929626,10.5582169 16.4929626,8.0729355 C16.4929626,5.58765413 14.478244,3.5729355 11.9929626,3.5729355 C9.5076812,3.5729355 7.49296258,5.58765413 7.49296258,8.0729355 C7.49296258,10.5582169 9.5076812,12.5729355 11.9929626,12.5729355 Z M8.97772446,13.1843571 C7.19661177,12.1437956 6,10.2116396 6,8 C6,4.6862915 8.6862915,2 12,2 C15.3137085,2 18,4.6862915 18,8 C18,10.2038422 16.811811,12.130168 15.0410924,13.173318 C18.7283984,14.2843151 21.4977595,17.3930799 21.9947005,21.2523727 C22.0418583,21.6186047 21.7690435,21.9519836 21.3853517,21.9969955 C21.0016598,22.0420074 20.6523872,21.7816071 20.6052294,21.4153751 C20.0656064,17.2246108 16.4363723,14.0699838 12.034634,14.0699838 C7.6099956,14.0699838 3.93381693,17.231487 3.39476476,21.4154211 C3.34758036,21.7816499 2.99828877,22.0420271 2.61460018,21.9969899 C2.23091158,21.9519526 1.95812104,21.6185555 2.00530545,21.2523267 C2.50054889,17.4084206 5.28520882,14.3053417 8.97772446,13.1843571 Z"/>
</svg>
