<svg xmlns="http://www.w3.org/2000/svg" width="20" height="20" viewBox="0 0 20 20">
  <path fill="#555" d="M9.99296258,10.5729355 C12.478244,10.5729355 14.4929626,8.55821687 14.4929626,6.0729355 C14.4929626,3.58765413 12.478244,1.5729355 9.99296258,1.5729355 C7.5076812,1.5729355 5.49296258,3.58765413 5.49296258,6.0729355 C5.49296258,8.55821687 7.5076812,10.5729355 9.99296258,10.5729355 Z M6.97772446,11.1843571 C5.19661177,10.1437956 4,8.21163965 4,6 C4,2.6862915 6.6862915,0 10,0 C13.3137085,0 16,2.6862915 16,6 C16,8.20384219 14.811811,10.130168 13.0410924,11.173318 C16.7283984,12.2843151 19.4977595,15.3930799 19.9947005,19.2523727 C20.0418583,19.6186047 19.7690435,19.9519836 19.3853517,19.9969955 C19.0016598,20.0420074 18.6523872,19.7816071 18.6052294,19.4153751 C18.0656064,15.2246108 14.4363723,12.0699838 10.034634,12.0699838 C5.6099956,12.0699838 1.93381693,15.231487 1.39476476,19.4154211 C1.34758036,19.7816499 0.998288773,20.0420271 0.614600177,19.9969899 C0.230911582,19.9519526 -0.0418789616,19.6185555 0.00530544566,19.2523267 C0.500548891,15.4084206 3.28520882,12.3053417 6.97772446,11.1843571 Z"/>
</svg>
