<svg xmlns="http://www.w3.org/2000/svg" width="24" height="24" viewBox="0 0 24 24">
  <path fill="#555" d="M18.6322324,17.4152539 L19.8192835,16.2393646 C20.088619,15.9725618 20.5261801,15.9716914 20.7966038,16.2374206 C21.0670274,16.5031499 21.0679096,16.9348524 20.7985741,17.2016552 L19.6075902,18.3814403 L20.7985741,19.5612253 C21.0679096,19.8280282 21.0670274,20.2597307 20.7966038,20.5254599 C20.5261801,20.7911891 20.088619,20.7903187 19.8192835,20.5235159 L18.6322324,19.3476267 L17.4451813,20.5235159 C17.1758458,20.7903187 16.7382847,20.7911891 16.467861,20.5254599 C16.1974374,20.2597307 16.1965552,19.8280282 16.4658907,19.5612253 L17.6568746,18.3814403 L16.4658907,17.2016552 C16.1965552,16.9348524 16.1974374,16.5031499 16.467861,16.2374206 C16.7382847,15.9716914 17.1758458,15.9725618 17.4451813,16.2393646 L18.6322324,17.4152539 Z M14.9852931,12.9646757 C14.2558517,13.285832 13.4470666,13.4644715 12.5957552,13.4644715 C11.6560883,13.4644715 10.7682329,13.2468265 9.98170142,12.8601143 C9.96735686,12.8667228 9.95268803,12.8729033 9.93770472,12.878634 C7.96079356,13.634739 6.51865654,14.752929 5.5873929,16.2369477 C4.65301446,17.7259301 4.27132031,19.3895789 4.44152848,21.2506112 C4.47613463,21.6289901 4.19155082,21.9632511 3.80589275,21.9972041 C3.42023467,22.031157 3.0795432,21.7519447 3.04493705,21.3735658 C2.84812174,19.2216146 3.29785495,17.2614114 4.39335469,15.5156736 C5.35666809,13.9805818 6.77184306,12.7862297 8.62276648,11.9351412 C7.47284319,10.8882826 6.75324355,9.39270875 6.75324355,7.73223573 C6.75324355,4.56640935 9.36902513,2 12.5957552,2 C15.8224853,2 18.4382669,4.56640935 18.4382669,7.73223573 C18.4382669,9.47600338 17.6446617,11.0379132 16.3924805,12.0892593 C16.6649655,12.223711 16.9137727,12.3582402 17.1390658,12.4930662 C17.6237777,12.7831407 18.1267346,13.1427602 18.6489931,13.5717392 C18.9458898,13.8156078 18.9850743,14.2494418 18.7365142,14.5407346 C18.4879541,14.8320274 18.045774,14.8704723 17.7488774,14.6266038 C17.277781,14.2396488 16.8307666,13.9200289 16.4088906,13.6675584 C16.0274883,13.4393092 15.5525457,13.2044658 14.9852931,12.9646757 Z M12.5957552,12.0887349 C15.0480701,12.0887349 17.0360641,10.1382638 17.0360641,7.73223573 C17.0360641,5.32620768 15.0480701,3.37573658 12.5957552,3.37573658 C10.1434404,3.37573658 8.15544635,5.32620768 8.15544635,7.73223573 C8.15544635,10.1382638 10.1434404,12.0887349 12.5957552,12.0887349 Z"/>
</svg>
