<svg xmlns="http://www.w3.org/2000/svg" width="24" height="24" viewBox="0 0 24 24">
  <g fill="none" fill-rule="evenodd" transform="translate(-360 -984)">
    <path fill="#555" fill-rule="nonzero" d="M18.9652201,17.9567792 L20.2534931,16.6633011 C20.5457952,16.369818 21.020668,16.3688606 21.3141511,16.6611627 C21.6076343,16.9534648 21.6085916,17.4283376 21.3162895,17.7218207 L20.0237483,19.0195843 L21.3162895,20.3173478 C21.6085916,20.610831 21.6076343,21.0857037 21.3141511,21.3780059 C21.020668,21.670308 20.5457952,21.6693506 20.2534931,21.3758675 L18.9652201,20.0823893 L17.676947,21.3758675 C17.3846449,21.6693506 16.9097721,21.670308 16.616289,21.3780059 C16.3228059,21.0857037 16.3218485,20.610831 16.6141506,20.3173478 L17.9066918,19.0195843 L16.6141506,17.7218207 C16.3218485,17.4283376 16.3228059,16.9534648 16.616289,16.6611627 C16.9097721,16.3688606 17.3846449,16.369818 17.676947,16.6633011 L18.9652201,17.9567792 Z M15.0072999,13.0611432 C14.2156578,13.4144152 13.3379061,13.6109186 12.414002,13.6109186 C11.394208,13.6109186 10.4306437,13.3715092 9.57704325,12.9461257 C9.56147551,12.9533951 9.54555584,12.9601937 9.52929488,12.9664973 C7.38380905,13.7982129 5.81869851,15.0282219 4.8080244,16.6606425 C3.79396988,18.2985231 3.37972801,20.1285367 3.56445012,22.1756723 C3.6020072,22.5918891 3.29315643,22.9595762 2.87461262,22.9969245 C2.45606882,23.0342727 2.08632599,22.7271392 2.04876891,22.3109224 C1.83517082,19.9437761 2.32325356,17.7875526 3.51216847,15.8672409 C4.55762528,14.1786399 6.09347468,12.8648526 8.10222956,11.9286554 C6.85425032,10.7771108 6.07328916,9.13197963 6.07328916,7.3054593 C6.07328916,3.82305029 8.91212298,1 12.414002,1 C15.915881,1 18.7547148,3.82305029 18.7547148,7.3054593 C18.7547148,9.22360372 17.8934375,10.9417045 16.5344806,12.0981853 C16.8302009,12.2460821 17.1002243,12.3940642 17.3447286,12.5423729 C17.8707726,12.8614548 18.4166176,13.2570362 18.98341,13.7289132 C19.3056235,13.9971686 19.3481494,14.474386 19.0783941,14.7948081 C18.8086389,15.1152302 18.3287534,15.1575196 18.0065398,14.8892641 C17.4952722,14.4636137 17.0101401,14.1120318 16.55229,13.8343142 C16.1383649,13.5832401 15.6229231,13.3249123 15.0072999,13.0611432 Z M12.414002,12.0976084 C15.07543,12.0976084 17.2329437,9.95209015 17.2329437,7.3054593 C17.2329437,4.65882845 15.07543,2.51331023 12.414002,2.51331023 C9.75257394,2.51331023 7.59506023,4.65882845 7.59506023,7.3054593 C7.59506023,9.95209015 9.75257394,12.0976084 12.414002,12.0976084 Z" transform="translate(360 984)"/>
  </g>
</svg>
