<svg xmlns="http://www.w3.org/2000/svg" width="24" height="24" viewBox="0 0 24 24">
  <g fill="none" fill-rule="evenodd" transform="translate(-408 -792)">
    <path fill="#555" fill-rule="nonzero" d="M9.08059945,12.0866036 C7.123595,11.1455682 5.77304475,9.1452815 5.77304475,6.83006391 C5.77304475,3.61053206 8.38468029,1 11.6070221,1 C14.8293639,1 17.4409995,3.61053206 17.4409995,6.83006391 C17.4409995,9.17386812 16.0568921,11.1949163 14.0606778,12.1209754 C18.4460037,13.2202696 21.7528814,17.0783556 21.9868068,21.7700195 C21.9955934,21.9462448 22,22.1230722 22,22.3003923 C22,22.686775 21.6859938,23 21.2986475,23 C20.9113013,23 20.5972951,22.686775 20.5972951,22.3003923 C20.5972951,22.1462541 20.593466,21.9926023 20.5858336,21.8395246 C20.3452198,17.0137159 16.3524296,13.2054926 11.5,13.2054926 C6.64695034,13.2054926 2.65385644,17.0146566 2.41408349,21.8411914 C2.40650628,21.9937177 2.40270494,22.1468136 2.40270494,22.3003923 C2.40270494,22.686775 2.08869874,23 1.70135247,23 C1.3140062,23 1,22.686775 1,22.3003923 C1,22.1237161 1.00437469,21.947529 1.01309766,21.771939 C1.24870723,17.0292115 4.62454319,13.1378676 9.08059945,12.0866036 Z M11.6070221,11.2609125 C14.0540212,11.2609125 16.0382945,9.27747754 16.0382945,6.83006391 C16.0382945,4.38265027 14.0540212,2.39921534 11.6070221,2.39921534 C9.16002302,2.39921534 7.17574969,4.38265027 7.17574969,6.83006391 C7.17574969,9.27747754 9.16002302,11.2609125 11.6070221,11.2609125 Z" transform="translate(409 792)"/>
  </g>
</svg>
