<svg xmlns="http://www.w3.org/2000/svg" width="24" height="24" viewBox="0 0 24 24">
  <path fill="#555" d="M19.1927866,17.4231243 L21.3059875,17.4180829 C21.6875324,17.4235078 21.9982523,17.7371807 22,18.118691 C22.0017477,18.5002013 21.6938612,18.8050788 21.3123163,18.7996538 L19.1927866,18.8047103 L19.1927866,21.1743938 C19.1982115,21.5559386 18.893334,21.8638251 18.5118238,21.8620775 C18.1303135,21.8603298 17.8166405,21.5496098 17.8112156,21.168065 L17.8112156,18.8080063 L15.301733,18.8139931 C14.9201881,18.8085682 14.6094682,18.4948952 14.6077205,18.1133849 C14.6059728,17.7318746 14.9138593,17.4269972 15.2954042,17.4324221 L17.8112156,17.4264202 L17.8112156,15.1574816 C17.8057907,14.7759368 18.1106681,14.4680503 18.4921784,14.469798 C18.8736887,14.4715456 19.1873616,14.7822656 19.1927866,15.1638104 L19.1927866,17.4231243 Z M14.6092723,12.7221074 C12.4269351,12.7221074 10.6578012,10.9859229 10.6578012,8.84423068 C10.6578012,6.7025385 12.4269351,4.96635395 14.6092723,4.96635395 C16.7916095,4.96635395 18.5607434,6.7025385 18.5607434,8.84423068 C18.5607434,10.9859229 16.7916095,12.7221074 14.6092723,12.7221074 Z M14.6092723,11.353445 C16.0213729,11.353445 17.1661065,10.2300315 17.1661065,8.84423068 C17.1661065,7.45842986 16.0213729,6.33501632 14.6092723,6.33501632 C13.1971718,6.33501632 12.0524381,7.45842986 12.0524381,8.84423068 C12.0524381,10.2300315 13.1971718,11.353445 14.6092723,11.353445 Z M13.1625902,3.52057247 C13.3968713,3.82054038 13.3390068,4.25009761 13.0333461,4.4800154 C12.7276854,4.70993319 12.289976,4.65314634 12.0556948,4.35317843 C11.5741293,3.73659357 10.8311908,3.36866238 10.024814,3.36866238 C8.6127134,3.36866238 7.46797973,4.49207591 7.46797973,5.87787673 C7.46797973,7.08986403 8.35031358,8.12282783 9.5489833,8.34384426 C9.92747905,8.41363311 10.1766618,8.77132498 10.1055485,9.14277141 C10.0344351,9.51421785 9.669955,9.75875964 9.29145926,9.68897079 C7.43632189,9.34691172 6.07334288,7.75124816 6.07334288,5.87787673 C6.07334288,3.73618455 7.84247674,2 10.024814,2 C11.2697197,2 12.4198525,2.56958919 13.1625902,3.52057247 Z M16.9012279,13.5291825 C17.2643672,13.6550359 17.4547893,14.04596 17.3265475,14.402336 C17.1983057,14.7587121 16.7999626,14.9455876 16.4368233,14.8197343 C15.7716638,14.5892097 15.0678099,14.4699988 14.3463805,14.4699988 C10.8803156,14.4699988 8.07051471,17.2274683 8.07051471,20.6289795 C8.07051471,20.8367718 8.0809751,21.0431943 8.10174374,21.247776 C8.13992287,21.6238599 7.860211,21.95911 7.47698981,21.996578 C7.09376861,22.0340461 6.75215616,21.7595437 6.71397703,21.3834599 C6.68863298,21.133808 6.67587786,20.8821019 6.67587786,20.6289795 C6.67587786,16.471577 10.1100789,13.1013364 14.3463805,13.1013364 C15.2265567,13.1013364 16.0874144,13.2471388 16.9012279,13.5291825 Z M9.67050268,10.2199059 C10.055621,10.2199059 10.3678211,10.5262914 10.3678211,10.9042371 C10.3678211,11.2821827 10.055621,11.5885682 9.67050268,11.5885682 C6.20443769,11.5885682 3.39463685,14.3460378 3.39463685,17.7475489 C3.39463685,17.9553413 3.40509723,18.1617638 3.42586588,18.3663455 C3.464045,18.7424294 3.18433314,19.0776795 2.80111194,19.1151475 C2.41789075,19.1526156 2.07627829,18.8781132 2.03809917,18.5020293 C2.01275511,18.2523775 2,18.0006714 2,17.7475489 C2,13.5901465 5.43420103,10.2199059 9.67050268,10.2199059 Z"/>
</svg>
