<svg xmlns="http://www.w3.org/2000/svg" width="24" height="24" viewBox="0 0 24 24">
  <path fill="#555" d="M18.3448025,18.3446579 L18.3448025,15.9813821 C18.3448025,15.5581262 18.6863083,15.2150095 19.1075771,15.2150095 C19.5288459,15.2150095 19.8703517,15.5581262 19.8703517,15.9813821 L19.8703517,18.3446579 L22.2336274,18.3446579 C22.6568833,18.3446579 23,18.6861637 23,19.1074324 C23,19.5287012 22.6568833,19.870207 22.2336274,19.870207 L19.8703517,19.870207 L19.8703517,22.2334827 C19.8703517,22.6567386 19.5288459,22.9998553 19.1075771,22.9998553 C18.6863083,22.9998553 18.3448025,22.6567386 18.3448025,22.2334827 L18.3448025,19.870207 L15.9815268,19.870207 C15.5582709,19.870207 15.2151542,19.5287012 15.2151542,19.1074324 C15.2151542,18.6861637 15.5582709,18.3446579 15.9815268,18.3446579 L18.3448025,18.3446579 Z M7.47140196,22.2570502 C7.46039856,22.6781765 7.10847782,23.0106888 6.68536497,22.9997371 C6.26225212,22.9887853 5.9281714,22.6385168 5.93917479,22.2173904 C6.01865993,19.1753032 7.20272936,16.7673364 9.47314668,15.0603702 C11.7458771,13.3516649 14.5349182,12.893294 17.7752824,13.6682629 C18.0496435,13.7338794 18.3938926,13.8613497 18.8080298,14.0506738 C18.2590081,14.1830793 17.8161672,14.328986 17.4795071,14.4883939 C17.142847,14.6478019 16.8429994,14.8141105 16.5799642,14.9873198 C16.5053816,14.9700867 16.4574123,14.9597947 16.4360562,14.9564438 C14.0579,14.5832994 12.059711,15.0275836 10.3969962,16.2776613 C8.50815392,17.6977482 7.53903465,19.6685845 7.47140196,22.2570502 Z M2.53249135,18.9554679 C2.52148796,19.3765943 2.16956721,19.7091065 1.74645436,19.6981548 C1.32334151,19.6872031 0.989260793,19.3369346 1.00026419,18.9158082 C1.07974933,15.8737209 2.26381875,13.4657542 4.53423608,11.7587879 C6.00651763,10.6518835 7.69546829,10.0696804 9.58342123,10.0075584 C9.61216082,10.0066128 9.6553739,10.0054654 9.71306046,10.0041164 C9.78669662,10.2762297 9.86609616,10.5188531 9.95125907,10.7319868 C10.036422,10.9451205 10.1872995,11.2189167 10.4038916,11.5533755 C10.2818217,11.5387991 10.1974055,11.5309326 10.1506431,11.529776 C8.35343595,11.4853222 6.7969942,11.9694483 5.45808556,12.9760791 C3.56924331,14.396166 2.60012405,16.3670022 2.53249135,18.9554679 Z M13.6258585,3.2467845 L12.2818764,3.98022367 C11.7915302,3.09011171 10.8539042,2.52554914 9.81578333,2.52554914 C8.26384502,2.52554914 7.00575045,3.7777371 7.00575045,5.32238924 C7.00575045,6.82761005 8.25873576,8.12349958 9.59662264,8.12349958 L9.59662264,9.64904872 C7.39878471,9.64904872 5.47300525,7.6573275 5.47300525,5.32238924 C5.47300525,2.93519958 7.41733322,1 9.81578333,1 C11.4192298,1 12.8690449,1.87296143 13.6258585,3.2467845 Z M14.9141561,12.9933684 C12.515706,12.9933684 10.571378,11.0581689 10.571378,8.6709792 C10.571378,6.28378954 12.515706,4.34858996 14.9141561,4.34858996 C17.3126062,4.34858996 19.2569342,6.28378954 19.2569342,8.6709792 C19.2569342,11.0581689 17.3126062,12.9933684 14.9141561,12.9933684 Z M14.9141561,11.4678193 C16.4660944,11.4678193 17.724189,10.2156313 17.724189,8.6709792 C17.724189,7.12632707 16.4660944,5.87413911 14.9141561,5.87413911 C13.3622178,5.87413911 12.1041232,7.12632707 12.1041232,8.6709792 C12.1041232,10.2156313 13.3622178,11.4678193 14.9141561,11.4678193 Z"/>
</svg>
