<svg xmlns="http://www.w3.org/2000/svg" width="24" height="24" viewBox="0 0 24 24">
  <g fill="none" fill-rule="evenodd" transform="translate(-312 -984)">
    <path fill="#555" fill-rule="nonzero" d="M12.8400249,11.9727146 C12.114353,12.2965472 11.3097473,12.4766754 10.4628351,12.4766754 C9.52802398,12.4766754 8.6447567,12.2572167 7.86228964,11.8672819 C7.84801921,11.8739455 7.83342619,11.8801775 7.81852031,11.8859559 C5.85182497,12.6483618 4.4171403,13.7758701 3.49068903,15.2722556 C2.56113906,16.7736462 2.18141734,18.4511587 2.35074594,20.3276997 C2.38517326,20.7092317 2.10206006,21.0462782 1.7183949,21.0805141 C1.33472975,21.11475 0.995798824,20.8332109 0.9613715,20.4516789 C0.765573248,18.2817947 1.21298243,16.3052565 2.30282109,14.5449709 C3.26115651,12.9970866 4.66901845,11.7927816 6.5103771,10.9346007 C5.36639612,9.87901827 4.65051506,8.37098133 4.65051506,6.69667103 C4.65051506,3.50446277 7.2527794,0.916666667 10.4628351,0.916666667 C13.6728909,0.916666667 16.2751552,3.50446277 16.2751552,6.69667103 C16.2751552,8.45497008 15.485651,10.0298958 14.2399406,11.0900032 C14.5110175,11.2255753 14.7585389,11.3612255 14.9826678,11.4971751 C15.4648749,11.7896669 15.9652328,12.1522832 16.4847925,12.5848371 C16.7801549,12.8307379 16.8191369,13.2681872 16.5718613,13.5619074 C16.3245857,13.8556277 15.8846906,13.894393 15.5893282,13.6484921 C15.1206662,13.2583126 14.6759618,12.9360291 14.2562659,12.6814547 C13.8768345,12.4513035 13.4043462,12.214503 12.8400249,11.9727146 Z M17.2317931,16.1794607 L17.2317931,14.4126 C17.2317931,14.0273933 17.5423287,13.7151216 17.9253937,13.7151216 C18.3084586,13.7151216 18.6189942,14.0273933 18.6189942,14.4126 L18.6189942,16.1794607 L20.3858549,16.1794607 C20.7710616,16.1794607 21.0833333,16.4899963 21.0833333,16.8730613 C21.0833333,17.2561263 20.7710616,17.5666618 20.3858549,17.5666618 L18.6189942,17.5666618 L18.6189942,19.3335225 C18.6189942,19.7187292 18.3084586,20.0310009 17.9253937,20.0310009 C17.5423287,20.0310009 17.2317931,19.7187292 17.2317931,19.3335225 L17.2317931,17.5666618 L15.4649324,17.5666618 C15.0797257,17.5666618 14.767454,17.2561263 14.767454,16.8730613 C14.767454,16.4899963 15.0797257,16.1794607 15.4649324,16.1794607 L17.2317931,16.1794607 Z M10.4628351,11.0894743 C12.9024775,11.0894743 14.8801984,9.12274931 14.8801984,6.69667103 C14.8801984,4.27059275 12.9024775,2.30386771 10.4628351,2.30386771 C8.02319278,2.30386771 6.04547188,4.27059275 6.04547188,6.69667103 C6.04547188,9.12274931 8.02319278,11.0894743 10.4628351,11.0894743 Z" transform="translate(313 985)"/>
  </g>
</svg>
