<svg xmlns="http://www.w3.org/2000/svg" width="24" height="24" viewBox="0 0 24 24">
  <path fill="#555" d="M13.8248181,12.9646757 C13.1051434,13.285832 12.3071874,13.4644715 11.4672745,13.4644715 C10.5401891,13.4644715 9.66422152,13.2468265 8.88822113,12.8601143 C8.87406864,12.8667228 8.85959622,12.8729033 8.84481353,12.878634 C6.89437187,13.634739 5.4715441,14.752929 4.55274945,16.2369477 C3.63088171,17.7259301 3.25429819,19.3895789 3.42222738,21.2506112 C3.45637018,21.6289901 3.17559676,21.9632511 2.79510239,21.9972041 C2.41460801,22.031157 2.07847817,21.7519447 2.04433537,21.3735658 C1.85015529,19.2216146 2.29386687,17.2614114 3.37469861,15.5156736 C4.3251139,13.9805818 5.72134062,12.7862297 7.54748142,11.9351412 C6.41295483,10.8882826 5.70299014,9.39270875 5.70299014,7.73223573 C5.70299014,4.56640935 8.28374817,2 11.4672745,2 C14.6508009,2 17.2315589,4.56640935 17.2315589,7.73223573 C17.2315589,9.47600338 16.4485795,11.0379132 15.2131642,12.0892593 C15.4820008,12.223711 15.7274766,12.3582402 15.9497532,12.4930662 C16.4279751,12.7831407 16.9241978,13.1427602 17.4394636,13.5717392 C17.732385,13.8156078 17.7710449,14.2494418 17.5258128,14.5407346 C17.2805808,14.8320274 16.8443213,14.8704723 16.5513999,14.6266038 C16.0866111,14.2396488 15.6455819,13.9200289 15.2293546,13.6675584 C14.853059,13.4393092 14.3844756,13.2044658 13.8248181,12.9646757 Z M18.1802907,17.1366553 L18.1802907,15.3843967 C18.1802907,15.0023735 18.4882598,14.6926826 18.868159,14.6926826 C19.2480582,14.6926826 19.5560273,15.0023735 19.5560273,15.3843967 L19.5560273,17.1366553 L21.3082859,17.1366553 C21.690309,17.1366553 22,17.4446244 22,17.8245236 C22,18.2044227 21.690309,18.5123919 21.3082859,18.5123919 L19.5560273,18.5123919 L19.5560273,20.2646504 C19.5560273,20.6466736 19.2480582,20.9563646 18.868159,20.9563646 C18.4882598,20.9563646 18.1802907,20.6466736 18.1802907,20.2646504 L18.1802907,18.5123919 L16.4280321,18.5123919 C16.046009,18.5123919 15.736318,18.2044227 15.736318,17.8245236 C15.736318,17.4446244 16.046009,17.1366553 16.4280321,17.1366553 L18.1802907,17.1366553 Z M11.4672745,12.0887349 C13.8867546,12.0887349 15.8481307,10.1382638 15.8481307,7.73223573 C15.8481307,5.32620768 13.8867546,3.37573658 11.4672745,3.37573658 C9.04779449,3.37573658 7.08641839,5.32620768 7.08641839,7.73223573 C7.08641839,10.1382638 9.04779449,12.0887349 11.4672745,12.0887349 Z"/>
</svg>
