<svg xmlns="http://www.w3.org/2000/svg" width="24" height="24" viewBox="0 0 24 24">
  <g fill="none" fill-rule="evenodd" transform="translate(-596 -932)">
    <path fill="#555" fill-rule="nonzero" d="M9.45012471,9.63283922 C9.35789376,9.1949829 9.31177829,8.75712657 9.31177829,8.31927024 C9.31177829,8.08224401 9.32094226,7.85426682 9.33927021,7.63533865 C8.63689607,7.54426454 8.05040185,7.22959179 7.57978753,6.69132041 C7.10917321,6.15304903 6.87357044,5.5280821 6.87297921,4.81641961 C6.87297921,4.03178107 7.15469746,3.36127708 7.71813395,2.80490764 C8.28157044,2.2485382 8.96059122,1.97035348 9.7551963,1.97035348 C10.2725173,1.97035348 10.7528868,2.09820753 11.1963048,2.35391562 C11.6397229,2.60962372 11.9814503,2.94706499 12.2214873,3.36623945 C12.8310393,3.0375553 13.4683788,2.81862714 14.1335058,2.70945496 C13.7267436,1.8886203 13.1307898,1.2318358 12.3456443,0.739101482 C11.5604988,0.246367161 10.6967206,-3.88894542e-16 9.75430947,0 C8.40572748,0 7.25550115,0.469673888 6.30363048,1.40902166 C5.35175982,2.34836944 4.87612009,3.48416876 4.87671132,4.81641961 C4.87671132,6.09379247 5.32012933,7.19748233 6.20696536,8.12748917 C7.09380139,9.05749601 8.17455889,9.55927936 9.44923788,9.63283922 L9.45012471,9.63283922 Z M19.3436674,14.0928438 C17.9950855,13.4541574 16.5723048,13.1348141 15.0753256,13.1348141 C12.3775704,13.1348141 10.0774134,14.0744538 8.1748545,15.9537332 C6.27229561,17.8330125 5.32072055,20.1043193 5.32012933,22.7676534 C5.32012933,23.0414595 5.41709007,23.2741072 5.61101155,23.4655964 C5.80493303,23.6570855 6.0405358,23.7528301 6.31781986,23.7528301 C6.59510393,23.7528301 6.8307067,23.6570855 7.02462818,23.4655964 C7.21854965,23.2741072 7.31551039,23.0414595 7.31551039,22.7676534 C7.31551039,20.6513478 8.07316397,18.8450445 9.58847113,17.3487434 C11.1037783,15.8524424 12.9330254,15.1042919 15.0762125,15.1042919 C15.5935335,15.1042919 16.1108545,15.1591699 16.6281755,15.2689259 C17.4411085,14.6670194 18.3465681,14.2747001 19.3445543,14.0919681 L19.3436674,14.0928438 Z M23.0018661,18.608894 L20.563067,18.608894 L20.563067,16.2006842 C20.563067,15.926878 20.4661062,15.6942303 20.2721848,15.5027412 C20.0782633,15.311252 19.8426605,15.2155074 19.5653764,15.2155074 C19.2880924,15.2155074 19.0524896,15.311252 18.8585681,15.5027412 C18.6646467,15.6942303 18.5676859,15.926878 18.5676859,16.2006842 L18.5676859,18.608894 L16.1288868,18.608894 C15.8516028,18.608894 15.616,18.7046385 15.4220785,18.8961277 C15.228157,19.0876169 15.1311963,19.3202645 15.1311963,19.5940707 C15.1311963,19.8678769 15.228157,20.1005245 15.4220785,20.2920137 C15.616,20.4835029 15.8516028,20.5792474 16.1288868,20.5792474 L18.5676859,20.5792474 L18.5676859,22.9874572 C18.5676859,23.2612634 18.6646467,23.4939111 18.8585681,23.6854002 C19.0524896,23.8768894 19.2880924,23.972634 19.5653764,23.972634 C19.8426605,23.972634 20.0782633,23.8768894 20.2721848,23.6854002 C20.4661062,23.4939111 20.563067,23.2612634 20.563067,22.9874572 L20.563067,20.5792474 L23.0018661,20.5792474 C23.2791501,20.5792474 23.5147529,20.4835029 23.7086744,20.2920137 C23.9025958,20.1005245 23.9995566,19.8678769 23.9995566,19.5940707 C23.9995566,19.3202645 23.9025958,19.0876169 23.7086744,18.8961277 C23.5147529,18.7046385 23.2791501,18.608894 23.0018661,18.608894 Z M19.9538106,8.31927024 C19.9538106,6.98760319 19.4781709,5.85180388 18.5268915,4.91187229 C17.575612,3.97194071 16.4253857,3.50226682 15.0762125,3.50285063 C13.7270393,3.50343444 12.5768129,3.97310832 11.6255335,4.91187229 C10.674254,5.85063626 10.1986143,6.98643558 10.1986143,8.31927024 C10.1986143,9.6521049 10.674254,10.7879042 11.6255335,11.7266682 C12.5768129,12.6654322 13.7270393,13.135106 15.0762125,13.1356899 C16.4253857,13.1362737 17.575612,12.6665998 18.5268915,11.7266682 C19.4781709,10.7867366 19.9538106,9.65093729 19.9538106,8.31927024 L19.9538106,8.31927024 Z M15.0762125,11.1653364 C14.2816074,11.1653364 13.6025866,10.8871517 13.0391501,10.3307822 C12.4757136,9.77441277 12.1939954,9.10390878 12.1939954,8.31927024 C12.1939954,7.5346317 12.4757136,6.86412771 13.0391501,6.30775827 C13.6025866,5.75138883 14.2816074,5.4732041 15.0762125,5.4732041 C15.8708176,5.4732041 16.5498383,5.75138883 17.1132748,6.30775827 C17.6767113,6.86412771 17.9584296,7.5346317 17.9584296,8.31927024 C17.9584296,9.10390878 17.6767113,9.77441277 17.1132748,10.3307822 C16.5498383,10.8871517 15.8708176,11.1653364 15.0762125,11.1653364 Z M10.3928314,11.6303398 C9.94941339,11.0284333 9.64463741,10.3625998 9.47850346,9.63283922 C7.7414873,9.68771722 6.14784296,10.1483421 4.69757044,11.0147138 C3.24729792,11.8810855 2.10180139,13.0440319 1.26108083,14.503553 C0.420360277,15.9630741 -3.93834311e-16,17.5504493 0,19.2656784 C0,19.5394846 0.096960739,19.7721323 0.290882217,19.9636214 C0.484803695,20.1551106 0.720406467,20.2508552 0.997690531,20.2508552 C1.2749746,20.2508552 1.51057737,20.1551106 1.70449885,19.9636214 C1.89842032,19.7721323 1.99538106,19.5394846 1.99538106,19.2656784 C1.99538106,17.1493729 2.75303464,15.3430696 4.2683418,13.8467685 C5.78364896,12.3504675 7.61289607,11.602317 9.75608314,11.602317 C9.9594642,11.602317 10.1720092,11.611366 10.3937182,11.6294641 L10.3928314,11.6303398 Z" transform="translate(596 932)"/>
  </g>
</svg>
