<svg xmlns="http://www.w3.org/2000/svg" width="20" height="20" viewBox="0 0 20 20">
  <path fill="#555" d="M11.8248181,10.9646757 C11.1051434,11.285832 10.3071874,11.4644715 9.46727453,11.4644715 C8.54018907,11.4644715 7.66422152,11.2468265 6.88822113,10.8601143 C6.87406864,10.8667228 6.85959622,10.8729033 6.84481353,10.878634 C4.89437187,11.634739 3.4715441,12.752929 2.55274945,14.2369477 C1.63088171,15.7259301 1.25429819,17.3895789 1.42222738,19.2506112 C1.45637018,19.6289901 1.17559676,19.9632511 0.795102385,19.9972041 C0.414608014,20.031157 0.078478173,19.7519447 0.0443353722,19.3735658 C-0.149844712,17.2216146 0.29386687,15.2614114 1.37469861,13.5156736 C2.3251139,11.9805818 3.72134062,10.7862297 5.54748142,9.93514123 C4.41295483,8.88828259 3.70299014,7.39270875 3.70299014,5.73223573 C3.70299014,2.56640935 6.28374817,0 9.46727453,0 C12.6508009,0 15.2315589,2.56640935 15.2315589,5.73223573 C15.2315589,7.47600338 14.4485795,9.03791315 13.2131642,10.0892593 C13.4820008,10.223711 13.7274766,10.3582402 13.9497532,10.4930662 C14.4279751,10.7831407 14.9241978,11.1427602 15.4394636,11.5717392 C15.732385,11.8156078 15.7710449,12.2494418 15.5258128,12.5407346 C15.2805808,12.8320274 14.8443213,12.8704723 14.5513999,12.6266038 C14.0866111,12.2396488 13.6455819,11.9200289 13.2293546,11.6675584 C12.853059,11.4393092 12.3844756,11.2044658 11.8248181,10.9646757 Z M16.1802907,15.1366553 L16.1802907,13.3843967 C16.1802907,13.0023735 16.4882598,12.6926826 16.868159,12.6926826 C17.2480582,12.6926826 17.5560273,13.0023735 17.5560273,13.3843967 L17.5560273,15.1366553 L19.3082859,15.1366553 C19.690309,15.1366553 20,15.4446244 20,15.8245236 C20,16.2044227 19.690309,16.5123919 19.3082859,16.5123919 L17.5560273,16.5123919 L17.5560273,18.2646504 C17.5560273,18.6466736 17.2480582,18.9563646 16.868159,18.9563646 C16.4882598,18.9563646 16.1802907,18.6466736 16.1802907,18.2646504 L16.1802907,16.5123919 L14.4280321,16.5123919 C14.046009,16.5123919 13.736318,16.2044227 13.736318,15.8245236 C13.736318,15.4446244 14.046009,15.1366553 14.4280321,15.1366553 L16.1802907,15.1366553 Z M9.46727453,10.0887349 C11.8867546,10.0887349 13.8481307,8.13826378 13.8481307,5.73223573 C13.8481307,3.32620768 11.8867546,1.37573658 9.46727453,1.37573658 C7.04779449,1.37573658 5.08641839,3.32620768 5.08641839,5.73223573 C5.08641839,8.13826378 7.04779449,10.0887349 9.46727453,10.0887349 Z"/>
</svg>
