<svg xmlns="http://www.w3.org/2000/svg" width="24" height="24" viewBox="0 0 24 24">
  <path fill="#555" d="M9.05014383,12.7425446 C7.35676592,11.7356093 6.22207743,9.88795858 6.22207743,7.77538308 C6.22207743,4.58572708 8.80874051,2 11.9995511,2 C15.1903617,2 17.7770248,4.58572708 17.7770248,7.77538308 C17.7770248,9.87992931 16.6509452,11.7215607 14.9682423,12.731027 C18.6918834,13.8744687 21.4944921,17.1464682 21.9947005,21.2148624 C22.0418583,21.5984154 21.7690435,21.9475617 21.3853517,21.9947024 C21.0016598,22.0418431 20.6523872,21.7691271 20.6052294,21.385574 C20.0656064,16.996606 16.4363723,13.6927799 12.034634,13.6927799 C7.6099956,13.6927799 3.93381693,17.0038075 3.39476476,21.3856222 C3.34758036,21.769172 2.99828877,22.0418638 2.61460018,21.9946965 C2.23091158,21.9475291 1.95812104,21.598364 2.00530545,21.2148142 C2.50378137,17.1628333 5.3216576,13.8968784 9.05014383,12.7425446 Z M11.9995511,11.9958553 C14.3312974,11.9958553 16.2215511,10.1062855 16.2215511,7.77538308 C16.2215511,5.44448062 14.3312974,3.55491083 11.9995511,3.55491083 C9.66780491,3.55491083 7.77755112,5.44448062 7.77755112,7.77538308 C7.77755112,10.1062855 9.66780491,11.9958553 11.9995511,11.9958553 Z"/>
</svg>
