<svg xmlns="http://www.w3.org/2000/svg" width="24" height="24" viewBox="0 0 24 24">
  <g fill="none" fill-rule="evenodd" transform="translate(-360 -984)">
    <path fill="#555" fill-rule="nonzero" d="M14.6065574,12.9174312 C13.0491803,11.8577982 11.3278689,11.3279817 9.44262295,11.3279817 C7.73770492,11.3279817 6.15983607,11.7610856 4.70901639,12.6272936 C3.25819672,13.4935015 2.11065574,14.6708716 1.26639344,16.1594037 C0.422131148,17.6479358 0,19.2752294 0,21.0412844 L0,21.0917431 C0,21.3440367 0.0860655738,21.5584862 0.258196721,21.7350917 C0.430327869,21.9116972 0.639344262,22 0.885245902,22 C1.13114754,22 1.34016393,21.9116972 1.51229508,21.7350917 C1.68442623,21.5584862 1.7704918,21.3440367 1.7704918,21.0917431 L1.7704918,21.0412844 C1.7704918,18.8547401 2.5204918,16.9919725 4.0204918,15.4529817 C5.5204918,13.9139908 7.32786885,13.1444954 9.44262295,13.1444954 C10.3934426,13.1444954 11.3032787,13.3211009 12.1721311,13.6743119 C12.9262295,13.2201835 13.7377049,12.9678899 14.6065574,12.9174312 Z M16.204918,18.5688073 L17.7295082,17.0045872 C17.9098361,16.8195719 18,16.6009174 18,16.3486239 C18,16.0963303 17.9139344,15.8818807 17.7418033,15.7052752 C17.5696721,15.5286697 17.3606557,15.440367 17.1147541,15.440367 C16.8688525,15.440367 16.6557377,15.5244648 16.4754098,15.6926606 L14.9508197,17.2821101 L13.4262295,15.6926606 C13.2459016,15.5244648 13.0327869,15.440367 12.7868852,15.440367 C12.5409836,15.440367 12.3319672,15.5286697 12.1598361,15.7052752 C11.9877049,15.8818807 11.9016393,16.0963303 11.9016393,16.3486239 C11.9016393,16.6009174 11.9918033,16.8195719 12.1721311,17.0045872 L13.6967213,18.5688073 L12.1721311,20.1330275 C11.9918033,20.3012232 11.9016393,20.5114679 11.9016393,20.7637615 C11.9016393,21.016055 11.9877049,21.2305046 12.1598361,21.4071101 C12.3319672,21.5837156 12.5409836,21.6720183 12.7868852,21.6720183 C13.0327869,21.6720183 13.2459016,21.5879205 13.4262295,21.4197248 L14.9508197,19.8555046 L16.4754098,21.4197248 C16.6557377,21.5879205 16.8688525,21.6720183 17.1147541,21.6720183 C17.3606557,21.6720183 17.5696721,21.5837156 17.7418033,21.4071101 C17.9139344,21.2305046 18,21.016055 18,20.7637615 C18,20.5114679 17.9098361,20.3012232 17.7295082,20.1330275 L16.204918,18.5688073 Z M14.9508197,5.66399083 C14.9508197,4.10818043 14.4139344,2.77522936 13.3401639,1.66513761 C12.2663934,0.555045872 10.9672131,0 9.44262295,0 C7.91803279,0 6.61885246,0.555045872 5.54508197,1.66513761 C4.47131148,2.77522936 3.93442623,4.10818043 3.93442623,5.66399083 C3.93442623,7.21980122 4.47131148,8.55275229 5.54508197,9.66284404 C6.61885246,10.7729358 7.91803279,11.3279817 9.44262295,11.3279817 C10.9672131,11.3279817 12.2663934,10.7729358 13.3401639,9.66284404 C14.4139344,8.55275229 14.9508197,7.21980122 14.9508197,5.66399083 Z M9.44262295,9.51146789 C8.40983607,9.51146789 7.52868852,9.13723242 6.79918033,8.38876147 C6.06967213,7.64029052 5.70491803,6.73203364 5.70491803,5.66399083 C5.70491803,4.59594801 6.06967213,3.68769113 6.79918033,2.93922018 C7.52868852,2.19074924 8.40983607,1.81651376 9.44262295,1.81651376 C10.4754098,1.81651376 11.3565574,2.19074924 12.0860656,2.93922018 C12.8155738,3.68769113 13.1803279,4.59594801 13.1803279,5.66399083 C13.1803279,6.73203364 12.8155738,7.64029052 12.0860656,8.38876147 C11.3565574,9.13723242 10.4754098,9.51146789 9.44262295,9.51146789 Z" transform="translate(363 985)"/>
  </g>
</svg>
