<svg xmlns="http://www.w3.org/2000/svg" width="20" height="20" viewBox="0 0 20 20">
  <path fill="#555" d="M16.6322324,15.4152539 L17.8192835,14.2393646 C18.088619,13.9725618 18.5261801,13.9716914 18.7966038,14.2374206 C19.0670274,14.5031499 19.0679096,14.9348524 18.7985741,15.2016552 L17.6075902,16.3814403 L18.7985741,17.5612253 C19.0679096,17.8280282 19.0670274,18.2597307 18.7966038,18.5254599 C18.5261801,18.7911891 18.088619,18.7903187 17.8192835,18.5235159 L16.6322324,17.3476267 L15.4451813,18.5235159 C15.1758458,18.7903187 14.7382847,18.7911891 14.467861,18.5254599 C14.1974374,18.2597307 14.1965552,17.8280282 14.4658907,17.5612253 L15.6568746,16.3814403 L14.4658907,15.2016552 C14.1965552,14.9348524 14.1974374,14.5031499 14.467861,14.2374206 C14.7382847,13.9716914 15.1758458,13.9725618 15.4451813,14.2393646 L16.6322324,15.4152539 Z M12.9852931,10.9646757 C12.2558517,11.285832 11.4470666,11.4644715 10.5957552,11.4644715 C9.65608827,11.4644715 8.76823293,11.2468265 7.98170142,10.8601143 C7.96735686,10.8667228 7.95268803,10.8729033 7.93770472,10.878634 C5.96079356,11.634739 4.51865654,12.752929 3.5873929,14.2369477 C2.65301446,15.7259301 2.27132031,17.3895789 2.44152848,19.2506112 C2.47613463,19.6289901 2.19155082,19.9632511 1.80589275,19.9972041 C1.42023467,20.031157 1.0795432,19.7519447 1.04493705,19.3735658 C0.84812174,17.2216146 1.29785495,15.2614114 2.39335469,13.5156736 C3.35666809,11.9805818 4.77184306,10.7862297 6.62276648,9.93514123 C5.47284319,8.88828259 4.75324355,7.39270875 4.75324355,5.73223573 C4.75324355,2.56640935 7.36902513,0 10.5957552,0 C13.8224853,0 16.4382669,2.56640935 16.4382669,5.73223573 C16.4382669,7.47600338 15.6446617,9.03791315 14.3924805,10.0892593 C14.6649655,10.223711 14.9137727,10.3582402 15.1390658,10.4930662 C15.6237777,10.7831407 16.1267346,11.1427602 16.6489931,11.5717392 C16.9458898,11.8156078 16.9850743,12.2494418 16.7365142,12.5407346 C16.4879541,12.8320274 16.045774,12.8704723 15.7488774,12.6266038 C15.277781,12.2396488 14.8307666,11.9200289 14.4088906,11.6675584 C14.0274883,11.4393092 13.5525457,11.2044658 12.9852931,10.9646757 Z M10.5957552,10.0887349 C13.0480701,10.0887349 15.0360641,8.13826378 15.0360641,5.73223573 C15.0360641,3.32620768 13.0480701,1.37573658 10.5957552,1.37573658 C8.14344035,1.37573658 6.15544635,3.32620768 6.15544635,5.73223573 C6.15544635,8.13826378 8.14344035,10.0887349 10.5957552,10.0887349 Z"/>
</svg>
