<svg xmlns="http://www.w3.org/2000/svg" width="24" height="24" viewBox="0 0 24 24">
  <g fill="none" fill-rule="evenodd" transform="translate(-312 -984)">
    <path fill="#555" fill-rule="nonzero" d="M17.1969668,12.8034693 C17.1403774,12.679188 17.0554933,12.5672725 16.9514918,12.4791164 L16.9453654,12.4729085 L16.9400509,12.4693185 C16.5547264,12.148406 16.1763402,11.8919652 15.74973,11.6626744 C15.5519131,11.5562687 15.3435166,11.4549988 15.0897008,11.3422855 C15.5974553,10.8172875 16.0128706,10.2175462 16.3260068,9.55709782 C16.7540441,8.65434458 16.9710767,7.6862221 16.9710029,6.67963103 C16.9710521,5.78094153 16.7967075,4.90832993 16.4527917,4.08602918 C15.9543867,2.89430014 15.1296087,1.87975609 14.067598,1.15204372 C12.9787443,0.405782667 11.7074021,0.0113734884 10.390813,0.0113734884 C10.3904685,0.0113734884 10.3901732,0.0113734884 10.3898534,0.0113734884 C9.50314683,0.0113734884 8.64200391,0.188059825 7.83061044,0.536471218 C6.65453526,1.04147452 5.65327208,1.87721313 4.93510348,2.95333686 C4.19853102,4.05680999 3.80929442,5.34534626 3.80941745,6.67958116 C3.80936824,7.68694508 4.0266223,8.65569082 4.45517622,9.5588679 C4.77143711,10.2254743 5.19189628,10.8300522 5.70634307,11.3583161 C4.09265966,12.1615696 2.71864461,13.4105154 1.72471347,14.9797254 C0.602299795,16.7513755 0.00904611148,18.8481514 0.00909532896,21.0433801 C0.00907073224,21.1696309 0.0335271825,21.2922667 0.0818495934,21.407872 C0.151675983,21.5751095 0.267241357,21.717366 0.415899228,21.8192094 C0.568567567,21.9239447 0.747020988,21.9792916 0.931969891,21.9792916 C0.932338962,21.9792667 0.932708009,21.9792667 0.93307708,21.9792916 C1.05752454,21.9792916 1.17842899,21.9544603 1.29241972,21.9054957 C1.4573901,21.8346666 1.5977318,21.7176154 1.69819027,21.5670817 C1.80177346,21.4121352 1.85644372,21.2310361 1.85632071,21.04343 C1.85636993,19.0933733 2.40693549,17.2580991 3.44850017,15.7360088 C4.44939428,14.2739025 5.83393988,13.20638 7.45525055,12.6461045 C8.36100068,13.1053593 9.37446749,13.3478387 10.3898534,13.3478387 C10.3901732,13.3478138 10.3903947,13.3478387 10.3907145,13.3478387 C11.4063711,13.3478138 12.4205268,13.1050602 13.3268182,12.6454065 C13.847293,12.8162589 14.2159606,12.9605349 14.5525199,13.1247807 C14.9908416,13.3387638 15.3783067,13.5910661 15.7722427,13.9190838 C15.8561918,13.9889406 15.9503763,14.042692 16.0520895,14.0788669 C16.1505551,14.1139449 16.2535478,14.1317457 16.3581889,14.1317457 C16.4932161,14.1317207 16.6237162,14.102701 16.7460231,14.0454842 C16.8709627,13.9870957 16.9834771,13.8990891 17.0717074,13.7906141 C17.1408448,13.7055494 17.1940881,13.6099887 17.2299116,13.5066744 C17.2645542,13.4068755 17.2821461,13.3024642 17.2821461,13.1963577 C17.2821215,13.0596857 17.2534823,12.9275013 17.1969668,12.8034693 Z M15.1239005,6.67965596 C15.1238513,7.32604324 14.9985673,7.95343306 14.7515423,8.54439862 C14.3930362,9.40197682 13.7993151,10.1322072 13.0345217,10.6561332 C12.2513738,11.1924998 11.3370122,11.4760655 10.3902963,11.4761652 C9.75233703,11.4761153 9.13317526,11.3491664 8.55000929,11.0988587 C7.70367802,10.7356134 6.98302442,10.1339773 6.4659696,9.35902061 C5.93663734,8.56544041 5.65679051,7.6389528 5.6566921,6.67968088 C5.6567167,6.03326867 5.78200069,5.40587883 6.0290503,4.81493822 C6.38755641,3.95736002 6.98130215,3.22712964 7.74607086,2.70320366 C8.52924345,2.16683708 9.4435804,1.88327136 10.3902717,1.88317164 C11.0282064,1.88319656 11.6473682,2.01014546 12.2305587,2.26047812 C13.07689,2.62374843 13.7975436,3.22538448 14.3145984,4.00031623 C14.8439306,4.79387148 15.1237775,5.72038401 15.1239005,6.67965596 Z M21.2123778,16.6709729 C21.636872,16.6709729 21.9813784,17.0200574 21.9813784,17.4501928 C21.9813784,17.8803282 21.6368474,18.2294127 21.2123778,18.2294127 L19.2898885,18.2294127 L19.2898885,20.17745 C19.2898885,20.6075854 18.9453821,20.9566699 18.5209125,20.9566699 C18.0964182,20.9566699 17.7519119,20.6075605 17.7519119,20.17745 L17.7519119,18.2294127 L15.8294226,18.2294127 C15.4049283,18.2294127 15.060422,17.8803033 15.060422,17.4501928 C15.060422,17.0200574 15.4049529,16.6709729 15.8294226,16.6709729 L17.7519119,16.6709729 L17.7519119,14.7229356 C17.7519119,14.2928003 18.0964428,13.9437157 18.5209125,13.9437157 C18.9453821,13.9437157 19.2898885,14.2928252 19.2898885,14.7229356 L19.2898885,16.6709729 L21.2123778,16.6709729 Z" transform="translate(313 985)"/>
  </g>
</svg>
