<svg xmlns="http://www.w3.org/2000/svg" width="24" height="24" viewBox="0 0 24 24">
  <g fill="none" fill-rule="evenodd" transform="translate(-408 -984)">
    <path fill="#555" fill-rule="nonzero" d="M16.5278304,16.4491272 L18.116303,14.8177358 C18.3774212,14.5495626 18.7987469,14.5516681 19.0573604,14.8224386 C19.3159739,15.0932091 19.3139435,15.5301093 19.0528253,15.7982826 L17.4734668,17.4203136 L19.0528253,19.0423447 C19.3139435,19.310518 19.3159739,19.7474182 19.0573604,20.0181887 C18.7987469,20.2889592 18.3774212,20.2910647 18.116303,20.0228915 L16.5278304,18.3915001 L14.9393577,20.0228915 C14.6782396,20.2910647 14.2569138,20.2889592 13.9983003,20.0181887 C13.7396869,19.7474182 13.7417173,19.310518 14.0028354,19.0423447 L15.582194,17.4203136 L14.0028354,15.7982826 C13.7417173,15.5301093 13.7396869,15.0932091 13.9983003,14.8224386 C14.2569138,14.5516681 14.6782396,14.5495626 14.9393577,14.8177358 L16.5278304,16.4491272 Z M12.907754,11.728125 C10.8251971,11.728125 9.13695118,9.97747222 9.13695118,7.8179326 C9.13695118,5.65839299 10.8251971,3.90774023 12.907754,3.90774023 C14.9903109,3.90774023 16.6785568,5.65839299 16.6785568,7.8179326 C16.6785568,9.97747222 14.9903109,11.728125 12.907754,11.728125 Z M12.907754,10.3480571 C14.2552908,10.3480571 15.3476852,9.21528176 15.3476852,7.8179326 C15.3476852,6.42058344 14.2552908,5.28780813 12.907754,5.28780813 C11.5602172,5.28780813 10.4678228,6.42058344 10.4678228,7.8179326 C10.4678228,9.21528176 11.5602172,10.3480571 12.907754,10.3480571 Z M11.5272167,2.44991058 C11.7507861,2.75237822 11.6955673,3.1855151 11.4038819,3.41734886 C11.1121966,3.64918263 10.6945,3.59192256 10.4709306,3.28945492 C10.0113831,2.66773185 9.30241305,2.29673456 8.53290521,2.29673456 C7.1853684,2.29673456 6.09297399,3.42950987 6.09297399,4.82685904 C6.09297399,6.04894623 6.93496597,7.09051806 8.07883038,7.3133763 C8.44002063,7.38374672 8.67781026,7.74441935 8.60994838,8.11896118 C8.54208651,8.493503 8.19427104,8.74008263 7.83308079,8.66971221 C6.0627636,8.32480265 4.76210241,6.71584189 4.76210241,4.82685904 C4.76210241,2.66731942 6.45034833,0.916666667 8.53290521,0.916666667 C9.72089162,0.916666667 10.8184383,1.49100243 11.5272167,2.44991058 Z M15.0949173,12.5419257 C15.4414532,12.6688278 15.6231689,13.0630097 15.5007905,13.4223555 C15.3784122,13.7817013 14.998282,13.9701342 14.6517461,13.843232 C14.0169989,13.6107864 13.3453264,13.4905821 12.6568821,13.4905821 C9.34929176,13.4905821 6.66796,16.2710306 6.66796,19.7008876 C6.66796,19.9104116 6.67794212,20.1185542 6.69776118,20.3248408 C6.73419469,20.7040587 6.46727175,21.0421026 6.10157211,21.0798828 C5.73587247,21.1176631 5.40987914,20.8408733 5.37344563,20.4616554 C5.34926035,20.209923 5.33708842,19.9561195 5.33708842,19.7008876 C5.33708842,15.5088401 8.61427168,12.1105142 12.6568821,12.1105142 C13.496815,12.1105142 14.3183128,12.2575317 15.0949173,12.5419257 Z M8.19479368,9.20507176 C8.56230372,9.20507176 8.86022947,9.51401048 8.86022947,9.8951057 C8.86022947,10.2762009 8.56230372,10.5851397 8.19479368,10.5851397 C4.88720333,10.5851397 2.20587158,13.3655881 2.20587158,16.7954452 C2.20587158,17.0049692 2.21585369,17.2131118 2.23567276,17.4193984 C2.27210626,17.7986163 2.00518333,18.1366601 1.63948368,18.1744404 C1.27378404,18.2122207 0.947790715,17.9354308 0.911357206,17.5562129 C0.887171926,17.3044806 0.875,17.050677 0.875,16.7954452 C0.875,12.6033977 4.15218326,9.20507176 8.19479368,9.20507176 Z" transform="translate(410 985)"/>
  </g>
</svg>
