<svg xmlns="http://www.w3.org/2000/svg" width="24" height="24" viewBox="0 0 24 24">
  <path fill="#555" d="M19.1831116,17.4040931 L20.8256139,15.7861843 C21.0956136,15.5202273 21.5312702,15.5223154 21.7986801,15.7908482 C22.0660899,16.0593809 22.0639904,16.4926704 21.7939907,16.7586274 L20.1609125,18.3672532 L21.7939907,19.975879 C22.0639904,20.241836 22.0660899,20.6751255 21.7986801,20.9436582 C21.5312702,21.212191 21.0956136,21.2142791 20.8256139,20.9483221 L19.1831116,19.3304133 L17.5406093,20.9483221 C17.2706096,21.2142791 16.834953,21.212191 16.5675431,20.9436582 C16.3001333,20.6751255 16.3022327,20.241836 16.5722325,19.975879 L18.2053107,18.3672532 L16.5722325,16.7586274 C16.3022327,16.4926704 16.3001333,16.0593809 16.5675431,15.7908482 C16.834953,15.5223154 17.2706096,15.5202273 17.5406093,15.7861843 L19.1831116,17.4040931 Z M14.7014363,12.7221074 C12.5480441,12.7221074 10.8023749,10.9859229 10.8023749,8.84423068 C10.8023749,6.7025385 12.5480441,4.96635395 14.7014363,4.96635395 C16.8548284,4.96635395 18.6004977,6.7025385 18.6004977,8.84423068 C18.6004977,10.9859229 16.8548284,12.7221074 14.7014363,12.7221074 Z M14.7014363,11.353445 C16.0948077,11.353445 17.2243584,10.2300315 17.2243584,8.84423068 C17.2243584,7.45842986 16.0948077,6.33501632 14.7014363,6.33501632 C13.3080649,6.33501632 12.1785142,7.45842986 12.1785142,8.84423068 C12.1785142,10.2300315 13.3080649,11.353445 14.7014363,11.353445 Z M13.014537,3.52057247 C13.2457108,3.82054038 13.1886138,4.25009761 12.8870071,4.4800154 C12.5854005,4.70993319 12.1534966,4.65314634 11.9223228,4.35317843 C11.4471444,3.73659357 10.7140598,3.36866238 9.91837818,3.36866238 C8.52500679,3.36866238 7.39545609,4.49207591 7.39545609,5.87787673 C7.39545609,7.08986403 8.26608726,8.12282783 9.44885863,8.34384426 C9.82233425,8.41363311 10.068212,8.77132498 9.99804186,9.14277141 C9.92787176,9.51421785 9.56822584,9.75875964 9.19475021,9.68897079 C7.36421815,9.34691172 6.01931678,7.75124816 6.01931678,5.87787673 C6.01931678,3.73618455 7.76498603,2 9.91837818,2 C11.1467723,2 12.2816505,2.56958919 13.014537,3.52057247 Z M16.9629929,13.5291825 C17.3213158,13.6550359 17.5092122,14.04596 17.3826713,14.402336 C17.2561304,14.7587121 16.8630707,14.9455876 16.5047478,14.8197343 C15.8484106,14.5892097 15.1538921,14.4699988 14.4420313,14.4699988 C11.0219379,14.4699988 8.2494044,17.2274683 8.2494044,20.6289795 C8.2494044,20.8367718 8.25972604,21.0431943 8.28021922,21.247776 C8.31789196,21.6238599 8.08169113,21.9574366 7.67614746,21.9987252 C7.27060379,22.0400138 6.94853167,21.7595437 6.91085892,21.3834599 C6.88585101,21.133808 6.87326508,20.8821019 6.87326508,20.6289795 C6.87326508,16.471577 10.2619172,13.1013364 14.4420313,13.1013364 C15.3105334,13.1013364 16.1599733,13.2471388 16.9629929,13.5291825 Z M9.56876625,10.2199059 C9.94877663,10.2199059 10.2568359,10.5262914 10.2568359,10.9042371 C10.2568359,11.2821827 9.94877663,11.5885682 9.56876625,11.5885682 C6.14867284,11.5885682 3.37613932,14.3460378 3.37613932,17.7475489 C3.37613932,17.9553413 3.38646096,18.1617638 3.40695414,18.3663455 C3.44462689,18.7424294 3.16862494,19.0776795 2.79048653,19.1151475 C2.41234813,19.1526156 2.07526659,18.8781132 2.03759385,18.5020293 C2.01258594,18.2523775 2,18.0006714 2,17.7475489 C2,13.5901465 5.38865208,10.2199059 9.56876625,10.2199059 Z"/>
</svg>
