<svg xmlns="http://www.w3.org/2000/svg" width="24" height="24" viewBox="0 0 24 24">
  <g fill="none" fill-rule="evenodd" transform="translate(-408 -984)">
    <path fill="#555" fill-rule="nonzero" d="M8.62754429,8.92206452 C8.5433435,8.51653456 8.50124311,8.11100461 8.50124311,7.70547465 C8.50124311,7.48594777 8.50960921,7.27480184 8.52634142,7.07203687 C7.88512005,6.98768664 7.3496894,6.69624578 6.92004949,6.19771429 C6.49040958,5.6991828 6.27531975,5.12035637 6.27478001,4.46123502 C6.27478001,3.73452535 6.53197023,3.11352381 7.04635067,2.59823041 C7.56073112,2.08293702 8.18063242,1.82529032 8.90605458,1.82529032 C9.37833464,1.82529032 9.8168804,1.94370507 10.2216919,2.18053456 C10.6265033,2.41736406 10.9384781,2.72989247 11.157616,3.11811982 C11.7140968,2.813702 12.2959459,2.61093702 12.9031631,2.50982488 C12.531816,1.7495914 11.9877494,1.14129647 11.2709632,0.684940092 C10.554177,0.228583717 9.76560428,0.000405529954 8.90524496,0.000405529954 C7.67407833,0.000405529954 6.62399737,0.435403994 5.75500207,1.30540092 C4.88600678,2.17539785 4.451779,3.22734255 4.45231875,4.46123502 C4.45231875,5.64430108 4.85713023,6.66650691 5.66675317,7.52785253 C6.47637612,8.38919816 7.46303662,8.85393548 8.62673467,8.92206452 L8.62754429,8.92206452 Z M20.7216919,19.718894 L19.1526426,18.1470599 L20.7216919,16.5752258 C20.9073654,16.3892227 21.0002022,16.1694255 21.0002022,15.9158341 C21.0002022,15.6622427 20.9116834,15.4467711 20.7346458,15.2694194 C20.5576083,15.0920676 20.3425185,15.0033917 20.0893764,15.0033917 C19.8362342,15.0033917 19.6168264,15.0963932 19.4311529,15.2823963 L17.8621036,16.8542304 L16.2930544,15.2823963 C16.1073808,15.0963932 15.887973,15.0033917 15.6348309,15.0033917 C15.3816888,15.0033917 15.166599,15.0920676 14.9895614,15.2694194 C14.8125239,15.4467711 14.7240051,15.6622427 14.7240051,15.9158341 C14.7240051,16.1694255 14.8168418,16.3892227 15.0025154,16.5752258 L16.5715646,18.1470599 L15.0025154,19.718894 C14.8168418,19.9048971 14.7240051,20.1246943 14.7240051,20.3782857 C14.7240051,20.6318771 14.8125239,20.8473487 14.9895614,21.0247005 C15.166599,21.2020522 15.3816888,21.2907281 15.6348309,21.2907281 C15.887973,21.2907281 16.1073808,21.1977266 16.2930544,21.0117235 L17.8621036,19.4398894 L19.4311529,21.0117235 C19.6168264,21.1977266 19.8362342,21.2907281 20.0893764,21.2907281 C20.3425185,21.2907281 20.5576083,21.2020522 20.7346458,21.0247005 C20.9116834,20.8473487 21.0002022,20.6318771 21.0002022,20.3782857 C21.0002022,20.1246943 20.9073654,19.9048971 20.7216919,19.718894 Z M17.6596979,13.0527926 C16.4285313,12.4612596 15.1296262,12.1654931 13.7629826,12.1654931 C14.9941493,12.1654931 16.0442302,11.7304946 16.9132255,10.8604977 C17.7822208,9.99050077 18.2164486,8.93855607 18.2159089,7.70466359 C18.2153691,6.47077112 17.7811413,5.41882642 16.9132255,4.54882949 C16.0453097,3.67883257 14.9952288,3.2438341 13.7629826,3.2438341 C12.5307365,3.2438341 11.4806556,3.67883257 10.6127398,4.54882949 C9.74482396,5.41882642 9.31059618,6.47077112 9.31005643,7.70466359 C9.30951669,8.93855607 9.74374446,9.99050077 10.6127398,10.8604977 C11.4817351,11.7304946 12.531816,12.1654931 13.7629826,12.1654931 C11.3001096,12.1654931 9.20021759,13.0357604 7.46330649,14.7762949 C5.7263954,16.5168295 4.85766997,18.6204485 4.85713023,21.0871521 C4.85713023,21.3407435 4.945649,21.5562151 5.12268655,21.7335668 C5.2997241,21.9109186 5.51481393,21.9995945 5.76795604,21.9995945 C6.02109815,21.9995945 6.23618798,21.9109186 6.41322553,21.7335668 C6.59026308,21.5562151 6.67878186,21.3407435 6.67878186,21.0871521 C6.67878186,19.1270906 7.37046973,17.4541444 8.75384547,16.0683134 C10.1372212,14.6824823 11.8072035,13.9895668 13.7637923,13.9895668 C14.2360723,13.9895668 14.7083524,14.0403932 15.1806324,14.1420461 C15.9227868,13.5845776 16.7494118,13.2212227 17.6605075,13.0519816 L17.6596979,13.0527926 Z M11.1325177,7.70547465 C11.1325177,6.97876498 11.3897079,6.35776344 11.9040884,5.84247005 C12.4184688,5.32717665 13.0383701,5.06952995 13.7637923,5.06952995 C14.4892144,5.06952995 15.1091157,5.32717665 15.6234962,5.84247005 C16.1378766,6.35776344 16.3950668,6.97876498 16.3950668,7.70547465 C16.3950668,8.43218433 16.1378766,9.05318587 15.6234962,9.56847926 C15.1091157,10.0837727 14.4892144,10.3414194 13.7637923,10.3414194 C13.0383701,10.3414194 12.4184688,10.0837727 11.9040884,9.56847926 C11.3897079,9.05318587 11.1325177,8.43218433 11.1325177,7.70547465 Z M9.48817348,10.7720922 C9.08336201,10.2146237 8.80512159,9.59794777 8.65345222,8.92206452 C7.06767074,8.97289094 5.61277831,9.39950845 4.28877492,10.2019171 C2.96477152,11.0043257 1.91900855,12.0814132 1.151486,13.4331797 C0.383963443,14.7849462 0.000202166065,16.2551275 0.000202166065,17.8437235 C0.000202166065,18.0973149 0.0887209416,18.3127865 0.265758493,18.4901382 C0.442796044,18.66749 0.657885873,18.7561659 0.911027981,18.7561659 C1.16417009,18.7561659 1.37925992,18.66749 1.55629747,18.4901382 C1.73333502,18.3127865 1.8218538,18.0973149 1.8218538,17.8437235 C1.8218538,15.8836621 2.51354167,14.2107158 3.89691741,12.8248848 C5.28029315,11.4390538 6.95027542,10.7461382 8.90686421,10.7461382 C9.09253774,10.7461382 9.28657737,10.7545192 9.48898311,10.7712811 L9.48817348,10.7720922 Z" transform="translate(410 985)"/>
  </g>
</svg>
