<svg xmlns="http://www.w3.org/2000/svg" width="24" height="24" viewBox="0 0 24 24">
  <g fill="none" fill-rule="evenodd" transform="translate(-312 -792)">
    <path fill="#555" fill-rule="nonzero" d="M4,2.5 C3.17157288,2.5 2.5,3.17157288 2.5,4 L2.5,16 C2.5,16.8284271 3.17157288,17.5 4,17.5 L20,17.5 C20.8284271,17.5 21.5,16.8284271 21.5,16 L21.5,4 C21.5,3.17157288 20.8284271,2.5 20,2.5 L4,2.5 Z M14.0548315,9.94798701 C12.9227454,10.6336266 12.1666667,11.864978 12.1666667,13.2726702 C12.1666667,13.6744808 12.2286021,14.0689567 12.3490051,14.4455588 C12.4751431,14.8400992 12.8972363,15.0576822 13.2917767,14.9315442 C13.686317,14.8054062 13.9039001,14.3833129 13.777762,13.9887726 C13.7044135,13.7593497 13.6666667,13.5189345 13.6666667,13.2726702 C13.6666667,11.9502984 14.7642509,10.8726702 16.125,10.8726702 C17.4857491,10.8726702 18.5833333,11.9502984 18.5833333,13.2726702 C18.5833333,13.4667306 18.559898,13.6571807 18.5140204,13.8416056 C18.4140278,14.2435688 18.6588233,14.6504843 19.0607864,14.7504768 C19.4627496,14.8504694 19.8696651,14.6056739 19.9696577,14.2037108 C20.044936,13.901097 20.0833333,13.5890563 20.0833333,13.2726702 C20.0833333,11.864978 19.3272546,10.6336266 18.1951685,9.94798701 C18.7924465,9.40068223 19.1666667,8.61920121 19.1666667,7.75 C19.1666667,6.09003417 17.801817,4.75 16.125,4.75 C14.448183,4.75 13.0833333,6.09003417 13.0833333,7.75 C13.0833333,8.61920121 13.4575535,9.40068223 14.0548315,9.94798701 Z M4,1 L20,1 C21.6568542,1 23,2.34314575 23,4 L23,16 C23,17.6568542 21.6568542,19 20,19 L4,19 C2.34314575,19 1,17.6568542 1,16 L1,4 C1,2.34314575 2.34314575,1 4,1 Z M5.4,7.15 L9.98333333,7.15 C10.3975469,7.15 10.7333333,6.81421356 10.7333333,6.4 C10.7333333,5.98578644 10.3975469,5.65 9.98333333,5.65 L5.4,5.65 C4.98578644,5.65 4.65,5.98578644 4.65,6.4 C4.65,6.81421356 4.98578644,7.15 5.4,7.15 Z M5.4,11.0875 L9.98333333,11.0875 C10.3975469,11.0875 10.7333333,10.7517136 10.7333333,10.3375 C10.7333333,9.92328644 10.3975469,9.5875 9.98333333,9.5875 L5.4,9.5875 C4.98578644,9.5875 4.65,9.92328644 4.65,10.3375 C4.65,10.7517136 4.98578644,11.0875 5.4,11.0875 Z M5.4,15.025 L9.98333333,15.025 C10.3975469,15.025 10.7333333,14.6892136 10.7333333,14.275 C10.7333333,13.8607864 10.3975469,13.525 9.98333333,13.525 L5.4,13.525 C4.98578644,13.525 4.65,13.8607864 4.65,14.275 C4.65,14.6892136 4.98578644,15.025 5.4,15.025 Z M16.125,9.25 C15.2705119,9.25 14.5833333,8.57531555 14.5833333,7.75 C14.5833333,6.92468445 15.2705119,6.25 16.125,6.25 C16.9794881,6.25 17.6666667,6.92468445 17.6666667,7.75 C17.6666667,8.57531555 16.9794881,9.25 16.125,9.25 Z" transform="translate(312 794)"/>
  </g>
</svg>
