<svg xmlns="http://www.w3.org/2000/svg" width="24" height="24" viewBox="0 0 24 24">
  <path fill="#555" d="M4.72727273,5.33333333 C3.97415716,5.33333333 3.36363636,5.930287 3.36363636,6.66666667 L3.36363636,17.3333333 C3.36363636,18.069713 3.97415716,18.6666667 4.72727273,18.6666667 L19.2727273,18.6666667 C20.0258428,18.6666667 20.6363636,18.069713 20.6363636,17.3333333 L20.6363636,6.66666667 C20.6363636,5.930287 20.0258428,5.33333333 19.2727273,5.33333333 L4.72727273,5.33333333 Z M13.8680286,11.9537662 C12.8388595,12.5632237 12.1515152,13.6577582 12.1515152,14.9090402 C12.1515152,15.2662051 12.2078201,15.6168504 12.3172774,15.9516079 C12.4319483,16.3023104 12.8156694,16.4957175 13.1743424,16.3835948 C13.5330155,16.2714721 13.7308182,15.8962782 13.6161473,15.5455757 C13.5494668,15.3416441 13.5151515,15.1279418 13.5151515,14.9090402 C13.5151515,13.7335986 14.5129554,12.7757069 15.75,12.7757069 C16.9870446,12.7757069 17.9848485,13.7335986 17.9848485,14.9090402 C17.9848485,15.0815383 17.9635437,15.2508273 17.9218367,15.4147606 C17.8309344,15.7720611 18.0534757,16.1337638 18.4188968,16.2226461 C18.7843178,16.3115284 19.154241,16.0939324 19.2451433,15.7366318 C19.3135782,15.4676418 19.3484848,15.1902722 19.3484848,14.9090402 C19.3484848,13.6577582 18.6611405,12.5632237 17.6319714,11.9537662 C18.1749514,11.4672731 18.5151515,10.7726233 18.5151515,10 C18.5151515,8.52447482 17.2743791,7.33333333 15.75,7.33333333 C14.2256209,7.33333333 12.9848485,8.52447482 12.9848485,10 C12.9848485,10.7726233 13.3250486,11.4672731 13.8680286,11.9537662 Z M4.72727273,4 L19.2727273,4 C20.7789584,4 22,5.19390733 22,6.66666667 L22,17.3333333 C22,18.8060927 20.7789584,20 19.2727273,20 L4.72727273,20 C3.22104159,20 2,18.8060927 2,17.3333333 L2,6.66666667 C2,5.19390733 3.22104159,4 4.72727273,4 Z M6,9.46666667 L10.1666667,9.46666667 C10.5432245,9.46666667 10.8484848,9.16818983 10.8484848,8.8 C10.8484848,8.43181017 10.5432245,8.13333333 10.1666667,8.13333333 L6,8.13333333 C5.62344222,8.13333333 5.31818182,8.43181017 5.31818182,8.8 C5.31818182,9.16818983 5.62344222,9.46666667 6,9.46666667 Z M6,12.9666667 L10.1666667,12.9666667 C10.5432245,12.9666667 10.8484848,12.6681898 10.8484848,12.3 C10.8484848,11.9318102 10.5432245,11.6333333 10.1666667,11.6333333 L6,11.6333333 C5.62344222,11.6333333 5.31818182,11.9318102 5.31818182,12.3 C5.31818182,12.6681898 5.62344222,12.9666667 6,12.9666667 Z M6,16.4666667 L10.1666667,16.4666667 C10.5432245,16.4666667 10.8484848,16.1681898 10.8484848,15.8 C10.8484848,15.4318102 10.5432245,15.1333333 10.1666667,15.1333333 L6,15.1333333 C5.62344222,15.1333333 5.31818182,15.4318102 5.31818182,15.8 C5.31818182,16.1681898 5.62344222,16.4666667 6,16.4666667 Z M15.75,11.3333333 C14.9731927,11.3333333 14.3484848,10.7336138 14.3484848,10 C14.3484848,9.26638618 14.9731927,8.66666667 15.75,8.66666667 C16.5268073,8.66666667 17.1515152,9.26638618 17.1515152,10 C17.1515152,10.7336138 16.5268073,11.3333333 15.75,11.3333333 Z"/>
</svg>
