<svg xmlns="http://www.w3.org/2000/svg" width="24" height="24" viewBox="0 0 24 24">
  <g fill="none" fill-rule="evenodd" transform="translate(-308 -788)">
    <path fill="#555" fill-rule="nonzero" d="M21.0000282,0 L2.9999718,0 C1.34281689,0 0,1.31648498 0,2.94114395 L0,17.0587297 C0,18.683515 1.34281691,20 2.9999718,20 L21.0000282,20 C22.6571831,20 24,18.683515 24,17.0587297 L24,2.94114395 C24,1.31648498 22.6571831,0 21.0000282,0 L21.0000282,0 Z M22.8000435,17.0587613 C22.8000435,18.0328869 21.9936379,18.8234792 21.0000282,18.8234792 L2.9999718,18.8234792 C2.00636205,18.8234792 1.20005317,18.0328869 1.20005317,17.0587613 L1.20005317,2.94114395 C1.20005317,1.96701836 2.00636205,1.17648918 2.9999718,1.17648918 L21.0000282,1.17648918 C21.9936379,1.17648918 22.8000435,1.96701838 22.8000435,2.94114395 L22.8000435,17.0587613 L22.8000435,17.0587613 Z M3.60006284,14.7058145 L10.1999686,14.7058145 L10.1999686,13.5294201 L3.60006284,13.5294201 L3.60006284,14.7058145 L3.60006284,14.7058145 Z M3.60006284,10.5882762 L10.1999686,10.5882762 L10.1999686,9.41172383 L3.60006284,9.41172383 L3.60006284,10.5882762 L3.60006284,10.5882762 Z M3.60006284,6.47061146 L10.1999686,6.47061146 L10.1999686,5.2940591 L3.60006284,5.2940591 L3.60006284,6.47061146 L3.60006284,6.47061146 Z M18.1224207,10.4764628 C18.7752666,9.93651059 19.2000129,9.13887262 19.2000129,8.23532943 C19.2000129,6.61054408 17.857196,5.2940591 16.2000411,5.2940591 C14.5427573,5.2940591 13.2000693,6.61054408 13.2000693,8.23532943 C13.2000693,9.13887262 13.6248155,9.93651061 14.2776615,10.4764628 C12.930075,11.1622874 12.0000161,12.5270174 12.0000161,14.1176173 C12.0000161,14.4423153 12.2687857,14.7058145 12.5999782,14.7058145 C12.9311707,14.7058145 13.2000693,14.4423153 13.2000693,14.1176173 C13.2000693,12.4929583 14.5427573,11.1764734 16.2000411,11.1764734 C17.857196,11.1764734 19.2000129,12.4929584 19.2000129,14.1176173 C19.2000129,14.4423153 19.4687825,14.7058145 19.799975,14.7058145 C20.1311675,14.7058145 20.400066,14.4423153 20.400066,14.1176173 C20.4000661,12.5270174 19.4700071,11.1622874 18.1224207,10.4764628 L18.1224207,10.4764628 Z M16.2000089,9.99995262 C15.2063991,9.99995262 14.3999936,9.20932863 14.3999936,8.23532943 C14.3999936,7.26120385 15.2063991,6.47061146 16.2000089,6.47061146 C17.1936186,6.47061146 18.0000242,7.26120385 18.0000242,8.23532943 C18.0000564,9.20932863 17.1936186,9.99995262 16.2000089,9.99995262 L16.2000089,9.99995262 Z" transform="translate(308 790)"/>
  </g>
</svg>
