<svg xmlns="http://www.w3.org/2000/svg" width="24" height="24" viewBox="0 0 24 24">
  <g fill="none" fill-rule="evenodd" transform="translate(-456 -312)">
    <path fill="#555" fill-rule="nonzero" d="M2.12778779,7.30937689 L2.03250854,1.2663314 C2.02298345,0.662206763 1.52552206,0.164745374 0.921397429,0.155220286 C0.317272795,0.145695197 -0.164745374,0.627713367 -0.155220286,1.231838 L0.120726889,18.7336686 C0.130251977,19.3377932 0.627713367,19.8352546 1.231838,19.8447797 C1.83596263,19.8543048 2.3179808,19.3722866 2.30845571,18.768162 L2.20878984,12.446897 L9.25513243,19.4932396 C9.69951932,19.9376264 10.4088293,19.94881 10.8394206,19.5182186 C11.2700119,19.0876273 11.2588284,18.3783173 10.8144415,17.9339305 L2.76810514,9.88759408 L10.5646506,2.09104863 C10.9952419,1.66045732 10.9840584,0.951147336 10.5396715,0.506760448 C10.0952846,0.0623735611 9.38597464,0.0511900404 8.95538332,0.481781356 L2.12778779,7.30937689 Z" transform="matrix(-1 0 0 1 473 314)"/>
  </g>
</svg>
