<svg xmlns="http://www.w3.org/2000/svg" width="24" height="24" viewBox="0 0 24 24">
  <g fill="none" fill-rule="evenodd" transform="translate(-408 -312)">
    <path fill="#555" fill-rule="nonzero" d="M8.52956453,13.7273174 L8.52956453,20.2625166 C8.52956453,20.6698174 8.18715985,21 7.76478226,21 C7.34240468,21 7,20.6698174 7,20.2625166 L7,5.77574959 C7,5.36844875 7.34240468,5.03826618 7.76478226,5.03826618 C8.18715985,5.03826618 8.52956453,5.36844875 8.52956453,5.77574959 L8.52956453,11.9907505 L15.5240842,4.9358791 C15.8238967,4.63347969 16.3103943,4.63307144 16.6107069,4.93496725 C16.9110195,5.23686305 16.9114249,5.72674112 16.6116124,6.02914053 L9.83991123,12.8592709 L16.6121853,19.7044172 C16.9116805,20.0071352 16.9107615,20.4970125 16.6101325,20.7985889 C16.3095035,21.1001653 15.8230067,21.0992399 15.5235114,20.7965219 L8.52956453,13.7273174 Z" transform="translate(408 312)"/>
  </g>
</svg>
