<svg xmlns="http://www.w3.org/2000/svg" width="20" height="20" viewBox="0 0 20 20">
  <path fill="#555" d="M6.39370691,10.4689399 L6.39370691,17.3076249 C6.39370691,17.6900131 6.08171499,18 5.69685345,18 C5.31199192,18 5,17.6900131 5,17.3076249 L5,2.69237509 C5,2.30998689 5.31199192,2 5.69685345,2 C6.08171499,2 6.39370691,2.30998689 6.39370691,2.69237509 L6.39370691,9.24987838 L13.3859421,2.20275228 C13.6590739,1.92747624 14.1070655,1.92239675 14.3865593,2.19140691 C14.666053,2.46041707 14.6712103,2.90164821 14.3980785,3.17692425 L7.77214312,9.85487499 L14.7636028,16.7309475 C15.0401323,17.0029132 15.040454,17.4441734 14.7643213,17.7165299 C14.4881887,17.9888864 14.0401676,17.9892033 13.7636381,17.7172376 L6.39370691,10.4689399 Z" transform="matrix(-1 0 0 1 20 0)"/>
</svg>
