<svg xmlns="http://www.w3.org/2000/svg" width="24" height="24" viewBox="0 0 24 24">
  <path fill="#555" d="M8.39370691,12.4689399 L8.39370691,19.3076249 C8.39370691,19.6900131 8.08171499,20 7.69685345,20 C7.31199192,20 7,19.6900131 7,19.3076249 L7,4.69237509 C7,4.30998689 7.31199192,4 7.69685345,4 C8.08171499,4 8.39370691,4.30998689 8.39370691,4.69237509 L8.39370691,11.2498784 L15.3859421,4.20275228 C15.6590739,3.92747624 16.1070655,3.92239675 16.3865593,4.19140691 C16.666053,4.46041707 16.6712103,4.90164821 16.3980785,5.17692425 L9.77214312,11.854875 L16.7636028,18.7309475 C17.0401323,19.0029132 17.040454,19.4441734 16.7643213,19.7165299 C16.4881887,19.9888864 16.0401676,19.9892033 15.7636381,19.7172376 L8.39370691,12.4689399 Z" transform="matrix(-1 0 0 1 24 0)"/>
</svg>
