<svg xmlns="http://www.w3.org/2000/svg" width="24" height="24" viewBox="0 0 24 24">
  <g fill="none" fill-rule="evenodd" transform="translate(-120 -936)">
    <path fill="#555" fill-rule="nonzero" d="M4.79400749,1.602 C6.55580524,1.602 7.98801498,3.036 7.98801498,4.8 C7.98801498,6.564 6.55580524,7.998 4.79400749,7.998 C3.03220974,7.998 1.6,6.564 1.6,4.8 C1.6,3.036 3.03220974,1.602 4.79400749,1.602 L4.79400749,1.602 Z M4.79400749,0 C2.14531835,0 0,2.148 0,4.8 C0,7.452 2.14531835,9.6 4.79400749,9.6 C7.44269663,9.6 9.58801498,7.452 9.58801498,4.8 C9.58801498,2.148 7.44269663,0 4.79400749,0 Z M15.340824,1.602 C17.1026217,1.602 18.5348315,3.036 18.5348315,4.8 C18.5348315,6.564 17.1026217,7.998 15.340824,7.998 C13.5790262,7.998 12.1468165,6.564 12.1468165,4.8 C12.1468165,3.036 13.5790262,1.602 15.340824,1.602 L15.340824,1.602 Z M15.340824,0 C12.6921348,0 10.5468165,2.148 10.5468165,4.8 C10.5468165,7.452 12.6921348,9.6 15.340824,9.6 C17.9895131,9.6 20.1348315,7.452 20.1348315,4.8 C20.1348315,2.148 17.9895131,0 15.340824,0 Z M17.6179775,12 C18.1752809,12 18.6247191,12.432 18.6247191,12.96 L18.6247191,21.6 C18.6247191,22.128 18.1752809,22.56 17.6179775,22.56 L2.51685393,22.56 C1.95955056,22.56 1.51011236,22.128 1.51011236,21.6 L1.51011236,12.96 C1.51011236,12.432 1.95955056,12 2.51685393,12 L17.6179775,12 L17.6179775,12 Z M17.6179775,10.56 L2.51685393,10.56 C1.12659176,10.56 0,11.634 0,12.96 L0,21.6 C0,22.926 1.12659176,24 2.51685393,24 L17.6179775,24 C19.0082397,24 20.1348315,22.926 20.1348315,21.6 L20.1348315,12.96 C20.1348315,11.634 19.0082397,10.56 17.6179775,10.56 Z M23.6764045,14.544 C23.4966292,14.406 23.2569288,14.37 23.0411985,14.436 L21.093633,14.88 L21.093633,16.32 L22.5318352,16.092 L22.5318352,18.474 L21.093633,18.246 L21.093633,19.686 L23.0411985,20.136 C23.1071161,20.154 23.1790262,20.166 23.2509363,20.166 C23.4007491,20.166 23.5565543,20.118 23.682397,20.022 C23.8681648,19.884 23.97603,19.674 23.97603,19.446 L23.97603,15.126 C23.9700375,14.892 23.8621723,14.676 23.6764045,14.544 L23.6764045,14.544 Z M5.75280899,17.28 C6.28014981,17.28 6.71161049,17.712 6.71161049,18.24 C6.71161049,18.768 6.28014981,19.2 5.75280899,19.2 C5.22546816,19.2 4.79400749,18.768 4.79400749,18.24 C4.79400749,17.712 5.22546816,17.28 5.75280899,17.28 L5.75280899,17.28 Z M5.75280899,16.32 C4.69213483,16.32 3.83520599,17.178 3.83520599,18.24 C3.83520599,19.302 4.69213483,20.16 5.75280899,20.16 C6.81348315,20.16 7.67041199,19.302 7.67041199,18.24 C7.67041199,17.178 6.81348315,16.32 5.75280899,16.32 Z" transform="translate(120 936)"/>
  </g>
</svg>
