<svg xmlns="http://www.w3.org/2000/svg" width="24" height="24" viewBox="0 0 24 24">
  <path fill="#555" d="M3.82283154,12.1460667 C3.57115103,12.1460667 3.36712366,12.3508867 3.36712366,12.603545 L3.36712366,20.1700871 C3.36712366,20.4227453 3.57115103,20.6275653 3.82283154,20.6275653 L16.9906676,20.6275653 C17.2423481,20.6275653 17.4463755,20.4227453 17.4463755,20.1700871 L17.4463755,12.603545 C17.4463755,12.3508867 17.2423481,12.1460667 16.9906676,12.1460667 L3.82283154,12.1460667 Z M19.7469299,14.3253173 L21.1737979,14.0196847 C21.5991635,13.9285722 22,14.2541653 22,14.6907955 L22,18.1729136 C22,18.6075408 21.6026219,18.9326874 21.1785735,18.8450293 L19.7469299,18.5490839 L19.7469299,17.1478544 L20.6328763,17.3309948 L20.6328763,15.5388772 L19.7469299,15.7286453 L19.7469299,14.3253173 Z M3.82283154,10.773632 L16.9906676,10.773632 C17.9973897,10.773632 18.8134992,11.592912 18.8134992,12.603545 L18.8134992,20.1700871 C18.8134992,21.1807201 17.9973897,22 16.9906676,22 L3.82283154,22 C2.81610948,22 2,21.1807201 2,20.1700871 L2,12.603545 C2,11.592912 2.81610948,10.773632 3.82283154,10.773632 Z M7.01278674,18.7976524 C8.01950881,18.7976524 8.83561829,17.9783725 8.83561829,16.9677395 C8.83561829,15.9571065 8.01950881,15.1378266 7.01278674,15.1378266 C6.00606468,15.1378266 5.1899552,15.9571065 5.1899552,16.9677395 C5.1899552,17.9783725 6.00606468,18.7976524 7.01278674,18.7976524 Z M7.01278674,17.8826959 C6.50942571,17.8826959 6.10137097,17.473056 6.10137097,16.9677395 C6.10137097,16.462423 6.50942571,16.052783 7.01278674,16.052783 C7.51614778,16.052783 7.92420252,16.462423 7.92420252,16.9677395 C7.92420252,17.473056 7.51614778,17.8826959 7.01278674,17.8826959 Z M6.10137097,9.7771299 C3.96208659,9.7771299 2.22785394,8.03616007 2.22785394,5.88856495 C2.22785394,3.74096983 3.96208659,2 6.10137097,2 C8.24065536,2 9.974888,3.74096983 9.974888,5.88856495 C9.974888,8.03616007 8.24065536,9.7771299 6.10137097,9.7771299 Z M6.10137097,8.40469521 C7.48561381,8.40469521 8.60776434,7.27818532 8.60776434,5.88856495 C8.60776434,4.49894458 7.48561381,3.37243469 6.10137097,3.37243469 C4.71712814,3.37243469 3.5949776,4.49894458 3.5949776,5.88856495 C3.5949776,7.27818532 4.71712814,8.40469521 6.10137097,8.40469521 Z M14.6992895,9.87682693 C12.5600051,9.87682693 10.8257725,8.1358571 10.8257725,5.98826198 C10.8257725,3.84066686 12.5600051,2.09969703 14.6992895,2.09969703 C16.8385739,2.09969703 18.5728065,3.84066686 18.5728065,5.98826198 C18.5728065,8.1358571 16.8385739,9.87682693 14.6992895,9.87682693 Z M14.6992895,8.50439224 C16.0835323,8.50439224 17.2056829,7.37788235 17.2056829,5.98826198 C17.2056829,4.59864161 16.0835323,3.47213172 14.6992895,3.47213172 C13.3150466,3.47213172 12.1928961,4.59864161 12.1928961,5.98826198 C12.1928961,7.37788235 13.3150466,8.50439224 14.6992895,8.50439224 Z"/>
</svg>
