<svg xmlns="http://www.w3.org/2000/svg" width="24" height="24" viewBox="0 0 24 24">
  <g fill="none" fill-rule="evenodd" transform="translate(-120 -936)">
    <path fill="#555" fill-rule="nonzero" d="M3.0051147,12.1606734 C2.72826613,12.1606734 2.50383602,12.3859754 2.50383602,12.6638995 L2.50383602,20.9870958 C2.50383602,21.2650199 2.72826613,21.4903218 3.0051147,21.4903218 L17.4897344,21.4903218 C17.766583,21.4903218 17.9910131,21.2650199 17.9910131,20.9870958 L17.9910131,12.6638995 C17.9910131,12.3859754 17.766583,12.1606734 17.4897344,12.1606734 L3.0051147,12.1606734 Z M20.5216228,14.557849 L22.0911777,14.2216532 C22.5590798,14.1214294 23,14.4795818 23,14.959875 L23,18.7902049 C23,19.2682949 22.5628841,19.6259562 22.0964309,19.5295323 L20.5216228,19.2039923 L20.5216228,17.6626398 L21.496164,17.8640942 L21.496164,15.8927649 L20.5216228,16.1015098 L20.5216228,14.557849 Z M3.0051147,10.6509952 L17.4897344,10.6509952 C18.5971287,10.6509952 19.4948491,11.5522032 19.4948491,12.6638995 L19.4948491,20.9870958 C19.4948491,22.0987921 18.5971287,23 17.4897344,23 L3.0051147,23 C1.89772043,23 1,22.0987921 1,20.9870958 L1,12.6638995 C1,11.5522032 1.89772043,10.6509952 3.0051147,10.6509952 Z M6.51406542,19.4774176 C7.62145969,19.4774176 8.51918012,18.5762097 8.51918012,17.4645134 C8.51918012,16.3528171 7.62145969,15.4516092 6.51406542,15.4516092 C5.40667115,15.4516092 4.50895072,16.3528171 4.50895072,17.4645134 C4.50895072,18.5762097 5.40667115,19.4774176 6.51406542,19.4774176 Z M6.51406542,18.4709655 C5.96036828,18.4709655 5.51150807,18.0203616 5.51150807,17.4645134 C5.51150807,16.9086653 5.96036828,16.4580613 6.51406542,16.4580613 C7.06776255,16.4580613 7.51662277,16.9086653 7.51662277,17.4645134 C7.51662277,18.0203616 7.06776255,18.4709655 6.51406542,18.4709655 Z M5.51150807,9.55484289 C3.15829525,9.55484289 1.25063934,7.63977607 1.25063934,5.27742144 C1.25063934,2.91506681 3.15829525,1 5.51150807,1 C7.86472089,1 9.7723768,2.91506681 9.7723768,5.27742144 C9.7723768,7.63977607 7.86472089,9.55484289 5.51150807,9.55484289 Z M5.51150807,8.04516473 C7.03417519,8.04516473 8.26854078,6.80600385 8.26854078,5.27742144 C8.26854078,3.74883903 7.03417519,2.50967816 5.51150807,2.50967816 C3.98884095,2.50967816 2.75447536,3.74883903 2.75447536,5.27742144 C2.75447536,6.80600385 3.98884095,8.04516473 5.51150807,8.04516473 Z M14.9692184,9.66450962 C12.6160056,9.66450962 10.7083497,7.74944281 10.7083497,5.38708818 C10.7083497,3.02473354 12.6160056,1.10966673 14.9692184,1.10966673 C17.3224313,1.10966673 19.2300872,3.02473354 19.2300872,5.38708818 C19.2300872,7.74944281 17.3224313,9.66450962 14.9692184,9.66450962 Z M14.9692184,8.15483146 C16.4918855,8.15483146 17.7262511,6.91567058 17.7262511,5.38708818 C17.7262511,3.85850577 16.4918855,2.61934489 14.9692184,2.61934489 C13.4465513,2.61934489 12.2121857,3.85850577 12.2121857,5.38708818 C12.2121857,6.91567058 13.4465513,8.15483146 14.9692184,8.15483146 Z" transform="translate(120 936)"/>
  </g>
</svg>
