<svg xmlns="http://www.w3.org/2000/svg" width="24" height="24" viewBox="0 0 24 24">
  <g fill="none" fill-rule="evenodd" transform="translate(-216 -648)">
    <path fill="#555" fill-rule="nonzero" d="M12,23 C5.92486775,23 1,18.0751322 1,12 C1,5.92486775 5.92486775,1 12,1 C18.0751322,1 23,5.92486775 23,12 C23,18.0751322 18.0751322,23 12,23 Z M12.0232558,18.0465116 C12.5883844,18.0465116 13.0465116,17.5883844 13.0465116,17.0232558 C13.0465116,16.4581272 12.5883844,16 12.0232558,16 C11.4581272,16 11,16.4581272 11,17.0232558 C11,17.5883844 11.4581272,18.0465116 12.0232558,18.0465116 Z M11.1968027,5.76744186 L11.1968027,14.0814151 C11.1968027,14.5052616 11.5403981,14.848857 11.9642446,14.848857 C12.388091,14.848857 12.7316864,14.5052616 12.7316864,14.0814151 L12.7316864,5.76744186 C12.7316864,5.34359542 12.388091,5 11.9642446,5 C11.5403981,5 11.1968027,5.34359542 11.1968027,5.76744186 Z" transform="translate(216 648)"/>
  </g>
</svg>
