<svg xmlns="http://www.w3.org/2000/svg" width="20" height="20" viewBox="0 0 20 20">
  <path fill="#555" d="M19.5907523,15.8607776 L12.0056301,1.92309891 C11.5148908,1.01057747 10.7787819,0.5 9.98933176,0.5 C9.19988163,0.5 8.47444097,1.02144082 7.97303345,1.93396226 L0.409247749,15.8607776 C-0.0814915205,16.7624357 -0.134832745,17.6858205 0.270560564,18.3919383 C0.675953874,19.098056 1.48674049,19.5 2.48955552,19.5 L17.5104445,19.5 C18.5132595,19.5 19.3240461,19.098056 19.7294394,18.3919383 C20.1348327,17.6858205 20.0814915,16.773299 19.5907523,15.8607776 Z M10,4.85620354 C10.3947251,4.85620354 10.7147724,5.18210406 10.7147724,5.58404803 L10.7147724,12.1672384 C10.7147724,12.5692158 10.3947579,12.8950829 10,12.8950829 C9.6052421,12.8950829 9.28522759,12.5692158 9.28522759,12.1672384 L9.28522759,5.58404803 C9.28522759,5.19296741 9.60527494,4.85620354 10,4.85620354 Z M10,16.4799886 C9.38124179,16.4799886 8.89050252,15.9694111 8.89050252,15.3393368 C8.89050252,14.7092624 9.39191004,14.198685 10,14.198685 C10.6187582,14.198685 11.1094975,14.7092624 11.1094975,15.3393368 C11.1094975,15.9694111 10.60809,16.4799886 10,16.4799886 Z"/>
</svg>
