<svg xmlns="http://www.w3.org/2000/svg" width="24" height="24" viewBox="0 0 24 24">
  <g fill="none" fill-rule="evenodd" transform="translate(-164 -644)">
    <path fill="#555" fill-rule="nonzero" d="M12,22.5 C17.7989899,22.5 22.5,17.7989899 22.5,12 C22.5,6.20101013 17.7989899,1.5 12,1.5 C6.20101013,1.5 1.5,6.20101013 1.5,12 C1.5,17.7989899 6.20101013,22.5 12,22.5 Z M12,24 C5.372583,24 0,18.627417 0,12 C0,5.372583 5.372583,0 12,0 C18.627417,0 24,5.372583 24,12 C24,18.627417 18.627417,24 12,24 Z M12,15.4245439 C12.4911111,15.4245439 12.8888889,15.0089552 12.8888889,14.4958541 L12.8888889,5.92868988 C12.8888889,5.41558872 12.4911111,5 12,5 C11.5088889,5 11.1111111,5.41558872 11.1111111,5.92868988 L11.1111111,14.4958541 C11.1111111,15.0089552 11.5088889,15.4245439 12,15.4245439 Z M11,17.9552239 C11,18.5322378 11.4477153,19 12,19 C12.5522847,19 13,18.5322378 13,17.9552239 C13,17.37821 12.5522847,16.9104478 12,16.9104478 C11.4477153,16.9104478 11,17.37821 11,17.9552239 Z" transform="translate(164 644)"/>
  </g>
</svg>
