<svg xmlns="http://www.w3.org/2000/svg" width="24" height="24" viewBox="0 0 24 24">
  <path fill="#555" d="M19.5091576,21 L4.49148361,21 C3.48439979,21 2.67535773,20.5950413 2.27131586,19.8887333 C1.86716983,19.1824252 1.91633653,18.2598225 2.40671176,17.3582768 L9.98396545,3.42864732 C10.4771949,2.5205279 11.2106327,2 11.9953206,2 C12.7801126,2 13.5128213,2.51989174 14.0074257,3.42720536 L21.5926378,17.3596975 C22.082888,18.2612645 22.1335964,19.1831886 21.7287003,19.8894118 C21.3253043,20.5956987 20.5155956,21 19.5091576,21 Z M11.9960914,3.46223661 C11.7465913,3.46223661 11.4608203,3.7159375 11.2291536,4.14076563 L3.65189987,18.0718158 C3.41448309,18.5090279 3.35892056,18.9017511 3.50073313,19.1494933 C3.6426707,19.3966205 4.00396254,19.538548 4.49150444,19.538548 L19.5091784,19.538548 C19.9974911,19.538548 20.3581372,19.3974051 20.4999706,19.1494933 C20.6410331,18.9023873 20.5862206,18.5098125 20.348158,18.0725792 L12.7630501,4.14076563 C12.53205,3.7159375 12.2448207,3.46223661 11.9960914,3.46223661 Z M12.0003623,14.4037344 C11.6069662,14.4037344 11.2876536,14.076875 11.2876536,13.6725949 L11.2876536,7.09236049 C11.2876536,6.68875893 11.6069662,6.36119978 12.0003623,6.36119978 C12.3938208,6.36119978 12.7131334,6.68875893 12.7131334,7.09236049 L12.7131334,13.6725737 C12.7131126,14.076875 12.3938,14.4037344 12.0003623,14.4037344 Z M11.9952373,17.9776217 C12.6085917,17.9776217 13.105842,17.4666574 13.105842,16.8363705 C13.105842,16.2060837 12.6086126,15.6951194 11.9952373,15.6951194 C11.381862,15.6951194 10.8846534,16.2060837 10.8846534,16.8363705 C10.8846534,17.4666574 11.3818828,17.9776217 11.9952373,17.9776217 Z"/>
</svg>
