<svg xmlns="http://www.w3.org/2000/svg" width="24" height="24" viewBox="0 0 24 24">
  <path fill="#555" d="M21.5907523,17.3607776 L14.0056301,3.42309891 C13.5148908,2.51057747 12.7787819,2 11.9893318,2 C11.1998816,2 10.474441,2.52144082 9.97303345,3.43396226 L2.40924775,17.3607776 C1.91850848,18.2624357 1.86516725,19.1858205 2.27056056,19.8919383 C2.67595387,20.598056 3.48674049,21 4.48955552,21 L19.5104445,21 C20.5132595,21 21.3240461,20.598056 21.7294394,19.8919383 C22.1348327,19.1858205 22.0814915,18.273299 21.5907523,17.3607776 Z M12,6.35620354 C12.3947251,6.35620354 12.7147724,6.68210406 12.7147724,7.08404803 L12.7147724,13.6672384 C12.7147724,14.0692158 12.3947579,14.3950829 12,14.3950829 C11.6052421,14.3950829 11.2852276,14.0692158 11.2852276,13.6672384 L11.2852276,7.08404803 C11.2852276,6.69296741 11.6052749,6.35620354 12,6.35620354 Z M12,17.9799886 C11.3812418,17.9799886 10.8905025,17.4694111 10.8905025,16.8393368 C10.8905025,16.2092624 11.39191,15.698685 12,15.698685 C12.6187582,15.698685 13.1094975,16.2092624 13.1094975,16.8393368 C13.1094975,17.4694111 12.60809,17.9799886 12,17.9799886 Z"/>
</svg>
