<svg xmlns="http://www.w3.org/2000/svg" width="24" height="24" viewBox="0 0 24 24">
  <path fill="#555" d="M12,22 C6.4771525,22 2,17.5228475 2,12 C2,6.4771525 6.4771525,2 12,2 C17.5228475,2 22,6.4771525 22,12 C22,17.5228475 17.5228475,22 12,22 Z M12.0211416,17.4968288 C12.5348949,17.4968288 12.9513742,17.0803495 12.9513742,16.5665962 C12.9513742,16.0528429 12.5348949,15.6363636 12.0211416,15.6363636 C11.5073884,15.6363636 11.0909091,16.0528429 11.0909091,16.5665962 C11.0909091,17.0803495 11.5073884,17.4968288 12.0211416,17.4968288 Z M11.2698206,6.33403805 L11.2698206,13.8921956 C11.2698206,14.2775105 11.5821801,14.58987 11.967495,14.58987 C12.35281,14.58987 12.6651695,14.2775105 12.6651695,13.8921956 L12.6651695,6.33403805 C12.6651695,5.94872311 12.35281,5.63636364 11.967495,5.63636364 C11.5821801,5.63636364 11.2698206,5.94872311 11.2698206,6.33403805 Z"/>
</svg>
