<svg xmlns="http://www.w3.org/2000/svg" width="24" height="24" viewBox="0 0 24 24">
  <path fill="#555" d="M16.8116637,12.3014087 C16.0339912,12.1598777 16.4126385,11.7671162 16.4126385,11.7671162 C16.4126385,11.7671162 17.1734442,10.5888108 16.2616596,9.73259532 C15.1310733,8.6718952 12.3849638,9.86768075 12.3849638,9.86768075 C11.3359336,10.1735629 11.6143802,9.72779766 11.7630035,8.97114405 C11.7630035,8.07886267 11.4371344,6.56905983 8.64315781,7.46134121 C5.85215903,8.35766931 3.45487431,11.498927 3.45487431,11.498927 C1.7883951,13.5866601 2.00975232,15.2000716 2.00975232,15.2000716 C2.42602213,18.7618754 6.45783025,19.7399306 9.59394275,19.9714908 C12.8927898,20.2140855 17.3461567,18.9039905 18.6957668,16.2114601 C20.046177,13.514883 17.5924252,12.447925 16.8116193,12.3014295 L16.8116637,12.3014087 Z M9.83830014,18.9674448 C6.56240882,19.1106445 3.91492222,17.5688225 3.91492222,15.5177184 C3.91492222,13.4633185 6.56238659,11.8165738 9.83830014,11.6746673 C13.1149915,11.5325732 15.7679448,12.8006991 15.7679448,14.8499675 C15.7679448,16.9010716 13.1149692,18.8269776 9.83830014,18.9674239 L9.83830014,18.9674448 Z M18.4163869,11.047634 C18.1160069,11.047634 17.8728495,10.8227072 17.8728495,10.5414808 C17.8728495,10.5414808 18.4065869,8.2724587 15.9883242,8.77272951 C15.6892775,8.77272951 15.4500757,8.54613393 15.4500757,8.2680365 C15.4500757,7.98459908 15.6892997,7.75748201 15.9883242,7.75748201 C15.9883242,7.75748201 19.3548384,7.1734816 18.9524799,10.5683477 C18.9524799,10.5884145 18.9497465,10.6044345 18.9452354,10.622457 C18.9077684,10.8632161 18.6815,11.047634 18.4163869,11.047634 Z M18.0240284,5.12093822 C20.1067997,5.57700798 22.9652656,7.46670208 21.679167,11.4888102 L21.6744559,11.4888102 C21.5852108,12.0636116 21.2814974,12.1092519 20.9193391,12.1092519 C20.4866025,12.1092519 20.1375777,11.8539747 20.1375777,11.4473834 C20.1375777,11.0947554 20.2930677,10.7369542 20.2930677,10.7369542 C20.3385347,10.5886231 20.7044486,9.66686737 20.0516881,8.28941738 C18.8536347,6.40160063 16.4433943,6.37435826 16.1585033,6.48220132 C15.8708567,6.58749954 15.4475201,6.64085786 15.4475201,6.64085786 C15.011228,6.64085786 14.6620253,6.3079211 14.6620253,5.90354091 C14.6620253,5.56397086 14.9036049,5.27665359 15.2349852,5.18850179 C15.2349852,5.18850179 15.2420741,5.17763405 15.2532298,5.17523522 C15.2771411,5.17060444 15.3018524,5.14834746 15.3275415,5.1463241 C15.6630329,5.08558155 16.8597085,4.86491004 18.0240284,5.12093822 Z M9.18436189,13.0272947 C5.89060376,13.3891425 6.27100662,16.2855944 6.27100662,16.2855944 C6.27100662,16.2855944 6.23709526,17.202907 7.15416883,17.6698654 C9.08142778,18.6495893 11.0659538,18.0567445 12.0690947,16.8410591 C13.0720578,15.6252069 12.4839867,12.668388 9.18436189,13.0272738 L9.18436189,13.0272947 Z M8.35300007,17.092686 C7.73886212,17.1604164 7.24281394,16.8270833 7.24281394,16.3445222 C7.24281394,15.8632125 7.68299503,15.3598337 8.29831077,15.2998212 C9.00498276,15.2363043 9.465164,15.6184276 9.465164,16.1015728 C9.465164,16.582507 8.96653802,17.026812 8.35300007,17.092686 Z M10.295348,15.5402048 C10.086902,15.6859703 9.83103342,15.6659035 9.72121037,15.4906846 C9.60609839,15.3195125 9.64945428,15.0450863 9.85965586,14.9015319 C10.1035688,14.730923 10.357504,14.7804223 10.4677049,14.9510521 C10.5785057,15.1260833 10.4990829,15.3890994 10.2953702,15.5402048 L10.295348,15.5402048 Z"/>
</svg>
