<svg xmlns="http://www.w3.org/2000/svg" width="24" height="24" viewBox="0 0 24 24">
  <g fill="none" fill-rule="evenodd" transform="translate(-696 -1104)">
    <path fill="#555" fill-rule="nonzero" d="M17.2928301,12.2749298 C16.4373903,12.114528 16.8539024,11.6693983 16.8539024,11.6693983 C16.8539024,11.6693983 17.6907887,10.3339856 16.6878256,9.36360803 C15.4441806,8.16148123 12.4234601,9.51670484 12.4234601,9.51670484 C11.269527,9.86337126 11.5758182,9.35817068 11.7393039,8.50062992 C11.7393039,7.4893777 11.3808478,5.77826781 8.30747359,6.78952004 C5.23737493,7.80535856 2.60036175,11.3654506 2.60036175,11.3654506 C0.767234614,13.7315482 1.01072756,15.5600811 1.01072756,15.5600811 C1.46862434,19.5967922 5.90361328,20.7052547 9.35333702,20.9676895 C12.9820688,21.2426302 17.8807723,19.7578559 19.3653435,16.7063214 C20.8507947,13.6502007 18.1516677,12.4409817 17.2927812,12.2749535 L17.2928301,12.2749298 Z M9.62213016,19.8297707 C6.0186497,19.9920638 3.10641444,18.2446655 3.10641444,15.9200809 C3.10641444,13.591761 6.01862525,11.7254503 9.62213016,11.564623 C13.2264906,11.4035829 16.1447393,12.8407923 16.1447393,15.1632965 C16.1447393,17.4878812 13.2264662,19.6705746 9.62213016,19.8297471 L9.62213016,19.8297707 Z M19.0580256,10.8539852 C18.7276076,10.8539852 18.4601345,10.5990681 18.4601345,10.280345 C18.4601345,10.280345 19.0472455,7.70878652 16.3871566,8.27576011 C16.0582053,8.27576011 15.7950833,8.01895178 15.7950833,7.7037747 C15.7950833,7.38254562 16.0582297,7.12514628 16.3871566,7.12514628 C16.3871566,7.12514628 20.0903223,6.46327914 19.6477278,10.3107941 C19.6477278,10.3335364 19.6447212,10.3516924 19.6397589,10.3721179 C19.5985453,10.6449783 19.34965,10.8539852 19.0580256,10.8539852 Z M18.6264313,4.13706332 C20.9174796,4.65394238 24.0617922,6.79559569 22.6470838,11.3539848 L22.6419015,11.3539848 C22.5437319,12.0054265 22.2096471,12.0571522 21.811273,12.0571522 C21.3352628,12.0571522 20.9513354,11.767838 20.9513354,11.3070345 C20.9513354,10.9073894 21.1223745,10.5018814 21.1223745,10.5018814 C21.1723882,10.3337728 21.5748935,9.28911636 20.8568569,7.72800637 C19.5389981,5.58848072 16.8877337,5.55760603 16.5743536,5.67982817 C16.2579423,5.79916614 15.7922722,5.85963891 15.7922722,5.85963891 C15.3123508,5.85963891 14.9282279,5.48231058 14.9282279,5.02401304 C14.9282279,4.63916698 15.1939654,4.31354073 15.5584837,4.21363537 C15.5584837,4.21363537 15.5662816,4.20131859 15.5785528,4.19859992 C15.6048552,4.19335169 15.6320376,4.16812713 15.6602956,4.16583398 C16.0293362,4.09699242 17.3456794,3.84689804 18.6264313,4.13706332 Z M8.90279807,13.0976006 C5.27966414,13.5076949 5.69810728,16.7903403 5.69810728,16.7903403 C5.69810728,16.7903403 5.66080478,17.8299613 6.66958571,18.3591808 C8.78957056,19.4695346 10.9725492,18.7976438 12.0760042,17.419867 C13.1792636,16.0419011 12.5323854,12.6908397 8.90279807,13.097577 L8.90279807,13.0976006 Z M7.98830008,17.7050441 C7.31274833,17.7818053 6.76709533,17.4040278 6.76709533,16.8571251 C6.76709533,16.3116409 7.25129453,15.7411448 7.92814185,15.6731307 C8.70548103,15.6011449 9.2116804,16.0342179 9.2116804,16.5817825 C9.2116804,17.1268412 8.66319183,17.630387 7.98830008,17.7050441 Z M10.1248828,15.9455655 C9.89559221,16.1107663 9.61413676,16.088024 9.49333141,15.8894426 C9.36670823,15.6954475 9.4143997,15.3844311 9.64562144,15.2217362 C9.91392569,15.0283794 10.1932545,15.0844786 10.3144754,15.2778591 C10.4363563,15.4762278 10.3489912,15.7743126 10.1249073,15.9455655 L10.1248828,15.9455655 Z" transform="translate(696 1104)"/>
  </g>
</svg>
