<svg xmlns="http://www.w3.org/2000/svg" width="24" height="24" viewBox="0 0 24 24">
  <g fill="none" fill-rule="evenodd" transform="translate(-696 -1104)">
    <path fill="#555" fill-rule="nonzero" d="M17.7738667,9.24877778 C16.8406667,9.06972917 17.29504,8.57285278 17.29504,8.57285278 C17.29504,8.57285278 18.208,7.08219722 17.1138667,5.9990125 C15.7571733,4.6571375 12.4618667,6.16990694 12.4618667,6.16990694 C11.20304,6.55687361 11.5371733,5.99294306 11.71552,5.0357125 C11.71552,3.90690139 11.32448,1.99687361 7.97173333,3.12568472 C4.62256,4.25961528 1.74584,8.23357083 1.74584,8.23357083 C-0.25392,10.8747292 0.0117066667,12.9158306 0.0117066667,12.9158306 C0.511226667,17.4218125 5.34936,18.6591347 9.11266667,18.9520778 C13.0712533,19.2589806 18.4152533,17.6016 20.0347733,14.1953222 C21.6552533,10.783925 18.7107733,9.43413333 17.7738133,9.24880417 L17.7738667,9.24877778 Z M9.40589333,17.681875 C5.47485333,17.8630347 2.29789333,15.9125 2.29789333,13.3176806 C2.29789333,10.7186917 5.47482667,8.63542083 9.40589333,8.45589722 C13.3378933,8.27613611 16.5214133,9.88042222 16.5214133,12.4729194 C16.5214133,15.0677389 13.3378667,17.5041722 9.40589333,17.6818486 L9.40589333,17.681875 Z M19.69952,7.66264722 C19.3390667,7.66264722 19.04728,7.37809583 19.04728,7.02232083 C19.04728,7.02232083 19.68776,4.15181667 16.7858667,4.78470139 C16.4270133,4.78470139 16.1399733,4.49803889 16.1399733,4.14622222 C16.1399733,3.78765 16.42704,3.50032778 16.7858667,3.50032778 C16.7858667,3.50032778 20.8256533,2.76151806 20.3428267,7.05630972 C20.3428267,7.08169583 20.3395467,7.1019625 20.3341333,7.1247625 C20.2891733,7.42934306 20.0176533,7.66264722 19.69952,7.66264722 Z M19.2286933,0.164877778 L19.2286933,0.164877778 C21.728,0.741844444 25.1581333,3.13246667 23.6148267,8.22077222 L23.6091733,8.22077222 C23.50208,8.94794444 23.1376267,9.00568333 22.70304,9.00568333 C22.18376,9.00568333 21.7649333,8.68273611 21.7649333,8.16836389 C21.7649333,7.72225972 21.95152,7.26961111 21.95152,7.26961111 C22.00608,7.08195972 22.4451733,5.91586111 21.6618667,4.17327083 C20.2242133,1.78502361 17.3319467,1.75055972 16.99008,1.88699028 C16.6449067,2.02020139 16.1369067,2.08770417 16.1369067,2.08770417 C15.61336,2.08770417 15.19432,1.66651111 15.19432,1.15493611 C15.19432,0.725351389 15.4842133,0.361870833 15.8818667,0.250351389 C15.8818667,0.250351389 15.8903733,0.236602778 15.90376,0.233568056 C15.9324533,0.227709722 15.9621067,0.199552778 15.9929333,0.196993056 C16.39552,0.120148611 17.83152,-0.159019444 19.2286933,0.164877778 Z M8.62117333,10.1670847 C4.66869333,10.6248528 5.12517333,14.2891083 5.12517333,14.2891083 C5.12517333,14.2891083 5.08448,15.4495861 6.18496,16.0403278 C8.49765333,17.2797611 10.8790667,16.5297625 12.0828267,14.9918181 C13.2863733,13.4536625 12.5806933,9.7130375 8.62117333,10.1670583 L8.62117333,10.1670847 Z M7.62354667,15.3101472 C6.88658667,15.3958319 6.29133333,14.9741375 6.29133333,14.3636569 C6.29133333,13.7547597 6.81954667,13.1179431 7.55792,13.0420222 C8.40592,12.9616681 8.95813333,13.4450861 8.95813333,14.0563056 C8.95813333,14.6647278 8.35978667,15.2268111 7.62354667,15.3101472 L7.62354667,15.3101472 Z M9.95434667,13.3461278 C9.70421333,13.5305333 9.39717333,13.5051472 9.26538667,13.2834806 C9.12725333,13.0669333 9.17928,12.7197611 9.43152,12.5381528 C9.72421333,12.3223181 10.0289333,12.3849389 10.1611733,12.6008 C10.2941333,12.8222292 10.1988267,13.1549667 9.95437333,13.3461278 L9.95434667,13.3461278 Z" transform="translate(696 1107)"/>
  </g>
</svg>
