<svg xmlns="http://www.w3.org/2000/svg" width="24" height="24" viewBox="0 0 24 24">
  <g fill="none" fill-rule="evenodd" transform="translate(-456 -1152)">
    <path fill="#555" fill-rule="nonzero" d="M16.2466896,5.74866879 C16.5228264,5.74866879 16.7951583,5.76851868 17.0648432,5.79730508 C16.3300683,2.47156849 12.6709725,0 8.49464752,0 C3.82519146,0 0,3.09346851 0,7.02122814 C0,9.28806926 1.27287641,11.1498968 3.39917145,12.593956 L2.54969567,15.0780356 L5.51893185,13.630456 C6.58206558,13.8345605 7.43410559,14.0450289 8.49464752,14.0450289 C8.76107891,14.0450289 9.02489092,14.0322741 9.2874346,14.0118284 C9.12131134,13.4603102 9.02489092,12.8819554 9.02489092,12.2824237 C9.02491849,8.67583693 12.2117003,5.74872295 16.2466896,5.74872295 L16.2466896,5.74866879 Z M11.6801335,3.50999122 C12.3198114,3.50999122 12.7432396,3.91944596 12.7432396,4.54072313 C12.7432396,5.15940058 12.3198114,5.57400059 11.6801335,5.57400059 C11.0430197,5.57400059 10.4046101,5.15940058 10.4046101,4.54072313 C10.4046101,3.91944596 11.0430197,3.50999122 11.6801335,3.50999122 Z M5.73515403,5.57397351 C5.0980403,5.57397351 4.4557154,5.1593735 4.4557154,4.54069605 C4.4557154,3.91941888 5.0980403,3.50996414 5.73515403,3.50996414 C6.37157845,3.50996414 6.79566839,3.91941888 6.79566839,4.54069605 C6.79566839,5.15940058 6.37157845,5.57397351 5.73515403,5.57397351 Z M23.9999449,12.1832014 C23.9999449,8.88243284 20.6014351,6.19202812 16.7847084,6.19202812 C12.743212,6.19202812 9.56034548,8.88243284 9.56034548,12.1832014 C9.56034548,15.4887631 12.743212,18.1733997 16.7847084,18.1733997 C17.6302413,18.1733997 18.4836324,17.9673454 19.3331082,17.7600725 L21.6633557,19 L21.0242568,16.9372634 C22.7297705,15.6934905 24,14.0450018 24,12.1832014 L23.9999449,12.1832014 Z M14.4421636,11.1498968 C14.0194247,11.1498968 13.5926878,10.7410649 13.5926878,10.3238923 C13.5926878,9.91251482 14.0193696,9.49856474 14.4421636,9.49856474 C15.0844885,9.49856474 15.5052973,9.91251482 15.5052973,10.3238923 C15.5052973,10.7410649 15.0844609,11.1498968 14.4421636,11.1498968 Z M19.114239,11.1498968 C18.6947812,11.1498968 18.2706637,10.7410649 18.2706637,10.3238923 C18.2706637,9.91251482 18.6947537,9.49856474 19.114239,9.49856474 C19.7513528,9.49856474 20.1773728,9.91251482 20.1773728,10.3238923 C20.1773728,10.7410649 19.7513528,11.1498968 19.114239,11.1498968 Z" transform="translate(456 1155)"/>
  </g>
</svg>
