<svg xmlns="http://www.w3.org/2000/svg" width="24" height="24" viewBox="0 0 24 24">
  <g fill="none" fill-rule="evenodd" transform="translate(-456 -1152)">
    <path fill="#555" fill-rule="nonzero" d="M15.8927988,9.14354576 C16.1459242,9.14354576 16.3955618,9.16130618 16.6427729,9.18706244 C15.9692293,6.21140339 12.6150582,4 8.78676023,4 C4.5064255,4 1,6.76784024 1,10.2821515 C1,12.3103778 2.16680338,13.9762235 4.11590716,15.2682764 L3.33722103,17.4908739 L6.05902086,16.1956711 C7.03356012,16.378291 7.81459679,16.5666048 8.78676023,16.5666048 C9.030989,16.5666048 9.27281667,16.5551926 9.51348172,16.5368991 C9.36120206,16.0434354 9.27281667,15.5259601 9.27281667,14.989537 C9.27284195,11.7625909 12.1940586,9.14359422 15.8927988,9.14359422 L15.8927988,9.14354576 Z M11.706789,7.14051846 C12.2931605,7.14051846 12.681303,7.50687271 12.681303,8.06275227 C12.681303,8.61630579 12.2931605,8.98726369 11.706789,8.98726369 C11.1227681,8.98726369 10.5375593,8.61630579 10.5375593,8.06275227 C10.5375593,7.50687271 11.1227681,7.14051846 11.706789,7.14051846 Z M6.25722452,8.98723946 C5.67320361,8.98723946 5.08440578,8.61628156 5.08440578,8.06272804 C5.08440578,7.50684848 5.67320361,7.14049423 6.25722452,7.14049423 C6.84061358,7.14049423 7.22936269,7.50684848 7.22936269,8.06272804 C7.22936269,8.61630579 6.84061358,8.98723946 6.25722452,8.98723946 Z M22.9999495,14.9007591 C22.9999495,11.9474399 19.8846489,9.54023568 16.3859827,9.54023568 C12.6812777,9.54023568 9.76365002,11.9474399 9.76365002,14.9007591 C9.76365002,17.858367 12.6812777,20.2604103 16.3859827,20.2604103 C17.1610545,20.2604103 17.9433297,20.0760459 18.7220158,19.8905911 L20.858076,21 L20.2722354,19.1543936 C21.835623,18.0415441 23,16.5665806 23,14.9007591 L22.9999495,14.9007591 Z M14.23865,13.9762235 C13.8511393,13.9762235 13.4599638,13.6104265 13.4599638,13.2371668 C13.4599638,12.8690922 13.8510888,12.4987158 14.23865,12.4987158 C14.8274478,12.4987158 15.2131892,12.8690922 15.2131892,13.2371668 C15.2131892,13.6104265 14.8274225,13.9762235 14.23865,13.9762235 Z M18.5213858,13.9762235 C18.1368828,13.9762235 17.7481084,13.6104265 17.7481084,13.2371668 C17.7481084,12.8690922 18.1368575,12.4987158 18.5213858,12.4987158 C19.1054067,12.4987158 19.495925,12.8690922 19.495925,13.2371668 C19.495925,13.6104265 19.1054067,13.9762235 18.5213858,13.9762235 Z" transform="translate(456 1152)"/>
  </g>
</svg>
