<svg xmlns="http://www.w3.org/2000/svg" width="24" height="24" viewBox="0 0 24 24">
  <path fill="#555" d="M22,14.3067649 C22,15.7789685 20.900489,17.1533825 19.5002843,18.2330878 L20.0002275,20 L18.1000796,18.9202947 C17.4004322,19.1163206 16.7003298,19.312793 16.0002275,19.312793 C12.6002502,19.312793 10.0004549,17.0551463 10.0004549,14.3067649 C10.0004549,11.5583836 12.7003298,9.30073677 16.0002275,9.30073677 C19.2000455,9.30073679 22,11.5583836 22,14.3067649 Z M14.1005345,13.4230855 C14.6004777,13.4230855 15.0003412,13.0305872 15.0007961,12.7358785 C15.0007961,12.3433802 14.6004777,12.0486716 14.1005345,12.0486716 C13.8002957,12.0486716 13.4004322,12.4416164 13.4004322,12.7358785 C13.4004322,13.1283769 13.700671,13.4230855 14.1005345,13.4230855 Z M17.9003753,13.4230855 C18.500398,13.4230855 18.8006369,13.0305872 18.8006369,12.7358785 C18.8006369,12.3433802 18.4003184,12.0486716 17.9003753,12.0486716 C17.6001365,12.0486716 17.2002729,12.4416164 17.2002729,12.7358785 C17.200273,13.1283769 17.6005914,13.4230855 17.9003753,13.4230855 Z M9.00011374,4 C12.5001706,4 15.5002843,6.06117437 16.3009212,8.8095557 L15.6008188,8.8095557 C12.2008416,8.80955572 9.60104628,11.2641215 9.60104628,14.3067649 C9.6010463,14.7974994 9.700671,15.288234 9.80075061,15.7789685 L9.10064824,15.7789685 C8.20038667,15.7789685 7.50028433,15.5829426 6.60047765,15.3864702 L4.10030707,16.5644117 L4.79995452,14.5032373 C3.09996589,13.3252958 2,11.754856 2,9.88970753 C2.00000002,6.55235544 5.10019335,4 9.00011374,4 Z M6.80018196,8.61352981 C7.30058002,8.61352981 7.60036393,8.31882117 7.70044354,7.72985042 C7.70044352,7.14087965 7.30012509,6.84617101 6.80018196,6.84617101 C6.20061413,6.84617103 5.70021609,7.23866935 5.70021609,7.72985042 C5.70021607,8.31882117 6.30023883,8.61352981 6.80018196,8.61352981 Z M11.7004435,8.61352981 C12.2003867,8.61352981 12.6002502,8.31882117 12.6007051,7.72985042 C12.6007051,7.14087965 12.2003867,6.84617101 11.7004435,6.84617101 C11.1004208,6.84617103 10.6004777,7.23866935 10.6004777,7.72985042 C10.6004777,8.31882117 11.2005004,8.61352981 11.7004435,8.61352981 Z"/>
</svg>
