<svg xmlns="http://www.w3.org/2000/svg" width="24" height="24" viewBox="0 0 24 24">
  <path fill="#555" fill-rule="evenodd" d="M12,20 C10.8954305,20 10,19.1045695 10,18 C10,16.8954305 10.8954305,16 12,16 C13.1045695,16 14,16.8954305 14,18 C14,19.1045695 13.1045695,20 12,20 Z M16.8004195,14.7726526 C17.009197,15.0980308 16.9146734,15.5310496 16.5892952,15.7398271 C16.263917,15.9486046 15.8308982,15.8540811 15.6221207,15.5287029 C14.8357259,14.3031123 13.4829662,13.5472232 12,13.5472232 C10.5156947,13.5472232 9.16187268,14.3044899 8.37584085,15.5318829 C8.16734892,15.8574441 7.73441324,15.9523476 7.40885195,15.7438557 C7.08329067,15.5353637 6.98838721,15.1024281 7.19687915,14.7768668 C8.23765325,13.1516924 10.0334175,12.1472232 12,12.1472232 C13.9648048,12.1472232 15.7591677,13.1498694 16.8004195,14.7726526 Z M19.6757303,11.9270811 C19.9123519,12.2328085 19.8563307,12.6724693 19.5506033,12.9090909 C19.2448759,13.1457126 18.8052151,13.0896913 18.5685935,12.7839639 C17.0198053,10.7828498 14.6252795,9.6025291 12,9.6025291 C9.41509397,9.6025291 7.02764145,10.7909751 5.4630975,12.7873134 C5.22462598,13.0916001 4.78463353,13.1449538 4.48034688,12.9064823 C4.17606022,12.6680107 4.12270651,12.2280183 4.36117804,11.9237316 C6.18833506,9.59230232 8.98023107,8.2025291 12,8.2025291 C15.0594652,8.2025291 17.8623996,9.58416442 19.6757303,11.9270811 Z M21.8188254,8.32060213 C22.0795309,8.60606953 22.0594575,9.04883021 21.7739902,9.3095358 C21.4885228,9.5702414 21.0457621,9.55016799 20.7850565,9.2647006 C18.4719357,6.73187976 15.5077658,5.4 12,5.4 C8.57818961,5.4 5.54682472,6.77164636 3.21016993,9.2707306 C2.94613406,9.55312058 2.50316839,9.56799952 2.22077842,9.30396365 C1.93838845,9.03992777 1.92350951,8.59696211 2.18754538,8.31457213 C4.78378869,5.53785441 8.18247659,4 12,4 C15.904681,4 19.2427983,5.49990423 21.8188254,8.32060213 Z"/>
</svg>
