<svg xmlns="http://www.w3.org/2000/svg" width="20" height="20" viewBox="0 0 20 20">
  <path fill="#555" fill-rule="evenodd" d="M10.0011448,14 C11.1057143,14 12.0011448,14.8954305 12.0011448,16 C12.0011448,17.1045695 11.1057143,18 10.0011448,18 C8.89657531,18 8.00114481,17.1045695 8.00114481,16 C8.00114481,14.8954305 8.89657531,14 10.0011448,14 Z M10.0011448,10.1472232 C11.9659496,10.1472232 13.7603125,11.1498694 14.8015643,12.7726526 C15.0103418,13.0980308 14.9158182,13.5310496 14.59044,13.7398271 C14.2650618,13.9486046 13.832043,13.8540811 13.6232655,13.5287029 C12.8368707,12.3031123 11.484111,11.5472232 10.0011448,11.5472232 C8.51683955,11.5472232 7.16301749,12.3044899 6.37698566,13.5318829 C6.16849373,13.8574441 5.73555805,13.9523476 5.40999677,13.7438557 C5.08443548,13.5353637 4.98953202,13.1024281 5.19802396,12.7768668 C6.23879807,11.1516924 8.03456236,10.1472232 10.0011448,10.1472232 Z M10.0011448,6.2025291 C13.0606101,6.2025291 15.8635444,7.58416442 17.6768751,9.92708111 C17.9134967,10.2328085 17.8574755,10.6724693 17.5517481,10.9090909 C17.2460207,11.1457126 16.8063599,11.0896913 16.5697383,10.7839639 C15.0209501,8.78284978 12.6264244,7.6025291 10.0011448,7.6025291 C7.41623878,7.6025291 5.02878626,8.79097507 3.46424231,10.7873134 C3.22577079,11.0916001 2.78577835,11.1449538 2.48149169,10.9064823 C2.17720503,10.6680107 2.12385133,10.2280183 2.36232285,9.92373163 C4.18947988,7.59230232 6.98137588,6.2025291 10.0011448,6.2025291 Z M10.0011448,2 C13.9058258,2 17.2439431,3.49990423 19.8199702,6.32060213 C20.0806758,6.60606953 20.0606024,7.04883021 19.775135,7.3095358 C19.4896676,7.5702414 19.0469069,7.55016799 18.7862013,7.2647006 C16.4730805,4.73187976 13.5089106,3.4 10.0011448,3.4 C6.57933443,3.4 3.54796953,4.77164636 1.21131475,7.2707306 C0.947278877,7.55312058 0.504313208,7.56799952 0.221923235,7.30396365 C-0.0604667391,7.03992777 -0.0753456796,6.59696211 0.188690191,6.31457213 C2.7849335,3.53785441 6.1836214,2 10.0011448,2 Z"/>
</svg>
