<svg xmlns="http://www.w3.org/2000/svg" width="24" height="24" viewBox="0 0 24 24">
  <g fill="none" fill-rule="evenodd" transform="translate(-552 -936)">
    <path fill="#555" fill-rule="nonzero" d="M22.9059189,10.4597278 C23.0979631,10.7960052 22.9866328,11.227556 22.6572558,11.4236235 C22.3278788,11.6196909 21.9051833,11.5060283 21.7131392,11.1697509 C19.6877761,7.62325531 16.0431475,5.40964253 12.0350548,5.40964253 C7.98075876,5.40964253 4.30011558,7.67493943 2.29078492,11.2871743 C2.1024998,11.6256602 1.68109811,11.7442243 1.3495579,11.5519947 C1.0180177,11.359765 0.901886498,10.9295351 1.09017162,10.5910492 C3.34094707,6.54476166 7.47566321,4 12.0350548,4 C16.5425259,4 20.637067,6.48687299 22.9059189,10.4597278 Z M20.2160526,13.3828832 C20.3700174,13.7389957 20.2120682,14.1551099 19.863263,14.3123003 C19.5144579,14.4694907 19.1068823,14.3082324 18.9529174,13.9521199 C17.7293672,11.1221132 15.0413046,9.26919855 12.0350548,9.26919855 C8.97888126,9.26919855 6.25439784,11.1843954 5.06088871,14.0855956 C4.91324597,14.4444879 4.50858826,14.613232 4.15706043,14.4624962 C3.8055326,14.3117604 3.64025108,13.8986252 3.78789383,13.5397329 C5.19332675,10.1233851 8.41376061,7.85955602 12.0350548,7.85955602 C15.5972738,7.85955602 18.7751211,10.0500854 20.2160526,13.3828832 Z M16.3112246,15.583995 C16.3890368,15.9650643 16.1495373,16.3383829 15.7762875,16.4178253 C15.4030377,16.4972677 15.0373796,16.2527508 14.9595673,15.8716814 C14.6648088,14.4281631 13.448137,13.3848257 12.0350548,13.3848257 C10.5993724,13.3848257 9.36889151,14.461401 9.09816511,15.9355143 C9.02790016,16.318109 8.66714917,16.570109 8.29240521,16.498372 C7.91766125,16.4266351 7.67083225,16.0583264 7.7410972,15.6757317 C8.13261475,13.543907 9.92560087,11.9751831 12.0350548,11.9751831 C14.111485,11.9751831 15.8848474,13.4959018 16.3112246,15.583995 Z M12.0350548,20 C11.018323,20 10.194099,19.136009 10.194099,18.070222 C10.194099,17.004435 11.018323,16.140444 12.0350548,16.140444 C13.0517866,16.140444 13.8760106,17.004435 13.8760106,18.070222 C13.8760106,19.136009 13.0517866,20 12.0350548,20 Z" transform="translate(552 936)"/>
  </g>
</svg>
