<svg xmlns="http://www.w3.org/2000/svg" width="24" height="24" viewBox="0 0 24 24">
  <g fill="none" fill-rule="evenodd" transform="translate(-624 -864)">
    <path fill="#555" fill-rule="nonzero" d="M7.79625769,13.6974259 C7.7108797,13.6974259 7.6241051,13.6833514 7.53885885,13.6536562 C7.12604044,13.5098721 6.90661372,13.0547955 7.04872593,12.6371977 C7.78086857,10.4860334 9.78464265,9.04070146 12.0349062,9.04070146 C13.1253729,9.04070146 14.1720438,9.37473171 15.0617405,10.0066995 C15.9306987,10.6239264 16.588689,11.478981 16.9646157,12.479419 C17.1197717,12.8922453 16.9146537,13.3541192 16.5065522,13.5110716 C16.0984243,13.667944 15.6418365,13.4605046 15.4867332,13.0476783 C15.2235634,12.347337 14.7624168,11.7483963 14.1531763,11.3156044 C13.5309974,10.8736694 12.7985122,10.6400535 12.0349061,10.6400535 C10.4592342,10.6400535 9.05621551,11.6518738 8.54368403,13.1577955 C8.43090079,13.4892134 8.12430419,13.6974259 7.79625769,13.6974259 Z M4.26980399,10.6401868 C4.13543907,10.6401868 3.99933494,10.605507 3.87469362,10.5325753 C3.49676425,10.3114345 3.36761685,9.82226454 3.58625301,9.4399597 C4.42835935,7.96735839 5.6393566,6.73231816 7.08833183,5.86830712 C8.58184063,4.97774639 10.2923518,4.50704923 12.0349325,4.50704923 C13.760622,4.50704923 15.4567455,4.96921637 16.9398719,5.84362336 C18.3783066,6.69164061 19.5868532,7.90607553 20.4348622,9.35561912 C20.6572139,9.73571147 20.5328624,10.226161 20.1571202,10.4511136 C19.7814043,10.6759862 19.2965417,10.5502484 19.0741636,10.1701561 C18.3631547,8.95473487 17.349818,7.9364904 16.1437748,7.22543327 C14.9020257,6.49337098 13.4812199,6.10642795 12.0349325,6.10642795 C10.5744945,6.10642795 9.14161987,6.50054152 7.89120118,7.24614523 C6.67627761,7.97058383 5.66088556,9.00612823 4.95483064,10.240822 C4.8083178,10.4969891 4.54275007,10.6401868 4.26980399,10.6401868 Z M0.789886577,7.74061981 C0.640896714,7.74061981 0.490273075,7.69810301 0.356461513,7.60912424 C-0.0083976632,7.36657846 -0.1097972,6.87071774 0.129972663,6.50163444 C1.40149869,4.5444214 3.14384219,2.91270855 5.16864455,1.78290742 C7.25906147,0.616533838 9.63338659,0 12.0349325,0 C16.7714085,0 21.1841595,2.37329143 23.8390726,6.34857387 C24.0834803,6.71453838 23.9883523,7.21165194 23.6265762,7.45888923 C23.2648002,7.70609988 22.773376,7.60989725 22.5289947,7.24393274 C20.1684776,3.70951906 16.2454642,1.5994054 12.0349325,1.5994054 C7.7592869,1.5994054 3.80278109,3.7603793 1.45124981,7.38001323 C1.29941399,7.61376243 1.04712731,7.74061981 0.789886577,7.74061981 Z M9.79405004,15.7062722 C9.79405004,14.4543387 10.7973273,13.4394461 12.0349325,13.4394461 C13.2725377,13.4394461 14.275815,14.4543387 14.275815,15.7062722 C14.275815,16.9582057 13.2725377,17.9730983 12.0349325,17.9730983 C10.7973273,17.9730983 9.79405004,16.9582057 9.79405004,15.7062722 Z" transform="translate(624 867)"/>
  </g>
</svg>
