<svg xmlns="http://www.w3.org/2000/svg" width="24" height="24" viewBox="0 0 24 24">
  <path fill="#555" d="M13.0434059,15.9339625 L13.0434059,21.3004323 C13.0434059,21.6867929 12.7300362,22 12.3434751,22 C11.956914,22 11.6435443,21.6867929 11.6435443,21.3004323 L11.6435443,15.9339625 L4.69993081,15.9339625 C4.3133697,15.9339625 4,15.6207554 4,15.2343948 C4,14.8480343 4.3133697,14.5348272 4.69993081,14.5348272 L19.3000692,14.5348272 C19.6866303,14.5348272 20,14.8480343 20,15.2343948 C20,15.6207554 19.6866303,15.9339625 19.3000692,15.9339625 L13.0434059,15.9339625 Z M12.3434751,13.3929591 C9.1957632,13.3929591 6.64403853,10.8425584 6.64403853,7.69647956 C6.64403853,4.55040077 9.1957632,2 12.3434751,2 C15.491187,2 18.0429117,4.55040077 18.0429117,7.69647956 C18.0429117,10.8425584 15.491187,13.3929591 12.3434751,13.3929591 Z M12.3434751,11.9938238 C14.7180648,11.9938238 16.6430501,10.0698372 16.6430501,7.69647956 C16.6430501,5.32312188 14.7180648,3.39913533 12.3434751,3.39913533 C9.96888542,3.39913533 8.04390014,5.32312188 8.04390014,7.69647956 C8.04390014,10.0698372 9.96888542,11.9938238 12.3434751,11.9938238 Z"/>
</svg>
