<svg xmlns="http://www.w3.org/2000/svg" width="24" height="24" viewBox="0 0 24 24">
  <path fill="#555" d="M13.2437881,16.339079 L13.2437881,22.2542646 C13.2437881,22.6661229 12.9078442,23 12.4934363,23 C12.0790285,23 11.7430846,22.6661229 11.7430846,22.2542646 L11.7430846,16.339079 L4.75035176,16.339079 C4.33594392,16.339079 4,16.0052019 4,15.5933436 C4,15.1814853 4.33594392,14.8476082 4.75035176,14.8476082 L20.2496482,14.8476082 C20.6640561,14.8476082 21,15.1814853 21,15.5933436 C21,16.0052019 20.6640561,16.339079 20.2496482,16.339079 L13.2437881,16.339079 Z M12.4934363,13.4289231 C9.04003771,13.4289231 6.24050501,10.6466139 6.24050501,7.21446153 C6.24050501,3.7823092 9.04003771,1 12.4934363,1 C15.9468349,1 18.7463676,3.7823092 18.7463676,7.21446153 C18.7463676,10.6466139 15.9468349,13.4289231 12.4934363,13.4289231 Z M12.4934363,11.9374523 C15.1180193,11.9374523 17.2456641,9.82289731 17.2456641,7.21446153 C17.2456641,4.60602576 15.1180193,2.49147077 12.4934363,2.49147077 C9.86885338,2.49147077 7.74120852,4.60602576 7.74120852,7.21446153 C7.74120852,9.82289731 9.86885338,11.9374523 12.4934363,11.9374523 Z"/>
</svg>
