<svg xmlns="http://www.w3.org/2000/svg" width="24" height="24" viewBox="0 0 24 24">
  <g fill="none" fill-rule="evenodd" transform="translate(-552 -984)">
    <path fill="#555" fill-rule="nonzero" d="M8.5,12.375 C10.2561944,12.375 11.757625,11.7697708 13.0042917,10.5593125 C14.2509583,9.34885417 14.8745278,7.89158333 14.875,6.1875 C14.8754722,4.48341667 14.2519028,3.02614583 13.0042917,1.8156875 C11.7566806,0.605229167 10.25525,0 8.5,0 C6.74475,0 5.24331944,0.605229167 3.99570833,1.8156875 C2.74809722,3.02614583 2.12452778,4.48341667 2.125,6.1875 C2.12547222,7.89158333 2.74904167,9.34885417 3.99570833,10.5593125 C5.242375,11.7697708 6.74380556,12.375 8.5,12.375 Z M8.5,1.546875 C9.81325,1.546875 10.9385556,2.00154167 11.8759167,2.910875 C12.8132778,3.82020833 13.2817222,4.91241667 13.28125,6.1875 C13.2807778,7.46258333 12.8123333,8.55479167 11.8759167,9.464125 C10.9395,10.3734583 9.81419444,10.828125 8.5,10.828125 C7.18580556,10.828125 6.0605,10.3734583 5.12408333,9.464125 C4.18766667,8.55479167 3.71922222,7.46258333 3.71875,6.1875 C3.71827778,4.91241667 4.18672222,3.82020833 5.12408333,2.910875 C6.06144444,2.00154167 7.18675,1.546875 8.5,1.546875 Z M16.203125,13.75 L0.796875,13.75 C0.575402778,13.75 0.387222222,13.8251667 0.232333333,13.9755 C0.0774444444,14.1258333 6.29126381e-16,14.3084792 0,14.5234375 C-3.1456319e-16,14.7383958 0.0774444444,14.9210417 0.232333333,15.071375 C0.387222222,15.2217083 0.575402778,15.296875 0.796875,15.296875 L7.703125,15.296875 L7.703125,21.2265625 C7.703125,21.4415208 7.78056944,21.6241667 7.93545833,21.7745 C8.09034722,21.9248333 8.27852778,22 8.5,22 C8.72147222,22 8.90965278,21.9248333 9.06454167,21.7745 C9.21943056,21.6241667 9.296875,21.4415208 9.296875,21.2265625 L9.296875,15.296875 L16.203125,15.296875 C16.4245972,15.296875 16.6127778,15.2217083 16.7676667,15.071375 C16.9225556,14.9210417 17,14.7383958 17,14.5234375 C17,14.3084792 16.9225556,14.1258333 16.7676667,13.9755 C16.6127778,13.8251667 16.4245972,13.75 16.203125,13.75 Z" transform="translate(556 985)"/>
  </g>
</svg>
