<svg xmlns="http://www.w3.org/2000/svg" width="20" height="20" viewBox="0 0 20 20">
  <path fill="#555" d="M7.61222196,7.25401709 L7.61222196,4.27785565 C7.61222196,3.8898931 7.92246493,3.57538731 8.30516902,3.57538731 C8.68787312,3.57538731 8.99811609,3.8898931 8.99811609,4.27785565 L8.99811609,7.25401709 L11.9742775,7.25401709 C12.3622401,7.25401709 12.6767459,7.56426005 12.6767459,7.94696415 C12.6767459,8.32966824 12.3622401,8.63991121 11.9742775,8.63991121 L8.99811609,8.63991121 L8.99811609,11.6160727 C8.99811609,12.0040352 8.68787312,12.318541 8.30516902,12.318541 C7.92246493,12.318541 7.61222196,12.0040352 7.61222196,11.6160727 L7.61222196,8.63991121 L4.63606052,8.63991121 C4.24809797,8.63991121 3.93359218,8.32966824 3.93359218,7.94696415 C3.93359218,7.56426005 4.24809797,7.25401709 4.63606052,7.25401709 L7.61222196,7.25401709 Z M14.4138153,13.3505729 L19.8015213,18.8243429 C20.0717775,19.0989162 20.0652194,19.5376183 19.7868733,19.8042115 C19.5085273,20.0708046 19.0637973,20.0643354 18.7935411,19.7897621 L13.4106952,14.3209298 C11.9937229,15.4752667 10.1766938,16.1687648 8.19546398,16.1687648 C3.6692342,16.1687648 0,12.5492635 0,8.08438239 C0,3.61950128 3.6692342,0 8.19546398,0 C12.7216937,0 16.390928,3.61950128 16.390928,8.08438239 C16.390928,10.0959294 15.6461685,11.9358863 14.4138153,13.3505729 Z M8.19546398,14.7828707 C11.9457686,14.7828707 14.9859913,11.7838553 14.9859913,8.08438239 C14.9859913,4.38490947 11.9457686,1.38589412 8.19546398,1.38589412 C4.44515931,1.38589412 1.40493668,4.38490947 1.40493668,8.08438239 C1.40493668,11.7838553 4.44515931,14.7828707 8.19546398,14.7828707 Z"/>
</svg>
