<svg xmlns="http://www.w3.org/2000/svg" width="24" height="24" viewBox="0 0 24 24">
  <g fill="none" fill-rule="evenodd" transform="translate(-408 -744)">
    <path fill="#555" d="M23.6877919,22.1815354 L18.2201468,16.7208088 C19.658439,14.9556716 20.5203469,12.705255 20.5203469,10.2521942 C20.5203469,4.58882346 15.927952,0 10.2601734,0 C4.59239493,0 0,4.58882346 0,10.2521942 C0,15.9155649 4.59239493,20.5043884 10.2601734,20.5043884 C12.7044696,20.5043884 14.9486324,19.6511499 16.7098065,18.2246417 L22.1774516,23.6880347 C22.3855904,23.8960116 22.6577718,24 22.9326217,24 C23.2048032,24 23.4796531,23.8960116 23.6877919,23.6880347 C24.1040694,23.2720809 24.1040694,22.5974892 23.6877919,22.1815354 L23.6877919,22.1815354 Z M13.5050033,17.931341 C12.4776518,18.3659593 11.3862575,18.5846017 10.2601734,18.5846017 C9.13408939,18.5846017 8.04269513,18.363293 7.01534356,17.931341 C6.02268179,17.5127208 5.13142095,16.9101211 4.36290861,16.1448728 C3.59706471,15.3796245 2.993996,14.4863904 2.57505003,13.4945006 C2.1400934,12.467948 1.92128085,11.3774025 1.92128085,10.2521942 C1.92128085,9.12698589 2.14276184,8.0364404 2.57505003,7.00988779 C2.993996,6.017998 3.59706471,5.12743029 4.36290861,4.35951561 C5.1287525,3.5942673 6.02268179,2.99166759 7.01534356,2.57304744 C8.04269513,2.13842906 9.13408939,1.91978669 10.2601734,1.91978669 C11.3862575,1.91978669 12.4776518,2.14109543 13.5050033,2.57304744 C14.4976651,2.99166759 15.388926,3.5942673 16.1574383,4.35951561 C16.9232822,5.12476392 17.5263509,6.01533163 17.9452969,7.00988779 C18.3802535,8.0364404 18.599066,9.12698589 18.599066,10.2521942 C18.599066,11.3774025 18.3775851,12.467948 17.9452969,13.4945006 C17.5263509,14.4863904 16.9232822,15.3769581 16.1574383,16.1448728 C15.388926,16.9101211 14.4976651,17.5100544 13.5050033,17.931341 Z M14.1666667,9.16666667 L5.83333333,9.16666667 C5.37309604,9.16666667 5,9.53976271 5,10 C5,10.4602373 5.37309604,10.8333333 5.83333333,10.8333333 L14.1666667,10.8333333 C14.626904,10.8333333 15,10.4602373 15,10 C15,9.53976271 14.626904,9.16666667 14.1666667,9.16666667 Z" transform="translate(408 744)"/>
  </g>
</svg>
