<svg xmlns="http://www.w3.org/2000/svg" width="24" height="24" viewBox="0 0 24 24">
  <path fill="#555" d="M9.61222196,9.25401709 L9.61222196,6.27785565 C9.61222196,5.8898931 9.92246493,5.57538731 10.305169,5.57538731 C10.6878731,5.57538731 10.9981161,5.8898931 10.9981161,6.27785565 L10.9981161,9.25401709 L13.9742775,9.25401709 C14.3622401,9.25401709 14.6767459,9.56426005 14.6767459,9.94696415 C14.6767459,10.3296682 14.3622401,10.6399112 13.9742775,10.6399112 L10.9981161,10.6399112 L10.9981161,13.6160727 C10.9981161,14.0040352 10.6878731,14.318541 10.305169,14.318541 C9.92246493,14.318541 9.61222196,14.0040352 9.61222196,13.6160727 L9.61222196,10.6399112 L6.63606052,10.6399112 C6.24809797,10.6399112 5.93359218,10.3296682 5.93359218,9.94696415 C5.93359218,9.56426005 6.24809797,9.25401709 6.63606052,9.25401709 L9.61222196,9.25401709 Z M16.4138153,15.3505729 L21.8015213,20.8243429 C22.0717775,21.0989162 22.0652194,21.5376183 21.7868733,21.8042115 C21.5085273,22.0708046 21.0637973,22.0643354 20.7935411,21.7897621 L15.4106952,16.3209298 C13.9937229,17.4752667 12.1766938,18.1687648 10.195464,18.1687648 C5.6692342,18.1687648 2,14.5492635 2,10.0843824 C2,5.61950128 5.6692342,2 10.195464,2 C14.7216937,2 18.390928,5.61950128 18.390928,10.0843824 C18.390928,12.0959294 17.6461685,13.9358863 16.4138153,15.3505729 Z M10.195464,16.7828707 C13.9457686,16.7828707 16.9859913,13.7838553 16.9859913,10.0843824 C16.9859913,6.38490947 13.9457686,3.38589412 10.195464,3.38589412 C6.44515931,3.38589412 3.40493668,6.38490947 3.40493668,10.0843824 C3.40493668,13.7838553 6.44515931,16.7828707 10.195464,16.7828707 Z"/>
</svg>
