<?xml version="1.0" encoding="UTF-8"?>
<svg width="20px" height="20px" viewBox="0 0 20 20" version="1.1" xmlns="http://www.w3.org/2000/svg" xmlns:xlink="http://www.w3.org/1999/xlink">
    <title>appstore</title>
    <g id="icons" stroke="none" stroke-width="1" fill="none" fill-rule="evenodd">
        <g id="desktop" transform="translate(-190.000000, -672.000000)" fill="#555555" fill-rule="nonzero">
            <g id="icon" transform="translate(70.000000, 212.000000)">
                <g id="appstore" transform="translate(120.000000, 460.000000)">
                    <path d="M7.07070707,10.9090909 C8.18643384,10.9090909 9.09090909,11.8135662 9.09090909,12.9292929 L9.09090909,17.979798 C9.09090909,19.0955247 8.18643384,20 7.07070707,20 L2.02020202,20 C0.904475253,20 0,19.0955247 0,17.979798 L0,12.9292929 C0,11.8135662 0.904475253,10.9090909 2.02020202,10.9090909 L7.07070707,10.9090909 Z M17.979798,10.9090909 C19.0955247,10.9090909 20,11.8135662 20,12.9292929 L20,17.979798 C20,19.0955247 19.0955247,20 17.979798,20 L12.9292929,20 C11.8135662,20 10.9090909,19.0955247 10.9090909,17.979798 L10.9090909,12.9292929 C10.9090909,11.8135662 11.8135662,10.9090909 12.9292929,10.9090909 L17.979798,10.9090909 Z M7.07070707,0 C8.18643384,0 9.09090909,0.904475253 9.09090909,2.02020202 L9.09090909,7.07070707 C9.09090909,8.18643384 8.18643384,9.09090909 7.07070707,9.09090909 L2.02020202,9.09090909 C0.904475253,9.09090909 0,8.18643384 0,7.07070707 L0,2.02020202 C0,0.904475253 0.904475253,0 2.02020202,0 L7.07070707,0 Z M17.979798,0 C19.0955247,0 20,0.904475253 20,2.02020202 L20,7.07070707 C20,8.18643384 19.0955247,9.09090909 17.979798,9.09090909 L12.9292929,9.09090909 C11.8135662,9.09090909 10.9090909,8.18643384 10.9090909,7.07070707 L10.9090909,2.02020202 C10.9090909,0.904475253 11.8135662,0 12.9292929,0 L17.979798,0 Z"></path>
                </g>
            </g>
        </g>
    </g>
</svg>