<?xml version="1.0" encoding="UTF-8"?>
<svg width="20px" height="20px" viewBox="0 0 20 20" version="1.1" xmlns="http://www.w3.org/2000/svg" xmlns:xlink="http://www.w3.org/1999/xlink">
    <title>asterisk</title>
    <g id="icons" stroke="none" stroke-width="1" fill="none" fill-rule="evenodd">
        <g id="desktop" transform="translate(-590.000000, -592.000000)" fill="#555555" fill-rule="nonzero">
            <g id="icon" transform="translate(70.000000, 212.000000)">
                <g id="asterisk" transform="translate(520.000000, 380.000000)">
                    <path d="M10,0 C10.4119963,0 10.7459853,0.34387982 10.7459853,0.768077075 L10.745,8.493 L16.8154827,3.95222445 C17.1184936,3.72555455 17.5315909,3.76782185 17.7861831,4.03518543 L17.857537,4.12210354 C18.0996419,4.46533027 18.0257529,4.94566237 17.692441,5.19499926 L17.692441,5.19499926 L11.268,9.999 L17.692441,14.8050007 C18.0257529,15.0543376 18.0996419,15.5346697 17.857537,15.8778965 C17.6153112,16.2210353 17.1487947,16.2971124 16.8154827,16.0477756 L10.745,11.506 L10.7459853,19.2319229 C10.7459853,19.6561202 10.4119963,20 10,20 C9.58800371,20 9.25401473,19.6561202 9.25401473,19.2319229 L9.254,11.506 L3.18451733,16.0477756 C2.88150642,16.2744455 2.4684091,16.2321781 2.21381688,15.9648146 L2.14246296,15.8778965 C1.90035809,15.5346697 1.97424705,15.0543376 2.30755905,14.8050007 L2.30755905,14.8050007 L8.731,10 L2.30755905,5.19499926 C1.97424705,4.94566237 1.90035809,4.46533027 2.14246296,4.12210354 C2.38468877,3.77896469 2.85120533,3.70288756 3.18451733,3.95222445 L9.254,8.493 L9.25401473,0.768077075 C9.25401473,0.34387982 9.58800371,0 10,0 Z"></path>
                </g>
            </g>
        </g>
    </g>
</svg>