<?xml version="1.0" encoding="UTF-8"?>
<svg width="20px" height="20px" viewBox="0 0 20 20" version="1.1" xmlns="http://www.w3.org/2000/svg" xmlns:xlink="http://www.w3.org/1999/xlink">
    <title>circle-o</title>
    <g id="icons" stroke="none" stroke-width="1" fill="none" fill-rule="evenodd">
        <g id="desktop" transform="translate(-70.000000, -392.000000)" fill="#555555" fill-rule="nonzero">
            <g id="icon" transform="translate(70.000000, 212.000000)">
                <g id="question-circle-o" transform="translate(0.000000, 180.000000)">
                    <path d="M10,0 C15.5228475,0 20,4.4771525 20,10 C20,15.5228475 15.5228475,20 10,20 C4.4771525,20 0,15.5228475 0,10 C0,4.4771525 4.4771525,0 10,0 Z M10,1.39534884 C5.24778239,1.39534884 1.39534884,5.24778239 1.39534884,10 C1.39534884,14.7522176 5.24778239,18.6046512 10,18.6046512 C14.7522176,18.6046512 18.6046512,14.7522176 18.6046512,10 C18.6046512,5.24778239 14.7522176,1.39534884 10,1.39534884 Z"></path>
                </g>
            </g>
        </g>
    </g>
</svg>