<?xml version="1.0" encoding="UTF-8"?>
<svg width="20px" height="20px" viewBox="0 0 20 20" version="1.1" xmlns="http://www.w3.org/2000/svg" xmlns:xlink="http://www.w3.org/1999/xlink">
    <title>circle-check-o</title>
    <g id="icons" stroke="none" stroke-width="1" fill="none" fill-rule="evenodd">
        <g id="desktop" transform="translate(-430.000000, -472.000000)" fill="#555555" fill-rule="nonzero">
            <g id="icon" transform="translate(70.000000, 212.000000)">
                <g id="circle-check-o" transform="translate(360.000000, 260.000000)">
                    <path d="M10,0 C15.5228475,0 20,4.4771525 20,10 C20,15.5228475 15.5228475,20 10,20 C4.4771525,20 0,15.5228475 0,10 C0,4.4771525 4.4771525,0 10,0 Z M10,1.39534884 C5.24778239,1.39534884 1.39534884,5.24778239 1.39534884,10 C1.39534884,14.7522176 5.24778239,18.6046512 10,18.6046512 C14.7522176,18.6046512 18.6046512,14.7522176 18.6046512,10 C18.6046512,5.24778239 14.7522176,1.39534884 10,1.39534884 Z M14.9217059,6.58259135 C15.2023597,6.83364758 15.2263532,7.26468369 14.975297,7.54533745 L10.0661666,13.0332153 C9.79907323,13.3317969 9.33334374,13.336857 9.05982608,13.0441491 L5.71907855,9.46901192 C5.46198377,9.19387916 5.47660645,8.76242348 5.75173921,8.5053287 C6.02687198,8.24823392 6.45832765,8.26285659 6.71542243,8.53798936 L9.54702033,11.5682545 L13.9589598,6.63618243 C14.210016,6.35552866 14.6410521,6.33153512 14.9217059,6.58259135 Z"></path>
                </g>
            </g>
        </g>
    </g>
</svg>