<?xml version="1.0" encoding="UTF-8"?>
<svg width="20px" height="20px" viewBox="0 0 20 20" version="1.1" xmlns="http://www.w3.org/2000/svg" xmlns:xlink="http://www.w3.org/1999/xlink">
    <title>left</title>
    <g id="icons" stroke="none" stroke-width="1" fill="none" fill-rule="evenodd">
        <g id="desktop" transform="translate(-150.000000, -212.000000)" fill="#555555">
            <g id="icon" transform="translate(70.000000, 212.000000)">
                <g id="路径-5" transform="translate(80.000000, 0.000000)">
                    <path d="M7.22165154,9.89744874 C9.52208535,7.58981934 11.7700755,5.33826192 13.9656219,3.14277649 C14.1209717,2.97988892 14.2765198,2.59362793 13.9656219,2.24739075 C13.6547241,1.90115356 13.1625366,1.93119812 12.9394989,2.16644287 C10.6628164,4.4490153 8.2816569,6.83439128 5.79602051,9.3225708 C5.5986735,9.48506673 5.5,9.67669271 5.5,9.89744874 C5.5,10.1182048 5.5986735,10.315327 5.79602051,10.4888153 C8.60631704,13.2334646 11.1006865,15.6689637 13.2791289,17.7953128 C13.4962463,18 13.9656219,18.1251984 14.3231659,17.7660828 C14.6807098,17.4069672 14.5432434,17.0530853 14.3809204,16.8845825 C12.3062744,14.866628 9.91985146,12.5375834 7.22165154,9.89744874 Z"></path>
                </g>
            </g>
        </g>
    </g>
</svg>