<?xml version="1.0" encoding="UTF-8"?>
<svg width="20px" height="20px" viewBox="0 0 20 20" version="1.1" xmlns="http://www.w3.org/2000/svg" xmlns:xlink="http://www.w3.org/1999/xlink">
    <title>mobile</title>
    <g id="icons" stroke="none" stroke-width="1" fill="none" fill-rule="evenodd">
        <g id="desktop" transform="translate(-230.000000, -672.000000)" fill="#555555" fill-rule="nonzero">
            <g id="icon" transform="translate(70.000000, 212.000000)">
                <g id="mobile" transform="translate(160.000000, 460.000000)">
                    <path d="M15,0 C16.1045695,0 17,0.8954305 17,2 L17,18 C17,19.1045695 16.1045695,20 15,20 L5,20 C3.8954305,20 3,19.1045695 3,18 L3,2 C3,0.8954305 3.8954305,0 5,0 L15,0 Z M15.6,15.388 L4.4,15.388 L4.4,18 C4.4,18.3313708 4.66862915,18.6 5,18.6 L15,18.6 C15.3313708,18.6 15.6,18.3313708 15.6,18 L15.6,15.388 Z M10,16 C10.5522847,16 11,16.4477153 11,17 C11,17.5522847 10.5522847,18 10,18 C9.44771525,18 9,17.5522847 9,17 C9,16.4477153 9.44771525,16 10,16 Z M15,1.4 L5,1.4 C4.66862915,1.4 4.4,1.66862915 4.4,2 L4.4,13.988 L15.6,13.988 L15.6,2 C15.6,1.66862915 15.3313708,1.4 15,1.4 Z"></path>
                </g>
            </g>
        </g>
    </g>
</svg>