<?xml version="1.0" encoding="UTF-8"?>
<svg width="20px" height="20px" viewBox="0 0 20 20" version="1.1" xmlns="http://www.w3.org/2000/svg" xmlns:xlink="http://www.w3.org/1999/xlink">
    <title>pause</title>
    <g id="icons" stroke="none" stroke-width="1" fill="none" fill-rule="evenodd">
        <g id="desktop" transform="translate(-270.000000, -432.000000)" fill="#555555" fill-rule="nonzero">
            <g id="icon" transform="translate(70.000000, 212.000000)">
                <g id="pause" transform="translate(200.000000, 220.000000)">
                    <path d="M14.7798038,2.04371366 C15.1775572,2.04371366 15.5,2.37573542 15.5,2.78530501 L15.5,17.2584086 C15.5,17.6679782 15.1775572,18 14.7798038,18 C14.3820504,18 14.0596076,17.6679782 14.0596076,17.2584086 L14.0596076,2.78530501 C14.0596076,2.37573542 14.3820504,2.04371366 14.7798038,2.04371366 Z M5.22019619,2 C5.61794957,2 5.94039239,2.33202176 5.94039239,2.74159135 L5.94039239,17.214695 C5.94039239,17.6242646 5.61794957,17.9562863 5.22019619,17.9562863 C4.82244282,17.9562863 4.5,17.6242646 4.5,17.214695 L4.5,2.74159135 C4.5,2.33202176 4.82244282,2 5.22019619,2 Z"></path>
                </g>
            </g>
        </g>
    </g>
</svg>