<?xml version="1.0" encoding="UTF-8"?>
<svg width="20px" height="20px" viewBox="0 0 20 20" version="1.1" xmlns="http://www.w3.org/2000/svg" xmlns:xlink="http://www.w3.org/1999/xlink">
    <title>pause-circle</title>
    <g id="icons" stroke="none" stroke-width="1" fill="none" fill-rule="evenodd">
        <g id="desktop" transform="translate(-350.000000, -432.000000)" fill="#555555" fill-rule="nonzero">
            <g id="icon" transform="translate(70.000000, 212.000000)">
                <g id="pause-circle" transform="translate(280.000000, 220.000000)">
                    <path d="M10,0 C15.5228475,0 20,4.4771525 20,10 C20,15.5228475 15.5228475,20 10,20 C4.4771525,20 0,15.5228475 0,10 C0,4.4771525 4.4771525,0 10,0 Z M8.05611421,5.45454545 C7.67955643,5.45454545 7.37429603,5.75980585 7.37429603,6.13636364 L7.37429603,6.13636364 L7.37429603,13.4084582 C7.37429603,13.7850159 7.67955643,14.0902763 8.05611421,14.0902763 C8.43267199,14.0902763 8.73793239,13.7850159 8.73793239,13.4084582 L8.73793239,13.4084582 L8.73793239,6.13636364 C8.73793239,5.75980585 8.43267199,5.45454545 8.05611421,5.45454545 Z M12.6015688,5.45454545 C12.225011,5.45454545 11.9197506,5.75980585 11.9197506,6.13636364 L11.9197506,6.13636364 L11.9197506,13.4084582 C11.9197506,13.7850159 12.225011,14.0902763 12.6015688,14.0902763 C12.9781265,14.0902763 13.2833869,13.7850159 13.2833869,13.4084582 L13.2833869,13.4084582 L13.2833869,6.13636364 C13.2833869,5.75980585 12.9781265,5.45454545 12.6015688,5.45454545 Z"></path>
                </g>
            </g>
        </g>
    </g>
</svg>