<?xml version="1.0" encoding="UTF-8"?>
<svg width="20px" height="20px" viewBox="0 0 20 20" version="1.1" xmlns="http://www.w3.org/2000/svg" xmlns:xlink="http://www.w3.org/1999/xlink">
    <title>poweroff</title>
    <g id="icons" stroke="none" stroke-width="1" fill="none" fill-rule="evenodd">
        <g id="desktop" transform="translate(-350.000000, -672.000000)" fill="#555555" fill-rule="nonzero">
            <g id="icon" transform="translate(70.000000, 212.000000)">
                <g id="Combined-Shape" transform="translate(280.000000, 460.000000)">
                    <path d="M5.07361562,2.32834363 C5.29046374,2.6236019 5.2266459,3.03855991 4.9310745,3.25517829 C2.69142126,4.89657541 1.32752667,7.52434665 1.32752667,10.2844939 C1.32752667,14.8308253 5.3391503,18.6738798 10.0069185,18.6738798 C14.6717829,18.6738798 18.6724733,14.8335479 18.6724733,10.2844939 C18.6724733,7.5536591 17.342534,4.9527074 15.1488571,3.30771433 C14.8556829,3.0878691 14.7964271,2.67223654 15.0165055,2.37937301 C15.2365839,2.08650949 15.6526573,2.02731646 15.9458314,2.24716169 C18.4701166,4.14007108 20,7.13205178 20,10.2844939 C20,15.5780272 15.3933813,20 10.0069185,20 C4.61812407,20 3.01980663e-14,15.5759303 3.01980663e-14,10.2844939 C3.01980663e-14,7.09730095 1.56893509,4.07448486 4.14579799,2.18595352 C4.4413694,1.96933514 4.8567675,2.03308536 5.07361562,2.32834363 Z M10,0 C10.3869523,0 10.7006391,0.313354467 10.7006391,0.69989679 L10.7006391,8.50071788 C10.7006391,8.88726021 10.3869523,9.20061467 10,9.20061467 C9.61304772,9.20061467 9.29936092,8.88726021 9.29936092,8.50071788 L9.29936092,0.69989679 C9.29936092,0.313354467 9.61304772,0 10,0 Z"></path>
                </g>
            </g>
        </g>
    </g>
</svg>