<?xml version="1.0" encoding="UTF-8"?>
<svg width="20px" height="20px" viewBox="0 0 20 20" version="1.1" xmlns="http://www.w3.org/2000/svg" xmlns:xlink="http://www.w3.org/1999/xlink">
    <title>shopping-cart</title>
    <g id="icons" stroke="none" stroke-width="1" fill="none" fill-rule="evenodd">
        <g id="desktop" transform="translate(-430.000000, -672.000000)" fill="#555555" fill-rule="nonzero">
            <g id="icon" transform="translate(70.000000, 212.000000)">
                <g id="shopping-cart" transform="translate(360.000000, 460.000000)">
                    <path d="M1.36079465,17.2306501 C2.11234079,17.2306501 2.7215893,17.850949 2.7215893,18.6161263 C2.7215893,19.3813037 2.11234079,20.0016025 1.36079465,20.0016025 C0.609248518,20.0016025 0,19.3813037 0,18.6161263 C0,17.850949 0.609248518,17.2306501 1.36079465,17.2306501 Z M16.783134,17.2306501 C17.5346802,17.2306501 18.1439287,17.850949 18.1439287,18.6161263 C18.1439287,19.3813037 17.5346802,20.0016025 16.783134,20.0016025 C16.0315879,20.0016025 15.4223394,19.3813037 15.4223394,18.6161263 C15.4223394,17.850949 16.0315879,17.2306501 16.783134,17.2306501 Z M19.9719514,0.49668153 C20.0783998,0.863598508 19.8725471,1.24890213 19.5121666,1.35728125 C18.7982969,1.57196699 18.334241,1.8430578 18.1074633,2.13994938 C17.86812,2.45329168 17.7362035,2.83556508 17.7135595,3.27141853 L17.7131084,12.8323625 C17.6732494,13.9462441 17.4168848,14.8238725 16.9164111,15.4524826 C16.3945527,16.1079527 15.5947748,16.477072 14.4917963,16.584084 L3.54966119,16.584084 C2.57344929,16.584084 1.76590691,16.3288555 1.15415016,15.8020123 C0.541978802,15.2748121 0.163433685,14.5112135 0.008805369,13.5421761 L9.09494702e-13,13.4310881 L0.000668719622,7.49295135 C0.045584952,6.46224786 0.368594413,5.61242386 0.977433804,4.97716319 C1.59596426,4.3317909 2.45989589,4.00173686 3.54966119,3.97158166 L13.0679473,3.97158166 C13.4437204,3.97158166 13.7483446,4.28173107 13.7483446,4.66431976 C13.7483446,5.04690844 13.4437204,5.35705785 13.0679473,5.35705785 L3.56830584,5.35679772 C2.82866484,5.37744115 2.30242606,5.57848395 1.95137733,5.94476684 C1.59063754,6.32116134 1.39097484,6.84646532 1.36079465,7.52365699 L1.36079465,13.3730593 C1.47020306,14.007541 1.69724177,14.4550799 2.03296418,14.7442031 C2.37838384,15.0416775 2.8749108,15.1986078 3.54966119,15.1986078 L14.4252585,15.2019282 C15.1263537,15.1317866 15.5906142,14.9175176 15.8592968,14.5800442 C16.1493642,14.2157108 16.323205,13.6205908 16.3527649,12.8071408 L16.3536426,3.23624335 C16.3909201,2.48974988 16.6171412,1.83419612 17.0332736,1.28940618 C17.4619717,0.728165533 18.1639533,0.318084015 19.1266828,0.0285573313 C19.4870634,-0.0798217902 19.865503,0.129764553 19.9719514,0.49668153 Z M13.0679473,11.5360956 C13.4437204,11.5360956 13.7483446,11.846245 13.7483446,12.2288337 C13.7483446,12.6114223 13.4437204,12.9215717 13.0679473,12.9215717 L4.75928089,12.9215717 C4.38350782,12.9215717 4.07888356,12.6114223 4.07888356,12.2288337 C4.07888356,11.846245 4.38350782,11.5360956 4.75928089,11.5360956 L13.0679473,11.5360956 Z M13.0679473,7.84149238 C13.4437204,7.84149238 13.7483446,8.15164179 13.7483446,8.53423048 C13.7483446,8.91681916 13.4437204,9.22696857 13.0679473,9.22696857 L4.75928089,9.22696857 C4.38350782,9.22696857 4.07888356,8.91681916 4.07888356,8.53423048 C4.07888356,8.15164179 4.38350782,7.84149238 4.75928089,7.84149238 L13.0679473,7.84149238 Z"></path>
                </g>
            </g>
        </g>
    </g>
</svg>