<?xml version="1.0" encoding="UTF-8"?>
<svg width="20px" height="20px" viewBox="0 0 20 20" version="1.1" xmlns="http://www.w3.org/2000/svg" xmlns:xlink="http://www.w3.org/1999/xlink">
    <title>stop-o</title>
    <g id="icons" stroke="none" stroke-width="1" fill="none" fill-rule="evenodd">
        <g id="desktop" transform="translate(-630.000000, -472.000000)" fill="#555555" fill-rule="nonzero">
            <g id="icon" transform="translate(70.000000, 212.000000)">
                <g id="stop-o" transform="translate(560.000000, 260.000000)">
                    <path d="M10,0 C4.47767857,0 0,4.47767857 0,10 C0,15.5223214 4.47767857,20 10,20 C15.5223214,20 20,15.5223214 20,10 C20,4.47767857 15.5223214,0 10,0 Z M10,18.3035714 C5.41517857,18.3035714 1.69642857,14.5848214 1.69642857,10 C1.69642857,8.01339286 2.39508929,6.1875 3.56026786,4.75892857 L15.2410714,16.4397321 C13.8125,17.6049107 11.9866071,18.3035714 10,18.3035714 Z M16.4397321,15.2410714 L4.75892857,3.56026786 C6.1875,2.39508929 8.01339286,1.69642857 10,1.69642857 C14.5848214,1.69642857 18.3035714,5.41517857 18.3035714,10 C18.3035714,11.9866071 17.6049107,13.8125 16.4397321,15.2410714 Z"></path>
                </g>
            </g>
        </g>
    </g>
</svg>