<?xml version="1.0" encoding="UTF-8"?>
<svg width="20px" height="20px" viewBox="0 0 20 20" version="1.1" xmlns="http://www.w3.org/2000/svg" xmlns:xlink="http://www.w3.org/1999/xlink">
    <title>user</title>
    <g id="icons" stroke="none" stroke-width="1" fill="none" fill-rule="evenodd">
        <g id="desktop" transform="translate(-310.000000, -592.000000)" fill="#555555" fill-rule="nonzero">
            <g id="icon" transform="translate(70.000000, 212.000000)">
                <g id="user" transform="translate(240.000000, 380.000000)">
                    <path d="M9.99296258,10.5729355 C12.478244,10.5729355 14.4929626,8.55821687 14.4929626,6.0729355 C14.4929626,3.58765413 12.478244,1.5729355 9.99296258,1.5729355 C7.5076812,1.5729355 5.49296258,3.58765413 5.49296258,6.0729355 C5.49296258,8.55821687 7.5076812,10.5729355 9.99296258,10.5729355 Z M10,0 C13.3137085,0 16,2.6862915 16,6 C16,8.20431134 14.8113051,10.1309881 13.0399615,11.173984 C16.7275333,12.2833441 19.4976819,15.3924771 19.9947005,19.2523727 C20.0418583,19.6186047 19.7690435,19.9519836 19.3853517,19.9969955 C19.0016598,20.0420074 18.6523872,19.7816071 18.6052294,19.4153751 C18.0656064,15.2246108 14.4363723,12.0699838 10.034634,12.0699838 C5.6099956,12.0699838 1.93381693,15.231487 1.39476476,19.4154211 C1.34758036,19.7816499 0.998288773,20.0420271 0.614600177,19.9969899 C0.230911582,19.9519526 -0.0418789616,19.6185555 0.00530544566,19.2523267 C0.500630192,15.4077896 3.28612316,12.3043229 6.97954305,11.1838052 C5.19718955,10.1447285 4,8.21217353 4,6 C4,2.6862915 6.6862915,0 10,0 Z"></path>
                </g>
            </g>
        </g>
    </g>
</svg>