<?xml version="1.0" encoding="UTF-8"?>
<svg width="20px" height="20px" viewBox="0 0 20 20" version="1.1" xmlns="http://www.w3.org/2000/svg" xmlns:xlink="http://www.w3.org/1999/xlink">
    <title>shrink</title>
    <g id="icons" stroke="none" stroke-width="1" fill="none" fill-rule="evenodd">
        <g id="desktop" transform="translate(-70.000000, -252.000000)" fill="#555555" fill-rule="nonzero">
            <g id="icon" transform="translate(70.000000, 212.000000)">
                <g id="Combined-Shape" transform="translate(0.000000, 40.000000)">
                    <path d="M8.67198031,10.5613195 C9.05857964,10.5613195 9.37198031,10.8747202 9.37198031,11.2613195 L9.37198031,17.2613195 C9.37198031,17.6479189 9.05857964,17.9613195 8.67198031,17.9613195 C8.28538099,17.9613195 7.97198031,17.6479189 7.97198031,17.2613195 L7.971,12.9073195 L1.19914449,19.7956288 C0.928099848,20.0712986 0.484900222,20.0750481 0.20923042,19.8040034 C-0.0664393831,19.5329588 -0.0701888169,19.0897591 0.200855825,18.8140893 L6.938,11.9603195 L2.67198031,11.9613195 C2.28538099,11.9613195 1.97198031,11.6479189 1.97198031,11.2613195 C1.97198031,10.8747202 2.28538099,10.5613195 2.67198031,10.5613195 L8.67198031,10.5613195 Z M19.792666,0.200855825 C20.0683358,0.471900467 20.0720852,0.915100092 19.8010406,1.19076989 L13.0638964,8.04453971 L17.3299161,8.04353971 C17.7165154,8.04353971 18.0299161,8.35694038 18.0299161,8.74353971 C18.0299161,9.13013903 17.7165154,9.44353971 17.3299161,9.44353971 L11.3299161,9.44353971 C10.9433167,9.44353971 10.6299161,9.13013903 10.6299161,8.74353971 L10.6299161,2.74353971 C10.6299161,2.35694038 10.9433167,2.04353971 11.3299161,2.04353971 C11.7165154,2.04353971 12.0299161,2.35694038 12.0299161,2.74353971 L12.0308964,7.09753971 L18.8027519,0.20923042 C19.0737965,-0.0664393831 19.5169962,-0.0701888169 19.792666,0.200855825 Z"></path>
                </g>
            </g>
        </g>
    </g>
</svg>