<?xml version="1.0" encoding="UTF-8"?>
<svg width="20px" height="20px" viewBox="0 0 20 20" version="1.1" xmlns="http://www.w3.org/2000/svg" xmlns:xlink="http://www.w3.org/1999/xlink">
    <title>up-circle-o</title>
    <g id="icons" stroke="none" stroke-width="1" fill="none" fill-rule="evenodd">
        <g id="desktop" transform="translate(-270.000000, -292.000000)" fill="#555555" fill-rule="nonzero">
            <g id="icon" transform="translate(70.000000, 212.000000)">
                <g id="up-circle-o" transform="translate(200.000000, 80.000000)">
                    <path d="M10,0 C15.5228475,0 20,4.4771525 20,10 C20,15.5228475 15.5228475,20 10,20 C4.4771525,20 0,15.5228475 0,10 C0,4.4771525 4.4771525,0 10,0 Z M10,1.39534884 C5.24778239,1.39534884 1.39534884,5.24778239 1.39534884,10 C1.39534884,14.7522176 5.24778239,18.6046512 10,18.6046512 C14.7522176,18.6046512 18.6046512,14.7522176 18.6046512,10 C18.6046512,5.24778239 14.7522176,1.39534884 10,1.39534884 Z M9.51942697,7.63613781 C9.78350334,7.37374613 10.2092302,7.37167573 10.4758462,7.63148655 L10.4758462,7.63148655 L14.4473588,11.5016301 C14.7170449,11.7644327 14.7226251,12.1961 14.4598225,12.4657861 C14.1970199,12.7354721 13.7653526,12.7410523 13.4956665,12.4782497 L13.4956665,12.4782497 L10.0046519,9.07633992 L6.58558122,12.4735984 C6.31846398,12.7390116 5.8867628,12.7376302 5.62134964,12.4705129 C5.35593648,12.2033957 5.35731792,11.7716945 5.62443516,11.5062813 L5.62443516,11.5062813 Z"></path>
                </g>
            </g>
        </g>
    </g>
</svg>