<?xml version="1.0" encoding="UTF-8"?>
<svg width="20px" height="20px" viewBox="0 0 20 20" version="1.1" xmlns="http://www.w3.org/2000/svg" xmlns:xlink="http://www.w3.org/1999/xlink">
    <title>verticle-left</title>
    <g id="icons" stroke="none" stroke-width="1" fill="none" fill-rule="evenodd">
        <g id="desktop" transform="translate(-310.000000, -212.000000)" fill="#555555" fill-rule="nonzero">
            <g id="icon" transform="translate(70.000000, 212.000000)">
                <g id="Combined-Shape" transform="translate(240.000000, 0.000000)">
                    <path d="M13.8859421,2.20275228 C14.1590739,1.92747624 14.6070655,1.92239675 14.8865593,2.19140691 C15.166053,2.46041707 15.1712103,2.90164821 14.8980785,3.17692425 L14.8980785,3.17692425 L8.27214312,9.85487499 L15.2636028,16.7309475 C15.5401323,17.0029132 15.540454,17.4441734 15.2643213,17.7165299 C14.9881887,17.9888864 14.5401676,17.9892033 14.2636381,17.7172376 L14.2636381,17.7172376 L6.893,10.469 L6.89370691,17.3076249 C6.89370691,17.6900131 6.58171499,18 6.19685345,18 C5.81199192,18 5.5,17.6900131 5.5,17.3076249 L5.5,2.69237509 C5.5,2.30998689 5.81199192,2 6.19685345,2 C6.58171499,2 6.89370691,2.30998689 6.89370691,2.69237509 L6.893,9.249 Z"></path>
                </g>
            </g>
        </g>
    </g>
</svg>