<?xml version="1.0" encoding="UTF-8"?>
<svg width="20px" height="20px" viewBox="0 0 20 20" version="1.1" xmlns="http://www.w3.org/2000/svg" xmlns:xlink="http://www.w3.org/1999/xlink">
    <title>weibo</title>
    <g id="icons" stroke="none" stroke-width="1" fill="none" fill-rule="evenodd">
        <g id="desktop" transform="translate(-550.000000, -852.000000)" fill="#555555" fill-rule="nonzero">
            <g id="icon" transform="translate(70.000000, 212.000000)">
                <g id="weibo" transform="translate(480.000000, 640.000000)">
                    <path d="M14.8116637,9.80140866 C14.0339912,9.65987768 14.4126385,9.26711618 14.4126385,9.26711618 C14.4126385,9.26711618 15.1734442,8.08881081 14.2616596,7.23259532 C13.1310733,6.1718952 10.3849638,7.36768075 10.3849638,7.36768075 C9.33593364,7.67356288 9.61438018,7.22779766 9.76300352,6.47114405 C9.76300352,5.57886267 9.4371344,4.06905983 6.64315781,4.96134121 C3.85215903,5.85766931 1.45487431,8.99892697 1.45487431,8.99892697 C-0.211604897,11.0866601 0.00975232499,12.7000716 0.00975232499,12.7000716 C0.426022125,16.2618754 4.45783025,17.2399306 7.59394275,17.4714908 C10.8927898,17.7140855 15.3461567,16.4039905 16.6957668,13.7114601 C18.046177,11.014883 15.5924252,9.94792503 14.8116193,9.80142952 L14.8116637,9.80140866 Z M13.7679448,12.3499675 C13.7679448,14.4010716 11.1149692,16.3269776 7.83830014,16.4674239 C4.56240882,16.6106445 1.91492222,15.0688225 1.91492222,13.0177184 C1.91492222,10.9633185 4.56238659,9.3165738 7.83830014,9.17466735 C11.1149915,9.03257317 13.7679448,10.3006991 13.7679448,12.3499675 Z M7.18436189,10.5272738 C3.89060376,10.8891425 4.27100662,13.7855944 4.27100662,13.7855944 C4.27100662,13.7855944 4.23709526,14.702907 5.15416883,15.1698654 C7.08142778,16.1495893 9.06595383,15.5567445 10.0690947,14.3410591 C11.0720578,13.1252069 10.4839867,10.168388 7.18436189,10.5272738 Z M7.465164,13.6015728 C7.465164,14.082507 6.96653802,14.526812 6.35300007,14.592686 C5.73886212,14.6604164 5.24281394,14.3270833 5.24281394,13.8445222 C5.24281394,13.3632125 5.68299503,12.8598337 6.29831077,12.7998212 C7.00498276,12.7363043 7.465164,13.1184276 7.465164,13.6015728 Z M8.46770488,12.4510521 C8.57850571,12.6260833 8.49908289,12.8890994 8.29537025,13.0402048 C8.08690201,13.1859703 7.83103342,13.1659035 7.72121037,12.9906846 C7.60609839,12.8195125 7.64945428,12.5450863 7.85965586,12.4015319 C8.1035688,12.230923 8.35750405,12.2804223 8.46770488,12.4510521 Z M13.3275415,2.6463241 C13.6630329,2.58558155 14.8597085,2.36491004 16.0240284,2.62093822 C18.1067997,3.07700798 20.9652656,4.96670208 19.679167,8.98881016 L19.679167,8.98881016 C19.5852108,9.56361158 19.2814974,9.60925193 18.9193391,9.60925193 C18.4866025,9.60925193 18.1375777,9.35397469 18.1375777,8.94738341 C18.1375777,8.59475537 18.2930677,8.23695421 18.2930677,8.23695421 C18.3385347,8.08862307 18.7044486,7.16686737 18.0516881,5.78941738 C16.8536347,3.90160063 14.4433943,3.87435826 14.1585033,3.98220132 C13.9667389,4.05240013 13.7146678,4.09951455 13.5679276,4.12312429 L13.4624324,4.13888358 L13.4624324,4.13888358 L13.4475201,4.14085786 C13.011228,4.14085786 12.6620253,3.8079211 12.6620253,3.40354091 C12.6620253,3.06397086 12.9036049,2.77665359 13.2349852,2.68850179 C13.2349852,2.68850179 13.2420741,2.67763405 13.2532298,2.67523522 C13.2771411,2.67060444 13.3018524,2.64834746 13.3275415,2.6463241 Z M13.9883242,5.25748201 C13.9883242,5.25748201 17.3548384,4.6734816 16.9524799,8.06834774 C16.9524799,8.08841448 16.9497465,8.10443449 16.9452354,8.12245701 C16.9077684,8.36321612 16.6815,8.54763401 16.4163869,8.54763401 C16.1160069,8.54763401 15.8728495,8.32270718 15.8728495,8.04148085 C15.8728495,8.04148085 16.4065869,5.7724587 13.9883242,6.27272951 C13.6892775,6.27272951 13.4500757,6.04613393 13.4500757,5.7680365 C13.4500757,5.48459908 13.6892997,5.25748201 13.9883242,5.25748201 Z"></path>
                </g>
            </g>
        </g>
    </g>
</svg>